M48
; DRILL file {KiCad 8.0.0} date 2026-04-19T02:44:27+0800
; FORMAT={-:-/ absolute / inch / decimal}
; #@! TF.CreationDate,2026-04-19T02:44:27+08:00
; #@! TF.GenerationSoftware,Kicad,Pcbnew,8.0.0
; #@! TF.FileFunction,Plated,1,2,PTH
FMAT,2
INCH
; #@! TA.AperFunction,Plated,PTH,ViaDrill
T1C0.0118
; #@! TA.AperFunction,Plated,PTH,ComponentDrill
T2C0.0315
; #@! TA.AperFunction,Plated,PTH,ComponentDrill
T3C0.0394
%
G90
G05
T1
X2.989Y-3.6059
X4.5039Y-3.4453
X5.5413Y-3.4244
X5.815Y-3.4283
X7.3551Y-3.6071
T2
X2.9071Y-3.3259
X3.0485Y-3.4673
X4.3368Y-3.469
X4.4782Y-3.3276
X5.4849Y-3.076
X5.4849Y-3.276
X5.8599Y-3.3259
X6.0013Y-3.4673
X7.2896Y-3.469
X7.431Y-3.3276
T3
X4.863Y-3.6106
X4.963Y-3.6106
X5.063Y-3.6106
X5.163Y-3.6106
X5.3039Y-3.6114
X5.4039Y-3.6114
X5.5039Y-3.6114
X5.6039Y-3.6114
M30
