%TF.GenerationSoftware,KiCad,Pcbnew,8.0.0*%
%TF.CreationDate,2026-04-19T02:44:23+08:00*%
%TF.ProjectId,ken_EMstick,6b656e5f-454d-4737-9469-636b2e6b6963,rev?*%
%TF.SameCoordinates,Original*%
%TF.FileFunction,Legend,Bot*%
%TF.FilePolarity,Positive*%
%FSLAX46Y46*%
G04 Gerber Fmt 4.6, Leading zero omitted, Abs format (unit mm)*
G04 Created by KiCad (PCBNEW 8.0.0) date 2026-04-19 02:44:23*
%MOMM*%
%LPD*%
G01*
G04 APERTURE LIST*
%ADD10C,0.150000*%
%ADD11C,0.120000*%
G04 APERTURE END LIST*
D10*
X76881666Y-90469580D02*
X76929285Y-90517200D01*
X76929285Y-90517200D02*
X77072142Y-90564819D01*
X77072142Y-90564819D02*
X77167380Y-90564819D01*
X77167380Y-90564819D02*
X77310237Y-90517200D01*
X77310237Y-90517200D02*
X77405475Y-90421961D01*
X77405475Y-90421961D02*
X77453094Y-90326723D01*
X77453094Y-90326723D02*
X77500713Y-90136247D01*
X77500713Y-90136247D02*
X77500713Y-89993390D01*
X77500713Y-89993390D02*
X77453094Y-89802914D01*
X77453094Y-89802914D02*
X77405475Y-89707676D01*
X77405475Y-89707676D02*
X77310237Y-89612438D01*
X77310237Y-89612438D02*
X77167380Y-89564819D01*
X77167380Y-89564819D02*
X77072142Y-89564819D01*
X77072142Y-89564819D02*
X76929285Y-89612438D01*
X76929285Y-89612438D02*
X76881666Y-89660057D01*
X75929285Y-90564819D02*
X76500713Y-90564819D01*
X76214999Y-90564819D02*
X76214999Y-89564819D01*
X76214999Y-89564819D02*
X76310237Y-89707676D01*
X76310237Y-89707676D02*
X76405475Y-89802914D01*
X76405475Y-89802914D02*
X76500713Y-89850533D01*
X149092759Y-86988957D02*
X149092759Y-87056301D01*
X149092759Y-87056301D02*
X149160103Y-87190988D01*
X149160103Y-87190988D02*
X149227446Y-87258331D01*
X149227446Y-87258331D02*
X149362133Y-87325675D01*
X149362133Y-87325675D02*
X149496820Y-87325675D01*
X149496820Y-87325675D02*
X149597835Y-87292003D01*
X149597835Y-87292003D02*
X149766194Y-87190988D01*
X149766194Y-87190988D02*
X149867209Y-87089973D01*
X149867209Y-87089973D02*
X149968225Y-86921614D01*
X149968225Y-86921614D02*
X150001896Y-86820599D01*
X150001896Y-86820599D02*
X150001896Y-86685912D01*
X150001896Y-86685912D02*
X149934553Y-86551225D01*
X149934553Y-86551225D02*
X149867209Y-86483881D01*
X149867209Y-86483881D02*
X149732522Y-86416538D01*
X149732522Y-86416538D02*
X149665179Y-86416538D01*
X148890729Y-85978805D02*
X148419324Y-86450209D01*
X149328461Y-85877790D02*
X148991744Y-86551225D01*
X148991744Y-86551225D02*
X148554011Y-86113492D01*
X186118554Y-90466041D02*
X186166173Y-90513661D01*
X186166173Y-90513661D02*
X186309030Y-90561280D01*
X186309030Y-90561280D02*
X186404268Y-90561280D01*
X186404268Y-90561280D02*
X186547125Y-90513661D01*
X186547125Y-90513661D02*
X186642363Y-90418422D01*
X186642363Y-90418422D02*
X186689982Y-90323184D01*
X186689982Y-90323184D02*
X186737601Y-90132708D01*
X186737601Y-90132708D02*
X186737601Y-89989851D01*
X186737601Y-89989851D02*
X186689982Y-89799375D01*
X186689982Y-89799375D02*
X186642363Y-89704137D01*
X186642363Y-89704137D02*
X186547125Y-89608899D01*
X186547125Y-89608899D02*
X186404268Y-89561280D01*
X186404268Y-89561280D02*
X186309030Y-89561280D01*
X186309030Y-89561280D02*
X186166173Y-89608899D01*
X186166173Y-89608899D02*
X186118554Y-89656518D01*
X185213792Y-89561280D02*
X185689982Y-89561280D01*
X185689982Y-89561280D02*
X185737601Y-90037470D01*
X185737601Y-90037470D02*
X185689982Y-89989851D01*
X185689982Y-89989851D02*
X185594744Y-89942232D01*
X185594744Y-89942232D02*
X185356649Y-89942232D01*
X185356649Y-89942232D02*
X185261411Y-89989851D01*
X185261411Y-89989851D02*
X185213792Y-90037470D01*
X185213792Y-90037470D02*
X185166173Y-90132708D01*
X185166173Y-90132708D02*
X185166173Y-90370803D01*
X185166173Y-90370803D02*
X185213792Y-90466041D01*
X185213792Y-90466041D02*
X185261411Y-90513661D01*
X185261411Y-90513661D02*
X185356649Y-90561280D01*
X185356649Y-90561280D02*
X185594744Y-90561280D01*
X185594744Y-90561280D02*
X185689982Y-90513661D01*
X185689982Y-90513661D02*
X185737601Y-90466041D01*
D11*
%TO.C,C1*%
X76574419Y-91030000D02*
X76855581Y-91030000D01*
X76574419Y-92050000D02*
X76855581Y-92050000D01*
%TO.C,C2*%
X114521962Y-86636789D02*
X114720773Y-86437978D01*
X115243211Y-87358038D02*
X115442022Y-87159227D01*
%TO.C,C3*%
X140115581Y-86470000D02*
X139834419Y-86470000D01*
X140115581Y-87490000D02*
X139834419Y-87490000D01*
%TO.C,C4*%
X147757978Y-87889227D02*
X147956789Y-88088038D01*
X148479227Y-87167978D02*
X148678038Y-87366789D01*
%TO.C,C5*%
X186152573Y-91091992D02*
X185871411Y-91091992D01*
X186152573Y-92111992D02*
X185871411Y-92111992D01*
%TO.C,J3*%
X122190000Y-90380000D02*
X122190000Y-93040000D01*
X122190000Y-90380000D02*
X129869999Y-90380000D01*
X122190000Y-93040000D02*
X129869999Y-93040000D01*
X129869999Y-90380000D02*
X129869999Y-93040000D01*
X132470000Y-91710000D02*
X132470000Y-93040000D01*
X132470000Y-93040000D02*
X131140000Y-93040000D01*
%TD*%
M02*
