%TF.GenerationSoftware,KiCad,Pcbnew,8.0.0*%
%TF.CreationDate,2026-04-19T02:44:23+08:00*%
%TF.ProjectId,ken_EMstick,6b656e5f-454d-4737-9469-636b2e6b6963,rev?*%
%TF.SameCoordinates,Original*%
%TF.FileFunction,Copper,L2,Bot*%
%TF.FilePolarity,Positive*%
%FSLAX46Y46*%
G04 Gerber Fmt 4.6, Leading zero omitted, Abs format (unit mm)*
G04 Created by KiCad (PCBNEW 8.0.0) date 2026-04-19 02:44:23*
%MOMM*%
%LPD*%
G01*
G04 APERTURE LIST*
G04 Aperture macros list*
%AMRoundRect*
0 Rectangle with rounded corners*
0 $1 Rounding radius*
0 $2 $3 $4 $5 $6 $7 $8 $9 X,Y pos of 4 corners*
0 Add a 4 corners polygon primitive as box body*
4,1,4,$2,$3,$4,$5,$6,$7,$8,$9,$2,$3,0*
0 Add four circle primitives for the rounded corners*
1,1,$1+$1,$2,$3*
1,1,$1+$1,$4,$5*
1,1,$1+$1,$6,$7*
1,1,$1+$1,$8,$9*
0 Add four rect primitives between the rounded corners*
20,1,$1+$1,$2,$3,$4,$5,0*
20,1,$1+$1,$4,$5,$6,$7,0*
20,1,$1+$1,$6,$7,$8,$9,0*
20,1,$1+$1,$8,$9,$2,$3,0*%
%AMHorizOval*
0 Thick line with rounded ends*
0 $1 width*
0 $2 $3 position (X,Y) of the first rounded end (center of the circle)*
0 $4 $5 position (X,Y) of the second rounded end (center of the circle)*
0 Add line between two ends*
20,1,$1,$2,$3,$4,$5,0*
0 Add two circle primitives to create the rounded ends*
1,1,$1,$2,$3*
1,1,$1,$4,$5*%
G04 Aperture macros list end*
%TA.AperFunction,ComponentPad*%
%ADD10R,1.700000X1.700000*%
%TD*%
%TA.AperFunction,ComponentPad*%
%ADD11O,1.700000X1.700000*%
%TD*%
%TA.AperFunction,ComponentPad*%
%ADD12C,1.600000*%
%TD*%
%TA.AperFunction,ComponentPad*%
%ADD13HorizOval,1.600000X0.000000X0.000000X0.000000X0.000000X0*%
%TD*%
%TA.AperFunction,ComponentPad*%
%ADD14HorizOval,1.600000X0.000000X0.000000X0.000000X0.000000X0*%
%TD*%
%TA.AperFunction,ComponentPad*%
%ADD15HorizOval,1.600000X0.000000X0.000000X0.000000X0.000000X0*%
%TD*%
%TA.AperFunction,ComponentPad*%
%ADD16HorizOval,1.600000X0.000000X0.000000X0.000000X0.000000X0*%
%TD*%
%TA.AperFunction,ComponentPad*%
%ADD17O,1.600000X1.600000*%
%TD*%
%TA.AperFunction,SMDPad,CuDef*%
%ADD18RoundRect,0.225000X0.225000X0.250000X-0.225000X0.250000X-0.225000X-0.250000X0.225000X-0.250000X0*%
%TD*%
%TA.AperFunction,SMDPad,CuDef*%
%ADD19RoundRect,0.225000X-0.017678X0.335876X-0.335876X0.017678X0.017678X-0.335876X0.335876X-0.017678X0*%
%TD*%
%TA.AperFunction,SMDPad,CuDef*%
%ADD20RoundRect,0.225000X-0.225000X-0.250000X0.225000X-0.250000X0.225000X0.250000X-0.225000X0.250000X0*%
%TD*%
%TA.AperFunction,SMDPad,CuDef*%
%ADD21RoundRect,0.225000X0.335876X0.017678X0.017678X0.335876X-0.335876X-0.017678X-0.017678X-0.335876X0*%
%TD*%
%TA.AperFunction,ViaPad*%
%ADD22C,0.600000*%
%TD*%
%TA.AperFunction,Conductor*%
%ADD23C,0.254000*%
%TD*%
G04 APERTURE END LIST*
D10*
%TO.P,J1,1,Pin_1*%
%TO.N,GND*%
X134720000Y-91730000D03*
D11*
%TO.P,J1,2,Pin_2*%
X137260000Y-91730000D03*
%TO.P,J1,3,Pin_3*%
%TO.N,/L4*%
X139799999Y-91730000D03*
%TO.P,J1,4,Pin_4*%
%TO.N,/L5*%
X142340000Y-91730000D03*
%TD*%
D12*
%TO.P,L1,1*%
%TO.N,/L1*%
X77433157Y-88070576D03*
D13*
%TO.P,L1,2*%
%TO.N,GND*%
X73841055Y-84478474D03*
%TD*%
D12*
%TO.P,L2,1*%
%TO.N,/L2*%
X113746869Y-84521607D03*
D14*
%TO.P,L2,2*%
%TO.N,GND*%
X110154767Y-88113709D03*
%TD*%
D12*
%TO.P,L4,1*%
%TO.N,/L4*%
X148841056Y-84478473D03*
D15*
%TO.P,L4,2*%
%TO.N,GND*%
X152433158Y-88070575D03*
%TD*%
D12*
%TO.P,L5,1*%
%TO.N,/L5*%
X185154764Y-88113708D03*
D16*
%TO.P,L5,2*%
%TO.N,GND*%
X188746866Y-84521606D03*
%TD*%
D12*
%TO.P,L3,1*%
%TO.N,/L3*%
X139315527Y-83209737D03*
D17*
%TO.P,L3,2*%
%TO.N,GND*%
X139315527Y-78129737D03*
%TD*%
D18*
%TO.P,C1,1*%
%TO.N,/L1*%
X77490000Y-91540000D03*
%TO.P,C1,2*%
%TO.N,GND*%
X75940000Y-91540000D03*
%TD*%
D19*
%TO.P,C2,1*%
%TO.N,/L2*%
X115530000Y-86350000D03*
%TO.P,C2,2*%
%TO.N,GND*%
X114433984Y-87446016D03*
%TD*%
D20*
%TO.P,C3,1*%
%TO.N,/L3*%
X139200000Y-86980000D03*
%TO.P,C3,2*%
%TO.N,GND*%
X140750000Y-86980000D03*
%TD*%
D21*
%TO.P,C4,1*%
%TO.N,/L4*%
X148766016Y-88176016D03*
%TO.P,C4,2*%
%TO.N,GND*%
X147670000Y-87080000D03*
%TD*%
D20*
%TO.P,C5,1*%
%TO.N,/L5*%
X185236992Y-91601992D03*
%TO.P,C5,2*%
%TO.N,GND*%
X186786992Y-91601992D03*
%TD*%
D10*
%TO.P,J3,1,Pin_1*%
%TO.N,GND*%
X131140000Y-91710000D03*
D11*
%TO.P,J3,2,Pin_2*%
%TO.N,/L3*%
X128600000Y-91710000D03*
%TO.P,J3,3,Pin_3*%
%TO.N,/L2*%
X126060001Y-91710000D03*
%TO.P,J3,4,Pin_4*%
%TO.N,/L1*%
X123520000Y-91710000D03*
%TD*%
D22*
%TO.N,GND*%
X186820000Y-91620000D03*
X140750000Y-86980000D03*
X147700000Y-87080000D03*
X114400000Y-87510000D03*
X75920000Y-91590000D03*
%TD*%
D23*
%TO.N,/L4*%
X139799999Y-89270002D02*
X139799999Y-91730000D01*
X140893985Y-88176016D02*
X139799999Y-89270002D01*
X148766016Y-88176016D02*
X140893985Y-88176016D01*
%TO.N,/L5*%
X142390000Y-90520000D02*
X142390000Y-91760000D01*
X143480000Y-89430000D02*
X142390000Y-90520000D01*
X155370000Y-89430000D02*
X143480000Y-89430000D01*
X183920000Y-90090000D02*
X182890000Y-89060000D01*
X182890000Y-89060000D02*
X155740000Y-89060000D01*
X183920000Y-91320000D02*
X183920000Y-90090000D01*
X155740000Y-89060000D02*
X155370000Y-89430000D01*
X184201992Y-91601992D02*
X183920000Y-91320000D01*
X185236992Y-91601992D02*
X184201992Y-91601992D01*
%TO.N,/L1*%
X78000000Y-91540000D02*
X77490000Y-91540000D01*
X80417763Y-89122237D02*
X78000000Y-91540000D01*
X121990000Y-89720000D02*
X107310000Y-89720000D01*
X123520000Y-91250000D02*
X121990000Y-89720000D01*
X106712237Y-89122237D02*
X80417763Y-89122237D01*
X107310000Y-89720000D02*
X106712237Y-89122237D01*
X77490000Y-88127419D02*
X77433157Y-88070576D01*
X123520000Y-91710000D02*
X123520000Y-91250000D01*
X77490000Y-91540000D02*
X77490000Y-88127419D01*
%TO.N,/L2*%
X115690000Y-86390000D02*
X116694530Y-86390000D01*
X119494530Y-89190000D02*
X123540001Y-89190000D01*
X116694530Y-86390000D02*
X119494530Y-89190000D01*
X113821607Y-84521607D02*
X115690000Y-86390000D01*
X113746869Y-84521607D02*
X113821607Y-84521607D01*
X123540001Y-89190000D02*
X126060001Y-91710000D01*
%TO.N,/L3*%
X136870000Y-89590000D02*
X130720000Y-89590000D01*
X139330000Y-83224210D02*
X139330000Y-87130000D01*
X139315527Y-83209737D02*
X139330000Y-83224210D01*
X139330000Y-87130000D02*
X136870000Y-89590000D01*
X130720000Y-89590000D02*
X128600000Y-91710000D01*
%TO.N,/L4*%
X148766016Y-84553513D02*
X148841056Y-84478473D01*
X148766016Y-88176016D02*
X148766016Y-84553513D01*
%TO.N,/L5*%
X185236992Y-91601992D02*
X185236992Y-88195936D01*
X185236992Y-88195936D02*
X185154764Y-88113708D01*
%TD*%
M02*
