%TF.GenerationSoftware,KiCad,Pcbnew,8.0.0*%
%TF.CreationDate,2026-04-19T02:44:23+08:00*%
%TF.ProjectId,ken_EMstick,6b656e5f-454d-4737-9469-636b2e6b6963,rev?*%
%TF.SameCoordinates,Original*%
%TF.FileFunction,Copper,L1,Top*%
%TF.FilePolarity,Positive*%
%FSLAX46Y46*%
G04 Gerber Fmt 4.6, Leading zero omitted, Abs format (unit mm)*
G04 Created by KiCad (PCBNEW 8.0.0) date 2026-04-19 02:44:23*
%MOMM*%
%LPD*%
G01*
G04 APERTURE LIST*
G04 Aperture macros list*
%AMHorizOval*
0 Thick line with rounded ends*
0 $1 width*
0 $2 $3 position (X,Y) of the first rounded end (center of the circle)*
0 $4 $5 position (X,Y) of the second rounded end (center of the circle)*
0 Add line between two ends*
20,1,$1,$2,$3,$4,$5,0*
0 Add two circle primitives to create the rounded ends*
1,1,$1,$2,$3*
1,1,$1,$4,$5*%
G04 Aperture macros list end*
%TA.AperFunction,ComponentPad*%
%ADD10R,1.700000X1.700000*%
%TD*%
%TA.AperFunction,ComponentPad*%
%ADD11O,1.700000X1.700000*%
%TD*%
%TA.AperFunction,ComponentPad*%
%ADD12C,1.600000*%
%TD*%
%TA.AperFunction,ComponentPad*%
%ADD13HorizOval,1.600000X0.000000X0.000000X0.000000X0.000000X0*%
%TD*%
%TA.AperFunction,ComponentPad*%
%ADD14HorizOval,1.600000X0.000000X0.000000X0.000000X0.000000X0*%
%TD*%
%TA.AperFunction,ComponentPad*%
%ADD15HorizOval,1.600000X0.000000X0.000000X0.000000X0.000000X0*%
%TD*%
%TA.AperFunction,ComponentPad*%
%ADD16HorizOval,1.600000X0.000000X0.000000X0.000000X0.000000X0*%
%TD*%
%TA.AperFunction,ComponentPad*%
%ADD17O,1.600000X1.600000*%
%TD*%
%TA.AperFunction,ViaPad*%
%ADD18C,0.600000*%
%TD*%
G04 APERTURE END LIST*
D10*
%TO.P,J1,1,Pin_1*%
%TO.N,GND*%
X134720000Y-91730000D03*
D11*
%TO.P,J1,2,Pin_2*%
X137260000Y-91730000D03*
%TO.P,J1,3,Pin_3*%
%TO.N,/L4*%
X139799999Y-91730000D03*
%TO.P,J1,4,Pin_4*%
%TO.N,/L5*%
X142340000Y-91730000D03*
%TD*%
D12*
%TO.P,L1,1*%
%TO.N,/L1*%
X77433157Y-88070576D03*
D13*
%TO.P,L1,2*%
%TO.N,GND*%
X73841055Y-84478474D03*
%TD*%
D12*
%TO.P,L2,1*%
%TO.N,/L2*%
X113746869Y-84521607D03*
D14*
%TO.P,L2,2*%
%TO.N,GND*%
X110154767Y-88113709D03*
%TD*%
D12*
%TO.P,L4,1*%
%TO.N,/L4*%
X148841056Y-84478473D03*
D15*
%TO.P,L4,2*%
%TO.N,GND*%
X152433158Y-88070575D03*
%TD*%
D12*
%TO.P,L5,1*%
%TO.N,/L5*%
X185154764Y-88113708D03*
D16*
%TO.P,L5,2*%
%TO.N,GND*%
X188746866Y-84521606D03*
%TD*%
D12*
%TO.P,L3,1*%
%TO.N,/L3*%
X139315527Y-83209737D03*
D17*
%TO.P,L3,2*%
%TO.N,GND*%
X139315527Y-78129737D03*
%TD*%
D10*
%TO.P,J3,1,Pin_1*%
%TO.N,GND*%
X131140000Y-91710000D03*
D11*
%TO.P,J3,2,Pin_2*%
%TO.N,/L3*%
X128600000Y-91710000D03*
%TO.P,J3,3,Pin_3*%
%TO.N,/L2*%
X126060001Y-91710000D03*
%TO.P,J3,4,Pin_4*%
%TO.N,/L1*%
X123520000Y-91710000D03*
%TD*%
D18*
%TO.N,GND*%
X186820000Y-91620000D03*
X140750000Y-86980000D03*
X147700000Y-87080000D03*
X114400000Y-87510000D03*
X75920000Y-91590000D03*
%TD*%
%TA.AperFunction,Conductor*%
%TO.N,GND*%
G36*
X139966001Y-77089422D02*
G01*
X140007795Y-77134311D01*
X140023490Y-77163055D01*
X140030838Y-77179145D01*
X140099410Y-77362981D01*
X140104395Y-77379956D01*
X140146108Y-77571686D01*
X140148626Y-77589197D01*
X140162920Y-77788959D01*
X140163236Y-77797809D01*
X140163236Y-80837660D01*
X140197344Y-80964956D01*
X140212610Y-80991397D01*
X140263236Y-81079083D01*
X140356422Y-81172269D01*
X140470550Y-81238161D01*
X140597844Y-81272269D01*
X140729628Y-81272269D01*
X141245500Y-81272269D01*
X141312539Y-81291954D01*
X141358294Y-81344758D01*
X141369500Y-81396269D01*
X141369500Y-86764108D01*
X141369500Y-86895892D01*
X141381321Y-86940008D01*
X141403608Y-87023187D01*
X141430942Y-87070530D01*
X141469500Y-87137314D01*
X141562686Y-87230500D01*
X141676814Y-87296392D01*
X141804108Y-87330500D01*
X141804110Y-87330500D01*
X146219940Y-87330500D01*
X146219942Y-87330500D01*
X146347236Y-87296392D01*
X146461364Y-87230500D01*
X146554550Y-87137314D01*
X146554552Y-87137309D01*
X146558199Y-87133663D01*
X146619522Y-87100178D01*
X146652806Y-87097538D01*
X146655302Y-87097678D01*
X147634797Y-86118182D01*
X147696118Y-86084699D01*
X147759120Y-86087403D01*
X151655341Y-87292758D01*
X153873874Y-87434831D01*
X153939514Y-87458759D01*
X153953605Y-87470875D01*
X155143699Y-88660501D01*
X155187973Y-88704777D01*
X155188071Y-88704957D01*
X155188113Y-88704917D01*
X155234346Y-88751301D01*
X155234761Y-88751619D01*
X155234914Y-88751737D01*
X155234977Y-88751785D01*
X155234981Y-88751787D01*
X155234984Y-88751790D01*
X155260361Y-88766442D01*
X155291786Y-88784587D01*
X155291767Y-88784619D01*
X155291955Y-88784684D01*
X155348362Y-88817374D01*
X155348364Y-88817375D01*
X155348363Y-88817375D01*
X155348506Y-88817434D01*
X155349102Y-88817682D01*
X155349109Y-88817683D01*
X155349111Y-88817685D01*
X155412672Y-88834717D01*
X155475601Y-88851689D01*
X155476399Y-88851794D01*
X155476403Y-88851796D01*
X155542072Y-88851796D01*
X155542270Y-88851855D01*
X155542271Y-88851797D01*
X181970870Y-88894807D01*
X181972505Y-88894916D01*
X181979636Y-88894916D01*
X181979637Y-88894917D01*
X182044692Y-88894926D01*
X182044874Y-88894980D01*
X182044875Y-88894927D01*
X182110692Y-88895035D01*
X182110701Y-88895032D01*
X182111005Y-88894993D01*
X182111186Y-88894969D01*
X182111412Y-88894938D01*
X182111422Y-88894939D01*
X182174455Y-88878060D01*
X182174464Y-88878093D01*
X182174628Y-88878014D01*
X182238042Y-88861134D01*
X182238053Y-88861127D01*
X182238711Y-88860855D01*
X182238721Y-88860853D01*
X182294976Y-88828386D01*
X182295135Y-88828295D01*
X182352268Y-88795433D01*
X182352267Y-88795433D01*
X182352277Y-88795428D01*
X182352285Y-88795419D01*
X182352854Y-88794983D01*
X182352861Y-88794980D01*
X182399195Y-88748661D01*
X182445614Y-88702393D01*
X182445614Y-88702391D01*
X182450692Y-88697331D01*
X182451764Y-88696109D01*
X183821249Y-87327091D01*
X183882576Y-87293618D01*
X183952266Y-87298615D01*
X184008193Y-87340495D01*
X184032599Y-87405964D01*
X184021295Y-87467194D01*
X183928026Y-87667210D01*
X183928022Y-87667219D01*
X183869130Y-87887010D01*
X183869128Y-87887021D01*
X183849296Y-88113706D01*
X183849296Y-88113709D01*
X183869128Y-88340394D01*
X183869130Y-88340405D01*
X183928022Y-88560196D01*
X183928025Y-88560205D01*
X184024195Y-88766440D01*
X184024196Y-88766442D01*
X184154718Y-88952849D01*
X184315622Y-89113753D01*
X184315625Y-89113755D01*
X184502030Y-89244276D01*
X184708268Y-89340447D01*
X184928072Y-89399343D01*
X185089994Y-89413509D01*
X185154762Y-89419176D01*
X185154764Y-89419176D01*
X185154766Y-89419176D01*
X185211437Y-89414217D01*
X185381456Y-89399343D01*
X185601260Y-89340447D01*
X185807498Y-89244276D01*
X185993903Y-89113755D01*
X186154811Y-88952847D01*
X186285332Y-88766442D01*
X186381503Y-88560204D01*
X186440399Y-88340400D01*
X186460232Y-88113708D01*
X186440399Y-87887016D01*
X186387375Y-87689127D01*
X186381505Y-87667219D01*
X186381502Y-87667210D01*
X186342322Y-87583189D01*
X186285332Y-87460974D01*
X186171648Y-87298615D01*
X186154809Y-87274566D01*
X185993905Y-87113662D01*
X185807498Y-86983140D01*
X185807496Y-86983139D01*
X185601261Y-86886969D01*
X185601252Y-86886966D01*
X185381461Y-86828074D01*
X185381457Y-86828073D01*
X185381456Y-86828073D01*
X185381455Y-86828072D01*
X185381450Y-86828072D01*
X185154766Y-86808240D01*
X185154762Y-86808240D01*
X184928077Y-86828072D01*
X184928066Y-86828074D01*
X184708275Y-86886966D01*
X184708266Y-86886970D01*
X184508600Y-86980076D01*
X184439522Y-86990568D01*
X184375738Y-86962048D01*
X184337499Y-86903572D01*
X184336944Y-86833704D01*
X184368527Y-86779999D01*
X185309745Y-85839102D01*
X185323023Y-85828424D01*
X185329110Y-85823292D01*
X185363801Y-85785252D01*
X185367722Y-85781145D01*
X185404154Y-85744728D01*
X185404156Y-85744723D01*
X185409044Y-85738356D01*
X185413329Y-85732498D01*
X185417906Y-85725927D01*
X185417911Y-85725923D01*
X185441581Y-85680188D01*
X185444301Y-85675215D01*
X185470066Y-85630611D01*
X185470067Y-85630604D01*
X185473150Y-85623167D01*
X185475746Y-85616470D01*
X185478487Y-85608885D01*
X185479212Y-85605578D01*
X185489509Y-85558602D01*
X185490854Y-85553076D01*
X185504196Y-85503324D01*
X185504196Y-85503318D01*
X185505238Y-85495416D01*
X185506028Y-85488129D01*
X185506707Y-85480161D01*
X185506707Y-85480159D01*
X185504339Y-85428728D01*
X185504209Y-85423048D01*
X185504219Y-85371539D01*
X185504218Y-85371534D01*
X185503183Y-85363660D01*
X185502058Y-85356402D01*
X185500648Y-85348517D01*
X185500648Y-85348514D01*
X185485048Y-85299444D01*
X185483461Y-85294022D01*
X185470132Y-85244240D01*
X185470128Y-85244234D01*
X185467098Y-85236912D01*
X185460203Y-85221285D01*
X185458929Y-85217276D01*
X185457385Y-85147423D01*
X185489421Y-85092044D01*
X186073280Y-84508185D01*
X186134599Y-84474703D01*
X186204291Y-84479687D01*
X186222936Y-84488470D01*
X186224827Y-84489562D01*
X186224830Y-84489562D01*
X186224834Y-84489565D01*
X186232340Y-84492673D01*
X186232336Y-84492682D01*
X186238735Y-84495161D01*
X186238739Y-84495151D01*
X186246377Y-84497910D01*
X186246380Y-84497912D01*
X186246383Y-84497912D01*
X186246384Y-84497913D01*
X186268916Y-84502852D01*
X186293244Y-84508185D01*
X186296762Y-84508956D01*
X186302281Y-84510298D01*
X186352127Y-84523645D01*
X186352130Y-84523644D01*
X186352131Y-84523645D01*
X186360189Y-84524705D01*
X186360187Y-84524716D01*
X186367005Y-84525453D01*
X186367006Y-84525443D01*
X186375102Y-84526132D01*
X186375106Y-84526131D01*
X186375107Y-84526132D01*
X186426662Y-84523758D01*
X186432300Y-84523628D01*
X186483874Y-84523619D01*
X186483914Y-84523619D01*
X186491969Y-84522557D01*
X186491970Y-84522567D01*
X186498750Y-84521515D01*
X186498749Y-84521504D01*
X186506748Y-84520073D01*
X186506753Y-84520073D01*
X186555930Y-84504439D01*
X186561343Y-84502854D01*
X186590035Y-84495161D01*
X186611200Y-84489486D01*
X186618707Y-84486375D01*
X186618710Y-84486384D01*
X186624990Y-84483611D01*
X186624986Y-84483601D01*
X186632335Y-84480152D01*
X186632336Y-84480151D01*
X186632343Y-84480149D01*
X186675835Y-84452295D01*
X186680598Y-84449398D01*
X186725314Y-84423571D01*
X186725316Y-84423568D01*
X186731765Y-84418619D01*
X186731771Y-84418627D01*
X186737116Y-84414327D01*
X186737109Y-84414318D01*
X186743317Y-84409082D01*
X186743322Y-84409080D01*
X186778104Y-84370940D01*
X186781972Y-84366890D01*
X188348592Y-82799653D01*
X188409904Y-82766159D01*
X188479597Y-82771130D01*
X188523967Y-82799639D01*
X189908908Y-84184580D01*
X189942393Y-84245903D01*
X189940204Y-84307196D01*
X189930976Y-84338624D01*
X189924793Y-84355200D01*
X189843286Y-84533676D01*
X189834812Y-84549197D01*
X189728733Y-84714260D01*
X189718131Y-84728423D01*
X189586307Y-84880559D01*
X189580274Y-84887038D01*
X187530127Y-86937184D01*
X187522051Y-86944339D01*
X187476775Y-86990528D01*
X187475906Y-86991405D01*
X187431366Y-87035945D01*
X187430347Y-87037302D01*
X187429585Y-87038306D01*
X187428532Y-87039677D01*
X187397586Y-87094535D01*
X187396975Y-87095606D01*
X187365505Y-87150116D01*
X187364870Y-87151695D01*
X187364394Y-87152861D01*
X187363744Y-87154427D01*
X187348061Y-87215386D01*
X187347747Y-87216580D01*
X187331450Y-87277402D01*
X187331249Y-87279063D01*
X187331094Y-87280283D01*
X187330860Y-87282058D01*
X187331489Y-87344993D01*
X187331495Y-87346232D01*
X187331495Y-87410955D01*
X187332255Y-87421734D01*
X187374556Y-91655263D01*
X187374246Y-91665348D01*
X187359999Y-91864549D01*
X187357481Y-91882061D01*
X187315774Y-92073782D01*
X187310790Y-92090758D01*
X187269287Y-92202031D01*
X187242226Y-92274582D01*
X187234876Y-92290676D01*
X187140840Y-92462886D01*
X187131274Y-92477770D01*
X187013694Y-92634834D01*
X187002107Y-92648205D01*
X186863363Y-92786943D01*
X186849993Y-92798528D01*
X186692927Y-92916102D01*
X186678042Y-92925668D01*
X186505835Y-93019694D01*
X186489742Y-93027043D01*
X186305904Y-93095606D01*
X186288928Y-93100590D01*
X186097209Y-93142290D01*
X186079696Y-93144807D01*
X185878607Y-93159182D01*
X185869761Y-93159498D01*
X185823840Y-93159496D01*
X185809255Y-93159496D01*
X185809254Y-93159496D01*
X185801015Y-93159496D01*
X185800971Y-93159499D01*
X180086960Y-93159499D01*
X180073077Y-93158719D01*
X179982735Y-93148540D01*
X179955668Y-93142363D01*
X179876456Y-93114645D01*
X179851446Y-93102600D01*
X179780397Y-93057956D01*
X179758689Y-93040644D01*
X179699355Y-92981310D01*
X179682042Y-92959601D01*
X179660750Y-92925715D01*
X179637396Y-92888548D01*
X179625352Y-92863538D01*
X179597637Y-92784332D01*
X179591460Y-92757275D01*
X179581278Y-92666900D01*
X179580500Y-92653028D01*
X179580500Y-92288745D01*
X179568955Y-92193664D01*
X179544037Y-91988449D01*
X179471643Y-91694734D01*
X179471642Y-91694731D01*
X179471641Y-91694727D01*
X179364371Y-91411882D01*
X179223793Y-91144035D01*
X179223787Y-91144026D01*
X179205580Y-91117649D01*
X179168173Y-91063455D01*
X179051952Y-90895078D01*
X179051947Y-90895072D01*
X178875838Y-90696286D01*
X180165028Y-90696286D01*
X180196513Y-90895078D01*
X180198282Y-90906243D01*
X180252801Y-91074035D01*
X180263972Y-91108414D01*
X180360479Y-91297820D01*
X180485418Y-91469786D01*
X180635741Y-91620109D01*
X180807707Y-91745048D01*
X180807709Y-91745049D01*
X180807712Y-91745051D01*
X180997116Y-91841557D01*
X181199285Y-91907246D01*
X181409241Y-91940500D01*
X181409242Y-91940500D01*
X181621814Y-91940500D01*
X181621815Y-91940500D01*
X181831771Y-91907246D01*
X182033940Y-91841557D01*
X182223344Y-91745051D01*
X182333848Y-91664766D01*
X182395314Y-91620109D01*
X182395316Y-91620106D01*
X182395320Y-91620104D01*
X182545632Y-91469792D01*
X182545634Y-91469788D01*
X182545637Y-91469786D01*
X182670576Y-91297820D01*
X182670575Y-91297820D01*
X182670579Y-91297816D01*
X182767085Y-91108412D01*
X182832774Y-90906243D01*
X182866028Y-90696287D01*
X182866028Y-90483713D01*
X182832774Y-90273757D01*
X182767085Y-90071588D01*
X182670579Y-89882184D01*
X182670577Y-89882181D01*
X182670576Y-89882179D01*
X182545637Y-89710213D01*
X182395314Y-89559890D01*
X182223348Y-89434951D01*
X182033942Y-89338444D01*
X182033941Y-89338443D01*
X182033940Y-89338443D01*
X181831771Y-89272754D01*
X181831769Y-89272753D01*
X181831768Y-89272753D01*
X181651963Y-89244275D01*
X181621815Y-89239500D01*
X181409241Y-89239500D01*
X181379093Y-89244275D01*
X181199288Y-89272753D01*
X180997113Y-89338444D01*
X180807707Y-89434951D01*
X180635741Y-89559890D01*
X180485418Y-89710213D01*
X180360479Y-89882179D01*
X180263972Y-90071585D01*
X180198281Y-90273760D01*
X180165028Y-90483713D01*
X180165028Y-90696286D01*
X178875838Y-90696286D01*
X178851353Y-90668648D01*
X178851351Y-90668646D01*
X178624927Y-90468052D01*
X178624921Y-90468047D01*
X178375973Y-90296212D01*
X178375964Y-90296206D01*
X178108117Y-90155628D01*
X177825272Y-90048358D01*
X177709820Y-90019902D01*
X177531551Y-89975963D01*
X177351371Y-89954085D01*
X177231254Y-89939500D01*
X177231252Y-89939500D01*
X177145892Y-89939500D01*
X144255892Y-89939500D01*
X144124108Y-89939500D01*
X143996812Y-89973608D01*
X143882686Y-90039500D01*
X143882683Y-90039502D01*
X143789502Y-90132683D01*
X143789500Y-90132686D01*
X143723608Y-90246812D01*
X143689500Y-90374108D01*
X143689500Y-90909482D01*
X143669815Y-90976521D01*
X143617011Y-91022276D01*
X143547853Y-91032220D01*
X143484297Y-91003195D01*
X143463925Y-90980606D01*
X143435842Y-90940500D01*
X143378495Y-90858599D01*
X143378493Y-90858597D01*
X143378491Y-90858594D01*
X143211402Y-90691506D01*
X143211395Y-90691501D01*
X143017834Y-90555967D01*
X143017830Y-90555965D01*
X142882694Y-90492950D01*
X142803663Y-90456097D01*
X142803659Y-90456096D01*
X142803655Y-90456094D01*
X142575413Y-90394938D01*
X142575403Y-90394936D01*
X142340001Y-90374341D01*
X142339999Y-90374341D01*
X142104596Y-90394936D01*
X142104586Y-90394938D01*
X141876344Y-90456094D01*
X141876335Y-90456098D01*
X141662171Y-90555964D01*
X141662169Y-90555965D01*
X141468597Y-90691505D01*
X141301508Y-90858594D01*
X141171574Y-91044160D01*
X141116997Y-91087784D01*
X141047498Y-91094977D01*
X140985144Y-91063455D01*
X140968424Y-91044159D01*
X140838493Y-90858597D01*
X140671401Y-90691506D01*
X140671394Y-90691501D01*
X140477833Y-90555967D01*
X140477829Y-90555965D01*
X140342693Y-90492950D01*
X140263662Y-90456097D01*
X140263658Y-90456096D01*
X140263654Y-90456094D01*
X140035412Y-90394938D01*
X140035402Y-90394936D01*
X139800000Y-90374341D01*
X139799998Y-90374341D01*
X139564595Y-90394936D01*
X139564585Y-90394938D01*
X139336343Y-90456094D01*
X139336334Y-90456098D01*
X139122170Y-90555964D01*
X139122168Y-90555965D01*
X138928596Y-90691505D01*
X138761504Y-90858597D01*
X138625964Y-91052169D01*
X138625963Y-91052171D01*
X138526097Y-91266335D01*
X138526093Y-91266344D01*
X138464937Y-91494586D01*
X138464935Y-91494596D01*
X138444340Y-91729999D01*
X138444340Y-91730000D01*
X138464935Y-91965403D01*
X138464937Y-91965413D01*
X138526093Y-92193655D01*
X138526095Y-92193659D01*
X138526096Y-92193663D01*
X138616638Y-92387830D01*
X138625964Y-92407830D01*
X138625966Y-92407834D01*
X138704735Y-92520327D01*
X138761500Y-92601396D01*
X138761505Y-92601402D01*
X138928596Y-92768493D01*
X138928602Y-92768498D01*
X138950634Y-92783925D01*
X138994259Y-92838501D01*
X139001453Y-92908000D01*
X138969930Y-92970355D01*
X138909701Y-93005769D01*
X138879511Y-93009500D01*
X129491925Y-93009500D01*
X129424886Y-92989815D01*
X129379131Y-92937011D01*
X129369187Y-92867853D01*
X129398212Y-92804297D01*
X129420802Y-92783925D01*
X129444522Y-92767316D01*
X129471401Y-92748495D01*
X129638495Y-92581401D01*
X129774035Y-92387830D01*
X129873903Y-92173663D01*
X129935063Y-91945408D01*
X129955659Y-91710000D01*
X129935063Y-91474592D01*
X129879261Y-91266335D01*
X129873905Y-91246344D01*
X129873904Y-91246343D01*
X129873903Y-91246337D01*
X129774035Y-91032171D01*
X129768425Y-91024158D01*
X129638494Y-90838597D01*
X129471402Y-90671506D01*
X129471395Y-90671501D01*
X129277834Y-90535967D01*
X129277830Y-90535965D01*
X129172687Y-90486936D01*
X129063663Y-90436097D01*
X129063659Y-90436096D01*
X129063655Y-90436094D01*
X128835413Y-90374938D01*
X128835403Y-90374936D01*
X128600001Y-90354341D01*
X128599999Y-90354341D01*
X128364596Y-90374936D01*
X128364586Y-90374938D01*
X128136344Y-90436094D01*
X128136337Y-90436096D01*
X128136337Y-90436097D01*
X128133333Y-90437498D01*
X127922171Y-90535964D01*
X127922169Y-90535965D01*
X127728597Y-90671505D01*
X127561508Y-90838594D01*
X127431575Y-91024158D01*
X127376998Y-91067782D01*
X127307499Y-91074975D01*
X127245145Y-91043453D01*
X127228425Y-91024157D01*
X127098495Y-90838597D01*
X126931402Y-90671505D01*
X126812875Y-90588510D01*
X126769250Y-90533933D01*
X126759999Y-90486936D01*
X126759999Y-90440000D01*
X126759998Y-90439999D01*
X126557765Y-90440737D01*
X126525220Y-90436513D01*
X126295414Y-90374938D01*
X126295404Y-90374936D01*
X126060002Y-90354341D01*
X126060000Y-90354341D01*
X125824597Y-90374936D01*
X125824587Y-90374938D01*
X125596330Y-90436099D01*
X125594036Y-90436934D01*
X125591586Y-90437370D01*
X125591110Y-90437498D01*
X125591099Y-90437457D01*
X125552092Y-90444406D01*
X124041248Y-90449918D01*
X123988400Y-90438305D01*
X123983671Y-90436100D01*
X123983655Y-90436094D01*
X123755413Y-90374938D01*
X123755403Y-90374936D01*
X123520001Y-90354341D01*
X123519999Y-90354341D01*
X123284596Y-90374936D01*
X123284586Y-90374938D01*
X123056337Y-90436096D01*
X123043386Y-90442135D01*
X122991441Y-90453748D01*
X122264952Y-90456398D01*
X122197841Y-90436958D01*
X122151894Y-90384322D01*
X122140500Y-90332399D01*
X122140500Y-90304110D01*
X122140500Y-90304108D01*
X122106392Y-90176814D01*
X122040500Y-90062686D01*
X121947314Y-89969500D01*
X121890250Y-89936554D01*
X121833187Y-89903608D01*
X121753211Y-89882179D01*
X121705892Y-89869500D01*
X118695892Y-89869500D01*
X84975892Y-89869500D01*
X84910000Y-89869500D01*
X84758748Y-89869500D01*
X84758746Y-89869500D01*
X84654327Y-89882179D01*
X84458449Y-89905963D01*
X84339602Y-89935255D01*
X84164727Y-89978358D01*
X83881882Y-90085628D01*
X83614035Y-90226206D01*
X83614026Y-90226212D01*
X83365078Y-90398047D01*
X83365072Y-90398052D01*
X83173082Y-90568141D01*
X83127283Y-90589668D01*
X83115527Y-90599236D01*
X83115229Y-90600652D01*
X83086720Y-90657261D01*
X82938046Y-90825081D01*
X82766211Y-91074026D01*
X82766206Y-91074035D01*
X82625628Y-91341882D01*
X82518358Y-91624727D01*
X82486425Y-91754288D01*
X82445963Y-91918449D01*
X82437463Y-91988451D01*
X82409500Y-92218745D01*
X82409500Y-92653039D01*
X82408720Y-92666922D01*
X82398541Y-92757264D01*
X82392363Y-92784332D01*
X82364647Y-92863539D01*
X82352602Y-92888552D01*
X82307957Y-92959604D01*
X82290644Y-92981313D01*
X82231313Y-93040644D01*
X82209604Y-93057957D01*
X82138555Y-93102600D01*
X82113537Y-93114648D01*
X82034333Y-93142362D01*
X82007264Y-93148540D01*
X81927170Y-93157565D01*
X81916930Y-93158719D01*
X81903047Y-93159499D01*
X76829422Y-93159499D01*
X76829406Y-93159498D01*
X76760343Y-93159498D01*
X76751499Y-93159182D01*
X76551362Y-93144871D01*
X76533855Y-93142355D01*
X76342110Y-93100645D01*
X76325151Y-93095665D01*
X76245874Y-93066097D01*
X76141311Y-93027098D01*
X76125218Y-93019749D01*
X75953005Y-92925715D01*
X75938122Y-92916150D01*
X75781045Y-92798566D01*
X75767673Y-92786980D01*
X75628930Y-92648239D01*
X75617344Y-92634868D01*
X75592291Y-92601402D01*
X75531599Y-92520327D01*
X75499758Y-92477793D01*
X75490193Y-92462910D01*
X75488658Y-92460098D01*
X75396155Y-92290694D01*
X75388814Y-92274619D01*
X75320236Y-92090757D01*
X75315257Y-92073798D01*
X75273548Y-91882061D01*
X75271031Y-91864556D01*
X75271030Y-91864549D01*
X75256742Y-91664766D01*
X75256426Y-91655920D01*
X75256426Y-90705523D01*
X79765028Y-90705523D01*
X79795050Y-90895078D01*
X79798282Y-90915480D01*
X79861011Y-91108540D01*
X79863972Y-91117651D01*
X79960479Y-91307057D01*
X80085418Y-91479023D01*
X80235741Y-91629346D01*
X80407707Y-91754285D01*
X80407709Y-91754286D01*
X80407712Y-91754288D01*
X80597116Y-91850794D01*
X80799285Y-91916483D01*
X81009241Y-91949737D01*
X81009242Y-91949737D01*
X81221814Y-91949737D01*
X81221815Y-91949737D01*
X81431771Y-91916483D01*
X81633940Y-91850794D01*
X81823344Y-91754288D01*
X81905314Y-91694734D01*
X81995314Y-91629346D01*
X81995316Y-91629343D01*
X81995320Y-91629341D01*
X82145632Y-91479029D01*
X82145634Y-91479025D01*
X82145637Y-91479023D01*
X82270576Y-91307057D01*
X82270575Y-91307057D01*
X82270579Y-91307053D01*
X82367085Y-91117649D01*
X82432774Y-90915480D01*
X82466028Y-90705524D01*
X82466028Y-90492950D01*
X82432774Y-90282994D01*
X82367085Y-90080825D01*
X82270579Y-89891421D01*
X82270577Y-89891418D01*
X82270576Y-89891416D01*
X82145637Y-89719450D01*
X81995314Y-89569127D01*
X81823348Y-89444188D01*
X81633942Y-89347681D01*
X81633941Y-89347680D01*
X81633940Y-89347680D01*
X81431771Y-89281991D01*
X81431769Y-89281990D01*
X81431768Y-89281990D01*
X81270485Y-89256445D01*
X81221815Y-89248737D01*
X81009241Y-89248737D01*
X80960570Y-89256445D01*
X80799288Y-89281990D01*
X80597113Y-89347681D01*
X80407707Y-89444188D01*
X80235741Y-89569127D01*
X80085418Y-89719450D01*
X79960479Y-89891416D01*
X79863972Y-90080822D01*
X79798281Y-90282997D01*
X79765028Y-90492950D01*
X79765028Y-90705523D01*
X75256426Y-90705523D01*
X75256426Y-87234108D01*
X75255717Y-87231463D01*
X75255717Y-87231434D01*
X75255710Y-87231437D01*
X75222318Y-87106814D01*
X75156426Y-86992686D01*
X73007185Y-84843445D01*
X73001152Y-84836965D01*
X72987758Y-84821507D01*
X72869756Y-84685321D01*
X72859155Y-84671160D01*
X72857320Y-84668305D01*
X72765518Y-84525453D01*
X72753081Y-84506100D01*
X72744602Y-84490573D01*
X72663091Y-84312085D01*
X72656909Y-84295508D01*
X72601634Y-84107255D01*
X72597873Y-84089968D01*
X72569948Y-83895738D01*
X72568687Y-83878117D01*
X72568687Y-83771878D01*
X72588372Y-83704841D01*
X72641176Y-83659086D01*
X72681437Y-83648392D01*
X74868661Y-83449256D01*
X74937208Y-83462781D01*
X74967600Y-83485080D01*
X75794279Y-84312085D01*
X75805911Y-84323721D01*
X75809808Y-84327801D01*
X75844599Y-84365948D01*
X75844601Y-84365949D01*
X75844602Y-84365950D01*
X75850817Y-84371190D01*
X75850809Y-84371198D01*
X75856153Y-84375498D01*
X75856160Y-84375490D01*
X75862603Y-84380436D01*
X75862605Y-84380437D01*
X75862607Y-84380439D01*
X75907291Y-84406248D01*
X75912126Y-84409191D01*
X75943839Y-84429501D01*
X75955577Y-84437018D01*
X75962939Y-84440472D01*
X75962934Y-84440481D01*
X75969207Y-84443250D01*
X75969212Y-84443241D01*
X75976717Y-84446351D01*
X75976718Y-84446351D01*
X75976723Y-84446354D01*
X76026577Y-84459722D01*
X76031991Y-84461309D01*
X76081168Y-84476942D01*
X76081171Y-84476942D01*
X76089173Y-84478373D01*
X76089171Y-84478383D01*
X76095954Y-84479436D01*
X76095956Y-84479425D01*
X76104009Y-84480487D01*
X76155609Y-84480496D01*
X76161249Y-84480626D01*
X76212813Y-84483000D01*
X76212822Y-84482997D01*
X76220909Y-84482310D01*
X76220910Y-84482322D01*
X76227733Y-84481583D01*
X76227732Y-84481573D01*
X76235788Y-84480513D01*
X76235788Y-84480512D01*
X76235794Y-84480513D01*
X76285653Y-84467162D01*
X76291140Y-84465828D01*
X76341540Y-84454780D01*
X76341542Y-84454778D01*
X76349186Y-84452017D01*
X76349190Y-84452029D01*
X76355580Y-84449553D01*
X76355576Y-84449542D01*
X76363085Y-84446432D01*
X76363094Y-84446430D01*
X76407812Y-84420622D01*
X76412759Y-84417917D01*
X76458577Y-84394204D01*
X76458582Y-84394199D01*
X76465244Y-84389558D01*
X76465250Y-84389567D01*
X76470788Y-84385518D01*
X76470782Y-84385510D01*
X76477233Y-84380561D01*
X76477236Y-84380560D01*
X76477238Y-84380557D01*
X76483682Y-84375615D01*
X76484580Y-84376785D01*
X76538040Y-84347601D01*
X76607732Y-84352592D01*
X76632345Y-84365050D01*
X77272899Y-84784753D01*
X77275836Y-84786677D01*
X77321122Y-84839883D01*
X77330454Y-84909127D01*
X77300869Y-84972424D01*
X77282363Y-84987626D01*
X77283278Y-84988818D01*
X77276834Y-84993764D01*
X77240419Y-85030189D01*
X77236287Y-85034136D01*
X77198262Y-85068816D01*
X77193197Y-85074823D01*
X77188450Y-85080724D01*
X77183661Y-85086969D01*
X77157923Y-85131563D01*
X77154952Y-85136447D01*
X77127195Y-85179791D01*
X77123845Y-85186931D01*
X77120801Y-85193828D01*
X77117788Y-85201106D01*
X77104471Y-85250837D01*
X77102866Y-85256322D01*
X77087272Y-85305382D01*
X77085880Y-85313167D01*
X77084737Y-85320541D01*
X77083703Y-85328408D01*
X77083711Y-85379879D01*
X77083580Y-85385598D01*
X77081213Y-85437025D01*
X77081890Y-85444973D01*
X77082686Y-85452315D01*
X77083725Y-85460193D01*
X77097054Y-85509903D01*
X77098408Y-85515462D01*
X77109432Y-85565748D01*
X77112143Y-85573250D01*
X77114801Y-85580109D01*
X77117853Y-85587472D01*
X77117855Y-85587479D01*
X77120276Y-85591670D01*
X77143603Y-85632058D01*
X77146351Y-85637080D01*
X77170009Y-85682791D01*
X77174563Y-85689327D01*
X77178919Y-85695281D01*
X77183765Y-85701594D01*
X77183767Y-85701597D01*
X77220190Y-85738008D01*
X77224129Y-85742132D01*
X77244171Y-85764108D01*
X77258813Y-85780162D01*
X77258815Y-85780163D01*
X77264909Y-85785301D01*
X77278173Y-85795971D01*
X78219388Y-86736865D01*
X78252884Y-86798182D01*
X78247911Y-86867875D01*
X78206049Y-86923815D01*
X78140589Y-86948244D01*
X78079318Y-86936943D01*
X77972143Y-86886966D01*
X77879654Y-86843837D01*
X77879645Y-86843834D01*
X77659854Y-86784942D01*
X77659850Y-86784941D01*
X77659849Y-86784941D01*
X77659848Y-86784940D01*
X77659843Y-86784940D01*
X77433159Y-86765108D01*
X77433155Y-86765108D01*
X77206470Y-86784940D01*
X77206459Y-86784942D01*
X76986668Y-86843834D01*
X76986659Y-86843837D01*
X76780424Y-86940007D01*
X76780422Y-86940008D01*
X76594015Y-87070530D01*
X76433111Y-87231434D01*
X76302589Y-87417841D01*
X76302588Y-87417843D01*
X76206418Y-87624078D01*
X76206415Y-87624087D01*
X76147523Y-87843878D01*
X76147521Y-87843889D01*
X76127689Y-88070574D01*
X76127689Y-88070577D01*
X76147521Y-88297262D01*
X76147523Y-88297273D01*
X76206415Y-88517064D01*
X76206418Y-88517073D01*
X76302588Y-88723308D01*
X76302589Y-88723310D01*
X76433111Y-88909717D01*
X76594015Y-89070621D01*
X76594018Y-89070623D01*
X76780423Y-89201144D01*
X76986661Y-89297315D01*
X77206465Y-89356211D01*
X77368387Y-89370377D01*
X77433155Y-89376044D01*
X77433157Y-89376044D01*
X77433159Y-89376044D01*
X77489830Y-89371085D01*
X77659849Y-89356211D01*
X77879653Y-89297315D01*
X78085891Y-89201144D01*
X78272296Y-89070623D01*
X78433204Y-88909715D01*
X78563725Y-88723310D01*
X78659896Y-88517072D01*
X78718792Y-88297268D01*
X78738625Y-88070576D01*
X78718792Y-87843884D01*
X78659896Y-87624080D01*
X78566625Y-87424062D01*
X78556134Y-87354988D01*
X78584653Y-87291204D01*
X78643130Y-87252964D01*
X78712997Y-87252409D01*
X78766674Y-87283964D01*
X80188207Y-88705011D01*
X80234992Y-88751796D01*
X80235056Y-88751845D01*
X80235058Y-88751846D01*
X80235060Y-88751848D01*
X80269860Y-88771932D01*
X80291144Y-88784216D01*
X80291142Y-88784218D01*
X80291157Y-88784223D01*
X80349120Y-88817688D01*
X80349122Y-88817688D01*
X80349123Y-88817689D01*
X80349193Y-88817718D01*
X80349196Y-88817718D01*
X80349200Y-88817721D01*
X80415077Y-88835361D01*
X80415094Y-88835371D01*
X80415096Y-88835366D01*
X80476414Y-88851796D01*
X80476415Y-88851796D01*
X80476488Y-88851805D01*
X80476499Y-88851808D01*
X80545244Y-88851796D01*
X80545257Y-88851796D01*
X107088653Y-88851796D01*
X107099635Y-88851798D01*
X107154540Y-88851809D01*
X107154540Y-88851808D01*
X107154545Y-88851809D01*
X107154549Y-88851807D01*
X107154640Y-88851796D01*
X107154643Y-88851796D01*
X107202145Y-88839067D01*
X107217980Y-88834825D01*
X107217980Y-88834828D01*
X107217999Y-88834819D01*
X107281845Y-88817726D01*
X107281847Y-88817724D01*
X107281849Y-88817724D01*
X107281929Y-88817691D01*
X107281931Y-88817689D01*
X107281937Y-88817688D01*
X107340301Y-88783990D01*
X107340323Y-88783985D01*
X107340320Y-88783979D01*
X107340321Y-88783979D01*
X107395986Y-88751856D01*
X107395986Y-88751855D01*
X107396026Y-88751833D01*
X107396029Y-88751831D01*
X107396062Y-88751797D01*
X107396065Y-88751796D01*
X107445468Y-88702393D01*
X110000038Y-86148827D01*
X110004121Y-86144930D01*
X110042238Y-86110168D01*
X110047479Y-86103952D01*
X110047488Y-86103959D01*
X110051788Y-86098614D01*
X110051780Y-86098608D01*
X110056725Y-86092163D01*
X110056732Y-86092157D01*
X110082550Y-86047457D01*
X110085470Y-86042657D01*
X110113310Y-85999186D01*
X110113311Y-85999179D01*
X110116762Y-85991827D01*
X110116773Y-85991832D01*
X110119544Y-85985556D01*
X110119534Y-85985552D01*
X110122646Y-85978042D01*
X110122647Y-85978041D01*
X110136019Y-85928170D01*
X110137596Y-85922785D01*
X110153234Y-85873596D01*
X110153234Y-85873585D01*
X110154665Y-85865590D01*
X110154676Y-85865592D01*
X110155728Y-85858813D01*
X110155718Y-85858812D01*
X110156780Y-85850757D01*
X110156789Y-85799164D01*
X110156919Y-85793505D01*
X110159293Y-85741950D01*
X110159292Y-85741949D01*
X110159293Y-85741945D01*
X110158604Y-85733849D01*
X110158614Y-85733848D01*
X110157877Y-85727030D01*
X110157866Y-85727032D01*
X110156806Y-85718974D01*
X110156805Y-85718973D01*
X110156806Y-85718970D01*
X110143459Y-85669124D01*
X110142117Y-85663605D01*
X110131074Y-85613227D01*
X110128312Y-85605582D01*
X110128322Y-85605578D01*
X110125843Y-85599179D01*
X110125834Y-85599183D01*
X110122724Y-85591671D01*
X110096938Y-85546988D01*
X110094214Y-85542009D01*
X110093589Y-85540801D01*
X110083067Y-85520473D01*
X110069733Y-85451889D01*
X110095596Y-85386982D01*
X110106098Y-85375211D01*
X110667479Y-84821507D01*
X110729027Y-84788448D01*
X110798682Y-84793912D01*
X110821420Y-84805369D01*
X110853573Y-84825960D01*
X110856086Y-84827569D01*
X110863295Y-84830951D01*
X110870003Y-84833911D01*
X110877398Y-84836973D01*
X110877401Y-84836975D01*
X110927148Y-84850295D01*
X110932598Y-84851891D01*
X110981673Y-84867492D01*
X110989553Y-84868900D01*
X110996760Y-84870017D01*
X111004694Y-84871060D01*
X111004696Y-84871059D01*
X111004700Y-84871061D01*
X111056188Y-84871051D01*
X111061869Y-84871181D01*
X111113321Y-84873550D01*
X111113329Y-84873548D01*
X111121360Y-84872865D01*
X111128493Y-84872091D01*
X111136477Y-84871039D01*
X111136485Y-84871039D01*
X111186251Y-84857694D01*
X111191737Y-84856358D01*
X111242047Y-84845330D01*
X111242051Y-84845327D01*
X111249619Y-84842593D01*
X111256342Y-84839987D01*
X111263767Y-84836910D01*
X111263772Y-84836909D01*
X111308359Y-84811154D01*
X111313356Y-84808420D01*
X111359084Y-84784754D01*
X111359088Y-84784749D01*
X111365671Y-84780164D01*
X111371523Y-84775883D01*
X111377888Y-84770998D01*
X111377887Y-84770998D01*
X111377890Y-84770997D01*
X111414312Y-84734561D01*
X111418399Y-84730658D01*
X111456455Y-84695952D01*
X111456457Y-84695947D01*
X111461575Y-84689879D01*
X111472264Y-84676588D01*
X112413161Y-83735370D01*
X112474476Y-83701876D01*
X112544169Y-83706849D01*
X112600109Y-83748711D01*
X112624538Y-83814171D01*
X112613237Y-83875443D01*
X112520131Y-84075109D01*
X112520127Y-84075118D01*
X112461235Y-84294909D01*
X112461233Y-84294920D01*
X112441401Y-84521605D01*
X112441401Y-84521608D01*
X112461233Y-84748293D01*
X112461235Y-84748304D01*
X112520127Y-84968095D01*
X112520130Y-84968104D01*
X112616300Y-85174339D01*
X112616301Y-85174341D01*
X112746823Y-85360748D01*
X112907727Y-85521652D01*
X112907730Y-85521654D01*
X113094135Y-85652175D01*
X113300373Y-85748346D01*
X113520177Y-85807242D01*
X113682099Y-85821408D01*
X113746867Y-85827075D01*
X113746869Y-85827075D01*
X113746871Y-85827075D01*
X113803542Y-85822116D01*
X113973561Y-85807242D01*
X114193365Y-85748346D01*
X114399603Y-85652175D01*
X114586008Y-85521654D01*
X114746916Y-85360746D01*
X114877437Y-85174341D01*
X114973608Y-84968103D01*
X115032504Y-84748299D01*
X115052337Y-84521607D01*
X115050022Y-84495151D01*
X115044279Y-84429501D01*
X115032504Y-84294915D01*
X114973608Y-84075111D01*
X114877437Y-83868873D01*
X114746916Y-83682468D01*
X114746914Y-83682465D01*
X114586010Y-83521561D01*
X114399603Y-83391039D01*
X114399601Y-83391038D01*
X114193366Y-83294868D01*
X114193357Y-83294865D01*
X113973566Y-83235973D01*
X113973562Y-83235972D01*
X113973561Y-83235972D01*
X113973560Y-83235971D01*
X113973555Y-83235971D01*
X113746871Y-83216139D01*
X113746867Y-83216139D01*
X113520182Y-83235971D01*
X113520171Y-83235973D01*
X113300380Y-83294865D01*
X113300371Y-83294869D01*
X113100355Y-83388138D01*
X113031277Y-83398630D01*
X112967493Y-83370110D01*
X112929254Y-83311634D01*
X112928699Y-83241766D01*
X112960252Y-83188092D01*
X113907840Y-82240180D01*
X113969155Y-82206686D01*
X114038848Y-82211659D01*
X114089145Y-82246529D01*
X115654762Y-84048878D01*
X118721973Y-87579874D01*
X118751076Y-87643395D01*
X118751237Y-87644542D01*
X118919999Y-88889999D01*
X118920000Y-88890000D01*
X137730000Y-88710000D01*
X137704185Y-87754473D01*
X137720753Y-87689127D01*
X137781916Y-87583189D01*
X137781918Y-87583186D01*
X137816026Y-87455892D01*
X137816026Y-85608230D01*
X137816371Y-83581411D01*
X137836067Y-83514377D01*
X137888879Y-83468631D01*
X137958039Y-83458699D01*
X138021590Y-83487735D01*
X138059354Y-83546519D01*
X138060146Y-83549340D01*
X138088786Y-83656228D01*
X138088788Y-83656234D01*
X138184958Y-83862469D01*
X138184959Y-83862471D01*
X138315481Y-84048878D01*
X138476385Y-84209782D01*
X138476388Y-84209784D01*
X138662793Y-84340305D01*
X138869031Y-84436476D01*
X138869036Y-84436477D01*
X138869038Y-84436478D01*
X138883944Y-84440472D01*
X139088835Y-84495372D01*
X139244101Y-84508956D01*
X139315525Y-84515205D01*
X139315527Y-84515205D01*
X139315529Y-84515205D01*
X139372200Y-84510246D01*
X139542219Y-84495372D01*
X139762023Y-84436476D01*
X139968261Y-84340305D01*
X140154666Y-84209784D01*
X140315574Y-84048876D01*
X140446095Y-83862471D01*
X140542266Y-83656233D01*
X140601162Y-83436429D01*
X140620995Y-83209737D01*
X140601162Y-82983045D01*
X140542266Y-82763241D01*
X140446095Y-82557003D01*
X140315574Y-82370598D01*
X140315572Y-82370595D01*
X140154668Y-82209691D01*
X139968261Y-82079169D01*
X139968259Y-82079168D01*
X139762024Y-81982998D01*
X139762015Y-81982995D01*
X139542224Y-81924103D01*
X139542220Y-81924102D01*
X139542219Y-81924102D01*
X139542218Y-81924101D01*
X139542213Y-81924101D01*
X139315529Y-81904269D01*
X139315525Y-81904269D01*
X139088840Y-81924101D01*
X139088829Y-81924103D01*
X138869038Y-81982995D01*
X138869029Y-81982998D01*
X138662794Y-82079168D01*
X138662792Y-82079169D01*
X138476385Y-82209691D01*
X138315481Y-82370595D01*
X138184959Y-82557002D01*
X138184958Y-82557004D01*
X138088788Y-82763239D01*
X138088786Y-82763245D01*
X138060273Y-82869660D01*
X138023908Y-82929320D01*
X137961061Y-82959849D01*
X137891685Y-82951554D01*
X137837807Y-82907069D01*
X137816533Y-82840517D01*
X137816498Y-82837545D01*
X137816727Y-81491754D01*
X137818565Y-81474819D01*
X137819240Y-81466893D01*
X137819240Y-81466889D01*
X137816871Y-81415442D01*
X137816741Y-81409760D01*
X137816751Y-81358269D01*
X137816749Y-81358265D01*
X137816750Y-81358263D01*
X137815713Y-81350372D01*
X137814591Y-81343133D01*
X137813181Y-81335251D01*
X137813181Y-81335244D01*
X137797590Y-81286199D01*
X137795983Y-81280707D01*
X137782664Y-81230968D01*
X137779632Y-81223643D01*
X137776646Y-81216878D01*
X137773257Y-81209653D01*
X137764699Y-81196290D01*
X137745485Y-81166286D01*
X137742533Y-81161433D01*
X137716792Y-81116830D01*
X137716789Y-81116827D01*
X137716787Y-81116823D01*
X137711993Y-81110573D01*
X137707292Y-81104728D01*
X137702189Y-81098675D01*
X137678794Y-81077339D01*
X137664142Y-81063976D01*
X137660032Y-81060051D01*
X137623622Y-81023629D01*
X137623619Y-81023627D01*
X137623618Y-81023626D01*
X137617329Y-81018798D01*
X137611294Y-81014383D01*
X137604821Y-81009874D01*
X137604819Y-81009873D01*
X137604817Y-81009871D01*
X137585777Y-81000016D01*
X137535290Y-80951723D01*
X137518822Y-80893249D01*
X137494036Y-79975761D01*
X137511902Y-79908219D01*
X137551116Y-79867996D01*
X137574121Y-79853263D01*
X137578942Y-79850328D01*
X137623633Y-79824515D01*
X137623634Y-79824514D01*
X137630081Y-79819565D01*
X137630088Y-79819574D01*
X137635431Y-79815274D01*
X137635424Y-79815266D01*
X137641631Y-79810030D01*
X137641641Y-79810025D01*
X137676441Y-79771865D01*
X137680289Y-79767835D01*
X137716800Y-79731311D01*
X137716804Y-79731302D01*
X137721748Y-79724859D01*
X137721757Y-79724865D01*
X137725810Y-79719322D01*
X137725801Y-79719316D01*
X137730445Y-79712651D01*
X137730912Y-79711749D01*
X137754161Y-79666828D01*
X137756879Y-79661861D01*
X137782667Y-79617175D01*
X137782666Y-79617175D01*
X137782670Y-79617170D01*
X137782671Y-79617163D01*
X137785777Y-79609663D01*
X137785787Y-79609667D01*
X137788268Y-79603263D01*
X137788258Y-79603260D01*
X137791017Y-79595621D01*
X137791020Y-79595617D01*
X137802073Y-79545194D01*
X137803406Y-79539717D01*
X137816753Y-79489869D01*
X137816753Y-79489868D01*
X137817812Y-79481813D01*
X137817823Y-79481814D01*
X137818562Y-79474985D01*
X137818550Y-79474984D01*
X137819237Y-79466898D01*
X137819240Y-79466889D01*
X137816866Y-79415335D01*
X137816736Y-79409676D01*
X137816732Y-79391518D01*
X137816301Y-77193760D01*
X137835972Y-77126718D01*
X137888767Y-77080953D01*
X137940301Y-77069737D01*
X139898962Y-77069737D01*
X139966001Y-77089422D01*
G37*
%TD.AperFunction*%
%TD*%
M02*
