%TF.GenerationSoftware,KiCad,Pcbnew,8.0.0*%
%TF.CreationDate,2026-04-19T02:44:23+08:00*%
%TF.ProjectId,ken_EMstick,6b656e5f-454d-4737-9469-636b2e6b6963,rev?*%
%TF.SameCoordinates,Original*%
%TF.FileFunction,Profile,NP*%
%FSLAX46Y46*%
G04 Gerber Fmt 4.6, Leading zero omitted, Abs format (unit mm)*
G04 Created by KiCad (PCBNEW 8.0.0) date 2026-04-19 02:44:23*
%MOMM*%
%LPD*%
G01*
G04 APERTURE LIST*
%TA.AperFunction,Profile*%
%ADD10C,0.050000*%
%TD*%
G04 APERTURE END LIST*
D10*
X141870000Y-86830000D02*
X141870000Y-80771769D01*
X74755926Y-87300000D02*
X74755926Y-91659999D01*
X131315527Y-80700237D02*
X131315527Y-81700237D01*
X105608423Y-81346344D02*
X109656293Y-85784764D01*
X137316240Y-79424076D02*
X137315526Y-75793737D01*
X111070507Y-84370550D02*
X114027589Y-81412458D01*
X80542306Y-88351296D02*
X107088751Y-88351296D01*
X140663736Y-80771769D02*
X141870000Y-80771769D01*
X182045615Y-88394428D02*
X155542307Y-88351297D01*
X138663736Y-75793737D02*
G75*
G02*
X140663763Y-77793738I-36J-2000063D01*
G01*
X73603468Y-81412458D02*
X76170000Y-83980000D01*
X80608420Y-79932130D02*
X76170000Y-83980000D01*
X121640000Y-90370000D02*
X121640000Y-93510000D01*
X82910000Y-92659999D02*
X82910000Y-92370000D01*
X180080000Y-93659999D02*
G75*
G02*
X179080001Y-92659999I0J999999D01*
G01*
X137315526Y-85606736D02*
X137315526Y-87390000D01*
X151517418Y-84327416D02*
X155565288Y-79888996D01*
X72650140Y-85194214D02*
X74755926Y-87300000D01*
X186417921Y-84023132D02*
X181979501Y-79975262D01*
X146154050Y-84478473D02*
X148841056Y-81791467D01*
X185003707Y-85437346D02*
X180565287Y-81389476D01*
X76755926Y-93659999D02*
G75*
G02*
X74755901Y-91659999I-26J1999999D01*
G01*
X81315527Y-80639237D02*
X80608420Y-79932130D01*
X84910000Y-90370000D02*
X118630000Y-90370000D01*
X82022634Y-81346344D02*
X81315527Y-80639237D01*
X114027589Y-81412459D02*
X119220000Y-87390000D01*
X138663736Y-75793737D02*
X137315526Y-75793737D01*
X107022638Y-79932130D02*
X111070507Y-84370550D01*
X131315527Y-79700236D02*
X131315527Y-80700237D01*
X76755926Y-93659999D02*
X81910000Y-93659999D01*
X118630000Y-90370000D02*
X121640000Y-90370000D01*
X137316240Y-81424076D02*
X131315527Y-81700237D01*
X156979502Y-81303210D02*
X152931632Y-85741630D01*
X185875130Y-93659999D02*
X180080000Y-93659999D01*
X187875130Y-91659999D02*
G75*
G02*
X185875130Y-93659930I-1999930J-1D01*
G01*
X156272395Y-80596103D02*
X156979502Y-81303210D01*
X144190000Y-90440000D02*
X144190000Y-93510000D01*
X148841056Y-81791467D02*
X151517418Y-84327416D01*
X121640000Y-93510000D02*
X144190000Y-93510000D01*
X125315527Y-87390000D02*
X137315526Y-87390000D01*
X140663736Y-80771769D02*
X140663736Y-77793738D01*
X156272395Y-80596103D02*
X155565288Y-79888996D01*
X182045615Y-88394428D02*
X185003707Y-85437346D01*
X107022637Y-79932130D02*
X105608423Y-81346344D01*
X82910000Y-92659999D02*
G75*
G02*
X81910000Y-93660000I-1000000J-1D01*
G01*
X181979501Y-79975262D02*
X181272394Y-80682369D01*
X72650140Y-85194214D02*
G75*
G02*
X72650139Y-82365787I1414260J1414214D01*
G01*
X119220000Y-87390000D02*
X125315527Y-87390000D01*
X177080000Y-90440000D02*
G75*
G02*
X179080000Y-92440000I0J-2000000D01*
G01*
X189937782Y-82408919D02*
X188984453Y-81455590D01*
X181272394Y-80682369D02*
X180565287Y-81389476D01*
X73603468Y-81412458D02*
X72650139Y-82365787D01*
X77584214Y-85394214D02*
X80542306Y-88351296D01*
X137315526Y-85606736D02*
X137316240Y-81424076D01*
X187831995Y-87343132D02*
X189937781Y-85237346D01*
X82910000Y-92370000D02*
G75*
G02*
X84910000Y-90370000I2000000J0D01*
G01*
X155499174Y-88308162D02*
X155542307Y-88351297D01*
X186417921Y-84023132D02*
X188984453Y-81455590D01*
X146154050Y-84478473D02*
X146154050Y-86830000D01*
X179080000Y-92659999D02*
X179080000Y-92440000D01*
X144190000Y-90440000D02*
X177080000Y-90440000D01*
X189937782Y-82408919D02*
G75*
G02*
X189937749Y-85237314I-1414282J-1414181D01*
G01*
X152931632Y-85741630D02*
X155499174Y-88308162D01*
X187831995Y-87343132D02*
X187875130Y-91659999D01*
X82022634Y-81346344D02*
X77584214Y-85394214D01*
X107088751Y-88351296D02*
X109656293Y-85784764D01*
X141870000Y-86830000D02*
X146154050Y-86830000D01*
X137316240Y-79424076D02*
X131315527Y-79700236D01*
M02*
