%TF.GenerationSoftware,KiCad,Pcbnew,8.0.0*%
%TF.CreationDate,2026-01-09T17:06:32+08:00*%
%TF.ProjectId,STC_mainboard,5354435f-6d61-4696-9e62-6f6172642e6b,rev?*%
%TF.SameCoordinates,Original*%
%TF.FileFunction,Legend,Top*%
%TF.FilePolarity,Positive*%
%FSLAX46Y46*%
G04 Gerber Fmt 4.6, Leading zero omitted, Abs format (unit mm)*
G04 Created by KiCad (PCBNEW 8.0.0) date 2026-01-09 17:06:32*
%MOMM*%
%LPD*%
G01*
G04 APERTURE LIST*
%ADD10C,0.150000*%
%ADD11C,0.120000*%
%ADD12C,0.254000*%
%ADD13C,0.508000*%
G04 APERTURE END LIST*
D10*
X197722142Y-144164819D02*
X197388809Y-143688628D01*
X197150714Y-144164819D02*
X197150714Y-143164819D01*
X197150714Y-143164819D02*
X197531666Y-143164819D01*
X197531666Y-143164819D02*
X197626904Y-143212438D01*
X197626904Y-143212438D02*
X197674523Y-143260057D01*
X197674523Y-143260057D02*
X197722142Y-143355295D01*
X197722142Y-143355295D02*
X197722142Y-143498152D01*
X197722142Y-143498152D02*
X197674523Y-143593390D01*
X197674523Y-143593390D02*
X197626904Y-143641009D01*
X197626904Y-143641009D02*
X197531666Y-143688628D01*
X197531666Y-143688628D02*
X197150714Y-143688628D01*
X198674523Y-144164819D02*
X198103095Y-144164819D01*
X198388809Y-144164819D02*
X198388809Y-143164819D01*
X198388809Y-143164819D02*
X198293571Y-143307676D01*
X198293571Y-143307676D02*
X198198333Y-143402914D01*
X198198333Y-143402914D02*
X198103095Y-143450533D01*
X199626904Y-144164819D02*
X199055476Y-144164819D01*
X199341190Y-144164819D02*
X199341190Y-143164819D01*
X199341190Y-143164819D02*
X199245952Y-143307676D01*
X199245952Y-143307676D02*
X199150714Y-143402914D01*
X199150714Y-143402914D02*
X199055476Y-143450533D01*
X137665475Y-110614821D02*
X137665475Y-111329106D01*
X137665475Y-111329106D02*
X137617856Y-111471963D01*
X137617856Y-111471963D02*
X137522618Y-111567202D01*
X137522618Y-111567202D02*
X137379761Y-111614821D01*
X137379761Y-111614821D02*
X137284523Y-111614821D01*
X138665475Y-111614821D02*
X138094047Y-111614821D01*
X138379761Y-111614821D02*
X138379761Y-110614821D01*
X138379761Y-110614821D02*
X138284523Y-110757678D01*
X138284523Y-110757678D02*
X138189285Y-110852916D01*
X138189285Y-110852916D02*
X138094047Y-110900535D01*
X139284523Y-110614821D02*
X139379761Y-110614821D01*
X139379761Y-110614821D02*
X139474999Y-110662440D01*
X139474999Y-110662440D02*
X139522618Y-110710059D01*
X139522618Y-110710059D02*
X139570237Y-110805297D01*
X139570237Y-110805297D02*
X139617856Y-110995773D01*
X139617856Y-110995773D02*
X139617856Y-111233868D01*
X139617856Y-111233868D02*
X139570237Y-111424344D01*
X139570237Y-111424344D02*
X139522618Y-111519582D01*
X139522618Y-111519582D02*
X139474999Y-111567202D01*
X139474999Y-111567202D02*
X139379761Y-111614821D01*
X139379761Y-111614821D02*
X139284523Y-111614821D01*
X139284523Y-111614821D02*
X139189285Y-111567202D01*
X139189285Y-111567202D02*
X139141666Y-111519582D01*
X139141666Y-111519582D02*
X139094047Y-111424344D01*
X139094047Y-111424344D02*
X139046428Y-111233868D01*
X139046428Y-111233868D02*
X139046428Y-110995773D01*
X139046428Y-110995773D02*
X139094047Y-110805297D01*
X139094047Y-110805297D02*
X139141666Y-110710059D01*
X139141666Y-110710059D02*
X139189285Y-110662440D01*
X139189285Y-110662440D02*
X139284523Y-110614821D01*
X219484819Y-125945238D02*
X219008628Y-126278571D01*
X219484819Y-126516666D02*
X218484819Y-126516666D01*
X218484819Y-126516666D02*
X218484819Y-126135714D01*
X218484819Y-126135714D02*
X218532438Y-126040476D01*
X218532438Y-126040476D02*
X218580057Y-125992857D01*
X218580057Y-125992857D02*
X218675295Y-125945238D01*
X218675295Y-125945238D02*
X218818152Y-125945238D01*
X218818152Y-125945238D02*
X218913390Y-125992857D01*
X218913390Y-125992857D02*
X218961009Y-126040476D01*
X218961009Y-126040476D02*
X219008628Y-126135714D01*
X219008628Y-126135714D02*
X219008628Y-126516666D01*
X218484819Y-125659523D02*
X219484819Y-125326190D01*
X219484819Y-125326190D02*
X218484819Y-124992857D01*
X218818152Y-124230952D02*
X219484819Y-124230952D01*
X218437200Y-124469047D02*
X219151485Y-124707142D01*
X219151485Y-124707142D02*
X219151485Y-124088095D01*
X197848333Y-150024819D02*
X197515000Y-149548628D01*
X197276905Y-150024819D02*
X197276905Y-149024819D01*
X197276905Y-149024819D02*
X197657857Y-149024819D01*
X197657857Y-149024819D02*
X197753095Y-149072438D01*
X197753095Y-149072438D02*
X197800714Y-149120057D01*
X197800714Y-149120057D02*
X197848333Y-149215295D01*
X197848333Y-149215295D02*
X197848333Y-149358152D01*
X197848333Y-149358152D02*
X197800714Y-149453390D01*
X197800714Y-149453390D02*
X197753095Y-149501009D01*
X197753095Y-149501009D02*
X197657857Y-149548628D01*
X197657857Y-149548628D02*
X197276905Y-149548628D01*
X198324524Y-150024819D02*
X198515000Y-150024819D01*
X198515000Y-150024819D02*
X198610238Y-149977200D01*
X198610238Y-149977200D02*
X198657857Y-149929580D01*
X198657857Y-149929580D02*
X198753095Y-149786723D01*
X198753095Y-149786723D02*
X198800714Y-149596247D01*
X198800714Y-149596247D02*
X198800714Y-149215295D01*
X198800714Y-149215295D02*
X198753095Y-149120057D01*
X198753095Y-149120057D02*
X198705476Y-149072438D01*
X198705476Y-149072438D02*
X198610238Y-149024819D01*
X198610238Y-149024819D02*
X198419762Y-149024819D01*
X198419762Y-149024819D02*
X198324524Y-149072438D01*
X198324524Y-149072438D02*
X198276905Y-149120057D01*
X198276905Y-149120057D02*
X198229286Y-149215295D01*
X198229286Y-149215295D02*
X198229286Y-149453390D01*
X198229286Y-149453390D02*
X198276905Y-149548628D01*
X198276905Y-149548628D02*
X198324524Y-149596247D01*
X198324524Y-149596247D02*
X198419762Y-149643866D01*
X198419762Y-149643866D02*
X198610238Y-149643866D01*
X198610238Y-149643866D02*
X198705476Y-149596247D01*
X198705476Y-149596247D02*
X198753095Y-149548628D01*
X198753095Y-149548628D02*
X198800714Y-149453390D01*
X203396667Y-154047200D02*
X203539524Y-154094819D01*
X203539524Y-154094819D02*
X203777619Y-154094819D01*
X203777619Y-154094819D02*
X203872857Y-154047200D01*
X203872857Y-154047200D02*
X203920476Y-153999580D01*
X203920476Y-153999580D02*
X203968095Y-153904342D01*
X203968095Y-153904342D02*
X203968095Y-153809104D01*
X203968095Y-153809104D02*
X203920476Y-153713866D01*
X203920476Y-153713866D02*
X203872857Y-153666247D01*
X203872857Y-153666247D02*
X203777619Y-153618628D01*
X203777619Y-153618628D02*
X203587143Y-153571009D01*
X203587143Y-153571009D02*
X203491905Y-153523390D01*
X203491905Y-153523390D02*
X203444286Y-153475771D01*
X203444286Y-153475771D02*
X203396667Y-153380533D01*
X203396667Y-153380533D02*
X203396667Y-153285295D01*
X203396667Y-153285295D02*
X203444286Y-153190057D01*
X203444286Y-153190057D02*
X203491905Y-153142438D01*
X203491905Y-153142438D02*
X203587143Y-153094819D01*
X203587143Y-153094819D02*
X203825238Y-153094819D01*
X203825238Y-153094819D02*
X203968095Y-153142438D01*
X204301429Y-153094819D02*
X204539524Y-154094819D01*
X204539524Y-154094819D02*
X204730000Y-153380533D01*
X204730000Y-153380533D02*
X204920476Y-154094819D01*
X204920476Y-154094819D02*
X205158572Y-153094819D01*
X206063333Y-154094819D02*
X205491905Y-154094819D01*
X205777619Y-154094819D02*
X205777619Y-153094819D01*
X205777619Y-153094819D02*
X205682381Y-153237676D01*
X205682381Y-153237676D02*
X205587143Y-153332914D01*
X205587143Y-153332914D02*
X205491905Y-153380533D01*
X149138095Y-144114819D02*
X149138095Y-144924342D01*
X149138095Y-144924342D02*
X149185714Y-145019580D01*
X149185714Y-145019580D02*
X149233333Y-145067200D01*
X149233333Y-145067200D02*
X149328571Y-145114819D01*
X149328571Y-145114819D02*
X149519047Y-145114819D01*
X149519047Y-145114819D02*
X149614285Y-145067200D01*
X149614285Y-145067200D02*
X149661904Y-145019580D01*
X149661904Y-145019580D02*
X149709523Y-144924342D01*
X149709523Y-144924342D02*
X149709523Y-144114819D01*
X150138095Y-144210057D02*
X150185714Y-144162438D01*
X150185714Y-144162438D02*
X150280952Y-144114819D01*
X150280952Y-144114819D02*
X150519047Y-144114819D01*
X150519047Y-144114819D02*
X150614285Y-144162438D01*
X150614285Y-144162438D02*
X150661904Y-144210057D01*
X150661904Y-144210057D02*
X150709523Y-144305295D01*
X150709523Y-144305295D02*
X150709523Y-144400533D01*
X150709523Y-144400533D02*
X150661904Y-144543390D01*
X150661904Y-144543390D02*
X150090476Y-145114819D01*
X150090476Y-145114819D02*
X150709523Y-145114819D01*
X156749580Y-152566666D02*
X156797200Y-152614285D01*
X156797200Y-152614285D02*
X156844819Y-152757142D01*
X156844819Y-152757142D02*
X156844819Y-152852380D01*
X156844819Y-152852380D02*
X156797200Y-152995237D01*
X156797200Y-152995237D02*
X156701961Y-153090475D01*
X156701961Y-153090475D02*
X156606723Y-153138094D01*
X156606723Y-153138094D02*
X156416247Y-153185713D01*
X156416247Y-153185713D02*
X156273390Y-153185713D01*
X156273390Y-153185713D02*
X156082914Y-153138094D01*
X156082914Y-153138094D02*
X155987676Y-153090475D01*
X155987676Y-153090475D02*
X155892438Y-152995237D01*
X155892438Y-152995237D02*
X155844819Y-152852380D01*
X155844819Y-152852380D02*
X155844819Y-152757142D01*
X155844819Y-152757142D02*
X155892438Y-152614285D01*
X155892438Y-152614285D02*
X155940057Y-152566666D01*
X155844819Y-152233332D02*
X155844819Y-151614285D01*
X155844819Y-151614285D02*
X156225771Y-151947618D01*
X156225771Y-151947618D02*
X156225771Y-151804761D01*
X156225771Y-151804761D02*
X156273390Y-151709523D01*
X156273390Y-151709523D02*
X156321009Y-151661904D01*
X156321009Y-151661904D02*
X156416247Y-151614285D01*
X156416247Y-151614285D02*
X156654342Y-151614285D01*
X156654342Y-151614285D02*
X156749580Y-151661904D01*
X156749580Y-151661904D02*
X156797200Y-151709523D01*
X156797200Y-151709523D02*
X156844819Y-151804761D01*
X156844819Y-151804761D02*
X156844819Y-152090475D01*
X156844819Y-152090475D02*
X156797200Y-152185713D01*
X156797200Y-152185713D02*
X156749580Y-152233332D01*
X159699580Y-152406666D02*
X159747200Y-152454285D01*
X159747200Y-152454285D02*
X159794819Y-152597142D01*
X159794819Y-152597142D02*
X159794819Y-152692380D01*
X159794819Y-152692380D02*
X159747200Y-152835237D01*
X159747200Y-152835237D02*
X159651961Y-152930475D01*
X159651961Y-152930475D02*
X159556723Y-152978094D01*
X159556723Y-152978094D02*
X159366247Y-153025713D01*
X159366247Y-153025713D02*
X159223390Y-153025713D01*
X159223390Y-153025713D02*
X159032914Y-152978094D01*
X159032914Y-152978094D02*
X158937676Y-152930475D01*
X158937676Y-152930475D02*
X158842438Y-152835237D01*
X158842438Y-152835237D02*
X158794819Y-152692380D01*
X158794819Y-152692380D02*
X158794819Y-152597142D01*
X158794819Y-152597142D02*
X158842438Y-152454285D01*
X158842438Y-152454285D02*
X158890057Y-152406666D01*
X158890057Y-152025713D02*
X158842438Y-151978094D01*
X158842438Y-151978094D02*
X158794819Y-151882856D01*
X158794819Y-151882856D02*
X158794819Y-151644761D01*
X158794819Y-151644761D02*
X158842438Y-151549523D01*
X158842438Y-151549523D02*
X158890057Y-151501904D01*
X158890057Y-151501904D02*
X158985295Y-151454285D01*
X158985295Y-151454285D02*
X159080533Y-151454285D01*
X159080533Y-151454285D02*
X159223390Y-151501904D01*
X159223390Y-151501904D02*
X159794819Y-152073332D01*
X159794819Y-152073332D02*
X159794819Y-151454285D01*
X219524819Y-136275238D02*
X219048628Y-136608571D01*
X219524819Y-136846666D02*
X218524819Y-136846666D01*
X218524819Y-136846666D02*
X218524819Y-136465714D01*
X218524819Y-136465714D02*
X218572438Y-136370476D01*
X218572438Y-136370476D02*
X218620057Y-136322857D01*
X218620057Y-136322857D02*
X218715295Y-136275238D01*
X218715295Y-136275238D02*
X218858152Y-136275238D01*
X218858152Y-136275238D02*
X218953390Y-136322857D01*
X218953390Y-136322857D02*
X219001009Y-136370476D01*
X219001009Y-136370476D02*
X219048628Y-136465714D01*
X219048628Y-136465714D02*
X219048628Y-136846666D01*
X218524819Y-135989523D02*
X219524819Y-135656190D01*
X219524819Y-135656190D02*
X218524819Y-135322857D01*
X219524819Y-134465714D02*
X219524819Y-135037142D01*
X219524819Y-134751428D02*
X218524819Y-134751428D01*
X218524819Y-134751428D02*
X218667676Y-134846666D01*
X218667676Y-134846666D02*
X218762914Y-134941904D01*
X218762914Y-134941904D02*
X218810533Y-135037142D01*
X219364819Y-115015238D02*
X218888628Y-115348571D01*
X219364819Y-115586666D02*
X218364819Y-115586666D01*
X218364819Y-115586666D02*
X218364819Y-115205714D01*
X218364819Y-115205714D02*
X218412438Y-115110476D01*
X218412438Y-115110476D02*
X218460057Y-115062857D01*
X218460057Y-115062857D02*
X218555295Y-115015238D01*
X218555295Y-115015238D02*
X218698152Y-115015238D01*
X218698152Y-115015238D02*
X218793390Y-115062857D01*
X218793390Y-115062857D02*
X218841009Y-115110476D01*
X218841009Y-115110476D02*
X218888628Y-115205714D01*
X218888628Y-115205714D02*
X218888628Y-115586666D01*
X218364819Y-114729523D02*
X219364819Y-114396190D01*
X219364819Y-114396190D02*
X218364819Y-114062857D01*
X218364819Y-113253333D02*
X218364819Y-113729523D01*
X218364819Y-113729523D02*
X218841009Y-113777142D01*
X218841009Y-113777142D02*
X218793390Y-113729523D01*
X218793390Y-113729523D02*
X218745771Y-113634285D01*
X218745771Y-113634285D02*
X218745771Y-113396190D01*
X218745771Y-113396190D02*
X218793390Y-113300952D01*
X218793390Y-113300952D02*
X218841009Y-113253333D01*
X218841009Y-113253333D02*
X218936247Y-113205714D01*
X218936247Y-113205714D02*
X219174342Y-113205714D01*
X219174342Y-113205714D02*
X219269580Y-113253333D01*
X219269580Y-113253333D02*
X219317200Y-113300952D01*
X219317200Y-113300952D02*
X219364819Y-113396190D01*
X219364819Y-113396190D02*
X219364819Y-113634285D01*
X219364819Y-113634285D02*
X219317200Y-113729523D01*
X219317200Y-113729523D02*
X219269580Y-113777142D01*
X136680476Y-66214818D02*
X136680476Y-66929103D01*
X136680476Y-66929103D02*
X136632857Y-67071960D01*
X136632857Y-67071960D02*
X136537619Y-67167199D01*
X136537619Y-67167199D02*
X136394762Y-67214818D01*
X136394762Y-67214818D02*
X136299524Y-67214818D01*
X137680476Y-67214818D02*
X137109048Y-67214818D01*
X137394762Y-67214818D02*
X137394762Y-66214818D01*
X137394762Y-66214818D02*
X137299524Y-66357675D01*
X137299524Y-66357675D02*
X137204286Y-66452913D01*
X137204286Y-66452913D02*
X137109048Y-66500532D01*
X138013810Y-66214818D02*
X138632857Y-66214818D01*
X138632857Y-66214818D02*
X138299524Y-66595770D01*
X138299524Y-66595770D02*
X138442381Y-66595770D01*
X138442381Y-66595770D02*
X138537619Y-66643389D01*
X138537619Y-66643389D02*
X138585238Y-66691008D01*
X138585238Y-66691008D02*
X138632857Y-66786246D01*
X138632857Y-66786246D02*
X138632857Y-67024341D01*
X138632857Y-67024341D02*
X138585238Y-67119579D01*
X138585238Y-67119579D02*
X138537619Y-67167199D01*
X138537619Y-67167199D02*
X138442381Y-67214818D01*
X138442381Y-67214818D02*
X138156667Y-67214818D01*
X138156667Y-67214818D02*
X138061429Y-67167199D01*
X138061429Y-67167199D02*
X138013810Y-67119579D01*
X143898333Y-149439580D02*
X143850714Y-149487200D01*
X143850714Y-149487200D02*
X143707857Y-149534819D01*
X143707857Y-149534819D02*
X143612619Y-149534819D01*
X143612619Y-149534819D02*
X143469762Y-149487200D01*
X143469762Y-149487200D02*
X143374524Y-149391961D01*
X143374524Y-149391961D02*
X143326905Y-149296723D01*
X143326905Y-149296723D02*
X143279286Y-149106247D01*
X143279286Y-149106247D02*
X143279286Y-148963390D01*
X143279286Y-148963390D02*
X143326905Y-148772914D01*
X143326905Y-148772914D02*
X143374524Y-148677676D01*
X143374524Y-148677676D02*
X143469762Y-148582438D01*
X143469762Y-148582438D02*
X143612619Y-148534819D01*
X143612619Y-148534819D02*
X143707857Y-148534819D01*
X143707857Y-148534819D02*
X143850714Y-148582438D01*
X143850714Y-148582438D02*
X143898333Y-148630057D01*
X144755476Y-148534819D02*
X144565000Y-148534819D01*
X144565000Y-148534819D02*
X144469762Y-148582438D01*
X144469762Y-148582438D02*
X144422143Y-148630057D01*
X144422143Y-148630057D02*
X144326905Y-148772914D01*
X144326905Y-148772914D02*
X144279286Y-148963390D01*
X144279286Y-148963390D02*
X144279286Y-149344342D01*
X144279286Y-149344342D02*
X144326905Y-149439580D01*
X144326905Y-149439580D02*
X144374524Y-149487200D01*
X144374524Y-149487200D02*
X144469762Y-149534819D01*
X144469762Y-149534819D02*
X144660238Y-149534819D01*
X144660238Y-149534819D02*
X144755476Y-149487200D01*
X144755476Y-149487200D02*
X144803095Y-149439580D01*
X144803095Y-149439580D02*
X144850714Y-149344342D01*
X144850714Y-149344342D02*
X144850714Y-149106247D01*
X144850714Y-149106247D02*
X144803095Y-149011009D01*
X144803095Y-149011009D02*
X144755476Y-148963390D01*
X144755476Y-148963390D02*
X144660238Y-148915771D01*
X144660238Y-148915771D02*
X144469762Y-148915771D01*
X144469762Y-148915771D02*
X144374524Y-148963390D01*
X144374524Y-148963390D02*
X144326905Y-149011009D01*
X144326905Y-149011009D02*
X144279286Y-149106247D01*
X158140476Y-54714819D02*
X158140476Y-55429104D01*
X158140476Y-55429104D02*
X158092857Y-55571961D01*
X158092857Y-55571961D02*
X157997619Y-55667200D01*
X157997619Y-55667200D02*
X157854762Y-55714819D01*
X157854762Y-55714819D02*
X157759524Y-55714819D01*
X159140476Y-55714819D02*
X158569048Y-55714819D01*
X158854762Y-55714819D02*
X158854762Y-54714819D01*
X158854762Y-54714819D02*
X158759524Y-54857676D01*
X158759524Y-54857676D02*
X158664286Y-54952914D01*
X158664286Y-54952914D02*
X158569048Y-55000533D01*
X159711905Y-55143390D02*
X159616667Y-55095771D01*
X159616667Y-55095771D02*
X159569048Y-55048152D01*
X159569048Y-55048152D02*
X159521429Y-54952914D01*
X159521429Y-54952914D02*
X159521429Y-54905295D01*
X159521429Y-54905295D02*
X159569048Y-54810057D01*
X159569048Y-54810057D02*
X159616667Y-54762438D01*
X159616667Y-54762438D02*
X159711905Y-54714819D01*
X159711905Y-54714819D02*
X159902381Y-54714819D01*
X159902381Y-54714819D02*
X159997619Y-54762438D01*
X159997619Y-54762438D02*
X160045238Y-54810057D01*
X160045238Y-54810057D02*
X160092857Y-54905295D01*
X160092857Y-54905295D02*
X160092857Y-54952914D01*
X160092857Y-54952914D02*
X160045238Y-55048152D01*
X160045238Y-55048152D02*
X159997619Y-55095771D01*
X159997619Y-55095771D02*
X159902381Y-55143390D01*
X159902381Y-55143390D02*
X159711905Y-55143390D01*
X159711905Y-55143390D02*
X159616667Y-55191009D01*
X159616667Y-55191009D02*
X159569048Y-55238628D01*
X159569048Y-55238628D02*
X159521429Y-55333866D01*
X159521429Y-55333866D02*
X159521429Y-55524342D01*
X159521429Y-55524342D02*
X159569048Y-55619580D01*
X159569048Y-55619580D02*
X159616667Y-55667200D01*
X159616667Y-55667200D02*
X159711905Y-55714819D01*
X159711905Y-55714819D02*
X159902381Y-55714819D01*
X159902381Y-55714819D02*
X159997619Y-55667200D01*
X159997619Y-55667200D02*
X160045238Y-55619580D01*
X160045238Y-55619580D02*
X160092857Y-55524342D01*
X160092857Y-55524342D02*
X160092857Y-55333866D01*
X160092857Y-55333866D02*
X160045238Y-55238628D01*
X160045238Y-55238628D02*
X159997619Y-55191009D01*
X159997619Y-55191009D02*
X159902381Y-55143390D01*
X146303333Y-141924819D02*
X145970000Y-141448628D01*
X145731905Y-141924819D02*
X145731905Y-140924819D01*
X145731905Y-140924819D02*
X146112857Y-140924819D01*
X146112857Y-140924819D02*
X146208095Y-140972438D01*
X146208095Y-140972438D02*
X146255714Y-141020057D01*
X146255714Y-141020057D02*
X146303333Y-141115295D01*
X146303333Y-141115295D02*
X146303333Y-141258152D01*
X146303333Y-141258152D02*
X146255714Y-141353390D01*
X146255714Y-141353390D02*
X146208095Y-141401009D01*
X146208095Y-141401009D02*
X146112857Y-141448628D01*
X146112857Y-141448628D02*
X145731905Y-141448628D01*
X147208095Y-140924819D02*
X146731905Y-140924819D01*
X146731905Y-140924819D02*
X146684286Y-141401009D01*
X146684286Y-141401009D02*
X146731905Y-141353390D01*
X146731905Y-141353390D02*
X146827143Y-141305771D01*
X146827143Y-141305771D02*
X147065238Y-141305771D01*
X147065238Y-141305771D02*
X147160476Y-141353390D01*
X147160476Y-141353390D02*
X147208095Y-141401009D01*
X147208095Y-141401009D02*
X147255714Y-141496247D01*
X147255714Y-141496247D02*
X147255714Y-141734342D01*
X147255714Y-141734342D02*
X147208095Y-141829580D01*
X147208095Y-141829580D02*
X147160476Y-141877200D01*
X147160476Y-141877200D02*
X147065238Y-141924819D01*
X147065238Y-141924819D02*
X146827143Y-141924819D01*
X146827143Y-141924819D02*
X146731905Y-141877200D01*
X146731905Y-141877200D02*
X146684286Y-141829580D01*
X139656666Y-132124819D02*
X139656666Y-132839104D01*
X139656666Y-132839104D02*
X139609047Y-132981961D01*
X139609047Y-132981961D02*
X139513809Y-133077200D01*
X139513809Y-133077200D02*
X139370952Y-133124819D01*
X139370952Y-133124819D02*
X139275714Y-133124819D01*
X140085238Y-132220057D02*
X140132857Y-132172438D01*
X140132857Y-132172438D02*
X140228095Y-132124819D01*
X140228095Y-132124819D02*
X140466190Y-132124819D01*
X140466190Y-132124819D02*
X140561428Y-132172438D01*
X140561428Y-132172438D02*
X140609047Y-132220057D01*
X140609047Y-132220057D02*
X140656666Y-132315295D01*
X140656666Y-132315295D02*
X140656666Y-132410533D01*
X140656666Y-132410533D02*
X140609047Y-132553390D01*
X140609047Y-132553390D02*
X140037619Y-133124819D01*
X140037619Y-133124819D02*
X140656666Y-133124819D01*
X181814819Y-134303332D02*
X182529104Y-134303332D01*
X182529104Y-134303332D02*
X182671961Y-134350951D01*
X182671961Y-134350951D02*
X182767200Y-134446189D01*
X182767200Y-134446189D02*
X182814819Y-134589046D01*
X182814819Y-134589046D02*
X182814819Y-134684284D01*
X182814819Y-133303332D02*
X182814819Y-133874760D01*
X182814819Y-133589046D02*
X181814819Y-133589046D01*
X181814819Y-133589046D02*
X181957676Y-133684284D01*
X181957676Y-133684284D02*
X182052914Y-133779522D01*
X182052914Y-133779522D02*
X182100533Y-133874760D01*
X196414819Y-59479523D02*
X197129104Y-59479523D01*
X197129104Y-59479523D02*
X197271961Y-59527142D01*
X197271961Y-59527142D02*
X197367200Y-59622380D01*
X197367200Y-59622380D02*
X197414819Y-59765237D01*
X197414819Y-59765237D02*
X197414819Y-59860475D01*
X197414819Y-58479523D02*
X197414819Y-59050951D01*
X197414819Y-58765237D02*
X196414819Y-58765237D01*
X196414819Y-58765237D02*
X196557676Y-58860475D01*
X196557676Y-58860475D02*
X196652914Y-58955713D01*
X196652914Y-58955713D02*
X196700533Y-59050951D01*
X196510057Y-58098570D02*
X196462438Y-58050951D01*
X196462438Y-58050951D02*
X196414819Y-57955713D01*
X196414819Y-57955713D02*
X196414819Y-57717618D01*
X196414819Y-57717618D02*
X196462438Y-57622380D01*
X196462438Y-57622380D02*
X196510057Y-57574761D01*
X196510057Y-57574761D02*
X196605295Y-57527142D01*
X196605295Y-57527142D02*
X196700533Y-57527142D01*
X196700533Y-57527142D02*
X196843390Y-57574761D01*
X196843390Y-57574761D02*
X197414819Y-58146189D01*
X197414819Y-58146189D02*
X197414819Y-57527142D01*
X137734820Y-82213333D02*
X138449105Y-82213333D01*
X138449105Y-82213333D02*
X138591962Y-82260952D01*
X138591962Y-82260952D02*
X138687201Y-82356190D01*
X138687201Y-82356190D02*
X138734820Y-82499047D01*
X138734820Y-82499047D02*
X138734820Y-82594285D01*
X137734820Y-81308571D02*
X137734820Y-81499047D01*
X137734820Y-81499047D02*
X137782439Y-81594285D01*
X137782439Y-81594285D02*
X137830058Y-81641904D01*
X137830058Y-81641904D02*
X137972915Y-81737142D01*
X137972915Y-81737142D02*
X138163391Y-81784761D01*
X138163391Y-81784761D02*
X138544343Y-81784761D01*
X138544343Y-81784761D02*
X138639581Y-81737142D01*
X138639581Y-81737142D02*
X138687201Y-81689523D01*
X138687201Y-81689523D02*
X138734820Y-81594285D01*
X138734820Y-81594285D02*
X138734820Y-81403809D01*
X138734820Y-81403809D02*
X138687201Y-81308571D01*
X138687201Y-81308571D02*
X138639581Y-81260952D01*
X138639581Y-81260952D02*
X138544343Y-81213333D01*
X138544343Y-81213333D02*
X138306248Y-81213333D01*
X138306248Y-81213333D02*
X138211010Y-81260952D01*
X138211010Y-81260952D02*
X138163391Y-81308571D01*
X138163391Y-81308571D02*
X138115772Y-81403809D01*
X138115772Y-81403809D02*
X138115772Y-81594285D01*
X138115772Y-81594285D02*
X138163391Y-81689523D01*
X138163391Y-81689523D02*
X138211010Y-81737142D01*
X138211010Y-81737142D02*
X138306248Y-81784761D01*
X138056666Y-102204818D02*
X138056666Y-102919103D01*
X138056666Y-102919103D02*
X138009047Y-103061960D01*
X138009047Y-103061960D02*
X137913809Y-103157199D01*
X137913809Y-103157199D02*
X137770952Y-103204818D01*
X137770952Y-103204818D02*
X137675714Y-103204818D01*
X138675714Y-102633389D02*
X138580476Y-102585770D01*
X138580476Y-102585770D02*
X138532857Y-102538151D01*
X138532857Y-102538151D02*
X138485238Y-102442913D01*
X138485238Y-102442913D02*
X138485238Y-102395294D01*
X138485238Y-102395294D02*
X138532857Y-102300056D01*
X138532857Y-102300056D02*
X138580476Y-102252437D01*
X138580476Y-102252437D02*
X138675714Y-102204818D01*
X138675714Y-102204818D02*
X138866190Y-102204818D01*
X138866190Y-102204818D02*
X138961428Y-102252437D01*
X138961428Y-102252437D02*
X139009047Y-102300056D01*
X139009047Y-102300056D02*
X139056666Y-102395294D01*
X139056666Y-102395294D02*
X139056666Y-102442913D01*
X139056666Y-102442913D02*
X139009047Y-102538151D01*
X139009047Y-102538151D02*
X138961428Y-102585770D01*
X138961428Y-102585770D02*
X138866190Y-102633389D01*
X138866190Y-102633389D02*
X138675714Y-102633389D01*
X138675714Y-102633389D02*
X138580476Y-102681008D01*
X138580476Y-102681008D02*
X138532857Y-102728627D01*
X138532857Y-102728627D02*
X138485238Y-102823865D01*
X138485238Y-102823865D02*
X138485238Y-103014341D01*
X138485238Y-103014341D02*
X138532857Y-103109579D01*
X138532857Y-103109579D02*
X138580476Y-103157199D01*
X138580476Y-103157199D02*
X138675714Y-103204818D01*
X138675714Y-103204818D02*
X138866190Y-103204818D01*
X138866190Y-103204818D02*
X138961428Y-103157199D01*
X138961428Y-103157199D02*
X139009047Y-103109579D01*
X139009047Y-103109579D02*
X139056666Y-103014341D01*
X139056666Y-103014341D02*
X139056666Y-102823865D01*
X139056666Y-102823865D02*
X139009047Y-102728627D01*
X139009047Y-102728627D02*
X138961428Y-102681008D01*
X138961428Y-102681008D02*
X138866190Y-102633389D01*
X149698333Y-154119580D02*
X149650714Y-154167200D01*
X149650714Y-154167200D02*
X149507857Y-154214819D01*
X149507857Y-154214819D02*
X149412619Y-154214819D01*
X149412619Y-154214819D02*
X149269762Y-154167200D01*
X149269762Y-154167200D02*
X149174524Y-154071961D01*
X149174524Y-154071961D02*
X149126905Y-153976723D01*
X149126905Y-153976723D02*
X149079286Y-153786247D01*
X149079286Y-153786247D02*
X149079286Y-153643390D01*
X149079286Y-153643390D02*
X149126905Y-153452914D01*
X149126905Y-153452914D02*
X149174524Y-153357676D01*
X149174524Y-153357676D02*
X149269762Y-153262438D01*
X149269762Y-153262438D02*
X149412619Y-153214819D01*
X149412619Y-153214819D02*
X149507857Y-153214819D01*
X149507857Y-153214819D02*
X149650714Y-153262438D01*
X149650714Y-153262438D02*
X149698333Y-153310057D01*
X150603095Y-153214819D02*
X150126905Y-153214819D01*
X150126905Y-153214819D02*
X150079286Y-153691009D01*
X150079286Y-153691009D02*
X150126905Y-153643390D01*
X150126905Y-153643390D02*
X150222143Y-153595771D01*
X150222143Y-153595771D02*
X150460238Y-153595771D01*
X150460238Y-153595771D02*
X150555476Y-153643390D01*
X150555476Y-153643390D02*
X150603095Y-153691009D01*
X150603095Y-153691009D02*
X150650714Y-153786247D01*
X150650714Y-153786247D02*
X150650714Y-154024342D01*
X150650714Y-154024342D02*
X150603095Y-154119580D01*
X150603095Y-154119580D02*
X150555476Y-154167200D01*
X150555476Y-154167200D02*
X150460238Y-154214819D01*
X150460238Y-154214819D02*
X150222143Y-154214819D01*
X150222143Y-154214819D02*
X150126905Y-154167200D01*
X150126905Y-154167200D02*
X150079286Y-154119580D01*
X134614819Y-143276666D02*
X134614819Y-143752856D01*
X134614819Y-143752856D02*
X133614819Y-143752856D01*
X134614819Y-142419523D02*
X134614819Y-142990951D01*
X134614819Y-142705237D02*
X133614819Y-142705237D01*
X133614819Y-142705237D02*
X133757676Y-142800475D01*
X133757676Y-142800475D02*
X133852914Y-142895713D01*
X133852914Y-142895713D02*
X133900533Y-142990951D01*
X143990476Y-54764819D02*
X143990476Y-55479104D01*
X143990476Y-55479104D02*
X143942857Y-55621961D01*
X143942857Y-55621961D02*
X143847619Y-55717200D01*
X143847619Y-55717200D02*
X143704762Y-55764819D01*
X143704762Y-55764819D02*
X143609524Y-55764819D01*
X144990476Y-55764819D02*
X144419048Y-55764819D01*
X144704762Y-55764819D02*
X144704762Y-54764819D01*
X144704762Y-54764819D02*
X144609524Y-54907676D01*
X144609524Y-54907676D02*
X144514286Y-55002914D01*
X144514286Y-55002914D02*
X144419048Y-55050533D01*
X145847619Y-54764819D02*
X145657143Y-54764819D01*
X145657143Y-54764819D02*
X145561905Y-54812438D01*
X145561905Y-54812438D02*
X145514286Y-54860057D01*
X145514286Y-54860057D02*
X145419048Y-55002914D01*
X145419048Y-55002914D02*
X145371429Y-55193390D01*
X145371429Y-55193390D02*
X145371429Y-55574342D01*
X145371429Y-55574342D02*
X145419048Y-55669580D01*
X145419048Y-55669580D02*
X145466667Y-55717200D01*
X145466667Y-55717200D02*
X145561905Y-55764819D01*
X145561905Y-55764819D02*
X145752381Y-55764819D01*
X145752381Y-55764819D02*
X145847619Y-55717200D01*
X145847619Y-55717200D02*
X145895238Y-55669580D01*
X145895238Y-55669580D02*
X145942857Y-55574342D01*
X145942857Y-55574342D02*
X145942857Y-55336247D01*
X145942857Y-55336247D02*
X145895238Y-55241009D01*
X145895238Y-55241009D02*
X145847619Y-55193390D01*
X145847619Y-55193390D02*
X145752381Y-55145771D01*
X145752381Y-55145771D02*
X145561905Y-55145771D01*
X145561905Y-55145771D02*
X145466667Y-55193390D01*
X145466667Y-55193390D02*
X145419048Y-55241009D01*
X145419048Y-55241009D02*
X145371429Y-55336247D01*
X144159580Y-136656666D02*
X144207200Y-136704285D01*
X144207200Y-136704285D02*
X144254819Y-136847142D01*
X144254819Y-136847142D02*
X144254819Y-136942380D01*
X144254819Y-136942380D02*
X144207200Y-137085237D01*
X144207200Y-137085237D02*
X144111961Y-137180475D01*
X144111961Y-137180475D02*
X144016723Y-137228094D01*
X144016723Y-137228094D02*
X143826247Y-137275713D01*
X143826247Y-137275713D02*
X143683390Y-137275713D01*
X143683390Y-137275713D02*
X143492914Y-137228094D01*
X143492914Y-137228094D02*
X143397676Y-137180475D01*
X143397676Y-137180475D02*
X143302438Y-137085237D01*
X143302438Y-137085237D02*
X143254819Y-136942380D01*
X143254819Y-136942380D02*
X143254819Y-136847142D01*
X143254819Y-136847142D02*
X143302438Y-136704285D01*
X143302438Y-136704285D02*
X143350057Y-136656666D01*
X143683390Y-136085237D02*
X143635771Y-136180475D01*
X143635771Y-136180475D02*
X143588152Y-136228094D01*
X143588152Y-136228094D02*
X143492914Y-136275713D01*
X143492914Y-136275713D02*
X143445295Y-136275713D01*
X143445295Y-136275713D02*
X143350057Y-136228094D01*
X143350057Y-136228094D02*
X143302438Y-136180475D01*
X143302438Y-136180475D02*
X143254819Y-136085237D01*
X143254819Y-136085237D02*
X143254819Y-135894761D01*
X143254819Y-135894761D02*
X143302438Y-135799523D01*
X143302438Y-135799523D02*
X143350057Y-135751904D01*
X143350057Y-135751904D02*
X143445295Y-135704285D01*
X143445295Y-135704285D02*
X143492914Y-135704285D01*
X143492914Y-135704285D02*
X143588152Y-135751904D01*
X143588152Y-135751904D02*
X143635771Y-135799523D01*
X143635771Y-135799523D02*
X143683390Y-135894761D01*
X143683390Y-135894761D02*
X143683390Y-136085237D01*
X143683390Y-136085237D02*
X143731009Y-136180475D01*
X143731009Y-136180475D02*
X143778628Y-136228094D01*
X143778628Y-136228094D02*
X143873866Y-136275713D01*
X143873866Y-136275713D02*
X144064342Y-136275713D01*
X144064342Y-136275713D02*
X144159580Y-136228094D01*
X144159580Y-136228094D02*
X144207200Y-136180475D01*
X144207200Y-136180475D02*
X144254819Y-136085237D01*
X144254819Y-136085237D02*
X144254819Y-135894761D01*
X144254819Y-135894761D02*
X144207200Y-135799523D01*
X144207200Y-135799523D02*
X144159580Y-135751904D01*
X144159580Y-135751904D02*
X144064342Y-135704285D01*
X144064342Y-135704285D02*
X143873866Y-135704285D01*
X143873866Y-135704285D02*
X143778628Y-135751904D01*
X143778628Y-135751904D02*
X143731009Y-135799523D01*
X143731009Y-135799523D02*
X143683390Y-135894761D01*
X129961904Y-142034819D02*
X129961904Y-141034819D01*
X129961904Y-141034819D02*
X130199999Y-141034819D01*
X130199999Y-141034819D02*
X130342856Y-141082438D01*
X130342856Y-141082438D02*
X130438094Y-141177676D01*
X130438094Y-141177676D02*
X130485713Y-141272914D01*
X130485713Y-141272914D02*
X130533332Y-141463390D01*
X130533332Y-141463390D02*
X130533332Y-141606247D01*
X130533332Y-141606247D02*
X130485713Y-141796723D01*
X130485713Y-141796723D02*
X130438094Y-141891961D01*
X130438094Y-141891961D02*
X130342856Y-141987200D01*
X130342856Y-141987200D02*
X130199999Y-142034819D01*
X130199999Y-142034819D02*
X129961904Y-142034819D01*
X131485713Y-142034819D02*
X130914285Y-142034819D01*
X131199999Y-142034819D02*
X131199999Y-141034819D01*
X131199999Y-141034819D02*
X131104761Y-141177676D01*
X131104761Y-141177676D02*
X131009523Y-141272914D01*
X131009523Y-141272914D02*
X130914285Y-141320533D01*
X212604819Y-143025239D02*
X212128628Y-143358572D01*
X212604819Y-143596667D02*
X211604819Y-143596667D01*
X211604819Y-143596667D02*
X211604819Y-143215715D01*
X211604819Y-143215715D02*
X211652438Y-143120477D01*
X211652438Y-143120477D02*
X211700057Y-143072858D01*
X211700057Y-143072858D02*
X211795295Y-143025239D01*
X211795295Y-143025239D02*
X211938152Y-143025239D01*
X211938152Y-143025239D02*
X212033390Y-143072858D01*
X212033390Y-143072858D02*
X212081009Y-143120477D01*
X212081009Y-143120477D02*
X212128628Y-143215715D01*
X212128628Y-143215715D02*
X212128628Y-143596667D01*
X211604819Y-142739524D02*
X212604819Y-142406191D01*
X212604819Y-142406191D02*
X211604819Y-142072858D01*
X211700057Y-141787143D02*
X211652438Y-141739524D01*
X211652438Y-141739524D02*
X211604819Y-141644286D01*
X211604819Y-141644286D02*
X211604819Y-141406191D01*
X211604819Y-141406191D02*
X211652438Y-141310953D01*
X211652438Y-141310953D02*
X211700057Y-141263334D01*
X211700057Y-141263334D02*
X211795295Y-141215715D01*
X211795295Y-141215715D02*
X211890533Y-141215715D01*
X211890533Y-141215715D02*
X212033390Y-141263334D01*
X212033390Y-141263334D02*
X212604819Y-141834762D01*
X212604819Y-141834762D02*
X212604819Y-141215715D01*
X152796666Y-134914819D02*
X152796666Y-135629104D01*
X152796666Y-135629104D02*
X152749047Y-135771961D01*
X152749047Y-135771961D02*
X152653809Y-135867200D01*
X152653809Y-135867200D02*
X152510952Y-135914819D01*
X152510952Y-135914819D02*
X152415714Y-135914819D01*
X153177619Y-134914819D02*
X153796666Y-134914819D01*
X153796666Y-134914819D02*
X153463333Y-135295771D01*
X153463333Y-135295771D02*
X153606190Y-135295771D01*
X153606190Y-135295771D02*
X153701428Y-135343390D01*
X153701428Y-135343390D02*
X153749047Y-135391009D01*
X153749047Y-135391009D02*
X153796666Y-135486247D01*
X153796666Y-135486247D02*
X153796666Y-135724342D01*
X153796666Y-135724342D02*
X153749047Y-135819580D01*
X153749047Y-135819580D02*
X153701428Y-135867200D01*
X153701428Y-135867200D02*
X153606190Y-135914819D01*
X153606190Y-135914819D02*
X153320476Y-135914819D01*
X153320476Y-135914819D02*
X153225238Y-135867200D01*
X153225238Y-135867200D02*
X153177619Y-135819580D01*
X151460476Y-54644819D02*
X151460476Y-55359104D01*
X151460476Y-55359104D02*
X151412857Y-55501961D01*
X151412857Y-55501961D02*
X151317619Y-55597200D01*
X151317619Y-55597200D02*
X151174762Y-55644819D01*
X151174762Y-55644819D02*
X151079524Y-55644819D01*
X152460476Y-55644819D02*
X151889048Y-55644819D01*
X152174762Y-55644819D02*
X152174762Y-54644819D01*
X152174762Y-54644819D02*
X152079524Y-54787676D01*
X152079524Y-54787676D02*
X151984286Y-54882914D01*
X151984286Y-54882914D02*
X151889048Y-54930533D01*
X153365238Y-54644819D02*
X152889048Y-54644819D01*
X152889048Y-54644819D02*
X152841429Y-55121009D01*
X152841429Y-55121009D02*
X152889048Y-55073390D01*
X152889048Y-55073390D02*
X152984286Y-55025771D01*
X152984286Y-55025771D02*
X153222381Y-55025771D01*
X153222381Y-55025771D02*
X153317619Y-55073390D01*
X153317619Y-55073390D02*
X153365238Y-55121009D01*
X153365238Y-55121009D02*
X153412857Y-55216247D01*
X153412857Y-55216247D02*
X153412857Y-55454342D01*
X153412857Y-55454342D02*
X153365238Y-55549580D01*
X153365238Y-55549580D02*
X153317619Y-55597200D01*
X153317619Y-55597200D02*
X153222381Y-55644819D01*
X153222381Y-55644819D02*
X152984286Y-55644819D01*
X152984286Y-55644819D02*
X152889048Y-55597200D01*
X152889048Y-55597200D02*
X152841429Y-55549580D01*
X146496666Y-94434819D02*
X146496666Y-95149104D01*
X146496666Y-95149104D02*
X146449047Y-95291961D01*
X146449047Y-95291961D02*
X146353809Y-95387200D01*
X146353809Y-95387200D02*
X146210952Y-95434819D01*
X146210952Y-95434819D02*
X146115714Y-95434819D01*
X146877619Y-94434819D02*
X147544285Y-94434819D01*
X147544285Y-94434819D02*
X147115714Y-95434819D01*
X162438095Y-73442819D02*
X162438095Y-74252342D01*
X162438095Y-74252342D02*
X162485714Y-74347580D01*
X162485714Y-74347580D02*
X162533333Y-74395200D01*
X162533333Y-74395200D02*
X162628571Y-74442819D01*
X162628571Y-74442819D02*
X162819047Y-74442819D01*
X162819047Y-74442819D02*
X162914285Y-74395200D01*
X162914285Y-74395200D02*
X162961904Y-74347580D01*
X162961904Y-74347580D02*
X163009523Y-74252342D01*
X163009523Y-74252342D02*
X163009523Y-73442819D01*
X164009523Y-74442819D02*
X163438095Y-74442819D01*
X163723809Y-74442819D02*
X163723809Y-73442819D01*
X163723809Y-73442819D02*
X163628571Y-73585676D01*
X163628571Y-73585676D02*
X163533333Y-73680914D01*
X163533333Y-73680914D02*
X163438095Y-73728533D01*
X184976666Y-142834819D02*
X184976666Y-143549104D01*
X184976666Y-143549104D02*
X184929047Y-143691961D01*
X184929047Y-143691961D02*
X184833809Y-143787200D01*
X184833809Y-143787200D02*
X184690952Y-143834819D01*
X184690952Y-143834819D02*
X184595714Y-143834819D01*
X185881428Y-143168152D02*
X185881428Y-143834819D01*
X185643333Y-142787200D02*
X185405238Y-143501485D01*
X185405238Y-143501485D02*
X186024285Y-143501485D01*
X179519819Y-118114522D02*
X180234104Y-118114522D01*
X180234104Y-118114522D02*
X180376961Y-118162141D01*
X180376961Y-118162141D02*
X180472200Y-118257379D01*
X180472200Y-118257379D02*
X180519819Y-118400236D01*
X180519819Y-118400236D02*
X180519819Y-118495474D01*
X179615057Y-117685950D02*
X179567438Y-117638331D01*
X179567438Y-117638331D02*
X179519819Y-117543093D01*
X179519819Y-117543093D02*
X179519819Y-117304998D01*
X179519819Y-117304998D02*
X179567438Y-117209760D01*
X179567438Y-117209760D02*
X179615057Y-117162141D01*
X179615057Y-117162141D02*
X179710295Y-117114522D01*
X179710295Y-117114522D02*
X179805533Y-117114522D01*
X179805533Y-117114522D02*
X179948390Y-117162141D01*
X179948390Y-117162141D02*
X180519819Y-117733569D01*
X180519819Y-117733569D02*
X180519819Y-117114522D01*
X179519819Y-116781188D02*
X179519819Y-116162141D01*
X179519819Y-116162141D02*
X179900771Y-116495474D01*
X179900771Y-116495474D02*
X179900771Y-116352617D01*
X179900771Y-116352617D02*
X179948390Y-116257379D01*
X179948390Y-116257379D02*
X179996009Y-116209760D01*
X179996009Y-116209760D02*
X180091247Y-116162141D01*
X180091247Y-116162141D02*
X180329342Y-116162141D01*
X180329342Y-116162141D02*
X180424580Y-116209760D01*
X180424580Y-116209760D02*
X180472200Y-116257379D01*
X180472200Y-116257379D02*
X180519819Y-116352617D01*
X180519819Y-116352617D02*
X180519819Y-116638331D01*
X180519819Y-116638331D02*
X180472200Y-116733569D01*
X180472200Y-116733569D02*
X180424580Y-116781188D01*
X146158333Y-144654819D02*
X145825000Y-144178628D01*
X145586905Y-144654819D02*
X145586905Y-143654819D01*
X145586905Y-143654819D02*
X145967857Y-143654819D01*
X145967857Y-143654819D02*
X146063095Y-143702438D01*
X146063095Y-143702438D02*
X146110714Y-143750057D01*
X146110714Y-143750057D02*
X146158333Y-143845295D01*
X146158333Y-143845295D02*
X146158333Y-143988152D01*
X146158333Y-143988152D02*
X146110714Y-144083390D01*
X146110714Y-144083390D02*
X146063095Y-144131009D01*
X146063095Y-144131009D02*
X145967857Y-144178628D01*
X145967857Y-144178628D02*
X145586905Y-144178628D01*
X147015476Y-143654819D02*
X146825000Y-143654819D01*
X146825000Y-143654819D02*
X146729762Y-143702438D01*
X146729762Y-143702438D02*
X146682143Y-143750057D01*
X146682143Y-143750057D02*
X146586905Y-143892914D01*
X146586905Y-143892914D02*
X146539286Y-144083390D01*
X146539286Y-144083390D02*
X146539286Y-144464342D01*
X146539286Y-144464342D02*
X146586905Y-144559580D01*
X146586905Y-144559580D02*
X146634524Y-144607200D01*
X146634524Y-144607200D02*
X146729762Y-144654819D01*
X146729762Y-144654819D02*
X146920238Y-144654819D01*
X146920238Y-144654819D02*
X147015476Y-144607200D01*
X147015476Y-144607200D02*
X147063095Y-144559580D01*
X147063095Y-144559580D02*
X147110714Y-144464342D01*
X147110714Y-144464342D02*
X147110714Y-144226247D01*
X147110714Y-144226247D02*
X147063095Y-144131009D01*
X147063095Y-144131009D02*
X147015476Y-144083390D01*
X147015476Y-144083390D02*
X146920238Y-144035771D01*
X146920238Y-144035771D02*
X146729762Y-144035771D01*
X146729762Y-144035771D02*
X146634524Y-144083390D01*
X146634524Y-144083390D02*
X146586905Y-144131009D01*
X146586905Y-144131009D02*
X146539286Y-144226247D01*
X159030476Y-117684819D02*
X159030476Y-118399104D01*
X159030476Y-118399104D02*
X158982857Y-118541961D01*
X158982857Y-118541961D02*
X158887619Y-118637200D01*
X158887619Y-118637200D02*
X158744762Y-118684819D01*
X158744762Y-118684819D02*
X158649524Y-118684819D01*
X159459048Y-117780057D02*
X159506667Y-117732438D01*
X159506667Y-117732438D02*
X159601905Y-117684819D01*
X159601905Y-117684819D02*
X159840000Y-117684819D01*
X159840000Y-117684819D02*
X159935238Y-117732438D01*
X159935238Y-117732438D02*
X159982857Y-117780057D01*
X159982857Y-117780057D02*
X160030476Y-117875295D01*
X160030476Y-117875295D02*
X160030476Y-117970533D01*
X160030476Y-117970533D02*
X159982857Y-118113390D01*
X159982857Y-118113390D02*
X159411429Y-118684819D01*
X159411429Y-118684819D02*
X160030476Y-118684819D01*
X160649524Y-117684819D02*
X160744762Y-117684819D01*
X160744762Y-117684819D02*
X160840000Y-117732438D01*
X160840000Y-117732438D02*
X160887619Y-117780057D01*
X160887619Y-117780057D02*
X160935238Y-117875295D01*
X160935238Y-117875295D02*
X160982857Y-118065771D01*
X160982857Y-118065771D02*
X160982857Y-118303866D01*
X160982857Y-118303866D02*
X160935238Y-118494342D01*
X160935238Y-118494342D02*
X160887619Y-118589580D01*
X160887619Y-118589580D02*
X160840000Y-118637200D01*
X160840000Y-118637200D02*
X160744762Y-118684819D01*
X160744762Y-118684819D02*
X160649524Y-118684819D01*
X160649524Y-118684819D02*
X160554286Y-118637200D01*
X160554286Y-118637200D02*
X160506667Y-118589580D01*
X160506667Y-118589580D02*
X160459048Y-118494342D01*
X160459048Y-118494342D02*
X160411429Y-118303866D01*
X160411429Y-118303866D02*
X160411429Y-118065771D01*
X160411429Y-118065771D02*
X160459048Y-117875295D01*
X160459048Y-117875295D02*
X160506667Y-117780057D01*
X160506667Y-117780057D02*
X160554286Y-117732438D01*
X160554286Y-117732438D02*
X160649524Y-117684819D01*
X154499819Y-145686666D02*
X154023628Y-146019999D01*
X154499819Y-146258094D02*
X153499819Y-146258094D01*
X153499819Y-146258094D02*
X153499819Y-145877142D01*
X153499819Y-145877142D02*
X153547438Y-145781904D01*
X153547438Y-145781904D02*
X153595057Y-145734285D01*
X153595057Y-145734285D02*
X153690295Y-145686666D01*
X153690295Y-145686666D02*
X153833152Y-145686666D01*
X153833152Y-145686666D02*
X153928390Y-145734285D01*
X153928390Y-145734285D02*
X153976009Y-145781904D01*
X153976009Y-145781904D02*
X154023628Y-145877142D01*
X154023628Y-145877142D02*
X154023628Y-146258094D01*
X153499819Y-145353332D02*
X153499819Y-144734285D01*
X153499819Y-144734285D02*
X153880771Y-145067618D01*
X153880771Y-145067618D02*
X153880771Y-144924761D01*
X153880771Y-144924761D02*
X153928390Y-144829523D01*
X153928390Y-144829523D02*
X153976009Y-144781904D01*
X153976009Y-144781904D02*
X154071247Y-144734285D01*
X154071247Y-144734285D02*
X154309342Y-144734285D01*
X154309342Y-144734285D02*
X154404580Y-144781904D01*
X154404580Y-144781904D02*
X154452200Y-144829523D01*
X154452200Y-144829523D02*
X154499819Y-144924761D01*
X154499819Y-144924761D02*
X154499819Y-145210475D01*
X154499819Y-145210475D02*
X154452200Y-145305713D01*
X154452200Y-145305713D02*
X154404580Y-145353332D01*
X146193333Y-136284819D02*
X145860000Y-135808628D01*
X145621905Y-136284819D02*
X145621905Y-135284819D01*
X145621905Y-135284819D02*
X146002857Y-135284819D01*
X146002857Y-135284819D02*
X146098095Y-135332438D01*
X146098095Y-135332438D02*
X146145714Y-135380057D01*
X146145714Y-135380057D02*
X146193333Y-135475295D01*
X146193333Y-135475295D02*
X146193333Y-135618152D01*
X146193333Y-135618152D02*
X146145714Y-135713390D01*
X146145714Y-135713390D02*
X146098095Y-135761009D01*
X146098095Y-135761009D02*
X146002857Y-135808628D01*
X146002857Y-135808628D02*
X145621905Y-135808628D01*
X146526667Y-135284819D02*
X147193333Y-135284819D01*
X147193333Y-135284819D02*
X146764762Y-136284819D01*
X179964819Y-59429522D02*
X180679104Y-59429522D01*
X180679104Y-59429522D02*
X180821961Y-59477141D01*
X180821961Y-59477141D02*
X180917200Y-59572379D01*
X180917200Y-59572379D02*
X180964819Y-59715236D01*
X180964819Y-59715236D02*
X180964819Y-59810474D01*
X180964819Y-58429522D02*
X180964819Y-59000950D01*
X180964819Y-58715236D02*
X179964819Y-58715236D01*
X179964819Y-58715236D02*
X180107676Y-58810474D01*
X180107676Y-58810474D02*
X180202914Y-58905712D01*
X180202914Y-58905712D02*
X180250533Y-59000950D01*
X180964819Y-57477141D02*
X180964819Y-58048569D01*
X180964819Y-57762855D02*
X179964819Y-57762855D01*
X179964819Y-57762855D02*
X180107676Y-57858093D01*
X180107676Y-57858093D02*
X180202914Y-57953331D01*
X180202914Y-57953331D02*
X180250533Y-58048569D01*
X179694819Y-66199522D02*
X180409104Y-66199522D01*
X180409104Y-66199522D02*
X180551961Y-66247141D01*
X180551961Y-66247141D02*
X180647200Y-66342379D01*
X180647200Y-66342379D02*
X180694819Y-66485236D01*
X180694819Y-66485236D02*
X180694819Y-66580474D01*
X180694819Y-65199522D02*
X180694819Y-65770950D01*
X180694819Y-65485236D02*
X179694819Y-65485236D01*
X179694819Y-65485236D02*
X179837676Y-65580474D01*
X179837676Y-65580474D02*
X179932914Y-65675712D01*
X179932914Y-65675712D02*
X179980533Y-65770950D01*
X179694819Y-64866188D02*
X179694819Y-64199522D01*
X179694819Y-64199522D02*
X180694819Y-64628093D01*
X203486667Y-148637201D02*
X203629524Y-148684820D01*
X203629524Y-148684820D02*
X203867619Y-148684820D01*
X203867619Y-148684820D02*
X203962857Y-148637201D01*
X203962857Y-148637201D02*
X204010476Y-148589581D01*
X204010476Y-148589581D02*
X204058095Y-148494343D01*
X204058095Y-148494343D02*
X204058095Y-148399105D01*
X204058095Y-148399105D02*
X204010476Y-148303867D01*
X204010476Y-148303867D02*
X203962857Y-148256248D01*
X203962857Y-148256248D02*
X203867619Y-148208629D01*
X203867619Y-148208629D02*
X203677143Y-148161010D01*
X203677143Y-148161010D02*
X203581905Y-148113391D01*
X203581905Y-148113391D02*
X203534286Y-148065772D01*
X203534286Y-148065772D02*
X203486667Y-147970534D01*
X203486667Y-147970534D02*
X203486667Y-147875296D01*
X203486667Y-147875296D02*
X203534286Y-147780058D01*
X203534286Y-147780058D02*
X203581905Y-147732439D01*
X203581905Y-147732439D02*
X203677143Y-147684820D01*
X203677143Y-147684820D02*
X203915238Y-147684820D01*
X203915238Y-147684820D02*
X204058095Y-147732439D01*
X204391429Y-147684820D02*
X204629524Y-148684820D01*
X204629524Y-148684820D02*
X204820000Y-147970534D01*
X204820000Y-147970534D02*
X205010476Y-148684820D01*
X205010476Y-148684820D02*
X205248572Y-147684820D01*
X205534286Y-147684820D02*
X206153333Y-147684820D01*
X206153333Y-147684820D02*
X205820000Y-148065772D01*
X205820000Y-148065772D02*
X205962857Y-148065772D01*
X205962857Y-148065772D02*
X206058095Y-148113391D01*
X206058095Y-148113391D02*
X206105714Y-148161010D01*
X206105714Y-148161010D02*
X206153333Y-148256248D01*
X206153333Y-148256248D02*
X206153333Y-148494343D01*
X206153333Y-148494343D02*
X206105714Y-148589581D01*
X206105714Y-148589581D02*
X206058095Y-148637201D01*
X206058095Y-148637201D02*
X205962857Y-148684820D01*
X205962857Y-148684820D02*
X205677143Y-148684820D01*
X205677143Y-148684820D02*
X205581905Y-148637201D01*
X205581905Y-148637201D02*
X205534286Y-148589581D01*
X219344819Y-104435239D02*
X218868628Y-104768572D01*
X219344819Y-105006667D02*
X218344819Y-105006667D01*
X218344819Y-105006667D02*
X218344819Y-104625715D01*
X218344819Y-104625715D02*
X218392438Y-104530477D01*
X218392438Y-104530477D02*
X218440057Y-104482858D01*
X218440057Y-104482858D02*
X218535295Y-104435239D01*
X218535295Y-104435239D02*
X218678152Y-104435239D01*
X218678152Y-104435239D02*
X218773390Y-104482858D01*
X218773390Y-104482858D02*
X218821009Y-104530477D01*
X218821009Y-104530477D02*
X218868628Y-104625715D01*
X218868628Y-104625715D02*
X218868628Y-105006667D01*
X218344819Y-104149524D02*
X219344819Y-103816191D01*
X219344819Y-103816191D02*
X218344819Y-103482858D01*
X218344819Y-103244762D02*
X218344819Y-102625715D01*
X218344819Y-102625715D02*
X218725771Y-102959048D01*
X218725771Y-102959048D02*
X218725771Y-102816191D01*
X218725771Y-102816191D02*
X218773390Y-102720953D01*
X218773390Y-102720953D02*
X218821009Y-102673334D01*
X218821009Y-102673334D02*
X218916247Y-102625715D01*
X218916247Y-102625715D02*
X219154342Y-102625715D01*
X219154342Y-102625715D02*
X219249580Y-102673334D01*
X219249580Y-102673334D02*
X219297200Y-102720953D01*
X219297200Y-102720953D02*
X219344819Y-102816191D01*
X219344819Y-102816191D02*
X219344819Y-103101905D01*
X219344819Y-103101905D02*
X219297200Y-103197143D01*
X219297200Y-103197143D02*
X219249580Y-103244762D01*
X179519819Y-104504522D02*
X180234104Y-104504522D01*
X180234104Y-104504522D02*
X180376961Y-104552141D01*
X180376961Y-104552141D02*
X180472200Y-104647379D01*
X180472200Y-104647379D02*
X180519819Y-104790236D01*
X180519819Y-104790236D02*
X180519819Y-104885474D01*
X179615057Y-104075950D02*
X179567438Y-104028331D01*
X179567438Y-104028331D02*
X179519819Y-103933093D01*
X179519819Y-103933093D02*
X179519819Y-103694998D01*
X179519819Y-103694998D02*
X179567438Y-103599760D01*
X179567438Y-103599760D02*
X179615057Y-103552141D01*
X179615057Y-103552141D02*
X179710295Y-103504522D01*
X179710295Y-103504522D02*
X179805533Y-103504522D01*
X179805533Y-103504522D02*
X179948390Y-103552141D01*
X179948390Y-103552141D02*
X180519819Y-104123569D01*
X180519819Y-104123569D02*
X180519819Y-103504522D01*
X179615057Y-103123569D02*
X179567438Y-103075950D01*
X179567438Y-103075950D02*
X179519819Y-102980712D01*
X179519819Y-102980712D02*
X179519819Y-102742617D01*
X179519819Y-102742617D02*
X179567438Y-102647379D01*
X179567438Y-102647379D02*
X179615057Y-102599760D01*
X179615057Y-102599760D02*
X179710295Y-102552141D01*
X179710295Y-102552141D02*
X179805533Y-102552141D01*
X179805533Y-102552141D02*
X179948390Y-102599760D01*
X179948390Y-102599760D02*
X180519819Y-103171188D01*
X180519819Y-103171188D02*
X180519819Y-102552141D01*
X132399580Y-129506666D02*
X132447200Y-129554285D01*
X132447200Y-129554285D02*
X132494819Y-129697142D01*
X132494819Y-129697142D02*
X132494819Y-129792380D01*
X132494819Y-129792380D02*
X132447200Y-129935237D01*
X132447200Y-129935237D02*
X132351961Y-130030475D01*
X132351961Y-130030475D02*
X132256723Y-130078094D01*
X132256723Y-130078094D02*
X132066247Y-130125713D01*
X132066247Y-130125713D02*
X131923390Y-130125713D01*
X131923390Y-130125713D02*
X131732914Y-130078094D01*
X131732914Y-130078094D02*
X131637676Y-130030475D01*
X131637676Y-130030475D02*
X131542438Y-129935237D01*
X131542438Y-129935237D02*
X131494819Y-129792380D01*
X131494819Y-129792380D02*
X131494819Y-129697142D01*
X131494819Y-129697142D02*
X131542438Y-129554285D01*
X131542438Y-129554285D02*
X131590057Y-129506666D01*
X132494819Y-129030475D02*
X132494819Y-128839999D01*
X132494819Y-128839999D02*
X132447200Y-128744761D01*
X132447200Y-128744761D02*
X132399580Y-128697142D01*
X132399580Y-128697142D02*
X132256723Y-128601904D01*
X132256723Y-128601904D02*
X132066247Y-128554285D01*
X132066247Y-128554285D02*
X131685295Y-128554285D01*
X131685295Y-128554285D02*
X131590057Y-128601904D01*
X131590057Y-128601904D02*
X131542438Y-128649523D01*
X131542438Y-128649523D02*
X131494819Y-128744761D01*
X131494819Y-128744761D02*
X131494819Y-128935237D01*
X131494819Y-128935237D02*
X131542438Y-129030475D01*
X131542438Y-129030475D02*
X131590057Y-129078094D01*
X131590057Y-129078094D02*
X131685295Y-129125713D01*
X131685295Y-129125713D02*
X131923390Y-129125713D01*
X131923390Y-129125713D02*
X132018628Y-129078094D01*
X132018628Y-129078094D02*
X132066247Y-129030475D01*
X132066247Y-129030475D02*
X132113866Y-128935237D01*
X132113866Y-128935237D02*
X132113866Y-128744761D01*
X132113866Y-128744761D02*
X132066247Y-128649523D01*
X132066247Y-128649523D02*
X132018628Y-128601904D01*
X132018628Y-128601904D02*
X131923390Y-128554285D01*
X145534820Y-82213333D02*
X146249105Y-82213333D01*
X146249105Y-82213333D02*
X146391962Y-82260952D01*
X146391962Y-82260952D02*
X146487201Y-82356190D01*
X146487201Y-82356190D02*
X146534820Y-82499047D01*
X146534820Y-82499047D02*
X146534820Y-82594285D01*
X145534820Y-81260952D02*
X145534820Y-81737142D01*
X145534820Y-81737142D02*
X146011010Y-81784761D01*
X146011010Y-81784761D02*
X145963391Y-81737142D01*
X145963391Y-81737142D02*
X145915772Y-81641904D01*
X145915772Y-81641904D02*
X145915772Y-81403809D01*
X145915772Y-81403809D02*
X145963391Y-81308571D01*
X145963391Y-81308571D02*
X146011010Y-81260952D01*
X146011010Y-81260952D02*
X146106248Y-81213333D01*
X146106248Y-81213333D02*
X146344343Y-81213333D01*
X146344343Y-81213333D02*
X146439581Y-81260952D01*
X146439581Y-81260952D02*
X146487201Y-81308571D01*
X146487201Y-81308571D02*
X146534820Y-81403809D01*
X146534820Y-81403809D02*
X146534820Y-81641904D01*
X146534820Y-81641904D02*
X146487201Y-81737142D01*
X146487201Y-81737142D02*
X146439581Y-81784761D01*
X137704820Y-95893333D02*
X138419105Y-95893333D01*
X138419105Y-95893333D02*
X138561962Y-95940952D01*
X138561962Y-95940952D02*
X138657201Y-96036190D01*
X138657201Y-96036190D02*
X138704820Y-96179047D01*
X138704820Y-96179047D02*
X138704820Y-96274285D01*
X138704820Y-95369523D02*
X138704820Y-95179047D01*
X138704820Y-95179047D02*
X138657201Y-95083809D01*
X138657201Y-95083809D02*
X138609581Y-95036190D01*
X138609581Y-95036190D02*
X138466724Y-94940952D01*
X138466724Y-94940952D02*
X138276248Y-94893333D01*
X138276248Y-94893333D02*
X137895296Y-94893333D01*
X137895296Y-94893333D02*
X137800058Y-94940952D01*
X137800058Y-94940952D02*
X137752439Y-94988571D01*
X137752439Y-94988571D02*
X137704820Y-95083809D01*
X137704820Y-95083809D02*
X137704820Y-95274285D01*
X137704820Y-95274285D02*
X137752439Y-95369523D01*
X137752439Y-95369523D02*
X137800058Y-95417142D01*
X137800058Y-95417142D02*
X137895296Y-95464761D01*
X137895296Y-95464761D02*
X138133391Y-95464761D01*
X138133391Y-95464761D02*
X138228629Y-95417142D01*
X138228629Y-95417142D02*
X138276248Y-95369523D01*
X138276248Y-95369523D02*
X138323867Y-95274285D01*
X138323867Y-95274285D02*
X138323867Y-95083809D01*
X138323867Y-95083809D02*
X138276248Y-94988571D01*
X138276248Y-94988571D02*
X138228629Y-94940952D01*
X138228629Y-94940952D02*
X138133391Y-94893333D01*
X170628333Y-123184819D02*
X170295000Y-122708628D01*
X170056905Y-123184819D02*
X170056905Y-122184819D01*
X170056905Y-122184819D02*
X170437857Y-122184819D01*
X170437857Y-122184819D02*
X170533095Y-122232438D01*
X170533095Y-122232438D02*
X170580714Y-122280057D01*
X170580714Y-122280057D02*
X170628333Y-122375295D01*
X170628333Y-122375295D02*
X170628333Y-122518152D01*
X170628333Y-122518152D02*
X170580714Y-122613390D01*
X170580714Y-122613390D02*
X170533095Y-122661009D01*
X170533095Y-122661009D02*
X170437857Y-122708628D01*
X170437857Y-122708628D02*
X170056905Y-122708628D01*
X171580714Y-123184819D02*
X171009286Y-123184819D01*
X171295000Y-123184819D02*
X171295000Y-122184819D01*
X171295000Y-122184819D02*
X171199762Y-122327676D01*
X171199762Y-122327676D02*
X171104524Y-122422914D01*
X171104524Y-122422914D02*
X171009286Y-122470533D01*
D11*
%TO.C,R11*%
X198127742Y-144617500D02*
X198602258Y-144617500D01*
X198127742Y-145662500D02*
X198602258Y-145662500D01*
%TO.C,J10*%
X131874999Y-111960002D02*
X131874999Y-113210002D01*
X132164999Y-112250002D02*
X132164999Y-118220002D01*
X132164999Y-118220002D02*
X144784999Y-118220002D01*
X132174999Y-112260002D02*
X132174999Y-113010002D01*
X132174999Y-113010002D02*
X133974999Y-113010002D01*
X132174999Y-114510002D02*
X132924999Y-114510002D01*
X132924999Y-114510002D02*
X132924999Y-117460002D01*
X132924999Y-117460002D02*
X138474999Y-117460002D01*
X133124999Y-111960002D02*
X131874999Y-111960002D01*
X133974999Y-112260002D02*
X132174999Y-112260002D01*
X133974999Y-113010002D02*
X133974999Y-112260002D01*
X135474999Y-112260002D02*
X135474999Y-113010002D01*
X135474999Y-113010002D02*
X141474999Y-113010002D01*
X141474999Y-112260002D02*
X135474999Y-112260002D01*
X141474999Y-113010002D02*
X141474999Y-112260002D01*
X142974999Y-112260002D02*
X142974999Y-113010002D01*
X142974999Y-113010002D02*
X144774999Y-113010002D01*
X144024999Y-114510002D02*
X144024999Y-117460002D01*
X144024999Y-117460002D02*
X138474999Y-117460002D01*
X144774999Y-112260002D02*
X142974999Y-112260002D01*
X144774999Y-113010002D02*
X144774999Y-112260002D01*
X144774999Y-114510002D02*
X144024999Y-114510002D01*
X144784999Y-112250002D02*
X132164999Y-112250002D01*
X144784999Y-118220002D02*
X144784999Y-112250002D01*
%TO.C,RV4*%
X220160000Y-120465000D02*
X225230000Y-120465000D01*
X220160000Y-130235000D02*
X220160000Y-120465000D01*
X220160000Y-130235000D02*
X225230000Y-130235000D01*
X225230000Y-130235000D02*
X225230000Y-120465000D01*
%TO.C,R9*%
X197777742Y-150477500D02*
X198252258Y-150477500D01*
X197777742Y-151522500D02*
X198252258Y-151522500D01*
%TO.C,SW1*%
X201219000Y-149272500D02*
X201219000Y-150415500D01*
X201219000Y-149272500D02*
X207823000Y-149272500D01*
X201219000Y-152828500D02*
X201219000Y-151685500D01*
X207823000Y-149272500D02*
X207823000Y-150415500D01*
X207823000Y-151685501D02*
X207823000Y-152828501D01*
X207823000Y-152828501D02*
X201219000Y-152828500D01*
D10*
%TO.C,U2*%
X151925001Y-145710000D02*
X147774999Y-145710000D01*
X151925001Y-150860000D02*
X147774999Y-150860000D01*
D11*
X152590000Y-151115000D02*
X152110000Y-151115000D01*
X152350000Y-150785000D01*
X152590000Y-151115000D01*
G36*
X152590000Y-151115000D02*
G01*
X152110000Y-151115000D01*
X152350000Y-150785000D01*
X152590000Y-151115000D01*
G37*
%TO.C,C3*%
X155930000Y-149624419D02*
X155930000Y-149905581D01*
X156950000Y-149624419D02*
X156950000Y-149905581D01*
%TO.C,C2*%
X158830000Y-149544419D02*
X158830000Y-149825581D01*
X159850000Y-149544419D02*
X159850000Y-149825581D01*
%TO.C,PSW1*%
X160535000Y-144664999D02*
X174505000Y-144664999D01*
X160535000Y-153555001D02*
X160535000Y-144664999D01*
X164345000Y-149110000D02*
X165615001Y-145935000D01*
X165615001Y-145935000D02*
X169424999Y-145935000D01*
X165615001Y-152285000D02*
X164345000Y-149110000D01*
X169424999Y-145935000D02*
X170695000Y-149110000D01*
X169424999Y-152285000D02*
X165615001Y-152285000D01*
X170695000Y-149110000D02*
X169424999Y-152285000D01*
X174505000Y-144664999D02*
X174505000Y-153555001D01*
X174505000Y-153555001D02*
X160535000Y-153555001D01*
X171222654Y-149110000D02*
G75*
G02*
X163817346Y-149110000I-3702654J0D01*
G01*
X163817346Y-149110000D02*
G75*
G02*
X171222654Y-149110000I3702654J0D01*
G01*
%TO.C,RV1*%
X220200000Y-130795000D02*
X225270000Y-130795000D01*
X220200000Y-140565000D02*
X220200000Y-130795000D01*
X220200000Y-140565000D02*
X225270000Y-140565000D01*
X225270000Y-140565000D02*
X225270000Y-130795000D01*
%TO.C,RV5*%
X220040000Y-109535000D02*
X225110000Y-109535000D01*
X220040000Y-119305000D02*
X220040000Y-109535000D01*
X220040000Y-119305000D02*
X225110000Y-119305000D01*
X225110000Y-119305000D02*
X225110000Y-109535000D01*
%TO.C,J13*%
X130890000Y-67560000D02*
X130890000Y-68810000D01*
X131180000Y-67850000D02*
X131180000Y-73820000D01*
X131180000Y-73820000D02*
X143800000Y-73820000D01*
X131190000Y-67860000D02*
X131190000Y-68610000D01*
X131190000Y-68610000D02*
X132989999Y-68610000D01*
X131190000Y-70110000D02*
X131940000Y-70110000D01*
X131940000Y-70110000D02*
X131940000Y-73060000D01*
X131940000Y-73060000D02*
X137490000Y-73060000D01*
X132140000Y-67560000D02*
X130890000Y-67560000D01*
X132989999Y-68610000D02*
X132990000Y-67859999D01*
X132990000Y-67859999D02*
X131190000Y-67860000D01*
X134490000Y-67859999D02*
X134490001Y-68610000D01*
X134490001Y-68610000D02*
X140490000Y-68610000D01*
X140490000Y-67860000D02*
X134490000Y-67859999D01*
X140490000Y-68610000D02*
X140490000Y-67860000D01*
X141989999Y-68610000D02*
X143790000Y-68610000D01*
X141990000Y-67859999D02*
X141989999Y-68610000D01*
X143040000Y-70110001D02*
X143040000Y-73060000D01*
X143040000Y-73060000D02*
X137490000Y-73060000D01*
X143790000Y-67860000D02*
X141990000Y-67859999D01*
X143790000Y-68610000D02*
X143790000Y-67860000D01*
X143790000Y-70110000D02*
X143040000Y-70110001D01*
X143800000Y-67850000D02*
X131180000Y-67850000D01*
X143800000Y-73820000D02*
X143800000Y-67850000D01*
%TO.C,C6*%
X144205581Y-147140000D02*
X143924419Y-147140000D01*
X144205581Y-148160000D02*
X143924419Y-148160000D01*
%TO.C,J18*%
X156350000Y-56260000D02*
X157680000Y-56260000D01*
X156350000Y-57590000D02*
X156350000Y-56260000D01*
X156350000Y-58860000D02*
X156350000Y-64000000D01*
X156350000Y-58860000D02*
X158950000Y-58860000D01*
X156350000Y-64000000D02*
X161550000Y-64000000D01*
X158950000Y-56260000D02*
X161550000Y-56260000D01*
X158950000Y-58860000D02*
X158950000Y-56260000D01*
X161550000Y-56260000D02*
X161550000Y-64000000D01*
%TO.C,R5*%
X146087742Y-139357500D02*
X146562258Y-139357500D01*
X146087742Y-140402500D02*
X146562258Y-140402500D01*
%TO.C,J2*%
X141280000Y-131389999D02*
X141280000Y-126250001D01*
X141280000Y-133990000D02*
X141280000Y-132660000D01*
X142610000Y-133990000D02*
X141280000Y-133990000D01*
X143880000Y-131390000D02*
X141280000Y-131389999D01*
X143880001Y-133990000D02*
X143880000Y-131390000D01*
X146480000Y-126250000D02*
X141280000Y-126250001D01*
X146480000Y-133990000D02*
X143880001Y-133990000D01*
X146480000Y-133990000D02*
X146480000Y-126250000D01*
%TO.C,J1*%
X160479999Y-132639999D02*
X160479999Y-135299999D01*
X178319999Y-132639999D02*
X160479999Y-132639999D01*
X178319999Y-132639999D02*
X178319999Y-135299999D01*
X178319999Y-135299999D02*
X160479999Y-135299999D01*
X180920000Y-133969999D02*
X180920000Y-135299999D01*
X180920000Y-135299999D02*
X179590000Y-135299999D01*
%TO.C,J12*%
X197960000Y-60000000D02*
X197960000Y-58670000D01*
X199290000Y-60000000D02*
X197960000Y-60000000D01*
X200560001Y-57340000D02*
X215859999Y-57340000D01*
X200560001Y-60000000D02*
X200560001Y-57340000D01*
X200560001Y-60000000D02*
X215859999Y-60000000D01*
X215859999Y-60000000D02*
X215859999Y-57340000D01*
%TO.C,J6*%
X131220000Y-75570000D02*
X131220000Y-88190000D01*
X131220000Y-88190000D02*
X137190000Y-88190000D01*
X131980000Y-76330000D02*
X131980000Y-81880000D01*
X131980000Y-87430000D02*
X131980000Y-81880000D01*
X134929999Y-87430000D02*
X131980000Y-87430000D01*
X134930000Y-75580000D02*
X134930000Y-76330000D01*
X134930000Y-76330000D02*
X131980000Y-76330000D01*
X134930000Y-88180000D02*
X134929999Y-87430000D01*
X136430000Y-75580000D02*
X136430000Y-77379999D01*
X136430000Y-77379999D02*
X137180001Y-77380000D01*
X136430000Y-78880001D02*
X136430000Y-84880000D01*
X136430000Y-84880000D02*
X137180000Y-84880000D01*
X136430000Y-86379999D02*
X136430000Y-88180000D01*
X136430000Y-88180000D02*
X137180000Y-88180000D01*
X137180000Y-75580000D02*
X136430000Y-75580000D01*
X137180000Y-84880000D02*
X137180001Y-78880000D01*
X137180000Y-88180000D02*
X137180001Y-86380000D01*
X137180001Y-77380000D02*
X137180000Y-75580000D01*
X137180001Y-78880000D02*
X136430000Y-78880001D01*
X137180001Y-86380000D02*
X136430000Y-86379999D01*
X137190000Y-75570000D02*
X131220000Y-75570000D01*
X137190000Y-88190000D02*
X137190000Y-75570000D01*
X137480000Y-75280000D02*
X136230000Y-75280000D01*
X137480000Y-76530000D02*
X137480000Y-75280000D01*
%TO.C,J8*%
X131790000Y-103550000D02*
X131790000Y-104800000D01*
X132080000Y-103840000D02*
X132080000Y-109810000D01*
X132080000Y-109810000D02*
X144700000Y-109810000D01*
X132090000Y-103850000D02*
X132090000Y-104600000D01*
X132090000Y-104600000D02*
X133889999Y-104600000D01*
X132090000Y-106100000D02*
X132840000Y-106100000D01*
X132840000Y-106100000D02*
X132840000Y-109050000D01*
X132840000Y-109050000D02*
X138390000Y-109050000D01*
X133040000Y-103550000D02*
X131790000Y-103550000D01*
X133889999Y-104600000D02*
X133890000Y-103849999D01*
X133890000Y-103849999D02*
X132090000Y-103850000D01*
X135390000Y-103849999D02*
X135390001Y-104600000D01*
X135390001Y-104600000D02*
X141390000Y-104600000D01*
X141390000Y-103850000D02*
X135390000Y-103849999D01*
X141390000Y-104600000D02*
X141390000Y-103850000D01*
X142889999Y-104600000D02*
X144690000Y-104600000D01*
X142890000Y-103849999D02*
X142889999Y-104600000D01*
X143940000Y-106100001D02*
X143940000Y-109050000D01*
X143940000Y-109050000D02*
X138390000Y-109050000D01*
X144690000Y-103850000D02*
X142890000Y-103849999D01*
X144690000Y-104600000D02*
X144690000Y-103850000D01*
X144690000Y-106100000D02*
X143940000Y-106100001D01*
X144700000Y-103840000D02*
X132080000Y-103840000D01*
X144700000Y-109810000D02*
X144700000Y-103840000D01*
%TO.C,C5*%
X150005581Y-151820000D02*
X149724419Y-151820000D01*
X150005581Y-152840000D02*
X149724419Y-152840000D01*
%TO.C,L1*%
X134910000Y-139410000D02*
X137210000Y-139409999D01*
X134910000Y-146810000D02*
X134910000Y-139410000D01*
X137210000Y-146810001D02*
X134910000Y-146810000D01*
X140010000Y-139409999D02*
X142310000Y-139410000D01*
X142310000Y-139410000D02*
X142310000Y-146810000D01*
X142310000Y-146810000D02*
X140010000Y-146810001D01*
%TO.C,J16*%
X142200000Y-56310000D02*
X143530000Y-56310000D01*
X142200000Y-57640000D02*
X142200000Y-56310000D01*
X142200000Y-58910000D02*
X142200000Y-64050000D01*
X142200000Y-58910000D02*
X144800000Y-58910000D01*
X142200000Y-64050000D02*
X147400000Y-64050000D01*
X144800000Y-56310000D02*
X147400000Y-56310000D01*
X144800000Y-58910000D02*
X144800000Y-56310000D01*
X147400000Y-56310000D02*
X147400000Y-64050000D01*
%TO.C,C8*%
X143310000Y-139265581D02*
X143310000Y-138984419D01*
X144330000Y-139265581D02*
X144330000Y-138984419D01*
%TO.C,D1*%
X134099999Y-137430000D02*
X128699999Y-137430000D01*
X134099999Y-140730000D02*
X128699999Y-140730000D01*
X134099999Y-140730000D02*
X134099999Y-137430000D01*
%TO.C,RV2*%
X213280000Y-137545001D02*
X218350000Y-137545001D01*
X213280000Y-147315001D02*
X213280000Y-137545001D01*
X213280000Y-147315001D02*
X218350000Y-147315001D01*
X218350000Y-147315001D02*
X218350000Y-137545001D01*
%TO.C,J3*%
X150530000Y-131419999D02*
X150530000Y-126280001D01*
X150530000Y-134020000D02*
X150530000Y-132690000D01*
X151860000Y-134020000D02*
X150530000Y-134020000D01*
X153130000Y-131420000D02*
X150530000Y-131419999D01*
X153130001Y-134020000D02*
X153130000Y-131420000D01*
X155730000Y-126280000D02*
X150530000Y-126280001D01*
X155730000Y-134020000D02*
X153130001Y-134020000D01*
X155730000Y-134020000D02*
X155730000Y-126280000D01*
%TO.C,J15*%
X149670000Y-56190000D02*
X151000000Y-56190000D01*
X149670000Y-57520000D02*
X149670000Y-56190000D01*
X149670000Y-58790000D02*
X149670000Y-63930000D01*
X149670000Y-58790000D02*
X152270000Y-58790000D01*
X149670000Y-63930000D02*
X154870000Y-63930000D01*
X152270000Y-56190000D02*
X154870000Y-56190000D01*
X152270000Y-58790000D02*
X152270000Y-56190000D01*
X154870000Y-56190000D02*
X154870000Y-63930000D01*
%TO.C,J7*%
X138990000Y-89250000D02*
X138990000Y-101870000D01*
X138990000Y-101870000D02*
X144960000Y-101870000D01*
X139750000Y-90010000D02*
X139750000Y-95560000D01*
X139750000Y-101110000D02*
X139750000Y-95560000D01*
X142699999Y-101110000D02*
X139750000Y-101110000D01*
X142700000Y-89260000D02*
X142700000Y-90010000D01*
X142700000Y-90010000D02*
X139750000Y-90010000D01*
X142700000Y-101860000D02*
X142699999Y-101110000D01*
X144200000Y-89260000D02*
X144200000Y-91059999D01*
X144200000Y-91059999D02*
X144950001Y-91060000D01*
X144200000Y-92560001D02*
X144200000Y-98560000D01*
X144200000Y-98560000D02*
X144950000Y-98560000D01*
X144200000Y-100059999D02*
X144200000Y-101860000D01*
X144200000Y-101860000D02*
X144950000Y-101860000D01*
X144950000Y-89260000D02*
X144200000Y-89260000D01*
X144950000Y-98560000D02*
X144950001Y-92560000D01*
X144950000Y-101860000D02*
X144950001Y-100060000D01*
X144950001Y-91060000D02*
X144950000Y-89260000D01*
X144950001Y-92560000D02*
X144200000Y-92560001D01*
X144950001Y-100060000D02*
X144200000Y-100059999D01*
X144960000Y-89250000D02*
X138990000Y-89250000D01*
X144960000Y-101870000D02*
X144960000Y-89250000D01*
X145250000Y-88960000D02*
X144000000Y-88960000D01*
X145250000Y-90210000D02*
X145250000Y-88960000D01*
D12*
%TO.C,U1*%
X149865000Y-114820000D02*
X149865000Y-76720000D01*
X151770000Y-74815000D02*
X174630000Y-74815000D01*
X151770000Y-116725000D02*
X174630000Y-116725000D01*
X158120000Y-74815000D02*
X158120000Y-83070000D01*
X158120000Y-83070000D02*
X168280000Y-83070000D01*
X168280000Y-83070000D02*
X168280000Y-74815000D01*
X176535000Y-114820000D02*
X176535000Y-76720000D01*
X149865000Y-76720000D02*
G75*
G02*
X151770000Y-74815000I1905001J-1D01*
G01*
X151770000Y-116725000D02*
G75*
G02*
X149865000Y-114820000I1J1905001D01*
G01*
X174630000Y-74815000D02*
G75*
G02*
X176535000Y-76720000I0J-1905000D01*
G01*
X176535000Y-114820000D02*
G75*
G02*
X174630000Y-116725000I-1905000J0D01*
G01*
D13*
X160025000Y-114820000D02*
G75*
G02*
X158755000Y-114820000I-635000J0D01*
G01*
X158755000Y-114820000D02*
G75*
G02*
X160025000Y-114820000I635000J0D01*
G01*
X162565000Y-114820000D02*
G75*
G02*
X161295000Y-114820000I-635000J0D01*
G01*
X161295000Y-114820000D02*
G75*
G02*
X162565000Y-114820000I635000J0D01*
G01*
X165105000Y-114820000D02*
G75*
G02*
X163835000Y-114820000I-635000J0D01*
G01*
X163835000Y-114820000D02*
G75*
G02*
X165105000Y-114820000I635000J0D01*
G01*
X167645000Y-114820000D02*
G75*
G02*
X166375000Y-114820000I-635000J0D01*
G01*
X166375000Y-114820000D02*
G75*
G02*
X167645000Y-114820000I635000J0D01*
G01*
D11*
%TO.C,J4*%
X177815000Y-144870454D02*
X177815000Y-153170454D01*
X177815000Y-153170454D02*
X190665001Y-153170455D01*
X190665001Y-144870453D02*
X177815000Y-144870454D01*
X190665001Y-153170455D02*
X193515001Y-150620454D01*
X193515001Y-147470454D02*
X190665001Y-144870453D01*
X193515001Y-150620454D02*
X193515001Y-147470454D01*
%TO.C,J23*%
X180865001Y-122654999D02*
X180865001Y-123904999D01*
X180865001Y-123904999D02*
X182115001Y-123904999D01*
X181155001Y-110994999D02*
X181155001Y-123614999D01*
X181155001Y-123614999D02*
X187125001Y-123614999D01*
X181165000Y-112804999D02*
X181915001Y-112805000D01*
X181165000Y-120304999D02*
X181915001Y-120304998D01*
X181165000Y-121804999D02*
X181165001Y-123604999D01*
X181165001Y-111004999D02*
X181165000Y-112804999D01*
X181165001Y-114304999D02*
X181165000Y-120304999D01*
X181165001Y-123604999D02*
X181915001Y-123604999D01*
X181915001Y-111004999D02*
X181165001Y-111004999D01*
X181915001Y-112805000D02*
X181915001Y-111004999D01*
X181915001Y-114304999D02*
X181165001Y-114304999D01*
X181915001Y-120304998D02*
X181915001Y-114304999D01*
X181915001Y-121805000D02*
X181165000Y-121804999D01*
X181915001Y-123604999D02*
X181915001Y-121805000D01*
X183415001Y-111004999D02*
X183415002Y-111754999D01*
X183415001Y-122854999D02*
X186365001Y-122854999D01*
X183415001Y-123604999D02*
X183415001Y-122854999D01*
X183415002Y-111754999D02*
X186365001Y-111754999D01*
X186365001Y-111754999D02*
X186365001Y-117304999D01*
X186365001Y-122854999D02*
X186365001Y-117304999D01*
X187125001Y-110994999D02*
X181155001Y-110994999D01*
X187125001Y-123614999D02*
X187125001Y-110994999D01*
%TO.C,R6*%
X146562258Y-142247500D02*
X146087742Y-142247500D01*
X146562258Y-143292500D02*
X146087742Y-143292500D01*
%TO.C,J20*%
X158510000Y-119230000D02*
X159840000Y-119230000D01*
X158510000Y-120560000D02*
X158510000Y-119230000D01*
X158510000Y-121830001D02*
X158510000Y-126969999D01*
X158510000Y-121830001D02*
X161170000Y-121830001D01*
X158510000Y-126969999D02*
X161170000Y-126969999D01*
X161170000Y-121830001D02*
X161170000Y-126969999D01*
%TO.C,R3*%
X154952500Y-145757258D02*
X154952500Y-145282742D01*
X155997500Y-145757258D02*
X155997500Y-145282742D01*
%TO.C,R7*%
X146122742Y-136737500D02*
X146597258Y-136737500D01*
X146122742Y-137782500D02*
X146597258Y-137782500D01*
%TO.C,J11*%
X181715000Y-55134999D02*
X181715000Y-61104999D01*
X181715000Y-61104999D02*
X194335000Y-61104999D01*
X181725000Y-58844999D02*
X182475000Y-58844998D01*
X181725000Y-60344999D02*
X181725000Y-61094999D01*
X181725000Y-61094999D02*
X183525000Y-61095000D01*
X182475000Y-55894999D02*
X188025000Y-55894999D01*
X182475000Y-58844998D02*
X182475000Y-55894999D01*
X183525000Y-61095000D02*
X183525001Y-60344999D01*
X183525001Y-60344999D02*
X181725000Y-60344999D01*
X185025000Y-60344999D02*
X185025000Y-61094999D01*
X185025000Y-61094999D02*
X191025000Y-61095000D01*
X191024999Y-60344999D02*
X185025000Y-60344999D01*
X191025000Y-61095000D02*
X191024999Y-60344999D01*
X192525000Y-61095000D02*
X194325000Y-61094999D01*
X192525001Y-60344999D02*
X192525000Y-61095000D01*
X193375000Y-61394999D02*
X194625000Y-61394999D01*
X193575000Y-55894999D02*
X188025000Y-55894999D01*
X193575000Y-58844999D02*
X193575000Y-55894999D01*
X194325000Y-58844999D02*
X193575000Y-58844999D01*
X194325000Y-60344999D02*
X192525001Y-60344999D01*
X194325000Y-61094999D02*
X194325000Y-60344999D01*
X194335000Y-55134999D02*
X181715000Y-55134999D01*
X194335000Y-61104999D02*
X194335000Y-55134999D01*
X194625000Y-61394999D02*
X194625000Y-60144999D01*
%TO.C,J17*%
X181650000Y-61930000D02*
X181650000Y-67900000D01*
X181650000Y-67900000D02*
X194270000Y-67900000D01*
X181660000Y-65640000D02*
X182410000Y-65639999D01*
X181660000Y-67140000D02*
X181660000Y-67890000D01*
X181660000Y-67890000D02*
X183460000Y-67890001D01*
X182410000Y-62690000D02*
X187960000Y-62690000D01*
X182410000Y-65639999D02*
X182410000Y-62690000D01*
X183460000Y-67890001D02*
X183460001Y-67140000D01*
X183460001Y-67140000D02*
X181660000Y-67140000D01*
X184960000Y-67140000D02*
X184960000Y-67890000D01*
X184960000Y-67890000D02*
X190960000Y-67890001D01*
X190959999Y-67140000D02*
X184960000Y-67140000D01*
X190960000Y-67890001D02*
X190959999Y-67140000D01*
X192460000Y-67890001D02*
X194260000Y-67890000D01*
X192460001Y-67140000D02*
X192460000Y-67890001D01*
X193310000Y-68190000D02*
X194560000Y-68190000D01*
X193510000Y-62690000D02*
X187960000Y-62690000D01*
X193510000Y-65640000D02*
X193510000Y-62690000D01*
X194260000Y-65640000D02*
X193510000Y-65640000D01*
X194260000Y-67140000D02*
X192460001Y-67140000D01*
X194260000Y-67890000D02*
X194260000Y-67140000D01*
X194270000Y-61930000D02*
X181650000Y-61930000D01*
X194270000Y-67900000D02*
X194270000Y-61930000D01*
X194560000Y-68190000D02*
X194560000Y-66940000D01*
%TO.C,SW3*%
X201264000Y-143396000D02*
X201264000Y-144539000D01*
X201264000Y-143396000D02*
X207868000Y-143396000D01*
X201264000Y-146952000D02*
X201264000Y-145809000D01*
X207868000Y-143396000D02*
X207868000Y-144539000D01*
X207868000Y-145809001D02*
X207868000Y-146952001D01*
X207868000Y-146952001D02*
X201264000Y-146952000D01*
%TO.C,RV3*%
X220020000Y-98955001D02*
X225090000Y-98955001D01*
X220020000Y-108725001D02*
X220020000Y-98955001D01*
X220020000Y-108725001D02*
X225090000Y-108725001D01*
X225090000Y-108725001D02*
X225090000Y-98955001D01*
%TO.C,J22*%
X180865001Y-109044999D02*
X180865001Y-110294999D01*
X180865001Y-110294999D02*
X182115001Y-110294999D01*
X181155001Y-97384999D02*
X181155001Y-110004999D01*
X181155001Y-110004999D02*
X187125001Y-110004999D01*
X181165000Y-99194999D02*
X181915001Y-99195000D01*
X181165000Y-106694999D02*
X181915001Y-106694998D01*
X181165000Y-108194999D02*
X181165001Y-109994999D01*
X181165001Y-97394999D02*
X181165000Y-99194999D01*
X181165001Y-100694999D02*
X181165000Y-106694999D01*
X181165001Y-109994999D02*
X181915001Y-109994999D01*
X181915001Y-97394999D02*
X181165001Y-97394999D01*
X181915001Y-99195000D02*
X181915001Y-97394999D01*
X181915001Y-100694999D02*
X181165001Y-100694999D01*
X181915001Y-106694998D02*
X181915001Y-100694999D01*
X181915001Y-108195000D02*
X181165000Y-108194999D01*
X181915001Y-109994999D02*
X181915001Y-108195000D01*
X183415001Y-97394999D02*
X183415002Y-98144999D01*
X183415001Y-109244999D02*
X186365001Y-109244999D01*
X183415001Y-109994999D02*
X183415001Y-109244999D01*
X183415002Y-98144999D02*
X186365001Y-98144999D01*
X186365001Y-98144999D02*
X186365001Y-103694999D01*
X186365001Y-109244999D02*
X186365001Y-103694999D01*
X187125001Y-97384999D02*
X181155001Y-97384999D01*
X187125001Y-110004999D02*
X187125001Y-97384999D01*
%TO.C,C9*%
X127578960Y-132730098D02*
X127578961Y-125074535D01*
X127578961Y-125074535D02*
X130428961Y-125074535D01*
X128643398Y-133794536D02*
X127578960Y-132730098D01*
X128643398Y-133794536D02*
X130428961Y-133794535D01*
X128928961Y-134534535D02*
X129928961Y-134534535D01*
X129428961Y-135034535D02*
X129428961Y-134034535D01*
X135234524Y-133794536D02*
X133448961Y-133794535D01*
X135234524Y-133794536D02*
X136298962Y-132730098D01*
X136298961Y-125074535D02*
X133448961Y-125074535D01*
X136298962Y-132730098D02*
X136298961Y-125074535D01*
%TO.C,J5*%
X139020000Y-75570000D02*
X139020000Y-88190000D01*
X139020000Y-88190000D02*
X144990000Y-88190000D01*
X139780000Y-76330000D02*
X139780000Y-81880000D01*
X139780000Y-87430000D02*
X139780000Y-81880000D01*
X142729999Y-87430000D02*
X139780000Y-87430000D01*
X142730000Y-75580000D02*
X142730000Y-76330000D01*
X142730000Y-76330000D02*
X139780000Y-76330000D01*
X142730000Y-88180000D02*
X142729999Y-87430000D01*
X144230000Y-75580000D02*
X144230000Y-77379999D01*
X144230000Y-77379999D02*
X144980001Y-77380000D01*
X144230000Y-78880001D02*
X144230000Y-84880000D01*
X144230000Y-84880000D02*
X144980000Y-84880000D01*
X144230000Y-86379999D02*
X144230000Y-88180000D01*
X144230000Y-88180000D02*
X144980000Y-88180000D01*
X144980000Y-75580000D02*
X144230000Y-75580000D01*
X144980000Y-84880000D02*
X144980001Y-78880000D01*
X144980000Y-88180000D02*
X144980001Y-86380000D01*
X144980001Y-77380000D02*
X144980000Y-75580000D01*
X144980001Y-78880000D02*
X144230000Y-78880001D01*
X144980001Y-86380000D02*
X144230000Y-86379999D01*
X144990000Y-75570000D02*
X139020000Y-75570000D01*
X144990000Y-88190000D02*
X144990000Y-75570000D01*
X145280000Y-75280000D02*
X144030000Y-75280000D01*
X145280000Y-76530000D02*
X145280000Y-75280000D01*
%TO.C,J9*%
X131190000Y-89250000D02*
X131190000Y-101870000D01*
X131190000Y-101870000D02*
X137160000Y-101870000D01*
X131950000Y-90010000D02*
X131950000Y-95560000D01*
X131950000Y-101110000D02*
X131950000Y-95560000D01*
X134899999Y-101110000D02*
X131950000Y-101110000D01*
X134900000Y-89260000D02*
X134900000Y-90010000D01*
X134900000Y-90010000D02*
X131950000Y-90010000D01*
X134900000Y-101860000D02*
X134899999Y-101110000D01*
X136400000Y-89260000D02*
X136400000Y-91059999D01*
X136400000Y-91059999D02*
X137150001Y-91060000D01*
X136400000Y-92560001D02*
X136400000Y-98560000D01*
X136400000Y-98560000D02*
X137150000Y-98560000D01*
X136400000Y-100059999D02*
X136400000Y-101860000D01*
X136400000Y-101860000D02*
X137150000Y-101860000D01*
X137150000Y-89260000D02*
X136400000Y-89260000D01*
X137150000Y-98560000D02*
X137150001Y-92560000D01*
X137150000Y-101860000D02*
X137150001Y-100060000D01*
X137150001Y-91060000D02*
X137150000Y-89260000D01*
X137150001Y-92560000D02*
X136400000Y-92560001D01*
X137150001Y-100060000D02*
X136400000Y-100059999D01*
X137160000Y-89250000D02*
X131190000Y-89250000D01*
X137160000Y-101870000D02*
X137160000Y-89250000D01*
X137450000Y-88960000D02*
X136200000Y-88960000D01*
X137450000Y-90210000D02*
X137450000Y-88960000D01*
%TO.C,R1*%
X170557742Y-123637500D02*
X171032258Y-123637500D01*
X170557742Y-124682500D02*
X171032258Y-124682500D01*
%TD*%
M02*
