%TF.GenerationSoftware,KiCad,Pcbnew,8.0.0*%
%TF.CreationDate,2026-01-09T17:06:32+08:00*%
%TF.ProjectId,STC_mainboard,5354435f-6d61-4696-9e62-6f6172642e6b,rev?*%
%TF.SameCoordinates,Original*%
%TF.FileFunction,Paste,Bot*%
%TF.FilePolarity,Positive*%
%FSLAX46Y46*%
G04 Gerber Fmt 4.6, Leading zero omitted, Abs format (unit mm)*
G04 Created by KiCad (PCBNEW 8.0.0) date 2026-01-09 17:06:32*
%MOMM*%
%LPD*%
G01*
G04 APERTURE LIST*
G04 Aperture macros list*
%AMRoundRect*
0 Rectangle with rounded corners*
0 $1 Rounding radius*
0 $2 $3 $4 $5 $6 $7 $8 $9 X,Y pos of 4 corners*
0 Add a 4 corners polygon primitive as box body*
4,1,4,$2,$3,$4,$5,$6,$7,$8,$9,$2,$3,0*
0 Add four circle primitives for the rounded corners*
1,1,$1+$1,$2,$3*
1,1,$1+$1,$4,$5*
1,1,$1+$1,$6,$7*
1,1,$1+$1,$8,$9*
0 Add four rect primitives between the rounded corners*
20,1,$1+$1,$2,$3,$4,$5,0*
20,1,$1+$1,$4,$5,$6,$7,0*
20,1,$1+$1,$6,$7,$8,$9,0*
20,1,$1+$1,$8,$9,$2,$3,0*%
G04 Aperture macros list end*
%ADD10R,2.500000X1.800000*%
%ADD11RoundRect,0.200000X0.275000X-0.200000X0.275000X0.200000X-0.275000X0.200000X-0.275000X-0.200000X0*%
%ADD12RoundRect,0.200000X-0.200000X-0.275000X0.200000X-0.275000X0.200000X0.275000X-0.200000X0.275000X0*%
%ADD13RoundRect,0.200000X0.200000X0.275000X-0.200000X0.275000X-0.200000X-0.275000X0.200000X-0.275000X0*%
%ADD14RoundRect,0.225000X-0.250000X0.225000X-0.250000X-0.225000X0.250000X-0.225000X0.250000X0.225000X0*%
%ADD15RoundRect,0.100000X0.637500X0.100000X-0.637500X0.100000X-0.637500X-0.100000X0.637500X-0.100000X0*%
%ADD16RoundRect,0.200000X0.053033X-0.335876X0.335876X-0.053033X-0.053033X0.335876X-0.335876X0.053033X0*%
%ADD17RoundRect,0.200000X0.335876X0.053033X0.053033X0.335876X-0.335876X-0.053033X-0.053033X-0.335876X0*%
%ADD18RoundRect,0.225000X0.250000X-0.225000X0.250000X0.225000X-0.250000X0.225000X-0.250000X-0.225000X0*%
%ADD19R,1.800000X2.500000*%
%ADD20RoundRect,0.225000X0.225000X0.250000X-0.225000X0.250000X-0.225000X-0.250000X0.225000X-0.250000X0*%
%ADD21RoundRect,0.225000X-0.335876X-0.017678X-0.017678X-0.335876X0.335876X0.017678X0.017678X0.335876X0*%
%ADD22RoundRect,0.200000X-0.275000X0.200000X-0.275000X-0.200000X0.275000X-0.200000X0.275000X0.200000X0*%
%ADD23RoundRect,0.200000X-0.053033X0.335876X-0.335876X0.053033X0.053033X-0.335876X0.335876X-0.053033X0*%
%ADD24RoundRect,0.200000X-0.335876X-0.053033X-0.053033X-0.335876X0.335876X0.053033X0.053033X0.335876X0*%
%ADD25RoundRect,0.225000X-0.017678X0.335876X-0.335876X0.017678X0.017678X-0.335876X0.335876X-0.017678X0*%
%ADD26RoundRect,0.225000X-0.225000X-0.250000X0.225000X-0.250000X0.225000X0.250000X-0.225000X0.250000X0*%
%ADD27RoundRect,0.225000X0.335876X0.017678X0.017678X0.335876X-0.335876X-0.017678X-0.017678X-0.335876X0*%
%ADD28RoundRect,0.225000X0.017678X-0.335876X0.335876X-0.017678X-0.017678X0.335876X-0.335876X0.017678X0*%
G04 APERTURE END LIST*
D10*
%TO.C,D4*%
X186500000Y-89640000D03*
X182500000Y-89640000D03*
%TD*%
D11*
%TO.C,R27*%
X180560000Y-86225000D03*
X180560000Y-84575000D03*
%TD*%
D12*
%TO.C,R23*%
X203030000Y-76760000D03*
X204680000Y-76760000D03*
%TD*%
D13*
%TO.C,R20*%
X208390000Y-91900000D03*
X206740000Y-91900000D03*
%TD*%
D14*
%TO.C,C1*%
X200750000Y-89530000D03*
X200750000Y-91080000D03*
%TD*%
D13*
%TO.C,R16*%
X205020000Y-91730000D03*
X203370000Y-91730000D03*
%TD*%
D14*
%TO.C,C15*%
X183560000Y-79535000D03*
X183560000Y-81085000D03*
%TD*%
D15*
%TO.C,U4*%
X198662500Y-91200000D03*
X198662500Y-91850000D03*
X198662500Y-92500000D03*
X198662500Y-93150000D03*
X198662500Y-93800000D03*
X198662500Y-94450000D03*
X198662500Y-95100000D03*
X192937500Y-95100000D03*
X192937500Y-94450000D03*
X192937500Y-93800000D03*
X192937500Y-93150000D03*
X192937500Y-92500000D03*
X192937500Y-91850000D03*
X192937500Y-91200000D03*
%TD*%
D16*
%TO.C,R13*%
X222471077Y-68983818D03*
X223637803Y-67817092D03*
%TD*%
D17*
%TO.C,R17*%
X196413363Y-64233363D03*
X195246637Y-63066637D03*
%TD*%
D18*
%TO.C,C7*%
X190660000Y-97085000D03*
X190660000Y-95535000D03*
%TD*%
D19*
%TO.C,D11*%
X202890000Y-82769998D03*
X202890000Y-86770000D03*
%TD*%
D12*
%TO.C,R22*%
X177160001Y-81920000D03*
X178810001Y-81920000D03*
%TD*%
D14*
%TO.C,C4*%
X188880000Y-89510000D03*
X188880000Y-91060000D03*
%TD*%
D12*
%TO.C,R19*%
X177030000Y-94470000D03*
X178680000Y-94470000D03*
%TD*%
D20*
%TO.C,C13*%
X205000000Y-145170000D03*
X203450000Y-145170000D03*
%TD*%
D21*
%TO.C,C16*%
X197852426Y-65342426D03*
X198948442Y-66438442D03*
%TD*%
D22*
%TO.C,R21*%
X180705000Y-80175000D03*
X180705000Y-81825000D03*
%TD*%
D19*
%TO.C,D2*%
X207130000Y-88720002D03*
X207130000Y-84720000D03*
%TD*%
%TO.C,D5*%
X202810000Y-95560000D03*
X202810000Y-99560002D03*
%TD*%
D22*
%TO.C,R14*%
X180065000Y-90245000D03*
X180065000Y-91895000D03*
%TD*%
D23*
%TO.C,R4*%
X211716982Y-61024398D03*
X210550256Y-62191124D03*
%TD*%
D24*
%TO.C,R8*%
X195815959Y-67223331D03*
X196982685Y-68390057D03*
%TD*%
D19*
%TO.C,D10*%
X198990000Y-86830001D03*
X198990000Y-82829999D03*
%TD*%
D12*
%TO.C,R28*%
X177155001Y-84340000D03*
X178805001Y-84340000D03*
%TD*%
D15*
%TO.C,U3*%
X191185000Y-81250000D03*
X191185000Y-81900000D03*
X191185000Y-82550000D03*
X191185000Y-83200000D03*
X191185000Y-83850000D03*
X191185000Y-84500000D03*
X191185000Y-85150000D03*
X185460000Y-85150000D03*
X185460000Y-84500000D03*
X185460000Y-83850000D03*
X185460000Y-83200000D03*
X185460000Y-82550000D03*
X185460000Y-81900000D03*
X185460000Y-81250000D03*
%TD*%
D25*
%TO.C,C10*%
X214008008Y-63371992D03*
X212911992Y-64468008D03*
%TD*%
D26*
%TO.C,C20*%
X202930000Y-74810000D03*
X204480000Y-74810000D03*
%TD*%
D19*
%TO.C,D8*%
X183550000Y-76900001D03*
X183550000Y-72899999D03*
%TD*%
D20*
%TO.C,C11*%
X205570000Y-151010000D03*
X204020000Y-151010000D03*
%TD*%
D10*
%TO.C,D9*%
X191190002Y-76900000D03*
X187190000Y-76900000D03*
%TD*%
D11*
%TO.C,R15*%
X180245000Y-96375000D03*
X180245000Y-94725000D03*
%TD*%
D18*
%TO.C,C19*%
X183115000Y-86835000D03*
X183115000Y-85285000D03*
%TD*%
D10*
%TO.C,D3*%
X214600000Y-88770000D03*
X210600000Y-88770000D03*
%TD*%
D12*
%TO.C,R2*%
X168911637Y-118546637D03*
X170561637Y-118546637D03*
%TD*%
D27*
%TO.C,C18*%
X198152846Y-62423170D03*
X197056830Y-61327154D03*
%TD*%
D10*
%TO.C,D7*%
X210220000Y-95810000D03*
X206220000Y-95810000D03*
%TD*%
D28*
%TO.C,C17*%
X219974989Y-66615011D03*
X221071005Y-65518995D03*
%TD*%
D12*
%TO.C,R18*%
X177010000Y-92010000D03*
X178660000Y-92010000D03*
%TD*%
D19*
%TO.C,D6*%
X194710000Y-84609999D03*
X194710000Y-88610001D03*
%TD*%
M02*
