%TF.GenerationSoftware,KiCad,Pcbnew,8.0.0*%
%TF.CreationDate,2026-01-09T17:06:32+08:00*%
%TF.ProjectId,STC_mainboard,5354435f-6d61-4696-9e62-6f6172642e6b,rev?*%
%TF.SameCoordinates,Original*%
%TF.FileFunction,Soldermask,Top*%
%TF.FilePolarity,Negative*%
%FSLAX46Y46*%
G04 Gerber Fmt 4.6, Leading zero omitted, Abs format (unit mm)*
G04 Created by KiCad (PCBNEW 8.0.0) date 2026-01-09 17:06:32*
%MOMM*%
%LPD*%
G01*
G04 APERTURE LIST*
G04 Aperture macros list*
%AMRoundRect*
0 Rectangle with rounded corners*
0 $1 Rounding radius*
0 $2 $3 $4 $5 $6 $7 $8 $9 X,Y pos of 4 corners*
0 Add a 4 corners polygon primitive as box body*
4,1,4,$2,$3,$4,$5,$6,$7,$8,$9,$2,$3,0*
0 Add four circle primitives for the rounded corners*
1,1,$1+$1,$2,$3*
1,1,$1+$1,$4,$5*
1,1,$1+$1,$6,$7*
1,1,$1+$1,$8,$9*
0 Add four rect primitives between the rounded corners*
20,1,$1+$1,$2,$3,$4,$5,0*
20,1,$1+$1,$4,$5,$6,$7,0*
20,1,$1+$1,$6,$7,$8,$9,0*
20,1,$1+$1,$8,$9,$2,$3,0*%
G04 Aperture macros list end*
%ADD10C,3.200000*%
%ADD11RoundRect,0.200000X-0.200000X-0.275000X0.200000X-0.275000X0.200000X0.275000X-0.200000X0.275000X0*%
%ADD12RoundRect,0.250000X-0.600000X-0.725000X0.600000X-0.725000X0.600000X0.725000X-0.600000X0.725000X0*%
%ADD13O,1.700000X1.950000*%
%ADD14C,1.440000*%
%ADD15R,2.160000X1.120000*%
%ADD16R,1.550000X0.600000*%
%ADD17R,2.600000X3.100000*%
%ADD18RoundRect,0.225000X-0.250000X0.225000X-0.250000X-0.225000X0.250000X-0.225000X0.250000X0.225000X0*%
%ADD19RoundRect,0.225000X0.225000X0.250000X-0.225000X0.250000X-0.225000X-0.250000X0.225000X-0.250000X0*%
%ADD20R,1.700000X1.700000*%
%ADD21O,1.700000X1.700000*%
%ADD22RoundRect,0.250000X-0.725000X0.600000X-0.725000X-0.600000X0.725000X-0.600000X0.725000X0.600000X0*%
%ADD23O,1.950000X1.700000*%
%ADD24R,2.200000X1.500000*%
%ADD25RoundRect,0.225000X0.250000X-0.225000X0.250000X0.225000X-0.250000X0.225000X-0.250000X-0.225000X0*%
%ADD26R,2.500000X1.800000*%
%ADD27C,1.500000*%
%ADD28RoundRect,1.500000X1.500000X1.500000X-1.500000X1.500000X-1.500000X-1.500000X1.500000X-1.500000X0*%
%ADD29C,6.000000*%
%ADD30RoundRect,0.250000X0.725000X-0.600000X0.725000X0.600000X-0.725000X0.600000X-0.725000X-0.600000X0*%
%ADD31RoundRect,0.200000X0.200000X0.275000X-0.200000X0.275000X-0.200000X-0.275000X0.200000X-0.275000X0*%
%ADD32RoundRect,0.200000X0.275000X-0.200000X0.275000X0.200000X-0.275000X0.200000X-0.275000X-0.200000X0*%
%ADD33RoundRect,0.250000X0.600000X0.725000X-0.600000X0.725000X-0.600000X-0.725000X0.600000X-0.725000X0*%
%ADD34RoundRect,0.250000X1.000000X-1.950000X1.000000X1.950000X-1.000000X1.950000X-1.000000X-1.950000X0*%
G04 APERTURE END LIST*
D10*
%TO.C,H1*%
X221990000Y-58770000D03*
%TD*%
D11*
%TO.C,R11*%
X197540000Y-145140000D03*
X199190000Y-145140000D03*
%TD*%
D12*
%TO.C,J10*%
X134724999Y-114710002D03*
D13*
X137224999Y-114710002D03*
X139724999Y-114710002D03*
X142224999Y-114710002D03*
%TD*%
D14*
%TO.C,RV4*%
X222690000Y-122810000D03*
X222690000Y-125350000D03*
X222690000Y-127889999D03*
%TD*%
D10*
%TO.C,H3*%
X130960000Y-149800000D03*
%TD*%
D11*
%TO.C,R9*%
X197190000Y-151000000D03*
X198840000Y-151000000D03*
%TD*%
D15*
%TO.C,SW1*%
X207886000Y-151050500D03*
X201156000Y-151050500D03*
%TD*%
D16*
%TO.C,U2*%
X152550000Y-150190000D03*
X152550000Y-148920000D03*
X152550000Y-147650000D03*
X152550000Y-146380000D03*
X147150000Y-146380000D03*
X147150000Y-147650000D03*
X147150000Y-148920000D03*
X147150000Y-150190000D03*
D17*
X149850000Y-148285000D03*
%TD*%
D18*
%TO.C,C3*%
X156440000Y-148990000D03*
X156440000Y-150540000D03*
%TD*%
%TO.C,C2*%
X159340000Y-148910000D03*
X159340000Y-150460000D03*
%TD*%
D14*
%TO.C,RV1*%
X222730000Y-133140000D03*
X222730000Y-135680000D03*
X222730000Y-138219999D03*
%TD*%
%TO.C,RV5*%
X222570000Y-111880000D03*
X222570000Y-114420000D03*
X222570000Y-116959999D03*
%TD*%
D12*
%TO.C,J13*%
X133740000Y-70310000D03*
D13*
X136240000Y-70310000D03*
X138740000Y-70310000D03*
X141240000Y-70310000D03*
%TD*%
D19*
%TO.C,C6*%
X144840000Y-147650000D03*
X143290000Y-147650000D03*
%TD*%
D20*
%TO.C,J18*%
X157680000Y-57590000D03*
D21*
X160220000Y-57590000D03*
X157680000Y-60130000D03*
X160220000Y-60130000D03*
X157680000Y-62670000D03*
X160220000Y-62670000D03*
%TD*%
D11*
%TO.C,R5*%
X145500000Y-139880000D03*
X147150000Y-139880000D03*
%TD*%
D20*
%TO.C,J2*%
X142610000Y-132660000D03*
D21*
X145150000Y-132660000D03*
X142610000Y-130120000D03*
X145150000Y-130120000D03*
X142610000Y-127580001D03*
X145150000Y-127580000D03*
%TD*%
D20*
%TO.C,J1*%
X179590000Y-133969999D03*
D21*
X177050000Y-133969999D03*
X174510001Y-133969999D03*
X171970000Y-133969999D03*
X169430000Y-133969999D03*
X166890000Y-133969999D03*
X164350000Y-133969999D03*
X161809999Y-133969999D03*
%TD*%
D20*
%TO.C,J12*%
X199290000Y-58670000D03*
D21*
X201830000Y-58670000D03*
X204369999Y-58670000D03*
X206910000Y-58670000D03*
X209450000Y-58670000D03*
X211990000Y-58670000D03*
X214530000Y-58670000D03*
%TD*%
D22*
%TO.C,J6*%
X134730000Y-78130000D03*
D23*
X134730000Y-80630000D03*
X134730000Y-83130000D03*
X134730000Y-85630000D03*
%TD*%
D12*
%TO.C,J8*%
X134640000Y-106300000D03*
D13*
X137140000Y-106300000D03*
X139640000Y-106300000D03*
X142140000Y-106300000D03*
%TD*%
D19*
%TO.C,C5*%
X150640000Y-152330000D03*
X149090000Y-152330000D03*
%TD*%
D24*
%TO.C,L1*%
X138610000Y-146310000D03*
X138610000Y-139910000D03*
%TD*%
D20*
%TO.C,J16*%
X143530000Y-57640000D03*
D21*
X146070000Y-57640000D03*
X143530000Y-60180000D03*
X146070000Y-60180000D03*
X143530000Y-62720000D03*
X146070000Y-62720000D03*
%TD*%
D25*
%TO.C,C8*%
X143820000Y-139900000D03*
X143820000Y-138350000D03*
%TD*%
D26*
%TO.C,D1*%
X132700000Y-139080000D03*
X128699998Y-139080000D03*
%TD*%
D14*
%TO.C,RV2*%
X215810000Y-139890001D03*
X215810000Y-142430001D03*
X215810000Y-144970000D03*
%TD*%
D20*
%TO.C,J3*%
X151860000Y-132690000D03*
D21*
X154400000Y-132690000D03*
X151860000Y-130150000D03*
X154400000Y-130150000D03*
X151860000Y-127610001D03*
X154400000Y-127610000D03*
%TD*%
D20*
%TO.C,J15*%
X151000000Y-57520000D03*
D21*
X153540000Y-57520000D03*
X151000000Y-60060000D03*
X153540000Y-60060000D03*
X151000000Y-62600000D03*
X153540000Y-62600000D03*
%TD*%
D22*
%TO.C,J7*%
X142500000Y-91810000D03*
D23*
X142500000Y-94310000D03*
X142500000Y-96810000D03*
X142500000Y-99310000D03*
%TD*%
D27*
%TO.C,U1*%
X151770000Y-76720000D03*
X154310000Y-76720000D03*
X151770000Y-79260000D03*
X154310000Y-79260000D03*
X151770000Y-81800000D03*
X154310000Y-81800000D03*
X151770000Y-84340000D03*
X154310000Y-84340000D03*
X151770000Y-86880000D03*
X154310000Y-86880000D03*
X151770000Y-89420000D03*
X154310000Y-89420000D03*
X151770000Y-91960000D03*
X154310000Y-91960000D03*
X151770000Y-94500000D03*
X154310000Y-94500000D03*
X151770000Y-97040000D03*
X154310000Y-97040000D03*
X151770000Y-99580000D03*
X154310000Y-99580000D03*
X151770000Y-102120000D03*
X154310000Y-102120000D03*
X151770000Y-104660000D03*
X154310000Y-104660000D03*
X151770000Y-107200000D03*
X154310000Y-107200000D03*
X151770000Y-109740000D03*
X154310000Y-109740000D03*
X151770000Y-112280000D03*
X154310000Y-112280000D03*
X151770000Y-114820000D03*
X154310000Y-114820000D03*
X172090000Y-114820000D03*
X174630000Y-114820000D03*
X172090000Y-112280000D03*
X174630000Y-112280000D03*
X172090000Y-109740000D03*
X174630000Y-109740000D03*
X172090000Y-107200000D03*
X174630000Y-107200000D03*
X172090000Y-104660000D03*
X174630000Y-104660000D03*
X172090000Y-102120000D03*
X174630000Y-102120000D03*
X172090000Y-99580000D03*
X174630000Y-99580000D03*
X172090000Y-97040000D03*
X174630000Y-97040000D03*
X172090000Y-94500000D03*
X174630000Y-94500000D03*
X172090000Y-91960000D03*
X174630000Y-91960000D03*
X172090000Y-89420000D03*
X174630000Y-89420000D03*
X172090000Y-86880000D03*
X174630000Y-86880000D03*
X172090000Y-84340000D03*
X174630000Y-84340000D03*
X172090000Y-81800000D03*
X174630000Y-81800000D03*
X172090000Y-79260000D03*
X174630000Y-79260000D03*
X172090000Y-76720000D03*
X174630000Y-76720000D03*
%TD*%
D28*
%TO.C,J4*%
X189265001Y-149020454D03*
D29*
X182065001Y-149020454D03*
%TD*%
D30*
%TO.C,J23*%
X183615001Y-121054999D03*
D23*
X183615001Y-118554999D03*
X183615001Y-116054999D03*
X183615001Y-113554999D03*
%TD*%
D31*
%TO.C,R6*%
X147150000Y-142770000D03*
X145500000Y-142770000D03*
%TD*%
D20*
%TO.C,J20*%
X159840000Y-120560000D03*
D21*
X159840000Y-123100000D03*
X159840000Y-125639999D03*
%TD*%
D32*
%TO.C,R3*%
X155475000Y-146345000D03*
X155475000Y-144695000D03*
%TD*%
D11*
%TO.C,R7*%
X145535000Y-137260000D03*
X147185000Y-137260000D03*
%TD*%
D33*
%TO.C,J11*%
X191775000Y-58644999D03*
D13*
X189275000Y-58644999D03*
X186775000Y-58644999D03*
X184275000Y-58644999D03*
%TD*%
D33*
%TO.C,J17*%
X191710000Y-65440000D03*
D13*
X189210000Y-65440000D03*
X186710000Y-65440000D03*
X184210000Y-65440000D03*
%TD*%
D15*
%TO.C,SW3*%
X207931000Y-145174000D03*
X201201000Y-145174000D03*
%TD*%
D10*
%TO.C,H2*%
X130960000Y-58770000D03*
%TD*%
D14*
%TO.C,RV3*%
X222550000Y-101300001D03*
X222550000Y-103840001D03*
X222550000Y-106380000D03*
%TD*%
D30*
%TO.C,J22*%
X183615001Y-107444999D03*
D23*
X183615001Y-104944999D03*
X183615001Y-102444999D03*
X183615001Y-99944999D03*
%TD*%
D34*
%TO.C,C9*%
X131938961Y-133134535D03*
X131938961Y-125734535D03*
%TD*%
D22*
%TO.C,J5*%
X142530000Y-78130000D03*
D23*
X142530000Y-80630000D03*
X142530000Y-83130000D03*
X142530000Y-85630000D03*
%TD*%
D22*
%TO.C,J9*%
X134700000Y-91810000D03*
D23*
X134700000Y-94310000D03*
X134700000Y-96810000D03*
X134700000Y-99310000D03*
%TD*%
D10*
%TO.C,H4*%
X221990000Y-149800000D03*
%TD*%
D11*
%TO.C,R1*%
X169970000Y-124160000D03*
X171620000Y-124160000D03*
%TD*%
M02*
