%TF.GenerationSoftware,KiCad,Pcbnew,8.0.0*%
%TF.CreationDate,2026-01-09T17:06:32+08:00*%
%TF.ProjectId,STC_mainboard,5354435f-6d61-4696-9e62-6f6172642e6b,rev?*%
%TF.SameCoordinates,Original*%
%TF.FileFunction,Soldermask,Bot*%
%TF.FilePolarity,Negative*%
%FSLAX46Y46*%
G04 Gerber Fmt 4.6, Leading zero omitted, Abs format (unit mm)*
G04 Created by KiCad (PCBNEW 8.0.0) date 2026-01-09 17:06:32*
%MOMM*%
%LPD*%
G01*
G04 APERTURE LIST*
G04 Aperture macros list*
%AMRoundRect*
0 Rectangle with rounded corners*
0 $1 Rounding radius*
0 $2 $3 $4 $5 $6 $7 $8 $9 X,Y pos of 4 corners*
0 Add a 4 corners polygon primitive as box body*
4,1,4,$2,$3,$4,$5,$6,$7,$8,$9,$2,$3,0*
0 Add four circle primitives for the rounded corners*
1,1,$1+$1,$2,$3*
1,1,$1+$1,$4,$5*
1,1,$1+$1,$6,$7*
1,1,$1+$1,$8,$9*
0 Add four rect primitives between the rounded corners*
20,1,$1+$1,$2,$3,$4,$5,0*
20,1,$1+$1,$4,$5,$6,$7,0*
20,1,$1+$1,$6,$7,$8,$9,0*
20,1,$1+$1,$8,$9,$2,$3,0*%
G04 Aperture macros list end*
%ADD10C,3.200000*%
%ADD11RoundRect,0.250000X-0.600000X-0.725000X0.600000X-0.725000X0.600000X0.725000X-0.600000X0.725000X0*%
%ADD12O,1.700000X1.950000*%
%ADD13C,1.440000*%
%ADD14R,1.700000X1.700000*%
%ADD15O,1.700000X1.700000*%
%ADD16RoundRect,0.250000X-0.725000X0.600000X-0.725000X-0.600000X0.725000X-0.600000X0.725000X0.600000X0*%
%ADD17O,1.950000X1.700000*%
%ADD18C,1.500000*%
%ADD19RoundRect,1.500000X1.500000X1.500000X-1.500000X1.500000X-1.500000X-1.500000X1.500000X-1.500000X0*%
%ADD20C,6.000000*%
%ADD21RoundRect,0.250000X0.725000X-0.600000X0.725000X0.600000X-0.725000X0.600000X-0.725000X-0.600000X0*%
%ADD22RoundRect,0.250000X0.600000X0.725000X-0.600000X0.725000X-0.600000X-0.725000X0.600000X-0.725000X0*%
%ADD23R,2.500000X1.800000*%
%ADD24RoundRect,0.200000X0.275000X-0.200000X0.275000X0.200000X-0.275000X0.200000X-0.275000X-0.200000X0*%
%ADD25RoundRect,0.200000X-0.200000X-0.275000X0.200000X-0.275000X0.200000X0.275000X-0.200000X0.275000X0*%
%ADD26RoundRect,0.200000X0.200000X0.275000X-0.200000X0.275000X-0.200000X-0.275000X0.200000X-0.275000X0*%
%ADD27RoundRect,0.225000X-0.250000X0.225000X-0.250000X-0.225000X0.250000X-0.225000X0.250000X0.225000X0*%
%ADD28RoundRect,0.100000X0.637500X0.100000X-0.637500X0.100000X-0.637500X-0.100000X0.637500X-0.100000X0*%
%ADD29RoundRect,0.200000X0.053033X-0.335876X0.335876X-0.053033X-0.053033X0.335876X-0.335876X0.053033X0*%
%ADD30RoundRect,0.200000X0.335876X0.053033X0.053033X0.335876X-0.335876X-0.053033X-0.053033X-0.335876X0*%
%ADD31RoundRect,0.225000X0.250000X-0.225000X0.250000X0.225000X-0.250000X0.225000X-0.250000X-0.225000X0*%
%ADD32R,1.800000X2.500000*%
%ADD33RoundRect,0.225000X0.225000X0.250000X-0.225000X0.250000X-0.225000X-0.250000X0.225000X-0.250000X0*%
%ADD34RoundRect,0.225000X-0.335876X-0.017678X-0.017678X-0.335876X0.335876X0.017678X0.017678X0.335876X0*%
%ADD35RoundRect,0.200000X-0.275000X0.200000X-0.275000X-0.200000X0.275000X-0.200000X0.275000X0.200000X0*%
%ADD36RoundRect,0.200000X-0.053033X0.335876X-0.335876X0.053033X0.053033X-0.335876X0.335876X-0.053033X0*%
%ADD37RoundRect,0.200000X-0.335876X-0.053033X-0.053033X-0.335876X0.335876X0.053033X0.053033X0.335876X0*%
%ADD38RoundRect,0.225000X-0.017678X0.335876X-0.335876X0.017678X0.017678X-0.335876X0.335876X-0.017678X0*%
%ADD39RoundRect,0.225000X-0.225000X-0.250000X0.225000X-0.250000X0.225000X0.250000X-0.225000X0.250000X0*%
%ADD40RoundRect,0.225000X0.335876X0.017678X0.017678X0.335876X-0.335876X-0.017678X-0.017678X-0.335876X0*%
%ADD41RoundRect,0.225000X0.017678X-0.335876X0.335876X-0.017678X-0.017678X0.335876X-0.335876X0.017678X0*%
G04 APERTURE END LIST*
D10*
%TO.C,H1*%
X221990000Y-58770000D03*
%TD*%
D11*
%TO.C,J10*%
X134724999Y-114710002D03*
D12*
X137224999Y-114710002D03*
X139724999Y-114710002D03*
X142224999Y-114710002D03*
%TD*%
D13*
%TO.C,RV4*%
X222690000Y-122810000D03*
X222690000Y-125350000D03*
X222690000Y-127889999D03*
%TD*%
D10*
%TO.C,H3*%
X130960000Y-149800000D03*
%TD*%
D13*
%TO.C,RV1*%
X222730000Y-133140000D03*
X222730000Y-135680000D03*
X222730000Y-138219999D03*
%TD*%
%TO.C,RV5*%
X222570000Y-111880000D03*
X222570000Y-114420000D03*
X222570000Y-116959999D03*
%TD*%
D11*
%TO.C,J13*%
X133740000Y-70310000D03*
D12*
X136240000Y-70310000D03*
X138740000Y-70310000D03*
X141240000Y-70310000D03*
%TD*%
D14*
%TO.C,J18*%
X157680000Y-57590000D03*
D15*
X160220000Y-57590000D03*
X157680000Y-60130000D03*
X160220000Y-60130000D03*
X157680000Y-62670000D03*
X160220000Y-62670000D03*
%TD*%
D14*
%TO.C,J2*%
X142610000Y-132660000D03*
D15*
X145150000Y-132660000D03*
X142610000Y-130120000D03*
X145150000Y-130120000D03*
X142610000Y-127580001D03*
X145150000Y-127580000D03*
%TD*%
D14*
%TO.C,J1*%
X179590000Y-133969999D03*
D15*
X177050000Y-133969999D03*
X174510001Y-133969999D03*
X171970000Y-133969999D03*
X169430000Y-133969999D03*
X166890000Y-133969999D03*
X164350000Y-133969999D03*
X161809999Y-133969999D03*
%TD*%
D14*
%TO.C,J12*%
X199290000Y-58670000D03*
D15*
X201830000Y-58670000D03*
X204369999Y-58670000D03*
X206910000Y-58670000D03*
X209450000Y-58670000D03*
X211990000Y-58670000D03*
X214530000Y-58670000D03*
%TD*%
D16*
%TO.C,J6*%
X134730000Y-78130000D03*
D17*
X134730000Y-80630000D03*
X134730000Y-83130000D03*
X134730000Y-85630000D03*
%TD*%
D11*
%TO.C,J8*%
X134640000Y-106300000D03*
D12*
X137140000Y-106300000D03*
X139640000Y-106300000D03*
X142140000Y-106300000D03*
%TD*%
D14*
%TO.C,J16*%
X143530000Y-57640000D03*
D15*
X146070000Y-57640000D03*
X143530000Y-60180000D03*
X146070000Y-60180000D03*
X143530000Y-62720000D03*
X146070000Y-62720000D03*
%TD*%
D13*
%TO.C,RV2*%
X215810000Y-139890001D03*
X215810000Y-142430001D03*
X215810000Y-144970000D03*
%TD*%
D14*
%TO.C,J3*%
X151860000Y-132690000D03*
D15*
X154400000Y-132690000D03*
X151860000Y-130150000D03*
X154400000Y-130150000D03*
X151860000Y-127610001D03*
X154400000Y-127610000D03*
%TD*%
D14*
%TO.C,J15*%
X151000000Y-57520000D03*
D15*
X153540000Y-57520000D03*
X151000000Y-60060000D03*
X153540000Y-60060000D03*
X151000000Y-62600000D03*
X153540000Y-62600000D03*
%TD*%
D16*
%TO.C,J7*%
X142500000Y-91810000D03*
D17*
X142500000Y-94310000D03*
X142500000Y-96810000D03*
X142500000Y-99310000D03*
%TD*%
D18*
%TO.C,U1*%
X151770000Y-76720000D03*
X154310000Y-76720000D03*
X151770000Y-79260000D03*
X154310000Y-79260000D03*
X151770000Y-81800000D03*
X154310000Y-81800000D03*
X151770000Y-84340000D03*
X154310000Y-84340000D03*
X151770000Y-86880000D03*
X154310000Y-86880000D03*
X151770000Y-89420000D03*
X154310000Y-89420000D03*
X151770000Y-91960000D03*
X154310000Y-91960000D03*
X151770000Y-94500000D03*
X154310000Y-94500000D03*
X151770000Y-97040000D03*
X154310000Y-97040000D03*
X151770000Y-99580000D03*
X154310000Y-99580000D03*
X151770000Y-102120000D03*
X154310000Y-102120000D03*
X151770000Y-104660000D03*
X154310000Y-104660000D03*
X151770000Y-107200000D03*
X154310000Y-107200000D03*
X151770000Y-109740000D03*
X154310000Y-109740000D03*
X151770000Y-112280000D03*
X154310000Y-112280000D03*
X151770000Y-114820000D03*
X154310000Y-114820000D03*
X172090000Y-114820000D03*
X174630000Y-114820000D03*
X172090000Y-112280000D03*
X174630000Y-112280000D03*
X172090000Y-109740000D03*
X174630000Y-109740000D03*
X172090000Y-107200000D03*
X174630000Y-107200000D03*
X172090000Y-104660000D03*
X174630000Y-104660000D03*
X172090000Y-102120000D03*
X174630000Y-102120000D03*
X172090000Y-99580000D03*
X174630000Y-99580000D03*
X172090000Y-97040000D03*
X174630000Y-97040000D03*
X172090000Y-94500000D03*
X174630000Y-94500000D03*
X172090000Y-91960000D03*
X174630000Y-91960000D03*
X172090000Y-89420000D03*
X174630000Y-89420000D03*
X172090000Y-86880000D03*
X174630000Y-86880000D03*
X172090000Y-84340000D03*
X174630000Y-84340000D03*
X172090000Y-81800000D03*
X174630000Y-81800000D03*
X172090000Y-79260000D03*
X174630000Y-79260000D03*
X172090000Y-76720000D03*
X174630000Y-76720000D03*
%TD*%
D19*
%TO.C,J4*%
X189265001Y-149020454D03*
D20*
X182065001Y-149020454D03*
%TD*%
D21*
%TO.C,J23*%
X183615001Y-121054999D03*
D17*
X183615001Y-118554999D03*
X183615001Y-116054999D03*
X183615001Y-113554999D03*
%TD*%
D14*
%TO.C,J20*%
X159840000Y-120560000D03*
D15*
X159840000Y-123100000D03*
X159840000Y-125639999D03*
%TD*%
D22*
%TO.C,J11*%
X191775000Y-58644999D03*
D12*
X189275000Y-58644999D03*
X186775000Y-58644999D03*
X184275000Y-58644999D03*
%TD*%
D22*
%TO.C,J17*%
X191710000Y-65440000D03*
D12*
X189210000Y-65440000D03*
X186710000Y-65440000D03*
X184210000Y-65440000D03*
%TD*%
D10*
%TO.C,H2*%
X130960000Y-58770000D03*
%TD*%
D13*
%TO.C,RV3*%
X222550000Y-101300001D03*
X222550000Y-103840001D03*
X222550000Y-106380000D03*
%TD*%
D21*
%TO.C,J22*%
X183615001Y-107444999D03*
D17*
X183615001Y-104944999D03*
X183615001Y-102444999D03*
X183615001Y-99944999D03*
%TD*%
D16*
%TO.C,J5*%
X142530000Y-78130000D03*
D17*
X142530000Y-80630000D03*
X142530000Y-83130000D03*
X142530000Y-85630000D03*
%TD*%
D16*
%TO.C,J9*%
X134700000Y-91810000D03*
D17*
X134700000Y-94310000D03*
X134700000Y-96810000D03*
X134700000Y-99310000D03*
%TD*%
D10*
%TO.C,H4*%
X221990000Y-149800000D03*
%TD*%
D23*
%TO.C,D4*%
X186500000Y-89640000D03*
X182500000Y-89640000D03*
%TD*%
D24*
%TO.C,R27*%
X180560000Y-86225000D03*
X180560000Y-84575000D03*
%TD*%
D25*
%TO.C,R23*%
X203030000Y-76760000D03*
X204680000Y-76760000D03*
%TD*%
D26*
%TO.C,R20*%
X208390000Y-91900000D03*
X206740000Y-91900000D03*
%TD*%
D27*
%TO.C,C1*%
X200750000Y-89530000D03*
X200750000Y-91080000D03*
%TD*%
D26*
%TO.C,R16*%
X205020000Y-91730000D03*
X203370000Y-91730000D03*
%TD*%
D27*
%TO.C,C15*%
X183560000Y-79535000D03*
X183560000Y-81085000D03*
%TD*%
D28*
%TO.C,U4*%
X198662500Y-91200000D03*
X198662500Y-91850000D03*
X198662500Y-92500000D03*
X198662500Y-93150000D03*
X198662500Y-93800000D03*
X198662500Y-94450000D03*
X198662500Y-95100000D03*
X192937500Y-95100000D03*
X192937500Y-94450000D03*
X192937500Y-93800000D03*
X192937500Y-93150000D03*
X192937500Y-92500000D03*
X192937500Y-91850000D03*
X192937500Y-91200000D03*
%TD*%
D29*
%TO.C,R13*%
X222471077Y-68983818D03*
X223637803Y-67817092D03*
%TD*%
D30*
%TO.C,R17*%
X196413363Y-64233363D03*
X195246637Y-63066637D03*
%TD*%
D31*
%TO.C,C7*%
X190660000Y-97085000D03*
X190660000Y-95535000D03*
%TD*%
D32*
%TO.C,D11*%
X202890000Y-82769998D03*
X202890000Y-86770000D03*
%TD*%
D25*
%TO.C,R22*%
X177160001Y-81920000D03*
X178810001Y-81920000D03*
%TD*%
D27*
%TO.C,C4*%
X188880000Y-89510000D03*
X188880000Y-91060000D03*
%TD*%
D25*
%TO.C,R19*%
X177030000Y-94470000D03*
X178680000Y-94470000D03*
%TD*%
D33*
%TO.C,C13*%
X205000000Y-145170000D03*
X203450000Y-145170000D03*
%TD*%
D34*
%TO.C,C16*%
X197852426Y-65342426D03*
X198948442Y-66438442D03*
%TD*%
D35*
%TO.C,R21*%
X180705000Y-80175000D03*
X180705000Y-81825000D03*
%TD*%
D32*
%TO.C,D2*%
X207130000Y-88720002D03*
X207130000Y-84720000D03*
%TD*%
%TO.C,D5*%
X202810000Y-95560000D03*
X202810000Y-99560002D03*
%TD*%
D35*
%TO.C,R14*%
X180065000Y-90245000D03*
X180065000Y-91895000D03*
%TD*%
D36*
%TO.C,R4*%
X211716982Y-61024398D03*
X210550256Y-62191124D03*
%TD*%
D37*
%TO.C,R8*%
X195815959Y-67223331D03*
X196982685Y-68390057D03*
%TD*%
D32*
%TO.C,D10*%
X198990000Y-86830001D03*
X198990000Y-82829999D03*
%TD*%
D25*
%TO.C,R28*%
X177155001Y-84340000D03*
X178805001Y-84340000D03*
%TD*%
D28*
%TO.C,U3*%
X191185000Y-81250000D03*
X191185000Y-81900000D03*
X191185000Y-82550000D03*
X191185000Y-83200000D03*
X191185000Y-83850000D03*
X191185000Y-84500000D03*
X191185000Y-85150000D03*
X185460000Y-85150000D03*
X185460000Y-84500000D03*
X185460000Y-83850000D03*
X185460000Y-83200000D03*
X185460000Y-82550000D03*
X185460000Y-81900000D03*
X185460000Y-81250000D03*
%TD*%
D38*
%TO.C,C10*%
X214008008Y-63371992D03*
X212911992Y-64468008D03*
%TD*%
D39*
%TO.C,C20*%
X202930000Y-74810000D03*
X204480000Y-74810000D03*
%TD*%
D32*
%TO.C,D8*%
X183550000Y-76900001D03*
X183550000Y-72899999D03*
%TD*%
D33*
%TO.C,C11*%
X205570000Y-151010000D03*
X204020000Y-151010000D03*
%TD*%
D23*
%TO.C,D9*%
X191190002Y-76900000D03*
X187190000Y-76900000D03*
%TD*%
D24*
%TO.C,R15*%
X180245000Y-96375000D03*
X180245000Y-94725000D03*
%TD*%
D31*
%TO.C,C19*%
X183115000Y-86835000D03*
X183115000Y-85285000D03*
%TD*%
D23*
%TO.C,D3*%
X214600000Y-88770000D03*
X210600000Y-88770000D03*
%TD*%
D25*
%TO.C,R2*%
X168911637Y-118546637D03*
X170561637Y-118546637D03*
%TD*%
D40*
%TO.C,C18*%
X198152846Y-62423170D03*
X197056830Y-61327154D03*
%TD*%
D23*
%TO.C,D7*%
X210220000Y-95810000D03*
X206220000Y-95810000D03*
%TD*%
D41*
%TO.C,C17*%
X219974989Y-66615011D03*
X221071005Y-65518995D03*
%TD*%
D25*
%TO.C,R18*%
X177010000Y-92010000D03*
X178660000Y-92010000D03*
%TD*%
D32*
%TO.C,D6*%
X194710000Y-84609999D03*
X194710000Y-88610001D03*
%TD*%
M02*
