%TF.GenerationSoftware,KiCad,Pcbnew,8.0.0*%
%TF.CreationDate,2026-01-09T17:06:32+08:00*%
%TF.ProjectId,STC_mainboard,5354435f-6d61-4696-9e62-6f6172642e6b,rev?*%
%TF.SameCoordinates,Original*%
%TF.FileFunction,Paste,Top*%
%TF.FilePolarity,Positive*%
%FSLAX46Y46*%
G04 Gerber Fmt 4.6, Leading zero omitted, Abs format (unit mm)*
G04 Created by KiCad (PCBNEW 8.0.0) date 2026-01-09 17:06:32*
%MOMM*%
%LPD*%
G01*
G04 APERTURE LIST*
G04 Aperture macros list*
%AMRoundRect*
0 Rectangle with rounded corners*
0 $1 Rounding radius*
0 $2 $3 $4 $5 $6 $7 $8 $9 X,Y pos of 4 corners*
0 Add a 4 corners polygon primitive as box body*
4,1,4,$2,$3,$4,$5,$6,$7,$8,$9,$2,$3,0*
0 Add four circle primitives for the rounded corners*
1,1,$1+$1,$2,$3*
1,1,$1+$1,$4,$5*
1,1,$1+$1,$6,$7*
1,1,$1+$1,$8,$9*
0 Add four rect primitives between the rounded corners*
20,1,$1+$1,$2,$3,$4,$5,0*
20,1,$1+$1,$4,$5,$6,$7,0*
20,1,$1+$1,$6,$7,$8,$9,0*
20,1,$1+$1,$8,$9,$2,$3,0*%
G04 Aperture macros list end*
%ADD10RoundRect,0.200000X-0.200000X-0.275000X0.200000X-0.275000X0.200000X0.275000X-0.200000X0.275000X0*%
%ADD11R,2.160000X1.120000*%
%ADD12R,1.550000X0.600000*%
%ADD13R,2.600000X3.100000*%
%ADD14RoundRect,0.225000X-0.250000X0.225000X-0.250000X-0.225000X0.250000X-0.225000X0.250000X0.225000X0*%
%ADD15RoundRect,0.225000X0.225000X0.250000X-0.225000X0.250000X-0.225000X-0.250000X0.225000X-0.250000X0*%
%ADD16R,2.200000X1.500000*%
%ADD17RoundRect,0.225000X0.250000X-0.225000X0.250000X0.225000X-0.250000X0.225000X-0.250000X-0.225000X0*%
%ADD18R,2.500000X1.800000*%
%ADD19RoundRect,0.200000X0.200000X0.275000X-0.200000X0.275000X-0.200000X-0.275000X0.200000X-0.275000X0*%
%ADD20RoundRect,0.200000X0.275000X-0.200000X0.275000X0.200000X-0.275000X0.200000X-0.275000X-0.200000X0*%
%ADD21RoundRect,0.250000X1.000000X-1.950000X1.000000X1.950000X-1.000000X1.950000X-1.000000X-1.950000X0*%
G04 APERTURE END LIST*
D10*
%TO.C,R11*%
X197540000Y-145140000D03*
X199190000Y-145140000D03*
%TD*%
%TO.C,R9*%
X197190000Y-151000000D03*
X198840000Y-151000000D03*
%TD*%
D11*
%TO.C,SW1*%
X207886000Y-151050500D03*
X201156000Y-151050500D03*
%TD*%
D12*
%TO.C,U2*%
X152550000Y-150190000D03*
X152550000Y-148920000D03*
X152550000Y-147650000D03*
X152550000Y-146380000D03*
X147150000Y-146380000D03*
X147150000Y-147650000D03*
X147150000Y-148920000D03*
X147150000Y-150190000D03*
D13*
X149850000Y-148285000D03*
%TD*%
D14*
%TO.C,C3*%
X156440000Y-148990000D03*
X156440000Y-150540000D03*
%TD*%
%TO.C,C2*%
X159340000Y-148910000D03*
X159340000Y-150460000D03*
%TD*%
D15*
%TO.C,C6*%
X144840000Y-147650000D03*
X143290000Y-147650000D03*
%TD*%
D10*
%TO.C,R5*%
X145500000Y-139880000D03*
X147150000Y-139880000D03*
%TD*%
D15*
%TO.C,C5*%
X150640000Y-152330000D03*
X149090000Y-152330000D03*
%TD*%
D16*
%TO.C,L1*%
X138610000Y-146310000D03*
X138610000Y-139910000D03*
%TD*%
D17*
%TO.C,C8*%
X143820000Y-139900000D03*
X143820000Y-138350000D03*
%TD*%
D18*
%TO.C,D1*%
X132700000Y-139080000D03*
X128699998Y-139080000D03*
%TD*%
D19*
%TO.C,R6*%
X147150000Y-142770000D03*
X145500000Y-142770000D03*
%TD*%
D20*
%TO.C,R3*%
X155475000Y-146345000D03*
X155475000Y-144695000D03*
%TD*%
D10*
%TO.C,R7*%
X145535000Y-137260000D03*
X147185000Y-137260000D03*
%TD*%
D11*
%TO.C,SW3*%
X207931000Y-145174000D03*
X201201000Y-145174000D03*
%TD*%
D21*
%TO.C,C9*%
X131938961Y-133134535D03*
X131938961Y-125734535D03*
%TD*%
D10*
%TO.C,R1*%
X169970000Y-124160000D03*
X171620000Y-124160000D03*
%TD*%
M02*
