M48
; DRILL file {KiCad 8.0.0} date 2026-01-09T17:06:34+0800
; FORMAT={-:-/ absolute / inch / decimal}
; #@! TF.CreationDate,2026-01-09T17:06:34+08:00
; #@! TF.GenerationSoftware,Kicad,Pcbnew,8.0.0
; #@! TF.FileFunction,Plated,1,2,PTH
FMAT,2
INCH
; #@! TA.AperFunction,Plated,PTH,ComponentDrill
T1C0.0118
; #@! TA.AperFunction,Plated,PTH,ViaDrill
T2C0.0120
; #@! TA.AperFunction,Plated,PTH,ComponentDrill
T3C0.0315
; #@! TA.AperFunction,Plated,PTH,ComponentDrill
T4C0.0354
; #@! TA.AperFunction,Plated,PTH,ComponentDrill
T5C0.0374
; #@! TA.AperFunction,Plated,PTH,ComponentDrill
T6C0.0394
; #@! TA.AperFunction,Plated,PTH,ComponentDrill
T7C0.1772
%
G90
G05
T1
X5.876Y-5.7671
X5.876Y-5.8104
X5.876Y-5.8616
X5.876Y-5.9089
X5.9232Y-5.7671
X5.9232Y-5.8104
X5.9232Y-5.8616
X5.9232Y-5.9089
T2
X5.0287Y-5.3803
X5.0331Y-5.2303
X5.0484Y-5.0618
X5.0835Y-4.4906
X5.0835Y-4.6921
X5.0854Y-5.3795
X5.0886Y-5.2374
X5.0988Y-5.1079
X5.4638Y-4.7488
X5.5701Y-5.4433
X5.6067Y-5.4185
X5.6217Y-5.85
X5.6921Y-5.6535
X5.698Y-5.8673
X5.7004Y-5.7043
X5.7402Y-5.685
X5.8102Y-4.4295
X5.8909Y-2.7114
X6.1331Y-5.6555
X6.1516Y-5.9732
X6.178Y-5.6917
X6.2138Y-5.9311
X6.2205Y-5.6598
X6.2339Y-5.9752
X6.2941Y-2.7181
X6.3051Y-3.1
X6.3346Y-3.5689
X6.4272Y-2.6579
X6.4787Y-2.8213
X6.5744Y-3.5705
X6.6012Y-3.3181
X6.6016Y-2.7461
X6.6268Y-4.7791
X6.6815Y-2.5811
X6.6925Y-3.0591
X6.9417Y-3.448
X6.9472Y-3.4043
X6.9909Y-3.4059
X7.3236Y-3.7791
X7.3587Y-3.1988
X7.3929Y-3.224
X7.4732Y-3.2232
X7.5102Y-3.5587
X7.5299Y-3.6673
X7.5898Y-3.2776
X7.5965Y-3.1193
X7.6614Y-3.7394
X7.6877Y-3.674
X7.7087Y-3.239
X7.7142Y-3.7917
X7.7366Y-3.7614
X7.776Y-3.6705
X7.8201Y-2.7406
X7.9768Y-5.7138
X7.9783Y-5.9453
X8.0972Y-3.6579
X8.111Y-2.5484
X8.2417Y-3.0528
X8.2421Y-2.9154
X8.2453Y-5.9205
X8.2496Y-3.6807
X8.252Y-5.9618
X8.2535Y-5.7323
X8.2602Y-2.5602
X8.2669Y-5.6984
X8.5591Y-2.8453
X8.6925Y-2.85
T3
X8.4965Y-5.5075
X8.4965Y-5.6075
X8.4965Y-5.7075
X8.7618Y-3.9882
X8.7618Y-4.0882
X8.7618Y-4.1882
X8.7626Y-4.4047
X8.7626Y-4.5047
X8.7626Y-4.6047
X8.7673Y-4.835
X8.7673Y-4.935
X8.7673Y-5.035
X8.7689Y-5.2417
X8.7689Y-5.3417
X8.7689Y-5.4417
T4
X5.9752Y-3.0205
X5.9752Y-3.1205
X5.9752Y-3.2205
X5.9752Y-3.3205
X5.9752Y-3.4205
X5.9752Y-3.5205
X5.9752Y-3.6205
X5.9752Y-3.7205
X5.9752Y-3.8205
X5.9752Y-3.9205
X5.9752Y-4.0205
X5.9752Y-4.1205
X5.9752Y-4.2205
X5.9752Y-4.3205
X5.9752Y-4.4205
X5.9752Y-4.5205
X6.0752Y-3.0205
X6.0752Y-3.1205
X6.0752Y-3.2205
X6.0752Y-3.3205
X6.0752Y-3.4205
X6.0752Y-3.5205
X6.0752Y-3.6205
X6.0752Y-3.7205
X6.0752Y-3.8205
X6.0752Y-3.9205
X6.0752Y-4.0205
X6.0752Y-4.1205
X6.0752Y-4.2205
X6.0752Y-4.3205
X6.0752Y-4.4205
X6.0752Y-4.5205
X6.7752Y-3.0205
X6.7752Y-3.1205
X6.7752Y-3.2205
X6.7752Y-3.3205
X6.7752Y-3.4205
X6.7752Y-3.5205
X6.7752Y-3.6205
X6.7752Y-3.7205
X6.7752Y-3.8205
X6.7752Y-3.9205
X6.7752Y-4.0205
X6.7752Y-4.1205
X6.7752Y-4.2205
X6.7752Y-4.3205
X6.7752Y-4.4205
X6.7752Y-4.5205
X6.8752Y-3.0205
X6.8752Y-3.1205
X6.8752Y-3.2205
X6.8752Y-3.3205
X6.8752Y-3.4205
X6.8752Y-3.5205
X6.8752Y-3.6205
X6.8752Y-3.7205
X6.8752Y-3.8205
X6.8752Y-3.9205
X6.8752Y-4.0205
X6.8752Y-4.1205
X6.8752Y-4.2205
X6.8752Y-4.3205
X6.8752Y-4.4205
X6.8752Y-4.5205
T5
X5.2654Y-2.7681
X5.3008Y-4.185
X5.3031Y-3.6146
X5.3031Y-3.713
X5.3031Y-3.8114
X5.3031Y-3.9098
X5.3041Y-4.5161
X5.3043Y-3.076
X5.3043Y-3.1744
X5.3043Y-3.2728
X5.3043Y-3.3713
X5.3638Y-2.7681
X5.3992Y-4.185
X5.4026Y-4.5161
X5.4622Y-2.7681
X5.4976Y-4.185
X5.501Y-4.5161
X5.5606Y-2.7681
X5.5961Y-4.185
X5.5994Y-4.5161
X5.6102Y-3.6146
X5.6102Y-3.713
X5.6102Y-3.8114
X5.6102Y-3.9098
X5.6114Y-3.076
X5.6114Y-3.1744
X5.6114Y-3.2728
X5.6114Y-3.3713
X7.2289Y-3.9348
X7.2289Y-4.0333
X7.2289Y-4.1317
X7.2289Y-4.2301
X7.2289Y-4.4707
X7.2289Y-4.5691
X7.2289Y-4.6675
X7.2289Y-4.7659
X7.2524Y-2.5764
X7.2549Y-2.3089
X7.3508Y-2.5764
X7.3533Y-2.3089
X7.4492Y-2.5764
X7.4518Y-2.3089
X7.5476Y-2.5764
X7.5502Y-2.3089
T6
X5.6146Y-5.0228
X5.6146Y-5.1228
X5.6146Y-5.2228
X5.6508Y-2.2693
X5.6508Y-2.3693
X5.6508Y-2.4693
X5.7146Y-5.0228
X5.7146Y-5.1228
X5.7146Y-5.2228
X5.7508Y-2.2693
X5.7508Y-2.3693
X5.7508Y-2.4693
X5.9449Y-2.2646
X5.9449Y-2.3646
X5.9449Y-2.4646
X5.9787Y-5.024
X5.9787Y-5.124
X5.9787Y-5.224
X6.0449Y-2.2646
X6.0449Y-2.3646
X6.0449Y-2.4646
X6.0787Y-5.024
X6.0787Y-5.124
X6.0787Y-5.224
X6.2079Y-2.2673
X6.2079Y-2.3673
X6.2079Y-2.4673
X6.2929Y-4.7465
X6.2929Y-4.8465
X6.2929Y-4.9465
X6.3079Y-2.2673
X6.3079Y-2.3673
X6.3079Y-2.4673
X6.3705Y-5.2744
X6.4705Y-5.2744
X6.5705Y-5.2744
X6.6705Y-5.2744
X6.7705Y-5.2744
X6.8705Y-5.2744
X6.9705Y-5.2744
X7.0705Y-5.2744
X7.8461Y-2.3098
X7.9461Y-2.3098
X8.0461Y-2.3098
X8.1461Y-2.3098
X8.2461Y-2.3098
X8.3461Y-2.3098
X8.4461Y-2.3098
T7
X7.1679Y-5.8669
X7.4514Y-5.8669
T6
G00X6.4201Y-5.8449
M15
G01X6.4201Y-5.8961
M16
G05
G00X6.5953Y-5.8449
M15
G01X6.5953Y-5.8961
M16
G05
G00X6.7705Y-5.8449
M15
G01X6.7705Y-5.8961
M16
G05
M30
