M48
; DRILL file KiCad 10.0.1 date 2026-06-23T01:02:24
; FORMAT={-:-/ absolute / metric / decimal}
; #@! TF.CreationDate,2026-06-23T01:02:24+08:00
; #@! TF.GenerationSoftware,Kicad,Pcbnew,10.0.1
; #@! TF.FileFunction,Plated,1,2,PTH
FMAT,2
METRIC
; #@! TA.AperFunction,Plated,PTH,ComponentDrill
T1C0.300
; #@! TA.AperFunction,Plated,PTH,ViaDrill
T2C0.305
; #@! TA.AperFunction,Plated,PTH,ComponentDrill
T3C0.800
; #@! TA.AperFunction,Plated,PTH,ComponentDrill
T4C0.900
; #@! TA.AperFunction,Plated,PTH,ComponentDrill
T5C0.950
; #@! TA.AperFunction,Plated,PTH,ComponentDrill
T6C1.000
; #@! TA.AperFunction,Plated,PTH,ComponentDrill
T7C1.500
; #@! TA.AperFunction,Plated,PTH,ComponentDrill
T8C2.700
%
G90
G05
T1
X117.79Y-131.89
X117.79Y-132.99
X117.79Y-134.29
X117.79Y-135.49
X118.99Y-131.89
X118.99Y-132.99
X118.99Y-134.29
X118.99Y-135.49
T2
X48.41Y-174.03
X48.92Y-181.93
X50.46Y-176.24
X50.51Y-179.64
X54.96Y-191.81
X55.31Y-189.04
X55.33Y-195.83
X56.95Y-191.44
X57.12Y-129.88
X57.46Y-184.46
X57.49Y-188.93
X57.79Y-134.67
X57.95Y-182.3
X58.83Y-195.88
X59.37Y-182.09
X59.45Y-184.57
X59.51Y-176.7
X60.64Y-188.88
X60.8Y-192.62
X60.94Y-184.51
X60.94Y-196.12
X61.37Y-174.9
X62.39Y-184.46
X62.9Y-174.71
X63.98Y-184.57
X64.11Y-183.01
X79.35Y-192.25
X79.39Y-194.3
X79.7Y-189.63
X79.91Y-128.49
X79.91Y-134.12
X83.0Y-140.12
X83.38Y-191.89
X83.72Y-194.69
X84.38Y-189.52
X85.29Y-151.98
X85.51Y-149.34
X85.54Y-146.97
X87.85Y-191.86
X88.28Y-140.25
X88.45Y-147.13
X88.58Y-149.04
X88.82Y-128.31
X88.96Y-194.69
X91.17Y-146.89
X92.02Y-196.11
X94.7Y-139.82
X96.73Y-187.4
X98.82Y-133.64
X103.23Y-131.35
X112.34Y-148.97
X112.64Y-152.49
X112.64Y-166.19
X113.43Y-155.7
X113.73Y-162.91
X113.79Y-159.16
X114.66Y-181.925
X114.66Y-189.55
X115.55Y-149.22
X117.55Y-150.19
X117.67Y-153.4
X117.79Y-155.82
X119.19Y-168.13
X119.43Y-163.58
X120.04Y-152.25
X120.28Y-154.97
X120.64Y-160.31
X124.7Y-155.16
X124.89Y-152.37
X126.64Y-129.7
X126.64Y-164.31
X127.19Y-169.04
X128.34Y-159.22
X130.16Y-133.7
X132.22Y-129.52
X134.28Y-171.28
X134.52Y-133.4
X137.49Y-129.15
X140.46Y-132.0
X142.1Y-153.34
X143.86Y-170.85
X144.77Y-143.16
X145.13Y-147.16
X146.4Y-153.16
T3
X58.92Y-173.14
X61.46Y-173.14
X64.0Y-173.14
X69.55Y-173.07
X72.09Y-173.07
X73.36Y-147.46
X73.36Y-150.0
X73.36Y-152.54
X74.63Y-173.07
X80.76Y-147.46
X80.76Y-150.0
X80.76Y-152.54
X115.33Y-174.15
X117.87Y-174.15
X120.41Y-174.15
T4
X70.8Y-180.73
X70.8Y-183.27
X70.8Y-201.05
X70.8Y-203.59
X73.34Y-183.27
X73.34Y-201.05
X73.34Y-180.73
X73.34Y-203.59
X75.88Y-180.73
X75.88Y-183.27
X75.88Y-201.05
X75.88Y-203.59
X78.42Y-180.73
X78.42Y-183.27
X78.42Y-201.05
X78.42Y-203.59
X80.96Y-180.73
X80.96Y-183.27
X80.96Y-201.05
X80.96Y-203.59
X83.5Y-180.73
X83.5Y-203.59
X83.5Y-183.27
X83.5Y-201.05
X86.04Y-180.73
X86.04Y-183.27
X86.04Y-201.05
X86.04Y-203.59
X88.58Y-180.73
X88.58Y-183.27
X88.58Y-201.05
X88.58Y-203.59
X91.12Y-180.73
X91.12Y-183.27
X91.12Y-201.05
X91.12Y-203.59
X93.66Y-180.73
X93.66Y-183.27
X93.66Y-201.05
X93.66Y-203.59
X96.2Y-183.27
X96.2Y-201.05
X96.2Y-180.73
X96.2Y-203.59
X98.74Y-180.73
X98.74Y-183.27
X98.74Y-201.05
X98.74Y-203.59
X101.28Y-180.73
X101.28Y-183.27
X101.28Y-201.05
X101.28Y-203.59
X103.82Y-180.73
X103.82Y-183.27
X103.82Y-201.05
X103.82Y-203.59
X106.36Y-180.73
X106.36Y-203.59
X106.36Y-183.27
X106.36Y-201.05
X108.9Y-180.73
X108.9Y-183.27
X108.9Y-201.05
X108.9Y-203.59
T5
X58.31Y-201.73
X60.81Y-201.73
X63.31Y-201.73
X65.81Y-201.73
X135.885Y-193.29
X135.885Y-195.79
X135.885Y-198.29
X135.885Y-200.79
T6
X52.85Y-197.04
X58.8Y-192.099
X61.62Y-130.535
X63.94Y-130.605
X67.9Y-152.44
X69.64Y-130.475
X71.91Y-130.475
X75.88Y-156.37
X80.69Y-126.44
X82.05Y-172.33
X88.83Y-170.31
X91.73Y-187.35
X94.14Y-176.79
X101.89Y-172.51
X132.94Y-139.27
X135.44Y-139.38
T7
X120.41Y-147.11
X120.41Y-149.11
X124.98Y-147.04
X124.98Y-149.04
X129.31Y-147.25
X129.31Y-149.25
T8
X120.98Y-142.29
X125.98Y-142.29
M30
