%TF.GenerationSoftware,KiCad,Pcbnew,10.0.1*%
%TF.CreationDate,2026-06-23T01:02:18+08:00*%
%TF.ProjectId,STC_mainboard,5354435f-6d61-4696-9e62-6f6172642e6b,rev?*%
%TF.SameCoordinates,Original*%
%TF.FileFunction,Soldermask,Top*%
%TF.FilePolarity,Negative*%
%FSLAX46Y46*%
G04 Gerber Fmt 4.6, Leading zero omitted, Abs format (unit mm)*
G04 Created by KiCad (PCBNEW 10.0.1) date 2026-06-23 01:02:18*
%MOMM*%
%LPD*%
G01*
G04 APERTURE LIST*
G04 Aperture macros list*
%AMRoundRect*
0 Rectangle with rounded corners*
0 $1 Rounding radius*
0 $2 $3 $4 $5 $6 $7 $8 $9 X,Y pos of 4 corners*
0 Add a 4 corners polygon primitive as box body*
4,1,4,$2,$3,$4,$5,$6,$7,$8,$9,$2,$3,0*
0 Add four circle primitives for the rounded corners*
1,1,$1+$1,$2,$3*
1,1,$1+$1,$4,$5*
1,1,$1+$1,$6,$7*
1,1,$1+$1,$8,$9*
0 Add four rect primitives between the rounded corners*
20,1,$1+$1,$2,$3,$4,$5,0*
20,1,$1+$1,$4,$5,$6,$7,0*
20,1,$1+$1,$6,$7,$8,$9,0*
20,1,$1+$1,$8,$9,$2,$3,0*%
G04 Aperture macros list end*
%ADD10RoundRect,0.225000X-0.250000X0.225000X-0.250000X-0.225000X0.250000X-0.225000X0.250000X0.225000X0*%
%ADD11RoundRect,0.317500X0.952500X-0.317500X0.952500X0.317500X-0.952500X0.317500X-0.952500X-0.317500X0*%
%ADD12R,1.800000X2.500000*%
%ADD13R,1.550000X0.600000*%
%ADD14R,2.600000X3.100000*%
%ADD15RoundRect,0.150000X0.150000X-0.825000X0.150000X0.825000X-0.150000X0.825000X-0.150000X-0.825000X0*%
%ADD16R,3.000000X2.290000*%
%ADD17RoundRect,0.225000X0.225000X0.250000X-0.225000X0.250000X-0.225000X-0.250000X0.225000X-0.250000X0*%
%ADD18RoundRect,0.317500X0.317500X0.952500X-0.317500X0.952500X-0.317500X-0.952500X0.317500X-0.952500X0*%
%ADD19R,2.160000X1.120000*%
%ADD20C,2.200000*%
%ADD21RoundRect,0.225000X0.250000X-0.225000X0.250000X0.225000X-0.250000X0.225000X-0.250000X-0.225000X0*%
%ADD22RoundRect,0.317500X-0.952500X0.317500X-0.952500X-0.317500X0.952500X-0.317500X0.952500X0.317500X0*%
%ADD23RoundRect,0.170000X0.680000X0.680000X-0.680000X0.680000X-0.680000X-0.680000X0.680000X-0.680000X0*%
%ADD24RoundRect,0.317500X-0.317500X-0.952500X0.317500X-0.952500X0.317500X0.952500X-0.317500X0.952500X0*%
%ADD25C,1.440000*%
%ADD26RoundRect,0.250000X-0.600000X-0.725000X0.600000X-0.725000X0.600000X0.725000X-0.600000X0.725000X0*%
%ADD27O,1.700000X1.950000*%
%ADD28RoundRect,0.125000X-0.125000X-0.125000X0.125000X-0.125000X0.125000X0.125000X-0.125000X0.125000X0*%
%ADD29RoundRect,0.200000X0.275000X-0.200000X0.275000X0.200000X-0.275000X0.200000X-0.275000X-0.200000X0*%
%ADD30RoundRect,0.225000X-0.225000X-0.250000X0.225000X-0.250000X0.225000X0.250000X-0.225000X0.250000X0*%
%ADD31R,2.200000X1.500000*%
%ADD32RoundRect,0.150000X0.150000X0.700000X-0.150000X0.700000X-0.150000X-0.700000X0.150000X-0.700000X0*%
%ADD33RoundRect,0.250000X0.250000X1.150000X-0.250000X1.150000X-0.250000X-1.150000X0.250000X-1.150000X0*%
%ADD34R,5.400000X2.900000*%
%ADD35RoundRect,0.200000X-0.200000X-0.275000X0.200000X-0.275000X0.200000X0.275000X-0.200000X0.275000X0*%
%ADD36RoundRect,0.250000X-0.725000X0.600000X-0.725000X-0.600000X0.725000X-0.600000X0.725000X0.600000X0*%
%ADD37O,1.950000X1.700000*%
%ADD38R,0.576580X0.351536*%
%ADD39R,0.351536X0.576580*%
%ADD40C,1.500000*%
%ADD41RoundRect,0.170000X-0.680000X-0.680000X0.680000X-0.680000X0.680000X0.680000X-0.680000X0.680000X0*%
%ADD42RoundRect,0.250000X0.550000X-1.050000X0.550000X1.050000X-0.550000X1.050000X-0.550000X-1.050000X0*%
%ADD43RoundRect,0.760000X1.140000X1.140000X-1.140000X1.140000X-1.140000X-1.140000X1.140000X-1.140000X0*%
%ADD44C,3.800000*%
G04 APERTURE END LIST*
D10*
%TO.C,C6*%
X124950000Y-134285000D03*
X124950000Y-135835000D03*
%TD*%
D11*
%TO.C,J8*%
X88830000Y-170310000D03*
%TD*%
D12*
%TO.C,D1*%
X113260000Y-139760000D03*
X113260000Y-143760000D03*
%TD*%
D13*
%TO.C,U10*%
X121090000Y-135595000D03*
X121090000Y-134325000D03*
X121090000Y-133055000D03*
X121090000Y-131785000D03*
X115690000Y-131785000D03*
X115690000Y-133055000D03*
X115690000Y-134325000D03*
X115690000Y-135595000D03*
D14*
X118390000Y-133690000D03*
%TD*%
D15*
%TO.C,U2*%
X69490000Y-138205000D03*
X70760000Y-138205000D03*
X72030000Y-138205000D03*
X73300000Y-138205000D03*
X73300000Y-133255000D03*
X72030000Y-133255000D03*
X70760000Y-133255000D03*
X69490000Y-133255000D03*
D16*
X71395000Y-135730000D03*
%TD*%
D17*
%TO.C,C7*%
X119050000Y-137890000D03*
X117500000Y-137890000D03*
%TD*%
D18*
%TO.C,J24*%
X71910000Y-130475000D03*
%TD*%
D10*
%TO.C,C5*%
X123090000Y-134350000D03*
X123090000Y-135900000D03*
%TD*%
D19*
%TO.C,SW1*%
X121390000Y-189550000D03*
X114660000Y-189550000D03*
%TD*%
D20*
%TO.C,H1*%
X99340000Y-123250000D03*
%TD*%
D21*
%TO.C,C1*%
X98120000Y-187390000D03*
X98120000Y-185840000D03*
%TD*%
D19*
%TO.C,SW3*%
X121390000Y-181925000D03*
X114660000Y-181925000D03*
%TD*%
D22*
%TO.C,J15*%
X80690000Y-126440000D03*
%TD*%
D15*
%TO.C,U8*%
X61620000Y-138305000D03*
X62890000Y-138305000D03*
X64160000Y-138305000D03*
X65430000Y-138305000D03*
X65430000Y-133355000D03*
X64160000Y-133355000D03*
X62890000Y-133355000D03*
X61620000Y-133355000D03*
D16*
X63525000Y-135830000D03*
%TD*%
D23*
%TO.C,111*%
X120410000Y-149110000D03*
X120410000Y-147110000D03*
%TD*%
D18*
%TO.C,J2*%
X94140000Y-176790000D03*
%TD*%
D24*
%TO.C,J14*%
X67900000Y-152440000D03*
%TD*%
D25*
%TO.C,RV2*%
X80760000Y-147460001D03*
X80760000Y-150000001D03*
X80760000Y-152540000D03*
%TD*%
D26*
%TO.C,J1*%
X58310000Y-201730000D03*
D27*
X60810000Y-201730000D03*
X63310000Y-201730000D03*
X65810000Y-201730000D03*
%TD*%
D28*
%TO.C,D2*%
X73345000Y-143220000D03*
X75545000Y-143220000D03*
%TD*%
D18*
%TO.C,J20*%
X132940000Y-139270000D03*
%TD*%
D28*
%TO.C,D21*%
X65560000Y-143435000D03*
X67760000Y-143435000D03*
%TD*%
D25*
%TO.C,RV4*%
X58919998Y-173140000D03*
X61459998Y-173140000D03*
X63999997Y-173140000D03*
%TD*%
%TO.C,RV5*%
X120410000Y-174150000D03*
X117870000Y-174150000D03*
X115330000Y-174150000D03*
%TD*%
%TO.C,RV1*%
X73360000Y-147460001D03*
X73360000Y-150000001D03*
X73360000Y-152540000D03*
%TD*%
D18*
%TO.C,J7*%
X61620000Y-130535000D03*
%TD*%
D29*
%TO.C,R3*%
X113870000Y-131590000D03*
X113870000Y-129940000D03*
%TD*%
D11*
%TO.C,J3*%
X75880000Y-156370000D03*
%TD*%
D30*
%TO.C,C52*%
X65450000Y-131095000D03*
X67000000Y-131095000D03*
%TD*%
D24*
%TO.C,J5*%
X58800000Y-192099320D03*
%TD*%
D23*
%TO.C,1*%
X129310000Y-149250000D03*
X129310000Y-147250000D03*
%TD*%
D31*
%TO.C,L1*%
X107330000Y-140540000D03*
X107330000Y-134140000D03*
%TD*%
D32*
%TO.C,J4*%
X118335000Y-199230000D03*
X117085000Y-199230000D03*
X115835000Y-199230000D03*
X114585000Y-199230000D03*
D33*
X120185000Y-202580000D03*
X112735000Y-202580000D03*
%TD*%
D34*
%TO.C,B1*%
X80170000Y-186910000D03*
X80170000Y-196910000D03*
%TD*%
D18*
%TO.C,J21*%
X135440000Y-139380000D03*
%TD*%
D30*
%TO.C,C4*%
X99600000Y-187460000D03*
X101150000Y-187460000D03*
%TD*%
D35*
%TO.C,R2*%
X110610000Y-131500000D03*
X112260000Y-131500000D03*
%TD*%
D18*
%TO.C,J11*%
X63940000Y-130605000D03*
%TD*%
D36*
%TO.C,J10*%
X135885000Y-193290000D03*
D37*
X135885000Y-195790000D03*
X135885000Y-198290000D03*
X135885000Y-200790000D03*
%TD*%
D32*
%TO.C,J9*%
X128235000Y-199230000D03*
X126985000Y-199230000D03*
X125735000Y-199230000D03*
X124485000Y-199230000D03*
D33*
X130085000Y-202580000D03*
X122635000Y-202580000D03*
%TD*%
D22*
%TO.C,J12*%
X91730000Y-187350000D03*
%TD*%
D28*
%TO.C,D22*%
X136835000Y-152105000D03*
X139035000Y-152105000D03*
%TD*%
D15*
%TO.C,U9*%
X132895000Y-147105000D03*
X134165000Y-147105000D03*
X135435000Y-147105000D03*
X136705000Y-147105000D03*
X136705000Y-142155000D03*
X135435000Y-142155000D03*
X134165000Y-142155000D03*
X132895000Y-142155000D03*
D16*
X134800000Y-144630000D03*
%TD*%
D38*
%TO.C,U3*%
X100588400Y-190635783D03*
X100588400Y-190135782D03*
X100588400Y-189635782D03*
X100588400Y-189135781D03*
D39*
X99878099Y-188929482D03*
X99378100Y-188929482D03*
X98878101Y-188929482D03*
D38*
X98167800Y-189135781D03*
X98167800Y-189635782D03*
X98167800Y-190135782D03*
X98167800Y-190635783D03*
D39*
X98878101Y-190842082D03*
X99378100Y-190842082D03*
X99878099Y-190842082D03*
%TD*%
D35*
%TO.C,R5*%
X73485000Y-141080000D03*
X75135000Y-141080000D03*
%TD*%
%TO.C,R59*%
X65615000Y-141360000D03*
X67265000Y-141360000D03*
%TD*%
D40*
%TO.C,U1*%
X70800000Y-203590000D03*
X70800000Y-201050000D03*
X73340001Y-203590000D03*
X73340000Y-201050000D03*
X75880000Y-203590000D03*
X75880000Y-201050000D03*
X78420000Y-203590000D03*
X78420000Y-201050000D03*
X80960000Y-203590000D03*
X80960000Y-201050000D03*
X83499999Y-203590000D03*
X83500000Y-201050000D03*
X86040000Y-203590000D03*
X86040000Y-201050000D03*
X88580000Y-203590000D03*
X88580000Y-201050000D03*
X91120000Y-203590000D03*
X91120000Y-201050000D03*
X93660000Y-203590000D03*
X93660000Y-201050000D03*
X96200001Y-203590000D03*
X96200000Y-201050000D03*
X98740000Y-203590000D03*
X98740000Y-201050000D03*
X101280000Y-203590000D03*
X101280000Y-201050000D03*
X103820000Y-203590000D03*
X103820000Y-201050000D03*
X106359999Y-203590000D03*
X106360000Y-201050000D03*
X108900000Y-203590000D03*
X108900000Y-201050000D03*
X108900000Y-183270000D03*
X108900000Y-180730000D03*
X106360000Y-183270000D03*
X106359999Y-180730000D03*
X103820000Y-183270000D03*
X103820000Y-180730000D03*
X101280000Y-183270000D03*
X101280000Y-180730000D03*
X98740000Y-183270000D03*
X98740000Y-180730000D03*
X96200000Y-183270000D03*
X96200001Y-180730000D03*
X93660000Y-183270000D03*
X93660000Y-180730000D03*
X91120000Y-183270000D03*
X91120000Y-180730000D03*
X88580000Y-183270000D03*
X88580000Y-180730000D03*
X86040000Y-183270000D03*
X86040000Y-180730000D03*
X83500000Y-183270000D03*
X83499999Y-180730000D03*
X80960000Y-183270000D03*
X80960000Y-180730000D03*
X78420000Y-183270000D03*
X78420000Y-180730000D03*
X75880000Y-183270000D03*
X75880000Y-180730000D03*
X73340000Y-183270000D03*
X73340001Y-180730000D03*
X70800000Y-183270000D03*
X70800000Y-180730000D03*
%TD*%
D18*
%TO.C,J23*%
X69640000Y-130475000D03*
%TD*%
D30*
%TO.C,C2*%
X137120000Y-139780000D03*
X138670000Y-139780000D03*
%TD*%
D29*
%TO.C,R1*%
X123170000Y-131715000D03*
X123170000Y-130065000D03*
%TD*%
D41*
%TO.C,11*%
X124980000Y-147040000D03*
X124980000Y-149040000D03*
%TD*%
D21*
%TO.C,C9*%
X103230000Y-131350000D03*
X103230000Y-129800000D03*
%TD*%
D22*
%TO.C,J15*%
X82050000Y-172330000D03*
%TD*%
%TO.C,J16*%
X101890000Y-172510000D03*
%TD*%
D25*
%TO.C,RV3*%
X74630000Y-173069998D03*
X72090000Y-173069998D03*
X69550001Y-173069998D03*
%TD*%
D18*
%TO.C,J6*%
X52850000Y-197040000D03*
%TD*%
D42*
%TO.C,C10*%
X107250000Y-131310000D03*
X107250000Y-127710000D03*
%TD*%
D35*
%TO.C,R60*%
X136895000Y-150105000D03*
X138545000Y-150105000D03*
%TD*%
D30*
%TO.C,C51*%
X73530000Y-131155000D03*
X75080000Y-131155000D03*
%TD*%
D17*
%TO.C,C8*%
X113870000Y-133040000D03*
X112320000Y-133040000D03*
%TD*%
D43*
%TO.C,J13*%
X125980000Y-142290000D03*
D44*
X120980000Y-142290000D03*
%TD*%
M02*
