%TF.GenerationSoftware,KiCad,Pcbnew,10.0.1*%
%TF.CreationDate,2026-06-23T01:02:18+08:00*%
%TF.ProjectId,STC_mainboard,5354435f-6d61-4696-9e62-6f6172642e6b,rev?*%
%TF.SameCoordinates,Original*%
%TF.FileFunction,Paste,Top*%
%TF.FilePolarity,Positive*%
%FSLAX46Y46*%
G04 Gerber Fmt 4.6, Leading zero omitted, Abs format (unit mm)*
G04 Created by KiCad (PCBNEW 10.0.1) date 2026-06-23 01:02:18*
%MOMM*%
%LPD*%
G01*
G04 APERTURE LIST*
G04 Aperture macros list*
%AMRoundRect*
0 Rectangle with rounded corners*
0 $1 Rounding radius*
0 $2 $3 $4 $5 $6 $7 $8 $9 X,Y pos of 4 corners*
0 Add a 4 corners polygon primitive as box body*
4,1,4,$2,$3,$4,$5,$6,$7,$8,$9,$2,$3,0*
0 Add four circle primitives for the rounded corners*
1,1,$1+$1,$2,$3*
1,1,$1+$1,$4,$5*
1,1,$1+$1,$6,$7*
1,1,$1+$1,$8,$9*
0 Add four rect primitives between the rounded corners*
20,1,$1+$1,$2,$3,$4,$5,0*
20,1,$1+$1,$4,$5,$6,$7,0*
20,1,$1+$1,$6,$7,$8,$9,0*
20,1,$1+$1,$8,$9,$2,$3,0*%
G04 Aperture macros list end*
%ADD10RoundRect,0.225000X-0.250000X0.225000X-0.250000X-0.225000X0.250000X-0.225000X0.250000X0.225000X0*%
%ADD11R,1.800000X2.500000*%
%ADD12R,1.550000X0.600000*%
%ADD13R,2.600000X3.100000*%
%ADD14RoundRect,0.230000X0.375000X-0.230000X0.375000X0.230000X-0.375000X0.230000X-0.375000X-0.230000X0*%
%ADD15RoundRect,0.150000X0.150000X-0.825000X0.150000X0.825000X-0.150000X0.825000X-0.150000X-0.825000X0*%
%ADD16RoundRect,0.225000X0.225000X0.250000X-0.225000X0.250000X-0.225000X-0.250000X0.225000X-0.250000X0*%
%ADD17R,2.160000X1.120000*%
%ADD18RoundRect,0.225000X0.250000X-0.225000X0.250000X0.225000X-0.250000X0.225000X-0.250000X-0.225000X0*%
%ADD19RoundRect,0.125000X-0.125000X-0.125000X0.125000X-0.125000X0.125000X0.125000X-0.125000X0.125000X0*%
%ADD20RoundRect,0.200000X0.275000X-0.200000X0.275000X0.200000X-0.275000X0.200000X-0.275000X-0.200000X0*%
%ADD21RoundRect,0.225000X-0.225000X-0.250000X0.225000X-0.250000X0.225000X0.250000X-0.225000X0.250000X0*%
%ADD22R,2.200000X1.500000*%
%ADD23RoundRect,0.150000X0.150000X0.700000X-0.150000X0.700000X-0.150000X-0.700000X0.150000X-0.700000X0*%
%ADD24RoundRect,0.250000X0.250000X1.150000X-0.250000X1.150000X-0.250000X-1.150000X0.250000X-1.150000X0*%
%ADD25R,5.400000X2.900000*%
%ADD26RoundRect,0.200000X-0.200000X-0.275000X0.200000X-0.275000X0.200000X0.275000X-0.200000X0.275000X0*%
%ADD27R,0.576580X0.351536*%
%ADD28R,0.351536X0.576580*%
%ADD29RoundRect,0.250000X0.550000X-1.050000X0.550000X1.050000X-0.550000X1.050000X-0.550000X-1.050000X0*%
G04 APERTURE END LIST*
D10*
%TO.C,C6*%
X124950000Y-134285000D03*
X124950000Y-135835000D03*
%TD*%
D11*
%TO.C,D1*%
X113260000Y-139760000D03*
X113260000Y-143760000D03*
%TD*%
D12*
%TO.C,U10*%
X121090000Y-135595000D03*
X121090000Y-134325000D03*
X121090000Y-133055000D03*
X121090000Y-131785000D03*
X115690000Y-131785000D03*
X115690000Y-133055000D03*
X115690000Y-134325000D03*
X115690000Y-135595000D03*
D13*
X118390000Y-133690000D03*
%TD*%
D14*
%TO.C,U2*%
X70645000Y-136300000D03*
X72145000Y-136300000D03*
X70645000Y-135160000D03*
X72145000Y-135160000D03*
D15*
X69490000Y-138205000D03*
X70760000Y-138205000D03*
X72030000Y-138205000D03*
X73300000Y-138205000D03*
X73300000Y-133255000D03*
X72030000Y-133255000D03*
X70760000Y-133255000D03*
X69490000Y-133255000D03*
%TD*%
D16*
%TO.C,C7*%
X119050000Y-137890000D03*
X117500000Y-137890000D03*
%TD*%
D10*
%TO.C,C5*%
X123090000Y-134350000D03*
X123090000Y-135900000D03*
%TD*%
D17*
%TO.C,SW1*%
X121390000Y-189550000D03*
X114660000Y-189550000D03*
%TD*%
D18*
%TO.C,C1*%
X98120000Y-187390000D03*
X98120000Y-185840000D03*
%TD*%
D17*
%TO.C,SW3*%
X121390000Y-181925000D03*
X114660000Y-181925000D03*
%TD*%
D14*
%TO.C,U8*%
X62775000Y-136400000D03*
X64275000Y-136400000D03*
X62775000Y-135260000D03*
X64275000Y-135260000D03*
D15*
X61620000Y-138305000D03*
X62890000Y-138305000D03*
X64160000Y-138305000D03*
X65430000Y-138305000D03*
X65430000Y-133355000D03*
X64160000Y-133355000D03*
X62890000Y-133355000D03*
X61620000Y-133355000D03*
%TD*%
D19*
%TO.C,D2*%
X73345000Y-143220000D03*
X75545000Y-143220000D03*
%TD*%
%TO.C,D21*%
X65560000Y-143435000D03*
X67760000Y-143435000D03*
%TD*%
D20*
%TO.C,R3*%
X113870000Y-131590000D03*
X113870000Y-129940000D03*
%TD*%
D21*
%TO.C,C52*%
X65450000Y-131095000D03*
X67000000Y-131095000D03*
%TD*%
D22*
%TO.C,L1*%
X107330000Y-140540000D03*
X107330000Y-134140000D03*
%TD*%
D23*
%TO.C,J4*%
X118335000Y-199230000D03*
X117085000Y-199230000D03*
X115835000Y-199230000D03*
X114585000Y-199230000D03*
D24*
X120185000Y-202580000D03*
X112735000Y-202580000D03*
%TD*%
D25*
%TO.C,B1*%
X80170000Y-186910000D03*
X80170000Y-196910000D03*
%TD*%
D21*
%TO.C,C4*%
X99600000Y-187460000D03*
X101150000Y-187460000D03*
%TD*%
D26*
%TO.C,R2*%
X110610000Y-131500000D03*
X112260000Y-131500000D03*
%TD*%
D23*
%TO.C,J9*%
X128235000Y-199230000D03*
X126985000Y-199230000D03*
X125735000Y-199230000D03*
X124485000Y-199230000D03*
D24*
X130085000Y-202580000D03*
X122635000Y-202580000D03*
%TD*%
D19*
%TO.C,D22*%
X136835000Y-152105000D03*
X139035000Y-152105000D03*
%TD*%
D14*
%TO.C,U9*%
X134050000Y-145200000D03*
X135550000Y-145200000D03*
X134050000Y-144060000D03*
X135550000Y-144060000D03*
D15*
X132895000Y-147105000D03*
X134165000Y-147105000D03*
X135435000Y-147105000D03*
X136705000Y-147105000D03*
X136705000Y-142155000D03*
X135435000Y-142155000D03*
X134165000Y-142155000D03*
X132895000Y-142155000D03*
%TD*%
D27*
%TO.C,U3*%
X100588400Y-190635783D03*
X100588400Y-190135782D03*
X100588400Y-189635782D03*
X100588400Y-189135781D03*
D28*
X99878099Y-188929482D03*
X99378100Y-188929482D03*
X98878101Y-188929482D03*
D27*
X98167800Y-189135781D03*
X98167800Y-189635782D03*
X98167800Y-190135782D03*
X98167800Y-190635783D03*
D28*
X98878101Y-190842082D03*
X99378100Y-190842082D03*
X99878099Y-190842082D03*
%TD*%
D26*
%TO.C,R5*%
X73485000Y-141080000D03*
X75135000Y-141080000D03*
%TD*%
%TO.C,R59*%
X65615000Y-141360000D03*
X67265000Y-141360000D03*
%TD*%
D21*
%TO.C,C2*%
X137120000Y-139780000D03*
X138670000Y-139780000D03*
%TD*%
D20*
%TO.C,R1*%
X123170000Y-131715000D03*
X123170000Y-130065000D03*
%TD*%
D18*
%TO.C,C9*%
X103230000Y-131350000D03*
X103230000Y-129800000D03*
%TD*%
D29*
%TO.C,C10*%
X107250000Y-131310000D03*
X107250000Y-127710000D03*
%TD*%
D26*
%TO.C,R60*%
X136895000Y-150105000D03*
X138545000Y-150105000D03*
%TD*%
D21*
%TO.C,C51*%
X73530000Y-131155000D03*
X75080000Y-131155000D03*
%TD*%
D16*
%TO.C,C8*%
X113870000Y-133040000D03*
X112320000Y-133040000D03*
%TD*%
M02*
