%TF.GenerationSoftware,KiCad,Pcbnew,10.0.1*%
%TF.CreationDate,2026-06-23T01:02:18+08:00*%
%TF.ProjectId,STC_mainboard,5354435f-6d61-4696-9e62-6f6172642e6b,rev?*%
%TF.SameCoordinates,Original*%
%TF.FileFunction,Paste,Bot*%
%TF.FilePolarity,Positive*%
%FSLAX46Y46*%
G04 Gerber Fmt 4.6, Leading zero omitted, Abs format (unit mm)*
G04 Created by KiCad (PCBNEW 10.0.1) date 2026-06-23 01:02:18*
%MOMM*%
%LPD*%
G01*
G04 APERTURE LIST*
G04 Aperture macros list*
%AMRoundRect*
0 Rectangle with rounded corners*
0 $1 Rounding radius*
0 $2 $3 $4 $5 $6 $7 $8 $9 X,Y pos of 4 corners*
0 Add a 4 corners polygon primitive as box body*
4,1,4,$2,$3,$4,$5,$6,$7,$8,$9,$2,$3,0*
0 Add four circle primitives for the rounded corners*
1,1,$1+$1,$2,$3*
1,1,$1+$1,$4,$5*
1,1,$1+$1,$6,$7*
1,1,$1+$1,$8,$9*
0 Add four rect primitives between the rounded corners*
20,1,$1+$1,$2,$3,$4,$5,0*
20,1,$1+$1,$4,$5,$6,$7,0*
20,1,$1+$1,$6,$7,$8,$9,0*
20,1,$1+$1,$8,$9,$2,$3,0*%
G04 Aperture macros list end*
%ADD10RoundRect,0.125000X0.125000X0.125000X-0.125000X0.125000X-0.125000X-0.125000X0.125000X-0.125000X0*%
%ADD11RoundRect,0.200000X0.200000X0.275000X-0.200000X0.275000X-0.200000X-0.275000X0.200000X-0.275000X0*%
%ADD12RoundRect,0.225000X0.250000X-0.225000X0.250000X0.225000X-0.250000X0.225000X-0.250000X-0.225000X0*%
%ADD13RoundRect,0.200000X-0.200000X-0.275000X0.200000X-0.275000X0.200000X0.275000X-0.200000X0.275000X0*%
%ADD14RoundRect,0.225000X0.225000X0.250000X-0.225000X0.250000X-0.225000X-0.250000X0.225000X-0.250000X0*%
%ADD15RoundRect,0.200000X0.275000X-0.200000X0.275000X0.200000X-0.275000X0.200000X-0.275000X-0.200000X0*%
%ADD16RoundRect,0.225000X-0.225000X-0.250000X0.225000X-0.250000X0.225000X0.250000X-0.225000X0.250000X0*%
%ADD17RoundRect,0.200000X-0.275000X0.200000X-0.275000X-0.200000X0.275000X-0.200000X0.275000X0.200000X0*%
%ADD18RoundRect,0.225000X-0.250000X0.225000X-0.250000X-0.225000X0.250000X-0.225000X0.250000X0.225000X0*%
%ADD19RoundRect,0.150000X-0.825000X-0.150000X0.825000X-0.150000X0.825000X0.150000X-0.825000X0.150000X0*%
%ADD20RoundRect,0.125000X-0.125000X-0.125000X0.125000X-0.125000X0.125000X0.125000X-0.125000X0.125000X0*%
%ADD21RoundRect,0.125000X-0.125000X0.125000X-0.125000X-0.125000X0.125000X-0.125000X0.125000X0.125000X0*%
%ADD22RoundRect,0.150000X0.825000X0.150000X-0.825000X0.150000X-0.825000X-0.150000X0.825000X-0.150000X0*%
%ADD23R,2.000000X1.500000*%
%ADD24R,2.000000X3.800000*%
G04 APERTURE END LIST*
D10*
%TO.C,D11*%
X52920000Y-191290000D03*
X50720000Y-191290000D03*
%TD*%
D11*
%TO.C,R23*%
X66825000Y-176850000D03*
X65175000Y-176850000D03*
%TD*%
D12*
%TO.C,C17*%
X78230000Y-158395000D03*
X78230000Y-156845000D03*
%TD*%
D13*
%TO.C,R30*%
X62125000Y-176820000D03*
X63775000Y-176820000D03*
%TD*%
D14*
%TO.C,C11*%
X118750000Y-189590000D03*
X117200000Y-189590000D03*
%TD*%
D12*
%TO.C,C16*%
X67820000Y-148620000D03*
X67820000Y-147070000D03*
%TD*%
D15*
%TO.C,R22*%
X66065000Y-181415000D03*
X66065000Y-179765000D03*
%TD*%
D16*
%TO.C,C34*%
X110930000Y-179470000D03*
X112480000Y-179470000D03*
%TD*%
D14*
%TO.C,C23*%
X91529999Y-178070000D03*
X89979999Y-178070000D03*
%TD*%
D17*
%TO.C,R18*%
X74900000Y-165820000D03*
X74900000Y-167470000D03*
%TD*%
D18*
%TO.C,C25*%
X58800000Y-188329320D03*
X58800000Y-189879320D03*
%TD*%
D13*
%TO.C,R31*%
X54290000Y-184340000D03*
X55940000Y-184340000D03*
%TD*%
%TO.C,R37*%
X101900000Y-174940000D03*
X103550000Y-174940000D03*
%TD*%
D18*
%TO.C,C21*%
X75460000Y-177380000D03*
X75460000Y-178930000D03*
%TD*%
D16*
%TO.C,C15*%
X55760000Y-144020000D03*
X57310000Y-144020000D03*
%TD*%
D19*
%TO.C,U7*%
X77105000Y-170400000D03*
X77105000Y-169130000D03*
X77105000Y-167860000D03*
X77105000Y-166590000D03*
X82055000Y-166590000D03*
X82055000Y-167860000D03*
X82055000Y-169130000D03*
X82055000Y-170400000D03*
%TD*%
D10*
%TO.C,D9*%
X58787499Y-186610000D03*
X56587501Y-186610000D03*
%TD*%
D17*
%TO.C,R12*%
X85960000Y-174840000D03*
X85960000Y-176490000D03*
%TD*%
D16*
%TO.C,C22*%
X77125000Y-178970000D03*
X78675000Y-178970000D03*
%TD*%
D10*
%TO.C,D19*%
X99910000Y-178830000D03*
X97710000Y-178830000D03*
%TD*%
D13*
%TO.C,R11*%
X75070000Y-162540000D03*
X76720000Y-162540000D03*
%TD*%
D16*
%TO.C,C26*%
X65910000Y-183000000D03*
X67460000Y-183000000D03*
%TD*%
D20*
%TO.C,D7*%
X84410001Y-170180000D03*
X86609999Y-170180000D03*
%TD*%
D14*
%TO.C,C13*%
X118840000Y-181970000D03*
X117290000Y-181970000D03*
%TD*%
D13*
%TO.C,R36*%
X108840000Y-177890000D03*
X110490000Y-177890000D03*
%TD*%
D11*
%TO.C,R38*%
X107260000Y-177910000D03*
X105610000Y-177910000D03*
%TD*%
D16*
%TO.C,C18*%
X75070000Y-164140000D03*
X76620000Y-164140000D03*
%TD*%
D21*
%TO.C,D10*%
X65910000Y-184510002D03*
X65910000Y-186710000D03*
%TD*%
D11*
%TO.C,R28*%
X52820000Y-185950000D03*
X51170000Y-185950000D03*
%TD*%
%TO.C,R27*%
X64550000Y-181400000D03*
X62900000Y-181400000D03*
%TD*%
D17*
%TO.C,R26*%
X89950000Y-174870000D03*
X89950000Y-176520000D03*
%TD*%
D16*
%TO.C,C12*%
X81840000Y-178810000D03*
X83390000Y-178810000D03*
%TD*%
D11*
%TO.C,R20*%
X82400000Y-155140000D03*
X80750000Y-155140000D03*
%TD*%
%TO.C,R17*%
X75020000Y-154480000D03*
X73370000Y-154480000D03*
%TD*%
D16*
%TO.C,C19*%
X87290000Y-172050000D03*
X88840000Y-172050000D03*
%TD*%
D21*
%TO.C,D18*%
X52850000Y-187380000D03*
X52850000Y-189579998D03*
%TD*%
D22*
%TO.C,U5*%
X60885000Y-178850000D03*
X60885000Y-180120000D03*
X60885000Y-181390000D03*
X60885000Y-182660000D03*
X55935000Y-182660000D03*
X55935000Y-181390000D03*
X55935000Y-180120000D03*
X55935000Y-178850000D03*
%TD*%
D23*
%TO.C,U4*%
X59290000Y-150860000D03*
X59290001Y-148560000D03*
X59290000Y-146260000D03*
D24*
X65589999Y-148560000D03*
%TD*%
D22*
%TO.C,U6*%
X110585000Y-172385000D03*
X110585000Y-173655000D03*
X110585000Y-174925000D03*
X110585000Y-176195000D03*
X105635000Y-176195000D03*
X105635000Y-174925000D03*
X105635000Y-173655000D03*
X105635000Y-172385000D03*
%TD*%
D10*
%TO.C,D24*%
X103327500Y-177820000D03*
X101127500Y-177820000D03*
%TD*%
D14*
%TO.C,C33*%
X97290000Y-176830000D03*
X95740000Y-176830000D03*
%TD*%
%TO.C,C14*%
X87550000Y-177960000D03*
X86000000Y-177960000D03*
%TD*%
D17*
%TO.C,R25*%
X78440000Y-175810000D03*
X78440000Y-177460000D03*
%TD*%
D13*
%TO.C,R24*%
X72200000Y-178900000D03*
X73850000Y-178900000D03*
%TD*%
D14*
%TO.C,C32*%
X52780000Y-184340000D03*
X51230000Y-184340000D03*
%TD*%
D11*
%TO.C,R19*%
X83620000Y-161800000D03*
X81970000Y-161800000D03*
%TD*%
D21*
%TO.C,D8*%
X84430000Y-166470000D03*
X84430000Y-168669998D03*
%TD*%
D14*
%TO.C,C20*%
X83620000Y-163400000D03*
X82070000Y-163400000D03*
%TD*%
D20*
%TO.C,D6*%
X74702501Y-160709320D03*
X76902499Y-160709320D03*
%TD*%
D11*
%TO.C,R21*%
X83650000Y-164960000D03*
X82000000Y-164960000D03*
%TD*%
D18*
%TO.C,C31*%
X52900000Y-193170000D03*
X52900000Y-194720000D03*
%TD*%
D17*
%TO.C,R10*%
X83400000Y-175670000D03*
X83400000Y-177320000D03*
%TD*%
D10*
%TO.C,D5*%
X76870000Y-158350000D03*
X74670000Y-158350000D03*
%TD*%
M02*
