%TF.GenerationSoftware,KiCad,Pcbnew,10.0.1*%
%TF.CreationDate,2026-06-23T01:02:18+08:00*%
%TF.ProjectId,STC_mainboard,5354435f-6d61-4696-9e62-6f6172642e6b,rev?*%
%TF.SameCoordinates,Original*%
%TF.FileFunction,Legend,Top*%
%TF.FilePolarity,Positive*%
%FSLAX46Y46*%
G04 Gerber Fmt 4.6, Leading zero omitted, Abs format (unit mm)*
G04 Created by KiCad (PCBNEW 10.0.1) date 2026-06-23 01:02:18*
%MOMM*%
%LPD*%
G01*
G04 APERTURE LIST*
%ADD10C,0.150000*%
%ADD11C,0.120000*%
%ADD12C,0.254000*%
%ADD13C,0.152400*%
%ADD14C,0.000000*%
%ADD15C,0.508000*%
G04 APERTURE END LIST*
D10*
X126739580Y-135226666D02*
X126787200Y-135274285D01*
X126787200Y-135274285D02*
X126834819Y-135417142D01*
X126834819Y-135417142D02*
X126834819Y-135512380D01*
X126834819Y-135512380D02*
X126787200Y-135655237D01*
X126787200Y-135655237D02*
X126691961Y-135750475D01*
X126691961Y-135750475D02*
X126596723Y-135798094D01*
X126596723Y-135798094D02*
X126406247Y-135845713D01*
X126406247Y-135845713D02*
X126263390Y-135845713D01*
X126263390Y-135845713D02*
X126072914Y-135798094D01*
X126072914Y-135798094D02*
X125977676Y-135750475D01*
X125977676Y-135750475D02*
X125882438Y-135655237D01*
X125882438Y-135655237D02*
X125834819Y-135512380D01*
X125834819Y-135512380D02*
X125834819Y-135417142D01*
X125834819Y-135417142D02*
X125882438Y-135274285D01*
X125882438Y-135274285D02*
X125930057Y-135226666D01*
X125834819Y-134369523D02*
X125834819Y-134559999D01*
X125834819Y-134559999D02*
X125882438Y-134655237D01*
X125882438Y-134655237D02*
X125930057Y-134702856D01*
X125930057Y-134702856D02*
X126072914Y-134798094D01*
X126072914Y-134798094D02*
X126263390Y-134845713D01*
X126263390Y-134845713D02*
X126644342Y-134845713D01*
X126644342Y-134845713D02*
X126739580Y-134798094D01*
X126739580Y-134798094D02*
X126787200Y-134750475D01*
X126787200Y-134750475D02*
X126834819Y-134655237D01*
X126834819Y-134655237D02*
X126834819Y-134464761D01*
X126834819Y-134464761D02*
X126787200Y-134369523D01*
X126787200Y-134369523D02*
X126739580Y-134321904D01*
X126739580Y-134321904D02*
X126644342Y-134274285D01*
X126644342Y-134274285D02*
X126406247Y-134274285D01*
X126406247Y-134274285D02*
X126311009Y-134321904D01*
X126311009Y-134321904D02*
X126263390Y-134369523D01*
X126263390Y-134369523D02*
X126215771Y-134464761D01*
X126215771Y-134464761D02*
X126215771Y-134655237D01*
X126215771Y-134655237D02*
X126263390Y-134750475D01*
X126263390Y-134750475D02*
X126311009Y-134798094D01*
X126311009Y-134798094D02*
X126406247Y-134845713D01*
X116214819Y-142498094D02*
X115214819Y-142498094D01*
X115214819Y-142498094D02*
X115214819Y-142259999D01*
X115214819Y-142259999D02*
X115262438Y-142117142D01*
X115262438Y-142117142D02*
X115357676Y-142021904D01*
X115357676Y-142021904D02*
X115452914Y-141974285D01*
X115452914Y-141974285D02*
X115643390Y-141926666D01*
X115643390Y-141926666D02*
X115786247Y-141926666D01*
X115786247Y-141926666D02*
X115976723Y-141974285D01*
X115976723Y-141974285D02*
X116071961Y-142021904D01*
X116071961Y-142021904D02*
X116167200Y-142117142D01*
X116167200Y-142117142D02*
X116214819Y-142259999D01*
X116214819Y-142259999D02*
X116214819Y-142498094D01*
X116214819Y-140974285D02*
X116214819Y-141545713D01*
X116214819Y-141259999D02*
X115214819Y-141259999D01*
X115214819Y-141259999D02*
X115357676Y-141355237D01*
X115357676Y-141355237D02*
X115452914Y-141450475D01*
X115452914Y-141450475D02*
X115500533Y-141545713D01*
X117151905Y-136644819D02*
X117151905Y-137454342D01*
X117151905Y-137454342D02*
X117199524Y-137549580D01*
X117199524Y-137549580D02*
X117247143Y-137597200D01*
X117247143Y-137597200D02*
X117342381Y-137644819D01*
X117342381Y-137644819D02*
X117532857Y-137644819D01*
X117532857Y-137644819D02*
X117628095Y-137597200D01*
X117628095Y-137597200D02*
X117675714Y-137549580D01*
X117675714Y-137549580D02*
X117723333Y-137454342D01*
X117723333Y-137454342D02*
X117723333Y-136644819D01*
X118723333Y-137644819D02*
X118151905Y-137644819D01*
X118437619Y-137644819D02*
X118437619Y-136644819D01*
X118437619Y-136644819D02*
X118342381Y-136787676D01*
X118342381Y-136787676D02*
X118247143Y-136882914D01*
X118247143Y-136882914D02*
X118151905Y-136930533D01*
X119342381Y-136644819D02*
X119437619Y-136644819D01*
X119437619Y-136644819D02*
X119532857Y-136692438D01*
X119532857Y-136692438D02*
X119580476Y-136740057D01*
X119580476Y-136740057D02*
X119628095Y-136835295D01*
X119628095Y-136835295D02*
X119675714Y-137025771D01*
X119675714Y-137025771D02*
X119675714Y-137263866D01*
X119675714Y-137263866D02*
X119628095Y-137454342D01*
X119628095Y-137454342D02*
X119580476Y-137549580D01*
X119580476Y-137549580D02*
X119532857Y-137597200D01*
X119532857Y-137597200D02*
X119437619Y-137644819D01*
X119437619Y-137644819D02*
X119342381Y-137644819D01*
X119342381Y-137644819D02*
X119247143Y-137597200D01*
X119247143Y-137597200D02*
X119199524Y-137549580D01*
X119199524Y-137549580D02*
X119151905Y-137454342D01*
X119151905Y-137454342D02*
X119104286Y-137263866D01*
X119104286Y-137263866D02*
X119104286Y-137025771D01*
X119104286Y-137025771D02*
X119151905Y-136835295D01*
X119151905Y-136835295D02*
X119199524Y-136740057D01*
X119199524Y-136740057D02*
X119247143Y-136692438D01*
X119247143Y-136692438D02*
X119342381Y-136644819D01*
X67449819Y-136491904D02*
X68259342Y-136491904D01*
X68259342Y-136491904D02*
X68354580Y-136444285D01*
X68354580Y-136444285D02*
X68402200Y-136396666D01*
X68402200Y-136396666D02*
X68449819Y-136301428D01*
X68449819Y-136301428D02*
X68449819Y-136110952D01*
X68449819Y-136110952D02*
X68402200Y-136015714D01*
X68402200Y-136015714D02*
X68354580Y-135968095D01*
X68354580Y-135968095D02*
X68259342Y-135920476D01*
X68259342Y-135920476D02*
X67449819Y-135920476D01*
X67545057Y-135491904D02*
X67497438Y-135444285D01*
X67497438Y-135444285D02*
X67449819Y-135349047D01*
X67449819Y-135349047D02*
X67449819Y-135110952D01*
X67449819Y-135110952D02*
X67497438Y-135015714D01*
X67497438Y-135015714D02*
X67545057Y-134968095D01*
X67545057Y-134968095D02*
X67640295Y-134920476D01*
X67640295Y-134920476D02*
X67735533Y-134920476D01*
X67735533Y-134920476D02*
X67878390Y-134968095D01*
X67878390Y-134968095D02*
X68449819Y-135539523D01*
X68449819Y-135539523D02*
X68449819Y-134920476D01*
X118108333Y-139679580D02*
X118060714Y-139727200D01*
X118060714Y-139727200D02*
X117917857Y-139774819D01*
X117917857Y-139774819D02*
X117822619Y-139774819D01*
X117822619Y-139774819D02*
X117679762Y-139727200D01*
X117679762Y-139727200D02*
X117584524Y-139631961D01*
X117584524Y-139631961D02*
X117536905Y-139536723D01*
X117536905Y-139536723D02*
X117489286Y-139346247D01*
X117489286Y-139346247D02*
X117489286Y-139203390D01*
X117489286Y-139203390D02*
X117536905Y-139012914D01*
X117536905Y-139012914D02*
X117584524Y-138917676D01*
X117584524Y-138917676D02*
X117679762Y-138822438D01*
X117679762Y-138822438D02*
X117822619Y-138774819D01*
X117822619Y-138774819D02*
X117917857Y-138774819D01*
X117917857Y-138774819D02*
X118060714Y-138822438D01*
X118060714Y-138822438D02*
X118108333Y-138870057D01*
X118441667Y-138774819D02*
X119108333Y-138774819D01*
X119108333Y-138774819D02*
X118679762Y-139774819D01*
X124879580Y-135291666D02*
X124927200Y-135339285D01*
X124927200Y-135339285D02*
X124974819Y-135482142D01*
X124974819Y-135482142D02*
X124974819Y-135577380D01*
X124974819Y-135577380D02*
X124927200Y-135720237D01*
X124927200Y-135720237D02*
X124831961Y-135815475D01*
X124831961Y-135815475D02*
X124736723Y-135863094D01*
X124736723Y-135863094D02*
X124546247Y-135910713D01*
X124546247Y-135910713D02*
X124403390Y-135910713D01*
X124403390Y-135910713D02*
X124212914Y-135863094D01*
X124212914Y-135863094D02*
X124117676Y-135815475D01*
X124117676Y-135815475D02*
X124022438Y-135720237D01*
X124022438Y-135720237D02*
X123974819Y-135577380D01*
X123974819Y-135577380D02*
X123974819Y-135482142D01*
X123974819Y-135482142D02*
X124022438Y-135339285D01*
X124022438Y-135339285D02*
X124070057Y-135291666D01*
X123974819Y-134386904D02*
X123974819Y-134863094D01*
X123974819Y-134863094D02*
X124451009Y-134910713D01*
X124451009Y-134910713D02*
X124403390Y-134863094D01*
X124403390Y-134863094D02*
X124355771Y-134767856D01*
X124355771Y-134767856D02*
X124355771Y-134529761D01*
X124355771Y-134529761D02*
X124403390Y-134434523D01*
X124403390Y-134434523D02*
X124451009Y-134386904D01*
X124451009Y-134386904D02*
X124546247Y-134339285D01*
X124546247Y-134339285D02*
X124784342Y-134339285D01*
X124784342Y-134339285D02*
X124879580Y-134386904D01*
X124879580Y-134386904D02*
X124927200Y-134434523D01*
X124927200Y-134434523D02*
X124974819Y-134529761D01*
X124974819Y-134529761D02*
X124974819Y-134767856D01*
X124974819Y-134767856D02*
X124927200Y-134863094D01*
X124927200Y-134863094D02*
X124879580Y-134910713D01*
X116945667Y-193013200D02*
X117088524Y-193060819D01*
X117088524Y-193060819D02*
X117326619Y-193060819D01*
X117326619Y-193060819D02*
X117421857Y-193013200D01*
X117421857Y-193013200D02*
X117469476Y-192965580D01*
X117469476Y-192965580D02*
X117517095Y-192870342D01*
X117517095Y-192870342D02*
X117517095Y-192775104D01*
X117517095Y-192775104D02*
X117469476Y-192679866D01*
X117469476Y-192679866D02*
X117421857Y-192632247D01*
X117421857Y-192632247D02*
X117326619Y-192584628D01*
X117326619Y-192584628D02*
X117136143Y-192537009D01*
X117136143Y-192537009D02*
X117040905Y-192489390D01*
X117040905Y-192489390D02*
X116993286Y-192441771D01*
X116993286Y-192441771D02*
X116945667Y-192346533D01*
X116945667Y-192346533D02*
X116945667Y-192251295D01*
X116945667Y-192251295D02*
X116993286Y-192156057D01*
X116993286Y-192156057D02*
X117040905Y-192108438D01*
X117040905Y-192108438D02*
X117136143Y-192060819D01*
X117136143Y-192060819D02*
X117374238Y-192060819D01*
X117374238Y-192060819D02*
X117517095Y-192108438D01*
X117850429Y-192060819D02*
X118088524Y-193060819D01*
X118088524Y-193060819D02*
X118279000Y-192346533D01*
X118279000Y-192346533D02*
X118469476Y-193060819D01*
X118469476Y-193060819D02*
X118707572Y-192060819D01*
X119612333Y-193060819D02*
X119040905Y-193060819D01*
X119326619Y-193060819D02*
X119326619Y-192060819D01*
X119326619Y-192060819D02*
X119231381Y-192203676D01*
X119231381Y-192203676D02*
X119136143Y-192298914D01*
X119136143Y-192298914D02*
X119040905Y-192346533D01*
X98578095Y-120554819D02*
X98578095Y-119554819D01*
X98578095Y-120031009D02*
X99149523Y-120031009D01*
X99149523Y-120554819D02*
X99149523Y-119554819D01*
X100149523Y-120554819D02*
X99578095Y-120554819D01*
X99863809Y-120554819D02*
X99863809Y-119554819D01*
X99863809Y-119554819D02*
X99768571Y-119697676D01*
X99768571Y-119697676D02*
X99673333Y-119792914D01*
X99673333Y-119792914D02*
X99578095Y-119840533D01*
X97049580Y-186781666D02*
X97097200Y-186829285D01*
X97097200Y-186829285D02*
X97144819Y-186972142D01*
X97144819Y-186972142D02*
X97144819Y-187067380D01*
X97144819Y-187067380D02*
X97097200Y-187210237D01*
X97097200Y-187210237D02*
X97001961Y-187305475D01*
X97001961Y-187305475D02*
X96906723Y-187353094D01*
X96906723Y-187353094D02*
X96716247Y-187400713D01*
X96716247Y-187400713D02*
X96573390Y-187400713D01*
X96573390Y-187400713D02*
X96382914Y-187353094D01*
X96382914Y-187353094D02*
X96287676Y-187305475D01*
X96287676Y-187305475D02*
X96192438Y-187210237D01*
X96192438Y-187210237D02*
X96144819Y-187067380D01*
X96144819Y-187067380D02*
X96144819Y-186972142D01*
X96144819Y-186972142D02*
X96192438Y-186829285D01*
X96192438Y-186829285D02*
X96240057Y-186781666D01*
X97144819Y-185829285D02*
X97144819Y-186400713D01*
X97144819Y-186114999D02*
X96144819Y-186114999D01*
X96144819Y-186114999D02*
X96287676Y-186210237D01*
X96287676Y-186210237D02*
X96382914Y-186305475D01*
X96382914Y-186305475D02*
X96430533Y-186400713D01*
X116945667Y-185388200D02*
X117088524Y-185435819D01*
X117088524Y-185435819D02*
X117326619Y-185435819D01*
X117326619Y-185435819D02*
X117421857Y-185388200D01*
X117421857Y-185388200D02*
X117469476Y-185340580D01*
X117469476Y-185340580D02*
X117517095Y-185245342D01*
X117517095Y-185245342D02*
X117517095Y-185150104D01*
X117517095Y-185150104D02*
X117469476Y-185054866D01*
X117469476Y-185054866D02*
X117421857Y-185007247D01*
X117421857Y-185007247D02*
X117326619Y-184959628D01*
X117326619Y-184959628D02*
X117136143Y-184912009D01*
X117136143Y-184912009D02*
X117040905Y-184864390D01*
X117040905Y-184864390D02*
X116993286Y-184816771D01*
X116993286Y-184816771D02*
X116945667Y-184721533D01*
X116945667Y-184721533D02*
X116945667Y-184626295D01*
X116945667Y-184626295D02*
X116993286Y-184531057D01*
X116993286Y-184531057D02*
X117040905Y-184483438D01*
X117040905Y-184483438D02*
X117136143Y-184435819D01*
X117136143Y-184435819D02*
X117374238Y-184435819D01*
X117374238Y-184435819D02*
X117517095Y-184483438D01*
X117850429Y-184435819D02*
X118088524Y-185435819D01*
X118088524Y-185435819D02*
X118279000Y-184721533D01*
X118279000Y-184721533D02*
X118469476Y-185435819D01*
X118469476Y-185435819D02*
X118707572Y-184435819D01*
X118993286Y-184435819D02*
X119612333Y-184435819D01*
X119612333Y-184435819D02*
X119279000Y-184816771D01*
X119279000Y-184816771D02*
X119421857Y-184816771D01*
X119421857Y-184816771D02*
X119517095Y-184864390D01*
X119517095Y-184864390D02*
X119564714Y-184912009D01*
X119564714Y-184912009D02*
X119612333Y-185007247D01*
X119612333Y-185007247D02*
X119612333Y-185245342D01*
X119612333Y-185245342D02*
X119564714Y-185340580D01*
X119564714Y-185340580D02*
X119517095Y-185388200D01*
X119517095Y-185388200D02*
X119421857Y-185435819D01*
X119421857Y-185435819D02*
X119136143Y-185435819D01*
X119136143Y-185435819D02*
X119040905Y-185388200D01*
X119040905Y-185388200D02*
X118993286Y-185340580D01*
X59579819Y-136591904D02*
X60389342Y-136591904D01*
X60389342Y-136591904D02*
X60484580Y-136544285D01*
X60484580Y-136544285D02*
X60532200Y-136496666D01*
X60532200Y-136496666D02*
X60579819Y-136401428D01*
X60579819Y-136401428D02*
X60579819Y-136210952D01*
X60579819Y-136210952D02*
X60532200Y-136115714D01*
X60532200Y-136115714D02*
X60484580Y-136068095D01*
X60484580Y-136068095D02*
X60389342Y-136020476D01*
X60389342Y-136020476D02*
X59579819Y-136020476D01*
X60008390Y-135401428D02*
X59960771Y-135496666D01*
X59960771Y-135496666D02*
X59913152Y-135544285D01*
X59913152Y-135544285D02*
X59817914Y-135591904D01*
X59817914Y-135591904D02*
X59770295Y-135591904D01*
X59770295Y-135591904D02*
X59675057Y-135544285D01*
X59675057Y-135544285D02*
X59627438Y-135496666D01*
X59627438Y-135496666D02*
X59579819Y-135401428D01*
X59579819Y-135401428D02*
X59579819Y-135210952D01*
X59579819Y-135210952D02*
X59627438Y-135115714D01*
X59627438Y-135115714D02*
X59675057Y-135068095D01*
X59675057Y-135068095D02*
X59770295Y-135020476D01*
X59770295Y-135020476D02*
X59817914Y-135020476D01*
X59817914Y-135020476D02*
X59913152Y-135068095D01*
X59913152Y-135068095D02*
X59960771Y-135115714D01*
X59960771Y-135115714D02*
X60008390Y-135210952D01*
X60008390Y-135210952D02*
X60008390Y-135401428D01*
X60008390Y-135401428D02*
X60056009Y-135496666D01*
X60056009Y-135496666D02*
X60103628Y-135544285D01*
X60103628Y-135544285D02*
X60198866Y-135591904D01*
X60198866Y-135591904D02*
X60389342Y-135591904D01*
X60389342Y-135591904D02*
X60484580Y-135544285D01*
X60484580Y-135544285D02*
X60532200Y-135496666D01*
X60532200Y-135496666D02*
X60579819Y-135401428D01*
X60579819Y-135401428D02*
X60579819Y-135210952D01*
X60579819Y-135210952D02*
X60532200Y-135115714D01*
X60532200Y-135115714D02*
X60484580Y-135068095D01*
X60484580Y-135068095D02*
X60389342Y-135020476D01*
X60389342Y-135020476D02*
X60198866Y-135020476D01*
X60198866Y-135020476D02*
X60103628Y-135068095D01*
X60103628Y-135068095D02*
X60056009Y-135115714D01*
X60056009Y-135115714D02*
X60008390Y-135210952D01*
X121076666Y-151082180D02*
X121648094Y-151082180D01*
X121362380Y-151082180D02*
X121362380Y-152082180D01*
X121362380Y-152082180D02*
X121457618Y-151939323D01*
X121457618Y-151939323D02*
X121552856Y-151844085D01*
X121552856Y-151844085D02*
X121648094Y-151796466D01*
X120124285Y-151082180D02*
X120695713Y-151082180D01*
X120409999Y-151082180D02*
X120409999Y-152082180D01*
X120409999Y-152082180D02*
X120505237Y-151939323D01*
X120505237Y-151939323D02*
X120600475Y-151844085D01*
X120600475Y-151844085D02*
X120695713Y-151796466D01*
X119171904Y-151082180D02*
X119743332Y-151082180D01*
X119457618Y-151082180D02*
X119457618Y-152082180D01*
X119457618Y-152082180D02*
X119552856Y-151939323D01*
X119552856Y-151939323D02*
X119648094Y-151844085D01*
X119648094Y-151844085D02*
X119743332Y-151796466D01*
X77554819Y-150595239D02*
X77078628Y-150928572D01*
X77554819Y-151166667D02*
X76554819Y-151166667D01*
X76554819Y-151166667D02*
X76554819Y-150785715D01*
X76554819Y-150785715D02*
X76602438Y-150690477D01*
X76602438Y-150690477D02*
X76650057Y-150642858D01*
X76650057Y-150642858D02*
X76745295Y-150595239D01*
X76745295Y-150595239D02*
X76888152Y-150595239D01*
X76888152Y-150595239D02*
X76983390Y-150642858D01*
X76983390Y-150642858D02*
X77031009Y-150690477D01*
X77031009Y-150690477D02*
X77078628Y-150785715D01*
X77078628Y-150785715D02*
X77078628Y-151166667D01*
X76554819Y-150309524D02*
X77554819Y-149976191D01*
X77554819Y-149976191D02*
X76554819Y-149642858D01*
X76650057Y-149357143D02*
X76602438Y-149309524D01*
X76602438Y-149309524D02*
X76554819Y-149214286D01*
X76554819Y-149214286D02*
X76554819Y-148976191D01*
X76554819Y-148976191D02*
X76602438Y-148880953D01*
X76602438Y-148880953D02*
X76650057Y-148833334D01*
X76650057Y-148833334D02*
X76745295Y-148785715D01*
X76745295Y-148785715D02*
X76840533Y-148785715D01*
X76840533Y-148785715D02*
X76983390Y-148833334D01*
X76983390Y-148833334D02*
X77554819Y-149404762D01*
X77554819Y-149404762D02*
X77554819Y-148785715D01*
X61726666Y-197634818D02*
X61726666Y-198349103D01*
X61726666Y-198349103D02*
X61679047Y-198491960D01*
X61679047Y-198491960D02*
X61583809Y-198587199D01*
X61583809Y-198587199D02*
X61440952Y-198634818D01*
X61440952Y-198634818D02*
X61345714Y-198634818D01*
X62726666Y-198634818D02*
X62155238Y-198634818D01*
X62440952Y-198634818D02*
X62440952Y-197634818D01*
X62440952Y-197634818D02*
X62345714Y-197777675D01*
X62345714Y-197777675D02*
X62250476Y-197872913D01*
X62250476Y-197872913D02*
X62155238Y-197920532D01*
X73706905Y-141824819D02*
X73706905Y-140824819D01*
X73706905Y-140824819D02*
X73945000Y-140824819D01*
X73945000Y-140824819D02*
X74087857Y-140872438D01*
X74087857Y-140872438D02*
X74183095Y-140967676D01*
X74183095Y-140967676D02*
X74230714Y-141062914D01*
X74230714Y-141062914D02*
X74278333Y-141253390D01*
X74278333Y-141253390D02*
X74278333Y-141396247D01*
X74278333Y-141396247D02*
X74230714Y-141586723D01*
X74230714Y-141586723D02*
X74183095Y-141681961D01*
X74183095Y-141681961D02*
X74087857Y-141777200D01*
X74087857Y-141777200D02*
X73945000Y-141824819D01*
X73945000Y-141824819D02*
X73706905Y-141824819D01*
X74659286Y-140920057D02*
X74706905Y-140872438D01*
X74706905Y-140872438D02*
X74802143Y-140824819D01*
X74802143Y-140824819D02*
X75040238Y-140824819D01*
X75040238Y-140824819D02*
X75135476Y-140872438D01*
X75135476Y-140872438D02*
X75183095Y-140920057D01*
X75183095Y-140920057D02*
X75230714Y-141015295D01*
X75230714Y-141015295D02*
X75230714Y-141110533D01*
X75230714Y-141110533D02*
X75183095Y-141253390D01*
X75183095Y-141253390D02*
X74611667Y-141824819D01*
X74611667Y-141824819D02*
X75230714Y-141824819D01*
X65445714Y-142039819D02*
X65445714Y-141039819D01*
X65445714Y-141039819D02*
X65683809Y-141039819D01*
X65683809Y-141039819D02*
X65826666Y-141087438D01*
X65826666Y-141087438D02*
X65921904Y-141182676D01*
X65921904Y-141182676D02*
X65969523Y-141277914D01*
X65969523Y-141277914D02*
X66017142Y-141468390D01*
X66017142Y-141468390D02*
X66017142Y-141611247D01*
X66017142Y-141611247D02*
X65969523Y-141801723D01*
X65969523Y-141801723D02*
X65921904Y-141896961D01*
X65921904Y-141896961D02*
X65826666Y-141992200D01*
X65826666Y-141992200D02*
X65683809Y-142039819D01*
X65683809Y-142039819D02*
X65445714Y-142039819D01*
X66398095Y-141135057D02*
X66445714Y-141087438D01*
X66445714Y-141087438D02*
X66540952Y-141039819D01*
X66540952Y-141039819D02*
X66779047Y-141039819D01*
X66779047Y-141039819D02*
X66874285Y-141087438D01*
X66874285Y-141087438D02*
X66921904Y-141135057D01*
X66921904Y-141135057D02*
X66969523Y-141230295D01*
X66969523Y-141230295D02*
X66969523Y-141325533D01*
X66969523Y-141325533D02*
X66921904Y-141468390D01*
X66921904Y-141468390D02*
X66350476Y-142039819D01*
X66350476Y-142039819D02*
X66969523Y-142039819D01*
X67921904Y-142039819D02*
X67350476Y-142039819D01*
X67636190Y-142039819D02*
X67636190Y-141039819D01*
X67636190Y-141039819D02*
X67540952Y-141182676D01*
X67540952Y-141182676D02*
X67445714Y-141277914D01*
X67445714Y-141277914D02*
X67350476Y-141325533D01*
X60864759Y-177254819D02*
X60531426Y-176778628D01*
X60293331Y-177254819D02*
X60293331Y-176254819D01*
X60293331Y-176254819D02*
X60674283Y-176254819D01*
X60674283Y-176254819D02*
X60769521Y-176302438D01*
X60769521Y-176302438D02*
X60817140Y-176350057D01*
X60817140Y-176350057D02*
X60864759Y-176445295D01*
X60864759Y-176445295D02*
X60864759Y-176588152D01*
X60864759Y-176588152D02*
X60817140Y-176683390D01*
X60817140Y-176683390D02*
X60769521Y-176731009D01*
X60769521Y-176731009D02*
X60674283Y-176778628D01*
X60674283Y-176778628D02*
X60293331Y-176778628D01*
X61150474Y-176254819D02*
X61483807Y-177254819D01*
X61483807Y-177254819D02*
X61817140Y-176254819D01*
X62579045Y-176588152D02*
X62579045Y-177254819D01*
X62340950Y-176207200D02*
X62102855Y-176921485D01*
X62102855Y-176921485D02*
X62721902Y-176921485D01*
X117274761Y-170944819D02*
X116941428Y-170468628D01*
X116703333Y-170944819D02*
X116703333Y-169944819D01*
X116703333Y-169944819D02*
X117084285Y-169944819D01*
X117084285Y-169944819D02*
X117179523Y-169992438D01*
X117179523Y-169992438D02*
X117227142Y-170040057D01*
X117227142Y-170040057D02*
X117274761Y-170135295D01*
X117274761Y-170135295D02*
X117274761Y-170278152D01*
X117274761Y-170278152D02*
X117227142Y-170373390D01*
X117227142Y-170373390D02*
X117179523Y-170421009D01*
X117179523Y-170421009D02*
X117084285Y-170468628D01*
X117084285Y-170468628D02*
X116703333Y-170468628D01*
X117560476Y-169944819D02*
X117893809Y-170944819D01*
X117893809Y-170944819D02*
X118227142Y-169944819D01*
X119036666Y-169944819D02*
X118560476Y-169944819D01*
X118560476Y-169944819D02*
X118512857Y-170421009D01*
X118512857Y-170421009D02*
X118560476Y-170373390D01*
X118560476Y-170373390D02*
X118655714Y-170325771D01*
X118655714Y-170325771D02*
X118893809Y-170325771D01*
X118893809Y-170325771D02*
X118989047Y-170373390D01*
X118989047Y-170373390D02*
X119036666Y-170421009D01*
X119036666Y-170421009D02*
X119084285Y-170516247D01*
X119084285Y-170516247D02*
X119084285Y-170754342D01*
X119084285Y-170754342D02*
X119036666Y-170849580D01*
X119036666Y-170849580D02*
X118989047Y-170897200D01*
X118989047Y-170897200D02*
X118893809Y-170944819D01*
X118893809Y-170944819D02*
X118655714Y-170944819D01*
X118655714Y-170944819D02*
X118560476Y-170897200D01*
X118560476Y-170897200D02*
X118512857Y-170849580D01*
X70154819Y-150595239D02*
X69678628Y-150928572D01*
X70154819Y-151166667D02*
X69154819Y-151166667D01*
X69154819Y-151166667D02*
X69154819Y-150785715D01*
X69154819Y-150785715D02*
X69202438Y-150690477D01*
X69202438Y-150690477D02*
X69250057Y-150642858D01*
X69250057Y-150642858D02*
X69345295Y-150595239D01*
X69345295Y-150595239D02*
X69488152Y-150595239D01*
X69488152Y-150595239D02*
X69583390Y-150642858D01*
X69583390Y-150642858D02*
X69631009Y-150690477D01*
X69631009Y-150690477D02*
X69678628Y-150785715D01*
X69678628Y-150785715D02*
X69678628Y-151166667D01*
X69154819Y-150309524D02*
X70154819Y-149976191D01*
X70154819Y-149976191D02*
X69154819Y-149642858D01*
X70154819Y-148785715D02*
X70154819Y-149357143D01*
X70154819Y-149071429D02*
X69154819Y-149071429D01*
X69154819Y-149071429D02*
X69297676Y-149166667D01*
X69297676Y-149166667D02*
X69392914Y-149261905D01*
X69392914Y-149261905D02*
X69440533Y-149357143D01*
X112894819Y-130931666D02*
X112418628Y-131264999D01*
X112894819Y-131503094D02*
X111894819Y-131503094D01*
X111894819Y-131503094D02*
X111894819Y-131122142D01*
X111894819Y-131122142D02*
X111942438Y-131026904D01*
X111942438Y-131026904D02*
X111990057Y-130979285D01*
X111990057Y-130979285D02*
X112085295Y-130931666D01*
X112085295Y-130931666D02*
X112228152Y-130931666D01*
X112228152Y-130931666D02*
X112323390Y-130979285D01*
X112323390Y-130979285D02*
X112371009Y-131026904D01*
X112371009Y-131026904D02*
X112418628Y-131122142D01*
X112418628Y-131122142D02*
X112418628Y-131503094D01*
X111894819Y-130598332D02*
X111894819Y-129979285D01*
X111894819Y-129979285D02*
X112275771Y-130312618D01*
X112275771Y-130312618D02*
X112275771Y-130169761D01*
X112275771Y-130169761D02*
X112323390Y-130074523D01*
X112323390Y-130074523D02*
X112371009Y-130026904D01*
X112371009Y-130026904D02*
X112466247Y-129979285D01*
X112466247Y-129979285D02*
X112704342Y-129979285D01*
X112704342Y-129979285D02*
X112799580Y-130026904D01*
X112799580Y-130026904D02*
X112847200Y-130074523D01*
X112847200Y-130074523D02*
X112894819Y-130169761D01*
X112894819Y-130169761D02*
X112894819Y-130455475D01*
X112894819Y-130455475D02*
X112847200Y-130550713D01*
X112847200Y-130550713D02*
X112799580Y-130598332D01*
X65582142Y-130024580D02*
X65534523Y-130072200D01*
X65534523Y-130072200D02*
X65391666Y-130119819D01*
X65391666Y-130119819D02*
X65296428Y-130119819D01*
X65296428Y-130119819D02*
X65153571Y-130072200D01*
X65153571Y-130072200D02*
X65058333Y-129976961D01*
X65058333Y-129976961D02*
X65010714Y-129881723D01*
X65010714Y-129881723D02*
X64963095Y-129691247D01*
X64963095Y-129691247D02*
X64963095Y-129548390D01*
X64963095Y-129548390D02*
X65010714Y-129357914D01*
X65010714Y-129357914D02*
X65058333Y-129262676D01*
X65058333Y-129262676D02*
X65153571Y-129167438D01*
X65153571Y-129167438D02*
X65296428Y-129119819D01*
X65296428Y-129119819D02*
X65391666Y-129119819D01*
X65391666Y-129119819D02*
X65534523Y-129167438D01*
X65534523Y-129167438D02*
X65582142Y-129215057D01*
X66486904Y-129119819D02*
X66010714Y-129119819D01*
X66010714Y-129119819D02*
X65963095Y-129596009D01*
X65963095Y-129596009D02*
X66010714Y-129548390D01*
X66010714Y-129548390D02*
X66105952Y-129500771D01*
X66105952Y-129500771D02*
X66344047Y-129500771D01*
X66344047Y-129500771D02*
X66439285Y-129548390D01*
X66439285Y-129548390D02*
X66486904Y-129596009D01*
X66486904Y-129596009D02*
X66534523Y-129691247D01*
X66534523Y-129691247D02*
X66534523Y-129929342D01*
X66534523Y-129929342D02*
X66486904Y-130024580D01*
X66486904Y-130024580D02*
X66439285Y-130072200D01*
X66439285Y-130072200D02*
X66344047Y-130119819D01*
X66344047Y-130119819D02*
X66105952Y-130119819D01*
X66105952Y-130119819D02*
X66010714Y-130072200D01*
X66010714Y-130072200D02*
X65963095Y-130024580D01*
X66915476Y-129215057D02*
X66963095Y-129167438D01*
X66963095Y-129167438D02*
X67058333Y-129119819D01*
X67058333Y-129119819D02*
X67296428Y-129119819D01*
X67296428Y-129119819D02*
X67391666Y-129167438D01*
X67391666Y-129167438D02*
X67439285Y-129215057D01*
X67439285Y-129215057D02*
X67486904Y-129310295D01*
X67486904Y-129310295D02*
X67486904Y-129405533D01*
X67486904Y-129405533D02*
X67439285Y-129548390D01*
X67439285Y-129548390D02*
X66867857Y-130119819D01*
X66867857Y-130119819D02*
X67486904Y-130119819D01*
X129024285Y-151222180D02*
X129595713Y-151222180D01*
X129309999Y-151222180D02*
X129309999Y-152222180D01*
X129309999Y-152222180D02*
X129405237Y-152079323D01*
X129405237Y-152079323D02*
X129500475Y-151984085D01*
X129500475Y-151984085D02*
X129595713Y-151936466D01*
X103334819Y-137506666D02*
X103334819Y-137982856D01*
X103334819Y-137982856D02*
X102334819Y-137982856D01*
X103334819Y-136649523D02*
X103334819Y-137220951D01*
X103334819Y-136935237D02*
X102334819Y-136935237D01*
X102334819Y-136935237D02*
X102477676Y-137030475D01*
X102477676Y-137030475D02*
X102572914Y-137125713D01*
X102572914Y-137125713D02*
X102620533Y-137220951D01*
X116126666Y-204634819D02*
X116126666Y-205349104D01*
X116126666Y-205349104D02*
X116079047Y-205491961D01*
X116079047Y-205491961D02*
X115983809Y-205587200D01*
X115983809Y-205587200D02*
X115840952Y-205634819D01*
X115840952Y-205634819D02*
X115745714Y-205634819D01*
X117031428Y-204968152D02*
X117031428Y-205634819D01*
X116793333Y-204587200D02*
X116555238Y-205301485D01*
X116555238Y-205301485D02*
X117174285Y-205301485D01*
X91991009Y-192314761D02*
X92038628Y-192171904D01*
X92038628Y-192171904D02*
X92086247Y-192124285D01*
X92086247Y-192124285D02*
X92181485Y-192076666D01*
X92181485Y-192076666D02*
X92324342Y-192076666D01*
X92324342Y-192076666D02*
X92419580Y-192124285D01*
X92419580Y-192124285D02*
X92467200Y-192171904D01*
X92467200Y-192171904D02*
X92514819Y-192267142D01*
X92514819Y-192267142D02*
X92514819Y-192648094D01*
X92514819Y-192648094D02*
X91514819Y-192648094D01*
X91514819Y-192648094D02*
X91514819Y-192314761D01*
X91514819Y-192314761D02*
X91562438Y-192219523D01*
X91562438Y-192219523D02*
X91610057Y-192171904D01*
X91610057Y-192171904D02*
X91705295Y-192124285D01*
X91705295Y-192124285D02*
X91800533Y-192124285D01*
X91800533Y-192124285D02*
X91895771Y-192171904D01*
X91895771Y-192171904D02*
X91943390Y-192219523D01*
X91943390Y-192219523D02*
X91991009Y-192314761D01*
X91991009Y-192314761D02*
X91991009Y-192648094D01*
X92514819Y-191124285D02*
X92514819Y-191695713D01*
X92514819Y-191409999D02*
X91514819Y-191409999D01*
X91514819Y-191409999D02*
X91657676Y-191505237D01*
X91657676Y-191505237D02*
X91752914Y-191600475D01*
X91752914Y-191600475D02*
X91800533Y-191695713D01*
X100208333Y-186389580D02*
X100160714Y-186437200D01*
X100160714Y-186437200D02*
X100017857Y-186484819D01*
X100017857Y-186484819D02*
X99922619Y-186484819D01*
X99922619Y-186484819D02*
X99779762Y-186437200D01*
X99779762Y-186437200D02*
X99684524Y-186341961D01*
X99684524Y-186341961D02*
X99636905Y-186246723D01*
X99636905Y-186246723D02*
X99589286Y-186056247D01*
X99589286Y-186056247D02*
X99589286Y-185913390D01*
X99589286Y-185913390D02*
X99636905Y-185722914D01*
X99636905Y-185722914D02*
X99684524Y-185627676D01*
X99684524Y-185627676D02*
X99779762Y-185532438D01*
X99779762Y-185532438D02*
X99922619Y-185484819D01*
X99922619Y-185484819D02*
X100017857Y-185484819D01*
X100017857Y-185484819D02*
X100160714Y-185532438D01*
X100160714Y-185532438D02*
X100208333Y-185580057D01*
X101065476Y-185818152D02*
X101065476Y-186484819D01*
X100827381Y-185437200D02*
X100589286Y-186151485D01*
X100589286Y-186151485D02*
X101208333Y-186151485D01*
X111268333Y-130524819D02*
X110935000Y-130048628D01*
X110696905Y-130524819D02*
X110696905Y-129524819D01*
X110696905Y-129524819D02*
X111077857Y-129524819D01*
X111077857Y-129524819D02*
X111173095Y-129572438D01*
X111173095Y-129572438D02*
X111220714Y-129620057D01*
X111220714Y-129620057D02*
X111268333Y-129715295D01*
X111268333Y-129715295D02*
X111268333Y-129858152D01*
X111268333Y-129858152D02*
X111220714Y-129953390D01*
X111220714Y-129953390D02*
X111173095Y-130001009D01*
X111173095Y-130001009D02*
X111077857Y-130048628D01*
X111077857Y-130048628D02*
X110696905Y-130048628D01*
X111649286Y-129620057D02*
X111696905Y-129572438D01*
X111696905Y-129572438D02*
X111792143Y-129524819D01*
X111792143Y-129524819D02*
X112030238Y-129524819D01*
X112030238Y-129524819D02*
X112125476Y-129572438D01*
X112125476Y-129572438D02*
X112173095Y-129620057D01*
X112173095Y-129620057D02*
X112220714Y-129715295D01*
X112220714Y-129715295D02*
X112220714Y-129810533D01*
X112220714Y-129810533D02*
X112173095Y-129953390D01*
X112173095Y-129953390D02*
X111601667Y-130524819D01*
X111601667Y-130524819D02*
X112220714Y-130524819D01*
X138889819Y-197849523D02*
X139604104Y-197849523D01*
X139604104Y-197849523D02*
X139746961Y-197897142D01*
X139746961Y-197897142D02*
X139842200Y-197992380D01*
X139842200Y-197992380D02*
X139889819Y-198135237D01*
X139889819Y-198135237D02*
X139889819Y-198230475D01*
X139889819Y-196849523D02*
X139889819Y-197420951D01*
X139889819Y-197135237D02*
X138889819Y-197135237D01*
X138889819Y-197135237D02*
X139032676Y-197230475D01*
X139032676Y-197230475D02*
X139127914Y-197325713D01*
X139127914Y-197325713D02*
X139175533Y-197420951D01*
X138889819Y-196230475D02*
X138889819Y-196135237D01*
X138889819Y-196135237D02*
X138937438Y-196039999D01*
X138937438Y-196039999D02*
X138985057Y-195992380D01*
X138985057Y-195992380D02*
X139080295Y-195944761D01*
X139080295Y-195944761D02*
X139270771Y-195897142D01*
X139270771Y-195897142D02*
X139508866Y-195897142D01*
X139508866Y-195897142D02*
X139699342Y-195944761D01*
X139699342Y-195944761D02*
X139794580Y-195992380D01*
X139794580Y-195992380D02*
X139842200Y-196039999D01*
X139842200Y-196039999D02*
X139889819Y-196135237D01*
X139889819Y-196135237D02*
X139889819Y-196230475D01*
X139889819Y-196230475D02*
X139842200Y-196325713D01*
X139842200Y-196325713D02*
X139794580Y-196373332D01*
X139794580Y-196373332D02*
X139699342Y-196420951D01*
X139699342Y-196420951D02*
X139508866Y-196468570D01*
X139508866Y-196468570D02*
X139270771Y-196468570D01*
X139270771Y-196468570D02*
X139080295Y-196420951D01*
X139080295Y-196420951D02*
X138985057Y-196373332D01*
X138985057Y-196373332D02*
X138937438Y-196325713D01*
X138937438Y-196325713D02*
X138889819Y-196230475D01*
X126026666Y-204634819D02*
X126026666Y-205349104D01*
X126026666Y-205349104D02*
X125979047Y-205491961D01*
X125979047Y-205491961D02*
X125883809Y-205587200D01*
X125883809Y-205587200D02*
X125740952Y-205634819D01*
X125740952Y-205634819D02*
X125645714Y-205634819D01*
X126550476Y-205634819D02*
X126740952Y-205634819D01*
X126740952Y-205634819D02*
X126836190Y-205587200D01*
X126836190Y-205587200D02*
X126883809Y-205539580D01*
X126883809Y-205539580D02*
X126979047Y-205396723D01*
X126979047Y-205396723D02*
X127026666Y-205206247D01*
X127026666Y-205206247D02*
X127026666Y-204825295D01*
X127026666Y-204825295D02*
X126979047Y-204730057D01*
X126979047Y-204730057D02*
X126931428Y-204682438D01*
X126931428Y-204682438D02*
X126836190Y-204634819D01*
X126836190Y-204634819D02*
X126645714Y-204634819D01*
X126645714Y-204634819D02*
X126550476Y-204682438D01*
X126550476Y-204682438D02*
X126502857Y-204730057D01*
X126502857Y-204730057D02*
X126455238Y-204825295D01*
X126455238Y-204825295D02*
X126455238Y-205063390D01*
X126455238Y-205063390D02*
X126502857Y-205158628D01*
X126502857Y-205158628D02*
X126550476Y-205206247D01*
X126550476Y-205206247D02*
X126645714Y-205253866D01*
X126645714Y-205253866D02*
X126836190Y-205253866D01*
X126836190Y-205253866D02*
X126931428Y-205206247D01*
X126931428Y-205206247D02*
X126979047Y-205158628D01*
X126979047Y-205158628D02*
X127026666Y-205063390D01*
X136720714Y-150709819D02*
X136720714Y-149709819D01*
X136720714Y-149709819D02*
X136958809Y-149709819D01*
X136958809Y-149709819D02*
X137101666Y-149757438D01*
X137101666Y-149757438D02*
X137196904Y-149852676D01*
X137196904Y-149852676D02*
X137244523Y-149947914D01*
X137244523Y-149947914D02*
X137292142Y-150138390D01*
X137292142Y-150138390D02*
X137292142Y-150281247D01*
X137292142Y-150281247D02*
X137244523Y-150471723D01*
X137244523Y-150471723D02*
X137196904Y-150566961D01*
X137196904Y-150566961D02*
X137101666Y-150662200D01*
X137101666Y-150662200D02*
X136958809Y-150709819D01*
X136958809Y-150709819D02*
X136720714Y-150709819D01*
X137673095Y-149805057D02*
X137720714Y-149757438D01*
X137720714Y-149757438D02*
X137815952Y-149709819D01*
X137815952Y-149709819D02*
X138054047Y-149709819D01*
X138054047Y-149709819D02*
X138149285Y-149757438D01*
X138149285Y-149757438D02*
X138196904Y-149805057D01*
X138196904Y-149805057D02*
X138244523Y-149900295D01*
X138244523Y-149900295D02*
X138244523Y-149995533D01*
X138244523Y-149995533D02*
X138196904Y-150138390D01*
X138196904Y-150138390D02*
X137625476Y-150709819D01*
X137625476Y-150709819D02*
X138244523Y-150709819D01*
X138625476Y-149805057D02*
X138673095Y-149757438D01*
X138673095Y-149757438D02*
X138768333Y-149709819D01*
X138768333Y-149709819D02*
X139006428Y-149709819D01*
X139006428Y-149709819D02*
X139101666Y-149757438D01*
X139101666Y-149757438D02*
X139149285Y-149805057D01*
X139149285Y-149805057D02*
X139196904Y-149900295D01*
X139196904Y-149900295D02*
X139196904Y-149995533D01*
X139196904Y-149995533D02*
X139149285Y-150138390D01*
X139149285Y-150138390D02*
X138577857Y-150709819D01*
X138577857Y-150709819D02*
X139196904Y-150709819D01*
X130854819Y-145391904D02*
X131664342Y-145391904D01*
X131664342Y-145391904D02*
X131759580Y-145344285D01*
X131759580Y-145344285D02*
X131807200Y-145296666D01*
X131807200Y-145296666D02*
X131854819Y-145201428D01*
X131854819Y-145201428D02*
X131854819Y-145010952D01*
X131854819Y-145010952D02*
X131807200Y-144915714D01*
X131807200Y-144915714D02*
X131759580Y-144868095D01*
X131759580Y-144868095D02*
X131664342Y-144820476D01*
X131664342Y-144820476D02*
X130854819Y-144820476D01*
X131854819Y-144296666D02*
X131854819Y-144106190D01*
X131854819Y-144106190D02*
X131807200Y-144010952D01*
X131807200Y-144010952D02*
X131759580Y-143963333D01*
X131759580Y-143963333D02*
X131616723Y-143868095D01*
X131616723Y-143868095D02*
X131426247Y-143820476D01*
X131426247Y-143820476D02*
X131045295Y-143820476D01*
X131045295Y-143820476D02*
X130950057Y-143868095D01*
X130950057Y-143868095D02*
X130902438Y-143915714D01*
X130902438Y-143915714D02*
X130854819Y-144010952D01*
X130854819Y-144010952D02*
X130854819Y-144201428D01*
X130854819Y-144201428D02*
X130902438Y-144296666D01*
X130902438Y-144296666D02*
X130950057Y-144344285D01*
X130950057Y-144344285D02*
X131045295Y-144391904D01*
X131045295Y-144391904D02*
X131283390Y-144391904D01*
X131283390Y-144391904D02*
X131378628Y-144344285D01*
X131378628Y-144344285D02*
X131426247Y-144296666D01*
X131426247Y-144296666D02*
X131473866Y-144201428D01*
X131473866Y-144201428D02*
X131473866Y-144010952D01*
X131473866Y-144010952D02*
X131426247Y-143915714D01*
X131426247Y-143915714D02*
X131378628Y-143868095D01*
X131378628Y-143868095D02*
X131283390Y-143820476D01*
X100140004Y-190430962D02*
X100140004Y-189621439D01*
X100140004Y-189621439D02*
X100092385Y-189526201D01*
X100092385Y-189526201D02*
X100044766Y-189478582D01*
X100044766Y-189478582D02*
X99949528Y-189430962D01*
X99949528Y-189430962D02*
X99759052Y-189430962D01*
X99759052Y-189430962D02*
X99663814Y-189478582D01*
X99663814Y-189478582D02*
X99616195Y-189526201D01*
X99616195Y-189526201D02*
X99568576Y-189621439D01*
X99568576Y-189621439D02*
X99568576Y-190430962D01*
X99187623Y-190430962D02*
X98568576Y-190430962D01*
X98568576Y-190430962D02*
X98901909Y-190050010D01*
X98901909Y-190050010D02*
X98759052Y-190050010D01*
X98759052Y-190050010D02*
X98663814Y-190002391D01*
X98663814Y-190002391D02*
X98616195Y-189954772D01*
X98616195Y-189954772D02*
X98568576Y-189859534D01*
X98568576Y-189859534D02*
X98568576Y-189621439D01*
X98568576Y-189621439D02*
X98616195Y-189526201D01*
X98616195Y-189526201D02*
X98663814Y-189478582D01*
X98663814Y-189478582D02*
X98759052Y-189430962D01*
X98759052Y-189430962D02*
X99044766Y-189430962D01*
X99044766Y-189430962D02*
X99140004Y-189478582D01*
X99140004Y-189478582D02*
X99187623Y-189526201D01*
X101460899Y-191430962D02*
X101460899Y-191192867D01*
X101698994Y-191288105D02*
X101460899Y-191192867D01*
X101460899Y-191192867D02*
X101222804Y-191288105D01*
X101603756Y-191002391D02*
X101460899Y-191192867D01*
X101460899Y-191192867D02*
X101318042Y-191002391D01*
X101460900Y-190340601D02*
X101460900Y-190578696D01*
X101222805Y-190483458D02*
X101460900Y-190578696D01*
X101460900Y-190578696D02*
X101698995Y-190483458D01*
X101318043Y-190769172D02*
X101460900Y-190578696D01*
X101460900Y-190578696D02*
X101603757Y-190769172D01*
X74143333Y-140104819D02*
X73810000Y-139628628D01*
X73571905Y-140104819D02*
X73571905Y-139104819D01*
X73571905Y-139104819D02*
X73952857Y-139104819D01*
X73952857Y-139104819D02*
X74048095Y-139152438D01*
X74048095Y-139152438D02*
X74095714Y-139200057D01*
X74095714Y-139200057D02*
X74143333Y-139295295D01*
X74143333Y-139295295D02*
X74143333Y-139438152D01*
X74143333Y-139438152D02*
X74095714Y-139533390D01*
X74095714Y-139533390D02*
X74048095Y-139581009D01*
X74048095Y-139581009D02*
X73952857Y-139628628D01*
X73952857Y-139628628D02*
X73571905Y-139628628D01*
X75048095Y-139104819D02*
X74571905Y-139104819D01*
X74571905Y-139104819D02*
X74524286Y-139581009D01*
X74524286Y-139581009D02*
X74571905Y-139533390D01*
X74571905Y-139533390D02*
X74667143Y-139485771D01*
X74667143Y-139485771D02*
X74905238Y-139485771D01*
X74905238Y-139485771D02*
X75000476Y-139533390D01*
X75000476Y-139533390D02*
X75048095Y-139581009D01*
X75048095Y-139581009D02*
X75095714Y-139676247D01*
X75095714Y-139676247D02*
X75095714Y-139914342D01*
X75095714Y-139914342D02*
X75048095Y-140009580D01*
X75048095Y-140009580D02*
X75000476Y-140057200D01*
X75000476Y-140057200D02*
X74905238Y-140104819D01*
X74905238Y-140104819D02*
X74667143Y-140104819D01*
X74667143Y-140104819D02*
X74571905Y-140057200D01*
X74571905Y-140057200D02*
X74524286Y-140009580D01*
X65797142Y-140384819D02*
X65463809Y-139908628D01*
X65225714Y-140384819D02*
X65225714Y-139384819D01*
X65225714Y-139384819D02*
X65606666Y-139384819D01*
X65606666Y-139384819D02*
X65701904Y-139432438D01*
X65701904Y-139432438D02*
X65749523Y-139480057D01*
X65749523Y-139480057D02*
X65797142Y-139575295D01*
X65797142Y-139575295D02*
X65797142Y-139718152D01*
X65797142Y-139718152D02*
X65749523Y-139813390D01*
X65749523Y-139813390D02*
X65701904Y-139861009D01*
X65701904Y-139861009D02*
X65606666Y-139908628D01*
X65606666Y-139908628D02*
X65225714Y-139908628D01*
X66701904Y-139384819D02*
X66225714Y-139384819D01*
X66225714Y-139384819D02*
X66178095Y-139861009D01*
X66178095Y-139861009D02*
X66225714Y-139813390D01*
X66225714Y-139813390D02*
X66320952Y-139765771D01*
X66320952Y-139765771D02*
X66559047Y-139765771D01*
X66559047Y-139765771D02*
X66654285Y-139813390D01*
X66654285Y-139813390D02*
X66701904Y-139861009D01*
X66701904Y-139861009D02*
X66749523Y-139956247D01*
X66749523Y-139956247D02*
X66749523Y-140194342D01*
X66749523Y-140194342D02*
X66701904Y-140289580D01*
X66701904Y-140289580D02*
X66654285Y-140337200D01*
X66654285Y-140337200D02*
X66559047Y-140384819D01*
X66559047Y-140384819D02*
X66320952Y-140384819D01*
X66320952Y-140384819D02*
X66225714Y-140337200D01*
X66225714Y-140337200D02*
X66178095Y-140289580D01*
X67225714Y-140384819D02*
X67416190Y-140384819D01*
X67416190Y-140384819D02*
X67511428Y-140337200D01*
X67511428Y-140337200D02*
X67559047Y-140289580D01*
X67559047Y-140289580D02*
X67654285Y-140146723D01*
X67654285Y-140146723D02*
X67701904Y-139956247D01*
X67701904Y-139956247D02*
X67701904Y-139575295D01*
X67701904Y-139575295D02*
X67654285Y-139480057D01*
X67654285Y-139480057D02*
X67606666Y-139432438D01*
X67606666Y-139432438D02*
X67511428Y-139384819D01*
X67511428Y-139384819D02*
X67320952Y-139384819D01*
X67320952Y-139384819D02*
X67225714Y-139432438D01*
X67225714Y-139432438D02*
X67178095Y-139480057D01*
X67178095Y-139480057D02*
X67130476Y-139575295D01*
X67130476Y-139575295D02*
X67130476Y-139813390D01*
X67130476Y-139813390D02*
X67178095Y-139908628D01*
X67178095Y-139908628D02*
X67225714Y-139956247D01*
X67225714Y-139956247D02*
X67320952Y-140003866D01*
X67320952Y-140003866D02*
X67511428Y-140003866D01*
X67511428Y-140003866D02*
X67606666Y-139956247D01*
X67606666Y-139956247D02*
X67654285Y-139908628D01*
X67654285Y-139908628D02*
X67701904Y-139813390D01*
X67522819Y-192921904D02*
X68332342Y-192921904D01*
X68332342Y-192921904D02*
X68427580Y-192874285D01*
X68427580Y-192874285D02*
X68475200Y-192826666D01*
X68475200Y-192826666D02*
X68522819Y-192731428D01*
X68522819Y-192731428D02*
X68522819Y-192540952D01*
X68522819Y-192540952D02*
X68475200Y-192445714D01*
X68475200Y-192445714D02*
X68427580Y-192398095D01*
X68427580Y-192398095D02*
X68332342Y-192350476D01*
X68332342Y-192350476D02*
X67522819Y-192350476D01*
X68522819Y-191350476D02*
X68522819Y-191921904D01*
X68522819Y-191636190D02*
X67522819Y-191636190D01*
X67522819Y-191636190D02*
X67665676Y-191731428D01*
X67665676Y-191731428D02*
X67760914Y-191826666D01*
X67760914Y-191826666D02*
X67808533Y-191921904D01*
X137728333Y-138709580D02*
X137680714Y-138757200D01*
X137680714Y-138757200D02*
X137537857Y-138804819D01*
X137537857Y-138804819D02*
X137442619Y-138804819D01*
X137442619Y-138804819D02*
X137299762Y-138757200D01*
X137299762Y-138757200D02*
X137204524Y-138661961D01*
X137204524Y-138661961D02*
X137156905Y-138566723D01*
X137156905Y-138566723D02*
X137109286Y-138376247D01*
X137109286Y-138376247D02*
X137109286Y-138233390D01*
X137109286Y-138233390D02*
X137156905Y-138042914D01*
X137156905Y-138042914D02*
X137204524Y-137947676D01*
X137204524Y-137947676D02*
X137299762Y-137852438D01*
X137299762Y-137852438D02*
X137442619Y-137804819D01*
X137442619Y-137804819D02*
X137537857Y-137804819D01*
X137537857Y-137804819D02*
X137680714Y-137852438D01*
X137680714Y-137852438D02*
X137728333Y-137900057D01*
X138109286Y-137900057D02*
X138156905Y-137852438D01*
X138156905Y-137852438D02*
X138252143Y-137804819D01*
X138252143Y-137804819D02*
X138490238Y-137804819D01*
X138490238Y-137804819D02*
X138585476Y-137852438D01*
X138585476Y-137852438D02*
X138633095Y-137900057D01*
X138633095Y-137900057D02*
X138680714Y-137995295D01*
X138680714Y-137995295D02*
X138680714Y-138090533D01*
X138680714Y-138090533D02*
X138633095Y-138233390D01*
X138633095Y-138233390D02*
X138061667Y-138804819D01*
X138061667Y-138804819D02*
X138680714Y-138804819D01*
X122194819Y-131056666D02*
X121718628Y-131389999D01*
X122194819Y-131628094D02*
X121194819Y-131628094D01*
X121194819Y-131628094D02*
X121194819Y-131247142D01*
X121194819Y-131247142D02*
X121242438Y-131151904D01*
X121242438Y-131151904D02*
X121290057Y-131104285D01*
X121290057Y-131104285D02*
X121385295Y-131056666D01*
X121385295Y-131056666D02*
X121528152Y-131056666D01*
X121528152Y-131056666D02*
X121623390Y-131104285D01*
X121623390Y-131104285D02*
X121671009Y-131151904D01*
X121671009Y-131151904D02*
X121718628Y-131247142D01*
X121718628Y-131247142D02*
X121718628Y-131628094D01*
X122194819Y-130104285D02*
X122194819Y-130675713D01*
X122194819Y-130389999D02*
X121194819Y-130389999D01*
X121194819Y-130389999D02*
X121337676Y-130485237D01*
X121337676Y-130485237D02*
X121432914Y-130580475D01*
X121432914Y-130580475D02*
X121480533Y-130675713D01*
X124789523Y-145067819D02*
X124218095Y-145067819D01*
X124503809Y-145067819D02*
X124503809Y-144067819D01*
X124503809Y-144067819D02*
X124408571Y-144210676D01*
X124408571Y-144210676D02*
X124313333Y-144305914D01*
X124313333Y-144305914D02*
X124218095Y-144353533D01*
X125741904Y-145067819D02*
X125170476Y-145067819D01*
X125456190Y-145067819D02*
X125456190Y-144067819D01*
X125456190Y-144067819D02*
X125360952Y-144210676D01*
X125360952Y-144210676D02*
X125265714Y-144305914D01*
X125265714Y-144305914D02*
X125170476Y-144353533D01*
X102159580Y-130741666D02*
X102207200Y-130789285D01*
X102207200Y-130789285D02*
X102254819Y-130932142D01*
X102254819Y-130932142D02*
X102254819Y-131027380D01*
X102254819Y-131027380D02*
X102207200Y-131170237D01*
X102207200Y-131170237D02*
X102111961Y-131265475D01*
X102111961Y-131265475D02*
X102016723Y-131313094D01*
X102016723Y-131313094D02*
X101826247Y-131360713D01*
X101826247Y-131360713D02*
X101683390Y-131360713D01*
X101683390Y-131360713D02*
X101492914Y-131313094D01*
X101492914Y-131313094D02*
X101397676Y-131265475D01*
X101397676Y-131265475D02*
X101302438Y-131170237D01*
X101302438Y-131170237D02*
X101254819Y-131027380D01*
X101254819Y-131027380D02*
X101254819Y-130932142D01*
X101254819Y-130932142D02*
X101302438Y-130789285D01*
X101302438Y-130789285D02*
X101350057Y-130741666D01*
X102254819Y-130265475D02*
X102254819Y-130074999D01*
X102254819Y-130074999D02*
X102207200Y-129979761D01*
X102207200Y-129979761D02*
X102159580Y-129932142D01*
X102159580Y-129932142D02*
X102016723Y-129836904D01*
X102016723Y-129836904D02*
X101826247Y-129789285D01*
X101826247Y-129789285D02*
X101445295Y-129789285D01*
X101445295Y-129789285D02*
X101350057Y-129836904D01*
X101350057Y-129836904D02*
X101302438Y-129884523D01*
X101302438Y-129884523D02*
X101254819Y-129979761D01*
X101254819Y-129979761D02*
X101254819Y-130170237D01*
X101254819Y-130170237D02*
X101302438Y-130265475D01*
X101302438Y-130265475D02*
X101350057Y-130313094D01*
X101350057Y-130313094D02*
X101445295Y-130360713D01*
X101445295Y-130360713D02*
X101683390Y-130360713D01*
X101683390Y-130360713D02*
X101778628Y-130313094D01*
X101778628Y-130313094D02*
X101826247Y-130265475D01*
X101826247Y-130265475D02*
X101873866Y-130170237D01*
X101873866Y-130170237D02*
X101873866Y-129979761D01*
X101873866Y-129979761D02*
X101826247Y-129884523D01*
X101826247Y-129884523D02*
X101778628Y-129836904D01*
X101778628Y-129836904D02*
X101683390Y-129789285D01*
X104409580Y-130152857D02*
X104457200Y-130200476D01*
X104457200Y-130200476D02*
X104504819Y-130343333D01*
X104504819Y-130343333D02*
X104504819Y-130438571D01*
X104504819Y-130438571D02*
X104457200Y-130581428D01*
X104457200Y-130581428D02*
X104361961Y-130676666D01*
X104361961Y-130676666D02*
X104266723Y-130724285D01*
X104266723Y-130724285D02*
X104076247Y-130771904D01*
X104076247Y-130771904D02*
X103933390Y-130771904D01*
X103933390Y-130771904D02*
X103742914Y-130724285D01*
X103742914Y-130724285D02*
X103647676Y-130676666D01*
X103647676Y-130676666D02*
X103552438Y-130581428D01*
X103552438Y-130581428D02*
X103504819Y-130438571D01*
X103504819Y-130438571D02*
X103504819Y-130343333D01*
X103504819Y-130343333D02*
X103552438Y-130200476D01*
X103552438Y-130200476D02*
X103600057Y-130152857D01*
X104504819Y-129200476D02*
X104504819Y-129771904D01*
X104504819Y-129486190D02*
X103504819Y-129486190D01*
X103504819Y-129486190D02*
X103647676Y-129581428D01*
X103647676Y-129581428D02*
X103742914Y-129676666D01*
X103742914Y-129676666D02*
X103790533Y-129771904D01*
X103504819Y-128581428D02*
X103504819Y-128486190D01*
X103504819Y-128486190D02*
X103552438Y-128390952D01*
X103552438Y-128390952D02*
X103600057Y-128343333D01*
X103600057Y-128343333D02*
X103695295Y-128295714D01*
X103695295Y-128295714D02*
X103885771Y-128248095D01*
X103885771Y-128248095D02*
X104123866Y-128248095D01*
X104123866Y-128248095D02*
X104314342Y-128295714D01*
X104314342Y-128295714D02*
X104409580Y-128343333D01*
X104409580Y-128343333D02*
X104457200Y-128390952D01*
X104457200Y-128390952D02*
X104504819Y-128486190D01*
X104504819Y-128486190D02*
X104504819Y-128581428D01*
X104504819Y-128581428D02*
X104457200Y-128676666D01*
X104457200Y-128676666D02*
X104409580Y-128724285D01*
X104409580Y-128724285D02*
X104314342Y-128771904D01*
X104314342Y-128771904D02*
X104123866Y-128819523D01*
X104123866Y-128819523D02*
X103885771Y-128819523D01*
X103885771Y-128819523D02*
X103695295Y-128771904D01*
X103695295Y-128771904D02*
X103600057Y-128724285D01*
X103600057Y-128724285D02*
X103552438Y-128676666D01*
X103552438Y-128676666D02*
X103504819Y-128581428D01*
X137077142Y-149129819D02*
X136743809Y-148653628D01*
X136505714Y-149129819D02*
X136505714Y-148129819D01*
X136505714Y-148129819D02*
X136886666Y-148129819D01*
X136886666Y-148129819D02*
X136981904Y-148177438D01*
X136981904Y-148177438D02*
X137029523Y-148225057D01*
X137029523Y-148225057D02*
X137077142Y-148320295D01*
X137077142Y-148320295D02*
X137077142Y-148463152D01*
X137077142Y-148463152D02*
X137029523Y-148558390D01*
X137029523Y-148558390D02*
X136981904Y-148606009D01*
X136981904Y-148606009D02*
X136886666Y-148653628D01*
X136886666Y-148653628D02*
X136505714Y-148653628D01*
X137934285Y-148129819D02*
X137743809Y-148129819D01*
X137743809Y-148129819D02*
X137648571Y-148177438D01*
X137648571Y-148177438D02*
X137600952Y-148225057D01*
X137600952Y-148225057D02*
X137505714Y-148367914D01*
X137505714Y-148367914D02*
X137458095Y-148558390D01*
X137458095Y-148558390D02*
X137458095Y-148939342D01*
X137458095Y-148939342D02*
X137505714Y-149034580D01*
X137505714Y-149034580D02*
X137553333Y-149082200D01*
X137553333Y-149082200D02*
X137648571Y-149129819D01*
X137648571Y-149129819D02*
X137839047Y-149129819D01*
X137839047Y-149129819D02*
X137934285Y-149082200D01*
X137934285Y-149082200D02*
X137981904Y-149034580D01*
X137981904Y-149034580D02*
X138029523Y-148939342D01*
X138029523Y-148939342D02*
X138029523Y-148701247D01*
X138029523Y-148701247D02*
X137981904Y-148606009D01*
X137981904Y-148606009D02*
X137934285Y-148558390D01*
X137934285Y-148558390D02*
X137839047Y-148510771D01*
X137839047Y-148510771D02*
X137648571Y-148510771D01*
X137648571Y-148510771D02*
X137553333Y-148558390D01*
X137553333Y-148558390D02*
X137505714Y-148606009D01*
X137505714Y-148606009D02*
X137458095Y-148701247D01*
X138648571Y-148129819D02*
X138743809Y-148129819D01*
X138743809Y-148129819D02*
X138839047Y-148177438D01*
X138839047Y-148177438D02*
X138886666Y-148225057D01*
X138886666Y-148225057D02*
X138934285Y-148320295D01*
X138934285Y-148320295D02*
X138981904Y-148510771D01*
X138981904Y-148510771D02*
X138981904Y-148748866D01*
X138981904Y-148748866D02*
X138934285Y-148939342D01*
X138934285Y-148939342D02*
X138886666Y-149034580D01*
X138886666Y-149034580D02*
X138839047Y-149082200D01*
X138839047Y-149082200D02*
X138743809Y-149129819D01*
X138743809Y-149129819D02*
X138648571Y-149129819D01*
X138648571Y-149129819D02*
X138553333Y-149082200D01*
X138553333Y-149082200D02*
X138505714Y-149034580D01*
X138505714Y-149034580D02*
X138458095Y-148939342D01*
X138458095Y-148939342D02*
X138410476Y-148748866D01*
X138410476Y-148748866D02*
X138410476Y-148510771D01*
X138410476Y-148510771D02*
X138458095Y-148320295D01*
X138458095Y-148320295D02*
X138505714Y-148225057D01*
X138505714Y-148225057D02*
X138553333Y-148177438D01*
X138553333Y-148177438D02*
X138648571Y-148129819D01*
X73662142Y-130084580D02*
X73614523Y-130132200D01*
X73614523Y-130132200D02*
X73471666Y-130179819D01*
X73471666Y-130179819D02*
X73376428Y-130179819D01*
X73376428Y-130179819D02*
X73233571Y-130132200D01*
X73233571Y-130132200D02*
X73138333Y-130036961D01*
X73138333Y-130036961D02*
X73090714Y-129941723D01*
X73090714Y-129941723D02*
X73043095Y-129751247D01*
X73043095Y-129751247D02*
X73043095Y-129608390D01*
X73043095Y-129608390D02*
X73090714Y-129417914D01*
X73090714Y-129417914D02*
X73138333Y-129322676D01*
X73138333Y-129322676D02*
X73233571Y-129227438D01*
X73233571Y-129227438D02*
X73376428Y-129179819D01*
X73376428Y-129179819D02*
X73471666Y-129179819D01*
X73471666Y-129179819D02*
X73614523Y-129227438D01*
X73614523Y-129227438D02*
X73662142Y-129275057D01*
X74566904Y-129179819D02*
X74090714Y-129179819D01*
X74090714Y-129179819D02*
X74043095Y-129656009D01*
X74043095Y-129656009D02*
X74090714Y-129608390D01*
X74090714Y-129608390D02*
X74185952Y-129560771D01*
X74185952Y-129560771D02*
X74424047Y-129560771D01*
X74424047Y-129560771D02*
X74519285Y-129608390D01*
X74519285Y-129608390D02*
X74566904Y-129656009D01*
X74566904Y-129656009D02*
X74614523Y-129751247D01*
X74614523Y-129751247D02*
X74614523Y-129989342D01*
X74614523Y-129989342D02*
X74566904Y-130084580D01*
X74566904Y-130084580D02*
X74519285Y-130132200D01*
X74519285Y-130132200D02*
X74424047Y-130179819D01*
X74424047Y-130179819D02*
X74185952Y-130179819D01*
X74185952Y-130179819D02*
X74090714Y-130132200D01*
X74090714Y-130132200D02*
X74043095Y-130084580D01*
X75566904Y-130179819D02*
X74995476Y-130179819D01*
X75281190Y-130179819D02*
X75281190Y-129179819D01*
X75281190Y-129179819D02*
X75185952Y-129322676D01*
X75185952Y-129322676D02*
X75090714Y-129417914D01*
X75090714Y-129417914D02*
X74995476Y-129465533D01*
X112928333Y-134829580D02*
X112880714Y-134877200D01*
X112880714Y-134877200D02*
X112737857Y-134924819D01*
X112737857Y-134924819D02*
X112642619Y-134924819D01*
X112642619Y-134924819D02*
X112499762Y-134877200D01*
X112499762Y-134877200D02*
X112404524Y-134781961D01*
X112404524Y-134781961D02*
X112356905Y-134686723D01*
X112356905Y-134686723D02*
X112309286Y-134496247D01*
X112309286Y-134496247D02*
X112309286Y-134353390D01*
X112309286Y-134353390D02*
X112356905Y-134162914D01*
X112356905Y-134162914D02*
X112404524Y-134067676D01*
X112404524Y-134067676D02*
X112499762Y-133972438D01*
X112499762Y-133972438D02*
X112642619Y-133924819D01*
X112642619Y-133924819D02*
X112737857Y-133924819D01*
X112737857Y-133924819D02*
X112880714Y-133972438D01*
X112880714Y-133972438D02*
X112928333Y-134020057D01*
X113499762Y-134353390D02*
X113404524Y-134305771D01*
X113404524Y-134305771D02*
X113356905Y-134258152D01*
X113356905Y-134258152D02*
X113309286Y-134162914D01*
X113309286Y-134162914D02*
X113309286Y-134115295D01*
X113309286Y-134115295D02*
X113356905Y-134020057D01*
X113356905Y-134020057D02*
X113404524Y-133972438D01*
X113404524Y-133972438D02*
X113499762Y-133924819D01*
X113499762Y-133924819D02*
X113690238Y-133924819D01*
X113690238Y-133924819D02*
X113785476Y-133972438D01*
X113785476Y-133972438D02*
X113833095Y-134020057D01*
X113833095Y-134020057D02*
X113880714Y-134115295D01*
X113880714Y-134115295D02*
X113880714Y-134162914D01*
X113880714Y-134162914D02*
X113833095Y-134258152D01*
X113833095Y-134258152D02*
X113785476Y-134305771D01*
X113785476Y-134305771D02*
X113690238Y-134353390D01*
X113690238Y-134353390D02*
X113499762Y-134353390D01*
X113499762Y-134353390D02*
X113404524Y-134401009D01*
X113404524Y-134401009D02*
X113356905Y-134448628D01*
X113356905Y-134448628D02*
X113309286Y-134543866D01*
X113309286Y-134543866D02*
X113309286Y-134734342D01*
X113309286Y-134734342D02*
X113356905Y-134829580D01*
X113356905Y-134829580D02*
X113404524Y-134877200D01*
X113404524Y-134877200D02*
X113499762Y-134924819D01*
X113499762Y-134924819D02*
X113690238Y-134924819D01*
X113690238Y-134924819D02*
X113785476Y-134877200D01*
X113785476Y-134877200D02*
X113833095Y-134829580D01*
X113833095Y-134829580D02*
X113880714Y-134734342D01*
X113880714Y-134734342D02*
X113880714Y-134543866D01*
X113880714Y-134543866D02*
X113833095Y-134448628D01*
X113833095Y-134448628D02*
X113785476Y-134401009D01*
X113785476Y-134401009D02*
X113690238Y-134353390D01*
X122670476Y-145744819D02*
X122670476Y-146459104D01*
X122670476Y-146459104D02*
X122622857Y-146601961D01*
X122622857Y-146601961D02*
X122527619Y-146697200D01*
X122527619Y-146697200D02*
X122384762Y-146744819D01*
X122384762Y-146744819D02*
X122289524Y-146744819D01*
X123670476Y-146744819D02*
X123099048Y-146744819D01*
X123384762Y-146744819D02*
X123384762Y-145744819D01*
X123384762Y-145744819D02*
X123289524Y-145887676D01*
X123289524Y-145887676D02*
X123194286Y-145982914D01*
X123194286Y-145982914D02*
X123099048Y-146030533D01*
X124003810Y-145744819D02*
X124622857Y-145744819D01*
X124622857Y-145744819D02*
X124289524Y-146125771D01*
X124289524Y-146125771D02*
X124432381Y-146125771D01*
X124432381Y-146125771D02*
X124527619Y-146173390D01*
X124527619Y-146173390D02*
X124575238Y-146221009D01*
X124575238Y-146221009D02*
X124622857Y-146316247D01*
X124622857Y-146316247D02*
X124622857Y-146554342D01*
X124622857Y-146554342D02*
X124575238Y-146649580D01*
X124575238Y-146649580D02*
X124527619Y-146697200D01*
X124527619Y-146697200D02*
X124432381Y-146744819D01*
X124432381Y-146744819D02*
X124146667Y-146744819D01*
X124146667Y-146744819D02*
X124051429Y-146697200D01*
X124051429Y-146697200D02*
X124003810Y-146649580D01*
X116408571Y-142404700D02*
X117551429Y-142404700D01*
X116980000Y-142976128D02*
X116980000Y-141833271D01*
X129408571Y-142404700D02*
X130551429Y-142404700D01*
%TO.C,C6*%
D11*
X124440000Y-134919420D02*
X124440000Y-135200580D01*
X125460000Y-134919420D02*
X125460000Y-135200580D01*
%TO.C,D1*%
X111610000Y-138360000D02*
X111610000Y-143760000D01*
X114910000Y-138360000D02*
X111610000Y-138360000D01*
X114910000Y-138360000D02*
X114910000Y-143760000D01*
%TO.C,U10*%
D10*
X120465000Y-131115000D02*
X116315000Y-131115000D01*
X120465000Y-136265000D02*
X116315000Y-136265000D01*
D11*
X121130000Y-136520000D02*
X120650000Y-136520000D01*
X120890000Y-136190000D01*
X121130000Y-136520000D01*
G36*
X121130000Y-136520000D02*
G01*
X120650000Y-136520000D01*
X120890000Y-136190000D01*
X121130000Y-136520000D01*
G37*
%TO.C,U2*%
X68835000Y-135730000D02*
X68835000Y-133780000D01*
X68835000Y-135730000D02*
X68835000Y-137680000D01*
X73955000Y-135730000D02*
X73955000Y-133780000D01*
X73955000Y-135730000D02*
X73955000Y-137680000D01*
X68930000Y-138430000D02*
X68600000Y-138670000D01*
X68600000Y-138190000D01*
X68930000Y-138430000D01*
G36*
X68930000Y-138430000D02*
G01*
X68600000Y-138670000D01*
X68600000Y-138190000D01*
X68930000Y-138430000D01*
G37*
%TO.C,C7*%
X118415580Y-137380000D02*
X118134420Y-137380000D01*
X118415580Y-138400000D02*
X118134420Y-138400000D01*
%TO.C,C5*%
X122580000Y-134984420D02*
X122580000Y-135265580D01*
X123600000Y-134984420D02*
X123600000Y-135265580D01*
%TO.C,SW1*%
X114723000Y-187772000D02*
X114723000Y-188915000D01*
X114723000Y-187772000D02*
X121327000Y-187772000D01*
X114723000Y-191328000D02*
X114723000Y-190185000D01*
X121327000Y-187772000D02*
X121327000Y-188915000D01*
X121327000Y-190185000D02*
X121327000Y-191328000D01*
X121327000Y-191328000D02*
X114723000Y-191328000D01*
%TO.C,C1*%
X97610000Y-186755580D02*
X97610000Y-186474420D01*
X98630000Y-186755580D02*
X98630000Y-186474420D01*
%TO.C,SW3*%
X114723000Y-180147000D02*
X114723000Y-181290000D01*
X114723000Y-180147000D02*
X121327000Y-180147000D01*
X114723000Y-183703000D02*
X114723000Y-182560000D01*
X121327000Y-180147000D02*
X121327000Y-181290000D01*
X121327000Y-182560000D02*
X121327000Y-183703000D01*
X121327000Y-183703000D02*
X114723000Y-183703000D01*
%TO.C,U8*%
X60965000Y-135830000D02*
X60965000Y-133880000D01*
X60965000Y-135830000D02*
X60965000Y-137780000D01*
X66085000Y-135830000D02*
X66085000Y-133880000D01*
X66085000Y-135830000D02*
X66085000Y-137780000D01*
X61060000Y-138530000D02*
X60730000Y-138770000D01*
X60730000Y-138290000D01*
X61060000Y-138530000D01*
G36*
X61060000Y-138530000D02*
G01*
X60730000Y-138770000D01*
X60730000Y-138290000D01*
X61060000Y-138530000D01*
G37*
%TO.C,111*%
D12*
X118810000Y-145659000D02*
X118810000Y-149059000D01*
X122010000Y-145659000D02*
X118810000Y-145659000D01*
X122010000Y-149059000D02*
X122010000Y-145659000D01*
X122010000Y-149110000D02*
G75*
G02*
X118810000Y-149110000I-1600000J0D01*
G01*
%TO.C,RV2*%
D11*
X78230000Y-145115001D02*
X83300000Y-145115001D01*
X78230000Y-154885001D02*
X78230000Y-145115001D01*
X78230000Y-154885001D02*
X83300000Y-154885001D01*
X83300000Y-154885001D02*
X83300000Y-145115001D01*
%TO.C,J1*%
X55460000Y-198980000D02*
X55460000Y-200230000D01*
X55750000Y-199270000D02*
X55750000Y-205240000D01*
X55750000Y-205240000D02*
X68370000Y-205240000D01*
X55760000Y-199280000D02*
X55760000Y-200030000D01*
X55760000Y-200030000D02*
X57559999Y-200030000D01*
X55760000Y-201530000D02*
X56510000Y-201530000D01*
X56510000Y-201530000D02*
X56510000Y-204480000D01*
X56510000Y-204480000D02*
X62060000Y-204480000D01*
X56710000Y-198980000D02*
X55460000Y-198980000D01*
X57559999Y-200030000D02*
X57560000Y-199279999D01*
X57560000Y-199279999D02*
X55760000Y-199280000D01*
X59060000Y-199279999D02*
X59060001Y-200030000D01*
X59060001Y-200030000D02*
X65060000Y-200030000D01*
X65060000Y-199280000D02*
X59060000Y-199279999D01*
X65060000Y-200030000D02*
X65060000Y-199280000D01*
X66559999Y-200030000D02*
X68360000Y-200030000D01*
X66560000Y-199279999D02*
X66559999Y-200030000D01*
X67610000Y-201530001D02*
X67610000Y-204480000D01*
X67610000Y-204480000D02*
X62060000Y-204480000D01*
X68360000Y-199280000D02*
X66560000Y-199279999D01*
X68360000Y-200030000D02*
X68360000Y-199280000D01*
X68360000Y-201530000D02*
X67610000Y-201530001D01*
X68370000Y-199270000D02*
X55750000Y-199270000D01*
X68370000Y-205240000D02*
X68370000Y-199270000D01*
%TO.C,D2*%
X72835000Y-142370000D02*
X72835000Y-144070000D01*
X72835000Y-142370000D02*
X75495000Y-142370000D01*
X72835000Y-144070000D02*
X75495000Y-144070000D01*
%TO.C,D21*%
X65050000Y-142585000D02*
X65050000Y-144285000D01*
X65050000Y-142585000D02*
X67710000Y-142585000D01*
X65050000Y-144285000D02*
X67710000Y-144285000D01*
%TO.C,RV4*%
X56574998Y-175670000D02*
X56574998Y-170600000D01*
X66344998Y-170600000D02*
X56574998Y-170600000D01*
X66344998Y-175670000D02*
X56574998Y-175670000D01*
X66344998Y-175670000D02*
X66344998Y-170600000D01*
%TO.C,RV5*%
X112985000Y-171620000D02*
X112985000Y-176690000D01*
X112985000Y-171620000D02*
X122755000Y-171620000D01*
X112985000Y-176690000D02*
X122755000Y-176690000D01*
X122755000Y-171620000D02*
X122755000Y-176690000D01*
%TO.C,RV1*%
X70830000Y-145115001D02*
X75900000Y-145115001D01*
X70830000Y-154885001D02*
X70830000Y-145115001D01*
X70830000Y-154885001D02*
X75900000Y-154885001D01*
X75900000Y-154885001D02*
X75900000Y-145115001D01*
%TO.C,R3*%
X113347500Y-131002258D02*
X113347500Y-130527742D01*
X114392500Y-131002258D02*
X114392500Y-130527742D01*
%TO.C,C52*%
X66084420Y-130585000D02*
X66365580Y-130585000D01*
X66084420Y-131605000D02*
X66365580Y-131605000D01*
%TO.C,1*%
D12*
X127710000Y-145799000D02*
X127710000Y-149199000D01*
X130910000Y-145799000D02*
X127710000Y-145799000D01*
X130910000Y-149199000D02*
X130910000Y-145799000D01*
X130910000Y-149250000D02*
G75*
G02*
X127710000Y-149250000I-1600000J0D01*
G01*
%TO.C,L1*%
D11*
X103630000Y-133640000D02*
X105930000Y-133640000D01*
X103630000Y-141040000D02*
X103630000Y-133640000D01*
X105930000Y-141040000D02*
X103630000Y-141040000D01*
X108730000Y-133640000D02*
X111030000Y-133640000D01*
X111030000Y-133640000D02*
X111030000Y-141040000D01*
X111030000Y-141040000D02*
X108730000Y-141040000D01*
%TO.C,J4*%
X112225000Y-199320000D02*
X114025000Y-199320000D01*
X112225000Y-200920000D02*
X112225000Y-199320000D01*
X118895000Y-199320000D02*
X118895000Y-198380000D01*
X119425000Y-203790000D02*
X113495000Y-203790000D01*
X120695000Y-199320000D02*
X118895000Y-199320000D01*
X120695000Y-200920000D02*
X120695000Y-199320000D01*
%TO.C,B1*%
X76870000Y-185610000D02*
X79870000Y-185610000D01*
X76870000Y-198210000D02*
X76870000Y-185610000D01*
X79870000Y-198210000D02*
X76870000Y-198210000D01*
X86470000Y-185610000D02*
X89470000Y-185610000D01*
X89470000Y-185610000D02*
X89470000Y-198210000D01*
X89470000Y-198210000D02*
X86470000Y-198210000D01*
%TO.C,C4*%
X100234420Y-186950000D02*
X100515580Y-186950000D01*
X100234420Y-187970000D02*
X100515580Y-187970000D01*
%TO.C,R2*%
X111197742Y-130977500D02*
X111672258Y-130977500D01*
X111197742Y-132022500D02*
X111672258Y-132022500D01*
%TO.C,J10*%
X132375000Y-190730000D02*
X132375000Y-203350000D01*
X132375000Y-203350000D02*
X138345000Y-203350000D01*
X133135000Y-191490000D02*
X133135000Y-197040000D01*
X133135000Y-202590000D02*
X133135000Y-197040000D01*
X136085000Y-190740000D02*
X136085000Y-191490000D01*
X136085000Y-191490000D02*
X133135000Y-191490000D01*
X136085000Y-202590000D02*
X133135000Y-202590000D01*
X136085000Y-203340000D02*
X136085000Y-202590000D01*
X137585000Y-190740000D02*
X137585000Y-192540000D01*
X137585000Y-192540000D02*
X138335000Y-192540000D01*
X137585000Y-194040000D02*
X137585000Y-200040000D01*
X137585000Y-200040000D02*
X138335000Y-200040000D01*
X137585000Y-201540000D02*
X137585000Y-203340000D01*
X137585000Y-203340000D02*
X138335000Y-203340000D01*
X138335000Y-190740000D02*
X137585000Y-190740000D01*
X138335000Y-192540000D02*
X138335000Y-190740000D01*
X138335000Y-194040000D02*
X137585000Y-194040000D01*
X138335000Y-200040000D02*
X138335000Y-194040000D01*
X138335000Y-201540000D02*
X137585000Y-201540000D01*
X138335000Y-203340000D02*
X138335000Y-201540000D01*
X138345000Y-190730000D02*
X132375000Y-190730000D01*
X138345000Y-203350000D02*
X138345000Y-190730000D01*
X138635000Y-190440000D02*
X137385000Y-190440000D01*
X138635000Y-191690000D02*
X138635000Y-190440000D01*
%TO.C,J9*%
X122125000Y-199320000D02*
X123925000Y-199320000D01*
X122125000Y-200920000D02*
X122125000Y-199320000D01*
X128795000Y-199320000D02*
X128795000Y-198380000D01*
X129325000Y-203790000D02*
X123395000Y-203790000D01*
X130595000Y-199320000D02*
X128795000Y-199320000D01*
X130595000Y-200920000D02*
X130595000Y-199320000D01*
%TO.C,D22*%
X136325000Y-151255000D02*
X136325000Y-152955000D01*
X136325000Y-151255000D02*
X138985000Y-151255000D01*
X136325000Y-152955000D02*
X138985000Y-152955000D01*
%TO.C,U9*%
X132240000Y-144630000D02*
X132240000Y-142680000D01*
X132240000Y-144630000D02*
X132240000Y-146580000D01*
X137360000Y-144630000D02*
X137360000Y-142680000D01*
X137360000Y-144630000D02*
X137360000Y-146580000D01*
X132335000Y-147330000D02*
X132005000Y-147570000D01*
X132005000Y-147090000D01*
X132335000Y-147330000D01*
G36*
X132335000Y-147330000D02*
G01*
X132005000Y-147570000D01*
X132005000Y-147090000D01*
X132335000Y-147330000D01*
G37*
%TO.C,U3*%
D13*
X97701700Y-188463382D02*
X97701700Y-188678767D01*
X97701700Y-191092797D02*
X97701700Y-191308182D01*
X97701700Y-191308182D02*
X98421087Y-191308182D01*
X98421087Y-188463382D02*
X97701700Y-188463382D01*
X100335113Y-191308182D02*
X101054500Y-191308182D01*
X101054500Y-188463382D02*
X100335113Y-188463382D01*
X101054500Y-188678767D02*
X101054500Y-188463382D01*
X101054500Y-191308182D02*
X101054500Y-191092797D01*
D14*
G36*
X97676300Y-190326282D02*
G01*
X97422300Y-190326282D01*
X97422300Y-189945282D01*
X97676300Y-189945281D01*
X97676300Y-190326282D01*
G37*
%TO.C,R5*%
D11*
X74072742Y-140557500D02*
X74547258Y-140557500D01*
X74072742Y-141602500D02*
X74547258Y-141602500D01*
%TO.C,R59*%
X66202742Y-140837500D02*
X66677258Y-140837500D01*
X66202742Y-141882500D02*
X66677258Y-141882500D01*
%TO.C,U1*%
D12*
X68895000Y-197240000D02*
X77149999Y-197240000D01*
X68895000Y-203590000D02*
X68895000Y-180730000D01*
X77149999Y-187080000D02*
X68895000Y-187080000D01*
X77149999Y-197240000D02*
X77149999Y-187080000D01*
X108900000Y-178825000D02*
X70800000Y-178825000D01*
X108900000Y-205495000D02*
X70800000Y-205495000D01*
X110805000Y-203590000D02*
X110805000Y-180730000D01*
X68895000Y-180730000D02*
G75*
G02*
X70800000Y-178825000I1905000J0D01*
G01*
X70800000Y-205495000D02*
G75*
G02*
X68895000Y-203590000I1J1905001D01*
G01*
X108900000Y-178825000D02*
G75*
G02*
X110805000Y-180730000I0J-1905000D01*
G01*
X110805000Y-203590000D02*
G75*
G02*
X108900000Y-205495000I-1905001J1D01*
G01*
D15*
X109535000Y-188350000D02*
G75*
G02*
X108265000Y-188350000I-635000J0D01*
G01*
X108265000Y-188350000D02*
G75*
G02*
X109535000Y-188350000I635000J0D01*
G01*
X109535000Y-190890000D02*
G75*
G02*
X108265000Y-190890000I-635000J0D01*
G01*
X108265000Y-190890000D02*
G75*
G02*
X109535000Y-190890000I635000J0D01*
G01*
X109535000Y-193430000D02*
G75*
G02*
X108265000Y-193430000I-635000J0D01*
G01*
X108265000Y-193430000D02*
G75*
G02*
X109535000Y-193430000I635000J0D01*
G01*
X109535000Y-195970000D02*
G75*
G02*
X108265000Y-195970000I-635000J0D01*
G01*
X108265000Y-195970000D02*
G75*
G02*
X109535000Y-195970000I635000J0D01*
G01*
%TO.C,C2*%
D11*
X137754420Y-139270000D02*
X138035580Y-139270000D01*
X137754420Y-140290000D02*
X138035580Y-140290000D01*
%TO.C,R1*%
X122647500Y-131127258D02*
X122647500Y-130652742D01*
X123692500Y-131127258D02*
X123692500Y-130652742D01*
%TO.C,11*%
D12*
X123380000Y-147091000D02*
X123380000Y-150491000D01*
X123380000Y-150491000D02*
X126580000Y-150491000D01*
X126580000Y-150491000D02*
X126580000Y-147091000D01*
X123380000Y-147040000D02*
G75*
G02*
X126580000Y-147040000I1600000J0D01*
G01*
%TO.C,C9*%
D11*
X102720000Y-130715580D02*
X102720000Y-130434420D01*
X103740000Y-130715580D02*
X103740000Y-130434420D01*
%TO.C,RV3*%
X67205000Y-170539998D02*
X67205000Y-175609998D01*
X67205000Y-170539998D02*
X76975000Y-170539998D01*
X67205000Y-175609998D02*
X76975000Y-175609998D01*
X76975000Y-170539998D02*
X76975000Y-175609998D01*
%TO.C,C10*%
X104990000Y-127250000D02*
X106190000Y-127250000D01*
X104990000Y-130705563D02*
X104990000Y-127250000D01*
X105440000Y-132260000D02*
X105940000Y-132260000D01*
X105690000Y-132510000D02*
X105690000Y-132010000D01*
X106054437Y-131770000D02*
X104990000Y-130705563D01*
X106054437Y-131770000D02*
X106190000Y-131770000D01*
X108445563Y-131770000D02*
X108310000Y-131770000D01*
X108445563Y-131770000D02*
X109510000Y-130705563D01*
X109510000Y-127250000D02*
X108310000Y-127250000D01*
X109510000Y-130705563D02*
X109510000Y-127250000D01*
%TO.C,R60*%
X137482742Y-149582500D02*
X137957258Y-149582500D01*
X137482742Y-150627500D02*
X137957258Y-150627500D01*
%TO.C,C51*%
X74164420Y-130645000D02*
X74445580Y-130645000D01*
X74164420Y-131665000D02*
X74445580Y-131665000D01*
%TO.C,C8*%
X113235580Y-132530000D02*
X112954420Y-132530000D01*
X113235580Y-133550000D02*
X112954420Y-133550000D01*
%TO.C,J13*%
X118270000Y-145000000D02*
X118270000Y-139580000D01*
X126990000Y-139580000D02*
X118270000Y-139580000D01*
X126990000Y-145000000D02*
X118270000Y-145000000D01*
X128690000Y-140880000D02*
X126990000Y-139580000D01*
X128690000Y-143700000D02*
X126990000Y-145000000D01*
X128690000Y-143700000D02*
X128690000Y-140880000D01*
%TD*%
M02*
