%TF.GenerationSoftware,KiCad,Pcbnew,10.0.1*%
%TF.CreationDate,2026-06-23T01:02:18+08:00*%
%TF.ProjectId,STC_mainboard,5354435f-6d61-4696-9e62-6f6172642e6b,rev?*%
%TF.SameCoordinates,Original*%
%TF.FileFunction,Profile,NP*%
%FSLAX46Y46*%
G04 Gerber Fmt 4.6, Leading zero omitted, Abs format (unit mm)*
G04 Created by KiCad (PCBNEW 10.0.1) date 2026-06-23 01:02:18*
%MOMM*%
%LPD*%
G01*
G04 APERTURE LIST*
%TA.AperFunction,Profile*%
%ADD10C,0.250000*%
%TD*%
%TA.AperFunction,Profile*%
%ADD11C,0.100000*%
%TD*%
G04 APERTURE END LIST*
D10*
X46840000Y-143510000D02*
G75*
G02*
X48340000Y-142010000I1500000J0D01*
G01*
X46840000Y-204530000D02*
X46840000Y-143510000D01*
X48340000Y-142010000D02*
X52340000Y-142010000D01*
X48340000Y-206030000D02*
G75*
G02*
X46840000Y-204530000I0J1500000D01*
G01*
X48340000Y-206030000D02*
X150340000Y-206030000D01*
X49840000Y-146110000D02*
G75*
G02*
X47840000Y-146110000I-1000000J0D01*
G01*
X47840000Y-146110000D02*
G75*
G02*
X49840000Y-146110000I1000000J0D01*
G01*
X49840000Y-178110000D02*
G75*
G02*
X47840000Y-178110000I-1000000J0D01*
G01*
X47840000Y-178110000D02*
G75*
G02*
X49840000Y-178110000I1000000J0D01*
G01*
X48850660Y-156110660D02*
G75*
G02*
X50350660Y-154610660I1500040J-40D01*
G01*
X48850660Y-168110660D02*
X48850660Y-156110660D01*
X50350660Y-154610660D02*
X67350660Y-154610660D01*
X50350660Y-169610660D02*
G75*
G02*
X48850740Y-168110660I40J1499960D01*
G01*
X50350660Y-169610660D02*
X67350660Y-169610660D01*
D11*
X53840000Y-121050000D02*
G75*
G02*
X55340000Y-119550000I1500000J0D01*
G01*
D10*
X53840000Y-140510000D02*
G75*
G02*
X52340000Y-142010000I-1500000J0D01*
G01*
D11*
X53840000Y-140510000D02*
X53840000Y-121050000D01*
X55340000Y-119550000D02*
X143340000Y-119550000D01*
D10*
X55840000Y-123050000D02*
G75*
G02*
X57340000Y-121550000I1500000J0D01*
G01*
X55840000Y-123250000D02*
X55840000Y-123050000D01*
X57340000Y-121550000D02*
X90000000Y-121550000D01*
X57340000Y-124750000D02*
G75*
G02*
X55840000Y-123250000I0J1500000D01*
G01*
X57340000Y-124750000D02*
X90000000Y-124750000D01*
D11*
X62380000Y-187980000D02*
X75090000Y-187980000D01*
X75090000Y-197570000D01*
X62380000Y-197570000D01*
X62380000Y-187980000D01*
D10*
X67350660Y-154610660D02*
G75*
G02*
X68850740Y-156110660I40J-1500040D01*
G01*
X68850660Y-168110660D02*
G75*
G02*
X67350660Y-169610660I-1499960J-40D01*
G01*
X68850660Y-168110660D02*
X68850660Y-156110660D01*
X82840000Y-158610000D02*
G75*
G02*
X80840000Y-158610000I-1000000J0D01*
G01*
X80840000Y-158610000D02*
G75*
G02*
X82840000Y-158610000I1000000J0D01*
G01*
D11*
X82110000Y-129940000D02*
X97130000Y-129940000D01*
X97130000Y-137790000D01*
X82110000Y-137790000D01*
X82110000Y-129940000D01*
D10*
X90000000Y-121550000D02*
G75*
G02*
X91500000Y-123050000I0J-1500000D01*
G01*
X91500000Y-123250000D02*
G75*
G02*
X90000000Y-124750000I-1500000J0D01*
G01*
X91500000Y-123250000D02*
X91500000Y-123050000D01*
X100340000Y-141110000D02*
G75*
G02*
X98340000Y-141110000I-1000000J0D01*
G01*
X98340000Y-141110000D02*
G75*
G02*
X100340000Y-141110000I1000000J0D01*
G01*
D11*
X112340000Y-158610000D02*
G75*
G02*
X86340000Y-158610000I-13000000J0D01*
G01*
X86340000Y-158610000D02*
G75*
G02*
X112340000Y-158610000I13000000J0D01*
G01*
D10*
X100340000Y-176110000D02*
G75*
G02*
X98340000Y-176110000I-1000000J0D01*
G01*
X98340000Y-176110000D02*
G75*
G02*
X100340000Y-176110000I1000000J0D01*
G01*
X107180000Y-123050000D02*
G75*
G02*
X108680000Y-121550000I1500000J0D01*
G01*
X107180000Y-123250000D02*
X107180000Y-123050000D01*
X108680000Y-121550000D02*
X141340000Y-121550000D01*
X108680000Y-124750000D02*
G75*
G02*
X107180000Y-123250000I0J1500000D01*
G01*
X117840000Y-158610000D02*
G75*
G02*
X115840000Y-158610000I-1000000J0D01*
G01*
X115840000Y-158610000D02*
G75*
G02*
X117840000Y-158610000I1000000J0D01*
G01*
D11*
X125440000Y-172610660D02*
X125440000Y-195280000D01*
X125440000Y-195280000D02*
X128230000Y-195280000D01*
X128230000Y-195280000D02*
X134295249Y-189214751D01*
D10*
X129840660Y-156110660D02*
G75*
G02*
X131340660Y-154610660I1500040J-40D01*
G01*
X129840660Y-168110660D02*
X129840660Y-156110660D01*
X131340660Y-154610660D02*
X148340660Y-154610660D01*
X131340660Y-169610660D02*
G75*
G02*
X129840740Y-168110660I40J1499960D01*
G01*
X131340660Y-169610660D02*
X148340660Y-169610660D01*
D11*
X131340660Y-172610660D02*
X125440000Y-172610660D01*
X131340660Y-172610660D02*
X147100013Y-172610660D01*
X134295249Y-189214751D02*
X138570000Y-189214751D01*
D10*
X141340000Y-121550000D02*
G75*
G02*
X142840000Y-123050000I0J-1500000D01*
G01*
X141340000Y-124750000D02*
X108680000Y-124750000D01*
X142840000Y-123250000D02*
G75*
G02*
X141340000Y-124750000I-1500000J0D01*
G01*
X142840000Y-123250000D02*
X142840000Y-123050000D01*
D11*
X143340000Y-119550000D02*
G75*
G02*
X144840000Y-121050000I0J-1500000D01*
G01*
X144840000Y-121050000D02*
X144840000Y-140510000D01*
D10*
X146340000Y-142010000D02*
G75*
G02*
X144840000Y-140510000I0J1500000D01*
G01*
D11*
X147100013Y-172610660D02*
X147100013Y-180680000D01*
X147100013Y-180680000D02*
X138565262Y-189214751D01*
D10*
X148340660Y-154610660D02*
G75*
G02*
X149840740Y-156110660I40J-1500040D01*
G01*
X150840000Y-146110000D02*
G75*
G02*
X148840000Y-146110000I-1000000J0D01*
G01*
X148840000Y-146110000D02*
G75*
G02*
X150840000Y-146110000I1000000J0D01*
G01*
X150840000Y-178110000D02*
G75*
G02*
X148840000Y-178110000I-1000000J0D01*
G01*
X148840000Y-178110000D02*
G75*
G02*
X150840000Y-178110000I1000000J0D01*
G01*
X149840660Y-168110660D02*
G75*
G02*
X148340660Y-169610660I-1499960J-40D01*
G01*
X149840660Y-168110660D02*
X149840660Y-156110660D01*
X150340000Y-142010000D02*
X146340000Y-142010000D01*
X150340000Y-142010000D02*
G75*
G02*
X151840000Y-143510000I0J-1500000D01*
G01*
X151840000Y-204530000D02*
G75*
G02*
X150340000Y-206030000I-1500000J0D01*
G01*
X151840000Y-204530000D02*
X151840000Y-143510000D01*
M02*
