M48
; DRILL file {KiCad 8.0.0} date 2026-05-17T15:50:07+0800
; FORMAT={-:-/ absolute / inch / decimal}
; #@! TF.CreationDate,2026-05-17T15:50:07+08:00
; #@! TF.GenerationSoftware,Kicad,Pcbnew,8.0.0
; #@! TF.FileFunction,Plated,1,2,PTH
FMAT,2
INCH
; #@! TA.AperFunction,Plated,PTH,ViaDrill
T1C0.0120
; #@! TA.AperFunction,Plated,PTH,ComponentDrill
T2C0.0315
; #@! TA.AperFunction,Plated,PTH,ComponentDrill
T3C0.0354
; #@! TA.AperFunction,Plated,PTH,ComponentDrill
T4C0.0374
; #@! TA.AperFunction,Plated,PTH,ComponentDrill
T5C0.0394
%
G90
G05
T1
X0.3354Y-1.2898
X0.4555Y0.4583
X0.5114Y0.9138
X0.5276Y0.9602
X0.5528Y1.0217
X0.5555Y1.1047
X0.7008Y1.0303
X0.7091Y1.0898
X0.7126Y1.1402
X0.7248Y-1.0087
X0.7484Y0.0815
X0.7543Y1.0303
X0.7843Y0.1185
X0.7921Y-1.2858
X0.8146Y0.1528
X0.8209Y0.0539
X0.8268Y-1.1177
X0.8413Y-0.2449
X0.8453Y-0.6165
X0.8555Y0.1886
X0.8614Y0.1004
X0.8846Y0.224
X0.9012Y0.1335
X0.9169Y-0.8681
X0.9197Y0.2598
X0.922Y-1.2252
X0.9335Y-0.9972
X0.9535Y0.2028
X0.974Y-0.6921
X0.9772Y0.9465
X0.9807Y1.0268
X1.0114Y-0.5307
X1.0319Y-1.4276
X1.1114Y-1.4185
X1.1669Y-1.1543
X1.2075Y1.4508
X1.2606Y0.0283
X1.2665Y1.1756
X1.2681Y1.0244
X1.2732Y1.2602
X1.2756Y-0.1563
X1.2878Y1.3933
X1.3256Y1.4516
X1.3327Y-0.022
X1.3429Y1.0311
X1.3461Y1.1598
X1.3496Y1.2571
X1.3626Y-1.2835
X1.3854Y0.0268
X1.4823Y0.3846
X1.4941Y-0.0709
X1.6083Y0.2516
X1.6453Y0.1819
X1.7776Y1.1417
X1.8224Y-0.087
X1.8421Y0.9984
X1.8654Y1.1476
X1.9146Y-0.1248
X1.9512Y1.1524
X1.9669Y-0.0461
X1.998Y-0.1685
X2.1043Y-0.1634
X2.1685Y-0.3051
X2.1768Y0.5657
X2.1791Y-0.0799
X2.1807Y-1.148
X2.1815Y0.0976
X2.1894Y0.2693
X2.1933Y-0.939
X2.2055Y-0.1862
X2.2244Y0.1669
X2.2303Y-0.552
X2.2445Y0.0449
X2.2465Y-0.8165
X2.2465Y-1.1713
X2.252Y-0.9335
X2.2535Y-0.0567
X2.3835Y1.0937
X2.4217Y1.0949
X2.6169Y0.4291
X2.652Y1.3772
X2.6886Y1.3539
T2
X1.7783Y0.6701
X1.7783Y0.5701
X1.7783Y0.4701
X2.0063Y1.3205
X2.1063Y1.3205
X2.2063Y1.3205
X2.36Y0.5722
X2.46Y0.5722
X2.56Y0.5722
X2.9333Y0.873
X2.9508Y1.3543
X3.0333Y0.873
X3.0508Y1.3543
X3.1333Y0.873
X3.1508Y1.3543
T3
X0.235Y1.402
X0.235Y1.302
X0.235Y0.902
X0.235Y0.502
X0.235Y0.402
X0.235Y0.002
X0.235Y-0.098
X0.335Y1.402
X0.335Y1.302
X0.335Y1.202
X0.335Y1.002
X0.335Y0.902
X0.335Y0.602
X0.335Y0.402
X0.335Y0.302
X0.335Y0.002
X0.335Y-0.098
X1.035Y1.002
X1.035Y0.902
X1.035Y0.802
X1.035Y0.702
X1.035Y0.302
X1.035Y-0.098
X1.135Y1.202
X1.135Y1.102
X1.135Y0.802
X1.135Y0.702
X1.135Y0.302
X1.135Y0.002
X1.135Y-0.098
T4
X0.0935Y1.4124
X0.0935Y1.314
X0.0935Y1.2156
X0.0935Y1.1171
X0.0969Y0.6004
X0.0969Y0.502
X0.0969Y0.4035
X0.0969Y0.3051
T5
X1.2126Y1.5563
X1.8154Y0.0272
X1.9996Y1.5551
X2.1Y0.389
X2.1177Y-1.3165
X2.2161Y-1.3165
X2.5488Y0.8535
X2.6106Y0.7283
X3.2114Y1.0583
X3.2118Y1.1882
M30
