%TF.GenerationSoftware,KiCad,Pcbnew,8.0.0*%
%TF.CreationDate,2026-05-17T15:50:03+08:00*%
%TF.ProjectId,STC_mainboard,5354435f-6d61-4696-9e62-6f6172642e6b,rev?*%
%TF.SameCoordinates,Original*%
%TF.FileFunction,Legend,Top*%
%TF.FilePolarity,Positive*%
%FSLAX46Y46*%
G04 Gerber Fmt 4.6, Leading zero omitted, Abs format (unit mm)*
G04 Created by KiCad (PCBNEW 8.0.0) date 2026-05-17 15:50:03*
%MOMM*%
%LPD*%
G01*
G04 APERTURE LIST*
%ADD10C,0.152400*%
%ADD11C,0.150000*%
%ADD12C,0.000000*%
%ADD13C,0.120000*%
%ADD14C,0.200000*%
%ADD15C,0.254000*%
%ADD16C,0.508000*%
G04 APERTURE END LIST*
D10*
X79545977Y25492264D02*
X79062167Y25492264D01*
X79062167Y25492264D02*
X79062167Y26508264D01*
X79787881Y26508264D02*
X80416834Y26508264D01*
X80416834Y26508264D02*
X80078167Y26121216D01*
X80078167Y26121216D02*
X80223310Y26121216D01*
X80223310Y26121216D02*
X80320072Y26072835D01*
X80320072Y26072835D02*
X80368453Y26024454D01*
X80368453Y26024454D02*
X80416834Y25927692D01*
X80416834Y25927692D02*
X80416834Y25685787D01*
X80416834Y25685787D02*
X80368453Y25589025D01*
X80368453Y25589025D02*
X80320072Y25540645D01*
X80320072Y25540645D02*
X80223310Y25492264D01*
X80223310Y25492264D02*
X79933024Y25492264D01*
X79933024Y25492264D02*
X79836262Y25540645D01*
X79836262Y25540645D02*
X79787881Y25589025D01*
X56185977Y29592264D02*
X55702167Y29592264D01*
X55702167Y29592264D02*
X55702167Y30608264D01*
X56960072Y30269597D02*
X56960072Y29592264D01*
X56718167Y30656645D02*
X56476262Y29930930D01*
X56476262Y29930930D02*
X57105215Y29930930D01*
X41841160Y16315308D02*
X41841160Y15831498D01*
X41841160Y15831498D02*
X40825160Y15831498D01*
X40825160Y17137784D02*
X40825160Y16653974D01*
X40825160Y16653974D02*
X41308970Y16605593D01*
X41308970Y16605593D02*
X41260589Y16653974D01*
X41260589Y16653974D02*
X41212208Y16750736D01*
X41212208Y16750736D02*
X41212208Y16992641D01*
X41212208Y16992641D02*
X41260589Y17089403D01*
X41260589Y17089403D02*
X41308970Y17137784D01*
X41308970Y17137784D02*
X41405732Y17186165D01*
X41405732Y17186165D02*
X41647637Y17186165D01*
X41647637Y17186165D02*
X41744399Y17137784D01*
X41744399Y17137784D02*
X41792780Y17089403D01*
X41792780Y17089403D02*
X41841160Y16992641D01*
X41841160Y16992641D02*
X41841160Y16750736D01*
X41841160Y16750736D02*
X41792780Y16653974D01*
X41792780Y16653974D02*
X41744399Y16605593D01*
X77035977Y30432264D02*
X76552167Y30432264D01*
X76552167Y30432264D02*
X76552167Y31448264D01*
X77906834Y30432264D02*
X77326262Y30432264D01*
X77616548Y30432264D02*
X77616548Y31448264D01*
X77616548Y31448264D02*
X77519786Y31303121D01*
X77519786Y31303121D02*
X77423024Y31206359D01*
X77423024Y31206359D02*
X77326262Y31157978D01*
X62602551Y17892933D02*
X62118741Y17892933D01*
X62118741Y17892933D02*
X62118741Y18908933D01*
X62892836Y18812171D02*
X62941217Y18860552D01*
X62941217Y18860552D02*
X63037979Y18908933D01*
X63037979Y18908933D02*
X63279884Y18908933D01*
X63279884Y18908933D02*
X63376646Y18860552D01*
X63376646Y18860552D02*
X63425027Y18812171D01*
X63425027Y18812171D02*
X63473408Y18715409D01*
X63473408Y18715409D02*
X63473408Y18618647D01*
X63473408Y18618647D02*
X63425027Y18473504D01*
X63425027Y18473504D02*
X62844455Y17892933D01*
X62844455Y17892933D02*
X63473408Y17892933D01*
D11*
X52904762Y29425180D02*
X52571429Y29901371D01*
X52333334Y29425180D02*
X52333334Y30425180D01*
X52333334Y30425180D02*
X52714286Y30425180D01*
X52714286Y30425180D02*
X52809524Y30377561D01*
X52809524Y30377561D02*
X52857143Y30329942D01*
X52857143Y30329942D02*
X52904762Y30234704D01*
X52904762Y30234704D02*
X52904762Y30091847D01*
X52904762Y30091847D02*
X52857143Y29996609D01*
X52857143Y29996609D02*
X52809524Y29948990D01*
X52809524Y29948990D02*
X52714286Y29901371D01*
X52714286Y29901371D02*
X52333334Y29901371D01*
X53190477Y30425180D02*
X53523810Y29425180D01*
X53523810Y29425180D02*
X53857143Y30425180D01*
X54714286Y29425180D02*
X54142858Y29425180D01*
X54428572Y29425180D02*
X54428572Y30425180D01*
X54428572Y30425180D02*
X54333334Y30282323D01*
X54333334Y30282323D02*
X54238096Y30187085D01*
X54238096Y30187085D02*
X54142858Y30139466D01*
X37384580Y-36416666D02*
X37432200Y-36464285D01*
X37432200Y-36464285D02*
X37479819Y-36607142D01*
X37479819Y-36607142D02*
X37479819Y-36702380D01*
X37479819Y-36702380D02*
X37432200Y-36845237D01*
X37432200Y-36845237D02*
X37336961Y-36940475D01*
X37336961Y-36940475D02*
X37241723Y-36988094D01*
X37241723Y-36988094D02*
X37051247Y-37035713D01*
X37051247Y-37035713D02*
X36908390Y-37035713D01*
X36908390Y-37035713D02*
X36717914Y-36988094D01*
X36717914Y-36988094D02*
X36622676Y-36940475D01*
X36622676Y-36940475D02*
X36527438Y-36845237D01*
X36527438Y-36845237D02*
X36479819Y-36702380D01*
X36479819Y-36702380D02*
X36479819Y-36607142D01*
X36479819Y-36607142D02*
X36527438Y-36464285D01*
X36527438Y-36464285D02*
X36575057Y-36416666D01*
X36575057Y-36035713D02*
X36527438Y-35988094D01*
X36527438Y-35988094D02*
X36479819Y-35892856D01*
X36479819Y-35892856D02*
X36479819Y-35654761D01*
X36479819Y-35654761D02*
X36527438Y-35559523D01*
X36527438Y-35559523D02*
X36575057Y-35511904D01*
X36575057Y-35511904D02*
X36670295Y-35464285D01*
X36670295Y-35464285D02*
X36765533Y-35464285D01*
X36765533Y-35464285D02*
X36908390Y-35511904D01*
X36908390Y-35511904D02*
X37479819Y-36083332D01*
X37479819Y-36083332D02*
X37479819Y-35464285D01*
X61889761Y10420181D02*
X61556428Y10896372D01*
X61318333Y10420181D02*
X61318333Y11420181D01*
X61318333Y11420181D02*
X61699285Y11420181D01*
X61699285Y11420181D02*
X61794523Y11372562D01*
X61794523Y11372562D02*
X61842142Y11324943D01*
X61842142Y11324943D02*
X61889761Y11229705D01*
X61889761Y11229705D02*
X61889761Y11086848D01*
X61889761Y11086848D02*
X61842142Y10991610D01*
X61842142Y10991610D02*
X61794523Y10943991D01*
X61794523Y10943991D02*
X61699285Y10896372D01*
X61699285Y10896372D02*
X61318333Y10896372D01*
X62175476Y11420181D02*
X62508809Y10420181D01*
X62508809Y10420181D02*
X62842142Y11420181D01*
X63127857Y11324943D02*
X63175476Y11372562D01*
X63175476Y11372562D02*
X63270714Y11420181D01*
X63270714Y11420181D02*
X63508809Y11420181D01*
X63508809Y11420181D02*
X63604047Y11372562D01*
X63604047Y11372562D02*
X63651666Y11324943D01*
X63651666Y11324943D02*
X63699285Y11229705D01*
X63699285Y11229705D02*
X63699285Y11134467D01*
X63699285Y11134467D02*
X63651666Y10991610D01*
X63651666Y10991610D02*
X63080238Y10420181D01*
X63080238Y10420181D02*
X63699285Y10420181D01*
X4636905Y-29034819D02*
X4636905Y-28034819D01*
X4636905Y-28034819D02*
X5017857Y-28034819D01*
X5017857Y-28034819D02*
X5113095Y-28082438D01*
X5113095Y-28082438D02*
X5160714Y-28130057D01*
X5160714Y-28130057D02*
X5208333Y-28225295D01*
X5208333Y-28225295D02*
X5208333Y-28368152D01*
X5208333Y-28368152D02*
X5160714Y-28463390D01*
X5160714Y-28463390D02*
X5113095Y-28511009D01*
X5113095Y-28511009D02*
X5017857Y-28558628D01*
X5017857Y-28558628D02*
X4636905Y-28558628D01*
X6160714Y-29034819D02*
X5589286Y-29034819D01*
X5875000Y-29034819D02*
X5875000Y-28034819D01*
X5875000Y-28034819D02*
X5779762Y-28177676D01*
X5779762Y-28177676D02*
X5684524Y-28272914D01*
X5684524Y-28272914D02*
X5589286Y-28320533D01*
X48498095Y-3264820D02*
X48498095Y-4074343D01*
X48498095Y-4074343D02*
X48545714Y-4169581D01*
X48545714Y-4169581D02*
X48593333Y-4217201D01*
X48593333Y-4217201D02*
X48688571Y-4264820D01*
X48688571Y-4264820D02*
X48879047Y-4264820D01*
X48879047Y-4264820D02*
X48974285Y-4217201D01*
X48974285Y-4217201D02*
X49021904Y-4169581D01*
X49021904Y-4169581D02*
X49069523Y-4074343D01*
X49069523Y-4074343D02*
X49069523Y-3264820D01*
X49974285Y-3598153D02*
X49974285Y-4264820D01*
X49736190Y-3217201D02*
X49498095Y-3931486D01*
X49498095Y-3931486D02*
X50117142Y-3931486D01*
X35764580Y-36892857D02*
X35812200Y-36940476D01*
X35812200Y-36940476D02*
X35859819Y-37083333D01*
X35859819Y-37083333D02*
X35859819Y-37178571D01*
X35859819Y-37178571D02*
X35812200Y-37321428D01*
X35812200Y-37321428D02*
X35716961Y-37416666D01*
X35716961Y-37416666D02*
X35621723Y-37464285D01*
X35621723Y-37464285D02*
X35431247Y-37511904D01*
X35431247Y-37511904D02*
X35288390Y-37511904D01*
X35288390Y-37511904D02*
X35097914Y-37464285D01*
X35097914Y-37464285D02*
X35002676Y-37416666D01*
X35002676Y-37416666D02*
X34907438Y-37321428D01*
X34907438Y-37321428D02*
X34859819Y-37178571D01*
X34859819Y-37178571D02*
X34859819Y-37083333D01*
X34859819Y-37083333D02*
X34907438Y-36940476D01*
X34907438Y-36940476D02*
X34955057Y-36892857D01*
X35859819Y-35940476D02*
X35859819Y-36511904D01*
X35859819Y-36226190D02*
X34859819Y-36226190D01*
X34859819Y-36226190D02*
X35002676Y-36321428D01*
X35002676Y-36321428D02*
X35097914Y-36416666D01*
X35097914Y-36416666D02*
X35145533Y-36511904D01*
X34859819Y-35035714D02*
X34859819Y-35511904D01*
X34859819Y-35511904D02*
X35336009Y-35559523D01*
X35336009Y-35559523D02*
X35288390Y-35511904D01*
X35288390Y-35511904D02*
X35240771Y-35416666D01*
X35240771Y-35416666D02*
X35240771Y-35178571D01*
X35240771Y-35178571D02*
X35288390Y-35083333D01*
X35288390Y-35083333D02*
X35336009Y-35035714D01*
X35336009Y-35035714D02*
X35431247Y-34988095D01*
X35431247Y-34988095D02*
X35669342Y-34988095D01*
X35669342Y-34988095D02*
X35764580Y-35035714D01*
X35764580Y-35035714D02*
X35812200Y-35083333D01*
X35812200Y-35083333D02*
X35859819Y-35178571D01*
X35859819Y-35178571D02*
X35859819Y-35416666D01*
X35859819Y-35416666D02*
X35812200Y-35511904D01*
X35812200Y-35511904D02*
X35764580Y-35559523D01*
X16638095Y38887180D02*
X16638095Y38077657D01*
X16638095Y38077657D02*
X16685714Y37982419D01*
X16685714Y37982419D02*
X16733333Y37934800D01*
X16733333Y37934800D02*
X16828571Y37887180D01*
X16828571Y37887180D02*
X17019047Y37887180D01*
X17019047Y37887180D02*
X17114285Y37934800D01*
X17114285Y37934800D02*
X17161904Y37982419D01*
X17161904Y37982419D02*
X17209523Y38077657D01*
X17209523Y38077657D02*
X17209523Y38887180D01*
X18209523Y37887180D02*
X17638095Y37887180D01*
X17923809Y37887180D02*
X17923809Y38887180D01*
X17923809Y38887180D02*
X17828571Y38744323D01*
X17828571Y38744323D02*
X17733333Y38649085D01*
X17733333Y38649085D02*
X17638095Y38601466D01*
X18750156Y-20546289D02*
X18797775Y-20403432D01*
X18797775Y-20403432D02*
X18797775Y-20165337D01*
X18797775Y-20165337D02*
X18750156Y-20070099D01*
X18750156Y-20070099D02*
X18702536Y-20022480D01*
X18702536Y-20022480D02*
X18607298Y-19974861D01*
X18607298Y-19974861D02*
X18512060Y-19974861D01*
X18512060Y-19974861D02*
X18416822Y-20022480D01*
X18416822Y-20022480D02*
X18369203Y-20070099D01*
X18369203Y-20070099D02*
X18321584Y-20165337D01*
X18321584Y-20165337D02*
X18273965Y-20355813D01*
X18273965Y-20355813D02*
X18226346Y-20451051D01*
X18226346Y-20451051D02*
X18178727Y-20498670D01*
X18178727Y-20498670D02*
X18083489Y-20546289D01*
X18083489Y-20546289D02*
X17988251Y-20546289D01*
X17988251Y-20546289D02*
X17893013Y-20498670D01*
X17893013Y-20498670D02*
X17845394Y-20451051D01*
X17845394Y-20451051D02*
X17797775Y-20355813D01*
X17797775Y-20355813D02*
X17797775Y-20117718D01*
X17797775Y-20117718D02*
X17845394Y-19974861D01*
X17797775Y-19641527D02*
X18797775Y-19403432D01*
X18797775Y-19403432D02*
X18083489Y-19212956D01*
X18083489Y-19212956D02*
X18797775Y-19022480D01*
X18797775Y-19022480D02*
X17797775Y-18784385D01*
X17797775Y-18498670D02*
X17797775Y-17879623D01*
X17797775Y-17879623D02*
X18178727Y-18212956D01*
X18178727Y-18212956D02*
X18178727Y-18070099D01*
X18178727Y-18070099D02*
X18226346Y-17974861D01*
X18226346Y-17974861D02*
X18273965Y-17927242D01*
X18273965Y-17927242D02*
X18369203Y-17879623D01*
X18369203Y-17879623D02*
X18607298Y-17879623D01*
X18607298Y-17879623D02*
X18702536Y-17927242D01*
X18702536Y-17927242D02*
X18750156Y-17974861D01*
X18750156Y-17974861D02*
X18797775Y-18070099D01*
X18797775Y-18070099D02*
X18797775Y-18355813D01*
X18797775Y-18355813D02*
X18750156Y-18451051D01*
X18750156Y-18451051D02*
X18702536Y-18498670D01*
X42214819Y13314761D02*
X41738628Y12981428D01*
X42214819Y12743333D02*
X41214819Y12743333D01*
X41214819Y12743333D02*
X41214819Y13124285D01*
X41214819Y13124285D02*
X41262438Y13219523D01*
X41262438Y13219523D02*
X41310057Y13267142D01*
X41310057Y13267142D02*
X41405295Y13314761D01*
X41405295Y13314761D02*
X41548152Y13314761D01*
X41548152Y13314761D02*
X41643390Y13267142D01*
X41643390Y13267142D02*
X41691009Y13219523D01*
X41691009Y13219523D02*
X41738628Y13124285D01*
X41738628Y13124285D02*
X41738628Y12743333D01*
X41214819Y13600476D02*
X42214819Y13933809D01*
X42214819Y13933809D02*
X41214819Y14267142D01*
X41214819Y15076666D02*
X41214819Y14600476D01*
X41214819Y14600476D02*
X41691009Y14552857D01*
X41691009Y14552857D02*
X41643390Y14600476D01*
X41643390Y14600476D02*
X41595771Y14695714D01*
X41595771Y14695714D02*
X41595771Y14933809D01*
X41595771Y14933809D02*
X41643390Y15029047D01*
X41643390Y15029047D02*
X41691009Y15076666D01*
X41691009Y15076666D02*
X41786247Y15124285D01*
X41786247Y15124285D02*
X42024342Y15124285D01*
X42024342Y15124285D02*
X42119580Y15076666D01*
X42119580Y15076666D02*
X42167200Y15029047D01*
X42167200Y15029047D02*
X42214819Y14933809D01*
X42214819Y14933809D02*
X42214819Y14695714D01*
X42214819Y14695714D02*
X42167200Y14600476D01*
X42167200Y14600476D02*
X42119580Y14552857D01*
X54706666Y-36444820D02*
X54706666Y-37159105D01*
X54706666Y-37159105D02*
X54659047Y-37301962D01*
X54659047Y-37301962D02*
X54563809Y-37397201D01*
X54563809Y-37397201D02*
X54420952Y-37444820D01*
X54420952Y-37444820D02*
X54325714Y-37444820D01*
X55611428Y-36778153D02*
X55611428Y-37444820D01*
X55373333Y-36397201D02*
X55135238Y-37111486D01*
X55135238Y-37111486D02*
X55754285Y-37111486D01*
X16286905Y-29054819D02*
X16286905Y-28054819D01*
X16286905Y-28054819D02*
X16667857Y-28054819D01*
X16667857Y-28054819D02*
X16763095Y-28102438D01*
X16763095Y-28102438D02*
X16810714Y-28150057D01*
X16810714Y-28150057D02*
X16858333Y-28245295D01*
X16858333Y-28245295D02*
X16858333Y-28388152D01*
X16858333Y-28388152D02*
X16810714Y-28483390D01*
X16810714Y-28483390D02*
X16763095Y-28531009D01*
X16763095Y-28531009D02*
X16667857Y-28578628D01*
X16667857Y-28578628D02*
X16286905Y-28578628D01*
X17239286Y-28150057D02*
X17286905Y-28102438D01*
X17286905Y-28102438D02*
X17382143Y-28054819D01*
X17382143Y-28054819D02*
X17620238Y-28054819D01*
X17620238Y-28054819D02*
X17715476Y-28102438D01*
X17715476Y-28102438D02*
X17763095Y-28150057D01*
X17763095Y-28150057D02*
X17810714Y-28245295D01*
X17810714Y-28245295D02*
X17810714Y-28340533D01*
X17810714Y-28340533D02*
X17763095Y-28483390D01*
X17763095Y-28483390D02*
X17191667Y-29054819D01*
X17191667Y-29054819D02*
X17810714Y-29054819D01*
X45719580Y-617857D02*
X45767200Y-665476D01*
X45767200Y-665476D02*
X45814819Y-808333D01*
X45814819Y-808333D02*
X45814819Y-903571D01*
X45814819Y-903571D02*
X45767200Y-1046428D01*
X45767200Y-1046428D02*
X45671961Y-1141666D01*
X45671961Y-1141666D02*
X45576723Y-1189285D01*
X45576723Y-1189285D02*
X45386247Y-1236904D01*
X45386247Y-1236904D02*
X45243390Y-1236904D01*
X45243390Y-1236904D02*
X45052914Y-1189285D01*
X45052914Y-1189285D02*
X44957676Y-1141666D01*
X44957676Y-1141666D02*
X44862438Y-1046428D01*
X44862438Y-1046428D02*
X44814819Y-903571D01*
X44814819Y-903571D02*
X44814819Y-808333D01*
X44814819Y-808333D02*
X44862438Y-665476D01*
X44862438Y-665476D02*
X44910057Y-617857D01*
X45814819Y334523D02*
X45814819Y-236904D01*
X45814819Y48809D02*
X44814819Y48809D01*
X44814819Y48809D02*
X44957676Y-46428D01*
X44957676Y-46428D02*
X45052914Y-141666D01*
X45052914Y-141666D02*
X45100533Y-236904D01*
X44814819Y1191666D02*
X44814819Y1001190D01*
X44814819Y1001190D02*
X44862438Y905952D01*
X44862438Y905952D02*
X44910057Y858333D01*
X44910057Y858333D02*
X45052914Y763095D01*
X45052914Y763095D02*
X45243390Y715476D01*
X45243390Y715476D02*
X45624342Y715476D01*
X45624342Y715476D02*
X45719580Y763095D01*
X45719580Y763095D02*
X45767200Y810714D01*
X45767200Y810714D02*
X45814819Y905952D01*
X45814819Y905952D02*
X45814819Y1096428D01*
X45814819Y1096428D02*
X45767200Y1191666D01*
X45767200Y1191666D02*
X45719580Y1239285D01*
X45719580Y1239285D02*
X45624342Y1286904D01*
X45624342Y1286904D02*
X45386247Y1286904D01*
X45386247Y1286904D02*
X45291009Y1239285D01*
X45291009Y1239285D02*
X45243390Y1191666D01*
X45243390Y1191666D02*
X45195771Y1096428D01*
X45195771Y1096428D02*
X45195771Y905952D01*
X45195771Y905952D02*
X45243390Y810714D01*
X45243390Y810714D02*
X45291009Y763095D01*
X45291009Y763095D02*
X45386247Y715476D01*
X26578096Y-38124820D02*
X26578096Y-38934343D01*
X26578096Y-38934343D02*
X26625715Y-39029581D01*
X26625715Y-39029581D02*
X26673334Y-39077201D01*
X26673334Y-39077201D02*
X26768572Y-39124820D01*
X26768572Y-39124820D02*
X26959048Y-39124820D01*
X26959048Y-39124820D02*
X27054286Y-39077201D01*
X27054286Y-39077201D02*
X27101905Y-39029581D01*
X27101905Y-39029581D02*
X27149524Y-38934343D01*
X27149524Y-38934343D02*
X27149524Y-38124820D01*
X27578096Y-38220058D02*
X27625715Y-38172439D01*
X27625715Y-38172439D02*
X27720953Y-38124820D01*
X27720953Y-38124820D02*
X27959048Y-38124820D01*
X27959048Y-38124820D02*
X28054286Y-38172439D01*
X28054286Y-38172439D02*
X28101905Y-38220058D01*
X28101905Y-38220058D02*
X28149524Y-38315296D01*
X28149524Y-38315296D02*
X28149524Y-38410534D01*
X28149524Y-38410534D02*
X28101905Y-38553391D01*
X28101905Y-38553391D02*
X27530477Y-39124820D01*
X27530477Y-39124820D02*
X28149524Y-39124820D01*
X-1720180Y31791667D02*
X-1005895Y31791667D01*
X-1005895Y31791667D02*
X-863038Y31744048D01*
X-863038Y31744048D02*
X-767800Y31648810D01*
X-767800Y31648810D02*
X-720180Y31505953D01*
X-720180Y31505953D02*
X-720180Y31410715D01*
X-720180Y32791667D02*
X-720180Y32220239D01*
X-720180Y32505953D02*
X-1720180Y32505953D01*
X-1720180Y32505953D02*
X-1577323Y32410715D01*
X-1577323Y32410715D02*
X-1482085Y32315477D01*
X-1482085Y32315477D02*
X-1434466Y32220239D01*
X-1635181Y10690476D02*
X-920896Y10690476D01*
X-920896Y10690476D02*
X-778039Y10642857D01*
X-778039Y10642857D02*
X-682801Y10547619D01*
X-682801Y10547619D02*
X-635181Y10404762D01*
X-635181Y10404762D02*
X-635181Y10309524D01*
X-635181Y11690476D02*
X-635181Y11119048D01*
X-635181Y11404762D02*
X-1635181Y11404762D01*
X-1635181Y11404762D02*
X-1492324Y11309524D01*
X-1492324Y11309524D02*
X-1397086Y11214286D01*
X-1397086Y11214286D02*
X-1349467Y11119048D01*
X-1635181Y12309524D02*
X-1635181Y12404762D01*
X-1635181Y12404762D02*
X-1587562Y12500000D01*
X-1587562Y12500000D02*
X-1539943Y12547619D01*
X-1539943Y12547619D02*
X-1444705Y12595238D01*
X-1444705Y12595238D02*
X-1254229Y12642857D01*
X-1254229Y12642857D02*
X-1016134Y12642857D01*
X-1016134Y12642857D02*
X-825658Y12595238D01*
X-825658Y12595238D02*
X-730420Y12547619D01*
X-730420Y12547619D02*
X-682801Y12500000D01*
X-682801Y12500000D02*
X-635181Y12404762D01*
X-635181Y12404762D02*
X-635181Y12309524D01*
X-635181Y12309524D02*
X-682801Y12214286D01*
X-682801Y12214286D02*
X-730420Y12166667D01*
X-730420Y12166667D02*
X-825658Y12119048D01*
X-825658Y12119048D02*
X-1016134Y12071429D01*
X-1016134Y12071429D02*
X-1254229Y12071429D01*
X-1254229Y12071429D02*
X-1444705Y12119048D01*
X-1444705Y12119048D02*
X-1539943Y12166667D01*
X-1539943Y12166667D02*
X-1587562Y12214286D01*
X-1587562Y12214286D02*
X-1635181Y12309524D01*
X18415990Y19404761D02*
X18368371Y19261904D01*
X18368371Y19261904D02*
X18320752Y19214285D01*
X18320752Y19214285D02*
X18225514Y19166666D01*
X18225514Y19166666D02*
X18082657Y19166666D01*
X18082657Y19166666D02*
X17987419Y19214285D01*
X17987419Y19214285D02*
X17939800Y19261904D01*
X17939800Y19261904D02*
X17892180Y19357142D01*
X17892180Y19357142D02*
X17892180Y19738094D01*
X17892180Y19738094D02*
X18892180Y19738094D01*
X18892180Y19738094D02*
X18892180Y19404761D01*
X18892180Y19404761D02*
X18844561Y19309523D01*
X18844561Y19309523D02*
X18796942Y19261904D01*
X18796942Y19261904D02*
X18701704Y19214285D01*
X18701704Y19214285D02*
X18606466Y19214285D01*
X18606466Y19214285D02*
X18511228Y19261904D01*
X18511228Y19261904D02*
X18463609Y19309523D01*
X18463609Y19309523D02*
X18415990Y19404761D01*
X18415990Y19404761D02*
X18415990Y19738094D01*
X17892180Y18214285D02*
X17892180Y18785713D01*
X17892180Y18499999D02*
X18892180Y18499999D01*
X18892180Y18499999D02*
X18749323Y18595237D01*
X18749323Y18595237D02*
X18654085Y18690475D01*
X18654085Y18690475D02*
X18606466Y18785713D01*
X76894761Y37605180D02*
X76561428Y38081371D01*
X76323333Y37605180D02*
X76323333Y38605180D01*
X76323333Y38605180D02*
X76704285Y38605180D01*
X76704285Y38605180D02*
X76799523Y38557561D01*
X76799523Y38557561D02*
X76847142Y38509942D01*
X76847142Y38509942D02*
X76894761Y38414704D01*
X76894761Y38414704D02*
X76894761Y38271847D01*
X76894761Y38271847D02*
X76847142Y38176609D01*
X76847142Y38176609D02*
X76799523Y38128990D01*
X76799523Y38128990D02*
X76704285Y38081371D01*
X76704285Y38081371D02*
X76323333Y38081371D01*
X77180476Y38605180D02*
X77513809Y37605180D01*
X77513809Y37605180D02*
X77847142Y38605180D01*
X78085238Y38605180D02*
X78704285Y38605180D01*
X78704285Y38605180D02*
X78370952Y38224228D01*
X78370952Y38224228D02*
X78513809Y38224228D01*
X78513809Y38224228D02*
X78609047Y38176609D01*
X78609047Y38176609D02*
X78656666Y38128990D01*
X78656666Y38128990D02*
X78704285Y38033752D01*
X78704285Y38033752D02*
X78704285Y37795657D01*
X78704285Y37795657D02*
X78656666Y37700419D01*
X78656666Y37700419D02*
X78609047Y37652800D01*
X78609047Y37652800D02*
X78513809Y37605180D01*
X78513809Y37605180D02*
X78228095Y37605180D01*
X78228095Y37605180D02*
X78132857Y37652800D01*
X78132857Y37652800D02*
X78085238Y37700419D01*
X33147240Y-32538957D02*
X33147240Y-32606301D01*
X33147240Y-32606301D02*
X33079896Y-32740988D01*
X33079896Y-32740988D02*
X33012553Y-32808331D01*
X33012553Y-32808331D02*
X32877866Y-32875675D01*
X32877866Y-32875675D02*
X32743179Y-32875675D01*
X32743179Y-32875675D02*
X32642164Y-32842003D01*
X32642164Y-32842003D02*
X32473805Y-32740988D01*
X32473805Y-32740988D02*
X32372790Y-32639973D01*
X32372790Y-32639973D02*
X32271774Y-32471614D01*
X32271774Y-32471614D02*
X32238103Y-32370599D01*
X32238103Y-32370599D02*
X32238103Y-32235912D01*
X32238103Y-32235912D02*
X32305446Y-32101225D01*
X32305446Y-32101225D02*
X32372790Y-32033881D01*
X32372790Y-32033881D02*
X32507477Y-31966538D01*
X32507477Y-31966538D02*
X32574820Y-31966538D01*
X32743179Y-31663492D02*
X33180912Y-31225759D01*
X33180912Y-31225759D02*
X33214583Y-31730835D01*
X33214583Y-31730835D02*
X33315599Y-31629820D01*
X33315599Y-31629820D02*
X33416614Y-31596148D01*
X33416614Y-31596148D02*
X33483957Y-31596148D01*
X33483957Y-31596148D02*
X33584973Y-31629820D01*
X33584973Y-31629820D02*
X33753331Y-31798179D01*
X33753331Y-31798179D02*
X33787003Y-31899194D01*
X33787003Y-31899194D02*
X33787003Y-31966538D01*
X33787003Y-31966538D02*
X33753331Y-32067553D01*
X33753331Y-32067553D02*
X33551301Y-32269583D01*
X33551301Y-32269583D02*
X33450286Y-32303255D01*
X33450286Y-32303255D02*
X33382942Y-32303255D01*
X18711199Y-11042332D02*
X18758818Y-10899475D01*
X18758818Y-10899475D02*
X18758818Y-10661380D01*
X18758818Y-10661380D02*
X18711199Y-10566142D01*
X18711199Y-10566142D02*
X18663579Y-10518523D01*
X18663579Y-10518523D02*
X18568341Y-10470904D01*
X18568341Y-10470904D02*
X18473103Y-10470904D01*
X18473103Y-10470904D02*
X18377865Y-10518523D01*
X18377865Y-10518523D02*
X18330246Y-10566142D01*
X18330246Y-10566142D02*
X18282627Y-10661380D01*
X18282627Y-10661380D02*
X18235008Y-10851856D01*
X18235008Y-10851856D02*
X18187389Y-10947094D01*
X18187389Y-10947094D02*
X18139770Y-10994713D01*
X18139770Y-10994713D02*
X18044532Y-11042332D01*
X18044532Y-11042332D02*
X17949294Y-11042332D01*
X17949294Y-11042332D02*
X17854056Y-10994713D01*
X17854056Y-10994713D02*
X17806437Y-10947094D01*
X17806437Y-10947094D02*
X17758818Y-10851856D01*
X17758818Y-10851856D02*
X17758818Y-10613761D01*
X17758818Y-10613761D02*
X17806437Y-10470904D01*
X17758818Y-10137570D02*
X18758818Y-9899475D01*
X18758818Y-9899475D02*
X18044532Y-9708999D01*
X18044532Y-9708999D02*
X18758818Y-9518523D01*
X18758818Y-9518523D02*
X17758818Y-9280428D01*
X18758818Y-8375666D02*
X18758818Y-8947094D01*
X18758818Y-8661380D02*
X17758818Y-8661380D01*
X17758818Y-8661380D02*
X17901675Y-8756618D01*
X17901675Y-8756618D02*
X17996913Y-8851856D01*
X17996913Y-8851856D02*
X18044532Y-8947094D01*
X56359580Y-311666D02*
X56407200Y-359285D01*
X56407200Y-359285D02*
X56454819Y-502142D01*
X56454819Y-502142D02*
X56454819Y-597380D01*
X56454819Y-597380D02*
X56407200Y-740237D01*
X56407200Y-740237D02*
X56311961Y-835475D01*
X56311961Y-835475D02*
X56216723Y-883094D01*
X56216723Y-883094D02*
X56026247Y-930713D01*
X56026247Y-930713D02*
X55883390Y-930713D01*
X55883390Y-930713D02*
X55692914Y-883094D01*
X55692914Y-883094D02*
X55597676Y-835475D01*
X55597676Y-835475D02*
X55502438Y-740237D01*
X55502438Y-740237D02*
X55454819Y-597380D01*
X55454819Y-597380D02*
X55454819Y-502142D01*
X55454819Y-502142D02*
X55502438Y-359285D01*
X55502438Y-359285D02*
X55550057Y-311666D01*
X56454819Y640714D02*
X56454819Y69286D01*
X56454819Y355000D02*
X55454819Y355000D01*
X55454819Y355000D02*
X55597676Y259762D01*
X55597676Y259762D02*
X55692914Y164524D01*
X55692914Y164524D02*
X55740533Y69286D01*
X76449761Y25380180D02*
X76116428Y25856371D01*
X75878333Y25380180D02*
X75878333Y26380180D01*
X75878333Y26380180D02*
X76259285Y26380180D01*
X76259285Y26380180D02*
X76354523Y26332561D01*
X76354523Y26332561D02*
X76402142Y26284942D01*
X76402142Y26284942D02*
X76449761Y26189704D01*
X76449761Y26189704D02*
X76449761Y26046847D01*
X76449761Y26046847D02*
X76402142Y25951609D01*
X76402142Y25951609D02*
X76354523Y25903990D01*
X76354523Y25903990D02*
X76259285Y25856371D01*
X76259285Y25856371D02*
X75878333Y25856371D01*
X76735476Y26380180D02*
X77068809Y25380180D01*
X77068809Y25380180D02*
X77402142Y26380180D01*
X78164047Y26046847D02*
X78164047Y25380180D01*
X77925952Y26427800D02*
X77687857Y25713514D01*
X77687857Y25713514D02*
X78306904Y25713514D01*
D12*
%TO.C,G\u002A\u002A\u002A*%
G36*
X16166044Y7234123D02*
G01*
X16174788Y7219376D01*
X16173913Y7199050D01*
X16164083Y7178008D01*
X16157326Y7170010D01*
X16145343Y7161139D01*
X16134830Y7164328D01*
X16128272Y7170288D01*
X16119805Y7186321D01*
X16120288Y7204750D01*
X16127610Y7222012D01*
X16139660Y7234534D01*
X16154328Y7238752D01*
X16166044Y7234123D01*
G37*
G36*
X14148199Y6499800D02*
G01*
X14167836Y6487734D01*
X14180475Y6476071D01*
X14196707Y6457795D01*
X14204356Y6441266D01*
X14206469Y6419315D01*
X14206497Y6414822D01*
X14204350Y6389208D01*
X14196256Y6371038D01*
X14186415Y6359788D01*
X14167249Y6345109D01*
X14147200Y6335646D01*
X14145268Y6335143D01*
X14107241Y6332662D01*
X14073827Y6344020D01*
X14051684Y6361383D01*
X14032423Y6389177D01*
X14025799Y6418781D01*
X14030472Y6447607D01*
X14045105Y6473064D01*
X14068359Y6492564D01*
X14098892Y6503516D01*
X14125738Y6504567D01*
X14148199Y6499800D01*
G37*
G36*
X15017828Y6509029D02*
G01*
X15023376Y6502098D01*
X15036050Y6485620D01*
X15054188Y6461775D01*
X15076131Y6432739D01*
X15086018Y6419605D01*
X15111135Y6386954D01*
X15135410Y6356734D01*
X15156472Y6331805D01*
X15171957Y6315026D01*
X15175072Y6312087D01*
X15199768Y6290159D01*
X15180895Y6234061D01*
X15171702Y6204424D01*
X15164659Y6177376D01*
X15161085Y6158070D01*
X15160917Y6155944D01*
X15157629Y6126364D01*
X15150914Y6090301D01*
X15141689Y6050990D01*
X15130876Y6011665D01*
X15119394Y5975562D01*
X15108163Y5945914D01*
X15098103Y5925954D01*
X15094066Y5920864D01*
X15080317Y5913005D01*
X15058800Y5905596D01*
X15049302Y5903303D01*
X15028910Y5898246D01*
X14998789Y5889796D01*
X14963121Y5879165D01*
X14928769Y5868423D01*
X14892563Y5856963D01*
X14858916Y5846565D01*
X14831669Y5838398D01*
X14815095Y5833746D01*
X14794514Y5831664D01*
X14780040Y5835828D01*
X14774595Y5844487D01*
X14779925Y5854774D01*
X14784287Y5869409D01*
X14777975Y5891993D01*
X14772543Y5903365D01*
X14765701Y5913283D01*
X14755287Y5923598D01*
X14739136Y5936163D01*
X14715083Y5952830D01*
X14680969Y5975451D01*
X14678893Y5976816D01*
X14628971Y6012120D01*
X14571437Y6057173D01*
X14508049Y6110455D01*
X14440560Y6170446D01*
X14370729Y6235630D01*
X14303047Y6301753D01*
X14273072Y6332203D01*
X14252683Y6354426D01*
X14240692Y6370127D01*
X14235907Y6381007D01*
X14237141Y6388770D01*
X14239860Y6392237D01*
X14255521Y6401340D01*
X14282514Y6410328D01*
X14317530Y6418400D01*
X14357266Y6424754D01*
X14386678Y6427797D01*
X14463790Y6433885D01*
X14527529Y6439005D01*
X14579134Y6443272D01*
X14619842Y6446794D01*
X14650895Y6449681D01*
X14673531Y6452044D01*
X14688989Y6453995D01*
X14698275Y6455592D01*
X14720198Y6458600D01*
X14745852Y6459908D01*
X14749110Y6459903D01*
X14794156Y6462052D01*
X14846450Y6468593D01*
X14899633Y6478485D01*
X14947345Y6490689D01*
X14957738Y6494001D01*
X14984267Y6502308D01*
X15005098Y6507730D01*
X15016694Y6509384D01*
X15017828Y6509029D01*
G37*
G36*
X19772943Y7611372D02*
G01*
X19791592Y7576287D01*
X19817713Y7533293D01*
X19849183Y7485551D01*
X19883874Y7436223D01*
X19919663Y7388468D01*
X19940086Y7362739D01*
X19973996Y7322950D01*
X20016597Y7275939D01*
X20065524Y7224100D01*
X20118410Y7169830D01*
X20172889Y7115518D01*
X20226595Y7063560D01*
X20277163Y7016349D01*
X20321206Y6977158D01*
X20370077Y6936576D01*
X20426234Y6892500D01*
X20487236Y6846646D01*
X20550649Y6800729D01*
X20614033Y6756465D01*
X20674953Y6715568D01*
X20730970Y6679757D01*
X20779648Y6650745D01*
X20803128Y6637934D01*
X20824607Y6625899D01*
X20839447Y6615956D01*
X20844366Y6610410D01*
X20840071Y6602039D01*
X20829951Y6584732D01*
X20816029Y6561926D01*
X20813118Y6557251D01*
X20792224Y6523355D01*
X20769730Y6486115D01*
X20747206Y6448214D01*
X20726221Y6412333D01*
X20708347Y6381157D01*
X20695151Y6357366D01*
X20688569Y6344472D01*
X20676892Y6323644D01*
X20665476Y6315649D01*
X20655280Y6317343D01*
X20643438Y6328232D01*
X20639784Y6335519D01*
X20633493Y6345652D01*
X20619249Y6364118D01*
X20599033Y6388473D01*
X20574823Y6416275D01*
X20569379Y6422366D01*
X20542459Y6452536D01*
X20516899Y6481532D01*
X20495439Y6506222D01*
X20480821Y6523473D01*
X20479915Y6524577D01*
X20465641Y6540733D01*
X20442987Y6564750D01*
X20413529Y6595080D01*
X20378845Y6630177D01*
X20340514Y6668490D01*
X20300111Y6708473D01*
X20259216Y6748576D01*
X20219403Y6787253D01*
X20182253Y6822955D01*
X20149342Y6854134D01*
X20122246Y6879241D01*
X20102544Y6896730D01*
X20092966Y6904330D01*
X20074385Y6917032D01*
X20047647Y6935581D01*
X20016539Y6957341D01*
X19989140Y6976639D01*
X19927652Y7019503D01*
X19876580Y7053780D01*
X19834953Y7080105D01*
X19801797Y7099108D01*
X19797736Y7101241D01*
X19780673Y7110536D01*
X19754062Y7125574D01*
X19720952Y7144606D01*
X19684391Y7165887D01*
X19665981Y7176702D01*
X19625038Y7200526D01*
X19582327Y7224867D01*
X19542167Y7247296D01*
X19508877Y7265381D01*
X19500445Y7269821D01*
X19473228Y7284263D01*
X19451690Y7296207D01*
X19438609Y7304083D01*
X19435957Y7306279D01*
X19441027Y7317507D01*
X19455204Y7337153D01*
X19476943Y7363577D01*
X19504699Y7395138D01*
X19536924Y7430193D01*
X19572073Y7467104D01*
X19608602Y7504229D01*
X19644960Y7539928D01*
X19679607Y7572558D01*
X19710992Y7600481D01*
X19721391Y7609225D01*
X19759220Y7640431D01*
X19772943Y7611372D01*
G37*
G36*
X20920454Y9248352D02*
G01*
X20945388Y9247373D01*
X20961095Y9245767D01*
X20964610Y9244628D01*
X20974649Y9240797D01*
X20988526Y9238845D01*
X21009911Y9235756D01*
X21038027Y9229446D01*
X21068860Y9221104D01*
X21098392Y9211914D01*
X21122606Y9203065D01*
X21137489Y9195741D01*
X21139264Y9194304D01*
X21151574Y9189265D01*
X21160174Y9188937D01*
X21176794Y9185119D01*
X21185674Y9178977D01*
X21198751Y9169413D01*
X21205999Y9166898D01*
X21223441Y9161705D01*
X21250798Y9149009D01*
X21286189Y9129992D01*
X21327730Y9105840D01*
X21373537Y9077735D01*
X21421727Y9046860D01*
X21470418Y9014400D01*
X21517726Y8981538D01*
X21561769Y8949457D01*
X21600661Y8919342D01*
X21603324Y8917190D01*
X21634574Y8891963D01*
X21669702Y8863764D01*
X21701026Y8838757D01*
X21725152Y8818280D01*
X21756487Y8789758D01*
X21792927Y8755296D01*
X21832368Y8716992D01*
X21872703Y8676951D01*
X21911830Y8637272D01*
X21947643Y8600057D01*
X21978037Y8567407D01*
X22000909Y8541424D01*
X22009500Y8530761D01*
X22031214Y8502390D01*
X22055988Y8470235D01*
X22074860Y8445889D01*
X22097639Y8416138D01*
X22121393Y8384031D01*
X22148400Y8346437D01*
X22180937Y8300220D01*
X22186060Y8292887D01*
X22221005Y8238422D01*
X22254542Y8177910D01*
X22285491Y8114192D01*
X22312669Y8050106D01*
X22334893Y7988491D01*
X22350983Y7932189D01*
X22359755Y7884039D01*
X22360678Y7873413D01*
X22362073Y7851658D01*
X22363970Y7822731D01*
X22365388Y7801420D01*
X22366028Y7771732D01*
X22364437Y7743511D01*
X22362083Y7728282D01*
X22355051Y7709632D01*
X22340956Y7681104D01*
X22321102Y7644845D01*
X22296793Y7603008D01*
X22269329Y7557742D01*
X22240016Y7511199D01*
X22210156Y7465528D01*
X22181051Y7422879D01*
X22155689Y7387658D01*
X22062995Y7268579D01*
X21966619Y7155016D01*
X21868578Y7049157D01*
X21770887Y6953187D01*
X21684854Y6877011D01*
X21640698Y6842906D01*
X21601242Y6818097D01*
X21583801Y6809594D01*
X21534993Y6792299D01*
X21475573Y6776850D01*
X21409525Y6763828D01*
X21340837Y6753812D01*
X21273492Y6747387D01*
X21211477Y6745132D01*
X21158836Y6747621D01*
X21128686Y6752115D01*
X21089838Y6759654D01*
X21047642Y6769130D01*
X21012994Y6777913D01*
X20974975Y6788873D01*
X20940350Y6800681D01*
X20905453Y6814869D01*
X20866619Y6832971D01*
X20820184Y6856518D01*
X20801122Y6866507D01*
X20718827Y6910962D01*
X20647310Y6952074D01*
X20583643Y6991664D01*
X20524893Y7031557D01*
X20468129Y7073576D01*
X20467396Y7074141D01*
X20442175Y7094184D01*
X20411807Y7119275D01*
X20378109Y7147804D01*
X20342897Y7178167D01*
X20307993Y7208758D01*
X20275212Y7237968D01*
X20246373Y7264193D01*
X20223295Y7285826D01*
X20207795Y7301261D01*
X20201690Y7308891D01*
X20201687Y7308907D01*
X20196431Y7316154D01*
X20183009Y7331890D01*
X20163321Y7353955D01*
X20139267Y7380190D01*
X20133443Y7386453D01*
X20063479Y7467885D01*
X19998054Y7556566D01*
X19938859Y7649640D01*
X19887581Y7744245D01*
X19845908Y7837524D01*
X19816550Y7923020D01*
X19799823Y7993006D01*
X19788557Y8065113D01*
X19783129Y8135204D01*
X19783921Y8199145D01*
X19787909Y8235193D01*
X19795078Y8267762D01*
X19806633Y8300837D01*
X19823445Y8335723D01*
X19846393Y8373722D01*
X19876349Y8416140D01*
X19914189Y8464277D01*
X19960787Y8519440D01*
X20017018Y8582931D01*
X20033373Y8601018D01*
X20074320Y8645493D01*
X20120894Y8694982D01*
X20171366Y8747734D01*
X20224002Y8801996D01*
X20277073Y8856017D01*
X20328844Y8908046D01*
X20377586Y8956332D01*
X20421568Y8999122D01*
X20459056Y9034666D01*
X20488320Y9061212D01*
X20488327Y9061217D01*
X20536930Y9102791D01*
X20578091Y9135660D01*
X20614627Y9161586D01*
X20649346Y9182332D01*
X20685064Y9199659D01*
X20724594Y9215331D01*
X20746764Y9223129D01*
X20795657Y9237715D01*
X20839965Y9245715D01*
X20887412Y9248500D01*
X20889732Y9248525D01*
X20920454Y9248352D01*
G37*
G36*
X16169265Y7674655D02*
G01*
X16209788Y7622122D01*
X16242985Y7580114D01*
X16270186Y7547330D01*
X16292719Y7522470D01*
X16311914Y7504236D01*
X16329097Y7491326D01*
X16345599Y7482441D01*
X16362748Y7476282D01*
X16375393Y7473001D01*
X16402051Y7465539D01*
X16418964Y7456861D01*
X16430969Y7444337D01*
X16432761Y7441795D01*
X16440293Y7429902D01*
X16444331Y7419027D01*
X16444490Y7406257D01*
X16440384Y7388675D01*
X16431628Y7363363D01*
X16417839Y7327407D01*
X16417558Y7326685D01*
X16402556Y7287494D01*
X16386455Y7244436D01*
X16372022Y7204930D01*
X16367814Y7193142D01*
X16357396Y7164744D01*
X16348257Y7141707D01*
X16341795Y7127486D01*
X16340102Y7124848D01*
X16336945Y7120296D01*
X16339425Y7116868D01*
X16349630Y7114066D01*
X16369647Y7111393D01*
X16401568Y7108351D01*
X16413796Y7107289D01*
X16504643Y7093456D01*
X16599977Y7067785D01*
X16697503Y7031426D01*
X16794924Y6985528D01*
X16889942Y6931242D01*
X16980264Y6869716D01*
X17063591Y6802103D01*
X17109271Y6759092D01*
X17150252Y6716213D01*
X17181388Y6678566D01*
X17204791Y6642915D01*
X17222570Y6606021D01*
X17236834Y6564643D01*
X17237563Y6562157D01*
X17257628Y6467688D01*
X17264775Y6367949D01*
X17259340Y6263914D01*
X17241663Y6156558D01*
X17212079Y6046853D01*
X17170928Y5935774D01*
X17118546Y5824293D01*
X17055270Y5713384D01*
X16981439Y5604021D01*
X16897391Y5497177D01*
X16849270Y5442399D01*
X16823032Y5414514D01*
X16800564Y5392340D01*
X16783876Y5377778D01*
X16775706Y5372801D01*
X16764780Y5367212D01*
X16745648Y5354476D01*
X16721431Y5336743D01*
X16705198Y5324159D01*
X16664891Y5293442D01*
X16617999Y5259678D01*
X16567321Y5224712D01*
X16515664Y5190389D01*
X16465830Y5158555D01*
X16420621Y5131055D01*
X16382842Y5109734D01*
X16367809Y5102062D01*
X16329875Y5085764D01*
X16290334Y5072179D01*
X16256000Y5063624D01*
X16253673Y5063225D01*
X16218921Y5057340D01*
X16181904Y5050787D01*
X16157577Y5046289D01*
X16101491Y5038163D01*
X16046935Y5036097D01*
X15989076Y5040191D01*
X15923084Y5050544D01*
X15919587Y5051208D01*
X15865285Y5062952D01*
X15824498Y5074918D01*
X15796085Y5087449D01*
X15792291Y5089732D01*
X15770955Y5105668D01*
X15742430Y5130405D01*
X15709046Y5161601D01*
X15673132Y5196919D01*
X15637019Y5234016D01*
X15603034Y5270555D01*
X15573510Y5304195D01*
X15551661Y5331406D01*
X15475025Y5444612D01*
X15410930Y5562435D01*
X15359699Y5683796D01*
X15321654Y5807620D01*
X15297117Y5932833D01*
X15286410Y6058359D01*
X15289859Y6183121D01*
X15291363Y6199230D01*
X15310095Y6322561D01*
X15323544Y6373126D01*
X15340681Y6437562D01*
X15383464Y6544969D01*
X15438784Y6645514D01*
X15506983Y6739932D01*
X15580862Y6821485D01*
X15644736Y6881064D01*
X15709070Y6931659D01*
X15777651Y6975768D01*
X15854260Y7015889D01*
X15919191Y7044836D01*
X15934811Y7052590D01*
X15942388Y7058703D01*
X15942526Y7059287D01*
X15937766Y7065961D01*
X15924685Y7081424D01*
X15904960Y7103761D01*
X15880277Y7131055D01*
X15862817Y7150064D01*
X15830486Y7185248D01*
X15817723Y7199936D01*
X16075997Y7199936D01*
X16080225Y7171417D01*
X16086424Y7153055D01*
X16093838Y7143421D01*
X16107707Y7137301D01*
X16117574Y7134267D01*
X16150130Y7131035D01*
X16178466Y7141429D01*
X16201415Y7164749D01*
X16215505Y7193324D01*
X16220623Y7224687D01*
X16214098Y7251359D01*
X16198555Y7271663D01*
X16176618Y7283923D01*
X16150912Y7286462D01*
X16124062Y7277604D01*
X16105719Y7263455D01*
X16083657Y7232971D01*
X16075997Y7199936D01*
X15817723Y7199936D01*
X15807466Y7211740D01*
X15793192Y7231662D01*
X15787095Y7247145D01*
X15788607Y7260313D01*
X15797162Y7273294D01*
X15812190Y7288213D01*
X15823273Y7298253D01*
X15859155Y7330617D01*
X15857866Y7409611D01*
X15857868Y7449563D01*
X15858986Y7491021D01*
X15861016Y7531154D01*
X15863753Y7567133D01*
X15866994Y7596131D01*
X15870536Y7615314D01*
X15873123Y7621426D01*
X15882343Y7625761D01*
X15901563Y7632195D01*
X15925711Y7639086D01*
X15957377Y7647719D01*
X15989597Y7656879D01*
X16008929Y7662621D01*
X16034982Y7670047D01*
X16067866Y7678671D01*
X16097829Y7685996D01*
X16151038Y7698435D01*
X16169265Y7674655D01*
G37*
G36*
X19378854Y9525175D02*
G01*
X19392559Y9514363D01*
X19415888Y9493582D01*
X19448925Y9462747D01*
X19491758Y9421778D01*
X19544470Y9370594D01*
X19607147Y9309110D01*
X19679874Y9237246D01*
X19738753Y9178787D01*
X20064515Y8854800D01*
X20029482Y8817307D01*
X19990526Y8775007D01*
X19949821Y8729720D01*
X19908751Y8683086D01*
X19868702Y8636745D01*
X19831059Y8592341D01*
X19797208Y8551513D01*
X19768534Y8515905D01*
X19746425Y8487155D01*
X19732263Y8466907D01*
X19729108Y8461503D01*
X19711194Y8420818D01*
X19694268Y8371079D01*
X19680011Y8317867D01*
X19670104Y8266765D01*
X19669772Y8264502D01*
X19660547Y8200441D01*
X19604755Y8243942D01*
X19579723Y8264693D01*
X19547867Y8292932D01*
X19512529Y8325597D01*
X19477053Y8359628D01*
X19460641Y8375866D01*
X19423427Y8412543D01*
X19395095Y8439095D01*
X19374745Y8456310D01*
X19361480Y8464973D01*
X19357324Y8466331D01*
X19339761Y8462239D01*
X19313520Y8446368D01*
X19278620Y8418733D01*
X19235077Y8379352D01*
X19182909Y8328238D01*
X19122134Y8265408D01*
X19074709Y8214712D01*
X19051322Y8189882D01*
X19019899Y8157231D01*
X18981252Y8117567D01*
X18936200Y8071700D01*
X18885561Y8020438D01*
X18830149Y7964593D01*
X18770781Y7904973D01*
X18708274Y7842387D01*
X18643446Y7777645D01*
X18577111Y7711557D01*
X18510087Y7644931D01*
X18443191Y7578579D01*
X18377237Y7513307D01*
X18313045Y7449928D01*
X18251430Y7389249D01*
X18193207Y7332080D01*
X18139195Y7279231D01*
X18090209Y7231512D01*
X18047067Y7189731D01*
X18010584Y7154697D01*
X17981577Y7127222D01*
X17960863Y7108114D01*
X17949258Y7098182D01*
X17947130Y7096910D01*
X17937556Y7099524D01*
X17917198Y7106649D01*
X17888819Y7117210D01*
X17855181Y7130135D01*
X17819046Y7144350D01*
X17783178Y7158781D01*
X17750338Y7172354D01*
X17724778Y7183336D01*
X17617103Y7223519D01*
X17503097Y7252115D01*
X17426755Y7264074D01*
X17385440Y7269001D01*
X17341549Y7274215D01*
X17301836Y7278914D01*
X17284640Y7280941D01*
X17248885Y7285930D01*
X17212064Y7292329D01*
X17181687Y7298823D01*
X17179640Y7299339D01*
X17152553Y7304165D01*
X17116764Y7307690D01*
X17078202Y7309412D01*
X17060332Y7309450D01*
X17016477Y7310124D01*
X16986822Y7313780D01*
X16971178Y7320637D01*
X16969355Y7330918D01*
X16981162Y7344844D01*
X17006410Y7362635D01*
X17011857Y7365959D01*
X17038106Y7382635D01*
X17063160Y7400036D01*
X17077114Y7410768D01*
X17094428Y7423881D01*
X17108312Y7432206D01*
X17111212Y7433276D01*
X17122930Y7438614D01*
X17140928Y7449344D01*
X17148977Y7454670D01*
X17174042Y7471782D01*
X17200148Y7489601D01*
X17204620Y7492653D01*
X17225251Y7505220D01*
X17253452Y7520486D01*
X17283361Y7535290D01*
X17285373Y7536230D01*
X17305887Y7545988D01*
X17322198Y7554842D01*
X17336796Y7564866D01*
X17352174Y7578137D01*
X17370824Y7596734D01*
X17395239Y7622732D01*
X17415351Y7644551D01*
X17450423Y7682549D01*
X17490830Y7726109D01*
X17531842Y7770147D01*
X17568731Y7809574D01*
X17572587Y7813681D01*
X17606435Y7850205D01*
X17642670Y7890136D01*
X17677408Y7929140D01*
X17706761Y7962883D01*
X17712234Y7969318D01*
X17735061Y7995468D01*
X17765750Y8029407D01*
X17801863Y8068507D01*
X17840961Y8110134D01*
X17880605Y8151658D01*
X17896652Y8168251D01*
X17938841Y8211975D01*
X17987550Y8262929D01*
X18039393Y8317542D01*
X18090987Y8372245D01*
X18138949Y8423466D01*
X18158826Y8444841D01*
X18199920Y8489078D01*
X18248306Y8541052D01*
X18301243Y8597826D01*
X18355986Y8656458D01*
X18409795Y8714012D01*
X18459925Y8767546D01*
X18468910Y8777129D01*
X18512008Y8823213D01*
X18553951Y8868290D01*
X18593154Y8910642D01*
X18628034Y8948550D01*
X18657005Y8980293D01*
X18678483Y9004151D01*
X18687286Y9014163D01*
X18732681Y9066731D01*
X18721253Y9099336D01*
X18709824Y9131940D01*
X18740601Y9162716D01*
X18770539Y9189900D01*
X18808680Y9219420D01*
X18857243Y9252959D01*
X18873471Y9263600D01*
X18895311Y9278209D01*
X18915061Y9292096D01*
X18919440Y9295338D01*
X18947296Y9315600D01*
X18975457Y9334752D01*
X19000505Y9350589D01*
X19019025Y9360909D01*
X19024845Y9363335D01*
X19041086Y9371860D01*
X19051429Y9380297D01*
X19068947Y9393884D01*
X19080703Y9400378D01*
X19096168Y9408510D01*
X19117800Y9421379D01*
X19131672Y9430193D01*
X19170616Y9454805D01*
X19204153Y9474395D01*
X19229402Y9487294D01*
X19233438Y9489019D01*
X19246989Y9495392D01*
X19268819Y9506550D01*
X19294398Y9520174D01*
X19296447Y9521289D01*
X19344715Y9547576D01*
X19378854Y9525175D01*
G37*
G36*
X18929012Y7280887D02*
G01*
X18941352Y7280236D01*
X19044403Y7267492D01*
X19150689Y7241169D01*
X19259088Y7201675D01*
X19368475Y7149420D01*
X19477133Y7085198D01*
X19496967Y7073477D01*
X19524226Y7058791D01*
X19553032Y7044309D01*
X19553195Y7044230D01*
X19642172Y6998050D01*
X19737067Y6942779D01*
X19834402Y6880574D01*
X19930704Y6813594D01*
X19962947Y6789853D01*
X20013891Y6749859D01*
X20070304Y6702215D01*
X20130693Y6648439D01*
X20193559Y6590051D01*
X20257410Y6528568D01*
X20320749Y6465511D01*
X20382078Y6402396D01*
X20439905Y6340744D01*
X20492732Y6282072D01*
X20539064Y6227900D01*
X20577404Y6179746D01*
X20606258Y6139129D01*
X20610699Y6132139D01*
X20641695Y6081641D01*
X20673787Y6028401D01*
X20706002Y5974125D01*
X20737363Y5920517D01*
X20766895Y5869281D01*
X20793624Y5822123D01*
X20816574Y5780746D01*
X20834772Y5746857D01*
X20847240Y5722157D01*
X20852883Y5708781D01*
X20861601Y5691710D01*
X20867906Y5683958D01*
X20878206Y5668870D01*
X20885389Y5652086D01*
X20890473Y5636559D01*
X20899047Y5611113D01*
X20909779Y5579665D01*
X20918236Y5555109D01*
X20929055Y5521925D01*
X20936642Y5492712D01*
X20941649Y5463210D01*
X20944726Y5429166D01*
X20946528Y5386321D01*
X20947005Y5367184D01*
X20944529Y5250773D01*
X20931373Y5141979D01*
X20906998Y5037837D01*
X20870862Y4935387D01*
X20866040Y4923844D01*
X20851845Y4892631D01*
X20836163Y4863508D01*
X20816798Y4832935D01*
X20791554Y4797370D01*
X20768874Y4767170D01*
X20737736Y4725846D01*
X20703053Y4679069D01*
X20668895Y4632365D01*
X20639329Y4591265D01*
X20637287Y4588389D01*
X20607526Y4547441D01*
X20572643Y4501036D01*
X20536995Y4454891D01*
X20505105Y4414926D01*
X20471148Y4374900D01*
X20428686Y4327309D01*
X20379996Y4274512D01*
X20327352Y4218873D01*
X20273028Y4162749D01*
X20219301Y4108501D01*
X20168444Y4058492D01*
X20122732Y4015080D01*
X20098331Y3992833D01*
X20027032Y3929632D01*
X19964661Y3875439D01*
X19909652Y3829036D01*
X19860443Y3789203D01*
X19815470Y3754722D01*
X19773167Y3724372D01*
X19731969Y3696933D01*
X19690315Y3671187D01*
X19671507Y3660122D01*
X19583907Y3611210D01*
X19506196Y3572009D01*
X19437580Y3542205D01*
X19377260Y3521484D01*
X19324439Y3509531D01*
X19279899Y3506016D01*
X19254734Y3506744D01*
X19236615Y3508297D01*
X19229211Y3510349D01*
X19229189Y3510510D01*
X19232839Y3517908D01*
X19242650Y3535768D01*
X19257392Y3561898D01*
X19275833Y3594110D01*
X19290518Y3619510D01*
X19345017Y3714801D01*
X19392627Y3800964D01*
X19432957Y3877259D01*
X19465611Y3942945D01*
X19487580Y3991133D01*
X19509048Y4041028D01*
X19176830Y4366723D01*
X19117177Y4425111D01*
X19059316Y4481569D01*
X19004313Y4535069D01*
X18953235Y4584579D01*
X18907147Y4629070D01*
X18867119Y4667513D01*
X18834218Y4698876D01*
X18809510Y4722130D01*
X18794063Y4736246D01*
X18793002Y4737172D01*
X18741395Y4781926D01*
X18717541Y4772131D01*
X18705858Y4766263D01*
X18694624Y4757462D01*
X18681621Y4743353D01*
X18664627Y4721559D01*
X18644480Y4693959D01*
X18599144Y4631165D01*
X18552584Y4567051D01*
X18505613Y4502710D01*
X18459047Y4439235D01*
X18413698Y4377718D01*
X18370380Y4319251D01*
X18329907Y4264924D01*
X18293094Y4215833D01*
X18260753Y4173068D01*
X18233700Y4137721D01*
X18212747Y4110885D01*
X18198709Y4093654D01*
X18192398Y4087116D01*
X18192268Y4087087D01*
X18180991Y4092180D01*
X18160976Y4106593D01*
X18133580Y4129023D01*
X18100160Y4158170D01*
X18062073Y4192732D01*
X18020674Y4231409D01*
X17977322Y4272898D01*
X17933373Y4315901D01*
X17890183Y4359114D01*
X17849111Y4401237D01*
X17811512Y4440968D01*
X17778743Y4477007D01*
X17752161Y4508052D01*
X17748196Y4512936D01*
X17654061Y4638846D01*
X17571076Y4768023D01*
X17516580Y4866708D01*
X17494270Y4914304D01*
X17471347Y4970372D01*
X17449188Y5030877D01*
X17429166Y5091790D01*
X17412659Y5149079D01*
X17401041Y5198713D01*
X17398507Y5212763D01*
X17392910Y5245099D01*
X17387642Y5271855D01*
X17383371Y5289847D01*
X17381125Y5295785D01*
X17377154Y5306577D01*
X17373366Y5328895D01*
X17369989Y5359612D01*
X17367247Y5395601D01*
X17365371Y5433736D01*
X17364586Y5470891D01*
X17365119Y5503938D01*
X17365486Y5511197D01*
X17374255Y5604483D01*
X17389576Y5690266D01*
X17412582Y5774657D01*
X17416598Y5787063D01*
X17441837Y5856741D01*
X17469155Y5919717D01*
X17497488Y5973907D01*
X17525774Y6017233D01*
X17546541Y6041568D01*
X17564597Y6060465D01*
X17588948Y6087094D01*
X17616457Y6117972D01*
X17643988Y6149619D01*
X17645037Y6150842D01*
X17670187Y6180011D01*
X17702356Y6217059D01*
X17738849Y6258901D01*
X17776972Y6302447D01*
X17814031Y6344608D01*
X17818824Y6350046D01*
X17861051Y6398179D01*
X17911380Y6455953D01*
X17968470Y6521813D01*
X18030977Y6594198D01*
X18097559Y6671551D01*
X18166874Y6752311D01*
X18237577Y6834922D01*
X18308328Y6917823D01*
X18341464Y6956737D01*
X18390688Y7014023D01*
X18432434Y7061199D01*
X18468203Y7099732D01*
X18499492Y7131092D01*
X18527800Y7156750D01*
X18554627Y7178175D01*
X18581473Y7196836D01*
X18595210Y7205492D01*
X18654930Y7237688D01*
X18715107Y7260665D01*
X18778806Y7275083D01*
X18849087Y7281604D01*
X18929012Y7280887D01*
G37*
G36*
X14125528Y2096407D02*
G01*
X14179301Y2091366D01*
X14224499Y2084136D01*
X14270875Y2073001D01*
X14322954Y2057944D01*
X14375920Y2040564D01*
X14424958Y2022455D01*
X14465253Y2005215D01*
X14470992Y2002434D01*
X14498182Y1988199D01*
X14526209Y1971833D01*
X14556642Y1952222D01*
X14591050Y1928252D01*
X14631003Y1898808D01*
X14678073Y1862777D01*
X14733827Y1819043D01*
X14771330Y1789257D01*
X14800522Y1765992D01*
X14795586Y1637578D01*
X14794028Y1588644D01*
X14792980Y1538202D01*
X14792499Y1490811D01*
X14792643Y1451028D01*
X14793003Y1434285D01*
X14793864Y1400725D01*
X14794703Y1357004D01*
X14795449Y1307612D01*
X14796031Y1257039D01*
X14796265Y1228986D01*
X14797072Y1180273D01*
X14798707Y1130606D01*
X14800975Y1084324D01*
X14803675Y1045760D01*
X14805418Y1028158D01*
X14808429Y996507D01*
X14809723Y969541D01*
X14809177Y951109D01*
X14808043Y945997D01*
X14804632Y930035D01*
X14803003Y901848D01*
X14803045Y863742D01*
X14804648Y818023D01*
X14807701Y766996D01*
X14812092Y712964D01*
X14817711Y658236D01*
X14824447Y605115D01*
X14824456Y605048D01*
X14829881Y565846D01*
X14836410Y517617D01*
X14843307Y465873D01*
X14849830Y416122D01*
X14851257Y405111D01*
X14856911Y364799D01*
X14862773Y329051D01*
X14868314Y300663D01*
X14873014Y282428D01*
X14875133Y277626D01*
X14878669Y270277D01*
X14877326Y261838D01*
X14869731Y250631D01*
X14854510Y234979D01*
X14830289Y213202D01*
X14803832Y190516D01*
X14775277Y167048D01*
X14745239Y143589D01*
X14719361Y124523D01*
X14714998Y121498D01*
X14690996Y103826D01*
X14669242Y85652D01*
X14658104Y74783D01*
X14644149Y62116D01*
X14621371Y44417D01*
X14593381Y24412D01*
X14573821Y11274D01*
X14538978Y-11532D01*
X14497981Y-38416D01*
X14456909Y-65387D01*
X14433052Y-81076D01*
X14390463Y-108830D01*
X14353584Y-132092D01*
X14318650Y-153060D01*
X14281893Y-173929D01*
X14239546Y-196900D01*
X14187845Y-224169D01*
X14187693Y-224248D01*
X14148423Y-244277D01*
X14120371Y-257297D01*
X14102194Y-263843D01*
X14092548Y-264446D01*
X14090583Y-262835D01*
X14082064Y-251527D01*
X14064889Y-231744D01*
X14040814Y-205323D01*
X14011593Y-174096D01*
X13978982Y-139902D01*
X13944737Y-104573D01*
X13910613Y-69947D01*
X13878366Y-37859D01*
X13849750Y-10142D01*
X13841103Y-1989D01*
X13806728Y30071D01*
X13780787Y52554D01*
X13760701Y65554D01*
X13743892Y69163D01*
X13727784Y63470D01*
X13709797Y48571D01*
X13687357Y24556D01*
X13669198Y4144D01*
X13651492Y-15896D01*
X13634385Y-35703D01*
X13616823Y-56608D01*
X13597755Y-79940D01*
X13576129Y-107029D01*
X13550894Y-139205D01*
X13520998Y-177799D01*
X13485388Y-224138D01*
X13443014Y-279554D01*
X13394659Y-342967D01*
X13343012Y-410710D01*
X13299505Y-467664D01*
X13263431Y-514725D01*
X13234088Y-552787D01*
X13210770Y-582745D01*
X13192772Y-605494D01*
X13179389Y-621928D01*
X13169917Y-632941D01*
X13163653Y-639429D01*
X13159890Y-642287D01*
X13158656Y-642635D01*
X13152020Y-637349D01*
X13137457Y-622664D01*
X13116541Y-600342D01*
X13090836Y-572147D01*
X13061912Y-539841D01*
X13031339Y-505186D01*
X13000685Y-469945D01*
X12971520Y-435879D01*
X12945411Y-404752D01*
X12928685Y-384280D01*
X12910515Y-361465D01*
X12895706Y-342060D01*
X12882201Y-323015D01*
X12867947Y-301281D01*
X12850887Y-273810D01*
X12828965Y-237549D01*
X12822307Y-226457D01*
X12805324Y-198262D01*
X12789475Y-172147D01*
X12777558Y-152720D01*
X12775315Y-149119D01*
X12760153Y-122028D01*
X12743021Y-87056D01*
X12726684Y-50191D01*
X12713902Y-17417D01*
X12712043Y-11966D01*
X12704817Y7694D01*
X12698586Y20965D01*
X12697065Y23080D01*
X12691560Y33457D01*
X12683201Y55100D01*
X12672885Y85109D01*
X12661511Y120586D01*
X12649974Y158632D01*
X12639174Y196346D01*
X12630006Y230832D01*
X12623369Y259190D01*
X12622259Y264728D01*
X12616311Y293550D01*
X12610741Y316634D01*
X12606461Y330356D01*
X12605319Y332402D01*
X12602441Y342222D01*
X12602727Y343114D01*
X12602905Y352643D01*
X12601301Y372786D01*
X12598245Y399661D01*
X12597243Y407351D01*
X12588190Y512504D01*
X12589721Y611714D01*
X12594966Y661921D01*
X12599080Y692639D01*
X12602154Y717855D01*
X12603775Y734076D01*
X12603890Y737970D01*
X12605604Y747927D01*
X12611121Y768935D01*
X12619597Y798151D01*
X12630184Y832728D01*
X12642036Y869827D01*
X12652599Y901592D01*
X12667420Y945025D01*
X12678390Y976556D01*
X12686251Y998195D01*
X12691748Y1011952D01*
X12695622Y1019840D01*
X12697131Y1022143D01*
X12703111Y1032314D01*
X12713072Y1051247D01*
X12722784Y1070644D01*
X12772231Y1165047D01*
X12822977Y1248395D01*
X12877291Y1324260D01*
X12909817Y1364452D01*
X12937751Y1397708D01*
X12968902Y1434994D01*
X12997867Y1469836D01*
X13006453Y1480214D01*
X13043534Y1522867D01*
X13087512Y1569893D01*
X13134853Y1617765D01*
X13182020Y1662957D01*
X13225478Y1701939D01*
X13245019Y1718247D01*
X13275424Y1742962D01*
X13310689Y1771879D01*
X13344455Y1799778D01*
X13353130Y1806991D01*
X13395981Y1841705D01*
X13438947Y1874729D01*
X13479291Y1904074D01*
X13514278Y1927755D01*
X13541172Y1943784D01*
X13542178Y1944309D01*
X13556873Y1951982D01*
X13579876Y1964067D01*
X13606548Y1978125D01*
X13610098Y1979999D01*
X13636753Y1993388D01*
X13660394Y2004056D01*
X13676459Y2009964D01*
X13677927Y2010313D01*
X13694034Y2015658D01*
X13701440Y2020306D01*
X13713546Y2027273D01*
X13737182Y2036742D01*
X13769617Y2047862D01*
X13808118Y2059779D01*
X13849955Y2071640D01*
X13892394Y2082590D01*
X13924801Y2090089D01*
X13964212Y2095813D01*
X14013676Y2098716D01*
X14068884Y2098886D01*
X14125528Y2096407D01*
G37*
G36*
X16942053Y7194639D02*
G01*
X16981241Y7194118D01*
X17025075Y7194072D01*
X17061026Y7194461D01*
X17102323Y7193423D01*
X17154383Y7189307D01*
X17213767Y7182629D01*
X17277034Y7173908D01*
X17340743Y7163661D01*
X17401456Y7152407D01*
X17455730Y7140661D01*
X17500124Y7128942D01*
X17503561Y7127894D01*
X17533707Y7118603D01*
X17571724Y7106948D01*
X17611458Y7094816D01*
X17630470Y7089029D01*
X17666126Y7077597D01*
X17700608Y7065516D01*
X17728951Y7054573D01*
X17740961Y7049287D01*
X17762209Y7040038D01*
X17790970Y7028764D01*
X17823571Y7016755D01*
X17856339Y7005306D01*
X17885600Y6995708D01*
X17907682Y6989252D01*
X17917345Y6987248D01*
X17928804Y6984062D01*
X17949593Y6976518D01*
X17975619Y6966120D01*
X17980940Y6963894D01*
X18029789Y6945562D01*
X18071421Y6935495D01*
X18110160Y6932927D01*
X18140922Y6935606D01*
X18182362Y6941563D01*
X18166026Y6918117D01*
X18155385Y6904660D01*
X18136844Y6883057D01*
X18112592Y6855786D01*
X18084821Y6825328D01*
X18069681Y6809017D01*
X18035747Y6771887D01*
X17999357Y6730735D01*
X17964457Y6690102D01*
X17934992Y6654526D01*
X17929973Y6648260D01*
X17883329Y6590082D01*
X17841946Y6539768D01*
X17803207Y6494397D01*
X17764494Y6451042D01*
X17723187Y6406778D01*
X17676669Y6358679D01*
X17622321Y6303821D01*
X17616120Y6297616D01*
X17576775Y6257876D01*
X17539608Y6219599D01*
X17506274Y6184544D01*
X17478426Y6154471D01*
X17457718Y6131142D01*
X17445802Y6116316D01*
X17445784Y6116289D01*
X17425584Y6084788D01*
X17402610Y6044981D01*
X17378921Y6000857D01*
X17356578Y5956401D01*
X17337641Y5915603D01*
X17324170Y5882449D01*
X17322496Y5877635D01*
X17313449Y5852144D01*
X17305191Y5831396D01*
X17299908Y5820592D01*
X17296474Y5809555D01*
X17292216Y5787138D01*
X17287665Y5756554D01*
X17283351Y5721014D01*
X17283168Y5719316D01*
X17278733Y5679694D01*
X17274106Y5641026D01*
X17269867Y5608027D01*
X17266896Y5587281D01*
X17263440Y5558034D01*
X17260752Y5520784D01*
X17258848Y5478341D01*
X17257746Y5433512D01*
X17257462Y5389109D01*
X17258012Y5347940D01*
X17259413Y5312811D01*
X17261681Y5286535D01*
X17264833Y5271919D01*
X17265034Y5271506D01*
X17268401Y5258981D01*
X17266933Y5254252D01*
X17266020Y5245213D01*
X17267976Y5225825D01*
X17272125Y5199954D01*
X17277783Y5171468D01*
X17284271Y5144231D01*
X17289416Y5126504D01*
X17295100Y5107133D01*
X17302393Y5079719D01*
X17309061Y5052901D01*
X17316552Y5025085D01*
X17324471Y5001097D01*
X17330852Y4986625D01*
X17338280Y4969585D01*
X17345412Y4945752D01*
X17347612Y4936039D01*
X17355259Y4907066D01*
X17367343Y4871083D01*
X17382229Y4832101D01*
X17398288Y4794128D01*
X17413882Y4761175D01*
X17427381Y4737251D01*
X17430274Y4733101D01*
X17450137Y4704396D01*
X17474102Y4666601D01*
X17499740Y4623741D01*
X17524618Y4579842D01*
X17539252Y4552617D01*
X17564730Y4510381D01*
X17600585Y4460550D01*
X17645621Y4404515D01*
X17698640Y4343666D01*
X17758446Y4279393D01*
X17823842Y4213088D01*
X17869946Y4168449D01*
X17909559Y4130959D01*
X17948872Y4094057D01*
X17985603Y4059863D01*
X18017471Y4030497D01*
X18042192Y4008077D01*
X18051240Y4000065D01*
X18075668Y3978211D01*
X18090202Y3963630D01*
X18096414Y3954475D01*
X18095878Y3948898D01*
X18095316Y3948259D01*
X18088350Y3939655D01*
X18074106Y3920846D01*
X18053827Y3893547D01*
X18028758Y3859473D01*
X18000143Y3820340D01*
X17969225Y3777861D01*
X17937248Y3733751D01*
X17905457Y3689727D01*
X17875095Y3647501D01*
X17847404Y3608790D01*
X17823631Y3575308D01*
X17805019Y3548769D01*
X17795593Y3535044D01*
X17777622Y3507693D01*
X17763250Y3484365D01*
X17754211Y3467971D01*
X17751976Y3461973D01*
X17756997Y3448121D01*
X17771482Y3424904D01*
X17794571Y3393347D01*
X17825397Y3354478D01*
X17863100Y3309325D01*
X17906815Y3258914D01*
X17955679Y3204272D01*
X18008828Y3146426D01*
X18065400Y3086402D01*
X18084130Y3066856D01*
X18142531Y3006155D01*
X18091033Y2938503D01*
X18069582Y2909491D01*
X18050901Y2882698D01*
X18037202Y2861389D01*
X18031145Y2850074D01*
X18021433Y2833707D01*
X18004910Y2812687D01*
X17989748Y2796290D01*
X17969478Y2773384D01*
X17946707Y2743661D01*
X17926009Y2713133D01*
X17923998Y2709892D01*
X17905421Y2681456D01*
X17886020Y2654736D01*
X17869483Y2634759D01*
X17866970Y2632141D01*
X17853299Y2616924D01*
X17833558Y2593017D01*
X17810295Y2563584D01*
X17786052Y2531787D01*
X17783819Y2528797D01*
X17759537Y2497117D01*
X17728459Y2457918D01*
X17693430Y2414715D01*
X17657295Y2371022D01*
X17627105Y2335265D01*
X17592962Y2295285D01*
X17557823Y2254119D01*
X17524363Y2214904D01*
X17495260Y2180776D01*
X17474461Y2156363D01*
X17450430Y2128666D01*
X17425933Y2101667D01*
X17399339Y2073736D01*
X17369014Y2043248D01*
X17333325Y2008572D01*
X17290641Y1968080D01*
X17239327Y1920144D01*
X17215107Y1897675D01*
X17178539Y1864581D01*
X17140758Y1831741D01*
X17104944Y1801826D01*
X17074276Y1777509D01*
X17057488Y1765189D01*
X16991695Y1718950D01*
X16935709Y1678096D01*
X16886811Y1640419D01*
X16842278Y1603707D01*
X16799390Y1565749D01*
X16755427Y1524333D01*
X16727418Y1496921D01*
X16711437Y1483714D01*
X16700786Y1480202D01*
X16699233Y1481072D01*
X16692532Y1492341D01*
X16682200Y1515447D01*
X16668996Y1548252D01*
X16653677Y1588612D01*
X16637002Y1634387D01*
X16619727Y1683436D01*
X16602609Y1733617D01*
X16586406Y1782788D01*
X16571876Y1828809D01*
X16559776Y1869537D01*
X16552887Y1894799D01*
X16521895Y2030726D01*
X16495807Y2178584D01*
X16474801Y2336431D01*
X16459051Y2502327D01*
X16448735Y2674334D01*
X16444032Y2850510D01*
X16445117Y3028917D01*
X16446076Y3065765D01*
X16449002Y3155334D01*
X16452289Y3234041D01*
X16456204Y3305677D01*
X16461018Y3374031D01*
X16466998Y3442894D01*
X16474415Y3516055D01*
X16483534Y3597305D01*
X16484146Y3602554D01*
X16516377Y3839875D01*
X16557057Y4072848D01*
X16605810Y4300036D01*
X16662259Y4520001D01*
X16726026Y4731304D01*
X16796738Y4932505D01*
X16874014Y5122165D01*
X16893450Y5165706D01*
X16914630Y5211127D01*
X16937063Y5257167D01*
X16959554Y5301563D01*
X16980904Y5342051D01*
X16999914Y5376368D01*
X17015388Y5402250D01*
X17026128Y5417434D01*
X17027295Y5418688D01*
X17034751Y5429409D01*
X17046442Y5449853D01*
X17060392Y5476470D01*
X17067539Y5490869D01*
X17084365Y5524029D01*
X17102409Y5557396D01*
X17118471Y5585106D01*
X17122466Y5591503D01*
X17138002Y5618947D01*
X17154227Y5652631D01*
X17166443Y5682217D01*
X17178667Y5713329D01*
X17194524Y5751075D01*
X17211240Y5788911D01*
X17217120Y5801697D01*
X17272129Y5926122D01*
X17316615Y6040889D01*
X17350716Y6146393D01*
X17374573Y6243022D01*
X17374935Y6244811D01*
X17383915Y6299284D01*
X17389947Y6356962D01*
X17392908Y6414129D01*
X17392673Y6467071D01*
X17389119Y6512069D01*
X17384668Y6536540D01*
X17377097Y6569438D01*
X17369767Y6605053D01*
X17366875Y6620698D01*
X17357672Y6655241D01*
X17341402Y6690296D01*
X17316831Y6727699D01*
X17282732Y6769283D01*
X17237871Y6816882D01*
X17229748Y6825043D01*
X17153030Y6895125D01*
X17065808Y6963505D01*
X16971830Y7027728D01*
X16874842Y7085334D01*
X16778592Y7133865D01*
X16722600Y7157667D01*
X16703496Y7166068D01*
X16692341Y7172777D01*
X16691046Y7175328D01*
X16701150Y7178728D01*
X16723065Y7182281D01*
X16753961Y7185770D01*
X16790999Y7188974D01*
X16831347Y7191676D01*
X16872171Y7193659D01*
X16910633Y7194705D01*
X16942053Y7194639D01*
G37*
G36*
X16703248Y5153234D02*
G01*
X16704080Y5143751D01*
X16700441Y5124371D01*
X16692124Y5093271D01*
X16690542Y5087765D01*
X16681666Y5056274D01*
X16674379Y5028952D01*
X16669676Y5009600D01*
X16668508Y5003401D01*
X16664981Y4990037D01*
X16657238Y4967811D01*
X16646888Y4941307D01*
X16645843Y4938770D01*
X16634759Y4908092D01*
X16623118Y4869551D01*
X16612845Y4829725D01*
X16609474Y4814546D01*
X16601110Y4775623D01*
X16591951Y4734721D01*
X16583537Y4698649D01*
X16580727Y4687109D01*
X16574370Y4659199D01*
X16566560Y4621479D01*
X16558226Y4578598D01*
X16550292Y4535200D01*
X16549195Y4528941D01*
X16540825Y4484960D01*
X16531048Y4439971D01*
X16521019Y4398951D01*
X16511892Y4366883D01*
X16510978Y4364071D01*
X16501080Y4329332D01*
X16491312Y4286874D01*
X16483181Y4243568D01*
X16480194Y4223710D01*
X16473809Y4182138D01*
X16465678Y4137538D01*
X16457136Y4096982D01*
X16453218Y4080782D01*
X16446941Y4054941D01*
X16438481Y4018114D01*
X16428569Y3973676D01*
X16417935Y3924998D01*
X16407307Y3875456D01*
X16397413Y3828422D01*
X16388986Y3787273D01*
X16382754Y3755381D01*
X16382001Y3751322D01*
X16378941Y3735028D01*
X16374191Y3710152D01*
X16369550Y3686067D01*
X16364282Y3656646D01*
X16358167Y3619172D01*
X16352247Y3580124D01*
X16350214Y3565857D01*
X16343884Y3524263D01*
X16336048Y3478207D01*
X16328148Y3436062D01*
X16326194Y3426452D01*
X16321471Y3398236D01*
X16316477Y3358859D01*
X16311569Y3311796D01*
X16307106Y3260525D01*
X16303444Y3208522D01*
X16303006Y3201229D01*
X16299915Y3153414D01*
X16296529Y3109590D01*
X16293084Y3072214D01*
X16289814Y3043743D01*
X16286952Y3026635D01*
X16286134Y3023895D01*
X16283373Y3008910D01*
X16281345Y2980196D01*
X16280061Y2938656D01*
X16279527Y2885196D01*
X16279755Y2820719D01*
X16280754Y2746130D01*
X16282372Y2668942D01*
X16287029Y2585642D01*
X16296981Y2491061D01*
X16311782Y2387396D01*
X16330981Y2276847D01*
X16354131Y2161611D01*
X16380782Y2043888D01*
X16410485Y1925872D01*
X16442793Y1809765D01*
X16477256Y1697765D01*
X16486188Y1670567D01*
X16501154Y1627443D01*
X16518568Y1580266D01*
X16537515Y1531225D01*
X16557082Y1482504D01*
X16576351Y1436294D01*
X16594408Y1394781D01*
X16610341Y1360151D01*
X16623233Y1334593D01*
X16632169Y1320294D01*
X16633103Y1319265D01*
X16649574Y1310272D01*
X16672402Y1306175D01*
X16674849Y1306132D01*
X16690528Y1307383D01*
X16705430Y1312355D01*
X16723141Y1322876D01*
X16747251Y1340776D01*
X16755482Y1347238D01*
X16784139Y1371543D01*
X16812784Y1398574D01*
X16836014Y1423181D01*
X16839462Y1427269D01*
X16854626Y1444449D01*
X16871925Y1460968D01*
X16893807Y1478790D01*
X16922719Y1499876D01*
X16961109Y1526190D01*
X16971720Y1533311D01*
X17122102Y1640461D01*
X17271945Y1759834D01*
X17419124Y1889323D01*
X17561512Y2026816D01*
X17696985Y2170206D01*
X17823416Y2317383D01*
X17938679Y2466238D01*
X18000976Y2554571D01*
X18026927Y2592634D01*
X18055098Y2633675D01*
X18081866Y2672431D01*
X18101281Y2700316D01*
X18124413Y2734384D01*
X18151004Y2775149D01*
X18177188Y2816621D01*
X18192698Y2842018D01*
X18213525Y2876396D01*
X18234365Y2910199D01*
X18252601Y2939213D01*
X18264160Y2957052D01*
X18277037Y2978346D01*
X18285224Y2995735D01*
X18286948Y3004041D01*
X18281142Y3013090D01*
X18267181Y3029629D01*
X18247432Y3050953D01*
X18233133Y3065576D01*
X18217115Y3082351D01*
X18194032Y3107505D01*
X18165407Y3139295D01*
X18132762Y3175976D01*
X18097619Y3215806D01*
X18061499Y3257040D01*
X18025924Y3297935D01*
X17992417Y3336746D01*
X17962500Y3371730D01*
X17937694Y3401142D01*
X17919520Y3423239D01*
X17909503Y3436277D01*
X17909174Y3436764D01*
X17907113Y3441354D01*
X17907325Y3447338D01*
X17910717Y3456112D01*
X17918191Y3469074D01*
X17930651Y3487617D01*
X17949001Y3513140D01*
X17974145Y3547038D01*
X18006987Y3590708D01*
X18019881Y3607784D01*
X18072031Y3676824D01*
X18116029Y3735119D01*
X18152570Y3783605D01*
X18182351Y3823216D01*
X18206067Y3854889D01*
X18224415Y3879556D01*
X18238090Y3898154D01*
X18247787Y3911619D01*
X18254204Y3920884D01*
X18258036Y3926886D01*
X18259797Y3930154D01*
X18266331Y3940137D01*
X18279931Y3958414D01*
X18298324Y3981980D01*
X18311151Y3997949D01*
X18336295Y4029244D01*
X18363479Y4063767D01*
X18393867Y4103040D01*
X18428621Y4148583D01*
X18468904Y4201918D01*
X18515878Y4264564D01*
X18551344Y4312061D01*
X18598857Y4375657D01*
X18638435Y4428345D01*
X18670796Y4471042D01*
X18696655Y4504665D01*
X18716730Y4530132D01*
X18731738Y4548358D01*
X18742397Y4560262D01*
X18749422Y4566759D01*
X18751578Y4568157D01*
X18754973Y4568715D01*
X18760125Y4566923D01*
X18767934Y4561966D01*
X18779296Y4553028D01*
X18795113Y4539292D01*
X18816281Y4519940D01*
X18843701Y4494158D01*
X18878269Y4461127D01*
X18920886Y4420034D01*
X18972449Y4370059D01*
X19013518Y4330163D01*
X19065844Y4279404D01*
X19116622Y4230350D01*
X19164546Y4184243D01*
X19208315Y4142329D01*
X19246627Y4105853D01*
X19278177Y4076059D01*
X19301664Y4054191D01*
X19314388Y4042703D01*
X19364473Y3999019D01*
X19326845Y3929065D01*
X19293943Y3868147D01*
X19261192Y3807967D01*
X19229788Y3750696D01*
X19200931Y3698504D01*
X19175816Y3653561D01*
X19155643Y3618035D01*
X19146132Y3601674D01*
X19130721Y3574069D01*
X19117539Y3547826D01*
X19109215Y3528208D01*
X19108737Y3526768D01*
X19101733Y3510058D01*
X19089108Y3484691D01*
X19072851Y3454537D01*
X19060028Y3432055D01*
X19037983Y3393815D01*
X19013041Y3349737D01*
X18989201Y3306908D01*
X18979131Y3288525D01*
X18961103Y3255464D01*
X18943833Y3223944D01*
X18929581Y3198086D01*
X18922214Y3184850D01*
X18913902Y3169721D01*
X18899962Y3143977D01*
X18881644Y3109939D01*
X18860197Y3069932D01*
X18836870Y3026276D01*
X18826212Y3006289D01*
X18792176Y2943482D01*
X18761986Y2890766D01*
X18733407Y2845008D01*
X18704199Y2803081D01*
X18672128Y2761855D01*
X18634954Y2718201D01*
X18590440Y2668989D01*
X18567049Y2643802D01*
X18538842Y2613225D01*
X18503004Y2573794D01*
X18461509Y2527712D01*
X18416333Y2477188D01*
X18369454Y2424429D01*
X18322845Y2371640D01*
X18295422Y2340403D01*
X18245564Y2283511D01*
X18190446Y2220680D01*
X18132883Y2155114D01*
X18075690Y2090019D01*
X18021683Y2028599D01*
X17973677Y1974063D01*
X17961119Y1959809D01*
X17913146Y1905343D01*
X17859560Y1844455D01*
X17803484Y1780699D01*
X17748045Y1717627D01*
X17696368Y1658795D01*
X17655717Y1612477D01*
X17571812Y1516833D01*
X17497024Y1431609D01*
X17430815Y1356198D01*
X17372652Y1289996D01*
X17321997Y1232396D01*
X17278316Y1182792D01*
X17241073Y1140580D01*
X17209733Y1105153D01*
X17183760Y1075906D01*
X17162620Y1052234D01*
X17145774Y1033530D01*
X17132691Y1019190D01*
X17122831Y1008607D01*
X17115661Y1001176D01*
X17111827Y997402D01*
X17100574Y987349D01*
X17079494Y969174D01*
X17050043Y944107D01*
X17013676Y913377D01*
X16971845Y878214D01*
X16926007Y839845D01*
X16880818Y802167D01*
X16823683Y754560D01*
X16761414Y702572D01*
X16697072Y648768D01*
X16633719Y595709D01*
X16574416Y545959D01*
X16522226Y502082D01*
X16505771Y488219D01*
X16458901Y448733D01*
X16403570Y402162D01*
X16342543Y350834D01*
X16278589Y297074D01*
X16214475Y243210D01*
X16152971Y191569D01*
X16114568Y159344D01*
X16058342Y112149D01*
X15999378Y62603D01*
X15940087Y12738D01*
X15882882Y-35420D01*
X15830170Y-79838D01*
X15784367Y-118488D01*
X15754530Y-143711D01*
X15713111Y-178667D01*
X15672377Y-212863D01*
X15634640Y-244372D01*
X15602210Y-271270D01*
X15577396Y-291629D01*
X15568066Y-299156D01*
X15547265Y-316095D01*
X15517964Y-340428D01*
X15482757Y-369977D01*
X15444239Y-402562D01*
X15405002Y-436006D01*
X15399124Y-441039D01*
X15360639Y-473818D01*
X15326980Y-501876D01*
X15295919Y-526843D01*
X15265232Y-550354D01*
X15232690Y-574041D01*
X15196064Y-599537D01*
X15153131Y-628474D01*
X15101661Y-662484D01*
X15058357Y-690840D01*
X15028122Y-710610D01*
X14987258Y-737354D01*
X14937389Y-770008D01*
X14880138Y-807507D01*
X14817127Y-848788D01*
X14749981Y-892786D01*
X14680322Y-938440D01*
X14609773Y-984685D01*
X14539958Y-1030456D01*
X14472500Y-1074691D01*
X14409021Y-1116325D01*
X14351145Y-1154296D01*
X14329186Y-1168706D01*
X14245810Y-1222360D01*
X14168326Y-1269739D01*
X14092933Y-1312931D01*
X14015825Y-1354023D01*
X13933199Y-1395101D01*
X13841249Y-1438252D01*
X13820694Y-1447639D01*
X13773120Y-1468707D01*
X13721333Y-1490659D01*
X13667457Y-1512689D01*
X13613613Y-1533988D01*
X13561926Y-1553751D01*
X13514515Y-1571171D01*
X13473506Y-1585440D01*
X13441018Y-1595753D01*
X13419176Y-1601301D01*
X13414797Y-1601937D01*
X13410244Y-1600893D01*
X13402996Y-1596572D01*
X13392191Y-1588160D01*
X13376967Y-1574847D01*
X13356463Y-1555820D01*
X13329817Y-1530268D01*
X13296169Y-1497377D01*
X13254657Y-1456337D01*
X13204420Y-1406337D01*
X13156546Y-1358516D01*
X12911863Y-1113834D01*
X12961208Y-1051800D01*
X12985933Y-1020472D01*
X13018348Y-979021D01*
X13057269Y-928986D01*
X13101514Y-871903D01*
X13149896Y-809309D01*
X13201236Y-742743D01*
X13254346Y-673741D01*
X13308046Y-603840D01*
X13361150Y-534579D01*
X13412475Y-467494D01*
X13460837Y-404122D01*
X13505054Y-346002D01*
X13534708Y-306883D01*
X13567132Y-264184D01*
X13598666Y-222938D01*
X13627585Y-185385D01*
X13652162Y-153758D01*
X13670672Y-130296D01*
X13678012Y-121230D01*
X13711982Y-80084D01*
X13849293Y-216085D01*
X13894097Y-260465D01*
X13929657Y-295623D01*
X13957155Y-322634D01*
X13977777Y-342567D01*
X13992707Y-356497D01*
X14003127Y-365492D01*
X14010223Y-370627D01*
X14015178Y-372972D01*
X14019177Y-373601D01*
X14023279Y-373583D01*
X14037425Y-370159D01*
X14062485Y-360483D01*
X14096598Y-345477D01*
X14137900Y-326063D01*
X14184531Y-303164D01*
X14234627Y-277700D01*
X14286328Y-250596D01*
X14337773Y-222773D01*
X14387098Y-195154D01*
X14409062Y-182480D01*
X14481626Y-139024D01*
X14555241Y-92842D01*
X14628070Y-45225D01*
X14698278Y2537D01*
X14764029Y49154D01*
X14823487Y93337D01*
X14874816Y133796D01*
X14916180Y169242D01*
X14934642Y186755D01*
X14987834Y239891D01*
X14977690Y286048D01*
X14972719Y311307D01*
X14969833Y331309D01*
X14969594Y340870D01*
X14969544Y352063D01*
X14967463Y373183D01*
X14963797Y399710D01*
X14963689Y400406D01*
X14959110Y434161D01*
X14955406Y469421D01*
X14953724Y492596D01*
X14950756Y520893D01*
X14945416Y547320D01*
X14941865Y558444D01*
X14936073Y577632D01*
X14929821Y605770D01*
X14924333Y637252D01*
X14923648Y641944D01*
X14920774Y670114D01*
X14918204Y710766D01*
X14915980Y761731D01*
X14914146Y820841D01*
X14912743Y885927D01*
X14911815Y954820D01*
X14911404Y1025353D01*
X14911554Y1095357D01*
X14912307Y1162664D01*
X14912824Y1190133D01*
X14913680Y1240693D01*
X14914335Y1300779D01*
X14914757Y1365266D01*
X14914910Y1429030D01*
X14914778Y1483463D01*
X14914926Y1570708D01*
X14916455Y1645565D01*
X14919472Y1710245D01*
X14924079Y1766956D01*
X14930385Y1817910D01*
X14930822Y1820849D01*
X14933963Y1843728D01*
X14938163Y1877057D01*
X14942918Y1916713D01*
X14947726Y1958579D01*
X14948696Y1967278D01*
X14955697Y2029922D01*
X14962658Y2091376D01*
X14969319Y2149396D01*
X14975418Y2201732D01*
X14980693Y2246140D01*
X14984883Y2280373D01*
X14987629Y2301495D01*
X14990105Y2320440D01*
X14993779Y2349942D01*
X14998160Y2386000D01*
X15002758Y2424616D01*
X15002865Y2425519D01*
X15008362Y2470137D01*
X15013842Y2509066D01*
X15020033Y2546446D01*
X15027666Y2586422D01*
X15037471Y2633135D01*
X15047487Y2678665D01*
X15059212Y2730626D01*
X15068992Y2772042D01*
X15077824Y2806730D01*
X15086702Y2838501D01*
X15096620Y2871167D01*
X15102765Y2890543D01*
X15112125Y2920470D01*
X15119599Y2945727D01*
X15124123Y2962652D01*
X15124959Y2966967D01*
X15127476Y2978048D01*
X15133452Y2999418D01*
X15141844Y3027422D01*
X15146969Y3043887D01*
X15166834Y3108193D01*
X15183539Y3164989D01*
X15196416Y3211948D01*
X15202778Y3237661D01*
X15211913Y3272902D01*
X15225400Y3319145D01*
X15242342Y3373714D01*
X15261844Y3433932D01*
X15283005Y3497121D01*
X15304929Y3560606D01*
X15326719Y3621709D01*
X15347475Y3677754D01*
X15366303Y3726064D01*
X15367707Y3729533D01*
X15399944Y3807098D01*
X15430682Y3876672D01*
X15461882Y3942204D01*
X15495502Y4007645D01*
X15533503Y4076946D01*
X15577845Y4154060D01*
X15580692Y4158921D01*
X15606215Y4202550D01*
X15632002Y4246759D01*
X15656059Y4288120D01*
X15676390Y4323201D01*
X15689296Y4345600D01*
X15709560Y4378446D01*
X15735415Y4416814D01*
X15762965Y4455053D01*
X15780183Y4477471D01*
X15809299Y4514276D01*
X15842316Y4556201D01*
X15874157Y4596786D01*
X15889671Y4616643D01*
X15917141Y4650882D01*
X15950197Y4690596D01*
X15984426Y4730545D01*
X16011821Y4761528D01*
X16079497Y4836557D01*
X16141572Y4859716D01*
X16181409Y4874669D01*
X16211204Y4886166D01*
X16234685Y4895767D01*
X16255576Y4905026D01*
X16277606Y4915501D01*
X16291917Y4922522D01*
X16321834Y4936321D01*
X16353072Y4949247D01*
X16372192Y4956216D01*
X16410558Y4971358D01*
X16455875Y4993092D01*
X16503591Y5018931D01*
X16549154Y5046391D01*
X16588013Y5072985D01*
X16593262Y5076962D01*
X16618327Y5095681D01*
X16640771Y5111395D01*
X16656797Y5121479D01*
X16660038Y5123127D01*
X16674621Y5132857D01*
X16680753Y5140636D01*
X16691320Y5151546D01*
X16698152Y5154642D01*
X16703248Y5153234D01*
G37*
G36*
X19598636Y19193788D02*
G01*
X19676338Y19179109D01*
X19792080Y19134386D01*
X19949605Y19057802D01*
X20152660Y18947537D01*
X20402331Y18803341D01*
X20564970Y18710691D01*
X20767434Y18600324D01*
X20990955Y18482190D01*
X21216765Y18366240D01*
X21384374Y18282752D01*
X21970263Y17995773D01*
X21986461Y18149186D01*
X22005032Y18252471D01*
X22036137Y18303447D01*
X22059356Y18313355D01*
X22091135Y18310897D01*
X22108350Y18279172D01*
X22115187Y18204676D01*
X22116053Y18130557D01*
X22116053Y17937003D01*
X22261722Y17877097D01*
X22357189Y17829223D01*
X22399995Y17775487D01*
X22398043Y17697202D01*
X22372973Y17614037D01*
X22338311Y17514606D01*
X22203667Y17574888D01*
X22121502Y17608817D01*
X22068314Y17625397D01*
X22059055Y17625202D01*
X22046765Y17591684D01*
X22021863Y17509704D01*
X21988546Y17393384D01*
X21966709Y17314615D01*
X21913595Y17140373D01*
X21845277Y16943137D01*
X21774265Y16758477D01*
X21755118Y16712744D01*
X21625900Y16411490D01*
X21758331Y16291848D01*
X21938831Y16107213D01*
X22106950Y15895008D01*
X22252496Y15671004D01*
X22365276Y15450971D01*
X22435096Y15250679D01*
X22437300Y15241365D01*
X22469435Y14992471D01*
X22458649Y14734316D01*
X22406386Y14495581D01*
X22398676Y14473157D01*
X22283637Y14221983D01*
X22138345Y14024986D01*
X21964631Y13883958D01*
X21764330Y13800692D01*
X21695832Y13786682D01*
X21478866Y13779941D01*
X21286658Y13829601D01*
X21125391Y13932709D01*
X21001253Y14086304D01*
X20977950Y14129786D01*
X20941943Y14211881D01*
X20919151Y14293464D01*
X20906744Y14392887D01*
X20901890Y14528503D01*
X20901415Y14625993D01*
X20903479Y14788631D01*
X20911489Y14906094D01*
X20928650Y14997941D01*
X20958173Y15083736D01*
X20987204Y15149154D01*
X21045284Y15252546D01*
X21122372Y15362422D01*
X21206646Y15464918D01*
X21286291Y15546170D01*
X21349486Y15592313D01*
X21369760Y15597932D01*
X21408447Y15572725D01*
X21433923Y15536447D01*
X21447156Y15482568D01*
X21409637Y15438001D01*
X21393838Y15427137D01*
X21308338Y15340637D01*
X21229611Y15206632D01*
X21163399Y15042402D01*
X21115444Y14865230D01*
X21091487Y14692400D01*
X21097269Y14541191D01*
X21098031Y14536783D01*
X21159194Y14346616D01*
X21262678Y14194582D01*
X21399239Y14086115D01*
X21559633Y14026648D01*
X21734619Y14021616D01*
X21896021Y14067712D01*
X22054823Y14172179D01*
X22182737Y14326607D01*
X22275323Y14521807D01*
X22328146Y14748588D01*
X22337585Y14982197D01*
X22324434Y15132754D01*
X22295640Y15260640D01*
X22242958Y15397283D01*
X22210058Y15468340D01*
X22118324Y15633049D01*
X21999142Y15808379D01*
X21866676Y15976171D01*
X21735087Y16118265D01*
X21636372Y16203907D01*
X21539533Y16275317D01*
X21498277Y16214275D01*
X21458423Y16155310D01*
X21283082Y15939689D01*
X21086763Y15777390D01*
X20875193Y15672019D01*
X20754993Y15647640D01*
X20654103Y15627178D01*
X20616894Y15625844D01*
X20417979Y15651746D01*
X20251968Y15730555D01*
X20124763Y15856274D01*
X20042265Y16022908D01*
X20010374Y16224464D01*
X20010185Y16242227D01*
X20019889Y16340791D01*
X20225147Y16340791D01*
X20252680Y16172334D01*
X20329876Y16033889D01*
X20446291Y15931270D01*
X20591478Y15870291D01*
X20754993Y15856769D01*
X20926389Y15896519D01*
X20979740Y15920694D01*
X21044299Y15964473D01*
X21129652Y16036445D01*
X21223209Y16124034D01*
X21312382Y16214669D01*
X21384581Y16295777D01*
X21427218Y16354784D01*
X21433452Y16373850D01*
X21409093Y16401357D01*
X21346488Y16458355D01*
X21257924Y16533777D01*
X21233829Y16553671D01*
X21102908Y16661468D01*
X20958257Y16781097D01*
X20845621Y16874652D01*
X20704596Y16992147D01*
X20654791Y17033642D01*
X20508004Y16890851D01*
X20351404Y16709112D01*
X20257709Y16528644D01*
X20225195Y16346092D01*
X20225147Y16340791D01*
X20019889Y16340791D01*
X20029009Y16433428D01*
X20089832Y16608778D01*
X20199185Y16782539D01*
X20324051Y16927931D01*
X20507293Y17122177D01*
X20820134Y17122177D01*
X20843475Y17091379D01*
X20906025Y17029544D01*
X20996577Y16946332D01*
X21103922Y16851409D01*
X21216855Y16754438D01*
X21324167Y16665081D01*
X21414650Y16593003D01*
X21477097Y16547866D01*
X21498277Y16537472D01*
X21531493Y16567823D01*
X21579804Y16655420D01*
X21640942Y16795081D01*
X21712647Y16981626D01*
X21792651Y17209872D01*
X21794732Y17216047D01*
X21843322Y17362079D01*
X21883292Y17485329D01*
X21910593Y17573083D01*
X21921171Y17612629D01*
X21921189Y17612959D01*
X21893790Y17615303D01*
X21821976Y17598878D01*
X21735377Y17571888D01*
X21627202Y17530785D01*
X21493740Y17473907D01*
X21346764Y17407040D01*
X21198048Y17335968D01*
X21059365Y17266476D01*
X20942488Y17204350D01*
X20859190Y17155372D01*
X20821246Y17125331D01*
X20820134Y17122177D01*
X20507293Y17122177D01*
X20531836Y17148194D01*
X20146910Y17531290D01*
X19892220Y17796940D01*
X19676878Y18046910D01*
X19503694Y18277101D01*
X19375476Y18483420D01*
X19295036Y18661772D01*
X19265181Y18808061D01*
X19265058Y18816631D01*
X19276895Y18883116D01*
X19399882Y18883116D01*
X19409536Y18767317D01*
X19459794Y18621056D01*
X19547986Y18451948D01*
X19671441Y18267608D01*
X19681159Y18254564D01*
X19758306Y18159371D01*
X19861832Y18042540D01*
X19983946Y17911729D01*
X20116855Y17774596D01*
X20252765Y17638800D01*
X20383885Y17512002D01*
X20502420Y17401859D01*
X20600579Y17316031D01*
X20670569Y17262178D01*
X20704596Y17247957D01*
X20705024Y17248258D01*
X20760280Y17282821D01*
X20860818Y17336561D01*
X20992539Y17402728D01*
X21141345Y17474568D01*
X21293136Y17545328D01*
X21433815Y17608256D01*
X21549280Y17656600D01*
X21589586Y17671915D01*
X21691883Y17710064D01*
X21764680Y17739670D01*
X21792073Y17754216D01*
X21764681Y17771006D01*
X21689733Y17810338D01*
X21578067Y17866671D01*
X21440525Y17934468D01*
X21412361Y17948190D01*
X20942869Y18189197D01*
X20470862Y18455196D01*
X20026775Y18728906D01*
X19955597Y18775387D01*
X19784987Y18883706D01*
X19656579Y18954286D01*
X19562135Y18990054D01*
X19493412Y18993937D01*
X19442170Y18968864D01*
X19433502Y18960840D01*
X19399882Y18883116D01*
X19276895Y18883116D01*
X19291190Y18963404D01*
X19362487Y19083314D01*
X19468167Y19164172D01*
X19597450Y19193791D01*
X19598636Y19193788D01*
G37*
G36*
X21631556Y24774771D02*
G01*
X21708735Y24718145D01*
X21809149Y24628778D01*
X21924159Y24515583D01*
X22045127Y24387474D01*
X22163416Y24253367D01*
X22270387Y24122175D01*
X22357402Y24002812D01*
X22375236Y23975533D01*
X22553425Y23694941D01*
X22974599Y23482459D01*
X23346154Y23283075D01*
X23653619Y23092132D01*
X23897132Y22909525D01*
X24076833Y22735147D01*
X24192859Y22568893D01*
X24202623Y22549247D01*
X24248778Y22400546D01*
X24250374Y22256551D01*
X24208520Y22135448D01*
X24174796Y22092250D01*
X24069712Y22030367D01*
X23988444Y22019558D01*
X23931719Y22012012D01*
X23776959Y22038367D01*
X23720678Y22058849D01*
X23538560Y22160221D01*
X23344819Y22312878D01*
X23148703Y22506762D01*
X22959461Y22731817D01*
X22786342Y22977986D01*
X22640491Y23231912D01*
X22838468Y23231912D01*
X22847495Y23198205D01*
X22892318Y23127018D01*
X22964763Y23028463D01*
X23056654Y22912652D01*
X23159816Y22789699D01*
X23266076Y22669716D01*
X23367259Y22562816D01*
X23424529Y22506915D01*
X23618682Y22341354D01*
X23786581Y22232915D01*
X23930239Y22180412D01*
X23988444Y22174717D01*
X24075126Y22184032D01*
X24115004Y22222963D01*
X24124725Y22307986D01*
X24124726Y22309615D01*
X24095427Y22409863D01*
X24009889Y22528417D01*
X24007522Y22531047D01*
X23920072Y22614955D01*
X23802145Y22711644D01*
X23678837Y22800576D01*
X23675443Y22802826D01*
X23564461Y22872138D01*
X23431888Y22948775D01*
X23289436Y23026731D01*
X23148817Y23100001D01*
X23021742Y23162583D01*
X22919924Y23208471D01*
X22855074Y23231662D01*
X22838468Y23231912D01*
X22640491Y23231912D01*
X22638596Y23235211D01*
X22638318Y23235758D01*
X22598290Y23303788D01*
X22548279Y23359285D01*
X22474630Y23412918D01*
X22363690Y23475360D01*
X22271128Y23522705D01*
X22139502Y23587704D01*
X22057538Y23624535D01*
X22017698Y23635469D01*
X22012442Y23622778D01*
X22029186Y23595593D01*
X22127498Y23457946D01*
X22193312Y23358685D01*
X22232991Y23284348D01*
X22252899Y23221475D01*
X22259402Y23156604D01*
X22259479Y23108553D01*
X22232122Y22956078D01*
X22152946Y22840818D01*
X22018448Y22757721D01*
X22015113Y22756329D01*
X21920574Y22717170D01*
X22065591Y22562135D01*
X22145160Y22467632D01*
X22206111Y22377932D01*
X22232079Y22321548D01*
X22242832Y22168662D01*
X22203117Y22026012D01*
X22118740Y21914347D01*
X22118034Y21913748D01*
X22020233Y21830967D01*
X22147994Y21660932D01*
X22259032Y21475415D01*
X22307281Y21299242D01*
X22292747Y21134306D01*
X22215435Y20982503D01*
X22146518Y20905638D01*
X22057384Y20834750D01*
X21969599Y20786693D01*
X21930788Y20775754D01*
X21904721Y20771268D01*
X21887996Y20768390D01*
X21876700Y20753550D01*
X21902630Y20722594D01*
X21971522Y20666880D01*
X22035082Y20618561D01*
X22202971Y20471542D01*
X22329078Y20319174D01*
X22410332Y20168931D01*
X22443661Y20028290D01*
X22425998Y19904726D01*
X22365049Y19815314D01*
X22289279Y19764650D01*
X22198444Y19746450D01*
X22085607Y19762562D01*
X21943823Y19814834D01*
X21766156Y19905114D01*
X21550624Y20032192D01*
X21363749Y20139954D01*
X21218602Y20205786D01*
X21108929Y20231307D01*
X21028477Y20218133D01*
X20980062Y20179758D01*
X20961657Y20113296D01*
X20995712Y20020351D01*
X21082971Y19900133D01*
X21224177Y19751853D01*
X21420073Y19574720D01*
X21671401Y19367945D01*
X21938883Y19160936D01*
X22083097Y19049707D01*
X22207153Y18949999D01*
X22302527Y18868988D01*
X22360702Y18813853D01*
X22374794Y18793752D01*
X22363773Y18715930D01*
X22338985Y18646497D01*
X22310215Y18611587D01*
X22306349Y18610942D01*
X22269205Y18629098D01*
X22193512Y18677813D01*
X22092321Y18748454D01*
X22032672Y18791938D01*
X21852221Y18919462D01*
X21663012Y19042952D01*
X21479285Y19153878D01*
X21315282Y19243717D01*
X21185242Y19303945D01*
X21164338Y19311766D01*
X21044628Y19344386D01*
X20942922Y19354791D01*
X20874095Y19342872D01*
X20852532Y19314073D01*
X20878826Y19258733D01*
X20951479Y19178615D01*
X21061152Y19082047D01*
X21198504Y18977356D01*
X21330402Y18887973D01*
X21466309Y18793308D01*
X21544054Y18720056D01*
X21565694Y18665702D01*
X21540128Y18631613D01*
X21502988Y18641140D01*
X21426257Y18680313D01*
X21322903Y18740886D01*
X21205894Y18814611D01*
X21088198Y18893241D01*
X20982783Y18968526D01*
X20902618Y19032222D01*
X20884873Y19048369D01*
X20780290Y19178175D01*
X20736182Y19302940D01*
X20750591Y19415057D01*
X20821558Y19506920D01*
X20947124Y19570924D01*
X21024121Y19589163D01*
X21054327Y19600998D01*
X21052432Y19630200D01*
X21014833Y19690349D01*
X20987113Y19728671D01*
X20886879Y19896639D01*
X20837167Y20054838D01*
X20840526Y20193713D01*
X20852878Y20231671D01*
X20932780Y20349378D01*
X21054179Y20417429D01*
X21191718Y20436027D01*
X21270940Y20432522D01*
X21347462Y20418913D01*
X21433115Y20390561D01*
X21539728Y20342822D01*
X21679131Y20271057D01*
X21850710Y20177507D01*
X22026311Y20084894D01*
X22154521Y20028530D01*
X22240843Y20007243D01*
X22290783Y20019858D01*
X22309844Y20065201D01*
X22310440Y20079475D01*
X22283680Y20153908D01*
X22209178Y20252793D01*
X22095600Y20368698D01*
X21951611Y20494190D01*
X21785879Y20621838D01*
X21607071Y20744210D01*
X21423851Y20853875D01*
X21379420Y20877881D01*
X21155845Y21025643D01*
X20972006Y21207524D01*
X20832733Y21414479D01*
X20742855Y21637464D01*
X20709735Y21851101D01*
X20853832Y21851101D01*
X20877197Y21732579D01*
X20897076Y21677252D01*
X20997572Y21507654D01*
X21144340Y21352038D01*
X21322910Y21219373D01*
X21518812Y21118623D01*
X21717572Y21058758D01*
X21904721Y21048743D01*
X21910399Y21049352D01*
X22055299Y21085705D01*
X22144549Y21155132D01*
X22177542Y21256514D01*
X22153673Y21388734D01*
X22128171Y21449786D01*
X22068087Y21546801D01*
X21982690Y21649175D01*
X21886578Y21742994D01*
X21794346Y21814341D01*
X21720590Y21849305D01*
X21707584Y21850738D01*
X21648776Y21860836D01*
X21546124Y21887549D01*
X21416735Y21925505D01*
X21277714Y21969332D01*
X21146172Y22013658D01*
X21039212Y22053110D01*
X20978988Y22079540D01*
X20920160Y22085081D01*
X20877941Y22040254D01*
X20854956Y21957960D01*
X20853832Y21851101D01*
X20709735Y21851101D01*
X20707203Y21867434D01*
X20730212Y22093722D01*
X20738405Y22139380D01*
X20730927Y22175918D01*
X20698363Y22212864D01*
X20631305Y22259746D01*
X20520336Y22326092D01*
X20474159Y22352906D01*
X20291767Y22463946D01*
X20098518Y22590673D01*
X19909670Y22722317D01*
X19740481Y22848108D01*
X19606209Y22957277D01*
X19564713Y22994807D01*
X19486408Y23088196D01*
X19458691Y23168162D01*
X19478438Y23219672D01*
X19511322Y23210519D01*
X19586469Y23171394D01*
X19692500Y23108670D01*
X19810517Y23033655D01*
X20196620Y22791731D01*
X20565024Y22582591D01*
X20910217Y22408792D01*
X21226692Y22272893D01*
X21508945Y22177451D01*
X21751464Y22125022D01*
X21773758Y22122191D01*
X21941033Y22112490D01*
X22051396Y22130883D01*
X22107221Y22179325D01*
X22110886Y22259773D01*
X22069366Y22365412D01*
X22028815Y22427448D01*
X21966982Y22491309D01*
X21875458Y22563401D01*
X21745837Y22650131D01*
X21569711Y22757904D01*
X21500492Y22798862D01*
X21350312Y22892624D01*
X21199473Y22995924D01*
X21070420Y23093011D01*
X21015458Y23139311D01*
X20923691Y23225395D01*
X20874502Y23283823D01*
X20859728Y23327237D01*
X20869667Y23365114D01*
X20886587Y23392948D01*
X20910959Y23402949D01*
X20953708Y23391445D01*
X21025764Y23354766D01*
X21138053Y23289241D01*
X21192361Y23256726D01*
X21402382Y23142292D01*
X21597797Y23057758D01*
X21772469Y23003709D01*
X21920255Y22980726D01*
X22035017Y22989391D01*
X22110616Y23030287D01*
X22140910Y23103997D01*
X22134004Y23167408D01*
X22072328Y23306962D01*
X21954745Y23466032D01*
X21785707Y23640573D01*
X21569664Y23826535D01*
X21311068Y24019866D01*
X21014371Y24216522D01*
X20909229Y24281234D01*
X20760116Y24377472D01*
X20666819Y24453598D01*
X20625254Y24514213D01*
X20631340Y24563919D01*
X20644260Y24579881D01*
X20677138Y24571255D01*
X20760302Y24537465D01*
X20885939Y24482032D01*
X21046234Y24408480D01*
X21233375Y24320328D01*
X21429911Y24225782D01*
X21639499Y24124254D01*
X21833196Y24030944D01*
X22002352Y23949975D01*
X22138323Y23885471D01*
X22232462Y23841556D01*
X22274206Y23823073D01*
X22351364Y23792977D01*
X22294220Y23882890D01*
X22087362Y24166396D01*
X21849577Y24420919D01*
X21760902Y24500281D01*
X21635380Y24615530D01*
X21565799Y24701360D01*
X21551203Y24759356D01*
X21586250Y24789740D01*
X21631556Y24774771D01*
G37*
D13*
%TO.C,RV1*%
X48615001Y31010000D02*
X48615001Y36080000D01*
X58385001Y36080000D02*
X48615001Y36080000D01*
X58385001Y31010000D02*
X48615001Y31010000D01*
X58385001Y31010000D02*
X58385001Y36080000D01*
%TO.C,C2*%
X35085000Y-36109419D02*
X35085000Y-36390581D01*
X36105000Y-36109419D02*
X36105000Y-36390581D01*
%TO.C,RV2*%
X57600000Y12005001D02*
X57600000Y17075001D01*
X67370000Y17075001D02*
X57600000Y17075001D01*
X67370000Y12005001D02*
X57600000Y12005001D01*
X67370000Y12005001D02*
X67370000Y17075001D01*
D14*
%TO.C,P1*%
X0Y-30580000D02*
X1675000Y-30580000D01*
X0Y-31730000D02*
X0Y-30580000D01*
X1075000Y-34630000D02*
X9675000Y-34630000D01*
X9075000Y-30580000D02*
X10750000Y-30580000D01*
X10750000Y-31730000D02*
X10750000Y-30580000D01*
D13*
%TO.C,U4*%
X47350000Y4100000D02*
X47350000Y2840001D01*
X47350000Y-2720000D02*
X47350000Y-1460001D01*
X51110000Y4100001D02*
X47350000Y4100000D01*
X53360000Y-2720000D02*
X47350000Y-2720000D01*
%TO.C,C15*%
X33465000Y-36109419D02*
X33465000Y-36390581D01*
X34485000Y-36109419D02*
X34485000Y-36390581D01*
D15*
%TO.C,U1*%
X4065000Y-2490000D02*
X4065000Y35610000D01*
X5970000Y37515000D02*
X28830000Y37515000D01*
X5970000Y-4395000D02*
X28830000Y-4395000D01*
X12320000Y37515000D02*
X12320000Y29260000D01*
X12320000Y29260000D02*
X22480000Y29260000D01*
X22480000Y29260000D02*
X22480000Y37515000D01*
X30735000Y-2490000D02*
X30735000Y35610000D01*
X4065000Y35610000D02*
G75*
G02*
X5970000Y37515000I1905001J-1D01*
G01*
X5970000Y-4395000D02*
G75*
G02*
X4065000Y-2490000I1J1905001D01*
G01*
X28830000Y37515000D02*
G75*
G02*
X30735000Y35610000I0J-1905000D01*
G01*
X30735000Y-2490000D02*
G75*
G02*
X28830000Y-4395000I-1905000J0D01*
G01*
D16*
X14225000Y-2490000D02*
G75*
G02*
X12955000Y-2490000I-635000J0D01*
G01*
X12955000Y-2490000D02*
G75*
G02*
X14225000Y-2490000I635000J0D01*
G01*
X16765000Y-2490000D02*
G75*
G02*
X15495000Y-2490000I-635000J0D01*
G01*
X15495000Y-2490000D02*
G75*
G02*
X16765000Y-2490000I635000J0D01*
G01*
X19305000Y-2490000D02*
G75*
G02*
X18035000Y-2490000I-635000J0D01*
G01*
X18035000Y-2490000D02*
G75*
G02*
X19305000Y-2490000I635000J0D01*
G01*
X21845000Y-2490000D02*
G75*
G02*
X20575000Y-2490000I-635000J0D01*
G01*
X20575000Y-2490000D02*
G75*
G02*
X21845000Y-2490000I635000J0D01*
G01*
D13*
%TO.C,SW3*%
X19620956Y-22260957D02*
X19620957Y-15656957D01*
X19620957Y-15656957D02*
X20763957Y-15656957D01*
X20763956Y-22260957D02*
X19620956Y-22260957D01*
X23176957Y-15656957D02*
X22033957Y-15656957D01*
X23176957Y-15656957D02*
X23176957Y-22260957D01*
X23176957Y-22260957D02*
X22033957Y-22260957D01*
%TO.C,RV5*%
X42630002Y19364999D02*
X42630002Y9594999D01*
X47700002Y19364999D02*
X42630002Y19364999D01*
X47700002Y19364999D02*
X47700002Y9594999D01*
X47700002Y9594999D02*
X42630002Y9594999D01*
%TO.C,J4*%
X51230000Y-29930000D02*
X51230000Y-35900000D01*
X51230000Y-35900000D02*
X58850000Y-35900000D01*
X51240000Y-33640000D02*
X51990000Y-33640000D01*
X51240000Y-35140000D02*
X51240000Y-35890000D01*
X51240000Y-35890000D02*
X53040000Y-35890001D01*
X51990000Y-30690000D02*
X55040000Y-30690000D01*
X51990000Y-33640000D02*
X51990000Y-30690000D01*
X53039999Y-35140000D02*
X51240000Y-35140000D01*
X53040000Y-35890001D02*
X53039999Y-35140000D01*
X54540001Y-35140000D02*
X54540001Y-35890000D01*
X54540001Y-35890000D02*
X55540000Y-35890001D01*
X55539999Y-35140000D02*
X54540001Y-35140000D01*
X55540000Y-35890001D02*
X55539999Y-35140000D01*
X57040000Y-35890001D02*
X58840000Y-35890000D01*
X57040001Y-35140000D02*
X57040000Y-35890001D01*
X57890000Y-36190000D02*
X59140000Y-36190000D01*
X58090000Y-30690000D02*
X55040000Y-30690000D01*
X58090000Y-33640000D02*
X58090000Y-30690000D01*
X58840000Y-33640000D02*
X58090000Y-33640000D01*
X58840000Y-35140000D02*
X57040001Y-35140000D01*
X58840000Y-35890000D02*
X58840000Y-35140000D01*
X58850000Y-29930000D02*
X51230000Y-29930000D01*
X58850000Y-35900000D02*
X58850000Y-29930000D01*
X59140000Y-36190000D02*
X59140000Y-34940000D01*
D14*
%TO.C,P2*%
X11650000Y-30600000D02*
X13325000Y-30600000D01*
X11650000Y-31750000D02*
X11650000Y-30600000D01*
X12725000Y-34650000D02*
X21325000Y-34650000D01*
X20725000Y-30600000D02*
X22400000Y-30600000D01*
X22400000Y-31750000D02*
X22400000Y-30600000D01*
D13*
%TO.C,C16*%
X43420000Y165581D02*
X43420000Y-115581D01*
X44440000Y165581D02*
X44440000Y-115581D01*
%TO.C,U2*%
X25430001Y-30760000D02*
X25430001Y-32019999D01*
X25430001Y-37580000D02*
X25430001Y-36320001D01*
X29190001Y-30759999D02*
X25430001Y-30760000D01*
X31440001Y-37580000D02*
X25430001Y-37580000D01*
%TO.C,J1*%
X-374999Y26775001D02*
X-374999Y25525001D01*
X-374999Y25525001D02*
X875001Y25525001D01*
X-84999Y38435001D02*
X-84999Y25815001D01*
X-84999Y25815001D02*
X5885001Y25815001D01*
X-75000Y36625001D02*
X675001Y36625000D01*
X-75000Y29125001D02*
X675001Y29125002D01*
X-75000Y27625001D02*
X-74999Y25825001D01*
X-74999Y38425001D02*
X-75000Y36625001D01*
X-74999Y35125001D02*
X-75000Y29125001D01*
X-74999Y25825001D02*
X675001Y25825001D01*
X675001Y38425001D02*
X-74999Y38425001D01*
X675001Y36625000D02*
X675001Y38425001D01*
X675001Y35125001D02*
X-74999Y35125001D01*
X675001Y29125002D02*
X675001Y35125001D01*
X675001Y27625000D02*
X-75000Y27625001D01*
X675001Y25825001D02*
X675001Y27625000D01*
X2175001Y38425001D02*
X2175002Y37675001D01*
X2175001Y26575001D02*
X5125001Y26575001D01*
X2175001Y25825001D02*
X2175001Y26575001D01*
X2175002Y37675001D02*
X5125001Y37675001D01*
X5125001Y37675001D02*
X5125001Y32125001D01*
X5125001Y26575001D02*
X5125001Y32125001D01*
X5885001Y38435001D02*
X-84999Y38435001D01*
X5885001Y25815001D02*
X5885001Y38435001D01*
%TO.C,J10*%
X-290000Y6150000D02*
X-290000Y4900000D01*
X-290000Y4900000D02*
X960000Y4900000D01*
X0Y17810000D02*
X0Y5190000D01*
X0Y5190000D02*
X5970000Y5190000D01*
X9999Y16000000D02*
X760000Y15999999D01*
X9999Y8500000D02*
X760000Y8500001D01*
X9999Y7000000D02*
X10000Y5200000D01*
X10000Y17800000D02*
X9999Y16000000D01*
X10000Y14500000D02*
X9999Y8500000D01*
X10000Y5200000D02*
X760000Y5200000D01*
X760000Y17800000D02*
X10000Y17800000D01*
X760000Y15999999D02*
X760000Y17800000D01*
X760000Y14500000D02*
X10000Y14500000D01*
X760000Y8500001D02*
X760000Y14500000D01*
X760000Y6999999D02*
X9999Y7000000D01*
X760000Y5200000D02*
X760000Y6999999D01*
X2260000Y17800000D02*
X2260001Y17050000D01*
X2260000Y5950000D02*
X5210000Y5950000D01*
X2260000Y5200000D02*
X2260000Y5950000D01*
X2260001Y17050000D02*
X5210000Y17050000D01*
X5210000Y17050000D02*
X5210000Y11500000D01*
X5210000Y5950000D02*
X5210000Y11500000D01*
X5970000Y17810000D02*
X0Y17810000D01*
X5970000Y5190000D02*
X5970000Y17810000D01*
D15*
%TO.C,B1*%
X12512000Y22937000D02*
X13528000Y22937000D01*
X13020000Y23495800D02*
X13020000Y22429000D01*
X17520001Y19000000D02*
G75*
G02*
X8519999Y19000000I-4500001J0D01*
G01*
X8519999Y19000000D02*
G75*
G02*
X17520001Y19000000I4500001J0D01*
G01*
D13*
%TO.C,RV3*%
X72605000Y36930000D02*
X72605000Y31860000D01*
X72605000Y36930000D02*
X82375000Y36930000D01*
X72605000Y31860000D02*
X82375000Y31860000D01*
X82375000Y36930000D02*
X82375000Y31860000D01*
%TO.C,C3*%
X33561962Y-32916789D02*
X33760773Y-32717978D01*
X34283211Y-33638038D02*
X34482022Y-33439227D01*
%TO.C,SW1*%
X19581999Y-12757000D02*
X19582000Y-6153000D01*
X19582000Y-6153000D02*
X20725000Y-6153000D01*
X20724999Y-12757000D02*
X19581999Y-12757000D01*
X23138000Y-6153000D02*
X21995000Y-6153000D01*
X23138000Y-6153000D02*
X23138000Y-12757000D01*
X23138000Y-12757000D02*
X21995000Y-12757000D01*
%TO.C,C1*%
X54060000Y-4419D02*
X54060000Y-285581D01*
X55080000Y-4419D02*
X55080000Y-285581D01*
%TO.C,RV4*%
X72160000Y24705000D02*
X72160000Y19635000D01*
X72160000Y24705000D02*
X81930000Y24705000D01*
X72160000Y19635000D02*
X81930000Y19635000D01*
X81930000Y24705000D02*
X81930000Y19635000D01*
%TD*%
M02*
