%TF.GenerationSoftware,KiCad,Pcbnew,8.0.0*%
%TF.CreationDate,2026-05-17T15:50:03+08:00*%
%TF.ProjectId,STC_mainboard,5354435f-6d61-4696-9e62-6f6172642e6b,rev?*%
%TF.SameCoordinates,Original*%
%TF.FileFunction,Paste,Top*%
%TF.FilePolarity,Positive*%
%FSLAX46Y46*%
G04 Gerber Fmt 4.6, Leading zero omitted, Abs format (unit mm)*
G04 Created by KiCad (PCBNEW 8.0.0) date 2026-05-17 15:50:03*
%MOMM*%
%LPD*%
G01*
G04 APERTURE LIST*
G04 Aperture macros list*
%AMRoundRect*
0 Rectangle with rounded corners*
0 $1 Rounding radius*
0 $2 $3 $4 $5 $6 $7 $8 $9 X,Y pos of 4 corners*
0 Add a 4 corners polygon primitive as box body*
4,1,4,$2,$3,$4,$5,$6,$7,$8,$9,$2,$3,0*
0 Add four circle primitives for the rounded corners*
1,1,$1+$1,$2,$3*
1,1,$1+$1,$4,$5*
1,1,$1+$1,$6,$7*
1,1,$1+$1,$8,$9*
0 Add four rect primitives between the rounded corners*
20,1,$1+$1,$2,$3,$4,$5,0*
20,1,$1+$1,$4,$5,$6,$7,0*
20,1,$1+$1,$6,$7,$8,$9,0*
20,1,$1+$1,$8,$9,$2,$3,0*%
G04 Aperture macros list end*
%ADD10RoundRect,0.225000X-0.250000X0.225000X-0.250000X-0.225000X0.250000X-0.225000X0.250000X0.225000X0*%
%ADD11R,1.000000X2.800000*%
%ADD12R,0.600000X1.700000*%
%ADD13R,2.000000X1.500000*%
%ADD14R,1.120000X2.160000*%
%ADD15R,2.000000X3.800000*%
%ADD16RoundRect,0.225000X0.017678X-0.335876X0.335876X-0.017678X-0.017678X0.335876X-0.335876X0.017678X0*%
G04 APERTURE END LIST*
D10*
%TO.C,C2*%
X35595000Y-35475000D03*
X35595000Y-37025000D03*
%TD*%
D11*
%TO.C,P1*%
X400000Y-33280000D03*
X10350000Y-33280000D03*
D12*
X8500000Y-30130000D03*
X7250000Y-30130000D03*
X6000000Y-30130000D03*
X4750000Y-30130000D03*
%TD*%
D13*
%TO.C,U4*%
X52410000Y-1610000D03*
X52409999Y690000D03*
X52410000Y2990000D03*
%TD*%
D10*
%TO.C,C15*%
X33975000Y-35475000D03*
X33975000Y-37025000D03*
%TD*%
D14*
%TO.C,SW3*%
X21398957Y-22323957D03*
X21398957Y-15593957D03*
%TD*%
D11*
%TO.C,P2*%
X12050000Y-33300000D03*
X22000000Y-33300000D03*
D12*
X20150000Y-30150000D03*
X18900000Y-30150000D03*
X17650000Y-30150000D03*
X16400000Y-30150000D03*
%TD*%
D10*
%TO.C,C16*%
X43930000Y800000D03*
X43930000Y-750000D03*
%TD*%
D13*
%TO.C,U2*%
X30490001Y-36470000D03*
X30490000Y-34170000D03*
X30490001Y-31870000D03*
D15*
X24190002Y-34170000D03*
%TD*%
D16*
%TO.C,C3*%
X33473984Y-33726016D03*
X34570000Y-32630000D03*
%TD*%
D14*
%TO.C,SW1*%
X21360000Y-12820000D03*
X21360000Y-6090000D03*
%TD*%
D10*
%TO.C,C1*%
X54570000Y630000D03*
X54570000Y-920000D03*
%TD*%
G36*
X52157253Y40360315D02*
G01*
X52203008Y40307511D01*
X52214214Y40256000D01*
X52214214Y37781362D01*
X52194529Y37714323D01*
X52177895Y37693681D01*
X52160533Y37676319D01*
X52099210Y37642834D01*
X52072852Y37640000D01*
X49509786Y37640000D01*
X49442747Y37659685D01*
X49396992Y37712489D01*
X49385786Y37764000D01*
X49385786Y40256000D01*
X49405471Y40323039D01*
X49458275Y40368794D01*
X49509786Y40380000D01*
X52090214Y40380000D01*
X52157253Y40360315D01*
G37*
G36*
X32157253Y40360315D02*
G01*
X32203008Y40307511D01*
X32214214Y40256000D01*
X32214214Y37904000D01*
X32194529Y37836961D01*
X32141725Y37791206D01*
X32090214Y37780000D01*
X29509786Y37780000D01*
X29442747Y37799685D01*
X29396992Y37852489D01*
X29385786Y37904000D01*
X29385786Y40256000D01*
X29405471Y40323039D01*
X29458275Y40368794D01*
X29509786Y40380000D01*
X32090214Y40380000D01*
X32157253Y40360315D01*
G37*
M02*
