M48
; DRILL file {KiCad 8.0.0} date 2026-04-04T14:43:18+0800
; FORMAT={-:-/ absolute / inch / decimal}
; #@! TF.CreationDate,2026-04-04T14:43:18+08:00
; #@! TF.GenerationSoftware,Kicad,Pcbnew,8.0.0
; #@! TF.FileFunction,Plated,1,2,PTH
FMAT,2
INCH
; #@! TA.AperFunction,Plated,PTH,ComponentDrill
T1C0.0118
; #@! TA.AperFunction,Plated,PTH,ViaDrill
T2C0.0120
; #@! TA.AperFunction,Plated,PTH,ComponentDrill
T3C0.0315
; #@! TA.AperFunction,Plated,PTH,ComponentDrill
T4C0.0354
; #@! TA.AperFunction,Plated,PTH,ComponentDrill
T5C0.0374
; #@! TA.AperFunction,Plated,PTH,ComponentDrill
T6C0.0394
; #@! TA.AperFunction,Plated,PTH,ComponentDrill
T7C0.0472
; #@! TA.AperFunction,Plated,PTH,ComponentDrill
T8C0.1063
%
G90
G05
T1
X8.7844Y-5.1313
X8.7844Y-5.1785
X8.8317Y-5.1313
X8.8317Y-5.1785
X8.8829Y-5.1313
X8.8829Y-5.1785
X8.9262Y-5.1313
X8.9262Y-5.1785
T2
X8.9614Y-2.1768
X8.9671Y-4.1624
X8.9693Y-2.0035
X9.122Y-3.422
X9.2795Y-5.0067
X9.3012Y-2.0252
X9.3071Y-2.1933
X9.5339Y-5.263
X9.5445Y-3.9909
X9.6185Y-4.0703
X9.6429Y-5.6315
X9.7382Y-3.8362
X9.7409Y-4.0319
X9.8008Y-3.9602
X9.9177Y-5.6228
X10.1579Y-4.1646
X10.1634Y-5.6272
X10.2858Y-2.3087
X10.4118Y-5.6213
X10.4831Y-5.2508
X10.5823Y-5.3724
X10.6831Y-4.985
X10.7402Y-4.3571
X10.8319Y-5.7012
X11.0031Y-2.4811
X11.0346Y-4.739
X11.052Y-5.0823
X11.1665Y-4.3516
X11.4909Y-4.8598
X11.5189Y-2.3244
X11.5189Y-2.4295
X11.5189Y-2.6571
X11.5189Y-3.0268
X11.5189Y-3.2657
T3
X8.9289Y-4.386
X8.9289Y-4.5829
X10.2004Y-2.1476
X10.2004Y-2.378
X10.2008Y-2.5941
X10.2008Y-2.813
X10.2008Y-3.0303
X10.3004Y-2.1476
X10.3004Y-2.378
X10.3008Y-2.5941
X10.3008Y-2.813
X10.3008Y-3.0303
X10.4004Y-2.1476
X10.4004Y-2.378
X10.4008Y-2.5941
X10.4008Y-2.813
X10.4008Y-3.0303
T4
X8.7358Y-2.0583
X8.7358Y-2.1583
X8.7358Y-2.2583
X8.7358Y-2.3583
X8.7358Y-2.4583
X8.7358Y-2.5583
X8.7358Y-2.6583
X8.7358Y-2.7583
X8.7358Y-2.8583
X8.7358Y-2.9583
X8.7358Y-3.0583
X8.7358Y-3.1583
X8.7358Y-3.2583
X8.7358Y-3.3583
X8.7358Y-3.4583
X8.7358Y-3.5583
X8.8358Y-2.0583
X8.8358Y-2.1583
X8.8358Y-2.2583
X8.8358Y-2.3583
X8.8358Y-2.4583
X8.8358Y-2.5583
X8.8358Y-2.6583
X8.8358Y-2.7583
X8.8358Y-2.8583
X8.8358Y-2.9583
X8.8358Y-3.0583
X8.8358Y-3.1583
X8.8358Y-3.2583
X8.8358Y-3.3583
X8.8358Y-3.4583
X8.8358Y-3.5583
X9.0618Y-3.1114
X9.2587Y-3.1114
X9.5358Y-2.0583
X9.5358Y-2.1583
X9.5358Y-2.2583
X9.5358Y-2.3583
X9.5358Y-2.4583
X9.5358Y-2.5583
X9.5358Y-2.6583
X9.5358Y-2.7583
X9.5358Y-2.8583
X9.5358Y-2.9583
X9.5358Y-3.0583
X9.5358Y-3.1583
X9.5358Y-3.2583
X9.5358Y-3.3583
X9.5358Y-3.4583
X9.5358Y-3.5583
X9.6358Y-2.0583
X9.6358Y-2.1583
X9.6358Y-2.2583
X9.6358Y-2.3583
X9.6358Y-2.4583
X9.6358Y-2.5583
X9.6358Y-2.6583
X9.6358Y-2.7583
X9.6358Y-2.8583
X9.6358Y-2.9583
X9.6358Y-3.0583
X9.6358Y-3.1583
X9.6358Y-3.2583
X9.6358Y-3.3583
X9.6358Y-3.4583
X9.6358Y-3.5583
T5
X7.8819Y-3.9976
X7.8819Y-4.0961
X7.8819Y-4.1945
X7.8819Y-4.2929
X7.985Y-2.8142
X7.985Y-2.9126
X7.985Y-3.011
X7.985Y-3.1094
X8.189Y-3.9976
X8.189Y-4.0961
X8.189Y-4.1945
X8.189Y-4.2929
X11.1969Y-2.1783
X11.1969Y-2.2768
X11.1969Y-2.3752
X11.1969Y-2.4736
X11.3281Y-2.7776
X11.3281Y-2.876
X11.3281Y-2.9744
X11.3281Y-3.0728
T6
X7.9498Y-2.3224
X7.9498Y-2.4224
X7.9498Y-2.5224
X7.9498Y-2.6224
X7.9843Y-3.3524
X7.9843Y-3.4524
X7.9843Y-3.5524
X7.9843Y-3.6524
X8.0498Y-2.3224
X8.0498Y-2.4224
X8.0498Y-2.5224
X8.0498Y-2.6224
X8.0843Y-3.3524
X8.0843Y-3.4524
X8.0843Y-3.5524
X8.0843Y-3.6524
X8.2992Y-2.7356
X8.3008Y-2.412
X8.3012Y-3.0656
X8.3976Y-2.7356
X8.3992Y-2.412
X8.3996Y-3.0656
X9.1469Y-5.2248
X9.1469Y-5.3248
X9.1469Y-5.5083
X9.1469Y-5.6083
X9.2469Y-5.2248
X9.2469Y-5.3248
X9.2469Y-5.5083
X9.2469Y-5.6083
X9.3469Y-5.3248
X9.3469Y-5.6083
X9.3469Y-5.2248
X9.3469Y-5.5083
X10.5626Y-3.6535
X10.6626Y-3.6535
X10.7626Y-3.6535
X10.8626Y-3.6535
X10.9626Y-3.6535
X11.0626Y-3.6535
X11.1626Y-3.6535
X11.2626Y-3.6535
T8
X7.828Y-4.5984
X8.0248Y-4.5984
T7
G00X8.1898Y-4.9165
M15
G01X8.0283Y-4.9165
M16
G05
G00X8.1898Y-5.1921
M15
G01X8.0283Y-5.1921
M16
G05
M30
