%TF.GenerationSoftware,KiCad,Pcbnew,8.0.0*%
%TF.CreationDate,2026-04-04T14:43:14+08:00*%
%TF.ProjectId,STC_mainboard,5354435f-6d61-4696-9e62-6f6172642e6b,rev?*%
%TF.SameCoordinates,Original*%
%TF.FileFunction,Legend,Bot*%
%TF.FilePolarity,Positive*%
%FSLAX46Y46*%
G04 Gerber Fmt 4.6, Leading zero omitted, Abs format (unit mm)*
G04 Created by KiCad (PCBNEW 8.0.0) date 2026-04-04 14:43:14*
%MOMM*%
%LPD*%
G01*
G04 APERTURE LIST*
%ADD10C,0.150000*%
%ADD11C,0.120000*%
%ADD12C,0.203200*%
%ADD13C,0.200000*%
G04 APERTURE END LIST*
D10*
X258140011Y-68295873D02*
X258038996Y-67723454D01*
X258544072Y-67891812D02*
X257836965Y-67184706D01*
X257836965Y-67184706D02*
X257567591Y-67454080D01*
X257567591Y-67454080D02*
X257533919Y-67555095D01*
X257533919Y-67555095D02*
X257533919Y-67622438D01*
X257533919Y-67622438D02*
X257567591Y-67723454D01*
X257567591Y-67723454D02*
X257668606Y-67824469D01*
X257668606Y-67824469D02*
X257769622Y-67858141D01*
X257769622Y-67858141D02*
X257836965Y-67858141D01*
X257836965Y-67858141D02*
X257937980Y-67824469D01*
X257937980Y-67824469D02*
X258207354Y-67555095D01*
X257197202Y-67824469D02*
X256759469Y-68262202D01*
X256759469Y-68262202D02*
X257264545Y-68295873D01*
X257264545Y-68295873D02*
X257163530Y-68396889D01*
X257163530Y-68396889D02*
X257129858Y-68497904D01*
X257129858Y-68497904D02*
X257129858Y-68565247D01*
X257129858Y-68565247D02*
X257163530Y-68666263D01*
X257163530Y-68666263D02*
X257331889Y-68834621D01*
X257331889Y-68834621D02*
X257432904Y-68868293D01*
X257432904Y-68868293D02*
X257500248Y-68868293D01*
X257500248Y-68868293D02*
X257601263Y-68834621D01*
X257601263Y-68834621D02*
X257803293Y-68632591D01*
X257803293Y-68632591D02*
X257836965Y-68531576D01*
X257836965Y-68531576D02*
X257836965Y-68464232D01*
X256557438Y-68598919D02*
X256490095Y-68598919D01*
X256490095Y-68598919D02*
X256389080Y-68632591D01*
X256389080Y-68632591D02*
X256220721Y-68800950D01*
X256220721Y-68800950D02*
X256187049Y-68901965D01*
X256187049Y-68901965D02*
X256187049Y-68969309D01*
X256187049Y-68969309D02*
X256220721Y-69070324D01*
X256220721Y-69070324D02*
X256288064Y-69137667D01*
X256288064Y-69137667D02*
X256422751Y-69205011D01*
X256422751Y-69205011D02*
X257230873Y-69205011D01*
X257230873Y-69205011D02*
X256793141Y-69642744D01*
X250432507Y-75128602D02*
X249632050Y-75128602D01*
X250356273Y-75967176D02*
X250394390Y-75929059D01*
X250394390Y-75929059D02*
X250432507Y-75814708D01*
X250432507Y-75814708D02*
X250432507Y-75738474D01*
X250432507Y-75738474D02*
X250394390Y-75624123D01*
X250394390Y-75624123D02*
X250318156Y-75547889D01*
X250318156Y-75547889D02*
X250241922Y-75509772D01*
X250241922Y-75509772D02*
X250089454Y-75471655D01*
X250089454Y-75471655D02*
X249975103Y-75471655D01*
X249975103Y-75471655D02*
X249822635Y-75509772D01*
X249822635Y-75509772D02*
X249746401Y-75547889D01*
X249746401Y-75547889D02*
X249670167Y-75624123D01*
X249670167Y-75624123D02*
X249632050Y-75738474D01*
X249632050Y-75738474D02*
X249632050Y-75814708D01*
X249632050Y-75814708D02*
X249670167Y-75929059D01*
X249670167Y-75929059D02*
X249708284Y-75967176D01*
X250432507Y-76729516D02*
X250432507Y-76272112D01*
X250432507Y-76500814D02*
X249632050Y-76500814D01*
X249632050Y-76500814D02*
X249746401Y-76424580D01*
X249746401Y-76424580D02*
X249822635Y-76348346D01*
X249822635Y-76348346D02*
X249860752Y-76272112D01*
X279329580Y-70207142D02*
X279377200Y-70159523D01*
X279377200Y-70159523D02*
X279424819Y-70016666D01*
X279424819Y-70016666D02*
X279424819Y-69921428D01*
X279424819Y-69921428D02*
X279377200Y-69778571D01*
X279377200Y-69778571D02*
X279281961Y-69683333D01*
X279281961Y-69683333D02*
X279186723Y-69635714D01*
X279186723Y-69635714D02*
X278996247Y-69588095D01*
X278996247Y-69588095D02*
X278853390Y-69588095D01*
X278853390Y-69588095D02*
X278662914Y-69635714D01*
X278662914Y-69635714D02*
X278567676Y-69683333D01*
X278567676Y-69683333D02*
X278472438Y-69778571D01*
X278472438Y-69778571D02*
X278424819Y-69921428D01*
X278424819Y-69921428D02*
X278424819Y-70016666D01*
X278424819Y-70016666D02*
X278472438Y-70159523D01*
X278472438Y-70159523D02*
X278520057Y-70207142D01*
X278520057Y-70588095D02*
X278472438Y-70635714D01*
X278472438Y-70635714D02*
X278424819Y-70730952D01*
X278424819Y-70730952D02*
X278424819Y-70969047D01*
X278424819Y-70969047D02*
X278472438Y-71064285D01*
X278472438Y-71064285D02*
X278520057Y-71111904D01*
X278520057Y-71111904D02*
X278615295Y-71159523D01*
X278615295Y-71159523D02*
X278710533Y-71159523D01*
X278710533Y-71159523D02*
X278853390Y-71111904D01*
X278853390Y-71111904D02*
X279424819Y-70540476D01*
X279424819Y-70540476D02*
X279424819Y-71159523D01*
X279424819Y-71635714D02*
X279424819Y-71826190D01*
X279424819Y-71826190D02*
X279377200Y-71921428D01*
X279377200Y-71921428D02*
X279329580Y-71969047D01*
X279329580Y-71969047D02*
X279186723Y-72064285D01*
X279186723Y-72064285D02*
X278996247Y-72111904D01*
X278996247Y-72111904D02*
X278615295Y-72111904D01*
X278615295Y-72111904D02*
X278520057Y-72064285D01*
X278520057Y-72064285D02*
X278472438Y-72016666D01*
X278472438Y-72016666D02*
X278424819Y-71921428D01*
X278424819Y-71921428D02*
X278424819Y-71730952D01*
X278424819Y-71730952D02*
X278472438Y-71635714D01*
X278472438Y-71635714D02*
X278520057Y-71588095D01*
X278520057Y-71588095D02*
X278615295Y-71540476D01*
X278615295Y-71540476D02*
X278853390Y-71540476D01*
X278853390Y-71540476D02*
X278948628Y-71588095D01*
X278948628Y-71588095D02*
X278996247Y-71635714D01*
X278996247Y-71635714D02*
X279043866Y-71730952D01*
X279043866Y-71730952D02*
X279043866Y-71921428D01*
X279043866Y-71921428D02*
X278996247Y-72016666D01*
X278996247Y-72016666D02*
X278948628Y-72064285D01*
X278948628Y-72064285D02*
X278853390Y-72111904D01*
X258095011Y-51535873D02*
X257993996Y-50963454D01*
X258499072Y-51131812D02*
X257791965Y-50424706D01*
X257791965Y-50424706D02*
X257522591Y-50694080D01*
X257522591Y-50694080D02*
X257488919Y-50795095D01*
X257488919Y-50795095D02*
X257488919Y-50862438D01*
X257488919Y-50862438D02*
X257522591Y-50963454D01*
X257522591Y-50963454D02*
X257623606Y-51064469D01*
X257623606Y-51064469D02*
X257724622Y-51098141D01*
X257724622Y-51098141D02*
X257791965Y-51098141D01*
X257791965Y-51098141D02*
X257892980Y-51064469D01*
X257892980Y-51064469D02*
X258162354Y-50795095D01*
X257152202Y-51064469D02*
X256714469Y-51502202D01*
X256714469Y-51502202D02*
X257219545Y-51535873D01*
X257219545Y-51535873D02*
X257118530Y-51636889D01*
X257118530Y-51636889D02*
X257084858Y-51737904D01*
X257084858Y-51737904D02*
X257084858Y-51805247D01*
X257084858Y-51805247D02*
X257118530Y-51906263D01*
X257118530Y-51906263D02*
X257286889Y-52074621D01*
X257286889Y-52074621D02*
X257387904Y-52108293D01*
X257387904Y-52108293D02*
X257455248Y-52108293D01*
X257455248Y-52108293D02*
X257556263Y-52074621D01*
X257556263Y-52074621D02*
X257758293Y-51872591D01*
X257758293Y-51872591D02*
X257791965Y-51771576D01*
X257791965Y-51771576D02*
X257791965Y-51704232D01*
X256478767Y-51737904D02*
X256041034Y-52175637D01*
X256041034Y-52175637D02*
X256546110Y-52209309D01*
X256546110Y-52209309D02*
X256445095Y-52310324D01*
X256445095Y-52310324D02*
X256411423Y-52411339D01*
X256411423Y-52411339D02*
X256411423Y-52478683D01*
X256411423Y-52478683D02*
X256445095Y-52579698D01*
X256445095Y-52579698D02*
X256613454Y-52748057D01*
X256613454Y-52748057D02*
X256714469Y-52781728D01*
X256714469Y-52781728D02*
X256781812Y-52781728D01*
X256781812Y-52781728D02*
X256882828Y-52748057D01*
X256882828Y-52748057D02*
X257084858Y-52546026D01*
X257084858Y-52546026D02*
X257118530Y-52445011D01*
X257118530Y-52445011D02*
X257118530Y-52377667D01*
X257384819Y-104018333D02*
X256908628Y-103685000D01*
X257384819Y-103446905D02*
X256384819Y-103446905D01*
X256384819Y-103446905D02*
X256384819Y-103827857D01*
X256384819Y-103827857D02*
X256432438Y-103923095D01*
X256432438Y-103923095D02*
X256480057Y-103970714D01*
X256480057Y-103970714D02*
X256575295Y-104018333D01*
X256575295Y-104018333D02*
X256718152Y-104018333D01*
X256718152Y-104018333D02*
X256813390Y-103970714D01*
X256813390Y-103970714D02*
X256861009Y-103923095D01*
X256861009Y-103923095D02*
X256908628Y-103827857D01*
X256908628Y-103827857D02*
X256908628Y-103446905D01*
X256718152Y-104875476D02*
X257384819Y-104875476D01*
X256337200Y-104637381D02*
X257051485Y-104399286D01*
X257051485Y-104399286D02*
X257051485Y-105018333D01*
X281209580Y-53467142D02*
X281257200Y-53419523D01*
X281257200Y-53419523D02*
X281304819Y-53276666D01*
X281304819Y-53276666D02*
X281304819Y-53181428D01*
X281304819Y-53181428D02*
X281257200Y-53038571D01*
X281257200Y-53038571D02*
X281161961Y-52943333D01*
X281161961Y-52943333D02*
X281066723Y-52895714D01*
X281066723Y-52895714D02*
X280876247Y-52848095D01*
X280876247Y-52848095D02*
X280733390Y-52848095D01*
X280733390Y-52848095D02*
X280542914Y-52895714D01*
X280542914Y-52895714D02*
X280447676Y-52943333D01*
X280447676Y-52943333D02*
X280352438Y-53038571D01*
X280352438Y-53038571D02*
X280304819Y-53181428D01*
X280304819Y-53181428D02*
X280304819Y-53276666D01*
X280304819Y-53276666D02*
X280352438Y-53419523D01*
X280352438Y-53419523D02*
X280400057Y-53467142D01*
X280304819Y-53800476D02*
X280304819Y-54419523D01*
X280304819Y-54419523D02*
X280685771Y-54086190D01*
X280685771Y-54086190D02*
X280685771Y-54229047D01*
X280685771Y-54229047D02*
X280733390Y-54324285D01*
X280733390Y-54324285D02*
X280781009Y-54371904D01*
X280781009Y-54371904D02*
X280876247Y-54419523D01*
X280876247Y-54419523D02*
X281114342Y-54419523D01*
X281114342Y-54419523D02*
X281209580Y-54371904D01*
X281209580Y-54371904D02*
X281257200Y-54324285D01*
X281257200Y-54324285D02*
X281304819Y-54229047D01*
X281304819Y-54229047D02*
X281304819Y-53943333D01*
X281304819Y-53943333D02*
X281257200Y-53848095D01*
X281257200Y-53848095D02*
X281209580Y-53800476D01*
X280304819Y-55038571D02*
X280304819Y-55133809D01*
X280304819Y-55133809D02*
X280352438Y-55229047D01*
X280352438Y-55229047D02*
X280400057Y-55276666D01*
X280400057Y-55276666D02*
X280495295Y-55324285D01*
X280495295Y-55324285D02*
X280685771Y-55371904D01*
X280685771Y-55371904D02*
X280923866Y-55371904D01*
X280923866Y-55371904D02*
X281114342Y-55324285D01*
X281114342Y-55324285D02*
X281209580Y-55276666D01*
X281209580Y-55276666D02*
X281257200Y-55229047D01*
X281257200Y-55229047D02*
X281304819Y-55133809D01*
X281304819Y-55133809D02*
X281304819Y-55038571D01*
X281304819Y-55038571D02*
X281257200Y-54943333D01*
X281257200Y-54943333D02*
X281209580Y-54895714D01*
X281209580Y-54895714D02*
X281114342Y-54848095D01*
X281114342Y-54848095D02*
X280923866Y-54800476D01*
X280923866Y-54800476D02*
X280685771Y-54800476D01*
X280685771Y-54800476D02*
X280495295Y-54848095D01*
X280495295Y-54848095D02*
X280400057Y-54895714D01*
X280400057Y-54895714D02*
X280352438Y-54943333D01*
X280352438Y-54943333D02*
X280304819Y-55038571D01*
X280894819Y-70187142D02*
X280418628Y-69853809D01*
X280894819Y-69615714D02*
X279894819Y-69615714D01*
X279894819Y-69615714D02*
X279894819Y-69996666D01*
X279894819Y-69996666D02*
X279942438Y-70091904D01*
X279942438Y-70091904D02*
X279990057Y-70139523D01*
X279990057Y-70139523D02*
X280085295Y-70187142D01*
X280085295Y-70187142D02*
X280228152Y-70187142D01*
X280228152Y-70187142D02*
X280323390Y-70139523D01*
X280323390Y-70139523D02*
X280371009Y-70091904D01*
X280371009Y-70091904D02*
X280418628Y-69996666D01*
X280418628Y-69996666D02*
X280418628Y-69615714D01*
X279894819Y-70520476D02*
X279894819Y-71139523D01*
X279894819Y-71139523D02*
X280275771Y-70806190D01*
X280275771Y-70806190D02*
X280275771Y-70949047D01*
X280275771Y-70949047D02*
X280323390Y-71044285D01*
X280323390Y-71044285D02*
X280371009Y-71091904D01*
X280371009Y-71091904D02*
X280466247Y-71139523D01*
X280466247Y-71139523D02*
X280704342Y-71139523D01*
X280704342Y-71139523D02*
X280799580Y-71091904D01*
X280799580Y-71091904D02*
X280847200Y-71044285D01*
X280847200Y-71044285D02*
X280894819Y-70949047D01*
X280894819Y-70949047D02*
X280894819Y-70663333D01*
X280894819Y-70663333D02*
X280847200Y-70568095D01*
X280847200Y-70568095D02*
X280799580Y-70520476D01*
X280228152Y-71996666D02*
X280894819Y-71996666D01*
X279847200Y-71758571D02*
X280561485Y-71520476D01*
X280561485Y-71520476D02*
X280561485Y-72139523D01*
X231462857Y-74614819D02*
X231796190Y-74138628D01*
X232034285Y-74614819D02*
X232034285Y-73614819D01*
X232034285Y-73614819D02*
X231653333Y-73614819D01*
X231653333Y-73614819D02*
X231558095Y-73662438D01*
X231558095Y-73662438D02*
X231510476Y-73710057D01*
X231510476Y-73710057D02*
X231462857Y-73805295D01*
X231462857Y-73805295D02*
X231462857Y-73948152D01*
X231462857Y-73948152D02*
X231510476Y-74043390D01*
X231510476Y-74043390D02*
X231558095Y-74091009D01*
X231558095Y-74091009D02*
X231653333Y-74138628D01*
X231653333Y-74138628D02*
X232034285Y-74138628D01*
X230510476Y-74614819D02*
X231081904Y-74614819D01*
X230796190Y-74614819D02*
X230796190Y-73614819D01*
X230796190Y-73614819D02*
X230891428Y-73757676D01*
X230891428Y-73757676D02*
X230986666Y-73852914D01*
X230986666Y-73852914D02*
X231081904Y-73900533D01*
X230177142Y-73614819D02*
X229558095Y-73614819D01*
X229558095Y-73614819D02*
X229891428Y-73995771D01*
X229891428Y-73995771D02*
X229748571Y-73995771D01*
X229748571Y-73995771D02*
X229653333Y-74043390D01*
X229653333Y-74043390D02*
X229605714Y-74091009D01*
X229605714Y-74091009D02*
X229558095Y-74186247D01*
X229558095Y-74186247D02*
X229558095Y-74424342D01*
X229558095Y-74424342D02*
X229605714Y-74519580D01*
X229605714Y-74519580D02*
X229653333Y-74567200D01*
X229653333Y-74567200D02*
X229748571Y-74614819D01*
X229748571Y-74614819D02*
X230034285Y-74614819D01*
X230034285Y-74614819D02*
X230129523Y-74567200D01*
X230129523Y-74567200D02*
X230177142Y-74519580D01*
X273619284Y-53244818D02*
X273619284Y-52244818D01*
X273619284Y-52244818D02*
X273381189Y-52244818D01*
X273381189Y-52244818D02*
X273238332Y-52292437D01*
X273238332Y-52292437D02*
X273143094Y-52387675D01*
X273143094Y-52387675D02*
X273095475Y-52482913D01*
X273095475Y-52482913D02*
X273047856Y-52673389D01*
X273047856Y-52673389D02*
X273047856Y-52816246D01*
X273047856Y-52816246D02*
X273095475Y-53006722D01*
X273095475Y-53006722D02*
X273143094Y-53101960D01*
X273143094Y-53101960D02*
X273238332Y-53197199D01*
X273238332Y-53197199D02*
X273381189Y-53244818D01*
X273381189Y-53244818D02*
X273619284Y-53244818D01*
X272666903Y-52340056D02*
X272619284Y-52292437D01*
X272619284Y-52292437D02*
X272524046Y-52244818D01*
X272524046Y-52244818D02*
X272285951Y-52244818D01*
X272285951Y-52244818D02*
X272190713Y-52292437D01*
X272190713Y-52292437D02*
X272143094Y-52340056D01*
X272143094Y-52340056D02*
X272095475Y-52435294D01*
X272095475Y-52435294D02*
X272095475Y-52530532D01*
X272095475Y-52530532D02*
X272143094Y-52673389D01*
X272143094Y-52673389D02*
X272714522Y-53244818D01*
X272714522Y-53244818D02*
X272095475Y-53244818D01*
X271762141Y-52244818D02*
X271143094Y-52244818D01*
X271143094Y-52244818D02*
X271476427Y-52625770D01*
X271476427Y-52625770D02*
X271333570Y-52625770D01*
X271333570Y-52625770D02*
X271238332Y-52673389D01*
X271238332Y-52673389D02*
X271190713Y-52721008D01*
X271190713Y-52721008D02*
X271143094Y-52816246D01*
X271143094Y-52816246D02*
X271143094Y-53054341D01*
X271143094Y-53054341D02*
X271190713Y-53149579D01*
X271190713Y-53149579D02*
X271238332Y-53197199D01*
X271238332Y-53197199D02*
X271333570Y-53244818D01*
X271333570Y-53244818D02*
X271619284Y-53244818D01*
X271619284Y-53244818D02*
X271714522Y-53197199D01*
X271714522Y-53197199D02*
X271762141Y-53149579D01*
X282524819Y-53407142D02*
X282048628Y-53073809D01*
X282524819Y-52835714D02*
X281524819Y-52835714D01*
X281524819Y-52835714D02*
X281524819Y-53216666D01*
X281524819Y-53216666D02*
X281572438Y-53311904D01*
X281572438Y-53311904D02*
X281620057Y-53359523D01*
X281620057Y-53359523D02*
X281715295Y-53407142D01*
X281715295Y-53407142D02*
X281858152Y-53407142D01*
X281858152Y-53407142D02*
X281953390Y-53359523D01*
X281953390Y-53359523D02*
X282001009Y-53311904D01*
X282001009Y-53311904D02*
X282048628Y-53216666D01*
X282048628Y-53216666D02*
X282048628Y-52835714D01*
X281524819Y-53740476D02*
X281524819Y-54359523D01*
X281524819Y-54359523D02*
X281905771Y-54026190D01*
X281905771Y-54026190D02*
X281905771Y-54169047D01*
X281905771Y-54169047D02*
X281953390Y-54264285D01*
X281953390Y-54264285D02*
X282001009Y-54311904D01*
X282001009Y-54311904D02*
X282096247Y-54359523D01*
X282096247Y-54359523D02*
X282334342Y-54359523D01*
X282334342Y-54359523D02*
X282429580Y-54311904D01*
X282429580Y-54311904D02*
X282477200Y-54264285D01*
X282477200Y-54264285D02*
X282524819Y-54169047D01*
X282524819Y-54169047D02*
X282524819Y-53883333D01*
X282524819Y-53883333D02*
X282477200Y-53788095D01*
X282477200Y-53788095D02*
X282429580Y-53740476D01*
X281524819Y-55264285D02*
X281524819Y-54788095D01*
X281524819Y-54788095D02*
X282001009Y-54740476D01*
X282001009Y-54740476D02*
X281953390Y-54788095D01*
X281953390Y-54788095D02*
X281905771Y-54883333D01*
X281905771Y-54883333D02*
X281905771Y-55121428D01*
X281905771Y-55121428D02*
X281953390Y-55216666D01*
X281953390Y-55216666D02*
X282001009Y-55264285D01*
X282001009Y-55264285D02*
X282096247Y-55311904D01*
X282096247Y-55311904D02*
X282334342Y-55311904D01*
X282334342Y-55311904D02*
X282429580Y-55264285D01*
X282429580Y-55264285D02*
X282477200Y-55216666D01*
X282477200Y-55216666D02*
X282524819Y-55121428D01*
X282524819Y-55121428D02*
X282524819Y-54883333D01*
X282524819Y-54883333D02*
X282477200Y-54788095D01*
X282477200Y-54788095D02*
X282429580Y-54740476D01*
X246729580Y-144257142D02*
X246777200Y-144209523D01*
X246777200Y-144209523D02*
X246824819Y-144066666D01*
X246824819Y-144066666D02*
X246824819Y-143971428D01*
X246824819Y-143971428D02*
X246777200Y-143828571D01*
X246777200Y-143828571D02*
X246681961Y-143733333D01*
X246681961Y-143733333D02*
X246586723Y-143685714D01*
X246586723Y-143685714D02*
X246396247Y-143638095D01*
X246396247Y-143638095D02*
X246253390Y-143638095D01*
X246253390Y-143638095D02*
X246062914Y-143685714D01*
X246062914Y-143685714D02*
X245967676Y-143733333D01*
X245967676Y-143733333D02*
X245872438Y-143828571D01*
X245872438Y-143828571D02*
X245824819Y-143971428D01*
X245824819Y-143971428D02*
X245824819Y-144066666D01*
X245824819Y-144066666D02*
X245872438Y-144209523D01*
X245872438Y-144209523D02*
X245920057Y-144257142D01*
X246824819Y-145209523D02*
X246824819Y-144638095D01*
X246824819Y-144923809D02*
X245824819Y-144923809D01*
X245824819Y-144923809D02*
X245967676Y-144828571D01*
X245967676Y-144828571D02*
X246062914Y-144733333D01*
X246062914Y-144733333D02*
X246110533Y-144638095D01*
X245824819Y-145542857D02*
X245824819Y-146161904D01*
X245824819Y-146161904D02*
X246205771Y-145828571D01*
X246205771Y-145828571D02*
X246205771Y-145971428D01*
X246205771Y-145971428D02*
X246253390Y-146066666D01*
X246253390Y-146066666D02*
X246301009Y-146114285D01*
X246301009Y-146114285D02*
X246396247Y-146161904D01*
X246396247Y-146161904D02*
X246634342Y-146161904D01*
X246634342Y-146161904D02*
X246729580Y-146114285D01*
X246729580Y-146114285D02*
X246777200Y-146066666D01*
X246777200Y-146066666D02*
X246824819Y-145971428D01*
X246824819Y-145971428D02*
X246824819Y-145685714D01*
X246824819Y-145685714D02*
X246777200Y-145590476D01*
X246777200Y-145590476D02*
X246729580Y-145542857D01*
X270051666Y-88594819D02*
X270384999Y-88118628D01*
X270623094Y-88594819D02*
X270623094Y-87594819D01*
X270623094Y-87594819D02*
X270242142Y-87594819D01*
X270242142Y-87594819D02*
X270146904Y-87642438D01*
X270146904Y-87642438D02*
X270099285Y-87690057D01*
X270099285Y-87690057D02*
X270051666Y-87785295D01*
X270051666Y-87785295D02*
X270051666Y-87928152D01*
X270051666Y-87928152D02*
X270099285Y-88023390D01*
X270099285Y-88023390D02*
X270146904Y-88071009D01*
X270146904Y-88071009D02*
X270242142Y-88118628D01*
X270242142Y-88118628D02*
X270623094Y-88118628D01*
X269670713Y-87690057D02*
X269623094Y-87642438D01*
X269623094Y-87642438D02*
X269527856Y-87594819D01*
X269527856Y-87594819D02*
X269289761Y-87594819D01*
X269289761Y-87594819D02*
X269194523Y-87642438D01*
X269194523Y-87642438D02*
X269146904Y-87690057D01*
X269146904Y-87690057D02*
X269099285Y-87785295D01*
X269099285Y-87785295D02*
X269099285Y-87880533D01*
X269099285Y-87880533D02*
X269146904Y-88023390D01*
X269146904Y-88023390D02*
X269718332Y-88594819D01*
X269718332Y-88594819D02*
X269099285Y-88594819D01*
X267522857Y-59319580D02*
X267570476Y-59367200D01*
X267570476Y-59367200D02*
X267713333Y-59414819D01*
X267713333Y-59414819D02*
X267808571Y-59414819D01*
X267808571Y-59414819D02*
X267951428Y-59367200D01*
X267951428Y-59367200D02*
X268046666Y-59271961D01*
X268046666Y-59271961D02*
X268094285Y-59176723D01*
X268094285Y-59176723D02*
X268141904Y-58986247D01*
X268141904Y-58986247D02*
X268141904Y-58843390D01*
X268141904Y-58843390D02*
X268094285Y-58652914D01*
X268094285Y-58652914D02*
X268046666Y-58557676D01*
X268046666Y-58557676D02*
X267951428Y-58462438D01*
X267951428Y-58462438D02*
X267808571Y-58414819D01*
X267808571Y-58414819D02*
X267713333Y-58414819D01*
X267713333Y-58414819D02*
X267570476Y-58462438D01*
X267570476Y-58462438D02*
X267522857Y-58510057D01*
X267141904Y-58510057D02*
X267094285Y-58462438D01*
X267094285Y-58462438D02*
X266999047Y-58414819D01*
X266999047Y-58414819D02*
X266760952Y-58414819D01*
X266760952Y-58414819D02*
X266665714Y-58462438D01*
X266665714Y-58462438D02*
X266618095Y-58510057D01*
X266618095Y-58510057D02*
X266570476Y-58605295D01*
X266570476Y-58605295D02*
X266570476Y-58700533D01*
X266570476Y-58700533D02*
X266618095Y-58843390D01*
X266618095Y-58843390D02*
X267189523Y-59414819D01*
X267189523Y-59414819D02*
X266570476Y-59414819D01*
X265618095Y-59414819D02*
X266189523Y-59414819D01*
X265903809Y-59414819D02*
X265903809Y-58414819D01*
X265903809Y-58414819D02*
X265999047Y-58557676D01*
X265999047Y-58557676D02*
X266094285Y-58652914D01*
X266094285Y-58652914D02*
X266189523Y-58700533D01*
X229787857Y-69184819D02*
X230121190Y-68708628D01*
X230359285Y-69184819D02*
X230359285Y-68184819D01*
X230359285Y-68184819D02*
X229978333Y-68184819D01*
X229978333Y-68184819D02*
X229883095Y-68232438D01*
X229883095Y-68232438D02*
X229835476Y-68280057D01*
X229835476Y-68280057D02*
X229787857Y-68375295D01*
X229787857Y-68375295D02*
X229787857Y-68518152D01*
X229787857Y-68518152D02*
X229835476Y-68613390D01*
X229835476Y-68613390D02*
X229883095Y-68661009D01*
X229883095Y-68661009D02*
X229978333Y-68708628D01*
X229978333Y-68708628D02*
X230359285Y-68708628D01*
X228835476Y-69184819D02*
X229406904Y-69184819D01*
X229121190Y-69184819D02*
X229121190Y-68184819D01*
X229121190Y-68184819D02*
X229216428Y-68327676D01*
X229216428Y-68327676D02*
X229311666Y-68422914D01*
X229311666Y-68422914D02*
X229406904Y-68470533D01*
X227978333Y-68518152D02*
X227978333Y-69184819D01*
X228216428Y-68137200D02*
X228454523Y-68851485D01*
X228454523Y-68851485D02*
X227835476Y-68851485D01*
X258210011Y-57325873D02*
X258108996Y-56753454D01*
X258614072Y-56921812D02*
X257906965Y-56214706D01*
X257906965Y-56214706D02*
X257637591Y-56484080D01*
X257637591Y-56484080D02*
X257603919Y-56585095D01*
X257603919Y-56585095D02*
X257603919Y-56652438D01*
X257603919Y-56652438D02*
X257637591Y-56753454D01*
X257637591Y-56753454D02*
X257738606Y-56854469D01*
X257738606Y-56854469D02*
X257839622Y-56888141D01*
X257839622Y-56888141D02*
X257906965Y-56888141D01*
X257906965Y-56888141D02*
X258007980Y-56854469D01*
X258007980Y-56854469D02*
X258277354Y-56585095D01*
X257300874Y-56955484D02*
X257233530Y-56955484D01*
X257233530Y-56955484D02*
X257132515Y-56989156D01*
X257132515Y-56989156D02*
X256964156Y-57157515D01*
X256964156Y-57157515D02*
X256930484Y-57258530D01*
X256930484Y-57258530D02*
X256930484Y-57325873D01*
X256930484Y-57325873D02*
X256964156Y-57426889D01*
X256964156Y-57426889D02*
X257031500Y-57494232D01*
X257031500Y-57494232D02*
X257166187Y-57561576D01*
X257166187Y-57561576D02*
X257974309Y-57561576D01*
X257974309Y-57561576D02*
X257536576Y-57999308D01*
X256459080Y-58133996D02*
X256930484Y-58605400D01*
X256358064Y-57696263D02*
X257031499Y-58032980D01*
X257031499Y-58032980D02*
X256593767Y-58470713D01*
X253619580Y-143967142D02*
X253667200Y-143919523D01*
X253667200Y-143919523D02*
X253714819Y-143776666D01*
X253714819Y-143776666D02*
X253714819Y-143681428D01*
X253714819Y-143681428D02*
X253667200Y-143538571D01*
X253667200Y-143538571D02*
X253571961Y-143443333D01*
X253571961Y-143443333D02*
X253476723Y-143395714D01*
X253476723Y-143395714D02*
X253286247Y-143348095D01*
X253286247Y-143348095D02*
X253143390Y-143348095D01*
X253143390Y-143348095D02*
X252952914Y-143395714D01*
X252952914Y-143395714D02*
X252857676Y-143443333D01*
X252857676Y-143443333D02*
X252762438Y-143538571D01*
X252762438Y-143538571D02*
X252714819Y-143681428D01*
X252714819Y-143681428D02*
X252714819Y-143776666D01*
X252714819Y-143776666D02*
X252762438Y-143919523D01*
X252762438Y-143919523D02*
X252810057Y-143967142D01*
X253714819Y-144919523D02*
X253714819Y-144348095D01*
X253714819Y-144633809D02*
X252714819Y-144633809D01*
X252714819Y-144633809D02*
X252857676Y-144538571D01*
X252857676Y-144538571D02*
X252952914Y-144443333D01*
X252952914Y-144443333D02*
X253000533Y-144348095D01*
X253714819Y-145871904D02*
X253714819Y-145300476D01*
X253714819Y-145586190D02*
X252714819Y-145586190D01*
X252714819Y-145586190D02*
X252857676Y-145490952D01*
X252857676Y-145490952D02*
X252952914Y-145395714D01*
X252952914Y-145395714D02*
X253000533Y-145300476D01*
X271104285Y-68484819D02*
X271104285Y-67484819D01*
X271104285Y-67484819D02*
X270866190Y-67484819D01*
X270866190Y-67484819D02*
X270723333Y-67532438D01*
X270723333Y-67532438D02*
X270628095Y-67627676D01*
X270628095Y-67627676D02*
X270580476Y-67722914D01*
X270580476Y-67722914D02*
X270532857Y-67913390D01*
X270532857Y-67913390D02*
X270532857Y-68056247D01*
X270532857Y-68056247D02*
X270580476Y-68246723D01*
X270580476Y-68246723D02*
X270628095Y-68341961D01*
X270628095Y-68341961D02*
X270723333Y-68437200D01*
X270723333Y-68437200D02*
X270866190Y-68484819D01*
X270866190Y-68484819D02*
X271104285Y-68484819D01*
X270151904Y-67580057D02*
X270104285Y-67532438D01*
X270104285Y-67532438D02*
X270009047Y-67484819D01*
X270009047Y-67484819D02*
X269770952Y-67484819D01*
X269770952Y-67484819D02*
X269675714Y-67532438D01*
X269675714Y-67532438D02*
X269628095Y-67580057D01*
X269628095Y-67580057D02*
X269580476Y-67675295D01*
X269580476Y-67675295D02*
X269580476Y-67770533D01*
X269580476Y-67770533D02*
X269628095Y-67913390D01*
X269628095Y-67913390D02*
X270199523Y-68484819D01*
X270199523Y-68484819D02*
X269580476Y-68484819D01*
X268961428Y-67484819D02*
X268866190Y-67484819D01*
X268866190Y-67484819D02*
X268770952Y-67532438D01*
X268770952Y-67532438D02*
X268723333Y-67580057D01*
X268723333Y-67580057D02*
X268675714Y-67675295D01*
X268675714Y-67675295D02*
X268628095Y-67865771D01*
X268628095Y-67865771D02*
X268628095Y-68103866D01*
X268628095Y-68103866D02*
X268675714Y-68294342D01*
X268675714Y-68294342D02*
X268723333Y-68389580D01*
X268723333Y-68389580D02*
X268770952Y-68437200D01*
X268770952Y-68437200D02*
X268866190Y-68484819D01*
X268866190Y-68484819D02*
X268961428Y-68484819D01*
X268961428Y-68484819D02*
X269056666Y-68437200D01*
X269056666Y-68437200D02*
X269104285Y-68389580D01*
X269104285Y-68389580D02*
X269151904Y-68294342D01*
X269151904Y-68294342D02*
X269199523Y-68103866D01*
X269199523Y-68103866D02*
X269199523Y-67865771D01*
X269199523Y-67865771D02*
X269151904Y-67675295D01*
X269151904Y-67675295D02*
X269104285Y-67580057D01*
X269104285Y-67580057D02*
X269056666Y-67532438D01*
X269056666Y-67532438D02*
X268961428Y-67484819D01*
X259909580Y-144097142D02*
X259957200Y-144049523D01*
X259957200Y-144049523D02*
X260004819Y-143906666D01*
X260004819Y-143906666D02*
X260004819Y-143811428D01*
X260004819Y-143811428D02*
X259957200Y-143668571D01*
X259957200Y-143668571D02*
X259861961Y-143573333D01*
X259861961Y-143573333D02*
X259766723Y-143525714D01*
X259766723Y-143525714D02*
X259576247Y-143478095D01*
X259576247Y-143478095D02*
X259433390Y-143478095D01*
X259433390Y-143478095D02*
X259242914Y-143525714D01*
X259242914Y-143525714D02*
X259147676Y-143573333D01*
X259147676Y-143573333D02*
X259052438Y-143668571D01*
X259052438Y-143668571D02*
X259004819Y-143811428D01*
X259004819Y-143811428D02*
X259004819Y-143906666D01*
X259004819Y-143906666D02*
X259052438Y-144049523D01*
X259052438Y-144049523D02*
X259100057Y-144097142D01*
X260004819Y-145049523D02*
X260004819Y-144478095D01*
X260004819Y-144763809D02*
X259004819Y-144763809D01*
X259004819Y-144763809D02*
X259147676Y-144668571D01*
X259147676Y-144668571D02*
X259242914Y-144573333D01*
X259242914Y-144573333D02*
X259290533Y-144478095D01*
X259004819Y-145668571D02*
X259004819Y-145763809D01*
X259004819Y-145763809D02*
X259052438Y-145859047D01*
X259052438Y-145859047D02*
X259100057Y-145906666D01*
X259100057Y-145906666D02*
X259195295Y-145954285D01*
X259195295Y-145954285D02*
X259385771Y-146001904D01*
X259385771Y-146001904D02*
X259623866Y-146001904D01*
X259623866Y-146001904D02*
X259814342Y-145954285D01*
X259814342Y-145954285D02*
X259909580Y-145906666D01*
X259909580Y-145906666D02*
X259957200Y-145859047D01*
X259957200Y-145859047D02*
X260004819Y-145763809D01*
X260004819Y-145763809D02*
X260004819Y-145668571D01*
X260004819Y-145668571D02*
X259957200Y-145573333D01*
X259957200Y-145573333D02*
X259909580Y-145525714D01*
X259909580Y-145525714D02*
X259814342Y-145478095D01*
X259814342Y-145478095D02*
X259623866Y-145430476D01*
X259623866Y-145430476D02*
X259385771Y-145430476D01*
X259385771Y-145430476D02*
X259195295Y-145478095D01*
X259195295Y-145478095D02*
X259100057Y-145525714D01*
X259100057Y-145525714D02*
X259052438Y-145573333D01*
X259052438Y-145573333D02*
X259004819Y-145668571D01*
X257940011Y-73685873D02*
X257838996Y-73113454D01*
X258344072Y-73281812D02*
X257636965Y-72574706D01*
X257636965Y-72574706D02*
X257367591Y-72844080D01*
X257367591Y-72844080D02*
X257333919Y-72945095D01*
X257333919Y-72945095D02*
X257333919Y-73012438D01*
X257333919Y-73012438D02*
X257367591Y-73113454D01*
X257367591Y-73113454D02*
X257468606Y-73214469D01*
X257468606Y-73214469D02*
X257569622Y-73248141D01*
X257569622Y-73248141D02*
X257636965Y-73248141D01*
X257636965Y-73248141D02*
X257737980Y-73214469D01*
X257737980Y-73214469D02*
X258007354Y-72945095D01*
X257266576Y-74359308D02*
X257670637Y-73955247D01*
X257468606Y-74157278D02*
X256761500Y-73450171D01*
X256761500Y-73450171D02*
X256929858Y-73483843D01*
X256929858Y-73483843D02*
X257064545Y-73483843D01*
X257064545Y-73483843D02*
X257165561Y-73450171D01*
X256121736Y-74089935D02*
X256054393Y-74157278D01*
X256054393Y-74157278D02*
X256020721Y-74258293D01*
X256020721Y-74258293D02*
X256020721Y-74325637D01*
X256020721Y-74325637D02*
X256054393Y-74426652D01*
X256054393Y-74426652D02*
X256155408Y-74595011D01*
X256155408Y-74595011D02*
X256323767Y-74763370D01*
X256323767Y-74763370D02*
X256492125Y-74864385D01*
X256492125Y-74864385D02*
X256593141Y-74898057D01*
X256593141Y-74898057D02*
X256660484Y-74898057D01*
X256660484Y-74898057D02*
X256761499Y-74864385D01*
X256761499Y-74864385D02*
X256828843Y-74797041D01*
X256828843Y-74797041D02*
X256862515Y-74696026D01*
X256862515Y-74696026D02*
X256862515Y-74628683D01*
X256862515Y-74628683D02*
X256828843Y-74527667D01*
X256828843Y-74527667D02*
X256727828Y-74359309D01*
X256727828Y-74359309D02*
X256559469Y-74190950D01*
X256559469Y-74190950D02*
X256391110Y-74089935D01*
X256391110Y-74089935D02*
X256290095Y-74056263D01*
X256290095Y-74056263D02*
X256222751Y-74056263D01*
X256222751Y-74056263D02*
X256121736Y-74089935D01*
X267452857Y-53509580D02*
X267500476Y-53557200D01*
X267500476Y-53557200D02*
X267643333Y-53604819D01*
X267643333Y-53604819D02*
X267738571Y-53604819D01*
X267738571Y-53604819D02*
X267881428Y-53557200D01*
X267881428Y-53557200D02*
X267976666Y-53461961D01*
X267976666Y-53461961D02*
X268024285Y-53366723D01*
X268024285Y-53366723D02*
X268071904Y-53176247D01*
X268071904Y-53176247D02*
X268071904Y-53033390D01*
X268071904Y-53033390D02*
X268024285Y-52842914D01*
X268024285Y-52842914D02*
X267976666Y-52747676D01*
X267976666Y-52747676D02*
X267881428Y-52652438D01*
X267881428Y-52652438D02*
X267738571Y-52604819D01*
X267738571Y-52604819D02*
X267643333Y-52604819D01*
X267643333Y-52604819D02*
X267500476Y-52652438D01*
X267500476Y-52652438D02*
X267452857Y-52700057D01*
X267071904Y-52700057D02*
X267024285Y-52652438D01*
X267024285Y-52652438D02*
X266929047Y-52604819D01*
X266929047Y-52604819D02*
X266690952Y-52604819D01*
X266690952Y-52604819D02*
X266595714Y-52652438D01*
X266595714Y-52652438D02*
X266548095Y-52700057D01*
X266548095Y-52700057D02*
X266500476Y-52795295D01*
X266500476Y-52795295D02*
X266500476Y-52890533D01*
X266500476Y-52890533D02*
X266548095Y-53033390D01*
X266548095Y-53033390D02*
X267119523Y-53604819D01*
X267119523Y-53604819D02*
X266500476Y-53604819D01*
X265929047Y-53033390D02*
X266024285Y-52985771D01*
X266024285Y-52985771D02*
X266071904Y-52938152D01*
X266071904Y-52938152D02*
X266119523Y-52842914D01*
X266119523Y-52842914D02*
X266119523Y-52795295D01*
X266119523Y-52795295D02*
X266071904Y-52700057D01*
X266071904Y-52700057D02*
X266024285Y-52652438D01*
X266024285Y-52652438D02*
X265929047Y-52604819D01*
X265929047Y-52604819D02*
X265738571Y-52604819D01*
X265738571Y-52604819D02*
X265643333Y-52652438D01*
X265643333Y-52652438D02*
X265595714Y-52700057D01*
X265595714Y-52700057D02*
X265548095Y-52795295D01*
X265548095Y-52795295D02*
X265548095Y-52842914D01*
X265548095Y-52842914D02*
X265595714Y-52938152D01*
X265595714Y-52938152D02*
X265643333Y-52985771D01*
X265643333Y-52985771D02*
X265738571Y-53033390D01*
X265738571Y-53033390D02*
X265929047Y-53033390D01*
X265929047Y-53033390D02*
X266024285Y-53081009D01*
X266024285Y-53081009D02*
X266071904Y-53128628D01*
X266071904Y-53128628D02*
X266119523Y-53223866D01*
X266119523Y-53223866D02*
X266119523Y-53414342D01*
X266119523Y-53414342D02*
X266071904Y-53509580D01*
X266071904Y-53509580D02*
X266024285Y-53557200D01*
X266024285Y-53557200D02*
X265929047Y-53604819D01*
X265929047Y-53604819D02*
X265738571Y-53604819D01*
X265738571Y-53604819D02*
X265643333Y-53557200D01*
X265643333Y-53557200D02*
X265595714Y-53509580D01*
X265595714Y-53509580D02*
X265548095Y-53414342D01*
X265548095Y-53414342D02*
X265548095Y-53223866D01*
X265548095Y-53223866D02*
X265595714Y-53128628D01*
X265595714Y-53128628D02*
X265643333Y-53081009D01*
X265643333Y-53081009D02*
X265738571Y-53033390D01*
X277354580Y-75642142D02*
X277402200Y-75594523D01*
X277402200Y-75594523D02*
X277449819Y-75451666D01*
X277449819Y-75451666D02*
X277449819Y-75356428D01*
X277449819Y-75356428D02*
X277402200Y-75213571D01*
X277402200Y-75213571D02*
X277306961Y-75118333D01*
X277306961Y-75118333D02*
X277211723Y-75070714D01*
X277211723Y-75070714D02*
X277021247Y-75023095D01*
X277021247Y-75023095D02*
X276878390Y-75023095D01*
X276878390Y-75023095D02*
X276687914Y-75070714D01*
X276687914Y-75070714D02*
X276592676Y-75118333D01*
X276592676Y-75118333D02*
X276497438Y-75213571D01*
X276497438Y-75213571D02*
X276449819Y-75356428D01*
X276449819Y-75356428D02*
X276449819Y-75451666D01*
X276449819Y-75451666D02*
X276497438Y-75594523D01*
X276497438Y-75594523D02*
X276545057Y-75642142D01*
X277449819Y-76594523D02*
X277449819Y-76023095D01*
X277449819Y-76308809D02*
X276449819Y-76308809D01*
X276449819Y-76308809D02*
X276592676Y-76213571D01*
X276592676Y-76213571D02*
X276687914Y-76118333D01*
X276687914Y-76118333D02*
X276735533Y-76023095D01*
X276783152Y-77451666D02*
X277449819Y-77451666D01*
X276402200Y-77213571D02*
X277116485Y-76975476D01*
X277116485Y-76975476D02*
X277116485Y-77594523D01*
X267327857Y-64799580D02*
X267375476Y-64847200D01*
X267375476Y-64847200D02*
X267518333Y-64894819D01*
X267518333Y-64894819D02*
X267613571Y-64894819D01*
X267613571Y-64894819D02*
X267756428Y-64847200D01*
X267756428Y-64847200D02*
X267851666Y-64751961D01*
X267851666Y-64751961D02*
X267899285Y-64656723D01*
X267899285Y-64656723D02*
X267946904Y-64466247D01*
X267946904Y-64466247D02*
X267946904Y-64323390D01*
X267946904Y-64323390D02*
X267899285Y-64132914D01*
X267899285Y-64132914D02*
X267851666Y-64037676D01*
X267851666Y-64037676D02*
X267756428Y-63942438D01*
X267756428Y-63942438D02*
X267613571Y-63894819D01*
X267613571Y-63894819D02*
X267518333Y-63894819D01*
X267518333Y-63894819D02*
X267375476Y-63942438D01*
X267375476Y-63942438D02*
X267327857Y-63990057D01*
X266946904Y-63990057D02*
X266899285Y-63942438D01*
X266899285Y-63942438D02*
X266804047Y-63894819D01*
X266804047Y-63894819D02*
X266565952Y-63894819D01*
X266565952Y-63894819D02*
X266470714Y-63942438D01*
X266470714Y-63942438D02*
X266423095Y-63990057D01*
X266423095Y-63990057D02*
X266375476Y-64085295D01*
X266375476Y-64085295D02*
X266375476Y-64180533D01*
X266375476Y-64180533D02*
X266423095Y-64323390D01*
X266423095Y-64323390D02*
X266994523Y-64894819D01*
X266994523Y-64894819D02*
X266375476Y-64894819D01*
X266042142Y-63894819D02*
X265423095Y-63894819D01*
X265423095Y-63894819D02*
X265756428Y-64275771D01*
X265756428Y-64275771D02*
X265613571Y-64275771D01*
X265613571Y-64275771D02*
X265518333Y-64323390D01*
X265518333Y-64323390D02*
X265470714Y-64371009D01*
X265470714Y-64371009D02*
X265423095Y-64466247D01*
X265423095Y-64466247D02*
X265423095Y-64704342D01*
X265423095Y-64704342D02*
X265470714Y-64799580D01*
X265470714Y-64799580D02*
X265518333Y-64847200D01*
X265518333Y-64847200D02*
X265613571Y-64894819D01*
X265613571Y-64894819D02*
X265899285Y-64894819D01*
X265899285Y-64894819D02*
X265994523Y-64847200D01*
X265994523Y-64847200D02*
X266042142Y-64799580D01*
X253915559Y-103793943D02*
X254622665Y-103086836D01*
X254622665Y-103086836D02*
X254454307Y-102918477D01*
X254454307Y-102918477D02*
X254319620Y-102851134D01*
X254319620Y-102851134D02*
X254184933Y-102851134D01*
X254184933Y-102851134D02*
X254083917Y-102884806D01*
X254083917Y-102884806D02*
X253915559Y-102985821D01*
X253915559Y-102985821D02*
X253814543Y-103086836D01*
X253814543Y-103086836D02*
X253713528Y-103255195D01*
X253713528Y-103255195D02*
X253679856Y-103356210D01*
X253679856Y-103356210D02*
X253679856Y-103490897D01*
X253679856Y-103490897D02*
X253747200Y-103625584D01*
X253747200Y-103625584D02*
X253915559Y-103793943D01*
X253881887Y-102480745D02*
X253881887Y-102413401D01*
X253881887Y-102413401D02*
X253848215Y-102312386D01*
X253848215Y-102312386D02*
X253679856Y-102144027D01*
X253679856Y-102144027D02*
X253578841Y-102110355D01*
X253578841Y-102110355D02*
X253511498Y-102110355D01*
X253511498Y-102110355D02*
X253410482Y-102144027D01*
X253410482Y-102144027D02*
X253343139Y-102211371D01*
X253343139Y-102211371D02*
X253275795Y-102346058D01*
X253275795Y-102346058D02*
X253275795Y-103154180D01*
X253275795Y-103154180D02*
X252838063Y-102716447D01*
X267241666Y-90984819D02*
X267574999Y-90508628D01*
X267813094Y-90984819D02*
X267813094Y-89984819D01*
X267813094Y-89984819D02*
X267432142Y-89984819D01*
X267432142Y-89984819D02*
X267336904Y-90032438D01*
X267336904Y-90032438D02*
X267289285Y-90080057D01*
X267289285Y-90080057D02*
X267241666Y-90175295D01*
X267241666Y-90175295D02*
X267241666Y-90318152D01*
X267241666Y-90318152D02*
X267289285Y-90413390D01*
X267289285Y-90413390D02*
X267336904Y-90461009D01*
X267336904Y-90461009D02*
X267432142Y-90508628D01*
X267432142Y-90508628D02*
X267813094Y-90508628D01*
X266289285Y-90984819D02*
X266860713Y-90984819D01*
X266574999Y-90984819D02*
X266574999Y-89984819D01*
X266574999Y-89984819D02*
X266670237Y-90127676D01*
X266670237Y-90127676D02*
X266765475Y-90222914D01*
X266765475Y-90222914D02*
X266860713Y-90270533D01*
X271734820Y-38620714D02*
X270734820Y-38620714D01*
X270734820Y-38620714D02*
X270734820Y-38858809D01*
X270734820Y-38858809D02*
X270782439Y-39001666D01*
X270782439Y-39001666D02*
X270877677Y-39096904D01*
X270877677Y-39096904D02*
X270972915Y-39144523D01*
X270972915Y-39144523D02*
X271163391Y-39192142D01*
X271163391Y-39192142D02*
X271306248Y-39192142D01*
X271306248Y-39192142D02*
X271496724Y-39144523D01*
X271496724Y-39144523D02*
X271591962Y-39096904D01*
X271591962Y-39096904D02*
X271687201Y-39001666D01*
X271687201Y-39001666D02*
X271734820Y-38858809D01*
X271734820Y-38858809D02*
X271734820Y-38620714D01*
X270830058Y-39573095D02*
X270782439Y-39620714D01*
X270782439Y-39620714D02*
X270734820Y-39715952D01*
X270734820Y-39715952D02*
X270734820Y-39954047D01*
X270734820Y-39954047D02*
X270782439Y-40049285D01*
X270782439Y-40049285D02*
X270830058Y-40096904D01*
X270830058Y-40096904D02*
X270925296Y-40144523D01*
X270925296Y-40144523D02*
X271020534Y-40144523D01*
X271020534Y-40144523D02*
X271163391Y-40096904D01*
X271163391Y-40096904D02*
X271734820Y-39525476D01*
X271734820Y-39525476D02*
X271734820Y-40144523D01*
X271734820Y-41096904D02*
X271734820Y-40525476D01*
X271734820Y-40811190D02*
X270734820Y-40811190D01*
X270734820Y-40811190D02*
X270877677Y-40715952D01*
X270877677Y-40715952D02*
X270972915Y-40620714D01*
X270972915Y-40620714D02*
X271020534Y-40525476D01*
X250412507Y-54408602D02*
X249612050Y-54408602D01*
X250336273Y-55247176D02*
X250374390Y-55209059D01*
X250374390Y-55209059D02*
X250412507Y-55094708D01*
X250412507Y-55094708D02*
X250412507Y-55018474D01*
X250412507Y-55018474D02*
X250374390Y-54904123D01*
X250374390Y-54904123D02*
X250298156Y-54827889D01*
X250298156Y-54827889D02*
X250221922Y-54789772D01*
X250221922Y-54789772D02*
X250069454Y-54751655D01*
X250069454Y-54751655D02*
X249955103Y-54751655D01*
X249955103Y-54751655D02*
X249802635Y-54789772D01*
X249802635Y-54789772D02*
X249726401Y-54827889D01*
X249726401Y-54827889D02*
X249650167Y-54904123D01*
X249650167Y-54904123D02*
X249612050Y-55018474D01*
X249612050Y-55018474D02*
X249612050Y-55094708D01*
X249612050Y-55094708D02*
X249650167Y-55209059D01*
X249650167Y-55209059D02*
X249688284Y-55247176D01*
X249612050Y-55933282D02*
X249612050Y-55780814D01*
X249612050Y-55780814D02*
X249650167Y-55704580D01*
X249650167Y-55704580D02*
X249688284Y-55666463D01*
X249688284Y-55666463D02*
X249802635Y-55590229D01*
X249802635Y-55590229D02*
X249955103Y-55552112D01*
X249955103Y-55552112D02*
X250260039Y-55552112D01*
X250260039Y-55552112D02*
X250336273Y-55590229D01*
X250336273Y-55590229D02*
X250374390Y-55628346D01*
X250374390Y-55628346D02*
X250412507Y-55704580D01*
X250412507Y-55704580D02*
X250412507Y-55857048D01*
X250412507Y-55857048D02*
X250374390Y-55933282D01*
X250374390Y-55933282D02*
X250336273Y-55971399D01*
X250336273Y-55971399D02*
X250260039Y-56009516D01*
X250260039Y-56009516D02*
X250069454Y-56009516D01*
X250069454Y-56009516D02*
X249993220Y-55971399D01*
X249993220Y-55971399D02*
X249955103Y-55933282D01*
X249955103Y-55933282D02*
X249916986Y-55857048D01*
X249916986Y-55857048D02*
X249916986Y-55704580D01*
X249916986Y-55704580D02*
X249955103Y-55628346D01*
X249955103Y-55628346D02*
X249993220Y-55590229D01*
X249993220Y-55590229D02*
X250069454Y-55552112D01*
X267762857Y-75899580D02*
X267810476Y-75947200D01*
X267810476Y-75947200D02*
X267953333Y-75994819D01*
X267953333Y-75994819D02*
X268048571Y-75994819D01*
X268048571Y-75994819D02*
X268191428Y-75947200D01*
X268191428Y-75947200D02*
X268286666Y-75851961D01*
X268286666Y-75851961D02*
X268334285Y-75756723D01*
X268334285Y-75756723D02*
X268381904Y-75566247D01*
X268381904Y-75566247D02*
X268381904Y-75423390D01*
X268381904Y-75423390D02*
X268334285Y-75232914D01*
X268334285Y-75232914D02*
X268286666Y-75137676D01*
X268286666Y-75137676D02*
X268191428Y-75042438D01*
X268191428Y-75042438D02*
X268048571Y-74994819D01*
X268048571Y-74994819D02*
X267953333Y-74994819D01*
X267953333Y-74994819D02*
X267810476Y-75042438D01*
X267810476Y-75042438D02*
X267762857Y-75090057D01*
X266810476Y-75994819D02*
X267381904Y-75994819D01*
X267096190Y-75994819D02*
X267096190Y-74994819D01*
X267096190Y-74994819D02*
X267191428Y-75137676D01*
X267191428Y-75137676D02*
X267286666Y-75232914D01*
X267286666Y-75232914D02*
X267381904Y-75280533D01*
X266429523Y-75090057D02*
X266381904Y-75042438D01*
X266381904Y-75042438D02*
X266286666Y-74994819D01*
X266286666Y-74994819D02*
X266048571Y-74994819D01*
X266048571Y-74994819D02*
X265953333Y-75042438D01*
X265953333Y-75042438D02*
X265905714Y-75090057D01*
X265905714Y-75090057D02*
X265858095Y-75185295D01*
X265858095Y-75185295D02*
X265858095Y-75280533D01*
X265858095Y-75280533D02*
X265905714Y-75423390D01*
X265905714Y-75423390D02*
X266477142Y-75994819D01*
X266477142Y-75994819D02*
X265858095Y-75994819D01*
X280009580Y-58807142D02*
X280057200Y-58759523D01*
X280057200Y-58759523D02*
X280104819Y-58616666D01*
X280104819Y-58616666D02*
X280104819Y-58521428D01*
X280104819Y-58521428D02*
X280057200Y-58378571D01*
X280057200Y-58378571D02*
X279961961Y-58283333D01*
X279961961Y-58283333D02*
X279866723Y-58235714D01*
X279866723Y-58235714D02*
X279676247Y-58188095D01*
X279676247Y-58188095D02*
X279533390Y-58188095D01*
X279533390Y-58188095D02*
X279342914Y-58235714D01*
X279342914Y-58235714D02*
X279247676Y-58283333D01*
X279247676Y-58283333D02*
X279152438Y-58378571D01*
X279152438Y-58378571D02*
X279104819Y-58521428D01*
X279104819Y-58521428D02*
X279104819Y-58616666D01*
X279104819Y-58616666D02*
X279152438Y-58759523D01*
X279152438Y-58759523D02*
X279200057Y-58807142D01*
X279200057Y-59188095D02*
X279152438Y-59235714D01*
X279152438Y-59235714D02*
X279104819Y-59330952D01*
X279104819Y-59330952D02*
X279104819Y-59569047D01*
X279104819Y-59569047D02*
X279152438Y-59664285D01*
X279152438Y-59664285D02*
X279200057Y-59711904D01*
X279200057Y-59711904D02*
X279295295Y-59759523D01*
X279295295Y-59759523D02*
X279390533Y-59759523D01*
X279390533Y-59759523D02*
X279533390Y-59711904D01*
X279533390Y-59711904D02*
X280104819Y-59140476D01*
X280104819Y-59140476D02*
X280104819Y-59759523D01*
X279200057Y-60140476D02*
X279152438Y-60188095D01*
X279152438Y-60188095D02*
X279104819Y-60283333D01*
X279104819Y-60283333D02*
X279104819Y-60521428D01*
X279104819Y-60521428D02*
X279152438Y-60616666D01*
X279152438Y-60616666D02*
X279200057Y-60664285D01*
X279200057Y-60664285D02*
X279295295Y-60711904D01*
X279295295Y-60711904D02*
X279390533Y-60711904D01*
X279390533Y-60711904D02*
X279533390Y-60664285D01*
X279533390Y-60664285D02*
X280104819Y-60092857D01*
X280104819Y-60092857D02*
X280104819Y-60711904D01*
X280049580Y-64297142D02*
X280097200Y-64249523D01*
X280097200Y-64249523D02*
X280144819Y-64106666D01*
X280144819Y-64106666D02*
X280144819Y-64011428D01*
X280144819Y-64011428D02*
X280097200Y-63868571D01*
X280097200Y-63868571D02*
X280001961Y-63773333D01*
X280001961Y-63773333D02*
X279906723Y-63725714D01*
X279906723Y-63725714D02*
X279716247Y-63678095D01*
X279716247Y-63678095D02*
X279573390Y-63678095D01*
X279573390Y-63678095D02*
X279382914Y-63725714D01*
X279382914Y-63725714D02*
X279287676Y-63773333D01*
X279287676Y-63773333D02*
X279192438Y-63868571D01*
X279192438Y-63868571D02*
X279144819Y-64011428D01*
X279144819Y-64011428D02*
X279144819Y-64106666D01*
X279144819Y-64106666D02*
X279192438Y-64249523D01*
X279192438Y-64249523D02*
X279240057Y-64297142D01*
X279240057Y-64678095D02*
X279192438Y-64725714D01*
X279192438Y-64725714D02*
X279144819Y-64820952D01*
X279144819Y-64820952D02*
X279144819Y-65059047D01*
X279144819Y-65059047D02*
X279192438Y-65154285D01*
X279192438Y-65154285D02*
X279240057Y-65201904D01*
X279240057Y-65201904D02*
X279335295Y-65249523D01*
X279335295Y-65249523D02*
X279430533Y-65249523D01*
X279430533Y-65249523D02*
X279573390Y-65201904D01*
X279573390Y-65201904D02*
X280144819Y-64630476D01*
X280144819Y-64630476D02*
X280144819Y-65249523D01*
X279478152Y-66106666D02*
X280144819Y-66106666D01*
X279097200Y-65868571D02*
X279811485Y-65630476D01*
X279811485Y-65630476D02*
X279811485Y-66249523D01*
X253272857Y-62614819D02*
X253606190Y-62138628D01*
X253844285Y-62614819D02*
X253844285Y-61614819D01*
X253844285Y-61614819D02*
X253463333Y-61614819D01*
X253463333Y-61614819D02*
X253368095Y-61662438D01*
X253368095Y-61662438D02*
X253320476Y-61710057D01*
X253320476Y-61710057D02*
X253272857Y-61805295D01*
X253272857Y-61805295D02*
X253272857Y-61948152D01*
X253272857Y-61948152D02*
X253320476Y-62043390D01*
X253320476Y-62043390D02*
X253368095Y-62091009D01*
X253368095Y-62091009D02*
X253463333Y-62138628D01*
X253463333Y-62138628D02*
X253844285Y-62138628D01*
X252891904Y-61710057D02*
X252844285Y-61662438D01*
X252844285Y-61662438D02*
X252749047Y-61614819D01*
X252749047Y-61614819D02*
X252510952Y-61614819D01*
X252510952Y-61614819D02*
X252415714Y-61662438D01*
X252415714Y-61662438D02*
X252368095Y-61710057D01*
X252368095Y-61710057D02*
X252320476Y-61805295D01*
X252320476Y-61805295D02*
X252320476Y-61900533D01*
X252320476Y-61900533D02*
X252368095Y-62043390D01*
X252368095Y-62043390D02*
X252939523Y-62614819D01*
X252939523Y-62614819D02*
X252320476Y-62614819D01*
X251463333Y-61614819D02*
X251653809Y-61614819D01*
X251653809Y-61614819D02*
X251749047Y-61662438D01*
X251749047Y-61662438D02*
X251796666Y-61710057D01*
X251796666Y-61710057D02*
X251891904Y-61852914D01*
X251891904Y-61852914D02*
X251939523Y-62043390D01*
X251939523Y-62043390D02*
X251939523Y-62424342D01*
X251939523Y-62424342D02*
X251891904Y-62519580D01*
X251891904Y-62519580D02*
X251844285Y-62567200D01*
X251844285Y-62567200D02*
X251749047Y-62614819D01*
X251749047Y-62614819D02*
X251558571Y-62614819D01*
X251558571Y-62614819D02*
X251463333Y-62567200D01*
X251463333Y-62567200D02*
X251415714Y-62519580D01*
X251415714Y-62519580D02*
X251368095Y-62424342D01*
X251368095Y-62424342D02*
X251368095Y-62186247D01*
X251368095Y-62186247D02*
X251415714Y-62091009D01*
X251415714Y-62091009D02*
X251463333Y-62043390D01*
X251463333Y-62043390D02*
X251558571Y-61995771D01*
X251558571Y-61995771D02*
X251749047Y-61995771D01*
X251749047Y-61995771D02*
X251844285Y-62043390D01*
X251844285Y-62043390D02*
X251891904Y-62091009D01*
X251891904Y-62091009D02*
X251939523Y-62186247D01*
X281884819Y-64417142D02*
X281408628Y-64083809D01*
X281884819Y-63845714D02*
X280884819Y-63845714D01*
X280884819Y-63845714D02*
X280884819Y-64226666D01*
X280884819Y-64226666D02*
X280932438Y-64321904D01*
X280932438Y-64321904D02*
X280980057Y-64369523D01*
X280980057Y-64369523D02*
X281075295Y-64417142D01*
X281075295Y-64417142D02*
X281218152Y-64417142D01*
X281218152Y-64417142D02*
X281313390Y-64369523D01*
X281313390Y-64369523D02*
X281361009Y-64321904D01*
X281361009Y-64321904D02*
X281408628Y-64226666D01*
X281408628Y-64226666D02*
X281408628Y-63845714D01*
X280980057Y-64798095D02*
X280932438Y-64845714D01*
X280932438Y-64845714D02*
X280884819Y-64940952D01*
X280884819Y-64940952D02*
X280884819Y-65179047D01*
X280884819Y-65179047D02*
X280932438Y-65274285D01*
X280932438Y-65274285D02*
X280980057Y-65321904D01*
X280980057Y-65321904D02*
X281075295Y-65369523D01*
X281075295Y-65369523D02*
X281170533Y-65369523D01*
X281170533Y-65369523D02*
X281313390Y-65321904D01*
X281313390Y-65321904D02*
X281884819Y-64750476D01*
X281884819Y-64750476D02*
X281884819Y-65369523D01*
X281884819Y-65845714D02*
X281884819Y-66036190D01*
X281884819Y-66036190D02*
X281837200Y-66131428D01*
X281837200Y-66131428D02*
X281789580Y-66179047D01*
X281789580Y-66179047D02*
X281646723Y-66274285D01*
X281646723Y-66274285D02*
X281456247Y-66321904D01*
X281456247Y-66321904D02*
X281075295Y-66321904D01*
X281075295Y-66321904D02*
X280980057Y-66274285D01*
X280980057Y-66274285D02*
X280932438Y-66226666D01*
X280932438Y-66226666D02*
X280884819Y-66131428D01*
X280884819Y-66131428D02*
X280884819Y-65940952D01*
X280884819Y-65940952D02*
X280932438Y-65845714D01*
X280932438Y-65845714D02*
X280980057Y-65798095D01*
X280980057Y-65798095D02*
X281075295Y-65750476D01*
X281075295Y-65750476D02*
X281313390Y-65750476D01*
X281313390Y-65750476D02*
X281408628Y-65798095D01*
X281408628Y-65798095D02*
X281456247Y-65845714D01*
X281456247Y-65845714D02*
X281503866Y-65940952D01*
X281503866Y-65940952D02*
X281503866Y-66131428D01*
X281503866Y-66131428D02*
X281456247Y-66226666D01*
X281456247Y-66226666D02*
X281408628Y-66274285D01*
X281408628Y-66274285D02*
X281313390Y-66321904D01*
X273579285Y-64504819D02*
X273579285Y-63504819D01*
X273579285Y-63504819D02*
X273341190Y-63504819D01*
X273341190Y-63504819D02*
X273198333Y-63552438D01*
X273198333Y-63552438D02*
X273103095Y-63647676D01*
X273103095Y-63647676D02*
X273055476Y-63742914D01*
X273055476Y-63742914D02*
X273007857Y-63933390D01*
X273007857Y-63933390D02*
X273007857Y-64076247D01*
X273007857Y-64076247D02*
X273055476Y-64266723D01*
X273055476Y-64266723D02*
X273103095Y-64361961D01*
X273103095Y-64361961D02*
X273198333Y-64457200D01*
X273198333Y-64457200D02*
X273341190Y-64504819D01*
X273341190Y-64504819D02*
X273579285Y-64504819D01*
X272055476Y-64504819D02*
X272626904Y-64504819D01*
X272341190Y-64504819D02*
X272341190Y-63504819D01*
X272341190Y-63504819D02*
X272436428Y-63647676D01*
X272436428Y-63647676D02*
X272531666Y-63742914D01*
X272531666Y-63742914D02*
X272626904Y-63790533D01*
X271722142Y-63504819D02*
X271055476Y-63504819D01*
X271055476Y-63504819D02*
X271484047Y-64504819D01*
X250122507Y-65628602D02*
X249322050Y-65628602D01*
X250046273Y-66467176D02*
X250084390Y-66429059D01*
X250084390Y-66429059D02*
X250122507Y-66314708D01*
X250122507Y-66314708D02*
X250122507Y-66238474D01*
X250122507Y-66238474D02*
X250084390Y-66124123D01*
X250084390Y-66124123D02*
X250008156Y-66047889D01*
X250008156Y-66047889D02*
X249931922Y-66009772D01*
X249931922Y-66009772D02*
X249779454Y-65971655D01*
X249779454Y-65971655D02*
X249665103Y-65971655D01*
X249665103Y-65971655D02*
X249512635Y-66009772D01*
X249512635Y-66009772D02*
X249436401Y-66047889D01*
X249436401Y-66047889D02*
X249360167Y-66124123D01*
X249360167Y-66124123D02*
X249322050Y-66238474D01*
X249322050Y-66238474D02*
X249322050Y-66314708D01*
X249322050Y-66314708D02*
X249360167Y-66429059D01*
X249360167Y-66429059D02*
X249398284Y-66467176D01*
X249322050Y-66733995D02*
X249322050Y-67229516D01*
X249322050Y-67229516D02*
X249626986Y-66962697D01*
X249626986Y-66962697D02*
X249626986Y-67077048D01*
X249626986Y-67077048D02*
X249665103Y-67153282D01*
X249665103Y-67153282D02*
X249703220Y-67191399D01*
X249703220Y-67191399D02*
X249779454Y-67229516D01*
X249779454Y-67229516D02*
X249970039Y-67229516D01*
X249970039Y-67229516D02*
X250046273Y-67191399D01*
X250046273Y-67191399D02*
X250084390Y-67153282D01*
X250084390Y-67153282D02*
X250122507Y-67077048D01*
X250122507Y-67077048D02*
X250122507Y-66848346D01*
X250122507Y-66848346D02*
X250084390Y-66772112D01*
X250084390Y-66772112D02*
X250046273Y-66733995D01*
X230674819Y-93197142D02*
X230198628Y-92863809D01*
X230674819Y-92625714D02*
X229674819Y-92625714D01*
X229674819Y-92625714D02*
X229674819Y-93006666D01*
X229674819Y-93006666D02*
X229722438Y-93101904D01*
X229722438Y-93101904D02*
X229770057Y-93149523D01*
X229770057Y-93149523D02*
X229865295Y-93197142D01*
X229865295Y-93197142D02*
X230008152Y-93197142D01*
X230008152Y-93197142D02*
X230103390Y-93149523D01*
X230103390Y-93149523D02*
X230151009Y-93101904D01*
X230151009Y-93101904D02*
X230198628Y-93006666D01*
X230198628Y-93006666D02*
X230198628Y-92625714D01*
X230674819Y-94149523D02*
X230674819Y-93578095D01*
X230674819Y-93863809D02*
X229674819Y-93863809D01*
X229674819Y-93863809D02*
X229817676Y-93768571D01*
X229817676Y-93768571D02*
X229912914Y-93673333D01*
X229912914Y-93673333D02*
X229960533Y-93578095D01*
X229674819Y-95006666D02*
X229674819Y-94816190D01*
X229674819Y-94816190D02*
X229722438Y-94720952D01*
X229722438Y-94720952D02*
X229770057Y-94673333D01*
X229770057Y-94673333D02*
X229912914Y-94578095D01*
X229912914Y-94578095D02*
X230103390Y-94530476D01*
X230103390Y-94530476D02*
X230484342Y-94530476D01*
X230484342Y-94530476D02*
X230579580Y-94578095D01*
X230579580Y-94578095D02*
X230627200Y-94625714D01*
X230627200Y-94625714D02*
X230674819Y-94720952D01*
X230674819Y-94720952D02*
X230674819Y-94911428D01*
X230674819Y-94911428D02*
X230627200Y-95006666D01*
X230627200Y-95006666D02*
X230579580Y-95054285D01*
X230579580Y-95054285D02*
X230484342Y-95101904D01*
X230484342Y-95101904D02*
X230246247Y-95101904D01*
X230246247Y-95101904D02*
X230151009Y-95054285D01*
X230151009Y-95054285D02*
X230103390Y-95006666D01*
X230103390Y-95006666D02*
X230055771Y-94911428D01*
X230055771Y-94911428D02*
X230055771Y-94720952D01*
X230055771Y-94720952D02*
X230103390Y-94625714D01*
X230103390Y-94625714D02*
X230151009Y-94578095D01*
X230151009Y-94578095D02*
X230246247Y-94530476D01*
X273946785Y-70164819D02*
X273946785Y-69164819D01*
X273946785Y-69164819D02*
X273708690Y-69164819D01*
X273708690Y-69164819D02*
X273565833Y-69212438D01*
X273565833Y-69212438D02*
X273470595Y-69307676D01*
X273470595Y-69307676D02*
X273422976Y-69402914D01*
X273422976Y-69402914D02*
X273375357Y-69593390D01*
X273375357Y-69593390D02*
X273375357Y-69736247D01*
X273375357Y-69736247D02*
X273422976Y-69926723D01*
X273422976Y-69926723D02*
X273470595Y-70021961D01*
X273470595Y-70021961D02*
X273565833Y-70117200D01*
X273565833Y-70117200D02*
X273708690Y-70164819D01*
X273708690Y-70164819D02*
X273946785Y-70164819D01*
X272994404Y-69260057D02*
X272946785Y-69212438D01*
X272946785Y-69212438D02*
X272851547Y-69164819D01*
X272851547Y-69164819D02*
X272613452Y-69164819D01*
X272613452Y-69164819D02*
X272518214Y-69212438D01*
X272518214Y-69212438D02*
X272470595Y-69260057D01*
X272470595Y-69260057D02*
X272422976Y-69355295D01*
X272422976Y-69355295D02*
X272422976Y-69450533D01*
X272422976Y-69450533D02*
X272470595Y-69593390D01*
X272470595Y-69593390D02*
X273042023Y-70164819D01*
X273042023Y-70164819D02*
X272422976Y-70164819D01*
X272042023Y-69260057D02*
X271994404Y-69212438D01*
X271994404Y-69212438D02*
X271899166Y-69164819D01*
X271899166Y-69164819D02*
X271661071Y-69164819D01*
X271661071Y-69164819D02*
X271565833Y-69212438D01*
X271565833Y-69212438D02*
X271518214Y-69260057D01*
X271518214Y-69260057D02*
X271470595Y-69355295D01*
X271470595Y-69355295D02*
X271470595Y-69450533D01*
X271470595Y-69450533D02*
X271518214Y-69593390D01*
X271518214Y-69593390D02*
X272089642Y-70164819D01*
X272089642Y-70164819D02*
X271470595Y-70164819D01*
X235357857Y-96579580D02*
X235405476Y-96627200D01*
X235405476Y-96627200D02*
X235548333Y-96674819D01*
X235548333Y-96674819D02*
X235643571Y-96674819D01*
X235643571Y-96674819D02*
X235786428Y-96627200D01*
X235786428Y-96627200D02*
X235881666Y-96531961D01*
X235881666Y-96531961D02*
X235929285Y-96436723D01*
X235929285Y-96436723D02*
X235976904Y-96246247D01*
X235976904Y-96246247D02*
X235976904Y-96103390D01*
X235976904Y-96103390D02*
X235929285Y-95912914D01*
X235929285Y-95912914D02*
X235881666Y-95817676D01*
X235881666Y-95817676D02*
X235786428Y-95722438D01*
X235786428Y-95722438D02*
X235643571Y-95674819D01*
X235643571Y-95674819D02*
X235548333Y-95674819D01*
X235548333Y-95674819D02*
X235405476Y-95722438D01*
X235405476Y-95722438D02*
X235357857Y-95770057D01*
X234405476Y-96674819D02*
X234976904Y-96674819D01*
X234691190Y-96674819D02*
X234691190Y-95674819D01*
X234691190Y-95674819D02*
X234786428Y-95817676D01*
X234786428Y-95817676D02*
X234881666Y-95912914D01*
X234881666Y-95912914D02*
X234976904Y-95960533D01*
X233548333Y-95674819D02*
X233738809Y-95674819D01*
X233738809Y-95674819D02*
X233834047Y-95722438D01*
X233834047Y-95722438D02*
X233881666Y-95770057D01*
X233881666Y-95770057D02*
X233976904Y-95912914D01*
X233976904Y-95912914D02*
X234024523Y-96103390D01*
X234024523Y-96103390D02*
X234024523Y-96484342D01*
X234024523Y-96484342D02*
X233976904Y-96579580D01*
X233976904Y-96579580D02*
X233929285Y-96627200D01*
X233929285Y-96627200D02*
X233834047Y-96674819D01*
X233834047Y-96674819D02*
X233643571Y-96674819D01*
X233643571Y-96674819D02*
X233548333Y-96627200D01*
X233548333Y-96627200D02*
X233500714Y-96579580D01*
X233500714Y-96579580D02*
X233453095Y-96484342D01*
X233453095Y-96484342D02*
X233453095Y-96246247D01*
X233453095Y-96246247D02*
X233500714Y-96151009D01*
X233500714Y-96151009D02*
X233548333Y-96103390D01*
X233548333Y-96103390D02*
X233643571Y-96055771D01*
X233643571Y-96055771D02*
X233834047Y-96055771D01*
X233834047Y-96055771D02*
X233929285Y-96103390D01*
X233929285Y-96103390D02*
X233976904Y-96151009D01*
X233976904Y-96151009D02*
X234024523Y-96246247D01*
X270894285Y-57304819D02*
X270894285Y-56304819D01*
X270894285Y-56304819D02*
X270656190Y-56304819D01*
X270656190Y-56304819D02*
X270513333Y-56352438D01*
X270513333Y-56352438D02*
X270418095Y-56447676D01*
X270418095Y-56447676D02*
X270370476Y-56542914D01*
X270370476Y-56542914D02*
X270322857Y-56733390D01*
X270322857Y-56733390D02*
X270322857Y-56876247D01*
X270322857Y-56876247D02*
X270370476Y-57066723D01*
X270370476Y-57066723D02*
X270418095Y-57161961D01*
X270418095Y-57161961D02*
X270513333Y-57257200D01*
X270513333Y-57257200D02*
X270656190Y-57304819D01*
X270656190Y-57304819D02*
X270894285Y-57304819D01*
X269370476Y-57304819D02*
X269941904Y-57304819D01*
X269656190Y-57304819D02*
X269656190Y-56304819D01*
X269656190Y-56304819D02*
X269751428Y-56447676D01*
X269751428Y-56447676D02*
X269846666Y-56542914D01*
X269846666Y-56542914D02*
X269941904Y-56590533D01*
X268513333Y-56638152D02*
X268513333Y-57304819D01*
X268751428Y-56257200D02*
X268989523Y-56971485D01*
X268989523Y-56971485D02*
X268370476Y-56971485D01*
X267432857Y-70369580D02*
X267480476Y-70417200D01*
X267480476Y-70417200D02*
X267623333Y-70464819D01*
X267623333Y-70464819D02*
X267718571Y-70464819D01*
X267718571Y-70464819D02*
X267861428Y-70417200D01*
X267861428Y-70417200D02*
X267956666Y-70321961D01*
X267956666Y-70321961D02*
X268004285Y-70226723D01*
X268004285Y-70226723D02*
X268051904Y-70036247D01*
X268051904Y-70036247D02*
X268051904Y-69893390D01*
X268051904Y-69893390D02*
X268004285Y-69702914D01*
X268004285Y-69702914D02*
X267956666Y-69607676D01*
X267956666Y-69607676D02*
X267861428Y-69512438D01*
X267861428Y-69512438D02*
X267718571Y-69464819D01*
X267718571Y-69464819D02*
X267623333Y-69464819D01*
X267623333Y-69464819D02*
X267480476Y-69512438D01*
X267480476Y-69512438D02*
X267432857Y-69560057D01*
X267051904Y-69560057D02*
X267004285Y-69512438D01*
X267004285Y-69512438D02*
X266909047Y-69464819D01*
X266909047Y-69464819D02*
X266670952Y-69464819D01*
X266670952Y-69464819D02*
X266575714Y-69512438D01*
X266575714Y-69512438D02*
X266528095Y-69560057D01*
X266528095Y-69560057D02*
X266480476Y-69655295D01*
X266480476Y-69655295D02*
X266480476Y-69750533D01*
X266480476Y-69750533D02*
X266528095Y-69893390D01*
X266528095Y-69893390D02*
X267099523Y-70464819D01*
X267099523Y-70464819D02*
X266480476Y-70464819D01*
X266147142Y-69464819D02*
X265480476Y-69464819D01*
X265480476Y-69464819D02*
X265909047Y-70464819D01*
X273749285Y-75634819D02*
X273749285Y-74634819D01*
X273749285Y-74634819D02*
X273511190Y-74634819D01*
X273511190Y-74634819D02*
X273368333Y-74682438D01*
X273368333Y-74682438D02*
X273273095Y-74777676D01*
X273273095Y-74777676D02*
X273225476Y-74872914D01*
X273225476Y-74872914D02*
X273177857Y-75063390D01*
X273177857Y-75063390D02*
X273177857Y-75206247D01*
X273177857Y-75206247D02*
X273225476Y-75396723D01*
X273225476Y-75396723D02*
X273273095Y-75491961D01*
X273273095Y-75491961D02*
X273368333Y-75587200D01*
X273368333Y-75587200D02*
X273511190Y-75634819D01*
X273511190Y-75634819D02*
X273749285Y-75634819D01*
X272225476Y-75634819D02*
X272796904Y-75634819D01*
X272511190Y-75634819D02*
X272511190Y-74634819D01*
X272511190Y-74634819D02*
X272606428Y-74777676D01*
X272606428Y-74777676D02*
X272701666Y-74872914D01*
X272701666Y-74872914D02*
X272796904Y-74920533D01*
X271892142Y-74634819D02*
X271273095Y-74634819D01*
X271273095Y-74634819D02*
X271606428Y-75015771D01*
X271606428Y-75015771D02*
X271463571Y-75015771D01*
X271463571Y-75015771D02*
X271368333Y-75063390D01*
X271368333Y-75063390D02*
X271320714Y-75111009D01*
X271320714Y-75111009D02*
X271273095Y-75206247D01*
X271273095Y-75206247D02*
X271273095Y-75444342D01*
X271273095Y-75444342D02*
X271320714Y-75539580D01*
X271320714Y-75539580D02*
X271368333Y-75587200D01*
X271368333Y-75587200D02*
X271463571Y-75634819D01*
X271463571Y-75634819D02*
X271749285Y-75634819D01*
X271749285Y-75634819D02*
X271844523Y-75587200D01*
X271844523Y-75587200D02*
X271892142Y-75539580D01*
X270574285Y-62784819D02*
X270574285Y-61784819D01*
X270574285Y-61784819D02*
X270336190Y-61784819D01*
X270336190Y-61784819D02*
X270193333Y-61832438D01*
X270193333Y-61832438D02*
X270098095Y-61927676D01*
X270098095Y-61927676D02*
X270050476Y-62022914D01*
X270050476Y-62022914D02*
X270002857Y-62213390D01*
X270002857Y-62213390D02*
X270002857Y-62356247D01*
X270002857Y-62356247D02*
X270050476Y-62546723D01*
X270050476Y-62546723D02*
X270098095Y-62641961D01*
X270098095Y-62641961D02*
X270193333Y-62737200D01*
X270193333Y-62737200D02*
X270336190Y-62784819D01*
X270336190Y-62784819D02*
X270574285Y-62784819D01*
X269050476Y-62784819D02*
X269621904Y-62784819D01*
X269336190Y-62784819D02*
X269336190Y-61784819D01*
X269336190Y-61784819D02*
X269431428Y-61927676D01*
X269431428Y-61927676D02*
X269526666Y-62022914D01*
X269526666Y-62022914D02*
X269621904Y-62070533D01*
X268193333Y-61784819D02*
X268383809Y-61784819D01*
X268383809Y-61784819D02*
X268479047Y-61832438D01*
X268479047Y-61832438D02*
X268526666Y-61880057D01*
X268526666Y-61880057D02*
X268621904Y-62022914D01*
X268621904Y-62022914D02*
X268669523Y-62213390D01*
X268669523Y-62213390D02*
X268669523Y-62594342D01*
X268669523Y-62594342D02*
X268621904Y-62689580D01*
X268621904Y-62689580D02*
X268574285Y-62737200D01*
X268574285Y-62737200D02*
X268479047Y-62784819D01*
X268479047Y-62784819D02*
X268288571Y-62784819D01*
X268288571Y-62784819D02*
X268193333Y-62737200D01*
X268193333Y-62737200D02*
X268145714Y-62689580D01*
X268145714Y-62689580D02*
X268098095Y-62594342D01*
X268098095Y-62594342D02*
X268098095Y-62356247D01*
X268098095Y-62356247D02*
X268145714Y-62261009D01*
X268145714Y-62261009D02*
X268193333Y-62213390D01*
X268193333Y-62213390D02*
X268288571Y-62165771D01*
X268288571Y-62165771D02*
X268479047Y-62165771D01*
X268479047Y-62165771D02*
X268574285Y-62213390D01*
X268574285Y-62213390D02*
X268621904Y-62261009D01*
X268621904Y-62261009D02*
X268669523Y-62356247D01*
X266539580Y-144453333D02*
X266587200Y-144405714D01*
X266587200Y-144405714D02*
X266634819Y-144262857D01*
X266634819Y-144262857D02*
X266634819Y-144167619D01*
X266634819Y-144167619D02*
X266587200Y-144024762D01*
X266587200Y-144024762D02*
X266491961Y-143929524D01*
X266491961Y-143929524D02*
X266396723Y-143881905D01*
X266396723Y-143881905D02*
X266206247Y-143834286D01*
X266206247Y-143834286D02*
X266063390Y-143834286D01*
X266063390Y-143834286D02*
X265872914Y-143881905D01*
X265872914Y-143881905D02*
X265777676Y-143929524D01*
X265777676Y-143929524D02*
X265682438Y-144024762D01*
X265682438Y-144024762D02*
X265634819Y-144167619D01*
X265634819Y-144167619D02*
X265634819Y-144262857D01*
X265634819Y-144262857D02*
X265682438Y-144405714D01*
X265682438Y-144405714D02*
X265730057Y-144453333D01*
X265634819Y-144786667D02*
X265634819Y-145453333D01*
X265634819Y-145453333D02*
X266634819Y-145024762D01*
X273969285Y-58944819D02*
X273969285Y-57944819D01*
X273969285Y-57944819D02*
X273731190Y-57944819D01*
X273731190Y-57944819D02*
X273588333Y-57992438D01*
X273588333Y-57992438D02*
X273493095Y-58087676D01*
X273493095Y-58087676D02*
X273445476Y-58182914D01*
X273445476Y-58182914D02*
X273397857Y-58373390D01*
X273397857Y-58373390D02*
X273397857Y-58516247D01*
X273397857Y-58516247D02*
X273445476Y-58706723D01*
X273445476Y-58706723D02*
X273493095Y-58801961D01*
X273493095Y-58801961D02*
X273588333Y-58897200D01*
X273588333Y-58897200D02*
X273731190Y-58944819D01*
X273731190Y-58944819D02*
X273969285Y-58944819D01*
X272445476Y-58944819D02*
X273016904Y-58944819D01*
X272731190Y-58944819D02*
X272731190Y-57944819D01*
X272731190Y-57944819D02*
X272826428Y-58087676D01*
X272826428Y-58087676D02*
X272921666Y-58182914D01*
X272921666Y-58182914D02*
X273016904Y-58230533D01*
X271540714Y-57944819D02*
X272016904Y-57944819D01*
X272016904Y-57944819D02*
X272064523Y-58421009D01*
X272064523Y-58421009D02*
X272016904Y-58373390D01*
X272016904Y-58373390D02*
X271921666Y-58325771D01*
X271921666Y-58325771D02*
X271683571Y-58325771D01*
X271683571Y-58325771D02*
X271588333Y-58373390D01*
X271588333Y-58373390D02*
X271540714Y-58421009D01*
X271540714Y-58421009D02*
X271493095Y-58516247D01*
X271493095Y-58516247D02*
X271493095Y-58754342D01*
X271493095Y-58754342D02*
X271540714Y-58849580D01*
X271540714Y-58849580D02*
X271588333Y-58897200D01*
X271588333Y-58897200D02*
X271683571Y-58944819D01*
X271683571Y-58944819D02*
X271921666Y-58944819D01*
X271921666Y-58944819D02*
X272016904Y-58897200D01*
X272016904Y-58897200D02*
X272064523Y-58849580D01*
X270694285Y-73854819D02*
X270694285Y-72854819D01*
X270694285Y-72854819D02*
X270456190Y-72854819D01*
X270456190Y-72854819D02*
X270313333Y-72902438D01*
X270313333Y-72902438D02*
X270218095Y-72997676D01*
X270218095Y-72997676D02*
X270170476Y-73092914D01*
X270170476Y-73092914D02*
X270122857Y-73283390D01*
X270122857Y-73283390D02*
X270122857Y-73426247D01*
X270122857Y-73426247D02*
X270170476Y-73616723D01*
X270170476Y-73616723D02*
X270218095Y-73711961D01*
X270218095Y-73711961D02*
X270313333Y-73807200D01*
X270313333Y-73807200D02*
X270456190Y-73854819D01*
X270456190Y-73854819D02*
X270694285Y-73854819D01*
X269170476Y-73854819D02*
X269741904Y-73854819D01*
X269456190Y-73854819D02*
X269456190Y-72854819D01*
X269456190Y-72854819D02*
X269551428Y-72997676D01*
X269551428Y-72997676D02*
X269646666Y-73092914D01*
X269646666Y-73092914D02*
X269741904Y-73140533D01*
X268789523Y-72950057D02*
X268741904Y-72902438D01*
X268741904Y-72902438D02*
X268646666Y-72854819D01*
X268646666Y-72854819D02*
X268408571Y-72854819D01*
X268408571Y-72854819D02*
X268313333Y-72902438D01*
X268313333Y-72902438D02*
X268265714Y-72950057D01*
X268265714Y-72950057D02*
X268218095Y-73045295D01*
X268218095Y-73045295D02*
X268218095Y-73140533D01*
X268218095Y-73140533D02*
X268265714Y-73283390D01*
X268265714Y-73283390D02*
X268837142Y-73854819D01*
X268837142Y-73854819D02*
X268218095Y-73854819D01*
X236164820Y-100218095D02*
X236974343Y-100218095D01*
X236974343Y-100218095D02*
X237069581Y-100265714D01*
X237069581Y-100265714D02*
X237117201Y-100313333D01*
X237117201Y-100313333D02*
X237164820Y-100408571D01*
X237164820Y-100408571D02*
X237164820Y-100599047D01*
X237164820Y-100599047D02*
X237117201Y-100694285D01*
X237117201Y-100694285D02*
X237069581Y-100741904D01*
X237069581Y-100741904D02*
X236974343Y-100789523D01*
X236974343Y-100789523D02*
X236164820Y-100789523D01*
X236498153Y-101694285D02*
X237164820Y-101694285D01*
X236117201Y-101456190D02*
X236831486Y-101218095D01*
X236831486Y-101218095D02*
X236831486Y-101837142D01*
X281554819Y-58947142D02*
X281078628Y-58613809D01*
X281554819Y-58375714D02*
X280554819Y-58375714D01*
X280554819Y-58375714D02*
X280554819Y-58756666D01*
X280554819Y-58756666D02*
X280602438Y-58851904D01*
X280602438Y-58851904D02*
X280650057Y-58899523D01*
X280650057Y-58899523D02*
X280745295Y-58947142D01*
X280745295Y-58947142D02*
X280888152Y-58947142D01*
X280888152Y-58947142D02*
X280983390Y-58899523D01*
X280983390Y-58899523D02*
X281031009Y-58851904D01*
X281031009Y-58851904D02*
X281078628Y-58756666D01*
X281078628Y-58756666D02*
X281078628Y-58375714D01*
X280650057Y-59328095D02*
X280602438Y-59375714D01*
X280602438Y-59375714D02*
X280554819Y-59470952D01*
X280554819Y-59470952D02*
X280554819Y-59709047D01*
X280554819Y-59709047D02*
X280602438Y-59804285D01*
X280602438Y-59804285D02*
X280650057Y-59851904D01*
X280650057Y-59851904D02*
X280745295Y-59899523D01*
X280745295Y-59899523D02*
X280840533Y-59899523D01*
X280840533Y-59899523D02*
X280983390Y-59851904D01*
X280983390Y-59851904D02*
X281554819Y-59280476D01*
X281554819Y-59280476D02*
X281554819Y-59899523D01*
X280554819Y-60804285D02*
X280554819Y-60328095D01*
X280554819Y-60328095D02*
X281031009Y-60280476D01*
X281031009Y-60280476D02*
X280983390Y-60328095D01*
X280983390Y-60328095D02*
X280935771Y-60423333D01*
X280935771Y-60423333D02*
X280935771Y-60661428D01*
X280935771Y-60661428D02*
X280983390Y-60756666D01*
X280983390Y-60756666D02*
X281031009Y-60804285D01*
X281031009Y-60804285D02*
X281126247Y-60851904D01*
X281126247Y-60851904D02*
X281364342Y-60851904D01*
X281364342Y-60851904D02*
X281459580Y-60804285D01*
X281459580Y-60804285D02*
X281507200Y-60756666D01*
X281507200Y-60756666D02*
X281554819Y-60661428D01*
X281554819Y-60661428D02*
X281554819Y-60423333D01*
X281554819Y-60423333D02*
X281507200Y-60328095D01*
X281507200Y-60328095D02*
X281459580Y-60280476D01*
X234299761Y-73366143D02*
X234204523Y-73413762D01*
X234204523Y-73413762D02*
X234109285Y-73509001D01*
X234109285Y-73509001D02*
X233966428Y-73651858D01*
X233966428Y-73651858D02*
X233871190Y-73699477D01*
X233871190Y-73699477D02*
X233775952Y-73699477D01*
X233823571Y-73461381D02*
X233728333Y-73509001D01*
X233728333Y-73509001D02*
X233633095Y-73604239D01*
X233633095Y-73604239D02*
X233585476Y-73794715D01*
X233585476Y-73794715D02*
X233585476Y-74128048D01*
X233585476Y-74128048D02*
X233633095Y-74318524D01*
X233633095Y-74318524D02*
X233728333Y-74413762D01*
X233728333Y-74413762D02*
X233823571Y-74461381D01*
X233823571Y-74461381D02*
X234014047Y-74461381D01*
X234014047Y-74461381D02*
X234109285Y-74413762D01*
X234109285Y-74413762D02*
X234204523Y-74318524D01*
X234204523Y-74318524D02*
X234252142Y-74128048D01*
X234252142Y-74128048D02*
X234252142Y-73794715D01*
X234252142Y-73794715D02*
X234204523Y-73604239D01*
X234204523Y-73604239D02*
X234109285Y-73509001D01*
X234109285Y-73509001D02*
X234014047Y-73461381D01*
X234014047Y-73461381D02*
X233823571Y-73461381D01*
X235204523Y-73461381D02*
X234633095Y-73461381D01*
X234918809Y-73461381D02*
X234918809Y-74461381D01*
X234918809Y-74461381D02*
X234823571Y-74318524D01*
X234823571Y-74318524D02*
X234728333Y-74223286D01*
X234728333Y-74223286D02*
X234633095Y-74175667D01*
X280449819Y-75592142D02*
X279973628Y-75258809D01*
X280449819Y-75020714D02*
X279449819Y-75020714D01*
X279449819Y-75020714D02*
X279449819Y-75401666D01*
X279449819Y-75401666D02*
X279497438Y-75496904D01*
X279497438Y-75496904D02*
X279545057Y-75544523D01*
X279545057Y-75544523D02*
X279640295Y-75592142D01*
X279640295Y-75592142D02*
X279783152Y-75592142D01*
X279783152Y-75592142D02*
X279878390Y-75544523D01*
X279878390Y-75544523D02*
X279926009Y-75496904D01*
X279926009Y-75496904D02*
X279973628Y-75401666D01*
X279973628Y-75401666D02*
X279973628Y-75020714D01*
X280449819Y-76544523D02*
X280449819Y-75973095D01*
X280449819Y-76258809D02*
X279449819Y-76258809D01*
X279449819Y-76258809D02*
X279592676Y-76163571D01*
X279592676Y-76163571D02*
X279687914Y-76068333D01*
X279687914Y-76068333D02*
X279735533Y-75973095D01*
X279545057Y-76925476D02*
X279497438Y-76973095D01*
X279497438Y-76973095D02*
X279449819Y-77068333D01*
X279449819Y-77068333D02*
X279449819Y-77306428D01*
X279449819Y-77306428D02*
X279497438Y-77401666D01*
X279497438Y-77401666D02*
X279545057Y-77449285D01*
X279545057Y-77449285D02*
X279640295Y-77496904D01*
X279640295Y-77496904D02*
X279735533Y-77496904D01*
X279735533Y-77496904D02*
X279878390Y-77449285D01*
X279878390Y-77449285D02*
X280449819Y-76877857D01*
X280449819Y-76877857D02*
X280449819Y-77496904D01*
X250252507Y-70228602D02*
X249452050Y-70228602D01*
X250176273Y-71067176D02*
X250214390Y-71029059D01*
X250214390Y-71029059D02*
X250252507Y-70914708D01*
X250252507Y-70914708D02*
X250252507Y-70838474D01*
X250252507Y-70838474D02*
X250214390Y-70724123D01*
X250214390Y-70724123D02*
X250138156Y-70647889D01*
X250138156Y-70647889D02*
X250061922Y-70609772D01*
X250061922Y-70609772D02*
X249909454Y-70571655D01*
X249909454Y-70571655D02*
X249795103Y-70571655D01*
X249795103Y-70571655D02*
X249642635Y-70609772D01*
X249642635Y-70609772D02*
X249566401Y-70647889D01*
X249566401Y-70647889D02*
X249490167Y-70724123D01*
X249490167Y-70724123D02*
X249452050Y-70838474D01*
X249452050Y-70838474D02*
X249452050Y-70914708D01*
X249452050Y-70914708D02*
X249490167Y-71029059D01*
X249490167Y-71029059D02*
X249528284Y-71067176D01*
X249452050Y-71791399D02*
X249452050Y-71410229D01*
X249452050Y-71410229D02*
X249833220Y-71372112D01*
X249833220Y-71372112D02*
X249795103Y-71410229D01*
X249795103Y-71410229D02*
X249756986Y-71486463D01*
X249756986Y-71486463D02*
X249756986Y-71677048D01*
X249756986Y-71677048D02*
X249795103Y-71753282D01*
X249795103Y-71753282D02*
X249833220Y-71791399D01*
X249833220Y-71791399D02*
X249909454Y-71829516D01*
X249909454Y-71829516D02*
X250100039Y-71829516D01*
X250100039Y-71829516D02*
X250176273Y-71791399D01*
X250176273Y-71791399D02*
X250214390Y-71753282D01*
X250214390Y-71753282D02*
X250252507Y-71677048D01*
X250252507Y-71677048D02*
X250252507Y-71486463D01*
X250252507Y-71486463D02*
X250214390Y-71410229D01*
X250214390Y-71410229D02*
X250176273Y-71372112D01*
X250092507Y-58348602D02*
X249292050Y-58348602D01*
X250016273Y-59187176D02*
X250054390Y-59149059D01*
X250054390Y-59149059D02*
X250092507Y-59034708D01*
X250092507Y-59034708D02*
X250092507Y-58958474D01*
X250092507Y-58958474D02*
X250054390Y-58844123D01*
X250054390Y-58844123D02*
X249978156Y-58767889D01*
X249978156Y-58767889D02*
X249901922Y-58729772D01*
X249901922Y-58729772D02*
X249749454Y-58691655D01*
X249749454Y-58691655D02*
X249635103Y-58691655D01*
X249635103Y-58691655D02*
X249482635Y-58729772D01*
X249482635Y-58729772D02*
X249406401Y-58767889D01*
X249406401Y-58767889D02*
X249330167Y-58844123D01*
X249330167Y-58844123D02*
X249292050Y-58958474D01*
X249292050Y-58958474D02*
X249292050Y-59034708D01*
X249292050Y-59034708D02*
X249330167Y-59149059D01*
X249330167Y-59149059D02*
X249368284Y-59187176D01*
X249368284Y-59492112D02*
X249330167Y-59530229D01*
X249330167Y-59530229D02*
X249292050Y-59606463D01*
X249292050Y-59606463D02*
X249292050Y-59797048D01*
X249292050Y-59797048D02*
X249330167Y-59873282D01*
X249330167Y-59873282D02*
X249368284Y-59911399D01*
X249368284Y-59911399D02*
X249444518Y-59949516D01*
X249444518Y-59949516D02*
X249520752Y-59949516D01*
X249520752Y-59949516D02*
X249635103Y-59911399D01*
X249635103Y-59911399D02*
X250092507Y-59453995D01*
X250092507Y-59453995D02*
X250092507Y-59949516D01*
D11*
%TO.C,R32*%
X257837770Y-69238303D02*
X258173303Y-68902770D01*
X258576697Y-69977230D02*
X258912230Y-69641697D01*
D12*
%TO.C,IC1*%
X251880000Y-74910000D02*
X252880000Y-74910000D01*
X252880000Y-77110000D02*
X251880000Y-77110000D01*
D10*
X252255000Y-76660000D02*
G75*
G02*
X252105000Y-76660000I-75000J0D01*
G01*
X252105000Y-76660000D02*
G75*
G02*
X252255000Y-76660000I75000J0D01*
G01*
D11*
%TO.C,C29*%
X274830000Y-70649419D02*
X274830000Y-70930581D01*
X275850000Y-70649419D02*
X275850000Y-70930581D01*
%TO.C,R33*%
X257792770Y-52478303D02*
X258128303Y-52142770D01*
X258531697Y-53217230D02*
X258867230Y-52881697D01*
%TO.C,R4*%
X254977500Y-103947742D02*
X254977500Y-104422258D01*
X256022500Y-103947742D02*
X256022500Y-104422258D01*
%TO.C,C30*%
X275635000Y-53799419D02*
X275635000Y-54080581D01*
X276655000Y-53799419D02*
X276655000Y-54080581D01*
%TO.C,R34*%
X276807500Y-70532742D02*
X276807500Y-71007258D01*
X277852500Y-70532742D02*
X277852500Y-71007258D01*
%TO.C,R13*%
X231057258Y-72207500D02*
X230582742Y-72207500D01*
X231057258Y-73252500D02*
X230582742Y-73252500D01*
%TO.C,D23*%
X271354999Y-53790000D02*
X274014999Y-53790000D01*
X271354999Y-55490000D02*
X274014999Y-55490000D01*
X274014999Y-55490000D02*
X274014999Y-53790000D01*
%TO.C,R35*%
X278447500Y-53752742D02*
X278447500Y-54227258D01*
X279492500Y-53752742D02*
X279492500Y-54227258D01*
%TO.C,C13*%
X244430000Y-144759419D02*
X244430000Y-145040581D01*
X245450000Y-144759419D02*
X245450000Y-145040581D01*
%TO.C,R2*%
X270122258Y-86187500D02*
X269647742Y-86187500D01*
X270122258Y-87232500D02*
X269647742Y-87232500D01*
%TO.C,C21*%
X266739419Y-59880000D02*
X267020581Y-59880000D01*
X266739419Y-60900000D02*
X267020581Y-60900000D01*
%TO.C,R14*%
X228907742Y-69637500D02*
X229382258Y-69637500D01*
X228907742Y-70682500D02*
X229382258Y-70682500D01*
%TO.C,R24*%
X257907770Y-58268303D02*
X258243303Y-57932770D01*
X258646697Y-59007230D02*
X258982230Y-58671697D01*
%TO.C,C11*%
X251320000Y-144469419D02*
X251320000Y-144750581D01*
X252340000Y-144469419D02*
X252340000Y-144750581D01*
%TO.C,D20*%
X269005000Y-69410001D02*
X269005000Y-72070001D01*
X269005000Y-72070001D02*
X270705000Y-72070001D01*
X270705000Y-69410001D02*
X270705000Y-72070001D01*
%TO.C,C10*%
X257610000Y-144599419D02*
X257610000Y-144880581D01*
X258630000Y-144599419D02*
X258630000Y-144880581D01*
%TO.C,R10*%
X257637770Y-74628303D02*
X257973303Y-74292770D01*
X258376697Y-75367230D02*
X258712230Y-75031697D01*
%TO.C,C28*%
X266669420Y-54070000D02*
X266950580Y-54070000D01*
X266669420Y-55090000D02*
X266950580Y-55090000D01*
%TO.C,C14*%
X275055000Y-76144419D02*
X275055000Y-76425581D01*
X276075000Y-76144419D02*
X276075000Y-76425581D01*
%TO.C,C23*%
X266544420Y-65360000D02*
X266825580Y-65360000D01*
X266544420Y-66380000D02*
X266825580Y-66380000D01*
%TO.C,D2*%
X251618681Y-103915627D02*
X253358164Y-105655110D01*
X253358164Y-105655110D02*
X254397611Y-104615663D01*
X254397611Y-104615663D02*
X252658128Y-102876180D01*
%TO.C,R1*%
X267312258Y-88577500D02*
X266837742Y-88577500D01*
X267312258Y-89622500D02*
X266837742Y-89622500D01*
%TO.C,D21*%
X268555000Y-52520001D02*
X268555000Y-55180001D01*
X268555000Y-55180001D02*
X270255000Y-55180001D01*
X270255000Y-52520001D02*
X270255000Y-55180001D01*
D12*
%TO.C,IC6*%
X251870000Y-54120000D02*
X252870000Y-54120000D01*
X252870000Y-56320000D02*
X251870000Y-56320000D01*
D10*
X252245000Y-55870000D02*
G75*
G02*
X252095000Y-55870000I-75000J0D01*
G01*
X252095000Y-55870000D02*
G75*
G02*
X252245000Y-55870000I75000J0D01*
G01*
D11*
%TO.C,C12*%
X266979419Y-76460000D02*
X267260581Y-76460000D01*
X266979419Y-77480000D02*
X267260581Y-77480000D01*
%TO.C,C22*%
X275055000Y-59474419D02*
X275055000Y-59755581D01*
X276075000Y-59474419D02*
X276075000Y-59755581D01*
%TO.C,C24*%
X274740000Y-64959419D02*
X274740000Y-65240581D01*
X275760000Y-64959419D02*
X275760000Y-65240581D01*
%TO.C,R26*%
X253282258Y-63087500D02*
X252807742Y-63087500D01*
X253282258Y-64132500D02*
X252807742Y-64132500D01*
%TO.C,R29*%
X277567500Y-64882742D02*
X277567500Y-65357258D01*
X278612500Y-64882742D02*
X278612500Y-65357258D01*
%TO.C,D17*%
X271315000Y-65050000D02*
X273975000Y-65050000D01*
X271315000Y-66750000D02*
X273975000Y-66750000D01*
X273975000Y-66750000D02*
X273975000Y-65050000D01*
D12*
%TO.C,IC3*%
X251800000Y-65740000D02*
X252800000Y-65740000D01*
X252800000Y-67940000D02*
X251800000Y-67940000D01*
D10*
X252175000Y-67490000D02*
G75*
G02*
X252025000Y-67490000I-75000J0D01*
G01*
X252025000Y-67490000D02*
G75*
G02*
X252175000Y-67490000I75000J0D01*
G01*
D11*
%TO.C,R16*%
X231637500Y-93607741D02*
X231637500Y-94082257D01*
X232682500Y-93607741D02*
X232682500Y-94082257D01*
%TO.C,D22*%
X271682500Y-70710000D02*
X274342500Y-70710000D01*
X271682500Y-72410000D02*
X274342500Y-72410000D01*
X274342500Y-72410000D02*
X274342500Y-70710000D01*
%TO.C,C16*%
X234855581Y-94280000D02*
X234574419Y-94280000D01*
X234855581Y-95300000D02*
X234574419Y-95300000D01*
%TO.C,D14*%
X269010910Y-58213410D02*
X269010910Y-60873410D01*
X269010910Y-60873410D02*
X270710910Y-60873410D01*
X270710910Y-58213410D02*
X270710910Y-60873410D01*
%TO.C,C27*%
X266649420Y-70930000D02*
X266930580Y-70930000D01*
X266649420Y-71950000D02*
X266930580Y-71950000D01*
%TO.C,D13*%
X271485000Y-76180000D02*
X274145000Y-76180000D01*
X271485000Y-77880000D02*
X274145000Y-77880000D01*
X274145000Y-77880000D02*
X274145000Y-76180000D01*
%TO.C,D16*%
X268548410Y-63673410D02*
X268548410Y-66333410D01*
X268548410Y-66333410D02*
X270248410Y-66333410D01*
X270248410Y-63673410D02*
X270248410Y-66333410D01*
%TO.C,C7*%
X263870000Y-144264419D02*
X263870000Y-144545581D01*
X264890000Y-144264419D02*
X264890000Y-144545581D01*
%TO.C,D15*%
X271705000Y-59490000D02*
X274365000Y-59490000D01*
X271705000Y-61190000D02*
X274365000Y-61190000D01*
X274365000Y-61190000D02*
X274365000Y-59490000D01*
%TO.C,D12*%
X268835000Y-74847500D02*
X268835000Y-77507500D01*
X268835000Y-77507500D02*
X270535000Y-77507500D01*
X270535000Y-74847500D02*
X270535000Y-77507500D01*
%TO.C,U4*%
X228800000Y-99070000D02*
X228799999Y-102830000D01*
X230059999Y-99070000D02*
X228800000Y-99070000D01*
X234360001Y-99070000D02*
X235620000Y-99070000D01*
X235620000Y-99070000D02*
X235620000Y-105080000D01*
%TO.C,R25*%
X277697500Y-59352742D02*
X277697500Y-59827258D01*
X278742500Y-59352742D02*
X278742500Y-59827258D01*
D13*
%TO.C,Q1*%
X234979200Y-70423800D02*
X234522000Y-70423800D01*
X234979200Y-71045000D02*
X234979200Y-70423800D01*
X234979200Y-73116200D02*
X234522000Y-73116200D01*
X234979200Y-73116200D02*
X234979200Y-72495000D01*
D11*
%TO.C,R12*%
X278042500Y-75997742D02*
X278042500Y-76472258D01*
X279087500Y-75997742D02*
X279087500Y-76472258D01*
D12*
%TO.C,IC5*%
X251800000Y-70150000D02*
X252800000Y-70150000D01*
X252800000Y-72350000D02*
X251800000Y-72350000D01*
D10*
X252175000Y-71900000D02*
G75*
G02*
X252025000Y-71900000I-75000J0D01*
G01*
X252025000Y-71900000D02*
G75*
G02*
X252175000Y-71900000I75000J0D01*
G01*
D12*
%TO.C,IC2*%
X251740000Y-58210000D02*
X252740000Y-58210000D01*
X252740000Y-60410000D02*
X251740000Y-60410000D01*
D10*
X252115000Y-59960000D02*
G75*
G02*
X251965000Y-59960000I-75000J0D01*
G01*
X251965000Y-59960000D02*
G75*
G02*
X252115000Y-59960000I75000J0D01*
G01*
%TD*%
M02*
