%TF.GenerationSoftware,KiCad,Pcbnew,8.0.0*%
%TF.CreationDate,2026-04-04T14:43:13+08:00*%
%TF.ProjectId,STC_mainboard,5354435f-6d61-4696-9e62-6f6172642e6b,rev?*%
%TF.SameCoordinates,Original*%
%TF.FileFunction,Paste,Bot*%
%TF.FilePolarity,Positive*%
%FSLAX46Y46*%
G04 Gerber Fmt 4.6, Leading zero omitted, Abs format (unit mm)*
G04 Created by KiCad (PCBNEW 8.0.0) date 2026-04-04 14:43:13*
%MOMM*%
%LPD*%
G01*
G04 APERTURE LIST*
G04 Aperture macros list*
%AMRoundRect*
0 Rectangle with rounded corners*
0 $1 Rounding radius*
0 $2 $3 $4 $5 $6 $7 $8 $9 X,Y pos of 4 corners*
0 Add a 4 corners polygon primitive as box body*
4,1,4,$2,$3,$4,$5,$6,$7,$8,$9,$2,$3,0*
0 Add four circle primitives for the rounded corners*
1,1,$1+$1,$2,$3*
1,1,$1+$1,$4,$5*
1,1,$1+$1,$6,$7*
1,1,$1+$1,$8,$9*
0 Add four rect primitives between the rounded corners*
20,1,$1+$1,$2,$3,$4,$5,0*
20,1,$1+$1,$4,$5,$6,$7,0*
20,1,$1+$1,$6,$7,$8,$9,0*
20,1,$1+$1,$8,$9,$2,$3,0*%
G04 Aperture macros list end*
%ADD10RoundRect,0.200000X-0.053033X0.335876X-0.335876X0.053033X0.053033X-0.335876X0.335876X-0.053033X0*%
%ADD11R,0.800000X0.350000*%
%ADD12RoundRect,0.225000X0.250000X-0.225000X0.250000X0.225000X-0.250000X0.225000X-0.250000X-0.225000X0*%
%ADD13RoundRect,0.200000X0.275000X-0.200000X0.275000X0.200000X-0.275000X0.200000X-0.275000X-0.200000X0*%
%ADD14RoundRect,0.200000X-0.200000X-0.275000X0.200000X-0.275000X0.200000X0.275000X-0.200000X0.275000X0*%
%ADD15RoundRect,0.125000X0.125000X0.125000X-0.125000X0.125000X-0.125000X-0.125000X0.125000X-0.125000X0*%
%ADD16RoundRect,0.225000X0.225000X0.250000X-0.225000X0.250000X-0.225000X-0.250000X0.225000X-0.250000X0*%
%ADD17RoundRect,0.200000X0.200000X0.275000X-0.200000X0.275000X-0.200000X-0.275000X0.200000X-0.275000X0*%
%ADD18RoundRect,0.125000X0.125000X-0.125000X0.125000X0.125000X-0.125000X0.125000X-0.125000X-0.125000X0*%
%ADD19RoundRect,0.237500X0.371231X-0.035355X-0.035355X0.371231X-0.371231X0.035355X0.035355X-0.371231X0*%
%ADD20RoundRect,0.225000X-0.225000X-0.250000X0.225000X-0.250000X0.225000X0.250000X-0.225000X0.250000X0*%
%ADD21R,1.500000X2.000000*%
%ADD22R,3.800000X2.000000*%
%ADD23R,1.050000X0.650000*%
G04 APERTURE END LIST*
D10*
%TO.C,R32*%
X258958363Y-68856637D03*
X257791637Y-70023363D03*
%TD*%
D11*
%TO.C,IC1*%
X251530000Y-76660000D03*
X251530000Y-76010000D03*
X251530000Y-75360000D03*
X253230000Y-75360000D03*
X253230000Y-76660000D03*
%TD*%
D12*
%TO.C,C29*%
X275340000Y-71565000D03*
X275340000Y-70015000D03*
%TD*%
D10*
%TO.C,R33*%
X258913363Y-52096637D03*
X257746637Y-53263363D03*
%TD*%
D13*
%TO.C,R4*%
X255500000Y-105010000D03*
X255500000Y-103360000D03*
%TD*%
D12*
%TO.C,C30*%
X276145000Y-54715000D03*
X276145000Y-53165000D03*
%TD*%
D13*
%TO.C,R34*%
X277330000Y-71595000D03*
X277330000Y-69945000D03*
%TD*%
D14*
%TO.C,R13*%
X229995000Y-72730000D03*
X231645000Y-72730000D03*
%TD*%
D15*
%TO.C,D23*%
X273504998Y-54640000D03*
X271305000Y-54640000D03*
%TD*%
D13*
%TO.C,R35*%
X278970000Y-54815000D03*
X278970000Y-53165000D03*
%TD*%
D12*
%TO.C,C13*%
X244940000Y-145675000D03*
X244940000Y-144125000D03*
%TD*%
D14*
%TO.C,R2*%
X269060000Y-86710000D03*
X270710000Y-86710000D03*
%TD*%
D16*
%TO.C,C21*%
X267655000Y-60390000D03*
X266105000Y-60390000D03*
%TD*%
D17*
%TO.C,R14*%
X229970000Y-70160000D03*
X228320000Y-70160000D03*
%TD*%
D10*
%TO.C,R24*%
X259028363Y-57886637D03*
X257861637Y-59053363D03*
%TD*%
D12*
%TO.C,C11*%
X251830000Y-145385000D03*
X251830000Y-143835000D03*
%TD*%
D18*
%TO.C,D20*%
X269855000Y-71560000D03*
X269855000Y-69360002D03*
%TD*%
D12*
%TO.C,C10*%
X258120000Y-145515000D03*
X258120000Y-143965000D03*
%TD*%
D10*
%TO.C,R10*%
X258758363Y-74246637D03*
X257591637Y-75413363D03*
%TD*%
D16*
%TO.C,C28*%
X267585000Y-54580000D03*
X266035000Y-54580000D03*
%TD*%
D12*
%TO.C,C14*%
X275565000Y-77060000D03*
X275565000Y-75510000D03*
%TD*%
D16*
%TO.C,C23*%
X267460000Y-65870000D03*
X265910000Y-65870000D03*
%TD*%
D19*
%TO.C,D2*%
X253322808Y-104580307D03*
X252085372Y-103342871D03*
%TD*%
D14*
%TO.C,R1*%
X266250000Y-89100000D03*
X267900000Y-89100000D03*
%TD*%
D18*
%TO.C,D21*%
X269405000Y-54670000D03*
X269405000Y-52470002D03*
%TD*%
D11*
%TO.C,IC6*%
X251520000Y-55870000D03*
X251520000Y-55220000D03*
X251520000Y-54570000D03*
X253220000Y-54570000D03*
X253220000Y-55870000D03*
%TD*%
D16*
%TO.C,C12*%
X267895000Y-76970000D03*
X266345000Y-76970000D03*
%TD*%
D12*
%TO.C,C22*%
X275565000Y-60390000D03*
X275565000Y-58840000D03*
%TD*%
%TO.C,C24*%
X275250000Y-65875000D03*
X275250000Y-64325000D03*
%TD*%
D14*
%TO.C,R26*%
X252220000Y-63610000D03*
X253870000Y-63610000D03*
%TD*%
D13*
%TO.C,R29*%
X278090000Y-65945000D03*
X278090000Y-64295000D03*
%TD*%
D15*
%TO.C,D17*%
X273465000Y-65900000D03*
X271265000Y-65900000D03*
%TD*%
D11*
%TO.C,IC3*%
X251450000Y-67490000D03*
X251450000Y-66840000D03*
X251450000Y-66190000D03*
X253150000Y-66190000D03*
X253150000Y-67490000D03*
%TD*%
D13*
%TO.C,R16*%
X232160000Y-94669999D03*
X232160000Y-93019999D03*
%TD*%
D15*
%TO.C,D22*%
X273832500Y-71560000D03*
X271632500Y-71560000D03*
%TD*%
D20*
%TO.C,C16*%
X233940000Y-94790000D03*
X235490000Y-94790000D03*
%TD*%
D18*
%TO.C,D14*%
X269860910Y-60363409D03*
X269860910Y-58163411D03*
%TD*%
D16*
%TO.C,C27*%
X267565000Y-71440000D03*
X266015000Y-71440000D03*
%TD*%
D15*
%TO.C,D13*%
X273635000Y-77030000D03*
X271435000Y-77030000D03*
%TD*%
D18*
%TO.C,D16*%
X269398410Y-65823409D03*
X269398410Y-63623411D03*
%TD*%
D12*
%TO.C,C7*%
X264380000Y-145180000D03*
X264380000Y-143630000D03*
%TD*%
D15*
%TO.C,D15*%
X273855000Y-60340000D03*
X271655000Y-60340000D03*
%TD*%
D18*
%TO.C,D12*%
X269685000Y-76997499D03*
X269685000Y-74797501D03*
%TD*%
D21*
%TO.C,U4*%
X234510000Y-104130000D03*
X232210000Y-104129999D03*
X229910000Y-104130000D03*
D22*
X232210000Y-97830001D03*
%TD*%
D13*
%TO.C,R25*%
X278220000Y-60415000D03*
X278220000Y-58765000D03*
%TD*%
D23*
%TO.C,Q1*%
X233245000Y-72720000D03*
X233245000Y-70820000D03*
X235545000Y-71770000D03*
%TD*%
D13*
%TO.C,R12*%
X278565000Y-77060000D03*
X278565000Y-75410000D03*
%TD*%
D11*
%TO.C,IC5*%
X251450000Y-71900000D03*
X251450000Y-71250000D03*
X251450000Y-70600000D03*
X253150000Y-70600000D03*
X253150000Y-71900000D03*
%TD*%
%TO.C,IC2*%
X251390000Y-59960000D03*
X251390000Y-59310000D03*
X251390000Y-58660000D03*
X253090000Y-58660000D03*
X253090000Y-59960000D03*
%TD*%
M02*
