%TF.GenerationSoftware,KiCad,Pcbnew,8.0.0*%
%TF.CreationDate,2026-04-04T14:43:14+08:00*%
%TF.ProjectId,STC_mainboard,5354435f-6d61-4696-9e62-6f6172642e6b,rev?*%
%TF.SameCoordinates,Original*%
%TF.FileFunction,Soldermask,Top*%
%TF.FilePolarity,Negative*%
%FSLAX46Y46*%
G04 Gerber Fmt 4.6, Leading zero omitted, Abs format (unit mm)*
G04 Created by KiCad (PCBNEW 8.0.0) date 2026-04-04 14:43:14*
%MOMM*%
%LPD*%
G01*
G04 APERTURE LIST*
G04 Aperture macros list*
%AMRoundRect*
0 Rectangle with rounded corners*
0 $1 Rounding radius*
0 $2 $3 $4 $5 $6 $7 $8 $9 X,Y pos of 4 corners*
0 Add a 4 corners polygon primitive as box body*
4,1,4,$2,$3,$4,$5,$6,$7,$8,$9,$2,$3,0*
0 Add four circle primitives for the rounded corners*
1,1,$1+$1,$2,$3*
1,1,$1+$1,$4,$5*
1,1,$1+$1,$6,$7*
1,1,$1+$1,$8,$9*
0 Add four rect primitives between the rounded corners*
20,1,$1+$1,$2,$3,$4,$5,0*
20,1,$1+$1,$4,$5,$6,$7,0*
20,1,$1+$1,$6,$7,$8,$9,0*
20,1,$1+$1,$8,$9,$2,$3,0*%
G04 Aperture macros list end*
%ADD10RoundRect,0.250000X0.725000X-0.600000X0.725000X0.600000X-0.725000X0.600000X-0.725000X-0.600000X0*%
%ADD11O,1.950000X1.700000*%
%ADD12R,1.120000X2.160000*%
%ADD13RoundRect,0.200000X-0.200000X-0.275000X0.200000X-0.275000X0.200000X0.275000X-0.200000X0.275000X0*%
%ADD14RoundRect,0.200000X-0.275000X0.200000X-0.275000X-0.200000X0.275000X-0.200000X0.275000X0.200000X0*%
%ADD15RoundRect,0.237500X-0.237500X0.287500X-0.237500X-0.287500X0.237500X-0.287500X0.237500X0.287500X0*%
%ADD16C,3.200000*%
%ADD17RoundRect,0.200000X0.275000X-0.200000X0.275000X0.200000X-0.275000X0.200000X-0.275000X-0.200000X0*%
%ADD18RoundRect,0.225000X0.250000X-0.225000X0.250000X0.225000X-0.250000X0.225000X-0.250000X-0.225000X0*%
%ADD19C,1.440000*%
%ADD20R,1.700000X1.700000*%
%ADD21O,1.700000X1.700000*%
%ADD22C,1.500000*%
%ADD23R,0.600000X1.550000*%
%ADD24R,3.100000X2.600000*%
%ADD25RoundRect,0.225000X-0.225000X-0.250000X0.225000X-0.250000X0.225000X0.250000X-0.225000X0.250000X0*%
%ADD26R,1.500000X2.200000*%
%ADD27R,1.800000X2.500000*%
%ADD28O,6.500000X2.000000*%
%ADD29RoundRect,0.250000X-0.600000X-0.750000X0.600000X-0.750000X0.600000X0.750000X-0.600000X0.750000X0*%
%ADD30O,1.700000X2.000000*%
%ADD31RoundRect,0.237500X0.237500X-0.287500X0.237500X0.287500X-0.237500X0.287500X-0.237500X-0.287500X0*%
%ADD32R,3.800000X3.800000*%
%ADD33C,4.000000*%
%ADD34C,1.200000*%
%ADD35RoundRect,0.250000X-0.725000X0.600000X-0.725000X-0.600000X0.725000X-0.600000X0.725000X0.600000X0*%
%ADD36R,1.600000X1.600000*%
%ADD37C,1.600000*%
%ADD38R,0.576580X0.351536*%
%ADD39R,0.351536X0.576580*%
G04 APERTURE END LIST*
D10*
%TO.C,J3*%
X208000000Y-109040000D03*
D11*
X208000000Y-106540000D03*
X208000000Y-104040000D03*
X208000000Y-101540000D03*
%TD*%
D12*
%TO.C,SW1*%
X251865000Y-148100000D03*
X251865000Y-141370000D03*
%TD*%
D13*
%TO.C,R9*%
X216735000Y-143570000D03*
X218385000Y-143570000D03*
%TD*%
D14*
%TO.C,R5*%
X226854999Y-119235000D03*
X226854999Y-120885000D03*
%TD*%
D15*
%TO.C,D3*%
X219099646Y-108064393D03*
X219099646Y-109814391D03*
%TD*%
D16*
%TO.C,H3*%
X290960000Y-146160000D03*
%TD*%
D17*
%TO.C,R7*%
X221354999Y-111514999D03*
X221354999Y-109864999D03*
%TD*%
D18*
%TO.C,C15*%
X225624998Y-106964999D03*
X225624998Y-105414999D03*
%TD*%
D19*
%TO.C,L1*%
X264170000Y-54550000D03*
X261630000Y-54550000D03*
X259090000Y-54550000D03*
%TD*%
D10*
%TO.C,J10*%
X202820000Y-78980000D03*
D11*
X202820000Y-76480000D03*
X202820000Y-73980000D03*
X202820000Y-71480000D03*
%TD*%
D19*
%TO.C,L4*%
X264180000Y-76970000D03*
X261640000Y-76970000D03*
X259100000Y-76970000D03*
%TD*%
D13*
%TO.C,R3*%
X226849999Y-136899998D03*
X228499999Y-136899998D03*
%TD*%
D18*
%TO.C,C6*%
X225565000Y-125524999D03*
X225565000Y-123974999D03*
%TD*%
D19*
%TO.C,L2*%
X264180000Y-65890000D03*
X261640000Y-65890000D03*
X259100000Y-65890000D03*
%TD*%
D16*
%TO.C,H1*%
X198630000Y-53830000D03*
%TD*%
D20*
%TO.C,J5*%
X204465000Y-66610000D03*
D21*
X201925000Y-66610000D03*
X204465000Y-64070000D03*
X201925000Y-64070000D03*
X204465000Y-61530001D03*
X201925000Y-61530000D03*
X204465000Y-58990000D03*
X201925000Y-58990000D03*
%TD*%
D22*
%TO.C,U1*%
X221890000Y-52280000D03*
X224430000Y-52280000D03*
X221890000Y-54820001D03*
X224430000Y-54820000D03*
X221890000Y-57360000D03*
X224430000Y-57360000D03*
X221890000Y-59900000D03*
X224430000Y-59900000D03*
X221890000Y-62440000D03*
X224430000Y-62440000D03*
X221890000Y-64979999D03*
X224430000Y-64980000D03*
X221890000Y-67520000D03*
X224430000Y-67520000D03*
X221890000Y-70060000D03*
X224430000Y-70060000D03*
X221890000Y-72600000D03*
X224430000Y-72600000D03*
X221890000Y-75140000D03*
X224430000Y-75140000D03*
X221890000Y-77680001D03*
X224430000Y-77680000D03*
X221890000Y-80220000D03*
X224430000Y-80220000D03*
X221890000Y-82760000D03*
X224430000Y-82760000D03*
X221890000Y-85300000D03*
X224430000Y-85300000D03*
X221890000Y-87839999D03*
X224430000Y-87840000D03*
X221890000Y-90380000D03*
X224430000Y-90380000D03*
X242210000Y-90380000D03*
X244750000Y-90380000D03*
X242210000Y-87840000D03*
X244750000Y-87839999D03*
X242210000Y-85300000D03*
X244750000Y-85300000D03*
X242210000Y-82760000D03*
X244750000Y-82760000D03*
X242210000Y-80220000D03*
X244750000Y-80220000D03*
X242210000Y-77680000D03*
X244750000Y-77680001D03*
X242210000Y-75140000D03*
X244750000Y-75140000D03*
X242210000Y-72600000D03*
X244750000Y-72600000D03*
X242210000Y-70060000D03*
X244750000Y-70060000D03*
X242210000Y-67520000D03*
X244750000Y-67520000D03*
X242210000Y-64980000D03*
X244750000Y-64979999D03*
X242210000Y-62440000D03*
X244750000Y-62440000D03*
X242210000Y-59900000D03*
X244750000Y-59900000D03*
X242210000Y-57360000D03*
X244750000Y-57360000D03*
X242210000Y-54820000D03*
X244750000Y-54820001D03*
X242210000Y-52280000D03*
X244750000Y-52280000D03*
%TD*%
D16*
%TO.C,H4*%
X198850000Y-146160000D03*
%TD*%
D10*
%TO.C,J2*%
X200200000Y-109039999D03*
D11*
X200200000Y-106539999D03*
X200200000Y-104039999D03*
X200200000Y-101539999D03*
%TD*%
D20*
%TO.C,J15*%
X232330000Y-142450000D03*
D21*
X232330000Y-139910000D03*
X234870000Y-142450000D03*
X234870000Y-139910000D03*
X237409999Y-142450000D03*
X237410000Y-139910000D03*
%TD*%
D23*
%TO.C,U2*%
X223019999Y-133634997D03*
X224289999Y-133634997D03*
X225559999Y-133634997D03*
X226829999Y-133634997D03*
X226829999Y-128234997D03*
X225559999Y-128234997D03*
X224289999Y-128234997D03*
X223019999Y-128234997D03*
D24*
X224924999Y-130934997D03*
%TD*%
D19*
%TO.C,L5*%
X264180000Y-71450000D03*
X261640000Y-71450000D03*
X259100000Y-71450000D03*
%TD*%
D25*
%TO.C,C8*%
X228469999Y-119219997D03*
X230019999Y-119219997D03*
%TD*%
%TO.C,C4*%
X244310000Y-102520000D03*
X245860000Y-102520000D03*
%TD*%
D26*
%TO.C,L1*%
X214964999Y-116414999D03*
X221364999Y-116414999D03*
%TD*%
D27*
%TO.C,D1*%
X211460000Y-118220001D03*
X211460000Y-114219999D03*
%TD*%
D28*
%TO.C,SW5*%
X205970000Y-124880001D03*
X205970000Y-131880000D03*
%TD*%
D29*
%TO.C,J11*%
X210800000Y-69485000D03*
D30*
X213300000Y-69485000D03*
%TD*%
D12*
%TO.C,SW2*%
X264400000Y-148030000D03*
X264400000Y-141300000D03*
%TD*%
D29*
%TO.C,J9*%
X210850000Y-77865000D03*
D30*
X213350000Y-77865000D03*
%TD*%
D12*
%TO.C,SW3*%
X245054543Y-148080455D03*
X245054543Y-141350455D03*
%TD*%
D29*
%TO.C,J7*%
X210840000Y-61265000D03*
D30*
X213340000Y-61265000D03*
%TD*%
D31*
%TO.C,D4*%
X216785607Y-141519643D03*
X216785607Y-139769645D03*
%TD*%
D32*
%TO.C,J4*%
X198830000Y-116800000D03*
D33*
X203830000Y-116800000D03*
%TD*%
D22*
%TO.C,B1*%
X230170000Y-79030000D03*
X235170000Y-79030000D03*
%TD*%
D18*
%TO.C,C2*%
X215800000Y-136345000D03*
X215800000Y-134795000D03*
%TD*%
D20*
%TO.C,J6*%
X205340000Y-92770000D03*
D21*
X202800000Y-92770000D03*
X205340000Y-90230000D03*
X202800000Y-90230000D03*
X205340000Y-87690001D03*
X202800000Y-87690000D03*
X205340000Y-85150000D03*
X202800000Y-85150000D03*
%TD*%
D34*
%TO.C,J12*%
X282400000Y-53730000D03*
D35*
X284400000Y-55330000D03*
D11*
X284400000Y-57830000D03*
X284400000Y-60330000D03*
X284400000Y-62830000D03*
%TD*%
D16*
%TO.C,H2*%
X290960000Y-53830000D03*
%TD*%
D36*
%TO.C,C9*%
X226794999Y-116404997D03*
D37*
X226794999Y-111404997D03*
%TD*%
D18*
%TO.C,C3*%
X218310000Y-136345000D03*
X218310000Y-134795000D03*
%TD*%
D12*
%TO.C,SW4*%
X258068957Y-148043957D03*
X258068957Y-141313957D03*
%TD*%
D18*
%TO.C,C1*%
X247955000Y-100575000D03*
X247955000Y-99025000D03*
%TD*%
D17*
%TO.C,R15*%
X230460000Y-86780000D03*
X230460000Y-85130000D03*
%TD*%
D20*
%TO.C,J1*%
X268289999Y-92800000D03*
D21*
X270829999Y-92800000D03*
X273369998Y-92800000D03*
X275909999Y-92800000D03*
X278449999Y-92800000D03*
X280989999Y-92800000D03*
X283529999Y-92800000D03*
X286070000Y-92800000D03*
%TD*%
D38*
%TO.C,U3*%
X243639700Y-99129999D03*
X243639700Y-99630000D03*
X243639700Y-100130000D03*
X243639700Y-100630001D03*
D39*
X244350001Y-100836300D03*
X244850000Y-100836300D03*
X245349999Y-100836300D03*
D38*
X246060300Y-100630001D03*
X246060300Y-100130000D03*
X246060300Y-99630000D03*
X246060300Y-99129999D03*
D39*
X245349999Y-98923700D03*
X244850000Y-98923700D03*
X244350001Y-98923700D03*
%TD*%
D18*
%TO.C,C5*%
X218705000Y-131825000D03*
X218705000Y-130275000D03*
%TD*%
D20*
%TO.C,J16*%
X232330000Y-135250000D03*
D21*
X232330000Y-132710000D03*
X234870000Y-135250000D03*
X234870000Y-132710000D03*
X237409999Y-135250000D03*
X237410000Y-132710000D03*
%TD*%
D19*
%TO.C,L3*%
X264170000Y-60400000D03*
X261630000Y-60400000D03*
X259090000Y-60400000D03*
%TD*%
D13*
%TO.C,R8*%
X219020000Y-106270000D03*
X220670000Y-106270000D03*
%TD*%
%TO.C,R6*%
X226820000Y-122310000D03*
X228470000Y-122310000D03*
%TD*%
D34*
%TO.C,J14*%
X289735001Y-79649999D03*
D10*
X287735001Y-78049999D03*
D11*
X287735001Y-75549999D03*
X287735001Y-73049999D03*
X287735001Y-70549999D03*
%TD*%
M02*
