%TF.GenerationSoftware,KiCad,Pcbnew,8.0.0*%
%TF.CreationDate,2026-05-18T10:04:13+08:00*%
%TF.ProjectId,ken_EMstick,6b656e5f-454d-4737-9469-636b2e6b6963,rev?*%
%TF.SameCoordinates,Original*%
%TF.FileFunction,Copper,L1,Top*%
%TF.FilePolarity,Positive*%
%FSLAX46Y46*%
G04 Gerber Fmt 4.6, Leading zero omitted, Abs format (unit mm)*
G04 Created by KiCad (PCBNEW 8.0.0) date 2026-05-18 10:04:13*
%MOMM*%
%LPD*%
G01*
G04 APERTURE LIST*
G04 Aperture macros list*
%AMHorizOval*
0 Thick line with rounded ends*
0 $1 width*
0 $2 $3 position (X,Y) of the first rounded end (center of the circle)*
0 $4 $5 position (X,Y) of the second rounded end (center of the circle)*
0 Add line between two ends*
20,1,$1,$2,$3,$4,$5,0*
0 Add two circle primitives to create the rounded ends*
1,1,$1,$2,$3*
1,1,$1,$4,$5*%
G04 Aperture macros list end*
%TA.AperFunction,ComponentPad*%
%ADD10C,1.600000*%
%TD*%
%TA.AperFunction,ComponentPad*%
%ADD11HorizOval,1.600000X0.000000X0.000000X0.000000X0.000000X0*%
%TD*%
%TA.AperFunction,ComponentPad*%
%ADD12HorizOval,1.600000X0.000000X0.000000X0.000000X0.000000X0*%
%TD*%
%TA.AperFunction,ComponentPad*%
%ADD13O,1.600000X1.600000*%
%TD*%
%TA.AperFunction,ComponentPad*%
%ADD14R,1.700000X1.700000*%
%TD*%
%TA.AperFunction,ComponentPad*%
%ADD15O,1.700000X1.700000*%
%TD*%
%TA.AperFunction,ViaPad*%
%ADD16C,0.600000*%
%TD*%
%TA.AperFunction,Conductor*%
%ADD17C,0.508000*%
%TD*%
%TA.AperFunction,Conductor*%
%ADD18C,0.200000*%
%TD*%
%TA.AperFunction,Conductor*%
%ADD19C,2.032000*%
%TD*%
%TA.AperFunction,Conductor*%
%ADD20C,0.254000*%
%TD*%
G04 APERTURE END LIST*
D10*
%TO.P,L1,1*%
%TO.N,/L1*%
X81023008Y-51736992D03*
D11*
%TO.P,L1,2*%
%TO.N,GND*%
X84615110Y-48144890D03*
%TD*%
D10*
%TO.P,L2,1*%
%TO.N,/L2*%
X107012075Y-52296059D03*
D12*
%TO.P,L2,2*%
%TO.N,GND*%
X103419973Y-48703957D03*
%TD*%
D10*
%TO.P,L4,1*%
%TO.N,/L4*%
X155870906Y-52369094D03*
D11*
%TO.P,L4,2*%
%TO.N,GND*%
X159463008Y-48776992D03*
%TD*%
D10*
%TO.P,L5,1*%
%TO.N,/L5*%
X188592075Y-52146059D03*
D12*
%TO.P,L5,2*%
%TO.N,GND*%
X184999973Y-48553957D03*
%TD*%
D10*
%TO.P,L3,1*%
%TO.N,/L3*%
X139493008Y-48156992D03*
D13*
%TO.P,L3,2*%
%TO.N,GND*%
X139493008Y-43076992D03*
%TD*%
D14*
%TO.P,J4,1,Pin_1*%
%TO.N,/L5*%
X142543008Y-55616992D03*
D15*
%TO.P,J4,2,Pin_2*%
%TO.N,/L4*%
X140003008Y-55616992D03*
%TO.P,J4,3,Pin_3*%
%TO.N,GND*%
X137463009Y-55616992D03*
%TO.P,J4,4,Pin_4*%
X134923008Y-55616992D03*
%TD*%
D14*
%TO.P,J3,1,Pin_1*%
%TO.N,GND*%
X131293008Y-55566992D03*
D15*
%TO.P,J3,2,Pin_2*%
%TO.N,/L3*%
X128753008Y-55566992D03*
%TO.P,J3,3,Pin_3*%
%TO.N,/L2*%
X126213009Y-55566992D03*
%TO.P,J3,4,Pin_4*%
%TO.N,/L1*%
X123673008Y-55566992D03*
%TD*%
D16*
%TO.N,GND*%
X108443008Y-51756992D03*
X154303008Y-51566992D03*
%TD*%
D17*
%TO.N,GND*%
X103590239Y-48533691D02*
X105069707Y-48533691D01*
X140099009Y-52980992D02*
X137463009Y-55616992D01*
X154303008Y-51566992D02*
X152889008Y-52980992D01*
D18*
X108443008Y-51756992D02*
X108453008Y-51756992D01*
X108295958Y-51756992D02*
X108443008Y-51756992D01*
D17*
X108453008Y-51756992D02*
X109783008Y-53086992D01*
D19*
X131293008Y-55566992D02*
X137413009Y-55566992D01*
D17*
X109783008Y-53086992D02*
X129543008Y-53086992D01*
D19*
X137413009Y-55566992D02*
X137463009Y-55616992D01*
D20*
X108293008Y-51756992D02*
X108295958Y-51756992D01*
X103419973Y-48703957D02*
X103590239Y-48533691D01*
D17*
X108293008Y-51726992D02*
X108293008Y-51756992D01*
D18*
X131293008Y-54836992D02*
X131293008Y-55566992D01*
D17*
X152889008Y-52980992D02*
X140099009Y-52980992D01*
X105099707Y-48533691D02*
X108293008Y-51726992D01*
X129543008Y-53086992D02*
X131293008Y-54836992D01*
X105069707Y-48533691D02*
X105099707Y-48533691D01*
%TD*%
M02*
