%TF.GenerationSoftware,KiCad,Pcbnew,8.0.0*%
%TF.CreationDate,2026-05-18T10:04:13+08:00*%
%TF.ProjectId,ken_EMstick,6b656e5f-454d-4737-9469-636b2e6b6963,rev?*%
%TF.SameCoordinates,Original*%
%TF.FileFunction,Legend,Top*%
%TF.FilePolarity,Positive*%
%FSLAX46Y46*%
G04 Gerber Fmt 4.6, Leading zero omitted, Abs format (unit mm)*
G04 Created by KiCad (PCBNEW 8.0.0) date 2026-05-18 10:04:13*
%MOMM*%
%LPD*%
G01*
G04 APERTURE LIST*
%ADD10C,0.100000*%
%ADD11C,0.150000*%
%ADD12C,0.120000*%
G04 APERTURE END LIST*
D10*
X130953046Y-52869298D02*
X130905427Y-52964536D01*
X130905427Y-52964536D02*
X130905427Y-53107393D01*
X130905427Y-53107393D02*
X130953046Y-53250250D01*
X130953046Y-53250250D02*
X131048284Y-53345488D01*
X131048284Y-53345488D02*
X131143522Y-53393107D01*
X131143522Y-53393107D02*
X131333998Y-53440726D01*
X131333998Y-53440726D02*
X131476855Y-53440726D01*
X131476855Y-53440726D02*
X131667331Y-53393107D01*
X131667331Y-53393107D02*
X131762569Y-53345488D01*
X131762569Y-53345488D02*
X131857808Y-53250250D01*
X131857808Y-53250250D02*
X131905427Y-53107393D01*
X131905427Y-53107393D02*
X131905427Y-53012155D01*
X131905427Y-53012155D02*
X131857808Y-52869298D01*
X131857808Y-52869298D02*
X131810188Y-52821679D01*
X131810188Y-52821679D02*
X131476855Y-52821679D01*
X131476855Y-52821679D02*
X131476855Y-53012155D01*
X129225427Y-53416917D02*
X129225427Y-53893107D01*
X129225427Y-53893107D02*
X128225427Y-53893107D01*
X128320665Y-53131202D02*
X128273046Y-53083583D01*
X128273046Y-53083583D02*
X128225427Y-52988345D01*
X128225427Y-52988345D02*
X128225427Y-52750250D01*
X128225427Y-52750250D02*
X128273046Y-52655012D01*
X128273046Y-52655012D02*
X128320665Y-52607393D01*
X128320665Y-52607393D02*
X128415903Y-52559774D01*
X128415903Y-52559774D02*
X128511141Y-52559774D01*
X128511141Y-52559774D02*
X128653998Y-52607393D01*
X128653998Y-52607393D02*
X129225427Y-53178821D01*
X129225427Y-53178821D02*
X129225427Y-52559774D01*
X135315427Y-53376917D02*
X135315427Y-53853107D01*
X135315427Y-53853107D02*
X134315427Y-53853107D01*
X134315427Y-52567393D02*
X134315427Y-53043583D01*
X134315427Y-53043583D02*
X134791617Y-53091202D01*
X134791617Y-53091202D02*
X134743998Y-53043583D01*
X134743998Y-53043583D02*
X134696379Y-52948345D01*
X134696379Y-52948345D02*
X134696379Y-52710250D01*
X134696379Y-52710250D02*
X134743998Y-52615012D01*
X134743998Y-52615012D02*
X134791617Y-52567393D01*
X134791617Y-52567393D02*
X134886855Y-52519774D01*
X134886855Y-52519774D02*
X135124950Y-52519774D01*
X135124950Y-52519774D02*
X135220188Y-52567393D01*
X135220188Y-52567393D02*
X135267808Y-52615012D01*
X135267808Y-52615012D02*
X135315427Y-52710250D01*
X135315427Y-52710250D02*
X135315427Y-52948345D01*
X135315427Y-52948345D02*
X135267808Y-53043583D01*
X135267808Y-53043583D02*
X135220188Y-53091202D01*
X137825427Y-53336917D02*
X137825427Y-53813107D01*
X137825427Y-53813107D02*
X136825427Y-53813107D01*
X137158760Y-52575012D02*
X137825427Y-52575012D01*
X136777808Y-52813107D02*
X137492093Y-53051202D01*
X137492093Y-53051202D02*
X137492093Y-52432155D01*
X159593082Y-53899411D02*
X159116892Y-53899411D01*
X159116892Y-53899411D02*
X159116892Y-52899411D01*
X160354987Y-53232744D02*
X160354987Y-53899411D01*
X160116892Y-52851792D02*
X159878797Y-53566077D01*
X159878797Y-53566077D02*
X160497844Y-53566077D01*
X126515427Y-53416917D02*
X126515427Y-53893107D01*
X126515427Y-53893107D02*
X125515427Y-53893107D01*
X125515427Y-53178821D02*
X125515427Y-52559774D01*
X125515427Y-52559774D02*
X125896379Y-52893107D01*
X125896379Y-52893107D02*
X125896379Y-52750250D01*
X125896379Y-52750250D02*
X125943998Y-52655012D01*
X125943998Y-52655012D02*
X125991617Y-52607393D01*
X125991617Y-52607393D02*
X126086855Y-52559774D01*
X126086855Y-52559774D02*
X126324950Y-52559774D01*
X126324950Y-52559774D02*
X126420188Y-52607393D01*
X126420188Y-52607393D02*
X126467808Y-52655012D01*
X126467808Y-52655012D02*
X126515427Y-52750250D01*
X126515427Y-52750250D02*
X126515427Y-53035964D01*
X126515427Y-53035964D02*
X126467808Y-53131202D01*
X126467808Y-53131202D02*
X126420188Y-53178821D01*
X142113046Y-53299298D02*
X142065427Y-53394536D01*
X142065427Y-53394536D02*
X142065427Y-53537393D01*
X142065427Y-53537393D02*
X142113046Y-53680250D01*
X142113046Y-53680250D02*
X142208284Y-53775488D01*
X142208284Y-53775488D02*
X142303522Y-53823107D01*
X142303522Y-53823107D02*
X142493998Y-53870726D01*
X142493998Y-53870726D02*
X142636855Y-53870726D01*
X142636855Y-53870726D02*
X142827331Y-53823107D01*
X142827331Y-53823107D02*
X142922569Y-53775488D01*
X142922569Y-53775488D02*
X143017808Y-53680250D01*
X143017808Y-53680250D02*
X143065427Y-53537393D01*
X143065427Y-53537393D02*
X143065427Y-53442155D01*
X143065427Y-53442155D02*
X143017808Y-53299298D01*
X143017808Y-53299298D02*
X142970188Y-53251679D01*
X142970188Y-53251679D02*
X142636855Y-53251679D01*
X142636855Y-53251679D02*
X142636855Y-53442155D01*
X124085427Y-53416917D02*
X124085427Y-53893107D01*
X124085427Y-53893107D02*
X123085427Y-53893107D01*
X124085427Y-52559774D02*
X124085427Y-53131202D01*
X124085427Y-52845488D02*
X123085427Y-52845488D01*
X123085427Y-52845488D02*
X123228284Y-52940726D01*
X123228284Y-52940726D02*
X123323522Y-53035964D01*
X123323522Y-53035964D02*
X123371141Y-53131202D01*
X139453046Y-53329298D02*
X139405427Y-53424536D01*
X139405427Y-53424536D02*
X139405427Y-53567393D01*
X139405427Y-53567393D02*
X139453046Y-53710250D01*
X139453046Y-53710250D02*
X139548284Y-53805488D01*
X139548284Y-53805488D02*
X139643522Y-53853107D01*
X139643522Y-53853107D02*
X139833998Y-53900726D01*
X139833998Y-53900726D02*
X139976855Y-53900726D01*
X139976855Y-53900726D02*
X140167331Y-53853107D01*
X140167331Y-53853107D02*
X140262569Y-53805488D01*
X140262569Y-53805488D02*
X140357808Y-53710250D01*
X140357808Y-53710250D02*
X140405427Y-53567393D01*
X140405427Y-53567393D02*
X140405427Y-53472155D01*
X140405427Y-53472155D02*
X140357808Y-53329298D01*
X140357808Y-53329298D02*
X140310188Y-53281679D01*
X140310188Y-53281679D02*
X139976855Y-53281679D01*
X139976855Y-53281679D02*
X139976855Y-53472155D01*
D11*
X83824942Y-53560644D02*
X83488225Y-53897362D01*
X83488225Y-53897362D02*
X82781118Y-53190255D01*
X84431034Y-52954552D02*
X84026973Y-53358613D01*
X84229003Y-53156583D02*
X83521897Y-52449476D01*
X83521897Y-52449476D02*
X83555568Y-52617835D01*
X83555568Y-52617835D02*
X83555568Y-52752522D01*
X83555568Y-52752522D02*
X83521897Y-52853537D01*
X102643551Y-52860746D02*
X102306833Y-52524029D01*
X102306833Y-52524029D02*
X103013940Y-51816922D01*
X103485345Y-52423014D02*
X103552688Y-52423014D01*
X103552688Y-52423014D02*
X103653704Y-52456685D01*
X103653704Y-52456685D02*
X103822062Y-52625044D01*
X103822062Y-52625044D02*
X103855734Y-52726059D01*
X103855734Y-52726059D02*
X103855734Y-52793403D01*
X103855734Y-52793403D02*
X103822062Y-52894418D01*
X103822062Y-52894418D02*
X103754719Y-52961762D01*
X103754719Y-52961762D02*
X103620032Y-53029105D01*
X103620032Y-53029105D02*
X102811910Y-53029105D01*
X102811910Y-53029105D02*
X103249643Y-53466838D01*
X184058910Y-52504577D02*
X183722192Y-52167860D01*
X183722192Y-52167860D02*
X184429299Y-51460753D01*
X185338437Y-52369890D02*
X185001719Y-52033173D01*
X185001719Y-52033173D02*
X184631330Y-52336219D01*
X184631330Y-52336219D02*
X184698673Y-52336219D01*
X184698673Y-52336219D02*
X184799689Y-52369890D01*
X184799689Y-52369890D02*
X184968047Y-52538249D01*
X184968047Y-52538249D02*
X185001719Y-52639264D01*
X185001719Y-52639264D02*
X185001719Y-52706608D01*
X185001719Y-52706608D02*
X184968047Y-52807623D01*
X184968047Y-52807623D02*
X184799689Y-52975982D01*
X184799689Y-52975982D02*
X184698673Y-53009654D01*
X184698673Y-53009654D02*
X184631330Y-53009654D01*
X184631330Y-53009654D02*
X184530315Y-52975982D01*
X184530315Y-52975982D02*
X184361956Y-52807623D01*
X184361956Y-52807623D02*
X184328284Y-52706608D01*
X184328284Y-52706608D02*
X184328284Y-52639264D01*
X139448331Y-51343803D02*
X138972141Y-51343803D01*
X138972141Y-51343803D02*
X138972141Y-50343803D01*
X139686427Y-50343803D02*
X140305474Y-50343803D01*
X140305474Y-50343803D02*
X139972141Y-50724755D01*
X139972141Y-50724755D02*
X140114998Y-50724755D01*
X140114998Y-50724755D02*
X140210236Y-50772374D01*
X140210236Y-50772374D02*
X140257855Y-50819993D01*
X140257855Y-50819993D02*
X140305474Y-50915231D01*
X140305474Y-50915231D02*
X140305474Y-51153326D01*
X140305474Y-51153326D02*
X140257855Y-51248564D01*
X140257855Y-51248564D02*
X140210236Y-51296184D01*
X140210236Y-51296184D02*
X140114998Y-51343803D01*
X140114998Y-51343803D02*
X139829284Y-51343803D01*
X139829284Y-51343803D02*
X139734046Y-51296184D01*
X139734046Y-51296184D02*
X139686427Y-51248564D01*
D12*
%TO.C,L1*%
X82274587Y-50485413D02*
X83837293Y-48922707D01*
X82793008Y-51736992D02*
G75*
G02*
X79253008Y-51736992I-1770000J0D01*
G01*
X79253008Y-51736992D02*
G75*
G02*
X82793008Y-51736992I1770000J0D01*
G01*
%TO.C,L2*%
X105760496Y-51044480D02*
X104197790Y-49481774D01*
X108782075Y-52296059D02*
G75*
G02*
X105242075Y-52296059I-1770000J0D01*
G01*
X105242075Y-52296059D02*
G75*
G02*
X108782075Y-52296059I1770000J0D01*
G01*
%TO.C,L4*%
X157122485Y-51117515D02*
X158685191Y-49554809D01*
X157640906Y-52369094D02*
G75*
G02*
X154100906Y-52369094I-1770000J0D01*
G01*
X154100906Y-52369094D02*
G75*
G02*
X157640906Y-52369094I1770000J0D01*
G01*
%TO.C,L5*%
X187340496Y-50894480D02*
X185777790Y-49331774D01*
X190362075Y-52146059D02*
G75*
G02*
X186822075Y-52146059I-1770000J0D01*
G01*
X186822075Y-52146059D02*
G75*
G02*
X190362075Y-52146059I1770000J0D01*
G01*
%TO.C,L3*%
X139493008Y-46386992D02*
X139493008Y-44176992D01*
X141263008Y-48156992D02*
G75*
G02*
X137723008Y-48156992I-1770000J0D01*
G01*
X137723008Y-48156992D02*
G75*
G02*
X141263008Y-48156992I1770000J0D01*
G01*
%TD*%
M02*
