M48
; DRILL file {KiCad 8.0.0} date 2026-05-18T10:04:00+0800
; FORMAT={-:-/ absolute / inch / decimal}
; #@! TF.CreationDate,2026-05-18T10:04:00+08:00
; #@! TF.GenerationSoftware,Kicad,Pcbnew,8.0.0
; #@! TF.FileFunction,Plated,1,2,PTH
FMAT,2
INCH
; #@! TA.AperFunction,Plated,PTH,ViaDrill
T1C0.0118
; #@! TA.AperFunction,Plated,PTH,ComponentDrill
T2C0.0315
; #@! TA.AperFunction,Plated,PTH,ComponentDrill
T3C0.0394
%
G90
G05
T1
X4.2694Y-2.0377
X6.0749Y-2.0302
T2
X3.1899Y-2.0369
X3.3313Y-1.8955
X4.0717Y-1.9175
X4.2131Y-2.0589
X5.4919Y-1.6959
X5.4919Y-1.8959
X6.1366Y-2.0618
X6.2781Y-1.9204
X7.2835Y-1.9116
X7.4249Y-2.053
T3
X4.869Y-2.1877
X4.969Y-2.1877
X5.069Y-2.1877
X5.169Y-2.1877
X5.3119Y-2.1896
X5.4119Y-2.1896
X5.5119Y-2.1896
X5.6119Y-2.1896
M30
