%TF.GenerationSoftware,KiCad,Pcbnew,8.0.0*%
%TF.CreationDate,2026-05-18T10:04:13+08:00*%
%TF.ProjectId,ken_EMstick,6b656e5f-454d-4737-9469-636b2e6b6963,rev?*%
%TF.SameCoordinates,Original*%
%TF.FileFunction,Copper,L2,Bot*%
%TF.FilePolarity,Positive*%
%FSLAX46Y46*%
G04 Gerber Fmt 4.6, Leading zero omitted, Abs format (unit mm)*
G04 Created by KiCad (PCBNEW 8.0.0) date 2026-05-18 10:04:13*
%MOMM*%
%LPD*%
G01*
G04 APERTURE LIST*
G04 Aperture macros list*
%AMRoundRect*
0 Rectangle with rounded corners*
0 $1 Rounding radius*
0 $2 $3 $4 $5 $6 $7 $8 $9 X,Y pos of 4 corners*
0 Add a 4 corners polygon primitive as box body*
4,1,4,$2,$3,$4,$5,$6,$7,$8,$9,$2,$3,0*
0 Add four circle primitives for the rounded corners*
1,1,$1+$1,$2,$3*
1,1,$1+$1,$4,$5*
1,1,$1+$1,$6,$7*
1,1,$1+$1,$8,$9*
0 Add four rect primitives between the rounded corners*
20,1,$1+$1,$2,$3,$4,$5,0*
20,1,$1+$1,$4,$5,$6,$7,0*
20,1,$1+$1,$6,$7,$8,$9,0*
20,1,$1+$1,$8,$9,$2,$3,0*%
%AMHorizOval*
0 Thick line with rounded ends*
0 $1 width*
0 $2 $3 position (X,Y) of the first rounded end (center of the circle)*
0 $4 $5 position (X,Y) of the second rounded end (center of the circle)*
0 Add line between two ends*
20,1,$1,$2,$3,$4,$5,0*
0 Add two circle primitives to create the rounded ends*
1,1,$1,$2,$3*
1,1,$1,$4,$5*%
G04 Aperture macros list end*
%TA.AperFunction,ComponentPad*%
%ADD10C,1.600000*%
%TD*%
%TA.AperFunction,ComponentPad*%
%ADD11HorizOval,1.600000X0.000000X0.000000X0.000000X0.000000X0*%
%TD*%
%TA.AperFunction,ComponentPad*%
%ADD12HorizOval,1.600000X0.000000X0.000000X0.000000X0.000000X0*%
%TD*%
%TA.AperFunction,ComponentPad*%
%ADD13O,1.600000X1.600000*%
%TD*%
%TA.AperFunction,SMDPad,CuDef*%
%ADD14RoundRect,0.225000X0.017678X-0.335876X0.335876X-0.017678X-0.017678X0.335876X-0.335876X0.017678X0*%
%TD*%
%TA.AperFunction,SMDPad,CuDef*%
%ADD15RoundRect,0.225000X0.335876X0.017678X0.017678X0.335876X-0.335876X-0.017678X-0.017678X-0.335876X0*%
%TD*%
%TA.AperFunction,SMDPad,CuDef*%
%ADD16RoundRect,0.225000X-0.225000X-0.250000X0.225000X-0.250000X0.225000X0.250000X-0.225000X0.250000X0*%
%TD*%
%TA.AperFunction,ComponentPad*%
%ADD17R,1.700000X1.700000*%
%TD*%
%TA.AperFunction,ComponentPad*%
%ADD18O,1.700000X1.700000*%
%TD*%
%TA.AperFunction,ViaPad*%
%ADD19C,0.600000*%
%TD*%
%TA.AperFunction,Conductor*%
%ADD20C,0.254000*%
%TD*%
%TA.AperFunction,Conductor*%
%ADD21C,0.200000*%
%TD*%
%TA.AperFunction,Conductor*%
%ADD22C,0.508000*%
%TD*%
%TA.AperFunction,Conductor*%
%ADD23C,0.762000*%
%TD*%
G04 APERTURE END LIST*
D10*
%TO.P,L1,1*%
%TO.N,/L1*%
X81023008Y-51736992D03*
D11*
%TO.P,L1,2*%
%TO.N,GND*%
X84615110Y-48144890D03*
%TD*%
D10*
%TO.P,L2,1*%
%TO.N,/L2*%
X107012075Y-52296059D03*
D12*
%TO.P,L2,2*%
%TO.N,GND*%
X103419973Y-48703957D03*
%TD*%
D10*
%TO.P,L4,1*%
%TO.N,/L4*%
X155870906Y-52369094D03*
D11*
%TO.P,L4,2*%
%TO.N,GND*%
X159463008Y-48776992D03*
%TD*%
D10*
%TO.P,L5,1*%
%TO.N,/L5*%
X188592075Y-52146059D03*
D12*
%TO.P,L5,2*%
%TO.N,GND*%
X184999973Y-48553957D03*
%TD*%
D10*
%TO.P,L3,1*%
%TO.N,/L3*%
X139493008Y-48156992D03*
D13*
%TO.P,L3,2*%
%TO.N,GND*%
X139493008Y-43076992D03*
%TD*%
D14*
%TO.P,C1,1*%
%TO.N,/L1*%
X82556992Y-53153008D03*
%TO.P,C1,2*%
%TO.N,GND*%
X83653008Y-52056992D03*
%TD*%
D15*
%TO.P,C2,1*%
%TO.N,/L2*%
X109553008Y-52596992D03*
%TO.P,C2,2*%
%TO.N,GND*%
X108456992Y-51500976D03*
%TD*%
D16*
%TO.P,C3,1*%
%TO.N,/L3*%
X138840000Y-50888984D03*
%TO.P,C3,2*%
%TO.N,GND*%
X140390000Y-50888984D03*
%TD*%
D17*
%TO.P,J4,1,Pin_1*%
%TO.N,/L5*%
X142543008Y-55616992D03*
D18*
%TO.P,J4,2,Pin_2*%
%TO.N,/L4*%
X140003008Y-55616992D03*
%TO.P,J4,3,Pin_3*%
%TO.N,GND*%
X137463009Y-55616992D03*
%TO.P,J4,4,Pin_4*%
X134923008Y-55616992D03*
%TD*%
D14*
%TO.P,C4,1*%
%TO.N,/L4*%
X153223008Y-52636992D03*
%TO.P,C4,2*%
%TO.N,GND*%
X154319024Y-51540976D03*
%TD*%
D15*
%TO.P,C5,1*%
%TO.N,/L5*%
X185539024Y-53183008D03*
%TO.P,C5,2*%
%TO.N,GND*%
X184443008Y-52086992D03*
%TD*%
D17*
%TO.P,J3,1,Pin_1*%
%TO.N,GND*%
X131293008Y-55566992D03*
D18*
%TO.P,J3,2,Pin_2*%
%TO.N,/L3*%
X128753008Y-55566992D03*
%TO.P,J3,3,Pin_3*%
%TO.N,/L2*%
X126213009Y-55566992D03*
%TO.P,J3,4,Pin_4*%
%TO.N,/L1*%
X123673008Y-55566992D03*
%TD*%
D19*
%TO.N,GND*%
X108443008Y-51756992D03*
X154303008Y-51566992D03*
%TD*%
D20*
%TO.N,/L1*%
X122825089Y-53516992D02*
X123673008Y-54364911D01*
X81294052Y-51988036D02*
X82823008Y-53516992D01*
X81294052Y-51484052D02*
X81294052Y-51988036D01*
X123673008Y-54364911D02*
X123673008Y-55566992D01*
D21*
X81294052Y-51484052D02*
X81215083Y-51484052D01*
D20*
X82823008Y-53516992D02*
X122825089Y-53516992D01*
%TO.N,/L2*%
X106829313Y-52122843D02*
X107560486Y-52854016D01*
X119152720Y-52854016D02*
X119152744Y-52853992D01*
X107560486Y-52854016D02*
X119152720Y-52854016D01*
X119152744Y-52853992D02*
X123100008Y-52853992D01*
X123100008Y-52853992D02*
X125813008Y-55566992D01*
X106829313Y-52197581D02*
X106829313Y-52122843D01*
D21*
X125813008Y-55566992D02*
X126213009Y-55566992D01*
D20*
%TO.N,/L3*%
X128753008Y-55566992D02*
X130613008Y-53706992D01*
X130613008Y-53706992D02*
X137083008Y-53706992D01*
X137083008Y-53706992D02*
X138840000Y-51950000D01*
D22*
X139326992Y-48323008D02*
X139493008Y-48156992D01*
D20*
X138840000Y-51950000D02*
X138840000Y-48810000D01*
X138840000Y-48810000D02*
X139326992Y-48323008D01*
%TO.N,/L4*%
X142523008Y-52866992D02*
X140003008Y-55386992D01*
X152833008Y-52866992D02*
X142523008Y-52866992D01*
D21*
X156064628Y-52079708D02*
X156050352Y-52093984D01*
D20*
X155477344Y-52666992D02*
X153033008Y-52666992D01*
X156050352Y-52093984D02*
X155477344Y-52666992D01*
X153033008Y-52666992D02*
X152833008Y-52866992D01*
D21*
X140003008Y-55386992D02*
X140003008Y-55616992D01*
D20*
%TO.N,/L5*%
X156940825Y-53566992D02*
X144133008Y-53566992D01*
D21*
X142543008Y-55156992D02*
X142543008Y-55616992D01*
D20*
X185347491Y-53374541D02*
X157133276Y-53374541D01*
X144133008Y-53566992D02*
X142543008Y-55156992D01*
X157133276Y-53374541D02*
X156940825Y-53566992D01*
X188592075Y-52146059D02*
X186575973Y-52146059D01*
X186575973Y-52146059D02*
X185347491Y-53374541D01*
%TO.N,GND*%
X140673008Y-44146992D02*
X140673008Y-50605976D01*
X83733008Y-51956992D02*
X83612149Y-51836133D01*
D22*
X154303008Y-51556992D02*
X154303008Y-51566992D01*
D20*
X83801016Y-51882932D02*
X84865076Y-52946992D01*
X139603008Y-43076992D02*
X140673008Y-44146992D01*
D22*
X154319024Y-51540976D02*
X154303008Y-51556992D01*
D20*
X139493008Y-43076992D02*
X139603008Y-43076992D01*
X83612149Y-49086986D02*
X84807185Y-47891950D01*
D22*
X154293008Y-51566992D02*
X155688672Y-50171328D01*
D20*
X140593008Y-51091992D02*
X140593008Y-52246992D01*
D22*
X154303008Y-51566992D02*
X154293008Y-51566992D01*
D20*
X103237211Y-51552789D02*
X103237211Y-48530741D01*
X101843008Y-52946992D02*
X103237211Y-51552789D01*
X157973008Y-52482362D02*
X158344638Y-52853992D01*
D21*
X154319024Y-51260976D02*
X154319024Y-51540976D01*
D23*
X137463009Y-55616992D02*
X134923008Y-55616992D01*
D21*
X137463009Y-55376991D02*
X137463009Y-55616992D01*
D20*
X140673008Y-50605976D02*
X140390000Y-50888984D01*
X183676008Y-52853992D02*
X184443008Y-52086992D01*
X83612149Y-51836133D02*
X83612149Y-49086986D01*
X140390000Y-50888984D02*
X140593008Y-51091992D01*
X157973008Y-50171328D02*
X157973008Y-52482362D01*
X157973008Y-50171328D02*
X159656730Y-48487606D01*
D21*
X83733008Y-51956992D02*
X83733008Y-51950940D01*
D22*
X155688672Y-50171328D02*
X157973008Y-50171328D01*
D21*
X83733008Y-51950940D02*
X83801016Y-51882932D01*
D20*
X185539858Y-50990142D02*
X185539858Y-49093842D01*
X84865076Y-52946992D02*
X101843008Y-52946992D01*
X140593008Y-52246992D02*
X137463009Y-55376991D01*
D21*
X108443008Y-51756992D02*
X108295958Y-51756992D01*
D20*
X183676008Y-52853992D02*
X185539858Y-50990142D01*
X158344638Y-52853992D02*
X183676008Y-52853992D01*
X185539858Y-49093842D02*
X184999973Y-48553957D01*
%TD*%
M02*
