%TF.GenerationSoftware,KiCad,Pcbnew,8.0.0*%
%TF.CreationDate,2026-04-12T02:19:40+08:00*%
%TF.ProjectId,STC_mainboard,5354435f-6d61-4696-9e62-6f6172642e6b,rev?*%
%TF.SameCoordinates,Original*%
%TF.FileFunction,Paste,Bot*%
%TF.FilePolarity,Positive*%
%FSLAX46Y46*%
G04 Gerber Fmt 4.6, Leading zero omitted, Abs format (unit mm)*
G04 Created by KiCad (PCBNEW 8.0.0) date 2026-04-12 02:19:40*
%MOMM*%
%LPD*%
G01*
G04 APERTURE LIST*
G04 Aperture macros list*
%AMRoundRect*
0 Rectangle with rounded corners*
0 $1 Rounding radius*
0 $2 $3 $4 $5 $6 $7 $8 $9 X,Y pos of 4 corners*
0 Add a 4 corners polygon primitive as box body*
4,1,4,$2,$3,$4,$5,$6,$7,$8,$9,$2,$3,0*
0 Add four circle primitives for the rounded corners*
1,1,$1+$1,$2,$3*
1,1,$1+$1,$4,$5*
1,1,$1+$1,$6,$7*
1,1,$1+$1,$8,$9*
0 Add four rect primitives between the rounded corners*
20,1,$1+$1,$2,$3,$4,$5,0*
20,1,$1+$1,$4,$5,$6,$7,0*
20,1,$1+$1,$6,$7,$8,$9,0*
20,1,$1+$1,$8,$9,$2,$3,0*%
G04 Aperture macros list end*
%ADD10RoundRect,0.200000X0.275000X-0.200000X0.275000X0.200000X-0.275000X0.200000X-0.275000X-0.200000X0*%
%ADD11RoundRect,0.125000X0.125000X-0.125000X0.125000X0.125000X-0.125000X0.125000X-0.125000X-0.125000X0*%
%ADD12RoundRect,0.225000X0.250000X-0.225000X0.250000X0.225000X-0.250000X0.225000X-0.250000X-0.225000X0*%
%ADD13RoundRect,0.225000X-0.225000X-0.250000X0.225000X-0.250000X0.225000X0.250000X-0.225000X0.250000X0*%
%ADD14RoundRect,0.200000X-0.200000X-0.275000X0.200000X-0.275000X0.200000X0.275000X-0.200000X0.275000X0*%
%ADD15R,0.800000X0.350000*%
%ADD16RoundRect,0.200000X0.200000X0.275000X-0.200000X0.275000X-0.200000X-0.275000X0.200000X-0.275000X0*%
%ADD17RoundRect,0.200000X-0.275000X0.200000X-0.275000X-0.200000X0.275000X-0.200000X0.275000X0.200000X0*%
%ADD18RoundRect,0.125000X-0.125000X-0.125000X0.125000X-0.125000X0.125000X0.125000X-0.125000X0.125000X0*%
%ADD19RoundRect,0.125000X-0.125000X0.125000X-0.125000X-0.125000X0.125000X-0.125000X0.125000X0.125000X0*%
%ADD20RoundRect,0.200000X0.053033X-0.335876X0.335876X-0.053033X-0.053033X0.335876X-0.335876X0.053033X0*%
%ADD21RoundRect,0.225000X-0.250000X0.225000X-0.250000X-0.225000X0.250000X-0.225000X0.250000X0.225000X0*%
%ADD22RoundRect,0.237500X0.371231X-0.035355X-0.035355X0.371231X-0.371231X0.035355X0.035355X-0.371231X0*%
%ADD23RoundRect,0.225000X-0.017678X0.335876X-0.335876X0.017678X0.017678X-0.335876X0.335876X-0.017678X0*%
%ADD24RoundRect,0.225000X0.017678X-0.335876X0.335876X-0.017678X-0.017678X0.335876X-0.335876X0.017678X0*%
%ADD25RoundRect,0.225000X0.335876X0.017678X0.017678X0.335876X-0.335876X-0.017678X-0.017678X-0.335876X0*%
%ADD26RoundRect,0.200000X0.335876X0.053033X0.053033X0.335876X-0.335876X-0.053033X-0.053033X-0.335876X0*%
%ADD27R,1.500000X2.000000*%
%ADD28R,3.800000X2.000000*%
%ADD29R,1.050000X0.650000*%
G04 APERTURE END LIST*
D10*
%TO.C,R11*%
X266705000Y-69415000D03*
X266705000Y-67765000D03*
%TD*%
D11*
%TO.C,D9*%
X275413410Y-54844089D03*
X275413410Y-52644091D03*
%TD*%
D12*
%TO.C,C18*%
X264655000Y-69405000D03*
X264655000Y-67855000D03*
%TD*%
D10*
%TO.C,R4*%
X255500000Y-105010000D03*
X255500000Y-103360000D03*
%TD*%
D13*
%TO.C,C25*%
X277280000Y-54830000D03*
X278830000Y-54830000D03*
%TD*%
D14*
%TO.C,R13*%
X229995000Y-72730000D03*
X231645000Y-72730000D03*
%TD*%
D15*
%TO.C,IC4*%
X253120000Y-70550000D03*
X253120000Y-71200000D03*
X253120000Y-71850000D03*
X251420000Y-71850000D03*
X251420000Y-70550000D03*
%TD*%
D10*
%TO.C,R20*%
X255445000Y-66425000D03*
X255445000Y-64775000D03*
%TD*%
D16*
%TO.C,R18*%
X262765000Y-69430000D03*
X261115000Y-69430000D03*
%TD*%
D12*
%TO.C,C13*%
X240880000Y-127025000D03*
X240880000Y-125475000D03*
%TD*%
D14*
%TO.C,R2*%
X273330000Y-82760000D03*
X274980000Y-82760000D03*
%TD*%
D16*
%TO.C,R14*%
X229970000Y-70160000D03*
X228320000Y-70160000D03*
%TD*%
D12*
%TO.C,C11*%
X247770000Y-126735000D03*
X247770000Y-125185000D03*
%TD*%
D17*
%TO.C,R23*%
X256145000Y-53015000D03*
X256145000Y-54665000D03*
%TD*%
D10*
%TO.C,R19*%
X266740000Y-63895000D03*
X266740000Y-62245000D03*
%TD*%
D12*
%TO.C,C34*%
X264530000Y-74915000D03*
X264530000Y-73365000D03*
%TD*%
D18*
%TO.C,D24*%
X268552501Y-75190000D03*
X270752499Y-75190000D03*
%TD*%
D12*
%TO.C,C10*%
X254060000Y-126865000D03*
X254060000Y-125315000D03*
%TD*%
D13*
%TO.C,C19*%
X277330000Y-63000000D03*
X278880000Y-63000000D03*
%TD*%
%TO.C,C31*%
X277530000Y-57840000D03*
X279080000Y-57840000D03*
%TD*%
D16*
%TO.C,R24*%
X250035000Y-54630000D03*
X248385000Y-54630000D03*
%TD*%
D19*
%TO.C,D5*%
X273116590Y-69426591D03*
X273116590Y-71626589D03*
%TD*%
D16*
%TO.C,R25*%
X249690000Y-60240000D03*
X248040000Y-60240000D03*
%TD*%
D20*
%TO.C,R22*%
X268310000Y-52910000D03*
X269476726Y-51743274D03*
%TD*%
D21*
%TO.C,C32*%
X266535000Y-58125000D03*
X266535000Y-59675000D03*
%TD*%
D22*
%TO.C,D2*%
X253322808Y-104580307D03*
X252085372Y-103342871D03*
%TD*%
D15*
%TO.C,IC7*%
X253000000Y-63440000D03*
X253000000Y-64090000D03*
X253000000Y-64740000D03*
X251300000Y-64740000D03*
X251300000Y-63440000D03*
%TD*%
D23*
%TO.C,C23*%
X248293008Y-71941992D03*
X247196992Y-73038008D03*
%TD*%
D14*
%TO.C,R1*%
X264010000Y-83830000D03*
X265660000Y-83830000D03*
%TD*%
D19*
%TO.C,D11*%
X275190000Y-57960000D03*
X275190000Y-60159998D03*
%TD*%
D21*
%TO.C,C14*%
X246820000Y-63370000D03*
X246820000Y-64920000D03*
%TD*%
D16*
%TO.C,R12*%
X250000000Y-64770000D03*
X248350000Y-64770000D03*
%TD*%
D19*
%TO.C,D7*%
X273886590Y-62975911D03*
X273886590Y-65175909D03*
%TD*%
D15*
%TO.C,IC10*%
X253200000Y-76140000D03*
X253200000Y-76790000D03*
X253200000Y-77440000D03*
X251500000Y-77440000D03*
X251500000Y-76140000D03*
%TD*%
D10*
%TO.C,R30*%
X254615000Y-62085000D03*
X254615000Y-60435000D03*
%TD*%
D24*
%TO.C,C2*%
X212523984Y-119486016D03*
X213620000Y-118390000D03*
%TD*%
D17*
%TO.C,R17*%
X255960000Y-70095000D03*
X255960000Y-71745000D03*
%TD*%
D10*
%TO.C,R16*%
X232160000Y-94669999D03*
X232160000Y-93019999D03*
%TD*%
D25*
%TO.C,C21*%
X247668008Y-56833008D03*
X246571992Y-55736992D03*
%TD*%
D13*
%TO.C,C16*%
X233940000Y-94790000D03*
X235490000Y-94790000D03*
%TD*%
D15*
%TO.C,IC8*%
X252750000Y-53280000D03*
X252750000Y-53930000D03*
X252750000Y-54580000D03*
X251050000Y-54580000D03*
X251050000Y-53280000D03*
%TD*%
D13*
%TO.C,C33*%
X276875000Y-75130000D03*
X278425000Y-75130000D03*
%TD*%
D12*
%TO.C,C26*%
X265220000Y-52220000D03*
X265220000Y-50670000D03*
%TD*%
D16*
%TO.C,R38*%
X262355000Y-75020000D03*
X260705000Y-75020000D03*
%TD*%
D24*
%TO.C,C3*%
X210853984Y-118586016D03*
X211950000Y-117490000D03*
%TD*%
D18*
%TO.C,D8*%
X268672501Y-63859320D03*
X270872499Y-63859320D03*
%TD*%
%TO.C,D18*%
X270650002Y-57850000D03*
X272850000Y-57850000D03*
%TD*%
D21*
%TO.C,C12*%
X246460000Y-68545000D03*
X246460000Y-70095000D03*
%TD*%
%TO.C,C22*%
X246550000Y-58670000D03*
X246550000Y-60220000D03*
%TD*%
D16*
%TO.C,R10*%
X249640000Y-70090000D03*
X247990000Y-70090000D03*
%TD*%
D12*
%TO.C,C7*%
X260320000Y-126530000D03*
X260320000Y-124980000D03*
%TD*%
D16*
%TO.C,R27*%
X262530000Y-52250000D03*
X260880000Y-52250000D03*
%TD*%
D19*
%TO.C,D19*%
X273336590Y-75115911D03*
X273336590Y-77315909D03*
%TD*%
D26*
%TO.C,R26*%
X249560000Y-75410000D03*
X248393274Y-74243274D03*
%TD*%
D16*
%TO.C,R31*%
X262505000Y-58180000D03*
X260855000Y-58180000D03*
%TD*%
D13*
%TO.C,C17*%
X276840000Y-69340680D03*
X278390000Y-69340680D03*
%TD*%
D18*
%TO.C,D6*%
X268570001Y-69450000D03*
X270769999Y-69450000D03*
%TD*%
D27*
%TO.C,U4*%
X234510000Y-104130000D03*
X232210000Y-104129999D03*
X229910000Y-104130000D03*
D28*
X232210000Y-97830001D03*
%TD*%
D17*
%TO.C,R37*%
X255450000Y-75885000D03*
X255450000Y-77535000D03*
%TD*%
D12*
%TO.C,C20*%
X264439999Y-63730000D03*
X264439999Y-62180000D03*
%TD*%
D18*
%TO.C,D10*%
X270089091Y-54885230D03*
X272289089Y-54885230D03*
%TD*%
D29*
%TO.C,Q1*%
X233245000Y-72720000D03*
X233245000Y-70820000D03*
X235545000Y-71770000D03*
%TD*%
D10*
%TO.C,R36*%
X266465000Y-75035000D03*
X266465000Y-73385000D03*
%TD*%
%TO.C,R28*%
X268700000Y-58120000D03*
X268700000Y-56470000D03*
%TD*%
D16*
%TO.C,R21*%
X262110000Y-63780000D03*
X260460000Y-63780000D03*
%TD*%
D15*
%TO.C,IC9*%
X252920000Y-59150000D03*
X252920000Y-59800000D03*
X252920000Y-60450000D03*
X251220000Y-60450000D03*
X251220000Y-59150000D03*
%TD*%
M02*
