%TF.GenerationSoftware,KiCad,Pcbnew,8.0.0*%
%TF.CreationDate,2026-04-12T02:19:40+08:00*%
%TF.ProjectId,STC_mainboard,5354435f-6d61-4696-9e62-6f6172642e6b,rev?*%
%TF.SameCoordinates,Original*%
%TF.FileFunction,Legend,Bot*%
%TF.FilePolarity,Positive*%
%FSLAX46Y46*%
G04 Gerber Fmt 4.6, Leading zero omitted, Abs format (unit mm)*
G04 Created by KiCad (PCBNEW 8.0.0) date 2026-04-12 02:19:40*
%MOMM*%
%LPD*%
G01*
G04 APERTURE LIST*
%ADD10C,0.150000*%
%ADD11C,0.120000*%
%ADD12C,0.203200*%
%ADD13C,0.200000*%
G04 APERTURE END LIST*
D10*
X267684819Y-70757142D02*
X267208628Y-70423809D01*
X267684819Y-70185714D02*
X266684819Y-70185714D01*
X266684819Y-70185714D02*
X266684819Y-70566666D01*
X266684819Y-70566666D02*
X266732438Y-70661904D01*
X266732438Y-70661904D02*
X266780057Y-70709523D01*
X266780057Y-70709523D02*
X266875295Y-70757142D01*
X266875295Y-70757142D02*
X267018152Y-70757142D01*
X267018152Y-70757142D02*
X267113390Y-70709523D01*
X267113390Y-70709523D02*
X267161009Y-70661904D01*
X267161009Y-70661904D02*
X267208628Y-70566666D01*
X267208628Y-70566666D02*
X267208628Y-70185714D01*
X267684819Y-71709523D02*
X267684819Y-71138095D01*
X267684819Y-71423809D02*
X266684819Y-71423809D01*
X266684819Y-71423809D02*
X266827676Y-71328571D01*
X266827676Y-71328571D02*
X266922914Y-71233333D01*
X266922914Y-71233333D02*
X266970533Y-71138095D01*
X267684819Y-72661904D02*
X267684819Y-72090476D01*
X267684819Y-72376190D02*
X266684819Y-72376190D01*
X266684819Y-72376190D02*
X266827676Y-72280952D01*
X266827676Y-72280952D02*
X266922914Y-72185714D01*
X266922914Y-72185714D02*
X266970533Y-72090476D01*
X276028094Y-56844819D02*
X276028094Y-55844819D01*
X276028094Y-55844819D02*
X275789999Y-55844819D01*
X275789999Y-55844819D02*
X275647142Y-55892438D01*
X275647142Y-55892438D02*
X275551904Y-55987676D01*
X275551904Y-55987676D02*
X275504285Y-56082914D01*
X275504285Y-56082914D02*
X275456666Y-56273390D01*
X275456666Y-56273390D02*
X275456666Y-56416247D01*
X275456666Y-56416247D02*
X275504285Y-56606723D01*
X275504285Y-56606723D02*
X275551904Y-56701961D01*
X275551904Y-56701961D02*
X275647142Y-56797200D01*
X275647142Y-56797200D02*
X275789999Y-56844819D01*
X275789999Y-56844819D02*
X276028094Y-56844819D01*
X274980475Y-56844819D02*
X274789999Y-56844819D01*
X274789999Y-56844819D02*
X274694761Y-56797200D01*
X274694761Y-56797200D02*
X274647142Y-56749580D01*
X274647142Y-56749580D02*
X274551904Y-56606723D01*
X274551904Y-56606723D02*
X274504285Y-56416247D01*
X274504285Y-56416247D02*
X274504285Y-56035295D01*
X274504285Y-56035295D02*
X274551904Y-55940057D01*
X274551904Y-55940057D02*
X274599523Y-55892438D01*
X274599523Y-55892438D02*
X274694761Y-55844819D01*
X274694761Y-55844819D02*
X274885237Y-55844819D01*
X274885237Y-55844819D02*
X274980475Y-55892438D01*
X274980475Y-55892438D02*
X275028094Y-55940057D01*
X275028094Y-55940057D02*
X275075713Y-56035295D01*
X275075713Y-56035295D02*
X275075713Y-56273390D01*
X275075713Y-56273390D02*
X275028094Y-56368628D01*
X275028094Y-56368628D02*
X274980475Y-56416247D01*
X274980475Y-56416247D02*
X274885237Y-56463866D01*
X274885237Y-56463866D02*
X274694761Y-56463866D01*
X274694761Y-56463866D02*
X274599523Y-56416247D01*
X274599523Y-56416247D02*
X274551904Y-56368628D01*
X274551904Y-56368628D02*
X274504285Y-56273390D01*
X266329580Y-70647142D02*
X266377200Y-70599523D01*
X266377200Y-70599523D02*
X266424819Y-70456666D01*
X266424819Y-70456666D02*
X266424819Y-70361428D01*
X266424819Y-70361428D02*
X266377200Y-70218571D01*
X266377200Y-70218571D02*
X266281961Y-70123333D01*
X266281961Y-70123333D02*
X266186723Y-70075714D01*
X266186723Y-70075714D02*
X265996247Y-70028095D01*
X265996247Y-70028095D02*
X265853390Y-70028095D01*
X265853390Y-70028095D02*
X265662914Y-70075714D01*
X265662914Y-70075714D02*
X265567676Y-70123333D01*
X265567676Y-70123333D02*
X265472438Y-70218571D01*
X265472438Y-70218571D02*
X265424819Y-70361428D01*
X265424819Y-70361428D02*
X265424819Y-70456666D01*
X265424819Y-70456666D02*
X265472438Y-70599523D01*
X265472438Y-70599523D02*
X265520057Y-70647142D01*
X266424819Y-71599523D02*
X266424819Y-71028095D01*
X266424819Y-71313809D02*
X265424819Y-71313809D01*
X265424819Y-71313809D02*
X265567676Y-71218571D01*
X265567676Y-71218571D02*
X265662914Y-71123333D01*
X265662914Y-71123333D02*
X265710533Y-71028095D01*
X265853390Y-72170952D02*
X265805771Y-72075714D01*
X265805771Y-72075714D02*
X265758152Y-72028095D01*
X265758152Y-72028095D02*
X265662914Y-71980476D01*
X265662914Y-71980476D02*
X265615295Y-71980476D01*
X265615295Y-71980476D02*
X265520057Y-72028095D01*
X265520057Y-72028095D02*
X265472438Y-72075714D01*
X265472438Y-72075714D02*
X265424819Y-72170952D01*
X265424819Y-72170952D02*
X265424819Y-72361428D01*
X265424819Y-72361428D02*
X265472438Y-72456666D01*
X265472438Y-72456666D02*
X265520057Y-72504285D01*
X265520057Y-72504285D02*
X265615295Y-72551904D01*
X265615295Y-72551904D02*
X265662914Y-72551904D01*
X265662914Y-72551904D02*
X265758152Y-72504285D01*
X265758152Y-72504285D02*
X265805771Y-72456666D01*
X265805771Y-72456666D02*
X265853390Y-72361428D01*
X265853390Y-72361428D02*
X265853390Y-72170952D01*
X265853390Y-72170952D02*
X265901009Y-72075714D01*
X265901009Y-72075714D02*
X265948628Y-72028095D01*
X265948628Y-72028095D02*
X266043866Y-71980476D01*
X266043866Y-71980476D02*
X266234342Y-71980476D01*
X266234342Y-71980476D02*
X266329580Y-72028095D01*
X266329580Y-72028095D02*
X266377200Y-72075714D01*
X266377200Y-72075714D02*
X266424819Y-72170952D01*
X266424819Y-72170952D02*
X266424819Y-72361428D01*
X266424819Y-72361428D02*
X266377200Y-72456666D01*
X266377200Y-72456666D02*
X266329580Y-72504285D01*
X266329580Y-72504285D02*
X266234342Y-72551904D01*
X266234342Y-72551904D02*
X266043866Y-72551904D01*
X266043866Y-72551904D02*
X265948628Y-72504285D01*
X265948628Y-72504285D02*
X265901009Y-72456666D01*
X265901009Y-72456666D02*
X265853390Y-72361428D01*
X257384819Y-104018333D02*
X256908628Y-103685000D01*
X257384819Y-103446905D02*
X256384819Y-103446905D01*
X256384819Y-103446905D02*
X256384819Y-103827857D01*
X256384819Y-103827857D02*
X256432438Y-103923095D01*
X256432438Y-103923095D02*
X256480057Y-103970714D01*
X256480057Y-103970714D02*
X256575295Y-104018333D01*
X256575295Y-104018333D02*
X256718152Y-104018333D01*
X256718152Y-104018333D02*
X256813390Y-103970714D01*
X256813390Y-103970714D02*
X256861009Y-103923095D01*
X256861009Y-103923095D02*
X256908628Y-103827857D01*
X256908628Y-103827857D02*
X256908628Y-103446905D01*
X256718152Y-104875476D02*
X257384819Y-104875476D01*
X256337200Y-104637381D02*
X257051485Y-104399286D01*
X257051485Y-104399286D02*
X257051485Y-105018333D01*
X278697857Y-56619580D02*
X278745476Y-56667200D01*
X278745476Y-56667200D02*
X278888333Y-56714819D01*
X278888333Y-56714819D02*
X278983571Y-56714819D01*
X278983571Y-56714819D02*
X279126428Y-56667200D01*
X279126428Y-56667200D02*
X279221666Y-56571961D01*
X279221666Y-56571961D02*
X279269285Y-56476723D01*
X279269285Y-56476723D02*
X279316904Y-56286247D01*
X279316904Y-56286247D02*
X279316904Y-56143390D01*
X279316904Y-56143390D02*
X279269285Y-55952914D01*
X279269285Y-55952914D02*
X279221666Y-55857676D01*
X279221666Y-55857676D02*
X279126428Y-55762438D01*
X279126428Y-55762438D02*
X278983571Y-55714819D01*
X278983571Y-55714819D02*
X278888333Y-55714819D01*
X278888333Y-55714819D02*
X278745476Y-55762438D01*
X278745476Y-55762438D02*
X278697857Y-55810057D01*
X278316904Y-55810057D02*
X278269285Y-55762438D01*
X278269285Y-55762438D02*
X278174047Y-55714819D01*
X278174047Y-55714819D02*
X277935952Y-55714819D01*
X277935952Y-55714819D02*
X277840714Y-55762438D01*
X277840714Y-55762438D02*
X277793095Y-55810057D01*
X277793095Y-55810057D02*
X277745476Y-55905295D01*
X277745476Y-55905295D02*
X277745476Y-56000533D01*
X277745476Y-56000533D02*
X277793095Y-56143390D01*
X277793095Y-56143390D02*
X278364523Y-56714819D01*
X278364523Y-56714819D02*
X277745476Y-56714819D01*
X276840714Y-55714819D02*
X277316904Y-55714819D01*
X277316904Y-55714819D02*
X277364523Y-56191009D01*
X277364523Y-56191009D02*
X277316904Y-56143390D01*
X277316904Y-56143390D02*
X277221666Y-56095771D01*
X277221666Y-56095771D02*
X276983571Y-56095771D01*
X276983571Y-56095771D02*
X276888333Y-56143390D01*
X276888333Y-56143390D02*
X276840714Y-56191009D01*
X276840714Y-56191009D02*
X276793095Y-56286247D01*
X276793095Y-56286247D02*
X276793095Y-56524342D01*
X276793095Y-56524342D02*
X276840714Y-56619580D01*
X276840714Y-56619580D02*
X276888333Y-56667200D01*
X276888333Y-56667200D02*
X276983571Y-56714819D01*
X276983571Y-56714819D02*
X277221666Y-56714819D01*
X277221666Y-56714819D02*
X277316904Y-56667200D01*
X277316904Y-56667200D02*
X277364523Y-56619580D01*
X231462857Y-74614819D02*
X231796190Y-74138628D01*
X232034285Y-74614819D02*
X232034285Y-73614819D01*
X232034285Y-73614819D02*
X231653333Y-73614819D01*
X231653333Y-73614819D02*
X231558095Y-73662438D01*
X231558095Y-73662438D02*
X231510476Y-73710057D01*
X231510476Y-73710057D02*
X231462857Y-73805295D01*
X231462857Y-73805295D02*
X231462857Y-73948152D01*
X231462857Y-73948152D02*
X231510476Y-74043390D01*
X231510476Y-74043390D02*
X231558095Y-74091009D01*
X231558095Y-74091009D02*
X231653333Y-74138628D01*
X231653333Y-74138628D02*
X232034285Y-74138628D01*
X230510476Y-74614819D02*
X231081904Y-74614819D01*
X230796190Y-74614819D02*
X230796190Y-73614819D01*
X230796190Y-73614819D02*
X230891428Y-73757676D01*
X230891428Y-73757676D02*
X230986666Y-73852914D01*
X230986666Y-73852914D02*
X231081904Y-73900533D01*
X230177142Y-73614819D02*
X229558095Y-73614819D01*
X229558095Y-73614819D02*
X229891428Y-73995771D01*
X229891428Y-73995771D02*
X229748571Y-73995771D01*
X229748571Y-73995771D02*
X229653333Y-74043390D01*
X229653333Y-74043390D02*
X229605714Y-74091009D01*
X229605714Y-74091009D02*
X229558095Y-74186247D01*
X229558095Y-74186247D02*
X229558095Y-74424342D01*
X229558095Y-74424342D02*
X229605714Y-74519580D01*
X229605714Y-74519580D02*
X229653333Y-74567200D01*
X229653333Y-74567200D02*
X229748571Y-74614819D01*
X229748571Y-74614819D02*
X230034285Y-74614819D01*
X230034285Y-74614819D02*
X230129523Y-74567200D01*
X230129523Y-74567200D02*
X230177142Y-74519580D01*
X253031399Y-69632507D02*
X253031399Y-68832050D01*
X252192825Y-69556273D02*
X252230942Y-69594390D01*
X252230942Y-69594390D02*
X252345293Y-69632507D01*
X252345293Y-69632507D02*
X252421527Y-69632507D01*
X252421527Y-69632507D02*
X252535878Y-69594390D01*
X252535878Y-69594390D02*
X252612112Y-69518156D01*
X252612112Y-69518156D02*
X252650229Y-69441922D01*
X252650229Y-69441922D02*
X252688346Y-69289454D01*
X252688346Y-69289454D02*
X252688346Y-69175103D01*
X252688346Y-69175103D02*
X252650229Y-69022635D01*
X252650229Y-69022635D02*
X252612112Y-68946401D01*
X252612112Y-68946401D02*
X252535878Y-68870167D01*
X252535878Y-68870167D02*
X252421527Y-68832050D01*
X252421527Y-68832050D02*
X252345293Y-68832050D01*
X252345293Y-68832050D02*
X252230942Y-68870167D01*
X252230942Y-68870167D02*
X252192825Y-68908284D01*
X251506719Y-69098869D02*
X251506719Y-69632507D01*
X251697304Y-68793933D02*
X251887889Y-69365688D01*
X251887889Y-69365688D02*
X251392368Y-69365688D01*
X257329819Y-64957142D02*
X256853628Y-64623809D01*
X257329819Y-64385714D02*
X256329819Y-64385714D01*
X256329819Y-64385714D02*
X256329819Y-64766666D01*
X256329819Y-64766666D02*
X256377438Y-64861904D01*
X256377438Y-64861904D02*
X256425057Y-64909523D01*
X256425057Y-64909523D02*
X256520295Y-64957142D01*
X256520295Y-64957142D02*
X256663152Y-64957142D01*
X256663152Y-64957142D02*
X256758390Y-64909523D01*
X256758390Y-64909523D02*
X256806009Y-64861904D01*
X256806009Y-64861904D02*
X256853628Y-64766666D01*
X256853628Y-64766666D02*
X256853628Y-64385714D01*
X256425057Y-65338095D02*
X256377438Y-65385714D01*
X256377438Y-65385714D02*
X256329819Y-65480952D01*
X256329819Y-65480952D02*
X256329819Y-65719047D01*
X256329819Y-65719047D02*
X256377438Y-65814285D01*
X256377438Y-65814285D02*
X256425057Y-65861904D01*
X256425057Y-65861904D02*
X256520295Y-65909523D01*
X256520295Y-65909523D02*
X256615533Y-65909523D01*
X256615533Y-65909523D02*
X256758390Y-65861904D01*
X256758390Y-65861904D02*
X257329819Y-65290476D01*
X257329819Y-65290476D02*
X257329819Y-65909523D01*
X256329819Y-66528571D02*
X256329819Y-66623809D01*
X256329819Y-66623809D02*
X256377438Y-66719047D01*
X256377438Y-66719047D02*
X256425057Y-66766666D01*
X256425057Y-66766666D02*
X256520295Y-66814285D01*
X256520295Y-66814285D02*
X256710771Y-66861904D01*
X256710771Y-66861904D02*
X256948866Y-66861904D01*
X256948866Y-66861904D02*
X257139342Y-66814285D01*
X257139342Y-66814285D02*
X257234580Y-66766666D01*
X257234580Y-66766666D02*
X257282200Y-66719047D01*
X257282200Y-66719047D02*
X257329819Y-66623809D01*
X257329819Y-66623809D02*
X257329819Y-66528571D01*
X257329819Y-66528571D02*
X257282200Y-66433333D01*
X257282200Y-66433333D02*
X257234580Y-66385714D01*
X257234580Y-66385714D02*
X257139342Y-66338095D01*
X257139342Y-66338095D02*
X256948866Y-66290476D01*
X256948866Y-66290476D02*
X256710771Y-66290476D01*
X256710771Y-66290476D02*
X256520295Y-66338095D01*
X256520295Y-66338095D02*
X256425057Y-66385714D01*
X256425057Y-66385714D02*
X256377438Y-66433333D01*
X256377438Y-66433333D02*
X256329819Y-66528571D01*
X262582857Y-68454819D02*
X262916190Y-67978628D01*
X263154285Y-68454819D02*
X263154285Y-67454819D01*
X263154285Y-67454819D02*
X262773333Y-67454819D01*
X262773333Y-67454819D02*
X262678095Y-67502438D01*
X262678095Y-67502438D02*
X262630476Y-67550057D01*
X262630476Y-67550057D02*
X262582857Y-67645295D01*
X262582857Y-67645295D02*
X262582857Y-67788152D01*
X262582857Y-67788152D02*
X262630476Y-67883390D01*
X262630476Y-67883390D02*
X262678095Y-67931009D01*
X262678095Y-67931009D02*
X262773333Y-67978628D01*
X262773333Y-67978628D02*
X263154285Y-67978628D01*
X261630476Y-68454819D02*
X262201904Y-68454819D01*
X261916190Y-68454819D02*
X261916190Y-67454819D01*
X261916190Y-67454819D02*
X262011428Y-67597676D01*
X262011428Y-67597676D02*
X262106666Y-67692914D01*
X262106666Y-67692914D02*
X262201904Y-67740533D01*
X261059047Y-67883390D02*
X261154285Y-67835771D01*
X261154285Y-67835771D02*
X261201904Y-67788152D01*
X261201904Y-67788152D02*
X261249523Y-67692914D01*
X261249523Y-67692914D02*
X261249523Y-67645295D01*
X261249523Y-67645295D02*
X261201904Y-67550057D01*
X261201904Y-67550057D02*
X261154285Y-67502438D01*
X261154285Y-67502438D02*
X261059047Y-67454819D01*
X261059047Y-67454819D02*
X260868571Y-67454819D01*
X260868571Y-67454819D02*
X260773333Y-67502438D01*
X260773333Y-67502438D02*
X260725714Y-67550057D01*
X260725714Y-67550057D02*
X260678095Y-67645295D01*
X260678095Y-67645295D02*
X260678095Y-67692914D01*
X260678095Y-67692914D02*
X260725714Y-67788152D01*
X260725714Y-67788152D02*
X260773333Y-67835771D01*
X260773333Y-67835771D02*
X260868571Y-67883390D01*
X260868571Y-67883390D02*
X261059047Y-67883390D01*
X261059047Y-67883390D02*
X261154285Y-67931009D01*
X261154285Y-67931009D02*
X261201904Y-67978628D01*
X261201904Y-67978628D02*
X261249523Y-68073866D01*
X261249523Y-68073866D02*
X261249523Y-68264342D01*
X261249523Y-68264342D02*
X261201904Y-68359580D01*
X261201904Y-68359580D02*
X261154285Y-68407200D01*
X261154285Y-68407200D02*
X261059047Y-68454819D01*
X261059047Y-68454819D02*
X260868571Y-68454819D01*
X260868571Y-68454819D02*
X260773333Y-68407200D01*
X260773333Y-68407200D02*
X260725714Y-68359580D01*
X260725714Y-68359580D02*
X260678095Y-68264342D01*
X260678095Y-68264342D02*
X260678095Y-68073866D01*
X260678095Y-68073866D02*
X260725714Y-67978628D01*
X260725714Y-67978628D02*
X260773333Y-67931009D01*
X260773333Y-67931009D02*
X260868571Y-67883390D01*
X242669580Y-125607142D02*
X242717200Y-125559523D01*
X242717200Y-125559523D02*
X242764819Y-125416666D01*
X242764819Y-125416666D02*
X242764819Y-125321428D01*
X242764819Y-125321428D02*
X242717200Y-125178571D01*
X242717200Y-125178571D02*
X242621961Y-125083333D01*
X242621961Y-125083333D02*
X242526723Y-125035714D01*
X242526723Y-125035714D02*
X242336247Y-124988095D01*
X242336247Y-124988095D02*
X242193390Y-124988095D01*
X242193390Y-124988095D02*
X242002914Y-125035714D01*
X242002914Y-125035714D02*
X241907676Y-125083333D01*
X241907676Y-125083333D02*
X241812438Y-125178571D01*
X241812438Y-125178571D02*
X241764819Y-125321428D01*
X241764819Y-125321428D02*
X241764819Y-125416666D01*
X241764819Y-125416666D02*
X241812438Y-125559523D01*
X241812438Y-125559523D02*
X241860057Y-125607142D01*
X242764819Y-126559523D02*
X242764819Y-125988095D01*
X242764819Y-126273809D02*
X241764819Y-126273809D01*
X241764819Y-126273809D02*
X241907676Y-126178571D01*
X241907676Y-126178571D02*
X242002914Y-126083333D01*
X242002914Y-126083333D02*
X242050533Y-125988095D01*
X241764819Y-126892857D02*
X241764819Y-127511904D01*
X241764819Y-127511904D02*
X242145771Y-127178571D01*
X242145771Y-127178571D02*
X242145771Y-127321428D01*
X242145771Y-127321428D02*
X242193390Y-127416666D01*
X242193390Y-127416666D02*
X242241009Y-127464285D01*
X242241009Y-127464285D02*
X242336247Y-127511904D01*
X242336247Y-127511904D02*
X242574342Y-127511904D01*
X242574342Y-127511904D02*
X242669580Y-127464285D01*
X242669580Y-127464285D02*
X242717200Y-127416666D01*
X242717200Y-127416666D02*
X242764819Y-127321428D01*
X242764819Y-127321428D02*
X242764819Y-127035714D01*
X242764819Y-127035714D02*
X242717200Y-126940476D01*
X242717200Y-126940476D02*
X242669580Y-126892857D01*
X274246666Y-81624819D02*
X274579999Y-81148628D01*
X274818094Y-81624819D02*
X274818094Y-80624819D01*
X274818094Y-80624819D02*
X274437142Y-80624819D01*
X274437142Y-80624819D02*
X274341904Y-80672438D01*
X274341904Y-80672438D02*
X274294285Y-80720057D01*
X274294285Y-80720057D02*
X274246666Y-80815295D01*
X274246666Y-80815295D02*
X274246666Y-80958152D01*
X274246666Y-80958152D02*
X274294285Y-81053390D01*
X274294285Y-81053390D02*
X274341904Y-81101009D01*
X274341904Y-81101009D02*
X274437142Y-81148628D01*
X274437142Y-81148628D02*
X274818094Y-81148628D01*
X273865713Y-80720057D02*
X273818094Y-80672438D01*
X273818094Y-80672438D02*
X273722856Y-80624819D01*
X273722856Y-80624819D02*
X273484761Y-80624819D01*
X273484761Y-80624819D02*
X273389523Y-80672438D01*
X273389523Y-80672438D02*
X273341904Y-80720057D01*
X273341904Y-80720057D02*
X273294285Y-80815295D01*
X273294285Y-80815295D02*
X273294285Y-80910533D01*
X273294285Y-80910533D02*
X273341904Y-81053390D01*
X273341904Y-81053390D02*
X273913332Y-81624819D01*
X273913332Y-81624819D02*
X273294285Y-81624819D01*
X229787857Y-69184819D02*
X230121190Y-68708628D01*
X230359285Y-69184819D02*
X230359285Y-68184819D01*
X230359285Y-68184819D02*
X229978333Y-68184819D01*
X229978333Y-68184819D02*
X229883095Y-68232438D01*
X229883095Y-68232438D02*
X229835476Y-68280057D01*
X229835476Y-68280057D02*
X229787857Y-68375295D01*
X229787857Y-68375295D02*
X229787857Y-68518152D01*
X229787857Y-68518152D02*
X229835476Y-68613390D01*
X229835476Y-68613390D02*
X229883095Y-68661009D01*
X229883095Y-68661009D02*
X229978333Y-68708628D01*
X229978333Y-68708628D02*
X230359285Y-68708628D01*
X228835476Y-69184819D02*
X229406904Y-69184819D01*
X229121190Y-69184819D02*
X229121190Y-68184819D01*
X229121190Y-68184819D02*
X229216428Y-68327676D01*
X229216428Y-68327676D02*
X229311666Y-68422914D01*
X229311666Y-68422914D02*
X229406904Y-68470533D01*
X227978333Y-68518152D02*
X227978333Y-69184819D01*
X228216428Y-68137200D02*
X228454523Y-68851485D01*
X228454523Y-68851485D02*
X227835476Y-68851485D01*
X249559580Y-125317142D02*
X249607200Y-125269523D01*
X249607200Y-125269523D02*
X249654819Y-125126666D01*
X249654819Y-125126666D02*
X249654819Y-125031428D01*
X249654819Y-125031428D02*
X249607200Y-124888571D01*
X249607200Y-124888571D02*
X249511961Y-124793333D01*
X249511961Y-124793333D02*
X249416723Y-124745714D01*
X249416723Y-124745714D02*
X249226247Y-124698095D01*
X249226247Y-124698095D02*
X249083390Y-124698095D01*
X249083390Y-124698095D02*
X248892914Y-124745714D01*
X248892914Y-124745714D02*
X248797676Y-124793333D01*
X248797676Y-124793333D02*
X248702438Y-124888571D01*
X248702438Y-124888571D02*
X248654819Y-125031428D01*
X248654819Y-125031428D02*
X248654819Y-125126666D01*
X248654819Y-125126666D02*
X248702438Y-125269523D01*
X248702438Y-125269523D02*
X248750057Y-125317142D01*
X249654819Y-126269523D02*
X249654819Y-125698095D01*
X249654819Y-125983809D02*
X248654819Y-125983809D01*
X248654819Y-125983809D02*
X248797676Y-125888571D01*
X248797676Y-125888571D02*
X248892914Y-125793333D01*
X248892914Y-125793333D02*
X248940533Y-125698095D01*
X249654819Y-127221904D02*
X249654819Y-126650476D01*
X249654819Y-126936190D02*
X248654819Y-126936190D01*
X248654819Y-126936190D02*
X248797676Y-126840952D01*
X248797676Y-126840952D02*
X248892914Y-126745714D01*
X248892914Y-126745714D02*
X248940533Y-126650476D01*
X255169819Y-53197142D02*
X254693628Y-52863809D01*
X255169819Y-52625714D02*
X254169819Y-52625714D01*
X254169819Y-52625714D02*
X254169819Y-53006666D01*
X254169819Y-53006666D02*
X254217438Y-53101904D01*
X254217438Y-53101904D02*
X254265057Y-53149523D01*
X254265057Y-53149523D02*
X254360295Y-53197142D01*
X254360295Y-53197142D02*
X254503152Y-53197142D01*
X254503152Y-53197142D02*
X254598390Y-53149523D01*
X254598390Y-53149523D02*
X254646009Y-53101904D01*
X254646009Y-53101904D02*
X254693628Y-53006666D01*
X254693628Y-53006666D02*
X254693628Y-52625714D01*
X254265057Y-53578095D02*
X254217438Y-53625714D01*
X254217438Y-53625714D02*
X254169819Y-53720952D01*
X254169819Y-53720952D02*
X254169819Y-53959047D01*
X254169819Y-53959047D02*
X254217438Y-54054285D01*
X254217438Y-54054285D02*
X254265057Y-54101904D01*
X254265057Y-54101904D02*
X254360295Y-54149523D01*
X254360295Y-54149523D02*
X254455533Y-54149523D01*
X254455533Y-54149523D02*
X254598390Y-54101904D01*
X254598390Y-54101904D02*
X255169819Y-53530476D01*
X255169819Y-53530476D02*
X255169819Y-54149523D01*
X254169819Y-54482857D02*
X254169819Y-55101904D01*
X254169819Y-55101904D02*
X254550771Y-54768571D01*
X254550771Y-54768571D02*
X254550771Y-54911428D01*
X254550771Y-54911428D02*
X254598390Y-55006666D01*
X254598390Y-55006666D02*
X254646009Y-55054285D01*
X254646009Y-55054285D02*
X254741247Y-55101904D01*
X254741247Y-55101904D02*
X254979342Y-55101904D01*
X254979342Y-55101904D02*
X255074580Y-55054285D01*
X255074580Y-55054285D02*
X255122200Y-55006666D01*
X255122200Y-55006666D02*
X255169819Y-54911428D01*
X255169819Y-54911428D02*
X255169819Y-54625714D01*
X255169819Y-54625714D02*
X255122200Y-54530476D01*
X255122200Y-54530476D02*
X255074580Y-54482857D01*
X267954819Y-65167142D02*
X267478628Y-64833809D01*
X267954819Y-64595714D02*
X266954819Y-64595714D01*
X266954819Y-64595714D02*
X266954819Y-64976666D01*
X266954819Y-64976666D02*
X267002438Y-65071904D01*
X267002438Y-65071904D02*
X267050057Y-65119523D01*
X267050057Y-65119523D02*
X267145295Y-65167142D01*
X267145295Y-65167142D02*
X267288152Y-65167142D01*
X267288152Y-65167142D02*
X267383390Y-65119523D01*
X267383390Y-65119523D02*
X267431009Y-65071904D01*
X267431009Y-65071904D02*
X267478628Y-64976666D01*
X267478628Y-64976666D02*
X267478628Y-64595714D01*
X267954819Y-66119523D02*
X267954819Y-65548095D01*
X267954819Y-65833809D02*
X266954819Y-65833809D01*
X266954819Y-65833809D02*
X267097676Y-65738571D01*
X267097676Y-65738571D02*
X267192914Y-65643333D01*
X267192914Y-65643333D02*
X267240533Y-65548095D01*
X267954819Y-66595714D02*
X267954819Y-66786190D01*
X267954819Y-66786190D02*
X267907200Y-66881428D01*
X267907200Y-66881428D02*
X267859580Y-66929047D01*
X267859580Y-66929047D02*
X267716723Y-67024285D01*
X267716723Y-67024285D02*
X267526247Y-67071904D01*
X267526247Y-67071904D02*
X267145295Y-67071904D01*
X267145295Y-67071904D02*
X267050057Y-67024285D01*
X267050057Y-67024285D02*
X267002438Y-66976666D01*
X267002438Y-66976666D02*
X266954819Y-66881428D01*
X266954819Y-66881428D02*
X266954819Y-66690952D01*
X266954819Y-66690952D02*
X267002438Y-66595714D01*
X267002438Y-66595714D02*
X267050057Y-66548095D01*
X267050057Y-66548095D02*
X267145295Y-66500476D01*
X267145295Y-66500476D02*
X267383390Y-66500476D01*
X267383390Y-66500476D02*
X267478628Y-66548095D01*
X267478628Y-66548095D02*
X267526247Y-66595714D01*
X267526247Y-66595714D02*
X267573866Y-66690952D01*
X267573866Y-66690952D02*
X267573866Y-66881428D01*
X267573866Y-66881428D02*
X267526247Y-66976666D01*
X267526247Y-66976666D02*
X267478628Y-67024285D01*
X267478628Y-67024285D02*
X267383390Y-67071904D01*
X266469580Y-76497142D02*
X266517200Y-76449523D01*
X266517200Y-76449523D02*
X266564819Y-76306666D01*
X266564819Y-76306666D02*
X266564819Y-76211428D01*
X266564819Y-76211428D02*
X266517200Y-76068571D01*
X266517200Y-76068571D02*
X266421961Y-75973333D01*
X266421961Y-75973333D02*
X266326723Y-75925714D01*
X266326723Y-75925714D02*
X266136247Y-75878095D01*
X266136247Y-75878095D02*
X265993390Y-75878095D01*
X265993390Y-75878095D02*
X265802914Y-75925714D01*
X265802914Y-75925714D02*
X265707676Y-75973333D01*
X265707676Y-75973333D02*
X265612438Y-76068571D01*
X265612438Y-76068571D02*
X265564819Y-76211428D01*
X265564819Y-76211428D02*
X265564819Y-76306666D01*
X265564819Y-76306666D02*
X265612438Y-76449523D01*
X265612438Y-76449523D02*
X265660057Y-76497142D01*
X265564819Y-76830476D02*
X265564819Y-77449523D01*
X265564819Y-77449523D02*
X265945771Y-77116190D01*
X265945771Y-77116190D02*
X265945771Y-77259047D01*
X265945771Y-77259047D02*
X265993390Y-77354285D01*
X265993390Y-77354285D02*
X266041009Y-77401904D01*
X266041009Y-77401904D02*
X266136247Y-77449523D01*
X266136247Y-77449523D02*
X266374342Y-77449523D01*
X266374342Y-77449523D02*
X266469580Y-77401904D01*
X266469580Y-77401904D02*
X266517200Y-77354285D01*
X266517200Y-77354285D02*
X266564819Y-77259047D01*
X266564819Y-77259047D02*
X266564819Y-76973333D01*
X266564819Y-76973333D02*
X266517200Y-76878095D01*
X266517200Y-76878095D02*
X266469580Y-76830476D01*
X265898152Y-78306666D02*
X266564819Y-78306666D01*
X265517200Y-78068571D02*
X266231485Y-77830476D01*
X266231485Y-77830476D02*
X266231485Y-78449523D01*
X270866785Y-77494820D02*
X270866785Y-76494820D01*
X270866785Y-76494820D02*
X270628690Y-76494820D01*
X270628690Y-76494820D02*
X270485833Y-76542439D01*
X270485833Y-76542439D02*
X270390595Y-76637677D01*
X270390595Y-76637677D02*
X270342976Y-76732915D01*
X270342976Y-76732915D02*
X270295357Y-76923391D01*
X270295357Y-76923391D02*
X270295357Y-77066248D01*
X270295357Y-77066248D02*
X270342976Y-77256724D01*
X270342976Y-77256724D02*
X270390595Y-77351962D01*
X270390595Y-77351962D02*
X270485833Y-77447201D01*
X270485833Y-77447201D02*
X270628690Y-77494820D01*
X270628690Y-77494820D02*
X270866785Y-77494820D01*
X269914404Y-76590058D02*
X269866785Y-76542439D01*
X269866785Y-76542439D02*
X269771547Y-76494820D01*
X269771547Y-76494820D02*
X269533452Y-76494820D01*
X269533452Y-76494820D02*
X269438214Y-76542439D01*
X269438214Y-76542439D02*
X269390595Y-76590058D01*
X269390595Y-76590058D02*
X269342976Y-76685296D01*
X269342976Y-76685296D02*
X269342976Y-76780534D01*
X269342976Y-76780534D02*
X269390595Y-76923391D01*
X269390595Y-76923391D02*
X269962023Y-77494820D01*
X269962023Y-77494820D02*
X269342976Y-77494820D01*
X268485833Y-76828153D02*
X268485833Y-77494820D01*
X268723928Y-76447201D02*
X268962023Y-77161486D01*
X268962023Y-77161486D02*
X268342976Y-77161486D01*
X255849580Y-125447142D02*
X255897200Y-125399523D01*
X255897200Y-125399523D02*
X255944819Y-125256666D01*
X255944819Y-125256666D02*
X255944819Y-125161428D01*
X255944819Y-125161428D02*
X255897200Y-125018571D01*
X255897200Y-125018571D02*
X255801961Y-124923333D01*
X255801961Y-124923333D02*
X255706723Y-124875714D01*
X255706723Y-124875714D02*
X255516247Y-124828095D01*
X255516247Y-124828095D02*
X255373390Y-124828095D01*
X255373390Y-124828095D02*
X255182914Y-124875714D01*
X255182914Y-124875714D02*
X255087676Y-124923333D01*
X255087676Y-124923333D02*
X254992438Y-125018571D01*
X254992438Y-125018571D02*
X254944819Y-125161428D01*
X254944819Y-125161428D02*
X254944819Y-125256666D01*
X254944819Y-125256666D02*
X254992438Y-125399523D01*
X254992438Y-125399523D02*
X255040057Y-125447142D01*
X255944819Y-126399523D02*
X255944819Y-125828095D01*
X255944819Y-126113809D02*
X254944819Y-126113809D01*
X254944819Y-126113809D02*
X255087676Y-126018571D01*
X255087676Y-126018571D02*
X255182914Y-125923333D01*
X255182914Y-125923333D02*
X255230533Y-125828095D01*
X254944819Y-127018571D02*
X254944819Y-127113809D01*
X254944819Y-127113809D02*
X254992438Y-127209047D01*
X254992438Y-127209047D02*
X255040057Y-127256666D01*
X255040057Y-127256666D02*
X255135295Y-127304285D01*
X255135295Y-127304285D02*
X255325771Y-127351904D01*
X255325771Y-127351904D02*
X255563866Y-127351904D01*
X255563866Y-127351904D02*
X255754342Y-127304285D01*
X255754342Y-127304285D02*
X255849580Y-127256666D01*
X255849580Y-127256666D02*
X255897200Y-127209047D01*
X255897200Y-127209047D02*
X255944819Y-127113809D01*
X255944819Y-127113809D02*
X255944819Y-127018571D01*
X255944819Y-127018571D02*
X255897200Y-126923333D01*
X255897200Y-126923333D02*
X255849580Y-126875714D01*
X255849580Y-126875714D02*
X255754342Y-126828095D01*
X255754342Y-126828095D02*
X255563866Y-126780476D01*
X255563866Y-126780476D02*
X255325771Y-126780476D01*
X255325771Y-126780476D02*
X255135295Y-126828095D01*
X255135295Y-126828095D02*
X255040057Y-126875714D01*
X255040057Y-126875714D02*
X254992438Y-126923333D01*
X254992438Y-126923333D02*
X254944819Y-127018571D01*
X278747857Y-64789580D02*
X278795476Y-64837200D01*
X278795476Y-64837200D02*
X278938333Y-64884819D01*
X278938333Y-64884819D02*
X279033571Y-64884819D01*
X279033571Y-64884819D02*
X279176428Y-64837200D01*
X279176428Y-64837200D02*
X279271666Y-64741961D01*
X279271666Y-64741961D02*
X279319285Y-64646723D01*
X279319285Y-64646723D02*
X279366904Y-64456247D01*
X279366904Y-64456247D02*
X279366904Y-64313390D01*
X279366904Y-64313390D02*
X279319285Y-64122914D01*
X279319285Y-64122914D02*
X279271666Y-64027676D01*
X279271666Y-64027676D02*
X279176428Y-63932438D01*
X279176428Y-63932438D02*
X279033571Y-63884819D01*
X279033571Y-63884819D02*
X278938333Y-63884819D01*
X278938333Y-63884819D02*
X278795476Y-63932438D01*
X278795476Y-63932438D02*
X278747857Y-63980057D01*
X277795476Y-64884819D02*
X278366904Y-64884819D01*
X278081190Y-64884819D02*
X278081190Y-63884819D01*
X278081190Y-63884819D02*
X278176428Y-64027676D01*
X278176428Y-64027676D02*
X278271666Y-64122914D01*
X278271666Y-64122914D02*
X278366904Y-64170533D01*
X277319285Y-64884819D02*
X277128809Y-64884819D01*
X277128809Y-64884819D02*
X277033571Y-64837200D01*
X277033571Y-64837200D02*
X276985952Y-64789580D01*
X276985952Y-64789580D02*
X276890714Y-64646723D01*
X276890714Y-64646723D02*
X276843095Y-64456247D01*
X276843095Y-64456247D02*
X276843095Y-64075295D01*
X276843095Y-64075295D02*
X276890714Y-63980057D01*
X276890714Y-63980057D02*
X276938333Y-63932438D01*
X276938333Y-63932438D02*
X277033571Y-63884819D01*
X277033571Y-63884819D02*
X277224047Y-63884819D01*
X277224047Y-63884819D02*
X277319285Y-63932438D01*
X277319285Y-63932438D02*
X277366904Y-63980057D01*
X277366904Y-63980057D02*
X277414523Y-64075295D01*
X277414523Y-64075295D02*
X277414523Y-64313390D01*
X277414523Y-64313390D02*
X277366904Y-64408628D01*
X277366904Y-64408628D02*
X277319285Y-64456247D01*
X277319285Y-64456247D02*
X277224047Y-64503866D01*
X277224047Y-64503866D02*
X277033571Y-64503866D01*
X277033571Y-64503866D02*
X276938333Y-64456247D01*
X276938333Y-64456247D02*
X276890714Y-64408628D01*
X276890714Y-64408628D02*
X276843095Y-64313390D01*
X278947857Y-59629580D02*
X278995476Y-59677200D01*
X278995476Y-59677200D02*
X279138333Y-59724819D01*
X279138333Y-59724819D02*
X279233571Y-59724819D01*
X279233571Y-59724819D02*
X279376428Y-59677200D01*
X279376428Y-59677200D02*
X279471666Y-59581961D01*
X279471666Y-59581961D02*
X279519285Y-59486723D01*
X279519285Y-59486723D02*
X279566904Y-59296247D01*
X279566904Y-59296247D02*
X279566904Y-59153390D01*
X279566904Y-59153390D02*
X279519285Y-58962914D01*
X279519285Y-58962914D02*
X279471666Y-58867676D01*
X279471666Y-58867676D02*
X279376428Y-58772438D01*
X279376428Y-58772438D02*
X279233571Y-58724819D01*
X279233571Y-58724819D02*
X279138333Y-58724819D01*
X279138333Y-58724819D02*
X278995476Y-58772438D01*
X278995476Y-58772438D02*
X278947857Y-58820057D01*
X278614523Y-58724819D02*
X277995476Y-58724819D01*
X277995476Y-58724819D02*
X278328809Y-59105771D01*
X278328809Y-59105771D02*
X278185952Y-59105771D01*
X278185952Y-59105771D02*
X278090714Y-59153390D01*
X278090714Y-59153390D02*
X278043095Y-59201009D01*
X278043095Y-59201009D02*
X277995476Y-59296247D01*
X277995476Y-59296247D02*
X277995476Y-59534342D01*
X277995476Y-59534342D02*
X278043095Y-59629580D01*
X278043095Y-59629580D02*
X278090714Y-59677200D01*
X278090714Y-59677200D02*
X278185952Y-59724819D01*
X278185952Y-59724819D02*
X278471666Y-59724819D01*
X278471666Y-59724819D02*
X278566904Y-59677200D01*
X278566904Y-59677200D02*
X278614523Y-59629580D01*
X277043095Y-59724819D02*
X277614523Y-59724819D01*
X277328809Y-59724819D02*
X277328809Y-58724819D01*
X277328809Y-58724819D02*
X277424047Y-58867676D01*
X277424047Y-58867676D02*
X277519285Y-58962914D01*
X277519285Y-58962914D02*
X277614523Y-59010533D01*
X249852857Y-53654819D02*
X250186190Y-53178628D01*
X250424285Y-53654819D02*
X250424285Y-52654819D01*
X250424285Y-52654819D02*
X250043333Y-52654819D01*
X250043333Y-52654819D02*
X249948095Y-52702438D01*
X249948095Y-52702438D02*
X249900476Y-52750057D01*
X249900476Y-52750057D02*
X249852857Y-52845295D01*
X249852857Y-52845295D02*
X249852857Y-52988152D01*
X249852857Y-52988152D02*
X249900476Y-53083390D01*
X249900476Y-53083390D02*
X249948095Y-53131009D01*
X249948095Y-53131009D02*
X250043333Y-53178628D01*
X250043333Y-53178628D02*
X250424285Y-53178628D01*
X249471904Y-52750057D02*
X249424285Y-52702438D01*
X249424285Y-52702438D02*
X249329047Y-52654819D01*
X249329047Y-52654819D02*
X249090952Y-52654819D01*
X249090952Y-52654819D02*
X248995714Y-52702438D01*
X248995714Y-52702438D02*
X248948095Y-52750057D01*
X248948095Y-52750057D02*
X248900476Y-52845295D01*
X248900476Y-52845295D02*
X248900476Y-52940533D01*
X248900476Y-52940533D02*
X248948095Y-53083390D01*
X248948095Y-53083390D02*
X249519523Y-53654819D01*
X249519523Y-53654819D02*
X248900476Y-53654819D01*
X248043333Y-52988152D02*
X248043333Y-53654819D01*
X248281428Y-52607200D02*
X248519523Y-53321485D01*
X248519523Y-53321485D02*
X247900476Y-53321485D01*
X275414819Y-69581905D02*
X274414819Y-69581905D01*
X274414819Y-69581905D02*
X274414819Y-69820000D01*
X274414819Y-69820000D02*
X274462438Y-69962857D01*
X274462438Y-69962857D02*
X274557676Y-70058095D01*
X274557676Y-70058095D02*
X274652914Y-70105714D01*
X274652914Y-70105714D02*
X274843390Y-70153333D01*
X274843390Y-70153333D02*
X274986247Y-70153333D01*
X274986247Y-70153333D02*
X275176723Y-70105714D01*
X275176723Y-70105714D02*
X275271961Y-70058095D01*
X275271961Y-70058095D02*
X275367200Y-69962857D01*
X275367200Y-69962857D02*
X275414819Y-69820000D01*
X275414819Y-69820000D02*
X275414819Y-69581905D01*
X274414819Y-71058095D02*
X274414819Y-70581905D01*
X274414819Y-70581905D02*
X274891009Y-70534286D01*
X274891009Y-70534286D02*
X274843390Y-70581905D01*
X274843390Y-70581905D02*
X274795771Y-70677143D01*
X274795771Y-70677143D02*
X274795771Y-70915238D01*
X274795771Y-70915238D02*
X274843390Y-71010476D01*
X274843390Y-71010476D02*
X274891009Y-71058095D01*
X274891009Y-71058095D02*
X274986247Y-71105714D01*
X274986247Y-71105714D02*
X275224342Y-71105714D01*
X275224342Y-71105714D02*
X275319580Y-71058095D01*
X275319580Y-71058095D02*
X275367200Y-71010476D01*
X275367200Y-71010476D02*
X275414819Y-70915238D01*
X275414819Y-70915238D02*
X275414819Y-70677143D01*
X275414819Y-70677143D02*
X275367200Y-70581905D01*
X275367200Y-70581905D02*
X275319580Y-70534286D01*
X249507857Y-59264819D02*
X249841190Y-58788628D01*
X250079285Y-59264819D02*
X250079285Y-58264819D01*
X250079285Y-58264819D02*
X249698333Y-58264819D01*
X249698333Y-58264819D02*
X249603095Y-58312438D01*
X249603095Y-58312438D02*
X249555476Y-58360057D01*
X249555476Y-58360057D02*
X249507857Y-58455295D01*
X249507857Y-58455295D02*
X249507857Y-58598152D01*
X249507857Y-58598152D02*
X249555476Y-58693390D01*
X249555476Y-58693390D02*
X249603095Y-58741009D01*
X249603095Y-58741009D02*
X249698333Y-58788628D01*
X249698333Y-58788628D02*
X250079285Y-58788628D01*
X249126904Y-58360057D02*
X249079285Y-58312438D01*
X249079285Y-58312438D02*
X248984047Y-58264819D01*
X248984047Y-58264819D02*
X248745952Y-58264819D01*
X248745952Y-58264819D02*
X248650714Y-58312438D01*
X248650714Y-58312438D02*
X248603095Y-58360057D01*
X248603095Y-58360057D02*
X248555476Y-58455295D01*
X248555476Y-58455295D02*
X248555476Y-58550533D01*
X248555476Y-58550533D02*
X248603095Y-58693390D01*
X248603095Y-58693390D02*
X249174523Y-59264819D01*
X249174523Y-59264819D02*
X248555476Y-59264819D01*
X247650714Y-58264819D02*
X248126904Y-58264819D01*
X248126904Y-58264819D02*
X248174523Y-58741009D01*
X248174523Y-58741009D02*
X248126904Y-58693390D01*
X248126904Y-58693390D02*
X248031666Y-58645771D01*
X248031666Y-58645771D02*
X247793571Y-58645771D01*
X247793571Y-58645771D02*
X247698333Y-58693390D01*
X247698333Y-58693390D02*
X247650714Y-58741009D01*
X247650714Y-58741009D02*
X247603095Y-58836247D01*
X247603095Y-58836247D02*
X247603095Y-59074342D01*
X247603095Y-59074342D02*
X247650714Y-59169580D01*
X247650714Y-59169580D02*
X247698333Y-59217200D01*
X247698333Y-59217200D02*
X247793571Y-59264819D01*
X247793571Y-59264819D02*
X248031666Y-59264819D01*
X248031666Y-59264819D02*
X248126904Y-59217200D01*
X248126904Y-59217200D02*
X248174523Y-59169580D01*
X267336174Y-54517036D02*
X267235159Y-53944617D01*
X267740235Y-54112975D02*
X267033128Y-53405869D01*
X267033128Y-53405869D02*
X266763754Y-53675243D01*
X266763754Y-53675243D02*
X266730082Y-53776258D01*
X266730082Y-53776258D02*
X266730082Y-53843601D01*
X266730082Y-53843601D02*
X266763754Y-53944617D01*
X266763754Y-53944617D02*
X266864769Y-54045632D01*
X266864769Y-54045632D02*
X266965785Y-54079304D01*
X266965785Y-54079304D02*
X267033128Y-54079304D01*
X267033128Y-54079304D02*
X267134143Y-54045632D01*
X267134143Y-54045632D02*
X267403517Y-53776258D01*
X266427037Y-54146647D02*
X266359693Y-54146647D01*
X266359693Y-54146647D02*
X266258678Y-54180319D01*
X266258678Y-54180319D02*
X266090319Y-54348678D01*
X266090319Y-54348678D02*
X266056647Y-54449693D01*
X266056647Y-54449693D02*
X266056647Y-54517036D01*
X266056647Y-54517036D02*
X266090319Y-54618052D01*
X266090319Y-54618052D02*
X266157663Y-54685395D01*
X266157663Y-54685395D02*
X266292350Y-54752739D01*
X266292350Y-54752739D02*
X267100472Y-54752739D01*
X267100472Y-54752739D02*
X266662739Y-55190471D01*
X265753601Y-54820082D02*
X265686258Y-54820082D01*
X265686258Y-54820082D02*
X265585243Y-54853754D01*
X265585243Y-54853754D02*
X265416884Y-55022113D01*
X265416884Y-55022113D02*
X265383212Y-55123128D01*
X265383212Y-55123128D02*
X265383212Y-55190472D01*
X265383212Y-55190472D02*
X265416884Y-55291487D01*
X265416884Y-55291487D02*
X265484227Y-55358830D01*
X265484227Y-55358830D02*
X265618914Y-55426174D01*
X265618914Y-55426174D02*
X266427036Y-55426174D01*
X266427036Y-55426174D02*
X265989304Y-55863907D01*
X265339580Y-57187142D02*
X265387200Y-57139523D01*
X265387200Y-57139523D02*
X265434819Y-56996666D01*
X265434819Y-56996666D02*
X265434819Y-56901428D01*
X265434819Y-56901428D02*
X265387200Y-56758571D01*
X265387200Y-56758571D02*
X265291961Y-56663333D01*
X265291961Y-56663333D02*
X265196723Y-56615714D01*
X265196723Y-56615714D02*
X265006247Y-56568095D01*
X265006247Y-56568095D02*
X264863390Y-56568095D01*
X264863390Y-56568095D02*
X264672914Y-56615714D01*
X264672914Y-56615714D02*
X264577676Y-56663333D01*
X264577676Y-56663333D02*
X264482438Y-56758571D01*
X264482438Y-56758571D02*
X264434819Y-56901428D01*
X264434819Y-56901428D02*
X264434819Y-56996666D01*
X264434819Y-56996666D02*
X264482438Y-57139523D01*
X264482438Y-57139523D02*
X264530057Y-57187142D01*
X264434819Y-57520476D02*
X264434819Y-58139523D01*
X264434819Y-58139523D02*
X264815771Y-57806190D01*
X264815771Y-57806190D02*
X264815771Y-57949047D01*
X264815771Y-57949047D02*
X264863390Y-58044285D01*
X264863390Y-58044285D02*
X264911009Y-58091904D01*
X264911009Y-58091904D02*
X265006247Y-58139523D01*
X265006247Y-58139523D02*
X265244342Y-58139523D01*
X265244342Y-58139523D02*
X265339580Y-58091904D01*
X265339580Y-58091904D02*
X265387200Y-58044285D01*
X265387200Y-58044285D02*
X265434819Y-57949047D01*
X265434819Y-57949047D02*
X265434819Y-57663333D01*
X265434819Y-57663333D02*
X265387200Y-57568095D01*
X265387200Y-57568095D02*
X265339580Y-57520476D01*
X264530057Y-58520476D02*
X264482438Y-58568095D01*
X264482438Y-58568095D02*
X264434819Y-58663333D01*
X264434819Y-58663333D02*
X264434819Y-58901428D01*
X264434819Y-58901428D02*
X264482438Y-58996666D01*
X264482438Y-58996666D02*
X264530057Y-59044285D01*
X264530057Y-59044285D02*
X264625295Y-59091904D01*
X264625295Y-59091904D02*
X264720533Y-59091904D01*
X264720533Y-59091904D02*
X264863390Y-59044285D01*
X264863390Y-59044285D02*
X265434819Y-58472857D01*
X265434819Y-58472857D02*
X265434819Y-59091904D01*
X253915559Y-103793943D02*
X254622665Y-103086836D01*
X254622665Y-103086836D02*
X254454307Y-102918477D01*
X254454307Y-102918477D02*
X254319620Y-102851134D01*
X254319620Y-102851134D02*
X254184933Y-102851134D01*
X254184933Y-102851134D02*
X254083917Y-102884806D01*
X254083917Y-102884806D02*
X253915559Y-102985821D01*
X253915559Y-102985821D02*
X253814543Y-103086836D01*
X253814543Y-103086836D02*
X253713528Y-103255195D01*
X253713528Y-103255195D02*
X253679856Y-103356210D01*
X253679856Y-103356210D02*
X253679856Y-103490897D01*
X253679856Y-103490897D02*
X253747200Y-103625584D01*
X253747200Y-103625584D02*
X253915559Y-103793943D01*
X253881887Y-102480745D02*
X253881887Y-102413401D01*
X253881887Y-102413401D02*
X253848215Y-102312386D01*
X253848215Y-102312386D02*
X253679856Y-102144027D01*
X253679856Y-102144027D02*
X253578841Y-102110355D01*
X253578841Y-102110355D02*
X253511498Y-102110355D01*
X253511498Y-102110355D02*
X253410482Y-102144027D01*
X253410482Y-102144027D02*
X253343139Y-102211371D01*
X253343139Y-102211371D02*
X253275795Y-102346058D01*
X253275795Y-102346058D02*
X253275795Y-103154180D01*
X253275795Y-103154180D02*
X252838063Y-102716447D01*
X252891398Y-62382504D02*
X252891398Y-61582047D01*
X252052824Y-62306270D02*
X252090941Y-62344387D01*
X252090941Y-62344387D02*
X252205292Y-62382504D01*
X252205292Y-62382504D02*
X252281526Y-62382504D01*
X252281526Y-62382504D02*
X252395877Y-62344387D01*
X252395877Y-62344387D02*
X252472111Y-62268153D01*
X252472111Y-62268153D02*
X252510228Y-62191919D01*
X252510228Y-62191919D02*
X252548345Y-62039451D01*
X252548345Y-62039451D02*
X252548345Y-61925100D01*
X252548345Y-61925100D02*
X252510228Y-61772632D01*
X252510228Y-61772632D02*
X252472111Y-61696398D01*
X252472111Y-61696398D02*
X252395877Y-61620164D01*
X252395877Y-61620164D02*
X252281526Y-61582047D01*
X252281526Y-61582047D02*
X252205292Y-61582047D01*
X252205292Y-61582047D02*
X252090941Y-61620164D01*
X252090941Y-61620164D02*
X252052824Y-61658281D01*
X251786005Y-61582047D02*
X251252367Y-61582047D01*
X251252367Y-61582047D02*
X251595420Y-62382504D01*
X240608830Y-72719693D02*
X240676174Y-72719693D01*
X240676174Y-72719693D02*
X240810861Y-72652349D01*
X240810861Y-72652349D02*
X240878204Y-72585006D01*
X240878204Y-72585006D02*
X240945548Y-72450319D01*
X240945548Y-72450319D02*
X240945548Y-72315632D01*
X240945548Y-72315632D02*
X240911876Y-72214617D01*
X240911876Y-72214617D02*
X240810861Y-72046258D01*
X240810861Y-72046258D02*
X240709846Y-71945243D01*
X240709846Y-71945243D02*
X240541487Y-71844227D01*
X240541487Y-71844227D02*
X240440472Y-71810556D01*
X240440472Y-71810556D02*
X240305785Y-71810556D01*
X240305785Y-71810556D02*
X240171098Y-71877899D01*
X240171098Y-71877899D02*
X240103754Y-71945243D01*
X240103754Y-71945243D02*
X240036411Y-72079930D01*
X240036411Y-72079930D02*
X240036411Y-72147273D01*
X239767037Y-72416647D02*
X239699693Y-72416647D01*
X239699693Y-72416647D02*
X239598678Y-72450319D01*
X239598678Y-72450319D02*
X239430319Y-72618678D01*
X239430319Y-72618678D02*
X239396647Y-72719693D01*
X239396647Y-72719693D02*
X239396647Y-72787036D01*
X239396647Y-72787036D02*
X239430319Y-72888052D01*
X239430319Y-72888052D02*
X239497663Y-72955395D01*
X239497663Y-72955395D02*
X239632350Y-73022739D01*
X239632350Y-73022739D02*
X240440472Y-73022739D01*
X240440472Y-73022739D02*
X240002739Y-73460471D01*
X239059930Y-72989067D02*
X238622197Y-73426800D01*
X238622197Y-73426800D02*
X239127273Y-73460472D01*
X239127273Y-73460472D02*
X239026258Y-73561487D01*
X239026258Y-73561487D02*
X238992586Y-73662502D01*
X238992586Y-73662502D02*
X238992586Y-73729846D01*
X238992586Y-73729846D02*
X239026258Y-73830861D01*
X239026258Y-73830861D02*
X239194617Y-73999220D01*
X239194617Y-73999220D02*
X239295632Y-74032891D01*
X239295632Y-74032891D02*
X239362975Y-74032891D01*
X239362975Y-74032891D02*
X239463991Y-73999220D01*
X239463991Y-73999220D02*
X239666021Y-73797189D01*
X239666021Y-73797189D02*
X239699693Y-73696174D01*
X239699693Y-73696174D02*
X239699693Y-73628830D01*
X265001666Y-85714819D02*
X265334999Y-85238628D01*
X265573094Y-85714819D02*
X265573094Y-84714819D01*
X265573094Y-84714819D02*
X265192142Y-84714819D01*
X265192142Y-84714819D02*
X265096904Y-84762438D01*
X265096904Y-84762438D02*
X265049285Y-84810057D01*
X265049285Y-84810057D02*
X265001666Y-84905295D01*
X265001666Y-84905295D02*
X265001666Y-85048152D01*
X265001666Y-85048152D02*
X265049285Y-85143390D01*
X265049285Y-85143390D02*
X265096904Y-85191009D01*
X265096904Y-85191009D02*
X265192142Y-85238628D01*
X265192142Y-85238628D02*
X265573094Y-85238628D01*
X264049285Y-85714819D02*
X264620713Y-85714819D01*
X264334999Y-85714819D02*
X264334999Y-84714819D01*
X264334999Y-84714819D02*
X264430237Y-84857676D01*
X264430237Y-84857676D02*
X264525475Y-84952914D01*
X264525475Y-84952914D02*
X264620713Y-85000533D01*
X276444285Y-61924819D02*
X276444285Y-60924819D01*
X276444285Y-60924819D02*
X276206190Y-60924819D01*
X276206190Y-60924819D02*
X276063333Y-60972438D01*
X276063333Y-60972438D02*
X275968095Y-61067676D01*
X275968095Y-61067676D02*
X275920476Y-61162914D01*
X275920476Y-61162914D02*
X275872857Y-61353390D01*
X275872857Y-61353390D02*
X275872857Y-61496247D01*
X275872857Y-61496247D02*
X275920476Y-61686723D01*
X275920476Y-61686723D02*
X275968095Y-61781961D01*
X275968095Y-61781961D02*
X276063333Y-61877200D01*
X276063333Y-61877200D02*
X276206190Y-61924819D01*
X276206190Y-61924819D02*
X276444285Y-61924819D01*
X274920476Y-61924819D02*
X275491904Y-61924819D01*
X275206190Y-61924819D02*
X275206190Y-60924819D01*
X275206190Y-60924819D02*
X275301428Y-61067676D01*
X275301428Y-61067676D02*
X275396666Y-61162914D01*
X275396666Y-61162914D02*
X275491904Y-61210533D01*
X273968095Y-61924819D02*
X274539523Y-61924819D01*
X274253809Y-61924819D02*
X274253809Y-60924819D01*
X274253809Y-60924819D02*
X274349047Y-61067676D01*
X274349047Y-61067676D02*
X274444285Y-61162914D01*
X274444285Y-61162914D02*
X274539523Y-61210533D01*
X240779580Y-63647142D02*
X240827200Y-63599523D01*
X240827200Y-63599523D02*
X240874819Y-63456666D01*
X240874819Y-63456666D02*
X240874819Y-63361428D01*
X240874819Y-63361428D02*
X240827200Y-63218571D01*
X240827200Y-63218571D02*
X240731961Y-63123333D01*
X240731961Y-63123333D02*
X240636723Y-63075714D01*
X240636723Y-63075714D02*
X240446247Y-63028095D01*
X240446247Y-63028095D02*
X240303390Y-63028095D01*
X240303390Y-63028095D02*
X240112914Y-63075714D01*
X240112914Y-63075714D02*
X240017676Y-63123333D01*
X240017676Y-63123333D02*
X239922438Y-63218571D01*
X239922438Y-63218571D02*
X239874819Y-63361428D01*
X239874819Y-63361428D02*
X239874819Y-63456666D01*
X239874819Y-63456666D02*
X239922438Y-63599523D01*
X239922438Y-63599523D02*
X239970057Y-63647142D01*
X240874819Y-64599523D02*
X240874819Y-64028095D01*
X240874819Y-64313809D02*
X239874819Y-64313809D01*
X239874819Y-64313809D02*
X240017676Y-64218571D01*
X240017676Y-64218571D02*
X240112914Y-64123333D01*
X240112914Y-64123333D02*
X240160533Y-64028095D01*
X240208152Y-65456666D02*
X240874819Y-65456666D01*
X239827200Y-65218571D02*
X240541485Y-64980476D01*
X240541485Y-64980476D02*
X240541485Y-65599523D01*
X249817857Y-63794819D02*
X250151190Y-63318628D01*
X250389285Y-63794819D02*
X250389285Y-62794819D01*
X250389285Y-62794819D02*
X250008333Y-62794819D01*
X250008333Y-62794819D02*
X249913095Y-62842438D01*
X249913095Y-62842438D02*
X249865476Y-62890057D01*
X249865476Y-62890057D02*
X249817857Y-62985295D01*
X249817857Y-62985295D02*
X249817857Y-63128152D01*
X249817857Y-63128152D02*
X249865476Y-63223390D01*
X249865476Y-63223390D02*
X249913095Y-63271009D01*
X249913095Y-63271009D02*
X250008333Y-63318628D01*
X250008333Y-63318628D02*
X250389285Y-63318628D01*
X248865476Y-63794819D02*
X249436904Y-63794819D01*
X249151190Y-63794819D02*
X249151190Y-62794819D01*
X249151190Y-62794819D02*
X249246428Y-62937676D01*
X249246428Y-62937676D02*
X249341666Y-63032914D01*
X249341666Y-63032914D02*
X249436904Y-63080533D01*
X248484523Y-62890057D02*
X248436904Y-62842438D01*
X248436904Y-62842438D02*
X248341666Y-62794819D01*
X248341666Y-62794819D02*
X248103571Y-62794819D01*
X248103571Y-62794819D02*
X248008333Y-62842438D01*
X248008333Y-62842438D02*
X247960714Y-62890057D01*
X247960714Y-62890057D02*
X247913095Y-62985295D01*
X247913095Y-62985295D02*
X247913095Y-63080533D01*
X247913095Y-63080533D02*
X247960714Y-63223390D01*
X247960714Y-63223390D02*
X248532142Y-63794819D01*
X248532142Y-63794819D02*
X247913095Y-63794819D01*
X272491408Y-63337815D02*
X271491408Y-63337815D01*
X271491408Y-63337815D02*
X271491408Y-63575910D01*
X271491408Y-63575910D02*
X271539027Y-63718767D01*
X271539027Y-63718767D02*
X271634265Y-63814005D01*
X271634265Y-63814005D02*
X271729503Y-63861624D01*
X271729503Y-63861624D02*
X271919979Y-63909243D01*
X271919979Y-63909243D02*
X272062836Y-63909243D01*
X272062836Y-63909243D02*
X272253312Y-63861624D01*
X272253312Y-63861624D02*
X272348550Y-63814005D01*
X272348550Y-63814005D02*
X272443789Y-63718767D01*
X272443789Y-63718767D02*
X272491408Y-63575910D01*
X272491408Y-63575910D02*
X272491408Y-63337815D01*
X271491408Y-64242577D02*
X271491408Y-64909243D01*
X271491408Y-64909243D02*
X272491408Y-64480672D01*
X253912569Y-74962507D02*
X253912569Y-74162050D01*
X253073995Y-74886273D02*
X253112112Y-74924390D01*
X253112112Y-74924390D02*
X253226463Y-74962507D01*
X253226463Y-74962507D02*
X253302697Y-74962507D01*
X253302697Y-74962507D02*
X253417048Y-74924390D01*
X253417048Y-74924390D02*
X253493282Y-74848156D01*
X253493282Y-74848156D02*
X253531399Y-74771922D01*
X253531399Y-74771922D02*
X253569516Y-74619454D01*
X253569516Y-74619454D02*
X253569516Y-74505103D01*
X253569516Y-74505103D02*
X253531399Y-74352635D01*
X253531399Y-74352635D02*
X253493282Y-74276401D01*
X253493282Y-74276401D02*
X253417048Y-74200167D01*
X253417048Y-74200167D02*
X253302697Y-74162050D01*
X253302697Y-74162050D02*
X253226463Y-74162050D01*
X253226463Y-74162050D02*
X253112112Y-74200167D01*
X253112112Y-74200167D02*
X253073995Y-74238284D01*
X252311655Y-74962507D02*
X252769059Y-74962507D01*
X252540357Y-74962507D02*
X252540357Y-74162050D01*
X252540357Y-74162050D02*
X252616591Y-74276401D01*
X252616591Y-74276401D02*
X252692825Y-74352635D01*
X252692825Y-74352635D02*
X252769059Y-74390752D01*
X251816134Y-74162050D02*
X251739900Y-74162050D01*
X251739900Y-74162050D02*
X251663666Y-74200167D01*
X251663666Y-74200167D02*
X251625549Y-74238284D01*
X251625549Y-74238284D02*
X251587432Y-74314518D01*
X251587432Y-74314518D02*
X251549315Y-74466986D01*
X251549315Y-74466986D02*
X251549315Y-74657571D01*
X251549315Y-74657571D02*
X251587432Y-74810039D01*
X251587432Y-74810039D02*
X251625549Y-74886273D01*
X251625549Y-74886273D02*
X251663666Y-74924390D01*
X251663666Y-74924390D02*
X251739900Y-74962507D01*
X251739900Y-74962507D02*
X251816134Y-74962507D01*
X251816134Y-74962507D02*
X251892368Y-74924390D01*
X251892368Y-74924390D02*
X251930485Y-74886273D01*
X251930485Y-74886273D02*
X251968602Y-74810039D01*
X251968602Y-74810039D02*
X252006719Y-74657571D01*
X252006719Y-74657571D02*
X252006719Y-74466986D01*
X252006719Y-74466986D02*
X251968602Y-74314518D01*
X251968602Y-74314518D02*
X251930485Y-74238284D01*
X251930485Y-74238284D02*
X251892368Y-74200167D01*
X251892368Y-74200167D02*
X251816134Y-74162050D01*
X256499819Y-60617142D02*
X256023628Y-60283809D01*
X256499819Y-60045714D02*
X255499819Y-60045714D01*
X255499819Y-60045714D02*
X255499819Y-60426666D01*
X255499819Y-60426666D02*
X255547438Y-60521904D01*
X255547438Y-60521904D02*
X255595057Y-60569523D01*
X255595057Y-60569523D02*
X255690295Y-60617142D01*
X255690295Y-60617142D02*
X255833152Y-60617142D01*
X255833152Y-60617142D02*
X255928390Y-60569523D01*
X255928390Y-60569523D02*
X255976009Y-60521904D01*
X255976009Y-60521904D02*
X256023628Y-60426666D01*
X256023628Y-60426666D02*
X256023628Y-60045714D01*
X255499819Y-60950476D02*
X255499819Y-61569523D01*
X255499819Y-61569523D02*
X255880771Y-61236190D01*
X255880771Y-61236190D02*
X255880771Y-61379047D01*
X255880771Y-61379047D02*
X255928390Y-61474285D01*
X255928390Y-61474285D02*
X255976009Y-61521904D01*
X255976009Y-61521904D02*
X256071247Y-61569523D01*
X256071247Y-61569523D02*
X256309342Y-61569523D01*
X256309342Y-61569523D02*
X256404580Y-61521904D01*
X256404580Y-61521904D02*
X256452200Y-61474285D01*
X256452200Y-61474285D02*
X256499819Y-61379047D01*
X256499819Y-61379047D02*
X256499819Y-61093333D01*
X256499819Y-61093333D02*
X256452200Y-60998095D01*
X256452200Y-60998095D02*
X256404580Y-60950476D01*
X255499819Y-62188571D02*
X255499819Y-62283809D01*
X255499819Y-62283809D02*
X255547438Y-62379047D01*
X255547438Y-62379047D02*
X255595057Y-62426666D01*
X255595057Y-62426666D02*
X255690295Y-62474285D01*
X255690295Y-62474285D02*
X255880771Y-62521904D01*
X255880771Y-62521904D02*
X256118866Y-62521904D01*
X256118866Y-62521904D02*
X256309342Y-62474285D01*
X256309342Y-62474285D02*
X256404580Y-62426666D01*
X256404580Y-62426666D02*
X256452200Y-62379047D01*
X256452200Y-62379047D02*
X256499819Y-62283809D01*
X256499819Y-62283809D02*
X256499819Y-62188571D01*
X256499819Y-62188571D02*
X256452200Y-62093333D01*
X256452200Y-62093333D02*
X256404580Y-62045714D01*
X256404580Y-62045714D02*
X256309342Y-61998095D01*
X256309342Y-61998095D02*
X256118866Y-61950476D01*
X256118866Y-61950476D02*
X255880771Y-61950476D01*
X255880771Y-61950476D02*
X255690295Y-61998095D01*
X255690295Y-61998095D02*
X255595057Y-62045714D01*
X255595057Y-62045714D02*
X255547438Y-62093333D01*
X255547438Y-62093333D02*
X255499819Y-62188571D01*
X211605626Y-120955323D02*
X211672970Y-120955323D01*
X211672970Y-120955323D02*
X211807657Y-120887979D01*
X211807657Y-120887979D02*
X211875000Y-120820636D01*
X211875000Y-120820636D02*
X211942344Y-120685949D01*
X211942344Y-120685949D02*
X211942344Y-120551262D01*
X211942344Y-120551262D02*
X211908672Y-120450247D01*
X211908672Y-120450247D02*
X211807657Y-120281888D01*
X211807657Y-120281888D02*
X211706642Y-120180873D01*
X211706642Y-120180873D02*
X211538283Y-120079857D01*
X211538283Y-120079857D02*
X211437268Y-120046186D01*
X211437268Y-120046186D02*
X211302581Y-120046186D01*
X211302581Y-120046186D02*
X211167894Y-120113529D01*
X211167894Y-120113529D02*
X211100550Y-120180873D01*
X211100550Y-120180873D02*
X211033207Y-120315560D01*
X211033207Y-120315560D02*
X211033207Y-120382903D01*
X210763833Y-120652277D02*
X210696489Y-120652277D01*
X210696489Y-120652277D02*
X210595474Y-120685949D01*
X210595474Y-120685949D02*
X210427115Y-120854308D01*
X210427115Y-120854308D02*
X210393443Y-120955323D01*
X210393443Y-120955323D02*
X210393443Y-121022666D01*
X210393443Y-121022666D02*
X210427115Y-121123682D01*
X210427115Y-121123682D02*
X210494459Y-121191025D01*
X210494459Y-121191025D02*
X210629146Y-121258369D01*
X210629146Y-121258369D02*
X211437268Y-121258369D01*
X211437268Y-121258369D02*
X210999535Y-121696101D01*
X258194819Y-70217142D02*
X257718628Y-69883809D01*
X258194819Y-69645714D02*
X257194819Y-69645714D01*
X257194819Y-69645714D02*
X257194819Y-70026666D01*
X257194819Y-70026666D02*
X257242438Y-70121904D01*
X257242438Y-70121904D02*
X257290057Y-70169523D01*
X257290057Y-70169523D02*
X257385295Y-70217142D01*
X257385295Y-70217142D02*
X257528152Y-70217142D01*
X257528152Y-70217142D02*
X257623390Y-70169523D01*
X257623390Y-70169523D02*
X257671009Y-70121904D01*
X257671009Y-70121904D02*
X257718628Y-70026666D01*
X257718628Y-70026666D02*
X257718628Y-69645714D01*
X258194819Y-71169523D02*
X258194819Y-70598095D01*
X258194819Y-70883809D02*
X257194819Y-70883809D01*
X257194819Y-70883809D02*
X257337676Y-70788571D01*
X257337676Y-70788571D02*
X257432914Y-70693333D01*
X257432914Y-70693333D02*
X257480533Y-70598095D01*
X257194819Y-71502857D02*
X257194819Y-72169523D01*
X257194819Y-72169523D02*
X258194819Y-71740952D01*
X230674819Y-93197142D02*
X230198628Y-92863809D01*
X230674819Y-92625714D02*
X229674819Y-92625714D01*
X229674819Y-92625714D02*
X229674819Y-93006666D01*
X229674819Y-93006666D02*
X229722438Y-93101904D01*
X229722438Y-93101904D02*
X229770057Y-93149523D01*
X229770057Y-93149523D02*
X229865295Y-93197142D01*
X229865295Y-93197142D02*
X230008152Y-93197142D01*
X230008152Y-93197142D02*
X230103390Y-93149523D01*
X230103390Y-93149523D02*
X230151009Y-93101904D01*
X230151009Y-93101904D02*
X230198628Y-93006666D01*
X230198628Y-93006666D02*
X230198628Y-92625714D01*
X230674819Y-94149523D02*
X230674819Y-93578095D01*
X230674819Y-93863809D02*
X229674819Y-93863809D01*
X229674819Y-93863809D02*
X229817676Y-93768571D01*
X229817676Y-93768571D02*
X229912914Y-93673333D01*
X229912914Y-93673333D02*
X229960533Y-93578095D01*
X229674819Y-95006666D02*
X229674819Y-94816190D01*
X229674819Y-94816190D02*
X229722438Y-94720952D01*
X229722438Y-94720952D02*
X229770057Y-94673333D01*
X229770057Y-94673333D02*
X229912914Y-94578095D01*
X229912914Y-94578095D02*
X230103390Y-94530476D01*
X230103390Y-94530476D02*
X230484342Y-94530476D01*
X230484342Y-94530476D02*
X230579580Y-94578095D01*
X230579580Y-94578095D02*
X230627200Y-94625714D01*
X230627200Y-94625714D02*
X230674819Y-94720952D01*
X230674819Y-94720952D02*
X230674819Y-94911428D01*
X230674819Y-94911428D02*
X230627200Y-95006666D01*
X230627200Y-95006666D02*
X230579580Y-95054285D01*
X230579580Y-95054285D02*
X230484342Y-95101904D01*
X230484342Y-95101904D02*
X230246247Y-95101904D01*
X230246247Y-95101904D02*
X230151009Y-95054285D01*
X230151009Y-95054285D02*
X230103390Y-95006666D01*
X230103390Y-95006666D02*
X230055771Y-94911428D01*
X230055771Y-94911428D02*
X230055771Y-94720952D01*
X230055771Y-94720952D02*
X230103390Y-94625714D01*
X230103390Y-94625714D02*
X230151009Y-94578095D01*
X230151009Y-94578095D02*
X230246247Y-94530476D01*
X240210306Y-56888830D02*
X240210306Y-56956174D01*
X240210306Y-56956174D02*
X240277650Y-57090861D01*
X240277650Y-57090861D02*
X240344993Y-57158204D01*
X240344993Y-57158204D02*
X240479680Y-57225548D01*
X240479680Y-57225548D02*
X240614367Y-57225548D01*
X240614367Y-57225548D02*
X240715382Y-57191876D01*
X240715382Y-57191876D02*
X240883741Y-57090861D01*
X240883741Y-57090861D02*
X240984756Y-56989846D01*
X240984756Y-56989846D02*
X241085772Y-56821487D01*
X241085772Y-56821487D02*
X241119443Y-56720472D01*
X241119443Y-56720472D02*
X241119443Y-56585785D01*
X241119443Y-56585785D02*
X241052100Y-56451098D01*
X241052100Y-56451098D02*
X240984756Y-56383754D01*
X240984756Y-56383754D02*
X240850069Y-56316411D01*
X240850069Y-56316411D02*
X240782726Y-56316411D01*
X240513352Y-56047037D02*
X240513352Y-55979693D01*
X240513352Y-55979693D02*
X240479680Y-55878678D01*
X240479680Y-55878678D02*
X240311321Y-55710319D01*
X240311321Y-55710319D02*
X240210306Y-55676647D01*
X240210306Y-55676647D02*
X240142963Y-55676647D01*
X240142963Y-55676647D02*
X240041947Y-55710319D01*
X240041947Y-55710319D02*
X239974604Y-55777663D01*
X239974604Y-55777663D02*
X239907260Y-55912350D01*
X239907260Y-55912350D02*
X239907260Y-56720472D01*
X239907260Y-56720472D02*
X239469528Y-56282739D01*
X238796092Y-55609304D02*
X239200153Y-56013365D01*
X238998123Y-55811334D02*
X239705230Y-55104227D01*
X239705230Y-55104227D02*
X239671558Y-55272586D01*
X239671558Y-55272586D02*
X239671558Y-55407273D01*
X239671558Y-55407273D02*
X239705230Y-55508288D01*
X235357857Y-96579580D02*
X235405476Y-96627200D01*
X235405476Y-96627200D02*
X235548333Y-96674819D01*
X235548333Y-96674819D02*
X235643571Y-96674819D01*
X235643571Y-96674819D02*
X235786428Y-96627200D01*
X235786428Y-96627200D02*
X235881666Y-96531961D01*
X235881666Y-96531961D02*
X235929285Y-96436723D01*
X235929285Y-96436723D02*
X235976904Y-96246247D01*
X235976904Y-96246247D02*
X235976904Y-96103390D01*
X235976904Y-96103390D02*
X235929285Y-95912914D01*
X235929285Y-95912914D02*
X235881666Y-95817676D01*
X235881666Y-95817676D02*
X235786428Y-95722438D01*
X235786428Y-95722438D02*
X235643571Y-95674819D01*
X235643571Y-95674819D02*
X235548333Y-95674819D01*
X235548333Y-95674819D02*
X235405476Y-95722438D01*
X235405476Y-95722438D02*
X235357857Y-95770057D01*
X234405476Y-96674819D02*
X234976904Y-96674819D01*
X234691190Y-96674819D02*
X234691190Y-95674819D01*
X234691190Y-95674819D02*
X234786428Y-95817676D01*
X234786428Y-95817676D02*
X234881666Y-95912914D01*
X234881666Y-95912914D02*
X234976904Y-95960533D01*
X233548333Y-95674819D02*
X233738809Y-95674819D01*
X233738809Y-95674819D02*
X233834047Y-95722438D01*
X233834047Y-95722438D02*
X233881666Y-95770057D01*
X233881666Y-95770057D02*
X233976904Y-95912914D01*
X233976904Y-95912914D02*
X234024523Y-96103390D01*
X234024523Y-96103390D02*
X234024523Y-96484342D01*
X234024523Y-96484342D02*
X233976904Y-96579580D01*
X233976904Y-96579580D02*
X233929285Y-96627200D01*
X233929285Y-96627200D02*
X233834047Y-96674819D01*
X233834047Y-96674819D02*
X233643571Y-96674819D01*
X233643571Y-96674819D02*
X233548333Y-96627200D01*
X233548333Y-96627200D02*
X233500714Y-96579580D01*
X233500714Y-96579580D02*
X233453095Y-96484342D01*
X233453095Y-96484342D02*
X233453095Y-96246247D01*
X233453095Y-96246247D02*
X233500714Y-96151009D01*
X233500714Y-96151009D02*
X233548333Y-96103390D01*
X233548333Y-96103390D02*
X233643571Y-96055771D01*
X233643571Y-96055771D02*
X233834047Y-96055771D01*
X233834047Y-96055771D02*
X233929285Y-96103390D01*
X233929285Y-96103390D02*
X233976904Y-96151009D01*
X233976904Y-96151009D02*
X234024523Y-96246247D01*
X252691399Y-52192504D02*
X252691399Y-51392047D01*
X251852825Y-52116270D02*
X251890942Y-52154387D01*
X251890942Y-52154387D02*
X252005293Y-52192504D01*
X252005293Y-52192504D02*
X252081527Y-52192504D01*
X252081527Y-52192504D02*
X252195878Y-52154387D01*
X252195878Y-52154387D02*
X252272112Y-52078153D01*
X252272112Y-52078153D02*
X252310229Y-52001919D01*
X252310229Y-52001919D02*
X252348346Y-51849451D01*
X252348346Y-51849451D02*
X252348346Y-51735100D01*
X252348346Y-51735100D02*
X252310229Y-51582632D01*
X252310229Y-51582632D02*
X252272112Y-51506398D01*
X252272112Y-51506398D02*
X252195878Y-51430164D01*
X252195878Y-51430164D02*
X252081527Y-51392047D01*
X252081527Y-51392047D02*
X252005293Y-51392047D01*
X252005293Y-51392047D02*
X251890942Y-51430164D01*
X251890942Y-51430164D02*
X251852825Y-51468281D01*
X251395421Y-51735100D02*
X251471655Y-51696983D01*
X251471655Y-51696983D02*
X251509772Y-51658866D01*
X251509772Y-51658866D02*
X251547889Y-51582632D01*
X251547889Y-51582632D02*
X251547889Y-51544515D01*
X251547889Y-51544515D02*
X251509772Y-51468281D01*
X251509772Y-51468281D02*
X251471655Y-51430164D01*
X251471655Y-51430164D02*
X251395421Y-51392047D01*
X251395421Y-51392047D02*
X251242953Y-51392047D01*
X251242953Y-51392047D02*
X251166719Y-51430164D01*
X251166719Y-51430164D02*
X251128602Y-51468281D01*
X251128602Y-51468281D02*
X251090485Y-51544515D01*
X251090485Y-51544515D02*
X251090485Y-51582632D01*
X251090485Y-51582632D02*
X251128602Y-51658866D01*
X251128602Y-51658866D02*
X251166719Y-51696983D01*
X251166719Y-51696983D02*
X251242953Y-51735100D01*
X251242953Y-51735100D02*
X251395421Y-51735100D01*
X251395421Y-51735100D02*
X251471655Y-51773217D01*
X251471655Y-51773217D02*
X251509772Y-51811334D01*
X251509772Y-51811334D02*
X251547889Y-51887568D01*
X251547889Y-51887568D02*
X251547889Y-52040036D01*
X251547889Y-52040036D02*
X251509772Y-52116270D01*
X251509772Y-52116270D02*
X251471655Y-52154387D01*
X251471655Y-52154387D02*
X251395421Y-52192504D01*
X251395421Y-52192504D02*
X251242953Y-52192504D01*
X251242953Y-52192504D02*
X251166719Y-52154387D01*
X251166719Y-52154387D02*
X251128602Y-52116270D01*
X251128602Y-52116270D02*
X251090485Y-52040036D01*
X251090485Y-52040036D02*
X251090485Y-51887568D01*
X251090485Y-51887568D02*
X251128602Y-51811334D01*
X251128602Y-51811334D02*
X251166719Y-51773217D01*
X251166719Y-51773217D02*
X251242953Y-51735100D01*
X278292857Y-76919580D02*
X278340476Y-76967200D01*
X278340476Y-76967200D02*
X278483333Y-77014819D01*
X278483333Y-77014819D02*
X278578571Y-77014819D01*
X278578571Y-77014819D02*
X278721428Y-76967200D01*
X278721428Y-76967200D02*
X278816666Y-76871961D01*
X278816666Y-76871961D02*
X278864285Y-76776723D01*
X278864285Y-76776723D02*
X278911904Y-76586247D01*
X278911904Y-76586247D02*
X278911904Y-76443390D01*
X278911904Y-76443390D02*
X278864285Y-76252914D01*
X278864285Y-76252914D02*
X278816666Y-76157676D01*
X278816666Y-76157676D02*
X278721428Y-76062438D01*
X278721428Y-76062438D02*
X278578571Y-76014819D01*
X278578571Y-76014819D02*
X278483333Y-76014819D01*
X278483333Y-76014819D02*
X278340476Y-76062438D01*
X278340476Y-76062438D02*
X278292857Y-76110057D01*
X277959523Y-76014819D02*
X277340476Y-76014819D01*
X277340476Y-76014819D02*
X277673809Y-76395771D01*
X277673809Y-76395771D02*
X277530952Y-76395771D01*
X277530952Y-76395771D02*
X277435714Y-76443390D01*
X277435714Y-76443390D02*
X277388095Y-76491009D01*
X277388095Y-76491009D02*
X277340476Y-76586247D01*
X277340476Y-76586247D02*
X277340476Y-76824342D01*
X277340476Y-76824342D02*
X277388095Y-76919580D01*
X277388095Y-76919580D02*
X277435714Y-76967200D01*
X277435714Y-76967200D02*
X277530952Y-77014819D01*
X277530952Y-77014819D02*
X277816666Y-77014819D01*
X277816666Y-77014819D02*
X277911904Y-76967200D01*
X277911904Y-76967200D02*
X277959523Y-76919580D01*
X277007142Y-76014819D02*
X276388095Y-76014819D01*
X276388095Y-76014819D02*
X276721428Y-76395771D01*
X276721428Y-76395771D02*
X276578571Y-76395771D01*
X276578571Y-76395771D02*
X276483333Y-76443390D01*
X276483333Y-76443390D02*
X276435714Y-76491009D01*
X276435714Y-76491009D02*
X276388095Y-76586247D01*
X276388095Y-76586247D02*
X276388095Y-76824342D01*
X276388095Y-76824342D02*
X276435714Y-76919580D01*
X276435714Y-76919580D02*
X276483333Y-76967200D01*
X276483333Y-76967200D02*
X276578571Y-77014819D01*
X276578571Y-77014819D02*
X276864285Y-77014819D01*
X276864285Y-77014819D02*
X276959523Y-76967200D01*
X276959523Y-76967200D02*
X277007142Y-76919580D01*
X267009580Y-50802142D02*
X267057200Y-50754523D01*
X267057200Y-50754523D02*
X267104819Y-50611666D01*
X267104819Y-50611666D02*
X267104819Y-50516428D01*
X267104819Y-50516428D02*
X267057200Y-50373571D01*
X267057200Y-50373571D02*
X266961961Y-50278333D01*
X266961961Y-50278333D02*
X266866723Y-50230714D01*
X266866723Y-50230714D02*
X266676247Y-50183095D01*
X266676247Y-50183095D02*
X266533390Y-50183095D01*
X266533390Y-50183095D02*
X266342914Y-50230714D01*
X266342914Y-50230714D02*
X266247676Y-50278333D01*
X266247676Y-50278333D02*
X266152438Y-50373571D01*
X266152438Y-50373571D02*
X266104819Y-50516428D01*
X266104819Y-50516428D02*
X266104819Y-50611666D01*
X266104819Y-50611666D02*
X266152438Y-50754523D01*
X266152438Y-50754523D02*
X266200057Y-50802142D01*
X266200057Y-51183095D02*
X266152438Y-51230714D01*
X266152438Y-51230714D02*
X266104819Y-51325952D01*
X266104819Y-51325952D02*
X266104819Y-51564047D01*
X266104819Y-51564047D02*
X266152438Y-51659285D01*
X266152438Y-51659285D02*
X266200057Y-51706904D01*
X266200057Y-51706904D02*
X266295295Y-51754523D01*
X266295295Y-51754523D02*
X266390533Y-51754523D01*
X266390533Y-51754523D02*
X266533390Y-51706904D01*
X266533390Y-51706904D02*
X267104819Y-51135476D01*
X267104819Y-51135476D02*
X267104819Y-51754523D01*
X266104819Y-52611666D02*
X266104819Y-52421190D01*
X266104819Y-52421190D02*
X266152438Y-52325952D01*
X266152438Y-52325952D02*
X266200057Y-52278333D01*
X266200057Y-52278333D02*
X266342914Y-52183095D01*
X266342914Y-52183095D02*
X266533390Y-52135476D01*
X266533390Y-52135476D02*
X266914342Y-52135476D01*
X266914342Y-52135476D02*
X267009580Y-52183095D01*
X267009580Y-52183095D02*
X267057200Y-52230714D01*
X267057200Y-52230714D02*
X267104819Y-52325952D01*
X267104819Y-52325952D02*
X267104819Y-52516428D01*
X267104819Y-52516428D02*
X267057200Y-52611666D01*
X267057200Y-52611666D02*
X267009580Y-52659285D01*
X267009580Y-52659285D02*
X266914342Y-52706904D01*
X266914342Y-52706904D02*
X266676247Y-52706904D01*
X266676247Y-52706904D02*
X266581009Y-52659285D01*
X266581009Y-52659285D02*
X266533390Y-52611666D01*
X266533390Y-52611666D02*
X266485771Y-52516428D01*
X266485771Y-52516428D02*
X266485771Y-52325952D01*
X266485771Y-52325952D02*
X266533390Y-52230714D01*
X266533390Y-52230714D02*
X266581009Y-52183095D01*
X266581009Y-52183095D02*
X266676247Y-52135476D01*
X262172857Y-74044819D02*
X262506190Y-73568628D01*
X262744285Y-74044819D02*
X262744285Y-73044819D01*
X262744285Y-73044819D02*
X262363333Y-73044819D01*
X262363333Y-73044819D02*
X262268095Y-73092438D01*
X262268095Y-73092438D02*
X262220476Y-73140057D01*
X262220476Y-73140057D02*
X262172857Y-73235295D01*
X262172857Y-73235295D02*
X262172857Y-73378152D01*
X262172857Y-73378152D02*
X262220476Y-73473390D01*
X262220476Y-73473390D02*
X262268095Y-73521009D01*
X262268095Y-73521009D02*
X262363333Y-73568628D01*
X262363333Y-73568628D02*
X262744285Y-73568628D01*
X261839523Y-73044819D02*
X261220476Y-73044819D01*
X261220476Y-73044819D02*
X261553809Y-73425771D01*
X261553809Y-73425771D02*
X261410952Y-73425771D01*
X261410952Y-73425771D02*
X261315714Y-73473390D01*
X261315714Y-73473390D02*
X261268095Y-73521009D01*
X261268095Y-73521009D02*
X261220476Y-73616247D01*
X261220476Y-73616247D02*
X261220476Y-73854342D01*
X261220476Y-73854342D02*
X261268095Y-73949580D01*
X261268095Y-73949580D02*
X261315714Y-73997200D01*
X261315714Y-73997200D02*
X261410952Y-74044819D01*
X261410952Y-74044819D02*
X261696666Y-74044819D01*
X261696666Y-74044819D02*
X261791904Y-73997200D01*
X261791904Y-73997200D02*
X261839523Y-73949580D01*
X260649047Y-73473390D02*
X260744285Y-73425771D01*
X260744285Y-73425771D02*
X260791904Y-73378152D01*
X260791904Y-73378152D02*
X260839523Y-73282914D01*
X260839523Y-73282914D02*
X260839523Y-73235295D01*
X260839523Y-73235295D02*
X260791904Y-73140057D01*
X260791904Y-73140057D02*
X260744285Y-73092438D01*
X260744285Y-73092438D02*
X260649047Y-73044819D01*
X260649047Y-73044819D02*
X260458571Y-73044819D01*
X260458571Y-73044819D02*
X260363333Y-73092438D01*
X260363333Y-73092438D02*
X260315714Y-73140057D01*
X260315714Y-73140057D02*
X260268095Y-73235295D01*
X260268095Y-73235295D02*
X260268095Y-73282914D01*
X260268095Y-73282914D02*
X260315714Y-73378152D01*
X260315714Y-73378152D02*
X260363333Y-73425771D01*
X260363333Y-73425771D02*
X260458571Y-73473390D01*
X260458571Y-73473390D02*
X260649047Y-73473390D01*
X260649047Y-73473390D02*
X260744285Y-73521009D01*
X260744285Y-73521009D02*
X260791904Y-73568628D01*
X260791904Y-73568628D02*
X260839523Y-73663866D01*
X260839523Y-73663866D02*
X260839523Y-73854342D01*
X260839523Y-73854342D02*
X260791904Y-73949580D01*
X260791904Y-73949580D02*
X260744285Y-73997200D01*
X260744285Y-73997200D02*
X260649047Y-74044819D01*
X260649047Y-74044819D02*
X260458571Y-74044819D01*
X260458571Y-74044819D02*
X260363333Y-73997200D01*
X260363333Y-73997200D02*
X260315714Y-73949580D01*
X260315714Y-73949580D02*
X260268095Y-73854342D01*
X260268095Y-73854342D02*
X260268095Y-73663866D01*
X260268095Y-73663866D02*
X260315714Y-73568628D01*
X260315714Y-73568628D02*
X260363333Y-73521009D01*
X260363333Y-73521009D02*
X260458571Y-73473390D01*
X209808347Y-119970470D02*
X209875691Y-119970470D01*
X209875691Y-119970470D02*
X210010378Y-119903126D01*
X210010378Y-119903126D02*
X210077721Y-119835783D01*
X210077721Y-119835783D02*
X210145065Y-119701096D01*
X210145065Y-119701096D02*
X210145065Y-119566409D01*
X210145065Y-119566409D02*
X210111393Y-119465394D01*
X210111393Y-119465394D02*
X210010378Y-119297035D01*
X210010378Y-119297035D02*
X209909363Y-119196020D01*
X209909363Y-119196020D02*
X209741004Y-119095004D01*
X209741004Y-119095004D02*
X209639989Y-119061333D01*
X209639989Y-119061333D02*
X209505302Y-119061333D01*
X209505302Y-119061333D02*
X209370615Y-119128676D01*
X209370615Y-119128676D02*
X209303271Y-119196020D01*
X209303271Y-119196020D02*
X209235928Y-119330707D01*
X209235928Y-119330707D02*
X209235928Y-119398050D01*
X208932882Y-119566409D02*
X208495149Y-120004142D01*
X208495149Y-120004142D02*
X209000225Y-120037813D01*
X209000225Y-120037813D02*
X208899210Y-120138829D01*
X208899210Y-120138829D02*
X208865538Y-120239844D01*
X208865538Y-120239844D02*
X208865538Y-120307187D01*
X208865538Y-120307187D02*
X208899210Y-120408203D01*
X208899210Y-120408203D02*
X209067569Y-120576561D01*
X209067569Y-120576561D02*
X209168584Y-120610233D01*
X209168584Y-120610233D02*
X209235928Y-120610233D01*
X209235928Y-120610233D02*
X209336943Y-120576561D01*
X209336943Y-120576561D02*
X209538973Y-120374531D01*
X209538973Y-120374531D02*
X209572645Y-120273516D01*
X209572645Y-120273516D02*
X209572645Y-120206172D01*
X270510594Y-66164140D02*
X270510594Y-65164140D01*
X270510594Y-65164140D02*
X270272499Y-65164140D01*
X270272499Y-65164140D02*
X270129642Y-65211759D01*
X270129642Y-65211759D02*
X270034404Y-65306997D01*
X270034404Y-65306997D02*
X269986785Y-65402235D01*
X269986785Y-65402235D02*
X269939166Y-65592711D01*
X269939166Y-65592711D02*
X269939166Y-65735568D01*
X269939166Y-65735568D02*
X269986785Y-65926044D01*
X269986785Y-65926044D02*
X270034404Y-66021282D01*
X270034404Y-66021282D02*
X270129642Y-66116521D01*
X270129642Y-66116521D02*
X270272499Y-66164140D01*
X270272499Y-66164140D02*
X270510594Y-66164140D01*
X269367737Y-65592711D02*
X269462975Y-65545092D01*
X269462975Y-65545092D02*
X269510594Y-65497473D01*
X269510594Y-65497473D02*
X269558213Y-65402235D01*
X269558213Y-65402235D02*
X269558213Y-65354616D01*
X269558213Y-65354616D02*
X269510594Y-65259378D01*
X269510594Y-65259378D02*
X269462975Y-65211759D01*
X269462975Y-65211759D02*
X269367737Y-65164140D01*
X269367737Y-65164140D02*
X269177261Y-65164140D01*
X269177261Y-65164140D02*
X269082023Y-65211759D01*
X269082023Y-65211759D02*
X269034404Y-65259378D01*
X269034404Y-65259378D02*
X268986785Y-65354616D01*
X268986785Y-65354616D02*
X268986785Y-65402235D01*
X268986785Y-65402235D02*
X269034404Y-65497473D01*
X269034404Y-65497473D02*
X269082023Y-65545092D01*
X269082023Y-65545092D02*
X269177261Y-65592711D01*
X269177261Y-65592711D02*
X269367737Y-65592711D01*
X269367737Y-65592711D02*
X269462975Y-65640330D01*
X269462975Y-65640330D02*
X269510594Y-65687949D01*
X269510594Y-65687949D02*
X269558213Y-65783187D01*
X269558213Y-65783187D02*
X269558213Y-65973663D01*
X269558213Y-65973663D02*
X269510594Y-66068901D01*
X269510594Y-66068901D02*
X269462975Y-66116521D01*
X269462975Y-66116521D02*
X269367737Y-66164140D01*
X269367737Y-66164140D02*
X269177261Y-66164140D01*
X269177261Y-66164140D02*
X269082023Y-66116521D01*
X269082023Y-66116521D02*
X269034404Y-66068901D01*
X269034404Y-66068901D02*
X268986785Y-65973663D01*
X268986785Y-65973663D02*
X268986785Y-65783187D01*
X268986785Y-65783187D02*
X269034404Y-65687949D01*
X269034404Y-65687949D02*
X269082023Y-65640330D01*
X269082023Y-65640330D02*
X269177261Y-65592711D01*
X272964286Y-60154820D02*
X272964286Y-59154820D01*
X272964286Y-59154820D02*
X272726191Y-59154820D01*
X272726191Y-59154820D02*
X272583334Y-59202439D01*
X272583334Y-59202439D02*
X272488096Y-59297677D01*
X272488096Y-59297677D02*
X272440477Y-59392915D01*
X272440477Y-59392915D02*
X272392858Y-59583391D01*
X272392858Y-59583391D02*
X272392858Y-59726248D01*
X272392858Y-59726248D02*
X272440477Y-59916724D01*
X272440477Y-59916724D02*
X272488096Y-60011962D01*
X272488096Y-60011962D02*
X272583334Y-60107201D01*
X272583334Y-60107201D02*
X272726191Y-60154820D01*
X272726191Y-60154820D02*
X272964286Y-60154820D01*
X271440477Y-60154820D02*
X272011905Y-60154820D01*
X271726191Y-60154820D02*
X271726191Y-59154820D01*
X271726191Y-59154820D02*
X271821429Y-59297677D01*
X271821429Y-59297677D02*
X271916667Y-59392915D01*
X271916667Y-59392915D02*
X272011905Y-59440534D01*
X270869048Y-59583391D02*
X270964286Y-59535772D01*
X270964286Y-59535772D02*
X271011905Y-59488153D01*
X271011905Y-59488153D02*
X271059524Y-59392915D01*
X271059524Y-59392915D02*
X271059524Y-59345296D01*
X271059524Y-59345296D02*
X271011905Y-59250058D01*
X271011905Y-59250058D02*
X270964286Y-59202439D01*
X270964286Y-59202439D02*
X270869048Y-59154820D01*
X270869048Y-59154820D02*
X270678572Y-59154820D01*
X270678572Y-59154820D02*
X270583334Y-59202439D01*
X270583334Y-59202439D02*
X270535715Y-59250058D01*
X270535715Y-59250058D02*
X270488096Y-59345296D01*
X270488096Y-59345296D02*
X270488096Y-59392915D01*
X270488096Y-59392915D02*
X270535715Y-59488153D01*
X270535715Y-59488153D02*
X270583334Y-59535772D01*
X270583334Y-59535772D02*
X270678572Y-59583391D01*
X270678572Y-59583391D02*
X270869048Y-59583391D01*
X270869048Y-59583391D02*
X270964286Y-59631010D01*
X270964286Y-59631010D02*
X271011905Y-59678629D01*
X271011905Y-59678629D02*
X271059524Y-59773867D01*
X271059524Y-59773867D02*
X271059524Y-59964343D01*
X271059524Y-59964343D02*
X271011905Y-60059581D01*
X271011905Y-60059581D02*
X270964286Y-60107201D01*
X270964286Y-60107201D02*
X270869048Y-60154820D01*
X270869048Y-60154820D02*
X270678572Y-60154820D01*
X270678572Y-60154820D02*
X270583334Y-60107201D01*
X270583334Y-60107201D02*
X270535715Y-60059581D01*
X270535715Y-60059581D02*
X270488096Y-59964343D01*
X270488096Y-59964343D02*
X270488096Y-59773867D01*
X270488096Y-59773867D02*
X270535715Y-59678629D01*
X270535715Y-59678629D02*
X270583334Y-59631010D01*
X270583334Y-59631010D02*
X270678572Y-59583391D01*
X240359580Y-68907142D02*
X240407200Y-68859523D01*
X240407200Y-68859523D02*
X240454819Y-68716666D01*
X240454819Y-68716666D02*
X240454819Y-68621428D01*
X240454819Y-68621428D02*
X240407200Y-68478571D01*
X240407200Y-68478571D02*
X240311961Y-68383333D01*
X240311961Y-68383333D02*
X240216723Y-68335714D01*
X240216723Y-68335714D02*
X240026247Y-68288095D01*
X240026247Y-68288095D02*
X239883390Y-68288095D01*
X239883390Y-68288095D02*
X239692914Y-68335714D01*
X239692914Y-68335714D02*
X239597676Y-68383333D01*
X239597676Y-68383333D02*
X239502438Y-68478571D01*
X239502438Y-68478571D02*
X239454819Y-68621428D01*
X239454819Y-68621428D02*
X239454819Y-68716666D01*
X239454819Y-68716666D02*
X239502438Y-68859523D01*
X239502438Y-68859523D02*
X239550057Y-68907142D01*
X240454819Y-69859523D02*
X240454819Y-69288095D01*
X240454819Y-69573809D02*
X239454819Y-69573809D01*
X239454819Y-69573809D02*
X239597676Y-69478571D01*
X239597676Y-69478571D02*
X239692914Y-69383333D01*
X239692914Y-69383333D02*
X239740533Y-69288095D01*
X239550057Y-70240476D02*
X239502438Y-70288095D01*
X239502438Y-70288095D02*
X239454819Y-70383333D01*
X239454819Y-70383333D02*
X239454819Y-70621428D01*
X239454819Y-70621428D02*
X239502438Y-70716666D01*
X239502438Y-70716666D02*
X239550057Y-70764285D01*
X239550057Y-70764285D02*
X239645295Y-70811904D01*
X239645295Y-70811904D02*
X239740533Y-70811904D01*
X239740533Y-70811904D02*
X239883390Y-70764285D01*
X239883390Y-70764285D02*
X240454819Y-70192857D01*
X240454819Y-70192857D02*
X240454819Y-70811904D01*
X240919580Y-58847142D02*
X240967200Y-58799523D01*
X240967200Y-58799523D02*
X241014819Y-58656666D01*
X241014819Y-58656666D02*
X241014819Y-58561428D01*
X241014819Y-58561428D02*
X240967200Y-58418571D01*
X240967200Y-58418571D02*
X240871961Y-58323333D01*
X240871961Y-58323333D02*
X240776723Y-58275714D01*
X240776723Y-58275714D02*
X240586247Y-58228095D01*
X240586247Y-58228095D02*
X240443390Y-58228095D01*
X240443390Y-58228095D02*
X240252914Y-58275714D01*
X240252914Y-58275714D02*
X240157676Y-58323333D01*
X240157676Y-58323333D02*
X240062438Y-58418571D01*
X240062438Y-58418571D02*
X240014819Y-58561428D01*
X240014819Y-58561428D02*
X240014819Y-58656666D01*
X240014819Y-58656666D02*
X240062438Y-58799523D01*
X240062438Y-58799523D02*
X240110057Y-58847142D01*
X240110057Y-59228095D02*
X240062438Y-59275714D01*
X240062438Y-59275714D02*
X240014819Y-59370952D01*
X240014819Y-59370952D02*
X240014819Y-59609047D01*
X240014819Y-59609047D02*
X240062438Y-59704285D01*
X240062438Y-59704285D02*
X240110057Y-59751904D01*
X240110057Y-59751904D02*
X240205295Y-59799523D01*
X240205295Y-59799523D02*
X240300533Y-59799523D01*
X240300533Y-59799523D02*
X240443390Y-59751904D01*
X240443390Y-59751904D02*
X241014819Y-59180476D01*
X241014819Y-59180476D02*
X241014819Y-59799523D01*
X240110057Y-60180476D02*
X240062438Y-60228095D01*
X240062438Y-60228095D02*
X240014819Y-60323333D01*
X240014819Y-60323333D02*
X240014819Y-60561428D01*
X240014819Y-60561428D02*
X240062438Y-60656666D01*
X240062438Y-60656666D02*
X240110057Y-60704285D01*
X240110057Y-60704285D02*
X240205295Y-60751904D01*
X240205295Y-60751904D02*
X240300533Y-60751904D01*
X240300533Y-60751904D02*
X240443390Y-60704285D01*
X240443390Y-60704285D02*
X241014819Y-60132857D01*
X241014819Y-60132857D02*
X241014819Y-60751904D01*
X249457857Y-69114819D02*
X249791190Y-68638628D01*
X250029285Y-69114819D02*
X250029285Y-68114819D01*
X250029285Y-68114819D02*
X249648333Y-68114819D01*
X249648333Y-68114819D02*
X249553095Y-68162438D01*
X249553095Y-68162438D02*
X249505476Y-68210057D01*
X249505476Y-68210057D02*
X249457857Y-68305295D01*
X249457857Y-68305295D02*
X249457857Y-68448152D01*
X249457857Y-68448152D02*
X249505476Y-68543390D01*
X249505476Y-68543390D02*
X249553095Y-68591009D01*
X249553095Y-68591009D02*
X249648333Y-68638628D01*
X249648333Y-68638628D02*
X250029285Y-68638628D01*
X248505476Y-69114819D02*
X249076904Y-69114819D01*
X248791190Y-69114819D02*
X248791190Y-68114819D01*
X248791190Y-68114819D02*
X248886428Y-68257676D01*
X248886428Y-68257676D02*
X248981666Y-68352914D01*
X248981666Y-68352914D02*
X249076904Y-68400533D01*
X247886428Y-68114819D02*
X247791190Y-68114819D01*
X247791190Y-68114819D02*
X247695952Y-68162438D01*
X247695952Y-68162438D02*
X247648333Y-68210057D01*
X247648333Y-68210057D02*
X247600714Y-68305295D01*
X247600714Y-68305295D02*
X247553095Y-68495771D01*
X247553095Y-68495771D02*
X247553095Y-68733866D01*
X247553095Y-68733866D02*
X247600714Y-68924342D01*
X247600714Y-68924342D02*
X247648333Y-69019580D01*
X247648333Y-69019580D02*
X247695952Y-69067200D01*
X247695952Y-69067200D02*
X247791190Y-69114819D01*
X247791190Y-69114819D02*
X247886428Y-69114819D01*
X247886428Y-69114819D02*
X247981666Y-69067200D01*
X247981666Y-69067200D02*
X248029285Y-69019580D01*
X248029285Y-69019580D02*
X248076904Y-68924342D01*
X248076904Y-68924342D02*
X248124523Y-68733866D01*
X248124523Y-68733866D02*
X248124523Y-68495771D01*
X248124523Y-68495771D02*
X248076904Y-68305295D01*
X248076904Y-68305295D02*
X248029285Y-68210057D01*
X248029285Y-68210057D02*
X247981666Y-68162438D01*
X247981666Y-68162438D02*
X247886428Y-68114819D01*
X262479580Y-125803333D02*
X262527200Y-125755714D01*
X262527200Y-125755714D02*
X262574819Y-125612857D01*
X262574819Y-125612857D02*
X262574819Y-125517619D01*
X262574819Y-125517619D02*
X262527200Y-125374762D01*
X262527200Y-125374762D02*
X262431961Y-125279524D01*
X262431961Y-125279524D02*
X262336723Y-125231905D01*
X262336723Y-125231905D02*
X262146247Y-125184286D01*
X262146247Y-125184286D02*
X262003390Y-125184286D01*
X262003390Y-125184286D02*
X261812914Y-125231905D01*
X261812914Y-125231905D02*
X261717676Y-125279524D01*
X261717676Y-125279524D02*
X261622438Y-125374762D01*
X261622438Y-125374762D02*
X261574819Y-125517619D01*
X261574819Y-125517619D02*
X261574819Y-125612857D01*
X261574819Y-125612857D02*
X261622438Y-125755714D01*
X261622438Y-125755714D02*
X261670057Y-125803333D01*
X261574819Y-126136667D02*
X261574819Y-126803333D01*
X261574819Y-126803333D02*
X262574819Y-126374762D01*
X262347857Y-51274819D02*
X262681190Y-50798628D01*
X262919285Y-51274819D02*
X262919285Y-50274819D01*
X262919285Y-50274819D02*
X262538333Y-50274819D01*
X262538333Y-50274819D02*
X262443095Y-50322438D01*
X262443095Y-50322438D02*
X262395476Y-50370057D01*
X262395476Y-50370057D02*
X262347857Y-50465295D01*
X262347857Y-50465295D02*
X262347857Y-50608152D01*
X262347857Y-50608152D02*
X262395476Y-50703390D01*
X262395476Y-50703390D02*
X262443095Y-50751009D01*
X262443095Y-50751009D02*
X262538333Y-50798628D01*
X262538333Y-50798628D02*
X262919285Y-50798628D01*
X261966904Y-50370057D02*
X261919285Y-50322438D01*
X261919285Y-50322438D02*
X261824047Y-50274819D01*
X261824047Y-50274819D02*
X261585952Y-50274819D01*
X261585952Y-50274819D02*
X261490714Y-50322438D01*
X261490714Y-50322438D02*
X261443095Y-50370057D01*
X261443095Y-50370057D02*
X261395476Y-50465295D01*
X261395476Y-50465295D02*
X261395476Y-50560533D01*
X261395476Y-50560533D02*
X261443095Y-50703390D01*
X261443095Y-50703390D02*
X262014523Y-51274819D01*
X262014523Y-51274819D02*
X261395476Y-51274819D01*
X261062142Y-50274819D02*
X260395476Y-50274819D01*
X260395476Y-50274819D02*
X260824047Y-51274819D01*
X275874819Y-74915714D02*
X274874819Y-74915714D01*
X274874819Y-74915714D02*
X274874819Y-75153809D01*
X274874819Y-75153809D02*
X274922438Y-75296666D01*
X274922438Y-75296666D02*
X275017676Y-75391904D01*
X275017676Y-75391904D02*
X275112914Y-75439523D01*
X275112914Y-75439523D02*
X275303390Y-75487142D01*
X275303390Y-75487142D02*
X275446247Y-75487142D01*
X275446247Y-75487142D02*
X275636723Y-75439523D01*
X275636723Y-75439523D02*
X275731961Y-75391904D01*
X275731961Y-75391904D02*
X275827200Y-75296666D01*
X275827200Y-75296666D02*
X275874819Y-75153809D01*
X275874819Y-75153809D02*
X275874819Y-74915714D01*
X275874819Y-76439523D02*
X275874819Y-75868095D01*
X275874819Y-76153809D02*
X274874819Y-76153809D01*
X274874819Y-76153809D02*
X275017676Y-76058571D01*
X275017676Y-76058571D02*
X275112914Y-75963333D01*
X275112914Y-75963333D02*
X275160533Y-75868095D01*
X275874819Y-76915714D02*
X275874819Y-77106190D01*
X275874819Y-77106190D02*
X275827200Y-77201428D01*
X275827200Y-77201428D02*
X275779580Y-77249047D01*
X275779580Y-77249047D02*
X275636723Y-77344285D01*
X275636723Y-77344285D02*
X275446247Y-77391904D01*
X275446247Y-77391904D02*
X275065295Y-77391904D01*
X275065295Y-77391904D02*
X274970057Y-77344285D01*
X274970057Y-77344285D02*
X274922438Y-77296666D01*
X274922438Y-77296666D02*
X274874819Y-77201428D01*
X274874819Y-77201428D02*
X274874819Y-77010952D01*
X274874819Y-77010952D02*
X274922438Y-76915714D01*
X274922438Y-76915714D02*
X274970057Y-76868095D01*
X274970057Y-76868095D02*
X275065295Y-76820476D01*
X275065295Y-76820476D02*
X275303390Y-76820476D01*
X275303390Y-76820476D02*
X275398628Y-76868095D01*
X275398628Y-76868095D02*
X275446247Y-76915714D01*
X275446247Y-76915714D02*
X275493866Y-77010952D01*
X275493866Y-77010952D02*
X275493866Y-77201428D01*
X275493866Y-77201428D02*
X275446247Y-77296666D01*
X275446247Y-77296666D02*
X275398628Y-77344285D01*
X275398628Y-77344285D02*
X275303390Y-77391904D01*
X250120763Y-74591648D02*
X250693182Y-74490633D01*
X250524824Y-74995709D02*
X251231930Y-74288602D01*
X251231930Y-74288602D02*
X250962556Y-74019228D01*
X250962556Y-74019228D02*
X250861541Y-73985556D01*
X250861541Y-73985556D02*
X250794198Y-73985556D01*
X250794198Y-73985556D02*
X250693182Y-74019228D01*
X250693182Y-74019228D02*
X250592167Y-74120243D01*
X250592167Y-74120243D02*
X250558495Y-74221259D01*
X250558495Y-74221259D02*
X250558495Y-74288602D01*
X250558495Y-74288602D02*
X250592167Y-74389617D01*
X250592167Y-74389617D02*
X250861541Y-74658991D01*
X250491152Y-73682511D02*
X250491152Y-73615167D01*
X250491152Y-73615167D02*
X250457480Y-73514152D01*
X250457480Y-73514152D02*
X250289121Y-73345793D01*
X250289121Y-73345793D02*
X250188106Y-73312121D01*
X250188106Y-73312121D02*
X250120763Y-73312121D01*
X250120763Y-73312121D02*
X250019747Y-73345793D01*
X250019747Y-73345793D02*
X249952404Y-73413137D01*
X249952404Y-73413137D02*
X249885060Y-73547824D01*
X249885060Y-73547824D02*
X249885060Y-74355946D01*
X249885060Y-74355946D02*
X249447328Y-73918213D01*
X249548343Y-72605014D02*
X249683030Y-72739701D01*
X249683030Y-72739701D02*
X249716701Y-72840717D01*
X249716701Y-72840717D02*
X249716701Y-72908060D01*
X249716701Y-72908060D02*
X249683030Y-73076419D01*
X249683030Y-73076419D02*
X249582014Y-73244778D01*
X249582014Y-73244778D02*
X249312640Y-73514152D01*
X249312640Y-73514152D02*
X249211625Y-73547823D01*
X249211625Y-73547823D02*
X249144282Y-73547823D01*
X249144282Y-73547823D02*
X249043266Y-73514152D01*
X249043266Y-73514152D02*
X248908579Y-73379465D01*
X248908579Y-73379465D02*
X248874908Y-73278449D01*
X248874908Y-73278449D02*
X248874908Y-73211106D01*
X248874908Y-73211106D02*
X248908579Y-73110091D01*
X248908579Y-73110091D02*
X249076938Y-72941732D01*
X249076938Y-72941732D02*
X249177953Y-72908060D01*
X249177953Y-72908060D02*
X249245297Y-72908060D01*
X249245297Y-72908060D02*
X249346312Y-72941732D01*
X249346312Y-72941732D02*
X249480999Y-73076419D01*
X249480999Y-73076419D02*
X249514671Y-73177434D01*
X249514671Y-73177434D02*
X249514671Y-73244778D01*
X249514671Y-73244778D02*
X249480999Y-73345793D01*
X262322857Y-57204819D02*
X262656190Y-56728628D01*
X262894285Y-57204819D02*
X262894285Y-56204819D01*
X262894285Y-56204819D02*
X262513333Y-56204819D01*
X262513333Y-56204819D02*
X262418095Y-56252438D01*
X262418095Y-56252438D02*
X262370476Y-56300057D01*
X262370476Y-56300057D02*
X262322857Y-56395295D01*
X262322857Y-56395295D02*
X262322857Y-56538152D01*
X262322857Y-56538152D02*
X262370476Y-56633390D01*
X262370476Y-56633390D02*
X262418095Y-56681009D01*
X262418095Y-56681009D02*
X262513333Y-56728628D01*
X262513333Y-56728628D02*
X262894285Y-56728628D01*
X261989523Y-56204819D02*
X261370476Y-56204819D01*
X261370476Y-56204819D02*
X261703809Y-56585771D01*
X261703809Y-56585771D02*
X261560952Y-56585771D01*
X261560952Y-56585771D02*
X261465714Y-56633390D01*
X261465714Y-56633390D02*
X261418095Y-56681009D01*
X261418095Y-56681009D02*
X261370476Y-56776247D01*
X261370476Y-56776247D02*
X261370476Y-57014342D01*
X261370476Y-57014342D02*
X261418095Y-57109580D01*
X261418095Y-57109580D02*
X261465714Y-57157200D01*
X261465714Y-57157200D02*
X261560952Y-57204819D01*
X261560952Y-57204819D02*
X261846666Y-57204819D01*
X261846666Y-57204819D02*
X261941904Y-57157200D01*
X261941904Y-57157200D02*
X261989523Y-57109580D01*
X260418095Y-57204819D02*
X260989523Y-57204819D01*
X260703809Y-57204819D02*
X260703809Y-56204819D01*
X260703809Y-56204819D02*
X260799047Y-56347676D01*
X260799047Y-56347676D02*
X260894285Y-56442914D01*
X260894285Y-56442914D02*
X260989523Y-56490533D01*
X278257857Y-71130260D02*
X278305476Y-71177880D01*
X278305476Y-71177880D02*
X278448333Y-71225499D01*
X278448333Y-71225499D02*
X278543571Y-71225499D01*
X278543571Y-71225499D02*
X278686428Y-71177880D01*
X278686428Y-71177880D02*
X278781666Y-71082641D01*
X278781666Y-71082641D02*
X278829285Y-70987403D01*
X278829285Y-70987403D02*
X278876904Y-70796927D01*
X278876904Y-70796927D02*
X278876904Y-70654070D01*
X278876904Y-70654070D02*
X278829285Y-70463594D01*
X278829285Y-70463594D02*
X278781666Y-70368356D01*
X278781666Y-70368356D02*
X278686428Y-70273118D01*
X278686428Y-70273118D02*
X278543571Y-70225499D01*
X278543571Y-70225499D02*
X278448333Y-70225499D01*
X278448333Y-70225499D02*
X278305476Y-70273118D01*
X278305476Y-70273118D02*
X278257857Y-70320737D01*
X277305476Y-71225499D02*
X277876904Y-71225499D01*
X277591190Y-71225499D02*
X277591190Y-70225499D01*
X277591190Y-70225499D02*
X277686428Y-70368356D01*
X277686428Y-70368356D02*
X277781666Y-70463594D01*
X277781666Y-70463594D02*
X277876904Y-70511213D01*
X276972142Y-70225499D02*
X276305476Y-70225499D01*
X276305476Y-70225499D02*
X276734047Y-71225499D01*
X270408094Y-71754820D02*
X270408094Y-70754820D01*
X270408094Y-70754820D02*
X270169999Y-70754820D01*
X270169999Y-70754820D02*
X270027142Y-70802439D01*
X270027142Y-70802439D02*
X269931904Y-70897677D01*
X269931904Y-70897677D02*
X269884285Y-70992915D01*
X269884285Y-70992915D02*
X269836666Y-71183391D01*
X269836666Y-71183391D02*
X269836666Y-71326248D01*
X269836666Y-71326248D02*
X269884285Y-71516724D01*
X269884285Y-71516724D02*
X269931904Y-71611962D01*
X269931904Y-71611962D02*
X270027142Y-71707201D01*
X270027142Y-71707201D02*
X270169999Y-71754820D01*
X270169999Y-71754820D02*
X270408094Y-71754820D01*
X268979523Y-70754820D02*
X269169999Y-70754820D01*
X269169999Y-70754820D02*
X269265237Y-70802439D01*
X269265237Y-70802439D02*
X269312856Y-70850058D01*
X269312856Y-70850058D02*
X269408094Y-70992915D01*
X269408094Y-70992915D02*
X269455713Y-71183391D01*
X269455713Y-71183391D02*
X269455713Y-71564343D01*
X269455713Y-71564343D02*
X269408094Y-71659581D01*
X269408094Y-71659581D02*
X269360475Y-71707201D01*
X269360475Y-71707201D02*
X269265237Y-71754820D01*
X269265237Y-71754820D02*
X269074761Y-71754820D01*
X269074761Y-71754820D02*
X268979523Y-71707201D01*
X268979523Y-71707201D02*
X268931904Y-71659581D01*
X268931904Y-71659581D02*
X268884285Y-71564343D01*
X268884285Y-71564343D02*
X268884285Y-71326248D01*
X268884285Y-71326248D02*
X268931904Y-71231010D01*
X268931904Y-71231010D02*
X268979523Y-71183391D01*
X268979523Y-71183391D02*
X269074761Y-71135772D01*
X269074761Y-71135772D02*
X269265237Y-71135772D01*
X269265237Y-71135772D02*
X269360475Y-71183391D01*
X269360475Y-71183391D02*
X269408094Y-71231010D01*
X269408094Y-71231010D02*
X269455713Y-71326248D01*
X236164820Y-100218095D02*
X236974343Y-100218095D01*
X236974343Y-100218095D02*
X237069581Y-100265714D01*
X237069581Y-100265714D02*
X237117201Y-100313333D01*
X237117201Y-100313333D02*
X237164820Y-100408571D01*
X237164820Y-100408571D02*
X237164820Y-100599047D01*
X237164820Y-100599047D02*
X237117201Y-100694285D01*
X237117201Y-100694285D02*
X237069581Y-100741904D01*
X237069581Y-100741904D02*
X236974343Y-100789523D01*
X236974343Y-100789523D02*
X236164820Y-100789523D01*
X236498153Y-101694285D02*
X237164820Y-101694285D01*
X236117201Y-101456190D02*
X236831486Y-101218095D01*
X236831486Y-101218095D02*
X236831486Y-101837142D01*
X257684819Y-75997142D02*
X257208628Y-75663809D01*
X257684819Y-75425714D02*
X256684819Y-75425714D01*
X256684819Y-75425714D02*
X256684819Y-75806666D01*
X256684819Y-75806666D02*
X256732438Y-75901904D01*
X256732438Y-75901904D02*
X256780057Y-75949523D01*
X256780057Y-75949523D02*
X256875295Y-75997142D01*
X256875295Y-75997142D02*
X257018152Y-75997142D01*
X257018152Y-75997142D02*
X257113390Y-75949523D01*
X257113390Y-75949523D02*
X257161009Y-75901904D01*
X257161009Y-75901904D02*
X257208628Y-75806666D01*
X257208628Y-75806666D02*
X257208628Y-75425714D01*
X256684819Y-76330476D02*
X256684819Y-76949523D01*
X256684819Y-76949523D02*
X257065771Y-76616190D01*
X257065771Y-76616190D02*
X257065771Y-76759047D01*
X257065771Y-76759047D02*
X257113390Y-76854285D01*
X257113390Y-76854285D02*
X257161009Y-76901904D01*
X257161009Y-76901904D02*
X257256247Y-76949523D01*
X257256247Y-76949523D02*
X257494342Y-76949523D01*
X257494342Y-76949523D02*
X257589580Y-76901904D01*
X257589580Y-76901904D02*
X257637200Y-76854285D01*
X257637200Y-76854285D02*
X257684819Y-76759047D01*
X257684819Y-76759047D02*
X257684819Y-76473333D01*
X257684819Y-76473333D02*
X257637200Y-76378095D01*
X257637200Y-76378095D02*
X257589580Y-76330476D01*
X256684819Y-77282857D02*
X256684819Y-77949523D01*
X256684819Y-77949523D02*
X257684819Y-77520952D01*
X266429580Y-65167142D02*
X266477200Y-65119523D01*
X266477200Y-65119523D02*
X266524819Y-64976666D01*
X266524819Y-64976666D02*
X266524819Y-64881428D01*
X266524819Y-64881428D02*
X266477200Y-64738571D01*
X266477200Y-64738571D02*
X266381961Y-64643333D01*
X266381961Y-64643333D02*
X266286723Y-64595714D01*
X266286723Y-64595714D02*
X266096247Y-64548095D01*
X266096247Y-64548095D02*
X265953390Y-64548095D01*
X265953390Y-64548095D02*
X265762914Y-64595714D01*
X265762914Y-64595714D02*
X265667676Y-64643333D01*
X265667676Y-64643333D02*
X265572438Y-64738571D01*
X265572438Y-64738571D02*
X265524819Y-64881428D01*
X265524819Y-64881428D02*
X265524819Y-64976666D01*
X265524819Y-64976666D02*
X265572438Y-65119523D01*
X265572438Y-65119523D02*
X265620057Y-65167142D01*
X265620057Y-65548095D02*
X265572438Y-65595714D01*
X265572438Y-65595714D02*
X265524819Y-65690952D01*
X265524819Y-65690952D02*
X265524819Y-65929047D01*
X265524819Y-65929047D02*
X265572438Y-66024285D01*
X265572438Y-66024285D02*
X265620057Y-66071904D01*
X265620057Y-66071904D02*
X265715295Y-66119523D01*
X265715295Y-66119523D02*
X265810533Y-66119523D01*
X265810533Y-66119523D02*
X265953390Y-66071904D01*
X265953390Y-66071904D02*
X266524819Y-65500476D01*
X266524819Y-65500476D02*
X266524819Y-66119523D01*
X265524819Y-66738571D02*
X265524819Y-66833809D01*
X265524819Y-66833809D02*
X265572438Y-66929047D01*
X265572438Y-66929047D02*
X265620057Y-66976666D01*
X265620057Y-66976666D02*
X265715295Y-67024285D01*
X265715295Y-67024285D02*
X265905771Y-67071904D01*
X265905771Y-67071904D02*
X266143866Y-67071904D01*
X266143866Y-67071904D02*
X266334342Y-67024285D01*
X266334342Y-67024285D02*
X266429580Y-66976666D01*
X266429580Y-66976666D02*
X266477200Y-66929047D01*
X266477200Y-66929047D02*
X266524819Y-66833809D01*
X266524819Y-66833809D02*
X266524819Y-66738571D01*
X266524819Y-66738571D02*
X266477200Y-66643333D01*
X266477200Y-66643333D02*
X266429580Y-66595714D01*
X266429580Y-66595714D02*
X266334342Y-66548095D01*
X266334342Y-66548095D02*
X266143866Y-66500476D01*
X266143866Y-66500476D02*
X265905771Y-66500476D01*
X265905771Y-66500476D02*
X265715295Y-66548095D01*
X265715295Y-66548095D02*
X265620057Y-66595714D01*
X265620057Y-66595714D02*
X265572438Y-66643333D01*
X265572438Y-66643333D02*
X265524819Y-66738571D01*
X272844285Y-53554819D02*
X272844285Y-52554819D01*
X272844285Y-52554819D02*
X272606190Y-52554819D01*
X272606190Y-52554819D02*
X272463333Y-52602438D01*
X272463333Y-52602438D02*
X272368095Y-52697676D01*
X272368095Y-52697676D02*
X272320476Y-52792914D01*
X272320476Y-52792914D02*
X272272857Y-52983390D01*
X272272857Y-52983390D02*
X272272857Y-53126247D01*
X272272857Y-53126247D02*
X272320476Y-53316723D01*
X272320476Y-53316723D02*
X272368095Y-53411961D01*
X272368095Y-53411961D02*
X272463333Y-53507200D01*
X272463333Y-53507200D02*
X272606190Y-53554819D01*
X272606190Y-53554819D02*
X272844285Y-53554819D01*
X271320476Y-53554819D02*
X271891904Y-53554819D01*
X271606190Y-53554819D02*
X271606190Y-52554819D01*
X271606190Y-52554819D02*
X271701428Y-52697676D01*
X271701428Y-52697676D02*
X271796666Y-52792914D01*
X271796666Y-52792914D02*
X271891904Y-52840533D01*
X270701428Y-52554819D02*
X270606190Y-52554819D01*
X270606190Y-52554819D02*
X270510952Y-52602438D01*
X270510952Y-52602438D02*
X270463333Y-52650057D01*
X270463333Y-52650057D02*
X270415714Y-52745295D01*
X270415714Y-52745295D02*
X270368095Y-52935771D01*
X270368095Y-52935771D02*
X270368095Y-53173866D01*
X270368095Y-53173866D02*
X270415714Y-53364342D01*
X270415714Y-53364342D02*
X270463333Y-53459580D01*
X270463333Y-53459580D02*
X270510952Y-53507200D01*
X270510952Y-53507200D02*
X270606190Y-53554819D01*
X270606190Y-53554819D02*
X270701428Y-53554819D01*
X270701428Y-53554819D02*
X270796666Y-53507200D01*
X270796666Y-53507200D02*
X270844285Y-53459580D01*
X270844285Y-53459580D02*
X270891904Y-53364342D01*
X270891904Y-53364342D02*
X270939523Y-53173866D01*
X270939523Y-53173866D02*
X270939523Y-52935771D01*
X270939523Y-52935771D02*
X270891904Y-52745295D01*
X270891904Y-52745295D02*
X270844285Y-52650057D01*
X270844285Y-52650057D02*
X270796666Y-52602438D01*
X270796666Y-52602438D02*
X270701428Y-52554819D01*
X234299761Y-73366143D02*
X234204523Y-73413762D01*
X234204523Y-73413762D02*
X234109285Y-73509001D01*
X234109285Y-73509001D02*
X233966428Y-73651858D01*
X233966428Y-73651858D02*
X233871190Y-73699477D01*
X233871190Y-73699477D02*
X233775952Y-73699477D01*
X233823571Y-73461381D02*
X233728333Y-73509001D01*
X233728333Y-73509001D02*
X233633095Y-73604239D01*
X233633095Y-73604239D02*
X233585476Y-73794715D01*
X233585476Y-73794715D02*
X233585476Y-74128048D01*
X233585476Y-74128048D02*
X233633095Y-74318524D01*
X233633095Y-74318524D02*
X233728333Y-74413762D01*
X233728333Y-74413762D02*
X233823571Y-74461381D01*
X233823571Y-74461381D02*
X234014047Y-74461381D01*
X234014047Y-74461381D02*
X234109285Y-74413762D01*
X234109285Y-74413762D02*
X234204523Y-74318524D01*
X234204523Y-74318524D02*
X234252142Y-74128048D01*
X234252142Y-74128048D02*
X234252142Y-73794715D01*
X234252142Y-73794715D02*
X234204523Y-73604239D01*
X234204523Y-73604239D02*
X234109285Y-73509001D01*
X234109285Y-73509001D02*
X234014047Y-73461381D01*
X234014047Y-73461381D02*
X233823571Y-73461381D01*
X235204523Y-73461381D02*
X234633095Y-73461381D01*
X234918809Y-73461381D02*
X234918809Y-74461381D01*
X234918809Y-74461381D02*
X234823571Y-74318524D01*
X234823571Y-74318524D02*
X234728333Y-74223286D01*
X234728333Y-74223286D02*
X234633095Y-74175667D01*
X267874819Y-76547142D02*
X267398628Y-76213809D01*
X267874819Y-75975714D02*
X266874819Y-75975714D01*
X266874819Y-75975714D02*
X266874819Y-76356666D01*
X266874819Y-76356666D02*
X266922438Y-76451904D01*
X266922438Y-76451904D02*
X266970057Y-76499523D01*
X266970057Y-76499523D02*
X267065295Y-76547142D01*
X267065295Y-76547142D02*
X267208152Y-76547142D01*
X267208152Y-76547142D02*
X267303390Y-76499523D01*
X267303390Y-76499523D02*
X267351009Y-76451904D01*
X267351009Y-76451904D02*
X267398628Y-76356666D01*
X267398628Y-76356666D02*
X267398628Y-75975714D01*
X266874819Y-76880476D02*
X266874819Y-77499523D01*
X266874819Y-77499523D02*
X267255771Y-77166190D01*
X267255771Y-77166190D02*
X267255771Y-77309047D01*
X267255771Y-77309047D02*
X267303390Y-77404285D01*
X267303390Y-77404285D02*
X267351009Y-77451904D01*
X267351009Y-77451904D02*
X267446247Y-77499523D01*
X267446247Y-77499523D02*
X267684342Y-77499523D01*
X267684342Y-77499523D02*
X267779580Y-77451904D01*
X267779580Y-77451904D02*
X267827200Y-77404285D01*
X267827200Y-77404285D02*
X267874819Y-77309047D01*
X267874819Y-77309047D02*
X267874819Y-77023333D01*
X267874819Y-77023333D02*
X267827200Y-76928095D01*
X267827200Y-76928095D02*
X267779580Y-76880476D01*
X266874819Y-78356666D02*
X266874819Y-78166190D01*
X266874819Y-78166190D02*
X266922438Y-78070952D01*
X266922438Y-78070952D02*
X266970057Y-78023333D01*
X266970057Y-78023333D02*
X267112914Y-77928095D01*
X267112914Y-77928095D02*
X267303390Y-77880476D01*
X267303390Y-77880476D02*
X267684342Y-77880476D01*
X267684342Y-77880476D02*
X267779580Y-77928095D01*
X267779580Y-77928095D02*
X267827200Y-77975714D01*
X267827200Y-77975714D02*
X267874819Y-78070952D01*
X267874819Y-78070952D02*
X267874819Y-78261428D01*
X267874819Y-78261428D02*
X267827200Y-78356666D01*
X267827200Y-78356666D02*
X267779580Y-78404285D01*
X267779580Y-78404285D02*
X267684342Y-78451904D01*
X267684342Y-78451904D02*
X267446247Y-78451904D01*
X267446247Y-78451904D02*
X267351009Y-78404285D01*
X267351009Y-78404285D02*
X267303390Y-78356666D01*
X267303390Y-78356666D02*
X267255771Y-78261428D01*
X267255771Y-78261428D02*
X267255771Y-78070952D01*
X267255771Y-78070952D02*
X267303390Y-77975714D01*
X267303390Y-77975714D02*
X267351009Y-77928095D01*
X267351009Y-77928095D02*
X267446247Y-77880476D01*
X269184819Y-59737142D02*
X268708628Y-59403809D01*
X269184819Y-59165714D02*
X268184819Y-59165714D01*
X268184819Y-59165714D02*
X268184819Y-59546666D01*
X268184819Y-59546666D02*
X268232438Y-59641904D01*
X268232438Y-59641904D02*
X268280057Y-59689523D01*
X268280057Y-59689523D02*
X268375295Y-59737142D01*
X268375295Y-59737142D02*
X268518152Y-59737142D01*
X268518152Y-59737142D02*
X268613390Y-59689523D01*
X268613390Y-59689523D02*
X268661009Y-59641904D01*
X268661009Y-59641904D02*
X268708628Y-59546666D01*
X268708628Y-59546666D02*
X268708628Y-59165714D01*
X268280057Y-60118095D02*
X268232438Y-60165714D01*
X268232438Y-60165714D02*
X268184819Y-60260952D01*
X268184819Y-60260952D02*
X268184819Y-60499047D01*
X268184819Y-60499047D02*
X268232438Y-60594285D01*
X268232438Y-60594285D02*
X268280057Y-60641904D01*
X268280057Y-60641904D02*
X268375295Y-60689523D01*
X268375295Y-60689523D02*
X268470533Y-60689523D01*
X268470533Y-60689523D02*
X268613390Y-60641904D01*
X268613390Y-60641904D02*
X269184819Y-60070476D01*
X269184819Y-60070476D02*
X269184819Y-60689523D01*
X268613390Y-61260952D02*
X268565771Y-61165714D01*
X268565771Y-61165714D02*
X268518152Y-61118095D01*
X268518152Y-61118095D02*
X268422914Y-61070476D01*
X268422914Y-61070476D02*
X268375295Y-61070476D01*
X268375295Y-61070476D02*
X268280057Y-61118095D01*
X268280057Y-61118095D02*
X268232438Y-61165714D01*
X268232438Y-61165714D02*
X268184819Y-61260952D01*
X268184819Y-61260952D02*
X268184819Y-61451428D01*
X268184819Y-61451428D02*
X268232438Y-61546666D01*
X268232438Y-61546666D02*
X268280057Y-61594285D01*
X268280057Y-61594285D02*
X268375295Y-61641904D01*
X268375295Y-61641904D02*
X268422914Y-61641904D01*
X268422914Y-61641904D02*
X268518152Y-61594285D01*
X268518152Y-61594285D02*
X268565771Y-61546666D01*
X268565771Y-61546666D02*
X268613390Y-61451428D01*
X268613390Y-61451428D02*
X268613390Y-61260952D01*
X268613390Y-61260952D02*
X268661009Y-61165714D01*
X268661009Y-61165714D02*
X268708628Y-61118095D01*
X268708628Y-61118095D02*
X268803866Y-61070476D01*
X268803866Y-61070476D02*
X268994342Y-61070476D01*
X268994342Y-61070476D02*
X269089580Y-61118095D01*
X269089580Y-61118095D02*
X269137200Y-61165714D01*
X269137200Y-61165714D02*
X269184819Y-61260952D01*
X269184819Y-61260952D02*
X269184819Y-61451428D01*
X269184819Y-61451428D02*
X269137200Y-61546666D01*
X269137200Y-61546666D02*
X269089580Y-61594285D01*
X269089580Y-61594285D02*
X268994342Y-61641904D01*
X268994342Y-61641904D02*
X268803866Y-61641904D01*
X268803866Y-61641904D02*
X268708628Y-61594285D01*
X268708628Y-61594285D02*
X268661009Y-61546666D01*
X268661009Y-61546666D02*
X268613390Y-61451428D01*
X261927857Y-62804819D02*
X262261190Y-62328628D01*
X262499285Y-62804819D02*
X262499285Y-61804819D01*
X262499285Y-61804819D02*
X262118333Y-61804819D01*
X262118333Y-61804819D02*
X262023095Y-61852438D01*
X262023095Y-61852438D02*
X261975476Y-61900057D01*
X261975476Y-61900057D02*
X261927857Y-61995295D01*
X261927857Y-61995295D02*
X261927857Y-62138152D01*
X261927857Y-62138152D02*
X261975476Y-62233390D01*
X261975476Y-62233390D02*
X262023095Y-62281009D01*
X262023095Y-62281009D02*
X262118333Y-62328628D01*
X262118333Y-62328628D02*
X262499285Y-62328628D01*
X261546904Y-61900057D02*
X261499285Y-61852438D01*
X261499285Y-61852438D02*
X261404047Y-61804819D01*
X261404047Y-61804819D02*
X261165952Y-61804819D01*
X261165952Y-61804819D02*
X261070714Y-61852438D01*
X261070714Y-61852438D02*
X261023095Y-61900057D01*
X261023095Y-61900057D02*
X260975476Y-61995295D01*
X260975476Y-61995295D02*
X260975476Y-62090533D01*
X260975476Y-62090533D02*
X261023095Y-62233390D01*
X261023095Y-62233390D02*
X261594523Y-62804819D01*
X261594523Y-62804819D02*
X260975476Y-62804819D01*
X260023095Y-62804819D02*
X260594523Y-62804819D01*
X260308809Y-62804819D02*
X260308809Y-61804819D01*
X260308809Y-61804819D02*
X260404047Y-61947676D01*
X260404047Y-61947676D02*
X260499285Y-62042914D01*
X260499285Y-62042914D02*
X260594523Y-62090533D01*
X252981399Y-58302507D02*
X252981399Y-57502050D01*
X252142825Y-58226273D02*
X252180942Y-58264390D01*
X252180942Y-58264390D02*
X252295293Y-58302507D01*
X252295293Y-58302507D02*
X252371527Y-58302507D01*
X252371527Y-58302507D02*
X252485878Y-58264390D01*
X252485878Y-58264390D02*
X252562112Y-58188156D01*
X252562112Y-58188156D02*
X252600229Y-58111922D01*
X252600229Y-58111922D02*
X252638346Y-57959454D01*
X252638346Y-57959454D02*
X252638346Y-57845103D01*
X252638346Y-57845103D02*
X252600229Y-57692635D01*
X252600229Y-57692635D02*
X252562112Y-57616401D01*
X252562112Y-57616401D02*
X252485878Y-57540167D01*
X252485878Y-57540167D02*
X252371527Y-57502050D01*
X252371527Y-57502050D02*
X252295293Y-57502050D01*
X252295293Y-57502050D02*
X252180942Y-57540167D01*
X252180942Y-57540167D02*
X252142825Y-57578284D01*
X251761655Y-58302507D02*
X251609187Y-58302507D01*
X251609187Y-58302507D02*
X251532953Y-58264390D01*
X251532953Y-58264390D02*
X251494836Y-58226273D01*
X251494836Y-58226273D02*
X251418602Y-58111922D01*
X251418602Y-58111922D02*
X251380485Y-57959454D01*
X251380485Y-57959454D02*
X251380485Y-57654518D01*
X251380485Y-57654518D02*
X251418602Y-57578284D01*
X251418602Y-57578284D02*
X251456719Y-57540167D01*
X251456719Y-57540167D02*
X251532953Y-57502050D01*
X251532953Y-57502050D02*
X251685421Y-57502050D01*
X251685421Y-57502050D02*
X251761655Y-57540167D01*
X251761655Y-57540167D02*
X251799772Y-57578284D01*
X251799772Y-57578284D02*
X251837889Y-57654518D01*
X251837889Y-57654518D02*
X251837889Y-57845103D01*
X251837889Y-57845103D02*
X251799772Y-57921337D01*
X251799772Y-57921337D02*
X251761655Y-57959454D01*
X251761655Y-57959454D02*
X251685421Y-57997571D01*
X251685421Y-57997571D02*
X251532953Y-57997571D01*
X251532953Y-57997571D02*
X251456719Y-57959454D01*
X251456719Y-57959454D02*
X251418602Y-57921337D01*
X251418602Y-57921337D02*
X251380485Y-57845103D01*
D11*
%TO.C,R11*%
X266182500Y-68352742D02*
X266182500Y-68827258D01*
X267227500Y-68352742D02*
X267227500Y-68827258D01*
%TO.C,D9*%
X274563410Y-52694090D02*
X274563410Y-55354090D01*
X274563410Y-55354090D02*
X276263410Y-55354090D01*
X276263410Y-52694090D02*
X276263410Y-55354090D01*
%TO.C,C18*%
X264145000Y-68489419D02*
X264145000Y-68770581D01*
X265165000Y-68489419D02*
X265165000Y-68770581D01*
%TO.C,R4*%
X254977500Y-103947742D02*
X254977500Y-104422258D01*
X256022500Y-103947742D02*
X256022500Y-104422258D01*
%TO.C,C25*%
X278195581Y-54320000D02*
X277914419Y-54320000D01*
X278195581Y-55340000D02*
X277914419Y-55340000D01*
%TO.C,R13*%
X231057258Y-72207500D02*
X230582742Y-72207500D01*
X231057258Y-73252500D02*
X230582742Y-73252500D01*
D12*
%TO.C,IC4*%
X251770000Y-70100000D02*
X252770000Y-70100000D01*
X252770000Y-72300000D02*
X251770000Y-72300000D01*
D10*
X252545000Y-70550000D02*
G75*
G02*
X252395000Y-70550000I-75000J0D01*
G01*
X252395000Y-70550000D02*
G75*
G02*
X252545000Y-70550000I75000J0D01*
G01*
D11*
%TO.C,R20*%
X254922500Y-65362742D02*
X254922500Y-65837258D01*
X255967500Y-65362742D02*
X255967500Y-65837258D01*
%TO.C,R18*%
X261702742Y-68907500D02*
X262177258Y-68907500D01*
X261702742Y-69952500D02*
X262177258Y-69952500D01*
%TO.C,C13*%
X240370000Y-126109419D02*
X240370000Y-126390581D01*
X241390000Y-126109419D02*
X241390000Y-126390581D01*
%TO.C,R2*%
X274392258Y-82237500D02*
X273917742Y-82237500D01*
X274392258Y-83282500D02*
X273917742Y-83282500D01*
%TO.C,R14*%
X228907742Y-69637500D02*
X229382258Y-69637500D01*
X228907742Y-70682500D02*
X229382258Y-70682500D01*
%TO.C,C11*%
X247260000Y-125819419D02*
X247260000Y-126100581D01*
X248280000Y-125819419D02*
X248280000Y-126100581D01*
%TO.C,R23*%
X255622500Y-54077258D02*
X255622500Y-53602742D01*
X256667500Y-54077258D02*
X256667500Y-53602742D01*
%TO.C,R19*%
X266217500Y-62832742D02*
X266217500Y-63307258D01*
X267262500Y-62832742D02*
X267262500Y-63307258D01*
%TO.C,C34*%
X264020000Y-73999419D02*
X264020000Y-74280581D01*
X265040000Y-73999419D02*
X265040000Y-74280581D01*
%TO.C,D24*%
X268042500Y-74340000D02*
X268042500Y-76040000D01*
X270702500Y-74340000D02*
X268042500Y-74340000D01*
X270702500Y-76040000D02*
X268042500Y-76040000D01*
%TO.C,C10*%
X253550000Y-125949419D02*
X253550000Y-126230581D01*
X254570000Y-125949419D02*
X254570000Y-126230581D01*
%TO.C,C19*%
X278245581Y-62490000D02*
X277964419Y-62490000D01*
X278245581Y-63510000D02*
X277964419Y-63510000D01*
%TO.C,C31*%
X278445581Y-57330000D02*
X278164419Y-57330000D01*
X278445581Y-58350000D02*
X278164419Y-58350000D01*
%TO.C,R24*%
X248972742Y-54107500D02*
X249447258Y-54107500D01*
X248972742Y-55152500D02*
X249447258Y-55152500D01*
%TO.C,D5*%
X272266590Y-71576590D02*
X272266590Y-68916590D01*
X273966590Y-68916590D02*
X272266590Y-68916590D01*
X273966590Y-71576590D02*
X273966590Y-68916590D01*
%TO.C,R25*%
X248627742Y-59717500D02*
X249102258Y-59717500D01*
X248627742Y-60762500D02*
X249102258Y-60762500D01*
%TO.C,R22*%
X268691666Y-51789407D02*
X268356133Y-52124940D01*
X269430593Y-52528334D02*
X269095060Y-52863867D01*
%TO.C,C32*%
X266025000Y-59040581D02*
X266025000Y-58759419D01*
X267045000Y-59040581D02*
X267045000Y-58759419D01*
%TO.C,D2*%
X251618681Y-103915627D02*
X253358164Y-105655110D01*
X253358164Y-105655110D02*
X254397611Y-104615663D01*
X254397611Y-104615663D02*
X252658128Y-102876180D01*
D12*
%TO.C,IC7*%
X251650000Y-62990000D02*
X252650000Y-62990000D01*
X252650000Y-65190000D02*
X251650000Y-65190000D01*
D10*
X252425000Y-63440000D02*
G75*
G02*
X252275000Y-63440000I-75000J0D01*
G01*
X252275000Y-63440000D02*
G75*
G02*
X252425000Y-63440000I75000J0D01*
G01*
D11*
%TO.C,C23*%
X247284970Y-72228781D02*
X247483781Y-72029970D01*
X248006219Y-72950030D02*
X248205030Y-72751219D01*
%TO.C,R1*%
X265072258Y-83307500D02*
X264597742Y-83307500D01*
X265072258Y-84352500D02*
X264597742Y-84352500D01*
%TO.C,D11*%
X274340000Y-60109999D02*
X274340000Y-57449999D01*
X276040000Y-57449999D02*
X274340000Y-57449999D01*
X276040000Y-60109999D02*
X276040000Y-57449999D01*
%TO.C,C14*%
X246310000Y-64285581D02*
X246310000Y-64004419D01*
X247330000Y-64285581D02*
X247330000Y-64004419D01*
%TO.C,R12*%
X248937742Y-64247500D02*
X249412258Y-64247500D01*
X248937742Y-65292500D02*
X249412258Y-65292500D01*
%TO.C,D7*%
X273036590Y-65125910D02*
X273036590Y-62465910D01*
X274736590Y-62465910D02*
X273036590Y-62465910D01*
X274736590Y-65125910D02*
X274736590Y-62465910D01*
D12*
%TO.C,IC10*%
X251850000Y-75690000D02*
X252850000Y-75690000D01*
X252850000Y-77890000D02*
X251850000Y-77890000D01*
D10*
X252625000Y-76140000D02*
G75*
G02*
X252475000Y-76140000I-75000J0D01*
G01*
X252475000Y-76140000D02*
G75*
G02*
X252625000Y-76140000I75000J0D01*
G01*
D11*
%TO.C,R30*%
X254092500Y-61022742D02*
X254092500Y-61497258D01*
X255137500Y-61022742D02*
X255137500Y-61497258D01*
%TO.C,C2*%
X212810773Y-118477978D02*
X212611962Y-118676789D01*
X213532022Y-119199227D02*
X213333211Y-119398038D01*
%TO.C,R17*%
X255437500Y-71157258D02*
X255437500Y-70682742D01*
X256482500Y-71157258D02*
X256482500Y-70682742D01*
%TO.C,R16*%
X231637500Y-93607741D02*
X231637500Y-94082257D01*
X232682500Y-93607741D02*
X232682500Y-94082257D01*
%TO.C,C21*%
X246659970Y-56546219D02*
X246858781Y-56745030D01*
X247381219Y-55824970D02*
X247580030Y-56023781D01*
%TO.C,C16*%
X234855581Y-94280000D02*
X234574419Y-94280000D01*
X234855581Y-95300000D02*
X234574419Y-95300000D01*
D12*
%TO.C,IC8*%
X251400000Y-52830000D02*
X252400000Y-52830000D01*
X252400000Y-55030000D02*
X251400000Y-55030000D01*
D10*
X252175000Y-53280000D02*
G75*
G02*
X252025000Y-53280000I-75000J0D01*
G01*
X252025000Y-53280000D02*
G75*
G02*
X252175000Y-53280000I75000J0D01*
G01*
D11*
%TO.C,C33*%
X277790581Y-74620000D02*
X277509419Y-74620000D01*
X277790581Y-75640000D02*
X277509419Y-75640000D01*
%TO.C,C26*%
X264710000Y-51304419D02*
X264710000Y-51585581D01*
X265730000Y-51304419D02*
X265730000Y-51585581D01*
%TO.C,R38*%
X261292742Y-74497500D02*
X261767258Y-74497500D01*
X261292742Y-75542500D02*
X261767258Y-75542500D01*
%TO.C,C3*%
X211140773Y-117577978D02*
X210941962Y-117776789D01*
X211862022Y-118299227D02*
X211663211Y-118498038D01*
%TO.C,D8*%
X268162500Y-63009320D02*
X268162500Y-64709320D01*
X270822500Y-63009320D02*
X268162500Y-63009320D01*
X270822500Y-64709320D02*
X268162500Y-64709320D01*
%TO.C,D18*%
X270140001Y-57000000D02*
X270140001Y-58700000D01*
X272800001Y-57000000D02*
X270140001Y-57000000D01*
X272800001Y-58700000D02*
X270140001Y-58700000D01*
%TO.C,C12*%
X245950000Y-69460581D02*
X245950000Y-69179419D01*
X246970000Y-69460581D02*
X246970000Y-69179419D01*
%TO.C,C22*%
X246040000Y-59585581D02*
X246040000Y-59304419D01*
X247060000Y-59585581D02*
X247060000Y-59304419D01*
%TO.C,R10*%
X248577742Y-69567500D02*
X249052258Y-69567500D01*
X248577742Y-70612500D02*
X249052258Y-70612500D01*
%TO.C,C7*%
X259810000Y-125614419D02*
X259810000Y-125895581D01*
X260830000Y-125614419D02*
X260830000Y-125895581D01*
%TO.C,R27*%
X261467742Y-51727500D02*
X261942258Y-51727500D01*
X261467742Y-52772500D02*
X261942258Y-52772500D01*
%TO.C,D19*%
X272486590Y-77265910D02*
X272486590Y-74605910D01*
X274186590Y-74605910D02*
X272486590Y-74605910D01*
X274186590Y-77265910D02*
X274186590Y-74605910D01*
%TO.C,R26*%
X248439407Y-75028334D02*
X248774940Y-75363867D01*
X249178334Y-74289407D02*
X249513867Y-74624940D01*
%TO.C,R31*%
X261442742Y-57657500D02*
X261917258Y-57657500D01*
X261442742Y-58702500D02*
X261917258Y-58702500D01*
%TO.C,C17*%
X277755581Y-68830680D02*
X277474419Y-68830680D01*
X277755581Y-69850680D02*
X277474419Y-69850680D01*
%TO.C,D6*%
X268060000Y-68600000D02*
X268060000Y-70300000D01*
X270720000Y-68600000D02*
X268060000Y-68600000D01*
X270720000Y-70300000D02*
X268060000Y-70300000D01*
%TO.C,U4*%
X228800000Y-99070000D02*
X228799999Y-102830000D01*
X230059999Y-99070000D02*
X228800000Y-99070000D01*
X234360001Y-99070000D02*
X235620000Y-99070000D01*
X235620000Y-99070000D02*
X235620000Y-105080000D01*
%TO.C,R37*%
X254927500Y-76947258D02*
X254927500Y-76472742D01*
X255972500Y-76947258D02*
X255972500Y-76472742D01*
%TO.C,C20*%
X263929999Y-62814419D02*
X263929999Y-63095581D01*
X264949999Y-62814419D02*
X264949999Y-63095581D01*
%TO.C,D10*%
X269579090Y-54035230D02*
X269579090Y-55735230D01*
X272239090Y-54035230D02*
X269579090Y-54035230D01*
X272239090Y-55735230D02*
X269579090Y-55735230D01*
D13*
%TO.C,Q1*%
X234979200Y-70423800D02*
X234522000Y-70423800D01*
X234979200Y-71045000D02*
X234979200Y-70423800D01*
X234979200Y-73116200D02*
X234522000Y-73116200D01*
X234979200Y-73116200D02*
X234979200Y-72495000D01*
D11*
%TO.C,R36*%
X265942500Y-73972742D02*
X265942500Y-74447258D01*
X266987500Y-73972742D02*
X266987500Y-74447258D01*
%TO.C,R28*%
X268177500Y-57057742D02*
X268177500Y-57532258D01*
X269222500Y-57057742D02*
X269222500Y-57532258D01*
%TO.C,R21*%
X261047742Y-63257500D02*
X261522258Y-63257500D01*
X261047742Y-64302500D02*
X261522258Y-64302500D01*
D12*
%TO.C,IC9*%
X251570000Y-58700000D02*
X252570000Y-58700000D01*
X252570000Y-60900000D02*
X251570000Y-60900000D01*
D10*
X252345000Y-59150000D02*
G75*
G02*
X252195000Y-59150000I-75000J0D01*
G01*
X252195000Y-59150000D02*
G75*
G02*
X252345000Y-59150000I75000J0D01*
G01*
%TD*%
M02*
