M48
; DRILL file {KiCad 8.0.0} date 2026-04-12T02:19:44+0800
; FORMAT={-:-/ absolute / inch / decimal}
; #@! TF.CreationDate,2026-04-12T02:19:44+08:00
; #@! TF.GenerationSoftware,Kicad,Pcbnew,8.0.0
; #@! TF.FileFunction,Plated,1,2,PTH
FMAT,2
INCH
; #@! TA.AperFunction,Plated,PTH,ComponentDrill
T1C0.0118
; #@! TA.AperFunction,Plated,PTH,ViaDrill
T2C0.0120
; #@! TA.AperFunction,Plated,PTH,ComponentDrill
T3C0.0315
; #@! TA.AperFunction,Plated,PTH,ComponentDrill
T4C0.0354
; #@! TA.AperFunction,Plated,PTH,ComponentDrill
T5C0.0374
; #@! TA.AperFunction,Plated,PTH,ComponentDrill
T6C0.0394
; #@! TA.AperFunction,Plated,PTH,ComponentDrill
T7C0.0472
; #@! TA.AperFunction,Plated,PTH,ComponentDrill
T8C0.1063
%
G90
G05
T1
X8.565Y-4.7181
X8.565Y-4.7654
X8.565Y-4.8165
X8.565Y-4.8598
X8.6122Y-4.7181
X8.6122Y-4.7654
X8.6122Y-4.8165
X8.6122Y-4.8598
T2
X8.9614Y-2.1768
X8.9671Y-4.1624
X9.122Y-3.422
X9.3071Y-2.1933
X9.4831Y-4.8972
X9.5445Y-3.9909
X9.6185Y-4.0703
X9.7382Y-3.8362
X9.7409Y-4.0319
X9.7579Y-4.8886
X9.8008Y-3.9602
X9.8102Y-2.0929
X9.8398Y-2.4921
X9.8429Y-2.3232
X9.8976Y-4.6724
X9.9724Y-4.5567
X10.0035Y-4.8929
X10.1126Y-4.276
X10.252Y-4.887
X10.276Y-4.1559
X10.2776Y-4.3476
X10.7402Y-4.3571
X10.9972Y-2.3713
X11.0346Y-4.739
X11.052Y-5.0823
X11.1665Y-4.3516
X11.4909Y-4.8598
X11.5189Y-2.6571
X11.5189Y-3.0268
T3
X9.0232Y-4.3729
X9.0232Y-4.5698
X10.2071Y-2.15
X10.2098Y-2.3685
X10.2114Y-2.5921
X10.2122Y-2.8102
X10.2126Y-3.0327
X10.3071Y-2.15
X10.3098Y-2.3685
X10.3114Y-2.5921
X10.3122Y-2.8102
X10.3126Y-3.0327
X10.4071Y-2.15
X10.4098Y-2.3685
X10.4114Y-2.5921
X10.4122Y-2.8102
X10.4126Y-3.0327
T4
X8.7358Y-2.0583
X8.7358Y-2.1583
X8.7358Y-2.2583
X8.7358Y-2.3583
X8.7358Y-2.4583
X8.7358Y-2.5583
X8.7358Y-2.6583
X8.7358Y-2.7583
X8.7358Y-2.8583
X8.7358Y-2.9583
X8.7358Y-3.0583
X8.7358Y-3.1583
X8.7358Y-3.2583
X8.7358Y-3.3583
X8.7358Y-3.4583
X8.7358Y-3.5583
X8.8358Y-2.0583
X8.8358Y-2.1583
X8.8358Y-2.2583
X8.8358Y-2.3583
X8.8358Y-2.4583
X8.8358Y-2.5583
X8.8358Y-2.6583
X8.8358Y-2.7583
X8.8358Y-2.8583
X8.8358Y-2.9583
X8.8358Y-3.0583
X8.8358Y-3.1583
X8.8358Y-3.2583
X8.8358Y-3.3583
X8.8358Y-3.4583
X8.8358Y-3.5583
X9.0618Y-3.1114
X9.2587Y-3.1114
X9.5358Y-2.0583
X9.5358Y-2.1583
X9.5358Y-2.2583
X9.5358Y-2.3583
X9.5358Y-2.4583
X9.5358Y-2.5583
X9.5358Y-2.6583
X9.5358Y-2.7583
X9.5358Y-2.8583
X9.5358Y-2.9583
X9.5358Y-3.0583
X9.5358Y-3.1583
X9.5358Y-3.2583
X9.5358Y-3.3583
X9.5358Y-3.4583
X9.5358Y-3.5583
X9.6358Y-2.0583
X9.6358Y-2.1583
X9.6358Y-2.2583
X9.6358Y-2.3583
X9.6358Y-2.4583
X9.6358Y-2.5583
X9.6358Y-2.6583
X9.6358Y-2.7583
X9.6358Y-2.8583
X9.6358Y-2.9583
X9.6358Y-3.0583
X9.6358Y-3.1583
X9.6358Y-3.2583
X9.6358Y-3.3583
X9.6358Y-3.4583
X9.6358Y-3.5583
T5
X7.985Y-2.8142
X7.985Y-2.9126
X7.985Y-3.011
X7.985Y-3.1094
X9.5012Y-4.3128
X9.5996Y-4.3128
X9.698Y-4.3128
X9.7965Y-4.3128
X11.1504Y-2.7598
X11.1504Y-2.8583
X11.1504Y-2.9567
X11.1504Y-3.0551
X11.1969Y-2.1783
X11.1969Y-2.2768
X11.1969Y-2.3752
X11.1969Y-2.4736
T6
X7.9465Y-3.322
X7.9465Y-3.422
X7.9465Y-3.522
X7.9465Y-3.622
X7.9498Y-2.3224
X7.9498Y-2.4224
X7.9498Y-2.5224
X7.9498Y-2.6224
X8.0465Y-3.322
X8.0465Y-3.422
X8.0465Y-3.522
X8.0465Y-3.622
X8.0498Y-2.3224
X8.0498Y-2.4224
X8.0498Y-2.5224
X8.0498Y-2.6224
X8.0941Y-3.8941
X8.0941Y-3.7941
X8.1941Y-3.7941
X8.1941Y-3.8941
X8.2941Y-3.7941
X8.2941Y-3.8941
X8.3008Y-2.412
X8.3071Y-2.7134
X8.3157Y-3.1415
X8.3992Y-2.412
X8.4055Y-2.7134
X8.4142Y-3.1415
X8.5722Y-3.9006
X8.5722Y-3.8006
X8.6722Y-3.8006
X8.6722Y-3.9006
X8.7722Y-3.8006
X8.7722Y-3.9006
X8.9799Y-5.0744
X8.9799Y-4.9744
X9.0799Y-4.9744
X9.0799Y-5.0744
X9.1799Y-4.9744
X9.1799Y-5.0744
X9.3134Y-4.6512
X9.3134Y-4.5512
X9.4134Y-4.5512
X9.4134Y-4.6512
X9.5134Y-4.5512
X9.5134Y-4.6512
X10.5831Y-3.3417
X10.6831Y-3.3417
X10.7831Y-3.3417
X10.8831Y-3.3417
X10.9831Y-3.3417
X11.0831Y-3.3417
X11.1831Y-3.3417
X11.2831Y-3.3417
T8
X8.2087Y-5.1543
X8.4055Y-5.1543
T7
G00X7.9039Y-4.6098
M15
G01X8.0654Y-4.6098
M16
G05
G00X7.9039Y-4.8854
M15
G01X8.0654Y-4.8854
M16
G05
M30
