%TF.GenerationSoftware,KiCad,Pcbnew,8.0.0*%
%TF.CreationDate,2026-04-12T02:19:40+08:00*%
%TF.ProjectId,STC_mainboard,5354435f-6d61-4696-9e62-6f6172642e6b,rev?*%
%TF.SameCoordinates,Original*%
%TF.FileFunction,Soldermask,Bot*%
%TF.FilePolarity,Negative*%
%FSLAX46Y46*%
G04 Gerber Fmt 4.6, Leading zero omitted, Abs format (unit mm)*
G04 Created by KiCad (PCBNEW 8.0.0) date 2026-04-12 02:19:40*
%MOMM*%
%LPD*%
G01*
G04 APERTURE LIST*
G04 Aperture macros list*
%AMRoundRect*
0 Rectangle with rounded corners*
0 $1 Rounding radius*
0 $2 $3 $4 $5 $6 $7 $8 $9 X,Y pos of 4 corners*
0 Add a 4 corners polygon primitive as box body*
4,1,4,$2,$3,$4,$5,$6,$7,$8,$9,$2,$3,0*
0 Add four circle primitives for the rounded corners*
1,1,$1+$1,$2,$3*
1,1,$1+$1,$4,$5*
1,1,$1+$1,$6,$7*
1,1,$1+$1,$8,$9*
0 Add four rect primitives between the rounded corners*
20,1,$1+$1,$2,$3,$4,$5,0*
20,1,$1+$1,$4,$5,$6,$7,0*
20,1,$1+$1,$6,$7,$8,$9,0*
20,1,$1+$1,$8,$9,$2,$3,0*%
G04 Aperture macros list end*
%ADD10C,1.200000*%
%ADD11RoundRect,0.250000X-0.600000X-0.725000X0.600000X-0.725000X0.600000X0.725000X-0.600000X0.725000X0*%
%ADD12O,1.700000X1.950000*%
%ADD13C,1.440000*%
%ADD14C,3.200000*%
%ADD15RoundRect,0.250000X0.725000X-0.600000X0.725000X0.600000X-0.725000X0.600000X-0.725000X-0.600000X0*%
%ADD16O,1.950000X1.700000*%
%ADD17R,1.700000X1.700000*%
%ADD18O,1.700000X1.700000*%
%ADD19C,1.500000*%
%ADD20O,6.500000X2.000000*%
%ADD21RoundRect,0.250000X-0.600000X-0.750000X0.600000X-0.750000X0.600000X0.750000X-0.600000X0.750000X0*%
%ADD22O,1.700000X2.000000*%
%ADD23R,3.800000X3.800000*%
%ADD24C,4.000000*%
%ADD25RoundRect,0.250000X-0.725000X0.600000X-0.725000X-0.600000X0.725000X-0.600000X0.725000X0.600000X0*%
%ADD26R,1.600000X1.600000*%
%ADD27C,1.600000*%
%ADD28RoundRect,0.200000X0.275000X-0.200000X0.275000X0.200000X-0.275000X0.200000X-0.275000X-0.200000X0*%
%ADD29RoundRect,0.125000X0.125000X-0.125000X0.125000X0.125000X-0.125000X0.125000X-0.125000X-0.125000X0*%
%ADD30RoundRect,0.225000X0.250000X-0.225000X0.250000X0.225000X-0.250000X0.225000X-0.250000X-0.225000X0*%
%ADD31RoundRect,0.225000X-0.225000X-0.250000X0.225000X-0.250000X0.225000X0.250000X-0.225000X0.250000X0*%
%ADD32RoundRect,0.200000X-0.200000X-0.275000X0.200000X-0.275000X0.200000X0.275000X-0.200000X0.275000X0*%
%ADD33RoundRect,0.102000X-0.400000X0.175000X-0.400000X-0.175000X0.400000X-0.175000X0.400000X0.175000X0*%
%ADD34RoundRect,0.200000X0.200000X0.275000X-0.200000X0.275000X-0.200000X-0.275000X0.200000X-0.275000X0*%
%ADD35RoundRect,0.200000X-0.275000X0.200000X-0.275000X-0.200000X0.275000X-0.200000X0.275000X0.200000X0*%
%ADD36RoundRect,0.125000X-0.125000X-0.125000X0.125000X-0.125000X0.125000X0.125000X-0.125000X0.125000X0*%
%ADD37RoundRect,0.125000X-0.125000X0.125000X-0.125000X-0.125000X0.125000X-0.125000X0.125000X0.125000X0*%
%ADD38RoundRect,0.200000X0.053033X-0.335876X0.335876X-0.053033X-0.053033X0.335876X-0.335876X0.053033X0*%
%ADD39RoundRect,0.225000X-0.250000X0.225000X-0.250000X-0.225000X0.250000X-0.225000X0.250000X0.225000X0*%
%ADD40RoundRect,0.237500X0.371231X-0.035355X-0.035355X0.371231X-0.371231X0.035355X0.035355X-0.371231X0*%
%ADD41RoundRect,0.225000X-0.017678X0.335876X-0.335876X0.017678X0.017678X-0.335876X0.335876X-0.017678X0*%
%ADD42RoundRect,0.225000X0.017678X-0.335876X0.335876X-0.017678X-0.017678X0.335876X-0.335876X0.017678X0*%
%ADD43RoundRect,0.225000X0.335876X0.017678X0.017678X0.335876X-0.335876X-0.017678X-0.017678X-0.335876X0*%
%ADD44RoundRect,0.200000X0.335876X0.053033X0.053033X0.335876X-0.335876X-0.053033X-0.053033X-0.335876X0*%
%ADD45R,1.500000X2.000000*%
%ADD46R,3.800000X2.000000*%
%ADD47R,1.050000X0.650000*%
G04 APERTURE END LIST*
D10*
%TO.C,J2*%
X239730000Y-111545000D03*
D11*
X241330000Y-109545000D03*
D12*
X243830000Y-109545000D03*
X246330000Y-109545000D03*
X248830000Y-109545000D03*
%TD*%
D13*
%TO.C,RV2*%
X264450000Y-65840000D03*
X261910000Y-65840000D03*
X259370000Y-65840000D03*
%TD*%
D14*
%TO.C,H3*%
X290960000Y-131730000D03*
%TD*%
D15*
%TO.C,J10*%
X202820000Y-78980000D03*
D16*
X202820000Y-76480000D03*
X202820000Y-73980000D03*
X202820000Y-71480000D03*
%TD*%
D14*
%TO.C,H1*%
X198630000Y-53830000D03*
%TD*%
D17*
%TO.C,J5*%
X204465000Y-66610000D03*
D18*
X201925000Y-66610000D03*
X204465000Y-64070000D03*
X201925000Y-64070000D03*
X204465000Y-61530001D03*
X201925000Y-61530000D03*
X204465000Y-58990000D03*
X201925000Y-58990000D03*
%TD*%
D19*
%TO.C,U1*%
X221890000Y-52280000D03*
X224430000Y-52280000D03*
X221890000Y-54820001D03*
X224430000Y-54820000D03*
X221890000Y-57360000D03*
X224430000Y-57360000D03*
X221890000Y-59900000D03*
X224430000Y-59900000D03*
X221890000Y-62440000D03*
X224430000Y-62440000D03*
X221890000Y-64979999D03*
X224430000Y-64980000D03*
X221890000Y-67520000D03*
X224430000Y-67520000D03*
X221890000Y-70060000D03*
X224430000Y-70060000D03*
X221890000Y-72600000D03*
X224430000Y-72600000D03*
X221890000Y-75140000D03*
X224430000Y-75140000D03*
X221890000Y-77680001D03*
X224430000Y-77680000D03*
X221890000Y-80220000D03*
X224430000Y-80220000D03*
X221890000Y-82760000D03*
X224430000Y-82760000D03*
X221890000Y-85300000D03*
X224430000Y-85300000D03*
X221890000Y-87839999D03*
X224430000Y-87840000D03*
X221890000Y-90380000D03*
X224430000Y-90380000D03*
X242210000Y-90380000D03*
X244750000Y-90380000D03*
X242210000Y-87840000D03*
X244750000Y-87839999D03*
X242210000Y-85300000D03*
X244750000Y-85300000D03*
X242210000Y-82760000D03*
X244750000Y-82760000D03*
X242210000Y-80220000D03*
X244750000Y-80220000D03*
X242210000Y-77680000D03*
X244750000Y-77680001D03*
X242210000Y-75140000D03*
X244750000Y-75140000D03*
X242210000Y-72600000D03*
X244750000Y-72600000D03*
X242210000Y-70060000D03*
X244750000Y-70060000D03*
X242210000Y-67520000D03*
X244750000Y-67520000D03*
X242210000Y-64980000D03*
X244750000Y-64979999D03*
X242210000Y-62440000D03*
X244750000Y-62440000D03*
X242210000Y-59900000D03*
X244750000Y-59900000D03*
X242210000Y-57360000D03*
X244750000Y-57360000D03*
X242210000Y-54820000D03*
X244750000Y-54820001D03*
X242210000Y-52280000D03*
X244750000Y-52280000D03*
%TD*%
D17*
%TO.C,P1*%
X210670000Y-96369999D03*
D18*
X210670000Y-98909999D03*
X208130000Y-96369999D03*
X208130000Y-98909999D03*
X205590001Y-96369999D03*
X205590000Y-98909999D03*
%TD*%
D14*
%TO.C,H4*%
X198890000Y-131730000D03*
%TD*%
D17*
%TO.C,J15*%
X233170000Y-126350000D03*
D18*
X233170000Y-128890000D03*
X230630000Y-126350000D03*
X230630000Y-128890000D03*
X228090001Y-126350000D03*
X228090000Y-128890000D03*
%TD*%
D13*
%TO.C,RV3*%
X264340002Y-54609998D03*
X261800002Y-54609998D03*
X259260003Y-54609998D03*
%TD*%
%TO.C,RV1*%
X264470000Y-71380000D03*
X261930000Y-71380000D03*
X259390000Y-71380000D03*
%TD*%
D20*
%TO.C,SW5*%
X202810000Y-124089999D03*
X202810000Y-117090000D03*
%TD*%
D21*
%TO.C,J11*%
X211220000Y-79795000D03*
D22*
X213720000Y-79795000D03*
%TD*%
D21*
%TO.C,J9*%
X211000000Y-68920000D03*
D22*
X213500000Y-68920000D03*
%TD*%
D21*
%TO.C,J7*%
X210840000Y-61265000D03*
D22*
X213340000Y-61265000D03*
%TD*%
D17*
%TO.C,P2*%
X222815000Y-96535000D03*
D18*
X222815000Y-99075000D03*
X220275000Y-96535000D03*
X220275000Y-99075000D03*
X217735001Y-96535000D03*
X217735000Y-99075000D03*
%TD*%
D23*
%TO.C,J4*%
X213500000Y-130920000D03*
D24*
X208500000Y-130920000D03*
%TD*%
D19*
%TO.C,B1*%
X230170000Y-79030000D03*
X235170000Y-79030000D03*
%TD*%
D13*
%TO.C,RV5*%
X264480000Y-77030000D03*
X261940000Y-77030000D03*
X259400000Y-77030000D03*
%TD*%
D17*
%TO.C,J6*%
X204380000Y-92000000D03*
D18*
X201840000Y-92000000D03*
X204380000Y-89460000D03*
X201840000Y-89460000D03*
X204380000Y-86920001D03*
X201840000Y-86920000D03*
X204380000Y-84380000D03*
X201840000Y-84380000D03*
%TD*%
D10*
%TO.C,J12*%
X282400000Y-53730000D03*
D25*
X284400000Y-55330000D03*
D16*
X284400000Y-57830000D03*
X284400000Y-60330000D03*
X284400000Y-62830000D03*
%TD*%
D14*
%TO.C,H2*%
X290960000Y-53830000D03*
%TD*%
D26*
%TO.C,C9*%
X229190000Y-116072651D03*
D27*
X229190000Y-111072651D03*
%TD*%
D17*
%TO.C,J1*%
X268810000Y-84880000D03*
D18*
X271350000Y-84880000D03*
X273889999Y-84880000D03*
X276430000Y-84880000D03*
X278970000Y-84880000D03*
X281510000Y-84880000D03*
X284050000Y-84880000D03*
X286590001Y-84880000D03*
%TD*%
D13*
%TO.C,RV4*%
X264410000Y-60160000D03*
X261870000Y-60160000D03*
X259330000Y-60160000D03*
%TD*%
D17*
%TO.C,J16*%
X241639999Y-115600000D03*
D18*
X241639999Y-118140000D03*
X239099999Y-115600000D03*
X239099999Y-118140000D03*
X236560000Y-115600000D03*
X236559999Y-118140000D03*
%TD*%
D10*
%TO.C,J14*%
X285220000Y-79200000D03*
D15*
X283220000Y-77600000D03*
D16*
X283220000Y-75100000D03*
X283220000Y-72600000D03*
X283220000Y-70100000D03*
%TD*%
D28*
%TO.C,R11*%
X266705000Y-69415000D03*
X266705000Y-67765000D03*
%TD*%
D29*
%TO.C,D9*%
X275413410Y-54844089D03*
X275413410Y-52644091D03*
%TD*%
D30*
%TO.C,C18*%
X264655000Y-69405000D03*
X264655000Y-67855000D03*
%TD*%
D28*
%TO.C,R4*%
X255500000Y-105010000D03*
X255500000Y-103360000D03*
%TD*%
D31*
%TO.C,C25*%
X277280000Y-54830000D03*
X278830000Y-54830000D03*
%TD*%
D32*
%TO.C,R13*%
X229995000Y-72730000D03*
X231645000Y-72730000D03*
%TD*%
D33*
%TO.C,IC4*%
X253120000Y-70550000D03*
X253120000Y-71200000D03*
X253120000Y-71850000D03*
X251420000Y-71850000D03*
X251420000Y-70550000D03*
%TD*%
D28*
%TO.C,R20*%
X255445000Y-66425000D03*
X255445000Y-64775000D03*
%TD*%
D34*
%TO.C,R18*%
X262765000Y-69430000D03*
X261115000Y-69430000D03*
%TD*%
D30*
%TO.C,C13*%
X240880000Y-127025000D03*
X240880000Y-125475000D03*
%TD*%
D32*
%TO.C,R2*%
X273330000Y-82760000D03*
X274980000Y-82760000D03*
%TD*%
D34*
%TO.C,R14*%
X229970000Y-70160000D03*
X228320000Y-70160000D03*
%TD*%
D30*
%TO.C,C11*%
X247770000Y-126735000D03*
X247770000Y-125185000D03*
%TD*%
D35*
%TO.C,R23*%
X256145000Y-53015000D03*
X256145000Y-54665000D03*
%TD*%
D28*
%TO.C,R19*%
X266740000Y-63895000D03*
X266740000Y-62245000D03*
%TD*%
D30*
%TO.C,C34*%
X264530000Y-74915000D03*
X264530000Y-73365000D03*
%TD*%
D36*
%TO.C,D24*%
X268552501Y-75190000D03*
X270752499Y-75190000D03*
%TD*%
D30*
%TO.C,C10*%
X254060000Y-126865000D03*
X254060000Y-125315000D03*
%TD*%
D31*
%TO.C,C19*%
X277330000Y-63000000D03*
X278880000Y-63000000D03*
%TD*%
%TO.C,C31*%
X277530000Y-57840000D03*
X279080000Y-57840000D03*
%TD*%
D34*
%TO.C,R24*%
X250035000Y-54630000D03*
X248385000Y-54630000D03*
%TD*%
D37*
%TO.C,D5*%
X273116590Y-69426591D03*
X273116590Y-71626589D03*
%TD*%
D34*
%TO.C,R25*%
X249690000Y-60240000D03*
X248040000Y-60240000D03*
%TD*%
D38*
%TO.C,R22*%
X268310000Y-52910000D03*
X269476726Y-51743274D03*
%TD*%
D39*
%TO.C,C32*%
X266535000Y-58125000D03*
X266535000Y-59675000D03*
%TD*%
D40*
%TO.C,D2*%
X253322808Y-104580307D03*
X252085372Y-103342871D03*
%TD*%
D33*
%TO.C,IC7*%
X253000000Y-63440000D03*
X253000000Y-64090000D03*
X253000000Y-64740000D03*
X251300000Y-64740000D03*
X251300000Y-63440000D03*
%TD*%
D41*
%TO.C,C23*%
X248293008Y-71941992D03*
X247196992Y-73038008D03*
%TD*%
D32*
%TO.C,R1*%
X264010000Y-83830000D03*
X265660000Y-83830000D03*
%TD*%
D37*
%TO.C,D11*%
X275190000Y-57960000D03*
X275190000Y-60159998D03*
%TD*%
D39*
%TO.C,C14*%
X246820000Y-63370000D03*
X246820000Y-64920000D03*
%TD*%
D34*
%TO.C,R12*%
X250000000Y-64770000D03*
X248350000Y-64770000D03*
%TD*%
D37*
%TO.C,D7*%
X273886590Y-62975911D03*
X273886590Y-65175909D03*
%TD*%
D33*
%TO.C,IC10*%
X253200000Y-76140000D03*
X253200000Y-76790000D03*
X253200000Y-77440000D03*
X251500000Y-77440000D03*
X251500000Y-76140000D03*
%TD*%
D28*
%TO.C,R30*%
X254615000Y-62085000D03*
X254615000Y-60435000D03*
%TD*%
D42*
%TO.C,C2*%
X212523984Y-119486016D03*
X213620000Y-118390000D03*
%TD*%
D35*
%TO.C,R17*%
X255960000Y-70095000D03*
X255960000Y-71745000D03*
%TD*%
D28*
%TO.C,R16*%
X232160000Y-94669999D03*
X232160000Y-93019999D03*
%TD*%
D43*
%TO.C,C21*%
X247668008Y-56833008D03*
X246571992Y-55736992D03*
%TD*%
D31*
%TO.C,C16*%
X233940000Y-94790000D03*
X235490000Y-94790000D03*
%TD*%
D33*
%TO.C,IC8*%
X252750000Y-53280000D03*
X252750000Y-53930000D03*
X252750000Y-54580000D03*
X251050000Y-54580000D03*
X251050000Y-53280000D03*
%TD*%
D31*
%TO.C,C33*%
X276875000Y-75130000D03*
X278425000Y-75130000D03*
%TD*%
D30*
%TO.C,C26*%
X265220000Y-52220000D03*
X265220000Y-50670000D03*
%TD*%
D34*
%TO.C,R38*%
X262355000Y-75020000D03*
X260705000Y-75020000D03*
%TD*%
D42*
%TO.C,C3*%
X210853984Y-118586016D03*
X211950000Y-117490000D03*
%TD*%
D36*
%TO.C,D8*%
X268672501Y-63859320D03*
X270872499Y-63859320D03*
%TD*%
%TO.C,D18*%
X270650002Y-57850000D03*
X272850000Y-57850000D03*
%TD*%
D39*
%TO.C,C12*%
X246460000Y-68545000D03*
X246460000Y-70095000D03*
%TD*%
%TO.C,C22*%
X246550000Y-58670000D03*
X246550000Y-60220000D03*
%TD*%
D34*
%TO.C,R10*%
X249640000Y-70090000D03*
X247990000Y-70090000D03*
%TD*%
D30*
%TO.C,C7*%
X260320000Y-126530000D03*
X260320000Y-124980000D03*
%TD*%
D34*
%TO.C,R27*%
X262530000Y-52250000D03*
X260880000Y-52250000D03*
%TD*%
D37*
%TO.C,D19*%
X273336590Y-75115911D03*
X273336590Y-77315909D03*
%TD*%
D44*
%TO.C,R26*%
X249560000Y-75410000D03*
X248393274Y-74243274D03*
%TD*%
D34*
%TO.C,R31*%
X262505000Y-58180000D03*
X260855000Y-58180000D03*
%TD*%
D31*
%TO.C,C17*%
X276840000Y-69340680D03*
X278390000Y-69340680D03*
%TD*%
D36*
%TO.C,D6*%
X268570001Y-69450000D03*
X270769999Y-69450000D03*
%TD*%
D45*
%TO.C,U4*%
X234510000Y-104130000D03*
X232210000Y-104129999D03*
X229910000Y-104130000D03*
D46*
X232210000Y-97830001D03*
%TD*%
D35*
%TO.C,R37*%
X255450000Y-75885000D03*
X255450000Y-77535000D03*
%TD*%
D30*
%TO.C,C20*%
X264439999Y-63730000D03*
X264439999Y-62180000D03*
%TD*%
D36*
%TO.C,D10*%
X270089091Y-54885230D03*
X272289089Y-54885230D03*
%TD*%
D47*
%TO.C,Q1*%
X233245000Y-72720000D03*
X233245000Y-70820000D03*
X235545000Y-71770000D03*
%TD*%
D28*
%TO.C,R36*%
X266465000Y-75035000D03*
X266465000Y-73385000D03*
%TD*%
%TO.C,R28*%
X268700000Y-58120000D03*
X268700000Y-56470000D03*
%TD*%
D34*
%TO.C,R21*%
X262110000Y-63780000D03*
X260460000Y-63780000D03*
%TD*%
D33*
%TO.C,IC9*%
X252920000Y-59150000D03*
X252920000Y-59800000D03*
X252920000Y-60450000D03*
X251220000Y-60450000D03*
X251220000Y-59150000D03*
%TD*%
M02*
