%TF.GenerationSoftware,KiCad,Pcbnew,8.0.0*%
%TF.CreationDate,2026-04-12T02:19:40+08:00*%
%TF.ProjectId,STC_mainboard,5354435f-6d61-4696-9e62-6f6172642e6b,rev?*%
%TF.SameCoordinates,Original*%
%TF.FileFunction,Soldermask,Top*%
%TF.FilePolarity,Negative*%
%FSLAX46Y46*%
G04 Gerber Fmt 4.6, Leading zero omitted, Abs format (unit mm)*
G04 Created by KiCad (PCBNEW 8.0.0) date 2026-04-12 02:19:40*
%MOMM*%
%LPD*%
G01*
G04 APERTURE LIST*
G04 Aperture macros list*
%AMRoundRect*
0 Rectangle with rounded corners*
0 $1 Rounding radius*
0 $2 $3 $4 $5 $6 $7 $8 $9 X,Y pos of 4 corners*
0 Add a 4 corners polygon primitive as box body*
4,1,4,$2,$3,$4,$5,$6,$7,$8,$9,$2,$3,0*
0 Add four circle primitives for the rounded corners*
1,1,$1+$1,$2,$3*
1,1,$1+$1,$4,$5*
1,1,$1+$1,$6,$7*
1,1,$1+$1,$8,$9*
0 Add four rect primitives between the rounded corners*
20,1,$1+$1,$2,$3,$4,$5,0*
20,1,$1+$1,$4,$5,$6,$7,0*
20,1,$1+$1,$6,$7,$8,$9,0*
20,1,$1+$1,$8,$9,$2,$3,0*%
G04 Aperture macros list end*
%ADD10C,1.200000*%
%ADD11RoundRect,0.250000X-0.600000X-0.725000X0.600000X-0.725000X0.600000X0.725000X-0.600000X0.725000X0*%
%ADD12O,1.700000X1.950000*%
%ADD13R,1.120000X2.160000*%
%ADD14RoundRect,0.200000X-0.200000X-0.275000X0.200000X-0.275000X0.200000X0.275000X-0.200000X0.275000X0*%
%ADD15RoundRect,0.200000X-0.275000X0.200000X-0.275000X-0.200000X0.275000X-0.200000X0.275000X0.200000X0*%
%ADD16C,1.440000*%
%ADD17RoundRect,0.237500X0.237500X-0.287500X0.237500X0.287500X-0.237500X0.287500X-0.237500X-0.287500X0*%
%ADD18C,3.200000*%
%ADD19RoundRect,0.200000X0.275000X-0.200000X0.275000X0.200000X-0.275000X0.200000X-0.275000X-0.200000X0*%
%ADD20RoundRect,0.225000X0.250000X-0.225000X0.250000X0.225000X-0.250000X0.225000X-0.250000X-0.225000X0*%
%ADD21RoundRect,0.250000X0.725000X-0.600000X0.725000X0.600000X-0.725000X0.600000X-0.725000X-0.600000X0*%
%ADD22O,1.950000X1.700000*%
%ADD23R,1.700000X1.700000*%
%ADD24O,1.700000X1.700000*%
%ADD25C,1.500000*%
%ADD26R,1.550000X0.600000*%
%ADD27R,2.600000X3.100000*%
%ADD28RoundRect,0.225000X-0.225000X-0.250000X0.225000X-0.250000X0.225000X0.250000X-0.225000X0.250000X0*%
%ADD29R,1.500000X2.200000*%
%ADD30R,1.800000X2.500000*%
%ADD31O,6.500000X2.000000*%
%ADD32RoundRect,0.250000X-0.600000X-0.750000X0.600000X-0.750000X0.600000X0.750000X-0.600000X0.750000X0*%
%ADD33O,1.700000X2.000000*%
%ADD34R,3.800000X3.800000*%
%ADD35C,4.000000*%
%ADD36RoundRect,0.250000X-0.725000X0.600000X-0.725000X-0.600000X0.725000X-0.600000X0.725000X0.600000X0*%
%ADD37R,1.600000X1.600000*%
%ADD38C,1.600000*%
%ADD39R,0.576580X0.351536*%
%ADD40R,0.351536X0.576580*%
%ADD41RoundRect,0.200000X0.200000X0.275000X-0.200000X0.275000X-0.200000X-0.275000X0.200000X-0.275000X0*%
G04 APERTURE END LIST*
D10*
%TO.C,J2*%
X239730000Y-111545000D03*
D11*
X241330000Y-109545000D03*
D12*
X243830000Y-109545000D03*
X246330000Y-109545000D03*
X248830000Y-109545000D03*
%TD*%
D13*
%TO.C,SW1*%
X247805000Y-129450000D03*
X247805000Y-122720000D03*
%TD*%
D14*
%TO.C,R9*%
X220777500Y-128410000D03*
X222427500Y-128410000D03*
%TD*%
D15*
%TO.C,R5*%
X229365000Y-118935002D03*
X229365000Y-120585002D03*
%TD*%
D16*
%TO.C,RV2*%
X264450000Y-65840000D03*
X261910000Y-65840000D03*
X259370000Y-65840000D03*
%TD*%
D17*
%TO.C,D3*%
X199500354Y-102585607D03*
X199500354Y-100835609D03*
%TD*%
D18*
%TO.C,H3*%
X290960000Y-131730000D03*
%TD*%
D19*
%TO.C,R7*%
X223640000Y-108600000D03*
X223640000Y-106950000D03*
%TD*%
D20*
%TO.C,C15*%
X225624998Y-106964999D03*
X225624998Y-105414999D03*
%TD*%
D21*
%TO.C,J10*%
X202820000Y-78980000D03*
D22*
X202820000Y-76480000D03*
X202820000Y-73980000D03*
X202820000Y-71480000D03*
%TD*%
D15*
%TO.C,R3*%
X212930000Y-123490000D03*
X212930000Y-125140000D03*
%TD*%
D20*
%TO.C,C6*%
X222960000Y-122335000D03*
X222960000Y-120785000D03*
%TD*%
D18*
%TO.C,H1*%
X198630000Y-53830000D03*
%TD*%
D23*
%TO.C,J5*%
X204465000Y-66610000D03*
D24*
X201925000Y-66610000D03*
X204465000Y-64070000D03*
X201925000Y-64070000D03*
X204465000Y-61530001D03*
X201925000Y-61530000D03*
X204465000Y-58990000D03*
X201925000Y-58990000D03*
%TD*%
D25*
%TO.C,U1*%
X221890000Y-52280000D03*
X224430000Y-52280000D03*
X221890000Y-54820001D03*
X224430000Y-54820000D03*
X221890000Y-57360000D03*
X224430000Y-57360000D03*
X221890000Y-59900000D03*
X224430000Y-59900000D03*
X221890000Y-62440000D03*
X224430000Y-62440000D03*
X221890000Y-64979999D03*
X224430000Y-64980000D03*
X221890000Y-67520000D03*
X224430000Y-67520000D03*
X221890000Y-70060000D03*
X224430000Y-70060000D03*
X221890000Y-72600000D03*
X224430000Y-72600000D03*
X221890000Y-75140000D03*
X224430000Y-75140000D03*
X221890000Y-77680001D03*
X224430000Y-77680000D03*
X221890000Y-80220000D03*
X224430000Y-80220000D03*
X221890000Y-82760000D03*
X224430000Y-82760000D03*
X221890000Y-85300000D03*
X224430000Y-85300000D03*
X221890000Y-87839999D03*
X224430000Y-87840000D03*
X221890000Y-90380000D03*
X224430000Y-90380000D03*
X242210000Y-90380000D03*
X244750000Y-90380000D03*
X242210000Y-87840000D03*
X244750000Y-87839999D03*
X242210000Y-85300000D03*
X244750000Y-85300000D03*
X242210000Y-82760000D03*
X244750000Y-82760000D03*
X242210000Y-80220000D03*
X244750000Y-80220000D03*
X242210000Y-77680000D03*
X244750000Y-77680001D03*
X242210000Y-75140000D03*
X244750000Y-75140000D03*
X242210000Y-72600000D03*
X244750000Y-72600000D03*
X242210000Y-70060000D03*
X244750000Y-70060000D03*
X242210000Y-67520000D03*
X244750000Y-67520000D03*
X242210000Y-64980000D03*
X244750000Y-64979999D03*
X242210000Y-62440000D03*
X244750000Y-62440000D03*
X242210000Y-59900000D03*
X244750000Y-59900000D03*
X242210000Y-57360000D03*
X244750000Y-57360000D03*
X242210000Y-54820000D03*
X244750000Y-54820001D03*
X242210000Y-52280000D03*
X244750000Y-52280000D03*
%TD*%
D23*
%TO.C,P1*%
X210670000Y-96369999D03*
D24*
X210670000Y-98909999D03*
X208130000Y-96369999D03*
X208130000Y-98909999D03*
X205590001Y-96369999D03*
X205590000Y-98909999D03*
%TD*%
D18*
%TO.C,H4*%
X198890000Y-131730000D03*
%TD*%
D23*
%TO.C,J15*%
X233170000Y-126350000D03*
D24*
X233170000Y-128890000D03*
X230630000Y-126350000D03*
X230630000Y-128890000D03*
X228090001Y-126350000D03*
X228090000Y-128890000D03*
%TD*%
D26*
%TO.C,U2*%
X215450000Y-119735000D03*
X215450000Y-121005000D03*
X215450000Y-122275000D03*
X215450000Y-123545000D03*
X220850000Y-123545000D03*
X220850000Y-122275000D03*
X220850000Y-121005000D03*
X220850000Y-119735000D03*
D27*
X218150000Y-121640000D03*
%TD*%
D16*
%TO.C,RV3*%
X264340002Y-54609998D03*
X261800002Y-54609998D03*
X259260003Y-54609998D03*
%TD*%
%TO.C,RV1*%
X264470000Y-71380000D03*
X261930000Y-71380000D03*
X259390000Y-71380000D03*
%TD*%
D28*
%TO.C,C8*%
X230980000Y-118919999D03*
X232530000Y-118919999D03*
%TD*%
%TO.C,C4*%
X244310000Y-102520000D03*
X245860000Y-102520000D03*
%TD*%
D29*
%TO.C,L1*%
X217200000Y-113250000D03*
X223600000Y-113250000D03*
%TD*%
D30*
%TO.C,D1*%
X213350000Y-113510001D03*
X213350000Y-109509999D03*
%TD*%
D31*
%TO.C,SW5*%
X202810000Y-124089999D03*
X202810000Y-117090000D03*
%TD*%
D32*
%TO.C,J11*%
X211220000Y-79795000D03*
D33*
X213720000Y-79795000D03*
%TD*%
D13*
%TO.C,SW2*%
X260340000Y-129380000D03*
X260340000Y-122650000D03*
%TD*%
D32*
%TO.C,J9*%
X211000000Y-68920000D03*
D33*
X213500000Y-68920000D03*
%TD*%
D13*
%TO.C,SW3*%
X240994543Y-129430455D03*
X240994543Y-122700455D03*
%TD*%
D32*
%TO.C,J7*%
X210840000Y-61265000D03*
D33*
X213340000Y-61265000D03*
%TD*%
D17*
%TO.C,D4*%
X219242500Y-128370000D03*
X219242500Y-126620002D03*
%TD*%
D23*
%TO.C,P2*%
X222815000Y-96535000D03*
D24*
X222815000Y-99075000D03*
X220275000Y-96535000D03*
X220275000Y-99075000D03*
X217735001Y-96535000D03*
X217735000Y-99075000D03*
%TD*%
D34*
%TO.C,J4*%
X213500000Y-130920000D03*
D35*
X208500000Y-130920000D03*
%TD*%
D25*
%TO.C,B1*%
X230170000Y-79030000D03*
X235170000Y-79030000D03*
%TD*%
D16*
%TO.C,RV5*%
X264480000Y-77030000D03*
X261940000Y-77030000D03*
X259400000Y-77030000D03*
%TD*%
D23*
%TO.C,J6*%
X204380000Y-92000000D03*
D24*
X201840000Y-92000000D03*
X204380000Y-89460000D03*
X201840000Y-89460000D03*
X204380000Y-86920001D03*
X201840000Y-86920000D03*
X204380000Y-84380000D03*
X201840000Y-84380000D03*
%TD*%
D10*
%TO.C,J12*%
X282400000Y-53730000D03*
D36*
X284400000Y-55330000D03*
D22*
X284400000Y-57830000D03*
X284400000Y-60330000D03*
X284400000Y-62830000D03*
%TD*%
D18*
%TO.C,H2*%
X290960000Y-53830000D03*
%TD*%
D37*
%TO.C,C9*%
X229190000Y-116072651D03*
D38*
X229190000Y-111072651D03*
%TD*%
D13*
%TO.C,SW4*%
X254008957Y-129393957D03*
X254008957Y-122663957D03*
%TD*%
D20*
%TO.C,C1*%
X247955000Y-100575000D03*
X247955000Y-99025000D03*
%TD*%
D19*
%TO.C,R15*%
X230460000Y-86780000D03*
X230460000Y-85130000D03*
%TD*%
D23*
%TO.C,J1*%
X268810000Y-84880000D03*
D24*
X271350000Y-84880000D03*
X273889999Y-84880000D03*
X276430000Y-84880000D03*
X278970000Y-84880000D03*
X281510000Y-84880000D03*
X284050000Y-84880000D03*
X286590001Y-84880000D03*
%TD*%
D16*
%TO.C,RV4*%
X264410000Y-60160000D03*
X261870000Y-60160000D03*
X259330000Y-60160000D03*
%TD*%
D39*
%TO.C,U3*%
X243639700Y-99129999D03*
X243639700Y-99630000D03*
X243639700Y-100130000D03*
X243639700Y-100630001D03*
D40*
X244350001Y-100836300D03*
X244850000Y-100836300D03*
X245349999Y-100836300D03*
D39*
X246060300Y-100630001D03*
X246060300Y-100130000D03*
X246060300Y-99630000D03*
X246060300Y-99129999D03*
D40*
X245349999Y-98923700D03*
X244850000Y-98923700D03*
X244350001Y-98923700D03*
%TD*%
D28*
%TO.C,C5*%
X217395000Y-117995000D03*
X218945000Y-117995000D03*
%TD*%
D23*
%TO.C,J16*%
X241639999Y-115600000D03*
D24*
X241639999Y-118140000D03*
X239099999Y-115600000D03*
X239099999Y-118140000D03*
X236560000Y-115600000D03*
X236559999Y-118140000D03*
%TD*%
D41*
%TO.C,R8*%
X199580000Y-104380000D03*
X197930000Y-104380000D03*
%TD*%
D14*
%TO.C,R6*%
X229340000Y-122200000D03*
X230990000Y-122200000D03*
%TD*%
D10*
%TO.C,J14*%
X285220000Y-79200000D03*
D21*
X283220000Y-77600000D03*
D22*
X283220000Y-75100000D03*
X283220000Y-72600000D03*
X283220000Y-70100000D03*
%TD*%
M02*
