%TF.GenerationSoftware,KiCad,Pcbnew,8.0.0*%
%TF.CreationDate,2026-05-17T15:58:35+08:00*%
%TF.ProjectId,STC_mainboard,5354435f-6d61-4696-9e62-6f6172642e6b,rev?*%
%TF.SameCoordinates,Original*%
%TF.FileFunction,Profile,NP*%
%FSLAX46Y46*%
G04 Gerber Fmt 4.6, Leading zero omitted, Abs format (unit mm)*
G04 Created by KiCad (PCBNEW 8.0.0) date 2026-05-17 15:58:35*
%MOMM*%
%LPD*%
G01*
G04 APERTURE LIST*
%TA.AperFunction,Profile*%
%ADD10C,0.100000*%
%TD*%
%TA.AperFunction,Profile*%
%ADD11C,0.250000*%
%TD*%
G04 APERTURE END LIST*
D10*
X11360000Y15910000D02*
X9400000Y15910000D01*
X54510000Y6470000D02*
X53220000Y5180000D01*
X2590000Y-1500000D02*
X2590000Y-11780000D01*
X83300000Y32780000D02*
X83300000Y25090000D01*
X2820000Y-35460000D02*
X6650000Y-35460000D01*
X58060000Y29000000D02*
X58060000Y31040000D01*
X50010000Y34610000D02*
X49460000Y34060000D01*
X12030000Y12250000D02*
X6990000Y12250000D01*
X3300000Y-37770000D02*
G75*
G02*
X-1700000Y-32770000I0J5000000D01*
G01*
X380000Y-22700000D02*
X380000Y-31450000D01*
X9750000Y1050000D02*
X4120000Y1050000D01*
D11*
X83300000Y-32770000D02*
G75*
G02*
X78300000Y-37770000I-5000000J0D01*
G01*
X49385786Y40380000D02*
X49385786Y37780000D01*
D10*
X27890000Y24400000D02*
X27370000Y24920000D01*
X48850000Y21540000D02*
X48850000Y18030000D01*
X9150000Y-31450000D02*
X12780000Y-31450000D01*
D11*
X52214214Y40380000D02*
X49385786Y40380000D01*
D10*
X61850000Y-34720000D02*
X77100000Y-34720000D01*
X12170000Y5910000D02*
X11210000Y5910000D01*
X41680000Y18630000D02*
X40160000Y17110000D01*
X14660000Y37780000D02*
X16240000Y36200000D01*
X60852498Y4032498D02*
X68419039Y11599039D01*
X62180000Y35090000D02*
X62180000Y33990000D01*
X62490000Y13450000D02*
X58920000Y13450000D01*
X43620000Y10720000D02*
X46200000Y10720000D01*
X4410000Y-28980000D02*
X4410000Y-24150000D01*
X46010000Y34900000D02*
X47068956Y35958956D01*
X50200000Y16640000D02*
X51790000Y16640000D01*
X-1700000Y-1500000D02*
X2590000Y-1500000D01*
X51440000Y26180000D02*
X47140000Y26180000D01*
X27770000Y26740000D02*
X27770000Y31500000D01*
X67420000Y32710000D02*
X67420000Y31500000D01*
X14000000Y23910000D02*
X15930000Y23910000D01*
X9580000Y14730000D02*
X9220000Y14370000D01*
X5680000Y9110000D02*
X7500000Y9110000D01*
X58060000Y31040000D02*
X58970000Y31040000D01*
D11*
X79100000Y-21201666D02*
X79100000Y-14338335D01*
D10*
X38710000Y6210000D02*
X25540000Y6210000D01*
D11*
X45050000Y32530000D02*
G75*
G02*
X36550000Y32530000I-4250000J0D01*
G01*
X36550000Y32530000D02*
G75*
G02*
X45050000Y32530000I4250000J0D01*
G01*
X32214214Y40380000D02*
X32214214Y37780000D01*
D10*
X9090000Y14240000D02*
X6990000Y14240000D01*
X7500000Y6450000D02*
X9870000Y6450000D01*
X25260000Y16850000D02*
X27570000Y16850000D01*
X58040000Y34610000D02*
X50010000Y34610000D01*
X51070000Y4125185D02*
X51070000Y1590000D01*
X19520000Y36200000D02*
X19520000Y26740000D01*
X51440000Y22980000D02*
X51440000Y26180000D01*
X80520000Y20160000D02*
X68420000Y20160000D01*
X6990000Y12250000D02*
X6990000Y14240000D01*
X7500000Y6910000D02*
X7500000Y6450000D01*
X13840000Y-8510000D02*
X8970000Y-3640000D01*
X11210000Y-1640000D02*
X9750000Y-180000D01*
X37340000Y26250000D02*
X36030000Y24940000D01*
X36350000Y17490000D02*
X39980000Y21120000D01*
D11*
X78300000Y-37770000D02*
X3300000Y-37770000D01*
D10*
X37280000Y10030000D02*
X37280000Y10310000D01*
X37210000Y5050000D02*
X38710000Y5050000D01*
X51790000Y22980000D02*
X51440000Y22980000D01*
X47140000Y23820000D02*
X41500000Y23820000D01*
D11*
X27090966Y-26320000D02*
G75*
G02*
X24890966Y-26320000I-1100000J0D01*
G01*
X24890966Y-26320000D02*
G75*
G02*
X27090966Y-26320000I1100000J0D01*
G01*
D10*
X27370000Y26290000D02*
X26920000Y26740000D01*
X40160000Y12730000D02*
X48764815Y4125185D01*
X37280000Y10310000D02*
X38070000Y10310000D01*
X20490000Y-18200000D02*
X20490000Y-11460000D01*
X4970000Y9820000D02*
X5680000Y9110000D01*
X25260000Y10030000D02*
X37280000Y10030000D01*
D11*
X79100000Y3930000D02*
X79100000Y530000D01*
X81300000Y-21201666D02*
X79100000Y-21201666D01*
D10*
X61470000Y36890000D02*
X61470000Y35090000D01*
X36030000Y21590000D02*
X38600000Y22300000D01*
X-1700000Y-11780000D02*
X-1700000Y-22700000D01*
X29385786Y31500000D02*
X27770000Y31500000D01*
X20490000Y-11460000D02*
X22870000Y-11460000D01*
D11*
X2500000Y-14338334D02*
X2500000Y-21201666D01*
D10*
X9480000Y22260000D02*
X9480000Y23290000D01*
X6620000Y-28860000D02*
X9150000Y-28860000D01*
X500000Y27270000D02*
X3820000Y27270000D01*
X42990000Y4320000D02*
X43570000Y4900000D01*
X69870000Y34720000D02*
X68770000Y35820000D01*
X18360000Y-35360000D02*
X12780000Y-35360000D01*
X39980000Y21120000D02*
X41680000Y21120000D01*
X77100000Y-6654168D02*
X77100000Y-14338335D01*
X41500000Y26250000D02*
X37340000Y26250000D01*
X27890000Y-3560000D02*
X26370000Y-3560000D01*
X44380000Y21540000D02*
X48850000Y21540000D01*
X8970000Y-3640000D02*
X7630000Y-3640000D01*
X2820000Y-31900000D02*
X2820000Y-35460000D01*
X58970000Y31040000D02*
X58970000Y34180000D01*
X37210000Y3130000D02*
X37210000Y5050000D01*
X4410000Y-24150000D02*
X1640000Y-24150000D01*
X-1700000Y32780000D02*
X-1700000Y-1500000D01*
X28110000Y16310000D02*
X29790000Y16310000D01*
X39790000Y3130000D02*
X37210000Y3130000D01*
X46010000Y30310000D02*
X46010000Y34900000D01*
X61470000Y35090000D02*
X62180000Y35090000D01*
X83300000Y25090000D02*
X83300000Y5930000D01*
X66040000Y27470000D02*
X68890000Y27470000D01*
X29385786Y37780000D02*
X29385786Y31500000D01*
X58920000Y14110000D02*
X56090000Y14110000D01*
D11*
X79100000Y530000D02*
X81300000Y530000D01*
D10*
X70920000Y22590000D02*
X66040000Y27470000D01*
X11210000Y5910000D02*
X11210000Y-1640000D01*
X15930000Y11980000D02*
X12030000Y11980000D01*
X48764815Y4125185D02*
X51070000Y4125185D01*
X1080000Y21850000D02*
X9070000Y21850000D01*
X11400000Y9650000D02*
X11400000Y7860000D01*
X51630000Y28110000D02*
X50580000Y27060000D01*
X38600000Y22300000D02*
X43620000Y22300000D01*
X62490000Y11900000D02*
X62490000Y13450000D01*
X49460000Y30310000D02*
X46010000Y30310000D01*
X52220000Y8250000D02*
X55170000Y8250000D01*
X47100000Y12520000D02*
X52220000Y12520000D01*
X29810000Y22330000D02*
X28970000Y21490000D01*
X7470000Y23970000D02*
X5060000Y23970000D01*
X65850000Y11900000D02*
X62490000Y11900000D01*
X58060000Y29000000D02*
X61760000Y29000000D01*
X3820000Y28980000D02*
X9980000Y28980000D01*
X8980000Y16330000D02*
X9400000Y15910000D01*
X51070000Y1590000D02*
X47380000Y1590000D01*
D11*
X78300000Y37780000D02*
G75*
G02*
X83300000Y32780000I0J-5000000D01*
G01*
D10*
X12020000Y16570000D02*
X11360000Y15910000D01*
X-1700000Y32780000D02*
G75*
G02*
X3300000Y37780000I5000000J0D01*
G01*
X27370000Y24920000D02*
X27370000Y26290000D01*
D11*
X41900000Y-670000D02*
G75*
G02*
X39700000Y-670000I-1100000J0D01*
G01*
X39700000Y-670000D02*
G75*
G02*
X41900000Y-670000I1100000J0D01*
G01*
D10*
X7470000Y26541919D02*
X7470000Y23970000D01*
X9750000Y-180000D02*
X9750000Y1050000D01*
X500000Y23290000D02*
X500000Y27270000D01*
X18360000Y-31210000D02*
X18360000Y-35360000D01*
X74250000Y35820000D02*
X74250000Y35280000D01*
X-260000Y-31450000D02*
X-260000Y-32760000D01*
X41680000Y21120000D02*
X41680000Y18630000D01*
X16240000Y36200000D02*
X19520000Y36200000D01*
D11*
X29385786Y40380000D02*
X32214214Y40380000D01*
D10*
X26370000Y-3560000D02*
X22770000Y-7160000D01*
X380000Y-31450000D02*
X-260000Y-31450000D01*
X4380000Y23290000D02*
X500000Y23290000D01*
X47380000Y1590000D02*
X47380000Y2930000D01*
D11*
X52214214Y37780000D02*
X78300000Y37780000D01*
D10*
X43570000Y4900000D02*
X43570000Y6570000D01*
X60110000Y2160000D02*
X60110000Y-33500000D01*
X6650000Y-35460000D02*
X6650000Y-31230000D01*
X14000000Y15450000D02*
X12790000Y15450000D01*
X77100000Y-23950000D02*
X77100000Y-34720000D01*
X20460000Y-23480000D02*
X20460000Y-20990000D01*
X53220000Y5180000D02*
X49160000Y5180000D01*
X27890000Y-6440000D02*
X27890000Y-3560000D01*
X4120000Y-31230000D02*
X4120000Y-28980000D01*
X56280000Y28110000D02*
X51630000Y28110000D01*
D11*
X300000Y-21201666D02*
X300000Y-14338334D01*
D10*
X73540000Y22590000D02*
X70920000Y22590000D01*
X13840000Y-22020000D02*
X13840000Y-8510000D01*
X25260000Y12050000D02*
X25260000Y16850000D01*
X49460000Y34060000D02*
X49460000Y30310000D01*
X53740000Y25710000D02*
X56280000Y25710000D01*
X27890000Y-6440000D02*
X22870000Y-11460000D01*
X29810000Y26740000D02*
X29810000Y22330000D01*
X44380000Y2930000D02*
X42990000Y4320000D01*
X31620000Y16410000D02*
X36350000Y16410000D01*
X8961919Y26541919D02*
X7470000Y26541919D01*
X38070000Y10010000D02*
X41580000Y10010000D01*
X12780000Y-35360000D02*
X12780000Y-31450000D01*
X27480000Y-430000D02*
X27480000Y1180000D01*
X68770000Y35820000D02*
X74250000Y35820000D01*
X20560000Y-8770000D02*
X20560000Y-4810000D01*
X47140000Y26180000D02*
X47140000Y23820000D01*
X62180000Y33990000D02*
X64930000Y33990000D01*
X19520000Y26740000D02*
X26920000Y26740000D01*
X36030000Y24940000D02*
X36030000Y21590000D01*
X83300000Y-32770000D02*
X83300000Y5930000D01*
X9980000Y27560000D02*
X8961919Y26541919D01*
X77100000Y-4400000D02*
X60852498Y4032498D01*
X27770000Y26740000D02*
X29810000Y26740000D01*
X2590000Y-11780000D02*
X-1700000Y-11780000D01*
X61850000Y-34720000D02*
X77100000Y-23950000D01*
X49160000Y5180000D02*
X43620000Y10720000D01*
X9070000Y21850000D02*
X9480000Y22260000D01*
X41580000Y8560000D02*
X41580000Y10010000D01*
X9980000Y28980000D02*
X9980000Y27560000D01*
X46200000Y18840000D02*
X47100000Y18840000D01*
X55800000Y-17770000D02*
G75*
G02*
X25800000Y-17770000I-15000000J0D01*
G01*
X25800000Y-17770000D02*
G75*
G02*
X55800000Y-17770000I15000000J0D01*
G01*
X47100000Y18840000D02*
X47100000Y12520000D01*
X67420000Y31500000D02*
X63890000Y31500000D01*
D11*
X79100000Y-14338335D02*
X81300000Y-14338335D01*
D10*
X23820000Y-18200000D02*
X20490000Y-18200000D01*
D11*
X2500000Y530000D02*
X2500000Y3930000D01*
D10*
X28970000Y21490000D02*
X27890000Y21490000D01*
X12070000Y14730000D02*
X9580000Y14730000D01*
X74250000Y35280000D02*
X73690000Y34720000D01*
X38070000Y10310000D02*
X38070000Y10010000D01*
X6620000Y-4650000D02*
X7630000Y-3640000D01*
X61400000Y33990000D02*
X58500000Y36890000D01*
X27570000Y16850000D02*
X28110000Y16310000D01*
X75270000Y25270000D02*
X76160000Y25270000D01*
X68419039Y20160000D02*
X68419039Y11599039D01*
X52390000Y27060000D02*
X53740000Y25710000D01*
X52220000Y12520000D02*
X52220000Y8250000D01*
X24940000Y-430000D02*
X27480000Y-430000D01*
D11*
X56709034Y-26320000D02*
G75*
G02*
X54509034Y-26320000I-1100000J0D01*
G01*
X54509034Y-26320000D02*
G75*
G02*
X56709034Y-26320000I1100000J0D01*
G01*
D10*
X77100000Y-14338335D02*
X77100000Y-21500000D01*
X53950000Y7030000D02*
X54510000Y6470000D01*
D11*
X81300000Y530000D02*
X81300000Y3930000D01*
D10*
X68890000Y27470000D02*
X68890000Y25890000D01*
D11*
X2500000Y-21201666D02*
X300000Y-21201666D01*
D10*
X17440000Y-5240000D02*
X17440000Y-20460000D01*
X77100000Y5930000D02*
X77100000Y-4400000D01*
X37840000Y1180000D02*
X39790000Y3130000D01*
X73690000Y34720000D02*
X69870000Y34720000D01*
D11*
X2500000Y3930000D02*
X300000Y3930000D01*
D10*
X22770000Y-8770000D02*
X20560000Y-8770000D01*
X1640000Y-30720000D02*
X2820000Y-31900000D01*
X50200000Y18030000D02*
X50200000Y16640000D01*
X7500000Y9110000D02*
X7500000Y6910000D01*
X76160000Y23170000D02*
X73540000Y23170000D01*
X25260000Y12050000D02*
X25260000Y10030000D01*
X43620000Y22300000D02*
X44380000Y21540000D01*
X4120000Y-28980000D02*
X4410000Y-28980000D01*
X61760000Y31390000D02*
X61760000Y29000000D01*
X15960000Y-24140000D02*
X13840000Y-22020000D01*
D11*
X32214214Y37780000D02*
X49385786Y37780000D01*
D10*
X9870000Y8120000D02*
X11400000Y9650000D01*
D11*
X81300000Y3930000D02*
X79100000Y3930000D01*
D10*
X58040000Y35960000D02*
X58040000Y34610000D01*
X41500000Y23820000D02*
X41500000Y26250000D01*
X-1700000Y-22700000D02*
X380000Y-22700000D01*
X23820000Y-20990000D02*
X23820000Y-18200000D01*
X15960000Y-31210000D02*
X15960000Y-24140000D01*
X25540000Y2860000D02*
X17440000Y-5240000D01*
X43570034Y6569966D02*
X41580000Y8560000D01*
X56280000Y25710000D02*
X56280000Y28110000D01*
X12030000Y11980000D02*
X12030000Y12250000D01*
X6620000Y-4650000D02*
X6620000Y-28860000D01*
X63890000Y31500000D02*
X61400000Y33990000D01*
X73540000Y23170000D02*
X73540000Y22590000D01*
X58920143Y4969857D02*
X65850286Y11900000D01*
X15930000Y23910000D02*
X15930000Y11980000D01*
X9220000Y14370000D02*
X9090000Y14240000D01*
X1080000Y16330000D02*
X8980000Y16330000D01*
X47380000Y2930000D02*
X44380000Y2930000D01*
X40160000Y17110000D02*
X40160000Y12730000D01*
X68890000Y25890000D02*
X72120000Y25890000D01*
X6650000Y-31230000D02*
X4120000Y-31230000D01*
X66210000Y32710000D02*
X67420000Y32710000D01*
X9150000Y-28860000D02*
X9150000Y-31450000D01*
X75270000Y27250000D02*
X75270000Y25270000D01*
X9480000Y23290000D02*
X11120000Y24930000D01*
D11*
X81300000Y-14338335D02*
X81300000Y-21201666D01*
D10*
X60110000Y-33500000D02*
X77100000Y-21500000D01*
X4120000Y9820000D02*
X4970000Y9820000D01*
X31620000Y16850000D02*
X31620000Y16410000D01*
X38710000Y5050000D02*
X38710000Y6210000D01*
X1640000Y-24150000D02*
X1640000Y-30720000D01*
X51790000Y16640000D02*
X51790000Y22980000D01*
X1080000Y21850000D02*
X1080000Y16330000D01*
X12790000Y15450000D02*
X12070000Y14730000D01*
X55170000Y8250000D02*
X53950000Y7030000D01*
X56090000Y7800000D02*
X58920143Y4969857D01*
X4120000Y1050000D02*
X4120000Y9820000D01*
X58500000Y36890000D02*
X61470000Y36890000D01*
X80520000Y20160000D02*
X80520000Y5930000D01*
X72120000Y25890000D02*
X72120000Y27250000D01*
D11*
X300000Y3930000D02*
X300000Y530000D01*
D10*
X64930000Y33990000D02*
X66210000Y32710000D01*
D11*
X29385786Y37780000D02*
X29385786Y40380000D01*
D10*
X30330000Y16850000D02*
X31620000Y16850000D01*
X56090000Y14110000D02*
X56090000Y7800000D01*
X50580000Y27060000D02*
X52390000Y27060000D01*
X11400000Y7860000D02*
X12170000Y7860000D01*
X12020000Y24930000D02*
X12020000Y16570000D01*
X22770000Y-7160000D02*
X22770000Y-8770000D01*
X15960000Y-31210000D02*
X18360000Y-31210000D01*
X3300000Y37780000D02*
X14660000Y37780000D01*
D11*
X300000Y530000D02*
X2500000Y530000D01*
D10*
X9870000Y6450000D02*
X9870000Y8120000D01*
X11120000Y24930000D02*
X12020000Y24930000D01*
X-260000Y-32760000D02*
X-1700000Y-32770000D01*
X27890000Y21490000D02*
X27890000Y24400000D01*
X48850000Y18030000D02*
X50200000Y18030000D01*
X20560000Y-4810000D02*
X24940000Y-430000D01*
X29790000Y16310000D02*
X30330000Y16850000D01*
X46200000Y10720000D02*
X46200000Y18840000D01*
X17440000Y-20460000D02*
X20460000Y-23480000D01*
X76160000Y25270000D02*
X76160000Y23170000D01*
X25540000Y6210000D02*
X25540000Y2860000D01*
X77100000Y5930000D02*
X80520000Y5930000D01*
X77100000Y-6654168D02*
X60110000Y2160000D01*
D11*
X52214214Y37780000D02*
X52214214Y40380000D01*
D10*
X3820000Y27270000D02*
X3820000Y28980000D01*
X36350000Y16410000D02*
X36350000Y17490000D01*
X12170000Y7860000D02*
X12170000Y5910000D01*
X14000000Y15450000D02*
X14000000Y23910000D01*
X58970000Y34180000D02*
X61760000Y31390000D01*
X47068956Y35958956D02*
X58040000Y35958956D01*
X27480000Y1180000D02*
X37840000Y1180000D01*
X20460000Y-20990000D02*
X23820000Y-20990000D01*
X58920000Y13450000D02*
X58920000Y14110000D01*
X5060000Y23970000D02*
X4380000Y23290000D01*
X72120000Y27250000D02*
X75270000Y27250000D01*
D11*
X300000Y-14338334D02*
X2500000Y-14338334D01*
M02*
