%TF.GenerationSoftware,KiCad,Pcbnew,8.0.0*%
%TF.CreationDate,2026-05-17T15:58:35+08:00*%
%TF.ProjectId,STC_mainboard,5354435f-6d61-4696-9e62-6f6172642e6b,rev?*%
%TF.SameCoordinates,Original*%
%TF.FileFunction,Soldermask,Top*%
%TF.FilePolarity,Negative*%
%FSLAX46Y46*%
G04 Gerber Fmt 4.6, Leading zero omitted, Abs format (unit mm)*
G04 Created by KiCad (PCBNEW 8.0.0) date 2026-05-17 15:58:35*
%MOMM*%
%LPD*%
G01*
G04 APERTURE LIST*
G04 Aperture macros list*
%AMRoundRect*
0 Rectangle with rounded corners*
0 $1 Rounding radius*
0 $2 $3 $4 $5 $6 $7 $8 $9 X,Y pos of 4 corners*
0 Add a 4 corners polygon primitive as box body*
4,1,4,$2,$3,$4,$5,$6,$7,$8,$9,$2,$3,0*
0 Add four circle primitives for the rounded corners*
1,1,$1+$1,$2,$3*
1,1,$1+$1,$4,$5*
1,1,$1+$1,$6,$7*
1,1,$1+$1,$8,$9*
0 Add four rect primitives between the rounded corners*
20,1,$1+$1,$2,$3,$4,$5,0*
20,1,$1+$1,$4,$5,$6,$7,0*
20,1,$1+$1,$6,$7,$8,$9,0*
20,1,$1+$1,$8,$9,$2,$3,0*%
G04 Aperture macros list end*
%ADD10C,1.440000*%
%ADD11RoundRect,0.225000X-0.250000X0.225000X-0.250000X-0.225000X0.250000X-0.225000X0.250000X0.225000X0*%
%ADD12RoundRect,0.317500X0.952500X-0.317500X0.952500X0.317500X-0.952500X0.317500X-0.952500X-0.317500X0*%
%ADD13R,1.000000X2.800000*%
%ADD14R,0.600000X1.700000*%
%ADD15RoundRect,0.317500X0.317500X0.952500X-0.317500X0.952500X-0.317500X-0.952500X0.317500X-0.952500X0*%
%ADD16R,2.000000X1.500000*%
%ADD17R,2.000000X3.800000*%
%ADD18C,1.500000*%
%ADD19R,1.120000X2.160000*%
%ADD20RoundRect,0.250000X0.600000X0.750000X-0.600000X0.750000X-0.600000X-0.750000X0.600000X-0.750000X0*%
%ADD21O,1.700000X2.000000*%
%ADD22RoundRect,0.250000X0.725000X-0.600000X0.725000X0.600000X-0.725000X0.600000X-0.725000X-0.600000X0*%
%ADD23O,1.950000X1.700000*%
%ADD24RoundRect,0.225000X0.017678X-0.335876X0.335876X-0.017678X-0.017678X0.335876X-0.335876X0.017678X0*%
G04 APERTURE END LIST*
D10*
%TO.C,RV1*%
X50960001Y33540000D03*
X53500001Y33540000D03*
X56040000Y33540000D03*
%TD*%
D11*
%TO.C,C2*%
X35595000Y-35475000D03*
X35595000Y-37025000D03*
%TD*%
D12*
%TO.C,J9*%
X30800000Y39530000D03*
%TD*%
D10*
%TO.C,RV2*%
X59945000Y14535001D03*
X62485000Y14535001D03*
X65024999Y14535001D03*
%TD*%
D13*
%TO.C,P1*%
X400000Y-33280000D03*
X10350000Y-33280000D03*
D14*
X8500000Y-30130000D03*
X7250000Y-30130000D03*
X6000000Y-30130000D03*
X4750000Y-30130000D03*
%TD*%
D15*
%TO.C,J5*%
X81580000Y30180000D03*
%TD*%
D16*
%TO.C,U4*%
X52410000Y-1610000D03*
X52409999Y690000D03*
X52410000Y2990000D03*
D17*
X46110001Y690000D03*
%TD*%
D11*
%TO.C,C15*%
X33975000Y-35475000D03*
X33975000Y-37025000D03*
%TD*%
D18*
%TO.C,U1*%
X5970000Y35610000D03*
X8510000Y35610000D03*
X5970000Y33070000D03*
X8510000Y33070000D03*
X8510000Y30530000D03*
X8510000Y25450000D03*
X5970000Y22910000D03*
X8510000Y22910000D03*
X8510000Y15290000D03*
X5970000Y12750000D03*
X5970000Y10210000D03*
X8510000Y10210000D03*
X8510000Y7670000D03*
X5970000Y50000D03*
X8510000Y50000D03*
X5970000Y-2490000D03*
X8510000Y-2490000D03*
X26290000Y-2490000D03*
X28830000Y-2490000D03*
X28830000Y50000D03*
X26290000Y7670000D03*
X28830000Y7670000D03*
X26290000Y17830000D03*
X28830000Y17830000D03*
X26290000Y20370000D03*
X28830000Y20370000D03*
X26290000Y22910000D03*
X26290000Y25450000D03*
X28830000Y27990000D03*
X28830000Y30530000D03*
%TD*%
D19*
%TO.C,SW3*%
X21398957Y-22323957D03*
X21398957Y-15593957D03*
%TD*%
D15*
%TO.C,J6*%
X81570000Y26880000D03*
%TD*%
%TO.C,J8*%
X66310000Y18500000D03*
%TD*%
D10*
%TO.C,RV5*%
X45170002Y11939999D03*
X45170002Y14479999D03*
X45170002Y17019998D03*
%TD*%
D20*
%TO.C,J4*%
X56290000Y-33440000D03*
D21*
X53790000Y-33440000D03*
%TD*%
D13*
%TO.C,P2*%
X12050000Y-33300000D03*
X22000000Y-33300000D03*
D14*
X20150000Y-30150000D03*
X18900000Y-30150000D03*
X17650000Y-30150000D03*
X16400000Y-30150000D03*
%TD*%
D11*
%TO.C,C16*%
X43930000Y800000D03*
X43930000Y-750000D03*
%TD*%
D16*
%TO.C,U2*%
X30490001Y-36470000D03*
X30490000Y-34170000D03*
X30490001Y-31870000D03*
D17*
X24190002Y-34170000D03*
%TD*%
D15*
%TO.C,J3*%
X64740000Y21680000D03*
%TD*%
D22*
%TO.C,J1*%
X2375001Y28375001D03*
D23*
X2375001Y30875001D03*
X2375001Y33375001D03*
X2375001Y35875001D03*
%TD*%
D22*
%TO.C,J10*%
X2460000Y7750000D03*
D23*
X2460000Y10250000D03*
X2460000Y12750000D03*
X2460000Y15250000D03*
%TD*%
D12*
%TO.C,J12*%
X50790000Y39500000D03*
%TD*%
D10*
%TO.C,RV3*%
X80030000Y34400000D03*
X77490000Y34400000D03*
X74950001Y34400000D03*
%TD*%
D24*
%TO.C,C3*%
X33473984Y-33726016D03*
X34570000Y-32630000D03*
%TD*%
D19*
%TO.C,SW1*%
X21360000Y-12820000D03*
X21360000Y-6090000D03*
%TD*%
D11*
%TO.C,C1*%
X54570000Y630000D03*
X54570000Y-920000D03*
%TD*%
D10*
%TO.C,RV4*%
X79585000Y22175000D03*
X77045000Y22175000D03*
X74505000Y22175000D03*
%TD*%
D15*
%TO.C,J2*%
X53340000Y9880000D03*
%TD*%
M02*
