%TF.GenerationSoftware,KiCad,Pcbnew,8.0.0*%
%TF.CreationDate,2026-04-18T16:36:17+08:00*%
%TF.ProjectId,STC_mainboard,5354435f-6d61-4696-9e62-6f6172642e6b,rev?*%
%TF.SameCoordinates,Original*%
%TF.FileFunction,Paste,Bot*%
%TF.FilePolarity,Positive*%
%FSLAX46Y46*%
G04 Gerber Fmt 4.6, Leading zero omitted, Abs format (unit mm)*
G04 Created by KiCad (PCBNEW 8.0.0) date 2026-04-18 16:36:17*
%MOMM*%
%LPD*%
G01*
G04 APERTURE LIST*
G04 Aperture macros list*
%AMRoundRect*
0 Rectangle with rounded corners*
0 $1 Rounding radius*
0 $2 $3 $4 $5 $6 $7 $8 $9 X,Y pos of 4 corners*
0 Add a 4 corners polygon primitive as box body*
4,1,4,$2,$3,$4,$5,$6,$7,$8,$9,$2,$3,0*
0 Add four circle primitives for the rounded corners*
1,1,$1+$1,$2,$3*
1,1,$1+$1,$4,$5*
1,1,$1+$1,$6,$7*
1,1,$1+$1,$8,$9*
0 Add four rect primitives between the rounded corners*
20,1,$1+$1,$2,$3,$4,$5,0*
20,1,$1+$1,$4,$5,$6,$7,0*
20,1,$1+$1,$6,$7,$8,$9,0*
20,1,$1+$1,$8,$9,$2,$3,0*%
%AMRotRect*
0 Rectangle, with rotation*
0 The origin of the aperture is its center*
0 $1 length*
0 $2 width*
0 $3 Rotation angle, in degrees counterclockwise*
0 Add horizontal line*
21,1,$1,$2,0,0,$3*%
G04 Aperture macros list end*
%ADD10RoundRect,0.200000X0.200000X0.275000X-0.200000X0.275000X-0.200000X-0.275000X0.200000X-0.275000X0*%
%ADD11RoundRect,0.317500X0.317500X0.952500X-0.317500X0.952500X-0.317500X-0.952500X0.317500X-0.952500X0*%
%ADD12R,0.800000X0.350000*%
%ADD13RoundRect,0.225000X-0.225000X-0.250000X0.225000X-0.250000X0.225000X0.250000X-0.225000X0.250000X0*%
%ADD14RoundRect,0.200000X-0.200000X-0.275000X0.200000X-0.275000X0.200000X0.275000X-0.200000X0.275000X0*%
%ADD15RoundRect,0.225000X0.250000X-0.225000X0.250000X0.225000X-0.250000X0.225000X-0.250000X-0.225000X0*%
%ADD16RoundRect,0.125000X-0.125000X-0.125000X0.125000X-0.125000X0.125000X0.125000X-0.125000X0.125000X0*%
%ADD17RoundRect,0.225000X-0.250000X0.225000X-0.250000X-0.225000X0.250000X-0.225000X0.250000X0.225000X0*%
%ADD18RoundRect,0.125000X0.125000X0.125000X-0.125000X0.125000X-0.125000X-0.125000X0.125000X-0.125000X0*%
%ADD19RoundRect,0.200000X0.053033X-0.335876X0.335876X-0.053033X-0.053033X0.335876X-0.335876X0.053033X0*%
%ADD20RoundRect,0.125000X0.125000X-0.125000X0.125000X0.125000X-0.125000X0.125000X-0.125000X-0.125000X0*%
%ADD21RoundRect,0.225000X0.225000X0.250000X-0.225000X0.250000X-0.225000X-0.250000X0.225000X-0.250000X0*%
%ADD22RoundRect,0.200000X0.275000X-0.200000X0.275000X0.200000X-0.275000X0.200000X-0.275000X-0.200000X0*%
%ADD23R,0.576580X0.351536*%
%ADD24R,0.351536X0.576580*%
%ADD25R,1.800000X2.500000*%
%ADD26RoundRect,0.200000X-0.275000X0.200000X-0.275000X-0.200000X0.275000X-0.200000X0.275000X0.200000X0*%
%ADD27RotRect,0.650000X1.050000X315.000000*%
%ADD28R,1.500000X2.000000*%
%ADD29R,3.800000X2.000000*%
G04 APERTURE END LIST*
D10*
%TO.C,R7*%
X184460000Y-99060000D03*
X182810000Y-99060000D03*
%TD*%
D11*
%TO.C,J11*%
X140060000Y-47670000D03*
%TD*%
%TO.C,J7*%
X137550000Y-47660000D03*
%TD*%
D12*
%TO.C,IC4*%
X212460000Y-68730000D03*
X212460000Y-68080000D03*
X212460000Y-67430000D03*
X214160000Y-67430000D03*
X214160000Y-68730000D03*
%TD*%
D13*
%TO.C,C25*%
X174040000Y-50375000D03*
X175590000Y-50375000D03*
%TD*%
D14*
%TO.C,R18*%
X206530000Y-69010000D03*
X208180000Y-69010000D03*
%TD*%
D13*
%TO.C,C33*%
X211480000Y-64465000D03*
X213030000Y-64465000D03*
%TD*%
D15*
%TO.C,C26*%
X170530000Y-50700000D03*
X170530000Y-49150000D03*
%TD*%
D16*
%TO.C,D11*%
X173832501Y-54174320D03*
X176032499Y-54174320D03*
%TD*%
D12*
%TO.C,IC9*%
X167670000Y-53345000D03*
X167670000Y-52695000D03*
X167670000Y-52045000D03*
X169370000Y-52045000D03*
X169370000Y-53345000D03*
%TD*%
D13*
%TO.C,C4*%
X175380000Y-106070000D03*
X176930000Y-106070000D03*
%TD*%
%TO.C,C31*%
X174040000Y-56095000D03*
X175590000Y-56095000D03*
%TD*%
D17*
%TO.C,C18*%
X206535000Y-70925000D03*
X206535000Y-72475000D03*
%TD*%
D12*
%TO.C,IC8*%
X167460000Y-47930000D03*
X167460000Y-47280000D03*
X167460000Y-46630000D03*
X169160000Y-46630000D03*
X169160000Y-47930000D03*
%TD*%
%TO.C,IC10*%
X209660000Y-63125000D03*
X209660000Y-62475000D03*
X209660000Y-61825000D03*
X211360000Y-61825000D03*
X211360000Y-63125000D03*
%TD*%
D18*
%TO.C,D6*%
X205180000Y-69170000D03*
X202980000Y-69170000D03*
%TD*%
D19*
%TO.C,R13*%
X137201472Y-76850934D03*
X138368198Y-75684208D03*
%TD*%
D20*
%TO.C,D10*%
X172264090Y-50739089D03*
X172264090Y-48539091D03*
%TD*%
D15*
%TO.C,C22*%
X157605000Y-49930000D03*
X157605000Y-48380000D03*
%TD*%
D21*
%TO.C,C16*%
X181395000Y-100030000D03*
X179845000Y-100030000D03*
%TD*%
D10*
%TO.C,R10*%
X161495000Y-64780000D03*
X159845000Y-64780000D03*
%TD*%
D18*
%TO.C,D24*%
X205300000Y-62875000D03*
X203100000Y-62875000D03*
%TD*%
%TO.C,D19*%
X201887500Y-62935000D03*
X199687500Y-62935000D03*
%TD*%
D17*
%TO.C,C23*%
X158200000Y-60015000D03*
X158200000Y-61565000D03*
%TD*%
D22*
%TO.C,R31*%
X168885000Y-56410000D03*
X168885000Y-54760000D03*
%TD*%
D17*
%TO.C,C14*%
X177845001Y-56915000D03*
X177845001Y-58465000D03*
%TD*%
D22*
%TO.C,R27*%
X168890000Y-50715000D03*
X168890000Y-49065000D03*
%TD*%
D14*
%TO.C,R14*%
X137140000Y-72480000D03*
X138790000Y-72480000D03*
%TD*%
D23*
%TO.C,U3*%
X176188870Y-102889999D03*
X176188870Y-103390000D03*
X176188870Y-103890000D03*
X176188870Y-104390001D03*
D24*
X175478569Y-104596300D03*
X174978570Y-104596300D03*
X174478571Y-104596300D03*
D23*
X173768270Y-104390001D03*
X173768270Y-103890000D03*
X173768270Y-103390000D03*
X173768270Y-102889999D03*
D24*
X174478571Y-102683700D03*
X174978570Y-102683700D03*
X175478569Y-102683700D03*
%TD*%
D25*
%TO.C,D1*%
X192250000Y-105330001D03*
X192250000Y-101329999D03*
%TD*%
D10*
%TO.C,R28*%
X167420000Y-54890000D03*
X165770000Y-54890000D03*
%TD*%
%TO.C,R36*%
X205230000Y-64655000D03*
X203580000Y-64655000D03*
%TD*%
D14*
%TO.C,R20*%
X182480000Y-57700000D03*
X184130000Y-57700000D03*
%TD*%
D20*
%TO.C,D18*%
X172235910Y-56378409D03*
X172235910Y-54178411D03*
%TD*%
D14*
%TO.C,R37*%
X203560000Y-59310000D03*
X205210000Y-59310000D03*
%TD*%
D13*
%TO.C,C19*%
X194635001Y-60190000D03*
X196185001Y-60190000D03*
%TD*%
D21*
%TO.C,C13*%
X153870000Y-88320000D03*
X152320000Y-88320000D03*
%TD*%
D26*
%TO.C,R26*%
X159800000Y-59935000D03*
X159800000Y-61585000D03*
%TD*%
D13*
%TO.C,C17*%
X203030000Y-70920000D03*
X204580000Y-70920000D03*
%TD*%
%TO.C,C21*%
X157560000Y-46680000D03*
X159110000Y-46680000D03*
%TD*%
D14*
%TO.C,R38*%
X206635000Y-62880000D03*
X208285000Y-62880000D03*
%TD*%
D10*
%TO.C,R19*%
X188070001Y-58830000D03*
X186420001Y-58830000D03*
%TD*%
D27*
%TO.C,Q1*%
X139393503Y-79693503D03*
X138050000Y-78350000D03*
X140348097Y-77395406D03*
%TD*%
D22*
%TO.C,R22*%
X167340000Y-50705000D03*
X167340000Y-49055000D03*
%TD*%
D15*
%TO.C,C32*%
X170455000Y-56340000D03*
X170455000Y-54790000D03*
%TD*%
D21*
%TO.C,C6*%
X196730953Y-101050273D03*
X195180953Y-101050273D03*
%TD*%
D17*
%TO.C,C1*%
X173870000Y-106065000D03*
X173870000Y-107615000D03*
%TD*%
D13*
%TO.C,C15*%
X184586992Y-97311992D03*
X186136992Y-97311992D03*
%TD*%
D22*
%TO.C,R21*%
X189580001Y-60405000D03*
X189580001Y-58755000D03*
%TD*%
D10*
%TO.C,R23*%
X165445000Y-48180000D03*
X163795000Y-48180000D03*
%TD*%
D16*
%TO.C,D7*%
X194480003Y-58330000D03*
X196680001Y-58330000D03*
%TD*%
D21*
%TO.C,C11*%
X153635000Y-94060000D03*
X152085000Y-94060000D03*
%TD*%
D16*
%TO.C,D9*%
X173842501Y-48545000D03*
X176042499Y-48545000D03*
%TD*%
D13*
%TO.C,C34*%
X206680000Y-64645000D03*
X208230000Y-64645000D03*
%TD*%
D20*
%TO.C,D8*%
X192885911Y-60533409D03*
X192885911Y-58333411D03*
%TD*%
D18*
%TO.C,D5*%
X201830000Y-69160000D03*
X199630000Y-69160000D03*
%TD*%
D15*
%TO.C,C20*%
X191105001Y-60375000D03*
X191105001Y-58825000D03*
%TD*%
D14*
%TO.C,R11*%
X208115000Y-70980000D03*
X209765000Y-70980000D03*
%TD*%
D10*
%TO.C,R24*%
X162380000Y-48180000D03*
X160730000Y-48180000D03*
%TD*%
D26*
%TO.C,R17*%
X211280000Y-65890000D03*
X211280000Y-67540000D03*
%TD*%
%TO.C,R12*%
X179505001Y-56895000D03*
X179505001Y-58545000D03*
%TD*%
D12*
%TO.C,IC7*%
X188260001Y-57290000D03*
X188260001Y-56640000D03*
X188260001Y-55990000D03*
X189960001Y-55990000D03*
X189960001Y-57290000D03*
%TD*%
D22*
%TO.C,R25*%
X159160000Y-50005000D03*
X159160000Y-48355000D03*
%TD*%
D17*
%TO.C,C12*%
X158290000Y-63235000D03*
X158290000Y-64785000D03*
%TD*%
D14*
%TO.C,R30*%
X161630000Y-53780000D03*
X163280000Y-53780000D03*
%TD*%
D28*
%TO.C,U4*%
X179150000Y-102050000D03*
X181450000Y-102050001D03*
X183750000Y-102050000D03*
D29*
X181450000Y-108349999D03*
%TD*%
G36*
X166068894Y-26021728D02*
G01*
X166114649Y-26074532D01*
X166125834Y-26128305D01*
X166060769Y-29693783D01*
X166039865Y-29760453D01*
X165986235Y-29805236D01*
X165934184Y-29815494D01*
X163890448Y-29772532D01*
X163823837Y-29751442D01*
X163779202Y-29697689D01*
X163769058Y-29649528D01*
X163741539Y-26127012D01*
X163760699Y-26059821D01*
X163813144Y-26013654D01*
X163865535Y-26002043D01*
X166001855Y-26002043D01*
X166068894Y-26021728D01*
G37*
G36*
X186070719Y-26021728D02*
G01*
X186116474Y-26074532D01*
X186127659Y-26128305D01*
X186060769Y-29793783D01*
X186039865Y-29860453D01*
X185986235Y-29905236D01*
X185934184Y-29915494D01*
X183890448Y-29872532D01*
X183823837Y-29851442D01*
X183779202Y-29797689D01*
X183769058Y-29749528D01*
X183740964Y-26153409D01*
X183760124Y-26086218D01*
X183812569Y-26040051D01*
X183863404Y-26028450D01*
X185966444Y-26002053D01*
X185968000Y-26002043D01*
X186003680Y-26002043D01*
X186070719Y-26021728D01*
G37*
G36*
X177058542Y-78415923D02*
G01*
X177124939Y-78437675D01*
X177169036Y-78491872D01*
X177178199Y-78550989D01*
X177000022Y-80528753D01*
X176974401Y-80593756D01*
X176917705Y-80634588D01*
X176878315Y-80641614D01*
X172968498Y-80698142D01*
X172901181Y-80679429D01*
X172854667Y-80627292D01*
X172842733Y-80571517D01*
X172868472Y-79361787D01*
X172889578Y-79295182D01*
X172933023Y-79255590D01*
X173290474Y-79060430D01*
X173358747Y-79045581D01*
X173424210Y-79070002D01*
X173466079Y-79125937D01*
X173471060Y-79195629D01*
X173443612Y-79250463D01*
X173417742Y-79280320D01*
X173417741Y-79280322D01*
X173358326Y-79410427D01*
X173337972Y-79551999D01*
X173358326Y-79693570D01*
X173417738Y-79823673D01*
X173417740Y-79823677D01*
X173511400Y-79931772D01*
X173631721Y-80009105D01*
X173768948Y-80049407D01*
X173768956Y-80049408D01*
X173840468Y-80052043D01*
X176040454Y-80052043D01*
X176112036Y-80049752D01*
X176249373Y-80009435D01*
X176249374Y-80009434D01*
X176369793Y-79932054D01*
X176463529Y-79823884D01*
X176463533Y-79823877D01*
X176522996Y-79693680D01*
X176543366Y-79552000D01*
X176522996Y-79410320D01*
X176463533Y-79280123D01*
X176463529Y-79280116D01*
X176369796Y-79171948D01*
X176369794Y-79171946D01*
X176249378Y-79094566D01*
X176249377Y-79094565D01*
X176112039Y-79054247D01*
X176112033Y-79054246D01*
X176040476Y-79052043D01*
X173840456Y-79052043D01*
X173792878Y-79053738D01*
X173725180Y-79036453D01*
X173677574Y-78985312D01*
X173665175Y-78916551D01*
X173691918Y-78852002D01*
X173729041Y-78820982D01*
X174580419Y-78356149D01*
X174643684Y-78341044D01*
X177058542Y-78415923D01*
G37*
G36*
X172875924Y-85677712D02*
G01*
X177325310Y-85912881D01*
X177391217Y-85936076D01*
X177434121Y-85991222D01*
X177441607Y-86053617D01*
X177139421Y-88248909D01*
X177110778Y-88312638D01*
X177052228Y-88350765D01*
X176982925Y-88351346D01*
X175011379Y-87795389D01*
X174952198Y-87758248D01*
X174922492Y-87695008D01*
X174931692Y-87625747D01*
X174976876Y-87572454D01*
X175043701Y-87552050D01*
X175045033Y-87552043D01*
X176040458Y-87552043D01*
X176112024Y-87549666D01*
X176249342Y-87509354D01*
X176369737Y-87431988D01*
X176369738Y-87431987D01*
X176463456Y-87323837D01*
X176463460Y-87323830D01*
X176522911Y-87193659D01*
X176522912Y-87193656D01*
X176543280Y-87052000D01*
X176522912Y-86910343D01*
X176522911Y-86910340D01*
X176463460Y-86780169D01*
X176463456Y-86780162D01*
X176369738Y-86672012D01*
X176369737Y-86672011D01*
X176249341Y-86594645D01*
X176112023Y-86554333D01*
X176040454Y-86552043D01*
X173840481Y-86552043D01*
X173768937Y-86554506D01*
X173631686Y-86594815D01*
X173511343Y-86672162D01*
X173417670Y-86780274D01*
X173417668Y-86780276D01*
X173358243Y-86910403D01*
X173337886Y-87052000D01*
X173351430Y-87146205D01*
X173341486Y-87215363D01*
X173295731Y-87268167D01*
X173228691Y-87287851D01*
X173195038Y-87283197D01*
X172980366Y-87222662D01*
X172921185Y-87185521D01*
X172891479Y-87122281D01*
X172890778Y-87117009D01*
X172746137Y-85815232D01*
X172758298Y-85746429D01*
X172805727Y-85695123D01*
X172873364Y-85677603D01*
X172875924Y-85677712D01*
G37*
M02*
