%TF.GenerationSoftware,KiCad,Pcbnew,8.0.0*%
%TF.CreationDate,2026-04-18T16:36:17+08:00*%
%TF.ProjectId,STC_mainboard,5354435f-6d61-4696-9e62-6f6172642e6b,rev?*%
%TF.SameCoordinates,Original*%
%TF.FileFunction,Legend,Bot*%
%TF.FilePolarity,Positive*%
%FSLAX46Y46*%
G04 Gerber Fmt 4.6, Leading zero omitted, Abs format (unit mm)*
G04 Created by KiCad (PCBNEW 8.0.0) date 2026-04-18 16:36:17*
%MOMM*%
%LPD*%
G01*
G04 APERTURE LIST*
%ADD10C,0.150000*%
%ADD11C,0.120000*%
%ADD12C,0.203200*%
%ADD13C,0.152400*%
%ADD14C,0.000000*%
%ADD15C,0.200000*%
%ADD16C,0.254000*%
G04 APERTURE END LIST*
D10*
X183801666Y-98084819D02*
X184134999Y-97608628D01*
X184373094Y-98084819D02*
X184373094Y-97084819D01*
X184373094Y-97084819D02*
X183992142Y-97084819D01*
X183992142Y-97084819D02*
X183896904Y-97132438D01*
X183896904Y-97132438D02*
X183849285Y-97180057D01*
X183849285Y-97180057D02*
X183801666Y-97275295D01*
X183801666Y-97275295D02*
X183801666Y-97418152D01*
X183801666Y-97418152D02*
X183849285Y-97513390D01*
X183849285Y-97513390D02*
X183896904Y-97561009D01*
X183896904Y-97561009D02*
X183992142Y-97608628D01*
X183992142Y-97608628D02*
X184373094Y-97608628D01*
X183468332Y-97084819D02*
X182801666Y-97084819D01*
X182801666Y-97084819D02*
X183230237Y-98084819D01*
X215531577Y-65957843D02*
X214731120Y-65957843D01*
X215455343Y-66796417D02*
X215493460Y-66758300D01*
X215493460Y-66758300D02*
X215531577Y-66643949D01*
X215531577Y-66643949D02*
X215531577Y-66567715D01*
X215531577Y-66567715D02*
X215493460Y-66453364D01*
X215493460Y-66453364D02*
X215417226Y-66377130D01*
X215417226Y-66377130D02*
X215340992Y-66339013D01*
X215340992Y-66339013D02*
X215188524Y-66300896D01*
X215188524Y-66300896D02*
X215074173Y-66300896D01*
X215074173Y-66300896D02*
X214921705Y-66339013D01*
X214921705Y-66339013D02*
X214845471Y-66377130D01*
X214845471Y-66377130D02*
X214769237Y-66453364D01*
X214769237Y-66453364D02*
X214731120Y-66567715D01*
X214731120Y-66567715D02*
X214731120Y-66643949D01*
X214731120Y-66643949D02*
X214769237Y-66758300D01*
X214769237Y-66758300D02*
X214807354Y-66796417D01*
X214997939Y-67482523D02*
X215531577Y-67482523D01*
X214693003Y-67291938D02*
X215264758Y-67101353D01*
X215264758Y-67101353D02*
X215264758Y-67596874D01*
X175457857Y-52164580D02*
X175505476Y-52212200D01*
X175505476Y-52212200D02*
X175648333Y-52259819D01*
X175648333Y-52259819D02*
X175743571Y-52259819D01*
X175743571Y-52259819D02*
X175886428Y-52212200D01*
X175886428Y-52212200D02*
X175981666Y-52116961D01*
X175981666Y-52116961D02*
X176029285Y-52021723D01*
X176029285Y-52021723D02*
X176076904Y-51831247D01*
X176076904Y-51831247D02*
X176076904Y-51688390D01*
X176076904Y-51688390D02*
X176029285Y-51497914D01*
X176029285Y-51497914D02*
X175981666Y-51402676D01*
X175981666Y-51402676D02*
X175886428Y-51307438D01*
X175886428Y-51307438D02*
X175743571Y-51259819D01*
X175743571Y-51259819D02*
X175648333Y-51259819D01*
X175648333Y-51259819D02*
X175505476Y-51307438D01*
X175505476Y-51307438D02*
X175457857Y-51355057D01*
X175076904Y-51355057D02*
X175029285Y-51307438D01*
X175029285Y-51307438D02*
X174934047Y-51259819D01*
X174934047Y-51259819D02*
X174695952Y-51259819D01*
X174695952Y-51259819D02*
X174600714Y-51307438D01*
X174600714Y-51307438D02*
X174553095Y-51355057D01*
X174553095Y-51355057D02*
X174505476Y-51450295D01*
X174505476Y-51450295D02*
X174505476Y-51545533D01*
X174505476Y-51545533D02*
X174553095Y-51688390D01*
X174553095Y-51688390D02*
X175124523Y-52259819D01*
X175124523Y-52259819D02*
X174505476Y-52259819D01*
X173600714Y-51259819D02*
X174076904Y-51259819D01*
X174076904Y-51259819D02*
X174124523Y-51736009D01*
X174124523Y-51736009D02*
X174076904Y-51688390D01*
X174076904Y-51688390D02*
X173981666Y-51640771D01*
X173981666Y-51640771D02*
X173743571Y-51640771D01*
X173743571Y-51640771D02*
X173648333Y-51688390D01*
X173648333Y-51688390D02*
X173600714Y-51736009D01*
X173600714Y-51736009D02*
X173553095Y-51831247D01*
X173553095Y-51831247D02*
X173553095Y-52069342D01*
X173553095Y-52069342D02*
X173600714Y-52164580D01*
X173600714Y-52164580D02*
X173648333Y-52212200D01*
X173648333Y-52212200D02*
X173743571Y-52259819D01*
X173743571Y-52259819D02*
X173981666Y-52259819D01*
X173981666Y-52259819D02*
X174076904Y-52212200D01*
X174076904Y-52212200D02*
X174124523Y-52164580D01*
X207997857Y-70894819D02*
X208331190Y-70418628D01*
X208569285Y-70894819D02*
X208569285Y-69894819D01*
X208569285Y-69894819D02*
X208188333Y-69894819D01*
X208188333Y-69894819D02*
X208093095Y-69942438D01*
X208093095Y-69942438D02*
X208045476Y-69990057D01*
X208045476Y-69990057D02*
X207997857Y-70085295D01*
X207997857Y-70085295D02*
X207997857Y-70228152D01*
X207997857Y-70228152D02*
X208045476Y-70323390D01*
X208045476Y-70323390D02*
X208093095Y-70371009D01*
X208093095Y-70371009D02*
X208188333Y-70418628D01*
X208188333Y-70418628D02*
X208569285Y-70418628D01*
X207045476Y-70894819D02*
X207616904Y-70894819D01*
X207331190Y-70894819D02*
X207331190Y-69894819D01*
X207331190Y-69894819D02*
X207426428Y-70037676D01*
X207426428Y-70037676D02*
X207521666Y-70132914D01*
X207521666Y-70132914D02*
X207616904Y-70180533D01*
X206474047Y-70323390D02*
X206569285Y-70275771D01*
X206569285Y-70275771D02*
X206616904Y-70228152D01*
X206616904Y-70228152D02*
X206664523Y-70132914D01*
X206664523Y-70132914D02*
X206664523Y-70085295D01*
X206664523Y-70085295D02*
X206616904Y-69990057D01*
X206616904Y-69990057D02*
X206569285Y-69942438D01*
X206569285Y-69942438D02*
X206474047Y-69894819D01*
X206474047Y-69894819D02*
X206283571Y-69894819D01*
X206283571Y-69894819D02*
X206188333Y-69942438D01*
X206188333Y-69942438D02*
X206140714Y-69990057D01*
X206140714Y-69990057D02*
X206093095Y-70085295D01*
X206093095Y-70085295D02*
X206093095Y-70132914D01*
X206093095Y-70132914D02*
X206140714Y-70228152D01*
X206140714Y-70228152D02*
X206188333Y-70275771D01*
X206188333Y-70275771D02*
X206283571Y-70323390D01*
X206283571Y-70323390D02*
X206474047Y-70323390D01*
X206474047Y-70323390D02*
X206569285Y-70371009D01*
X206569285Y-70371009D02*
X206616904Y-70418628D01*
X206616904Y-70418628D02*
X206664523Y-70513866D01*
X206664523Y-70513866D02*
X206664523Y-70704342D01*
X206664523Y-70704342D02*
X206616904Y-70799580D01*
X206616904Y-70799580D02*
X206569285Y-70847200D01*
X206569285Y-70847200D02*
X206474047Y-70894819D01*
X206474047Y-70894819D02*
X206283571Y-70894819D01*
X206283571Y-70894819D02*
X206188333Y-70847200D01*
X206188333Y-70847200D02*
X206140714Y-70799580D01*
X206140714Y-70799580D02*
X206093095Y-70704342D01*
X206093095Y-70704342D02*
X206093095Y-70513866D01*
X206093095Y-70513866D02*
X206140714Y-70418628D01*
X206140714Y-70418628D02*
X206188333Y-70371009D01*
X206188333Y-70371009D02*
X206283571Y-70323390D01*
X212882857Y-66229580D02*
X212930476Y-66277200D01*
X212930476Y-66277200D02*
X213073333Y-66324819D01*
X213073333Y-66324819D02*
X213168571Y-66324819D01*
X213168571Y-66324819D02*
X213311428Y-66277200D01*
X213311428Y-66277200D02*
X213406666Y-66181961D01*
X213406666Y-66181961D02*
X213454285Y-66086723D01*
X213454285Y-66086723D02*
X213501904Y-65896247D01*
X213501904Y-65896247D02*
X213501904Y-65753390D01*
X213501904Y-65753390D02*
X213454285Y-65562914D01*
X213454285Y-65562914D02*
X213406666Y-65467676D01*
X213406666Y-65467676D02*
X213311428Y-65372438D01*
X213311428Y-65372438D02*
X213168571Y-65324819D01*
X213168571Y-65324819D02*
X213073333Y-65324819D01*
X213073333Y-65324819D02*
X212930476Y-65372438D01*
X212930476Y-65372438D02*
X212882857Y-65420057D01*
X212549523Y-65324819D02*
X211930476Y-65324819D01*
X211930476Y-65324819D02*
X212263809Y-65705771D01*
X212263809Y-65705771D02*
X212120952Y-65705771D01*
X212120952Y-65705771D02*
X212025714Y-65753390D01*
X212025714Y-65753390D02*
X211978095Y-65801009D01*
X211978095Y-65801009D02*
X211930476Y-65896247D01*
X211930476Y-65896247D02*
X211930476Y-66134342D01*
X211930476Y-66134342D02*
X211978095Y-66229580D01*
X211978095Y-66229580D02*
X212025714Y-66277200D01*
X212025714Y-66277200D02*
X212120952Y-66324819D01*
X212120952Y-66324819D02*
X212406666Y-66324819D01*
X212406666Y-66324819D02*
X212501904Y-66277200D01*
X212501904Y-66277200D02*
X212549523Y-66229580D01*
X211597142Y-65324819D02*
X210978095Y-65324819D01*
X210978095Y-65324819D02*
X211311428Y-65705771D01*
X211311428Y-65705771D02*
X211168571Y-65705771D01*
X211168571Y-65705771D02*
X211073333Y-65753390D01*
X211073333Y-65753390D02*
X211025714Y-65801009D01*
X211025714Y-65801009D02*
X210978095Y-65896247D01*
X210978095Y-65896247D02*
X210978095Y-66134342D01*
X210978095Y-66134342D02*
X211025714Y-66229580D01*
X211025714Y-66229580D02*
X211073333Y-66277200D01*
X211073333Y-66277200D02*
X211168571Y-66324819D01*
X211168571Y-66324819D02*
X211454285Y-66324819D01*
X211454285Y-66324819D02*
X211549523Y-66277200D01*
X211549523Y-66277200D02*
X211597142Y-66229580D01*
X172319580Y-49282142D02*
X172367200Y-49234523D01*
X172367200Y-49234523D02*
X172414819Y-49091666D01*
X172414819Y-49091666D02*
X172414819Y-48996428D01*
X172414819Y-48996428D02*
X172367200Y-48853571D01*
X172367200Y-48853571D02*
X172271961Y-48758333D01*
X172271961Y-48758333D02*
X172176723Y-48710714D01*
X172176723Y-48710714D02*
X171986247Y-48663095D01*
X171986247Y-48663095D02*
X171843390Y-48663095D01*
X171843390Y-48663095D02*
X171652914Y-48710714D01*
X171652914Y-48710714D02*
X171557676Y-48758333D01*
X171557676Y-48758333D02*
X171462438Y-48853571D01*
X171462438Y-48853571D02*
X171414819Y-48996428D01*
X171414819Y-48996428D02*
X171414819Y-49091666D01*
X171414819Y-49091666D02*
X171462438Y-49234523D01*
X171462438Y-49234523D02*
X171510057Y-49282142D01*
X171510057Y-49663095D02*
X171462438Y-49710714D01*
X171462438Y-49710714D02*
X171414819Y-49805952D01*
X171414819Y-49805952D02*
X171414819Y-50044047D01*
X171414819Y-50044047D02*
X171462438Y-50139285D01*
X171462438Y-50139285D02*
X171510057Y-50186904D01*
X171510057Y-50186904D02*
X171605295Y-50234523D01*
X171605295Y-50234523D02*
X171700533Y-50234523D01*
X171700533Y-50234523D02*
X171843390Y-50186904D01*
X171843390Y-50186904D02*
X172414819Y-49615476D01*
X172414819Y-49615476D02*
X172414819Y-50234523D01*
X171414819Y-51091666D02*
X171414819Y-50901190D01*
X171414819Y-50901190D02*
X171462438Y-50805952D01*
X171462438Y-50805952D02*
X171510057Y-50758333D01*
X171510057Y-50758333D02*
X171652914Y-50663095D01*
X171652914Y-50663095D02*
X171843390Y-50615476D01*
X171843390Y-50615476D02*
X172224342Y-50615476D01*
X172224342Y-50615476D02*
X172319580Y-50663095D01*
X172319580Y-50663095D02*
X172367200Y-50710714D01*
X172367200Y-50710714D02*
X172414819Y-50805952D01*
X172414819Y-50805952D02*
X172414819Y-50996428D01*
X172414819Y-50996428D02*
X172367200Y-51091666D01*
X172367200Y-51091666D02*
X172319580Y-51139285D01*
X172319580Y-51139285D02*
X172224342Y-51186904D01*
X172224342Y-51186904D02*
X171986247Y-51186904D01*
X171986247Y-51186904D02*
X171891009Y-51139285D01*
X171891009Y-51139285D02*
X171843390Y-51091666D01*
X171843390Y-51091666D02*
X171795771Y-50996428D01*
X171795771Y-50996428D02*
X171795771Y-50805952D01*
X171795771Y-50805952D02*
X171843390Y-50710714D01*
X171843390Y-50710714D02*
X171891009Y-50663095D01*
X171891009Y-50663095D02*
X171986247Y-50615476D01*
X176146785Y-56479140D02*
X176146785Y-55479140D01*
X176146785Y-55479140D02*
X175908690Y-55479140D01*
X175908690Y-55479140D02*
X175765833Y-55526759D01*
X175765833Y-55526759D02*
X175670595Y-55621997D01*
X175670595Y-55621997D02*
X175622976Y-55717235D01*
X175622976Y-55717235D02*
X175575357Y-55907711D01*
X175575357Y-55907711D02*
X175575357Y-56050568D01*
X175575357Y-56050568D02*
X175622976Y-56241044D01*
X175622976Y-56241044D02*
X175670595Y-56336282D01*
X175670595Y-56336282D02*
X175765833Y-56431521D01*
X175765833Y-56431521D02*
X175908690Y-56479140D01*
X175908690Y-56479140D02*
X176146785Y-56479140D01*
X174622976Y-56479140D02*
X175194404Y-56479140D01*
X174908690Y-56479140D02*
X174908690Y-55479140D01*
X174908690Y-55479140D02*
X175003928Y-55621997D01*
X175003928Y-55621997D02*
X175099166Y-55717235D01*
X175099166Y-55717235D02*
X175194404Y-55764854D01*
X173670595Y-56479140D02*
X174242023Y-56479140D01*
X173956309Y-56479140D02*
X173956309Y-55479140D01*
X173956309Y-55479140D02*
X174051547Y-55621997D01*
X174051547Y-55621997D02*
X174146785Y-55717235D01*
X174146785Y-55717235D02*
X174242023Y-55764854D01*
X170741577Y-50572843D02*
X169941120Y-50572843D01*
X170665343Y-51411417D02*
X170703460Y-51373300D01*
X170703460Y-51373300D02*
X170741577Y-51258949D01*
X170741577Y-51258949D02*
X170741577Y-51182715D01*
X170741577Y-51182715D02*
X170703460Y-51068364D01*
X170703460Y-51068364D02*
X170627226Y-50992130D01*
X170627226Y-50992130D02*
X170550992Y-50954013D01*
X170550992Y-50954013D02*
X170398524Y-50915896D01*
X170398524Y-50915896D02*
X170284173Y-50915896D01*
X170284173Y-50915896D02*
X170131705Y-50954013D01*
X170131705Y-50954013D02*
X170055471Y-50992130D01*
X170055471Y-50992130D02*
X169979237Y-51068364D01*
X169979237Y-51068364D02*
X169941120Y-51182715D01*
X169941120Y-51182715D02*
X169941120Y-51258949D01*
X169941120Y-51258949D02*
X169979237Y-51373300D01*
X169979237Y-51373300D02*
X170017354Y-51411417D01*
X170741577Y-51792587D02*
X170741577Y-51945055D01*
X170741577Y-51945055D02*
X170703460Y-52021289D01*
X170703460Y-52021289D02*
X170665343Y-52059406D01*
X170665343Y-52059406D02*
X170550992Y-52135640D01*
X170550992Y-52135640D02*
X170398524Y-52173757D01*
X170398524Y-52173757D02*
X170093588Y-52173757D01*
X170093588Y-52173757D02*
X170017354Y-52135640D01*
X170017354Y-52135640D02*
X169979237Y-52097523D01*
X169979237Y-52097523D02*
X169941120Y-52021289D01*
X169941120Y-52021289D02*
X169941120Y-51868821D01*
X169941120Y-51868821D02*
X169979237Y-51792587D01*
X169979237Y-51792587D02*
X170017354Y-51754470D01*
X170017354Y-51754470D02*
X170093588Y-51716353D01*
X170093588Y-51716353D02*
X170284173Y-51716353D01*
X170284173Y-51716353D02*
X170360407Y-51754470D01*
X170360407Y-51754470D02*
X170398524Y-51792587D01*
X170398524Y-51792587D02*
X170436641Y-51868821D01*
X170436641Y-51868821D02*
X170436641Y-52021289D01*
X170436641Y-52021289D02*
X170398524Y-52097523D01*
X170398524Y-52097523D02*
X170360407Y-52135640D01*
X170360407Y-52135640D02*
X170284173Y-52173757D01*
X331181666Y-60549580D02*
X331229285Y-60597200D01*
X331229285Y-60597200D02*
X331372142Y-60644819D01*
X331372142Y-60644819D02*
X331467380Y-60644819D01*
X331467380Y-60644819D02*
X331610237Y-60597200D01*
X331610237Y-60597200D02*
X331705475Y-60501961D01*
X331705475Y-60501961D02*
X331753094Y-60406723D01*
X331753094Y-60406723D02*
X331800713Y-60216247D01*
X331800713Y-60216247D02*
X331800713Y-60073390D01*
X331800713Y-60073390D02*
X331753094Y-59882914D01*
X331753094Y-59882914D02*
X331705475Y-59787676D01*
X331705475Y-59787676D02*
X331610237Y-59692438D01*
X331610237Y-59692438D02*
X331467380Y-59644819D01*
X331467380Y-59644819D02*
X331372142Y-59644819D01*
X331372142Y-59644819D02*
X331229285Y-59692438D01*
X331229285Y-59692438D02*
X331181666Y-59740057D01*
X330324523Y-59978152D02*
X330324523Y-60644819D01*
X330562618Y-59597200D02*
X330800713Y-60311485D01*
X330800713Y-60311485D02*
X330181666Y-60311485D01*
X175457857Y-57884580D02*
X175505476Y-57932200D01*
X175505476Y-57932200D02*
X175648333Y-57979819D01*
X175648333Y-57979819D02*
X175743571Y-57979819D01*
X175743571Y-57979819D02*
X175886428Y-57932200D01*
X175886428Y-57932200D02*
X175981666Y-57836961D01*
X175981666Y-57836961D02*
X176029285Y-57741723D01*
X176029285Y-57741723D02*
X176076904Y-57551247D01*
X176076904Y-57551247D02*
X176076904Y-57408390D01*
X176076904Y-57408390D02*
X176029285Y-57217914D01*
X176029285Y-57217914D02*
X175981666Y-57122676D01*
X175981666Y-57122676D02*
X175886428Y-57027438D01*
X175886428Y-57027438D02*
X175743571Y-56979819D01*
X175743571Y-56979819D02*
X175648333Y-56979819D01*
X175648333Y-56979819D02*
X175505476Y-57027438D01*
X175505476Y-57027438D02*
X175457857Y-57075057D01*
X175124523Y-56979819D02*
X174505476Y-56979819D01*
X174505476Y-56979819D02*
X174838809Y-57360771D01*
X174838809Y-57360771D02*
X174695952Y-57360771D01*
X174695952Y-57360771D02*
X174600714Y-57408390D01*
X174600714Y-57408390D02*
X174553095Y-57456009D01*
X174553095Y-57456009D02*
X174505476Y-57551247D01*
X174505476Y-57551247D02*
X174505476Y-57789342D01*
X174505476Y-57789342D02*
X174553095Y-57884580D01*
X174553095Y-57884580D02*
X174600714Y-57932200D01*
X174600714Y-57932200D02*
X174695952Y-57979819D01*
X174695952Y-57979819D02*
X174981666Y-57979819D01*
X174981666Y-57979819D02*
X175076904Y-57932200D01*
X175076904Y-57932200D02*
X175124523Y-57884580D01*
X173553095Y-57979819D02*
X174124523Y-57979819D01*
X173838809Y-57979819D02*
X173838809Y-56979819D01*
X173838809Y-56979819D02*
X173934047Y-57122676D01*
X173934047Y-57122676D02*
X174029285Y-57217914D01*
X174029285Y-57217914D02*
X174124523Y-57265533D01*
X205464580Y-71057142D02*
X205512200Y-71009523D01*
X205512200Y-71009523D02*
X205559819Y-70866666D01*
X205559819Y-70866666D02*
X205559819Y-70771428D01*
X205559819Y-70771428D02*
X205512200Y-70628571D01*
X205512200Y-70628571D02*
X205416961Y-70533333D01*
X205416961Y-70533333D02*
X205321723Y-70485714D01*
X205321723Y-70485714D02*
X205131247Y-70438095D01*
X205131247Y-70438095D02*
X204988390Y-70438095D01*
X204988390Y-70438095D02*
X204797914Y-70485714D01*
X204797914Y-70485714D02*
X204702676Y-70533333D01*
X204702676Y-70533333D02*
X204607438Y-70628571D01*
X204607438Y-70628571D02*
X204559819Y-70771428D01*
X204559819Y-70771428D02*
X204559819Y-70866666D01*
X204559819Y-70866666D02*
X204607438Y-71009523D01*
X204607438Y-71009523D02*
X204655057Y-71057142D01*
X205559819Y-72009523D02*
X205559819Y-71438095D01*
X205559819Y-71723809D02*
X204559819Y-71723809D01*
X204559819Y-71723809D02*
X204702676Y-71628571D01*
X204702676Y-71628571D02*
X204797914Y-71533333D01*
X204797914Y-71533333D02*
X204845533Y-71438095D01*
X204988390Y-72580952D02*
X204940771Y-72485714D01*
X204940771Y-72485714D02*
X204893152Y-72438095D01*
X204893152Y-72438095D02*
X204797914Y-72390476D01*
X204797914Y-72390476D02*
X204750295Y-72390476D01*
X204750295Y-72390476D02*
X204655057Y-72438095D01*
X204655057Y-72438095D02*
X204607438Y-72485714D01*
X204607438Y-72485714D02*
X204559819Y-72580952D01*
X204559819Y-72580952D02*
X204559819Y-72771428D01*
X204559819Y-72771428D02*
X204607438Y-72866666D01*
X204607438Y-72866666D02*
X204655057Y-72914285D01*
X204655057Y-72914285D02*
X204750295Y-72961904D01*
X204750295Y-72961904D02*
X204797914Y-72961904D01*
X204797914Y-72961904D02*
X204893152Y-72914285D01*
X204893152Y-72914285D02*
X204940771Y-72866666D01*
X204940771Y-72866666D02*
X204988390Y-72771428D01*
X204988390Y-72771428D02*
X204988390Y-72580952D01*
X204988390Y-72580952D02*
X205036009Y-72485714D01*
X205036009Y-72485714D02*
X205083628Y-72438095D01*
X205083628Y-72438095D02*
X205178866Y-72390476D01*
X205178866Y-72390476D02*
X205369342Y-72390476D01*
X205369342Y-72390476D02*
X205464580Y-72438095D01*
X205464580Y-72438095D02*
X205512200Y-72485714D01*
X205512200Y-72485714D02*
X205559819Y-72580952D01*
X205559819Y-72580952D02*
X205559819Y-72771428D01*
X205559819Y-72771428D02*
X205512200Y-72866666D01*
X205512200Y-72866666D02*
X205464580Y-72914285D01*
X205464580Y-72914285D02*
X205369342Y-72961904D01*
X205369342Y-72961904D02*
X205178866Y-72961904D01*
X205178866Y-72961904D02*
X205083628Y-72914285D01*
X205083628Y-72914285D02*
X205036009Y-72866666D01*
X205036009Y-72866666D02*
X204988390Y-72771428D01*
X170531577Y-45157843D02*
X169731120Y-45157843D01*
X170455343Y-45996417D02*
X170493460Y-45958300D01*
X170493460Y-45958300D02*
X170531577Y-45843949D01*
X170531577Y-45843949D02*
X170531577Y-45767715D01*
X170531577Y-45767715D02*
X170493460Y-45653364D01*
X170493460Y-45653364D02*
X170417226Y-45577130D01*
X170417226Y-45577130D02*
X170340992Y-45539013D01*
X170340992Y-45539013D02*
X170188524Y-45500896D01*
X170188524Y-45500896D02*
X170074173Y-45500896D01*
X170074173Y-45500896D02*
X169921705Y-45539013D01*
X169921705Y-45539013D02*
X169845471Y-45577130D01*
X169845471Y-45577130D02*
X169769237Y-45653364D01*
X169769237Y-45653364D02*
X169731120Y-45767715D01*
X169731120Y-45767715D02*
X169731120Y-45843949D01*
X169731120Y-45843949D02*
X169769237Y-45958300D01*
X169769237Y-45958300D02*
X169807354Y-45996417D01*
X170074173Y-46453821D02*
X170036056Y-46377587D01*
X170036056Y-46377587D02*
X169997939Y-46339470D01*
X169997939Y-46339470D02*
X169921705Y-46301353D01*
X169921705Y-46301353D02*
X169883588Y-46301353D01*
X169883588Y-46301353D02*
X169807354Y-46339470D01*
X169807354Y-46339470D02*
X169769237Y-46377587D01*
X169769237Y-46377587D02*
X169731120Y-46453821D01*
X169731120Y-46453821D02*
X169731120Y-46606289D01*
X169731120Y-46606289D02*
X169769237Y-46682523D01*
X169769237Y-46682523D02*
X169807354Y-46720640D01*
X169807354Y-46720640D02*
X169883588Y-46758757D01*
X169883588Y-46758757D02*
X169921705Y-46758757D01*
X169921705Y-46758757D02*
X169997939Y-46720640D01*
X169997939Y-46720640D02*
X170036056Y-46682523D01*
X170036056Y-46682523D02*
X170074173Y-46606289D01*
X170074173Y-46606289D02*
X170074173Y-46453821D01*
X170074173Y-46453821D02*
X170112290Y-46377587D01*
X170112290Y-46377587D02*
X170150407Y-46339470D01*
X170150407Y-46339470D02*
X170226641Y-46301353D01*
X170226641Y-46301353D02*
X170379109Y-46301353D01*
X170379109Y-46301353D02*
X170455343Y-46339470D01*
X170455343Y-46339470D02*
X170493460Y-46377587D01*
X170493460Y-46377587D02*
X170531577Y-46453821D01*
X170531577Y-46453821D02*
X170531577Y-46606289D01*
X170531577Y-46606289D02*
X170493460Y-46682523D01*
X170493460Y-46682523D02*
X170455343Y-46720640D01*
X170455343Y-46720640D02*
X170379109Y-46758757D01*
X170379109Y-46758757D02*
X170226641Y-46758757D01*
X170226641Y-46758757D02*
X170150407Y-46720640D01*
X170150407Y-46720640D02*
X170112290Y-46682523D01*
X170112290Y-46682523D02*
X170074173Y-46606289D01*
X212731577Y-59971673D02*
X211931120Y-59971673D01*
X212655343Y-60810247D02*
X212693460Y-60772130D01*
X212693460Y-60772130D02*
X212731577Y-60657779D01*
X212731577Y-60657779D02*
X212731577Y-60581545D01*
X212731577Y-60581545D02*
X212693460Y-60467194D01*
X212693460Y-60467194D02*
X212617226Y-60390960D01*
X212617226Y-60390960D02*
X212540992Y-60352843D01*
X212540992Y-60352843D02*
X212388524Y-60314726D01*
X212388524Y-60314726D02*
X212274173Y-60314726D01*
X212274173Y-60314726D02*
X212121705Y-60352843D01*
X212121705Y-60352843D02*
X212045471Y-60390960D01*
X212045471Y-60390960D02*
X211969237Y-60467194D01*
X211969237Y-60467194D02*
X211931120Y-60581545D01*
X211931120Y-60581545D02*
X211931120Y-60657779D01*
X211931120Y-60657779D02*
X211969237Y-60772130D01*
X211969237Y-60772130D02*
X212007354Y-60810247D01*
X212731577Y-61572587D02*
X212731577Y-61115183D01*
X212731577Y-61343885D02*
X211931120Y-61343885D01*
X211931120Y-61343885D02*
X212045471Y-61267651D01*
X212045471Y-61267651D02*
X212121705Y-61191417D01*
X212121705Y-61191417D02*
X212159822Y-61115183D01*
X211931120Y-62068108D02*
X211931120Y-62144342D01*
X211931120Y-62144342D02*
X211969237Y-62220576D01*
X211969237Y-62220576D02*
X212007354Y-62258693D01*
X212007354Y-62258693D02*
X212083588Y-62296810D01*
X212083588Y-62296810D02*
X212236056Y-62334927D01*
X212236056Y-62334927D02*
X212426641Y-62334927D01*
X212426641Y-62334927D02*
X212579109Y-62296810D01*
X212579109Y-62296810D02*
X212655343Y-62258693D01*
X212655343Y-62258693D02*
X212693460Y-62220576D01*
X212693460Y-62220576D02*
X212731577Y-62144342D01*
X212731577Y-62144342D02*
X212731577Y-62068108D01*
X212731577Y-62068108D02*
X212693460Y-61991874D01*
X212693460Y-61991874D02*
X212655343Y-61953757D01*
X212655343Y-61953757D02*
X212579109Y-61915640D01*
X212579109Y-61915640D02*
X212426641Y-61877523D01*
X212426641Y-61877523D02*
X212236056Y-61877523D01*
X212236056Y-61877523D02*
X212083588Y-61915640D01*
X212083588Y-61915640D02*
X212007354Y-61953757D01*
X212007354Y-61953757D02*
X211969237Y-61991874D01*
X211969237Y-61991874D02*
X211931120Y-62068108D01*
X204818094Y-67774819D02*
X204818094Y-66774819D01*
X204818094Y-66774819D02*
X204579999Y-66774819D01*
X204579999Y-66774819D02*
X204437142Y-66822438D01*
X204437142Y-66822438D02*
X204341904Y-66917676D01*
X204341904Y-66917676D02*
X204294285Y-67012914D01*
X204294285Y-67012914D02*
X204246666Y-67203390D01*
X204246666Y-67203390D02*
X204246666Y-67346247D01*
X204246666Y-67346247D02*
X204294285Y-67536723D01*
X204294285Y-67536723D02*
X204341904Y-67631961D01*
X204341904Y-67631961D02*
X204437142Y-67727200D01*
X204437142Y-67727200D02*
X204579999Y-67774819D01*
X204579999Y-67774819D02*
X204818094Y-67774819D01*
X203389523Y-66774819D02*
X203579999Y-66774819D01*
X203579999Y-66774819D02*
X203675237Y-66822438D01*
X203675237Y-66822438D02*
X203722856Y-66870057D01*
X203722856Y-66870057D02*
X203818094Y-67012914D01*
X203818094Y-67012914D02*
X203865713Y-67203390D01*
X203865713Y-67203390D02*
X203865713Y-67584342D01*
X203865713Y-67584342D02*
X203818094Y-67679580D01*
X203818094Y-67679580D02*
X203770475Y-67727200D01*
X203770475Y-67727200D02*
X203675237Y-67774819D01*
X203675237Y-67774819D02*
X203484761Y-67774819D01*
X203484761Y-67774819D02*
X203389523Y-67727200D01*
X203389523Y-67727200D02*
X203341904Y-67679580D01*
X203341904Y-67679580D02*
X203294285Y-67584342D01*
X203294285Y-67584342D02*
X203294285Y-67346247D01*
X203294285Y-67346247D02*
X203341904Y-67251009D01*
X203341904Y-67251009D02*
X203389523Y-67203390D01*
X203389523Y-67203390D02*
X203484761Y-67155771D01*
X203484761Y-67155771D02*
X203675237Y-67155771D01*
X203675237Y-67155771D02*
X203770475Y-67203390D01*
X203770475Y-67203390D02*
X203818094Y-67251009D01*
X203818094Y-67251009D02*
X203865713Y-67346247D01*
X139572172Y-77145770D02*
X139471157Y-76573351D01*
X139976233Y-76741709D02*
X139269126Y-76034603D01*
X139269126Y-76034603D02*
X138999752Y-76303977D01*
X138999752Y-76303977D02*
X138966080Y-76404992D01*
X138966080Y-76404992D02*
X138966080Y-76472335D01*
X138966080Y-76472335D02*
X138999752Y-76573351D01*
X138999752Y-76573351D02*
X139100767Y-76674366D01*
X139100767Y-76674366D02*
X139201783Y-76708038D01*
X139201783Y-76708038D02*
X139269126Y-76708038D01*
X139269126Y-76708038D02*
X139370141Y-76674366D01*
X139370141Y-76674366D02*
X139639515Y-76404992D01*
X138898737Y-77819205D02*
X139302798Y-77415144D01*
X139100767Y-77617175D02*
X138393661Y-76910068D01*
X138393661Y-76910068D02*
X138562019Y-76943740D01*
X138562019Y-76943740D02*
X138696706Y-76943740D01*
X138696706Y-76943740D02*
X138797722Y-76910068D01*
X137955928Y-77347801D02*
X137518195Y-77785534D01*
X137518195Y-77785534D02*
X138023271Y-77819206D01*
X138023271Y-77819206D02*
X137922256Y-77920221D01*
X137922256Y-77920221D02*
X137888584Y-78021236D01*
X137888584Y-78021236D02*
X137888584Y-78088580D01*
X137888584Y-78088580D02*
X137922256Y-78189595D01*
X137922256Y-78189595D02*
X138090615Y-78357954D01*
X138090615Y-78357954D02*
X138191630Y-78391625D01*
X138191630Y-78391625D02*
X138258973Y-78391625D01*
X138258973Y-78391625D02*
X138359989Y-78357954D01*
X138359989Y-78357954D02*
X138562019Y-78155923D01*
X138562019Y-78155923D02*
X138595691Y-78054908D01*
X138595691Y-78054908D02*
X138595691Y-77987564D01*
X174568910Y-48424804D02*
X173568910Y-48424804D01*
X173568910Y-48424804D02*
X173568910Y-48662899D01*
X173568910Y-48662899D02*
X173616529Y-48805756D01*
X173616529Y-48805756D02*
X173711767Y-48900994D01*
X173711767Y-48900994D02*
X173807005Y-48948613D01*
X173807005Y-48948613D02*
X173997481Y-48996232D01*
X173997481Y-48996232D02*
X174140338Y-48996232D01*
X174140338Y-48996232D02*
X174330814Y-48948613D01*
X174330814Y-48948613D02*
X174426052Y-48900994D01*
X174426052Y-48900994D02*
X174521291Y-48805756D01*
X174521291Y-48805756D02*
X174568910Y-48662899D01*
X174568910Y-48662899D02*
X174568910Y-48424804D01*
X174568910Y-49948613D02*
X174568910Y-49377185D01*
X174568910Y-49662899D02*
X173568910Y-49662899D01*
X173568910Y-49662899D02*
X173711767Y-49567661D01*
X173711767Y-49567661D02*
X173807005Y-49472423D01*
X173807005Y-49472423D02*
X173854624Y-49377185D01*
X173568910Y-50567661D02*
X173568910Y-50662899D01*
X173568910Y-50662899D02*
X173616529Y-50758137D01*
X173616529Y-50758137D02*
X173664148Y-50805756D01*
X173664148Y-50805756D02*
X173759386Y-50853375D01*
X173759386Y-50853375D02*
X173949862Y-50900994D01*
X173949862Y-50900994D02*
X174187957Y-50900994D01*
X174187957Y-50900994D02*
X174378433Y-50853375D01*
X174378433Y-50853375D02*
X174473671Y-50805756D01*
X174473671Y-50805756D02*
X174521291Y-50758137D01*
X174521291Y-50758137D02*
X174568910Y-50662899D01*
X174568910Y-50662899D02*
X174568910Y-50567661D01*
X174568910Y-50567661D02*
X174521291Y-50472423D01*
X174521291Y-50472423D02*
X174473671Y-50424804D01*
X174473671Y-50424804D02*
X174378433Y-50377185D01*
X174378433Y-50377185D02*
X174187957Y-50329566D01*
X174187957Y-50329566D02*
X173949862Y-50329566D01*
X173949862Y-50329566D02*
X173759386Y-50377185D01*
X173759386Y-50377185D02*
X173664148Y-50424804D01*
X173664148Y-50424804D02*
X173616529Y-50472423D01*
X173616529Y-50472423D02*
X173568910Y-50567661D01*
X159394580Y-48512142D02*
X159442200Y-48464523D01*
X159442200Y-48464523D02*
X159489819Y-48321666D01*
X159489819Y-48321666D02*
X159489819Y-48226428D01*
X159489819Y-48226428D02*
X159442200Y-48083571D01*
X159442200Y-48083571D02*
X159346961Y-47988333D01*
X159346961Y-47988333D02*
X159251723Y-47940714D01*
X159251723Y-47940714D02*
X159061247Y-47893095D01*
X159061247Y-47893095D02*
X158918390Y-47893095D01*
X158918390Y-47893095D02*
X158727914Y-47940714D01*
X158727914Y-47940714D02*
X158632676Y-47988333D01*
X158632676Y-47988333D02*
X158537438Y-48083571D01*
X158537438Y-48083571D02*
X158489819Y-48226428D01*
X158489819Y-48226428D02*
X158489819Y-48321666D01*
X158489819Y-48321666D02*
X158537438Y-48464523D01*
X158537438Y-48464523D02*
X158585057Y-48512142D01*
X158585057Y-48893095D02*
X158537438Y-48940714D01*
X158537438Y-48940714D02*
X158489819Y-49035952D01*
X158489819Y-49035952D02*
X158489819Y-49274047D01*
X158489819Y-49274047D02*
X158537438Y-49369285D01*
X158537438Y-49369285D02*
X158585057Y-49416904D01*
X158585057Y-49416904D02*
X158680295Y-49464523D01*
X158680295Y-49464523D02*
X158775533Y-49464523D01*
X158775533Y-49464523D02*
X158918390Y-49416904D01*
X158918390Y-49416904D02*
X159489819Y-48845476D01*
X159489819Y-48845476D02*
X159489819Y-49464523D01*
X158585057Y-49845476D02*
X158537438Y-49893095D01*
X158537438Y-49893095D02*
X158489819Y-49988333D01*
X158489819Y-49988333D02*
X158489819Y-50226428D01*
X158489819Y-50226428D02*
X158537438Y-50321666D01*
X158537438Y-50321666D02*
X158585057Y-50369285D01*
X158585057Y-50369285D02*
X158680295Y-50416904D01*
X158680295Y-50416904D02*
X158775533Y-50416904D01*
X158775533Y-50416904D02*
X158918390Y-50369285D01*
X158918390Y-50369285D02*
X159489819Y-49797857D01*
X159489819Y-49797857D02*
X159489819Y-50416904D01*
X181262857Y-98959580D02*
X181310476Y-99007200D01*
X181310476Y-99007200D02*
X181453333Y-99054819D01*
X181453333Y-99054819D02*
X181548571Y-99054819D01*
X181548571Y-99054819D02*
X181691428Y-99007200D01*
X181691428Y-99007200D02*
X181786666Y-98911961D01*
X181786666Y-98911961D02*
X181834285Y-98816723D01*
X181834285Y-98816723D02*
X181881904Y-98626247D01*
X181881904Y-98626247D02*
X181881904Y-98483390D01*
X181881904Y-98483390D02*
X181834285Y-98292914D01*
X181834285Y-98292914D02*
X181786666Y-98197676D01*
X181786666Y-98197676D02*
X181691428Y-98102438D01*
X181691428Y-98102438D02*
X181548571Y-98054819D01*
X181548571Y-98054819D02*
X181453333Y-98054819D01*
X181453333Y-98054819D02*
X181310476Y-98102438D01*
X181310476Y-98102438D02*
X181262857Y-98150057D01*
X180310476Y-99054819D02*
X180881904Y-99054819D01*
X180596190Y-99054819D02*
X180596190Y-98054819D01*
X180596190Y-98054819D02*
X180691428Y-98197676D01*
X180691428Y-98197676D02*
X180786666Y-98292914D01*
X180786666Y-98292914D02*
X180881904Y-98340533D01*
X179453333Y-98054819D02*
X179643809Y-98054819D01*
X179643809Y-98054819D02*
X179739047Y-98102438D01*
X179739047Y-98102438D02*
X179786666Y-98150057D01*
X179786666Y-98150057D02*
X179881904Y-98292914D01*
X179881904Y-98292914D02*
X179929523Y-98483390D01*
X179929523Y-98483390D02*
X179929523Y-98864342D01*
X179929523Y-98864342D02*
X179881904Y-98959580D01*
X179881904Y-98959580D02*
X179834285Y-99007200D01*
X179834285Y-99007200D02*
X179739047Y-99054819D01*
X179739047Y-99054819D02*
X179548571Y-99054819D01*
X179548571Y-99054819D02*
X179453333Y-99007200D01*
X179453333Y-99007200D02*
X179405714Y-98959580D01*
X179405714Y-98959580D02*
X179358095Y-98864342D01*
X179358095Y-98864342D02*
X179358095Y-98626247D01*
X179358095Y-98626247D02*
X179405714Y-98531009D01*
X179405714Y-98531009D02*
X179453333Y-98483390D01*
X179453333Y-98483390D02*
X179548571Y-98435771D01*
X179548571Y-98435771D02*
X179739047Y-98435771D01*
X179739047Y-98435771D02*
X179834285Y-98483390D01*
X179834285Y-98483390D02*
X179881904Y-98531009D01*
X179881904Y-98531009D02*
X179929523Y-98626247D01*
X161312857Y-63804819D02*
X161646190Y-63328628D01*
X161884285Y-63804819D02*
X161884285Y-62804819D01*
X161884285Y-62804819D02*
X161503333Y-62804819D01*
X161503333Y-62804819D02*
X161408095Y-62852438D01*
X161408095Y-62852438D02*
X161360476Y-62900057D01*
X161360476Y-62900057D02*
X161312857Y-62995295D01*
X161312857Y-62995295D02*
X161312857Y-63138152D01*
X161312857Y-63138152D02*
X161360476Y-63233390D01*
X161360476Y-63233390D02*
X161408095Y-63281009D01*
X161408095Y-63281009D02*
X161503333Y-63328628D01*
X161503333Y-63328628D02*
X161884285Y-63328628D01*
X160360476Y-63804819D02*
X160931904Y-63804819D01*
X160646190Y-63804819D02*
X160646190Y-62804819D01*
X160646190Y-62804819D02*
X160741428Y-62947676D01*
X160741428Y-62947676D02*
X160836666Y-63042914D01*
X160836666Y-63042914D02*
X160931904Y-63090533D01*
X159741428Y-62804819D02*
X159646190Y-62804819D01*
X159646190Y-62804819D02*
X159550952Y-62852438D01*
X159550952Y-62852438D02*
X159503333Y-62900057D01*
X159503333Y-62900057D02*
X159455714Y-62995295D01*
X159455714Y-62995295D02*
X159408095Y-63185771D01*
X159408095Y-63185771D02*
X159408095Y-63423866D01*
X159408095Y-63423866D02*
X159455714Y-63614342D01*
X159455714Y-63614342D02*
X159503333Y-63709580D01*
X159503333Y-63709580D02*
X159550952Y-63757200D01*
X159550952Y-63757200D02*
X159646190Y-63804819D01*
X159646190Y-63804819D02*
X159741428Y-63804819D01*
X159741428Y-63804819D02*
X159836666Y-63757200D01*
X159836666Y-63757200D02*
X159884285Y-63709580D01*
X159884285Y-63709580D02*
X159931904Y-63614342D01*
X159931904Y-63614342D02*
X159979523Y-63423866D01*
X159979523Y-63423866D02*
X159979523Y-63185771D01*
X159979523Y-63185771D02*
X159931904Y-62995295D01*
X159931904Y-62995295D02*
X159884285Y-62900057D01*
X159884285Y-62900057D02*
X159836666Y-62852438D01*
X159836666Y-62852438D02*
X159741428Y-62804819D01*
X205414285Y-61479819D02*
X205414285Y-60479819D01*
X205414285Y-60479819D02*
X205176190Y-60479819D01*
X205176190Y-60479819D02*
X205033333Y-60527438D01*
X205033333Y-60527438D02*
X204938095Y-60622676D01*
X204938095Y-60622676D02*
X204890476Y-60717914D01*
X204890476Y-60717914D02*
X204842857Y-60908390D01*
X204842857Y-60908390D02*
X204842857Y-61051247D01*
X204842857Y-61051247D02*
X204890476Y-61241723D01*
X204890476Y-61241723D02*
X204938095Y-61336961D01*
X204938095Y-61336961D02*
X205033333Y-61432200D01*
X205033333Y-61432200D02*
X205176190Y-61479819D01*
X205176190Y-61479819D02*
X205414285Y-61479819D01*
X204461904Y-60575057D02*
X204414285Y-60527438D01*
X204414285Y-60527438D02*
X204319047Y-60479819D01*
X204319047Y-60479819D02*
X204080952Y-60479819D01*
X204080952Y-60479819D02*
X203985714Y-60527438D01*
X203985714Y-60527438D02*
X203938095Y-60575057D01*
X203938095Y-60575057D02*
X203890476Y-60670295D01*
X203890476Y-60670295D02*
X203890476Y-60765533D01*
X203890476Y-60765533D02*
X203938095Y-60908390D01*
X203938095Y-60908390D02*
X204509523Y-61479819D01*
X204509523Y-61479819D02*
X203890476Y-61479819D01*
X203033333Y-60813152D02*
X203033333Y-61479819D01*
X203271428Y-60432200D02*
X203509523Y-61146485D01*
X203509523Y-61146485D02*
X202890476Y-61146485D01*
X202001785Y-61539819D02*
X202001785Y-60539819D01*
X202001785Y-60539819D02*
X201763690Y-60539819D01*
X201763690Y-60539819D02*
X201620833Y-60587438D01*
X201620833Y-60587438D02*
X201525595Y-60682676D01*
X201525595Y-60682676D02*
X201477976Y-60777914D01*
X201477976Y-60777914D02*
X201430357Y-60968390D01*
X201430357Y-60968390D02*
X201430357Y-61111247D01*
X201430357Y-61111247D02*
X201477976Y-61301723D01*
X201477976Y-61301723D02*
X201525595Y-61396961D01*
X201525595Y-61396961D02*
X201620833Y-61492200D01*
X201620833Y-61492200D02*
X201763690Y-61539819D01*
X201763690Y-61539819D02*
X202001785Y-61539819D01*
X200477976Y-61539819D02*
X201049404Y-61539819D01*
X200763690Y-61539819D02*
X200763690Y-60539819D01*
X200763690Y-60539819D02*
X200858928Y-60682676D01*
X200858928Y-60682676D02*
X200954166Y-60777914D01*
X200954166Y-60777914D02*
X201049404Y-60825533D01*
X200001785Y-61539819D02*
X199811309Y-61539819D01*
X199811309Y-61539819D02*
X199716071Y-61492200D01*
X199716071Y-61492200D02*
X199668452Y-61444580D01*
X199668452Y-61444580D02*
X199573214Y-61301723D01*
X199573214Y-61301723D02*
X199525595Y-61111247D01*
X199525595Y-61111247D02*
X199525595Y-60730295D01*
X199525595Y-60730295D02*
X199573214Y-60635057D01*
X199573214Y-60635057D02*
X199620833Y-60587438D01*
X199620833Y-60587438D02*
X199716071Y-60539819D01*
X199716071Y-60539819D02*
X199906547Y-60539819D01*
X199906547Y-60539819D02*
X200001785Y-60587438D01*
X200001785Y-60587438D02*
X200049404Y-60635057D01*
X200049404Y-60635057D02*
X200097023Y-60730295D01*
X200097023Y-60730295D02*
X200097023Y-60968390D01*
X200097023Y-60968390D02*
X200049404Y-61063628D01*
X200049404Y-61063628D02*
X200001785Y-61111247D01*
X200001785Y-61111247D02*
X199906547Y-61158866D01*
X199906547Y-61158866D02*
X199716071Y-61158866D01*
X199716071Y-61158866D02*
X199620833Y-61111247D01*
X199620833Y-61111247D02*
X199573214Y-61063628D01*
X199573214Y-61063628D02*
X199525595Y-60968390D01*
X157129580Y-60147142D02*
X157177200Y-60099523D01*
X157177200Y-60099523D02*
X157224819Y-59956666D01*
X157224819Y-59956666D02*
X157224819Y-59861428D01*
X157224819Y-59861428D02*
X157177200Y-59718571D01*
X157177200Y-59718571D02*
X157081961Y-59623333D01*
X157081961Y-59623333D02*
X156986723Y-59575714D01*
X156986723Y-59575714D02*
X156796247Y-59528095D01*
X156796247Y-59528095D02*
X156653390Y-59528095D01*
X156653390Y-59528095D02*
X156462914Y-59575714D01*
X156462914Y-59575714D02*
X156367676Y-59623333D01*
X156367676Y-59623333D02*
X156272438Y-59718571D01*
X156272438Y-59718571D02*
X156224819Y-59861428D01*
X156224819Y-59861428D02*
X156224819Y-59956666D01*
X156224819Y-59956666D02*
X156272438Y-60099523D01*
X156272438Y-60099523D02*
X156320057Y-60147142D01*
X156320057Y-60528095D02*
X156272438Y-60575714D01*
X156272438Y-60575714D02*
X156224819Y-60670952D01*
X156224819Y-60670952D02*
X156224819Y-60909047D01*
X156224819Y-60909047D02*
X156272438Y-61004285D01*
X156272438Y-61004285D02*
X156320057Y-61051904D01*
X156320057Y-61051904D02*
X156415295Y-61099523D01*
X156415295Y-61099523D02*
X156510533Y-61099523D01*
X156510533Y-61099523D02*
X156653390Y-61051904D01*
X156653390Y-61051904D02*
X157224819Y-60480476D01*
X157224819Y-60480476D02*
X157224819Y-61099523D01*
X156224819Y-61432857D02*
X156224819Y-62051904D01*
X156224819Y-62051904D02*
X156605771Y-61718571D01*
X156605771Y-61718571D02*
X156605771Y-61861428D01*
X156605771Y-61861428D02*
X156653390Y-61956666D01*
X156653390Y-61956666D02*
X156701009Y-62004285D01*
X156701009Y-62004285D02*
X156796247Y-62051904D01*
X156796247Y-62051904D02*
X157034342Y-62051904D01*
X157034342Y-62051904D02*
X157129580Y-62004285D01*
X157129580Y-62004285D02*
X157177200Y-61956666D01*
X157177200Y-61956666D02*
X157224819Y-61861428D01*
X157224819Y-61861428D02*
X157224819Y-61575714D01*
X157224819Y-61575714D02*
X157177200Y-61480476D01*
X157177200Y-61480476D02*
X157129580Y-61432857D01*
X170769819Y-54942142D02*
X170293628Y-54608809D01*
X170769819Y-54370714D02*
X169769819Y-54370714D01*
X169769819Y-54370714D02*
X169769819Y-54751666D01*
X169769819Y-54751666D02*
X169817438Y-54846904D01*
X169817438Y-54846904D02*
X169865057Y-54894523D01*
X169865057Y-54894523D02*
X169960295Y-54942142D01*
X169960295Y-54942142D02*
X170103152Y-54942142D01*
X170103152Y-54942142D02*
X170198390Y-54894523D01*
X170198390Y-54894523D02*
X170246009Y-54846904D01*
X170246009Y-54846904D02*
X170293628Y-54751666D01*
X170293628Y-54751666D02*
X170293628Y-54370714D01*
X169769819Y-55275476D02*
X169769819Y-55894523D01*
X169769819Y-55894523D02*
X170150771Y-55561190D01*
X170150771Y-55561190D02*
X170150771Y-55704047D01*
X170150771Y-55704047D02*
X170198390Y-55799285D01*
X170198390Y-55799285D02*
X170246009Y-55846904D01*
X170246009Y-55846904D02*
X170341247Y-55894523D01*
X170341247Y-55894523D02*
X170579342Y-55894523D01*
X170579342Y-55894523D02*
X170674580Y-55846904D01*
X170674580Y-55846904D02*
X170722200Y-55799285D01*
X170722200Y-55799285D02*
X170769819Y-55704047D01*
X170769819Y-55704047D02*
X170769819Y-55418333D01*
X170769819Y-55418333D02*
X170722200Y-55323095D01*
X170722200Y-55323095D02*
X170674580Y-55275476D01*
X170769819Y-56846904D02*
X170769819Y-56275476D01*
X170769819Y-56561190D02*
X169769819Y-56561190D01*
X169769819Y-56561190D02*
X169912676Y-56465952D01*
X169912676Y-56465952D02*
X170007914Y-56370714D01*
X170007914Y-56370714D02*
X170055533Y-56275476D01*
X176774581Y-57047142D02*
X176822201Y-56999523D01*
X176822201Y-56999523D02*
X176869820Y-56856666D01*
X176869820Y-56856666D02*
X176869820Y-56761428D01*
X176869820Y-56761428D02*
X176822201Y-56618571D01*
X176822201Y-56618571D02*
X176726962Y-56523333D01*
X176726962Y-56523333D02*
X176631724Y-56475714D01*
X176631724Y-56475714D02*
X176441248Y-56428095D01*
X176441248Y-56428095D02*
X176298391Y-56428095D01*
X176298391Y-56428095D02*
X176107915Y-56475714D01*
X176107915Y-56475714D02*
X176012677Y-56523333D01*
X176012677Y-56523333D02*
X175917439Y-56618571D01*
X175917439Y-56618571D02*
X175869820Y-56761428D01*
X175869820Y-56761428D02*
X175869820Y-56856666D01*
X175869820Y-56856666D02*
X175917439Y-56999523D01*
X175917439Y-56999523D02*
X175965058Y-57047142D01*
X176869820Y-57999523D02*
X176869820Y-57428095D01*
X176869820Y-57713809D02*
X175869820Y-57713809D01*
X175869820Y-57713809D02*
X176012677Y-57618571D01*
X176012677Y-57618571D02*
X176107915Y-57523333D01*
X176107915Y-57523333D02*
X176155534Y-57428095D01*
X176203153Y-58856666D02*
X176869820Y-58856666D01*
X175822201Y-58618571D02*
X176536486Y-58380476D01*
X176536486Y-58380476D02*
X176536486Y-58999523D01*
X170774819Y-49247142D02*
X170298628Y-48913809D01*
X170774819Y-48675714D02*
X169774819Y-48675714D01*
X169774819Y-48675714D02*
X169774819Y-49056666D01*
X169774819Y-49056666D02*
X169822438Y-49151904D01*
X169822438Y-49151904D02*
X169870057Y-49199523D01*
X169870057Y-49199523D02*
X169965295Y-49247142D01*
X169965295Y-49247142D02*
X170108152Y-49247142D01*
X170108152Y-49247142D02*
X170203390Y-49199523D01*
X170203390Y-49199523D02*
X170251009Y-49151904D01*
X170251009Y-49151904D02*
X170298628Y-49056666D01*
X170298628Y-49056666D02*
X170298628Y-48675714D01*
X169870057Y-49628095D02*
X169822438Y-49675714D01*
X169822438Y-49675714D02*
X169774819Y-49770952D01*
X169774819Y-49770952D02*
X169774819Y-50009047D01*
X169774819Y-50009047D02*
X169822438Y-50104285D01*
X169822438Y-50104285D02*
X169870057Y-50151904D01*
X169870057Y-50151904D02*
X169965295Y-50199523D01*
X169965295Y-50199523D02*
X170060533Y-50199523D01*
X170060533Y-50199523D02*
X170203390Y-50151904D01*
X170203390Y-50151904D02*
X170774819Y-49580476D01*
X170774819Y-49580476D02*
X170774819Y-50199523D01*
X169774819Y-50532857D02*
X169774819Y-51199523D01*
X169774819Y-51199523D02*
X170774819Y-50770952D01*
X138607857Y-74364819D02*
X138941190Y-73888628D01*
X139179285Y-74364819D02*
X139179285Y-73364819D01*
X139179285Y-73364819D02*
X138798333Y-73364819D01*
X138798333Y-73364819D02*
X138703095Y-73412438D01*
X138703095Y-73412438D02*
X138655476Y-73460057D01*
X138655476Y-73460057D02*
X138607857Y-73555295D01*
X138607857Y-73555295D02*
X138607857Y-73698152D01*
X138607857Y-73698152D02*
X138655476Y-73793390D01*
X138655476Y-73793390D02*
X138703095Y-73841009D01*
X138703095Y-73841009D02*
X138798333Y-73888628D01*
X138798333Y-73888628D02*
X139179285Y-73888628D01*
X137655476Y-74364819D02*
X138226904Y-74364819D01*
X137941190Y-74364819D02*
X137941190Y-73364819D01*
X137941190Y-73364819D02*
X138036428Y-73507676D01*
X138036428Y-73507676D02*
X138131666Y-73602914D01*
X138131666Y-73602914D02*
X138226904Y-73650533D01*
X136798333Y-73698152D02*
X136798333Y-74364819D01*
X137036428Y-73317200D02*
X137274523Y-74031485D01*
X137274523Y-74031485D02*
X136655476Y-74031485D01*
X175740474Y-103094819D02*
X175740474Y-103904342D01*
X175740474Y-103904342D02*
X175692855Y-103999580D01*
X175692855Y-103999580D02*
X175645236Y-104047200D01*
X175645236Y-104047200D02*
X175549998Y-104094819D01*
X175549998Y-104094819D02*
X175359522Y-104094819D01*
X175359522Y-104094819D02*
X175264284Y-104047200D01*
X175264284Y-104047200D02*
X175216665Y-103999580D01*
X175216665Y-103999580D02*
X175169046Y-103904342D01*
X175169046Y-103904342D02*
X175169046Y-103094819D01*
X174788093Y-103094819D02*
X174169046Y-103094819D01*
X174169046Y-103094819D02*
X174502379Y-103475771D01*
X174502379Y-103475771D02*
X174359522Y-103475771D01*
X174359522Y-103475771D02*
X174264284Y-103523390D01*
X174264284Y-103523390D02*
X174216665Y-103571009D01*
X174216665Y-103571009D02*
X174169046Y-103666247D01*
X174169046Y-103666247D02*
X174169046Y-103904342D01*
X174169046Y-103904342D02*
X174216665Y-103999580D01*
X174216665Y-103999580D02*
X174264284Y-104047200D01*
X174264284Y-104047200D02*
X174359522Y-104094819D01*
X174359522Y-104094819D02*
X174645236Y-104094819D01*
X174645236Y-104094819D02*
X174740474Y-104047200D01*
X174740474Y-104047200D02*
X174788093Y-103999580D01*
X177061369Y-102094819D02*
X177061369Y-102332914D01*
X177299464Y-102237676D02*
X177061369Y-102332914D01*
X177061369Y-102332914D02*
X176823274Y-102237676D01*
X177204226Y-102523390D02*
X177061369Y-102332914D01*
X177061369Y-102332914D02*
X176918512Y-102523390D01*
X177061369Y-102094819D02*
X177061369Y-102332914D01*
X177299464Y-102237676D02*
X177061369Y-102332914D01*
X177061369Y-102332914D02*
X176823274Y-102237676D01*
X177204226Y-102523390D02*
X177061369Y-102332914D01*
X177061369Y-102332914D02*
X176918512Y-102523390D01*
X195204819Y-102591905D02*
X194204819Y-102591905D01*
X194204819Y-102591905D02*
X194204819Y-102830000D01*
X194204819Y-102830000D02*
X194252438Y-102972857D01*
X194252438Y-102972857D02*
X194347676Y-103068095D01*
X194347676Y-103068095D02*
X194442914Y-103115714D01*
X194442914Y-103115714D02*
X194633390Y-103163333D01*
X194633390Y-103163333D02*
X194776247Y-103163333D01*
X194776247Y-103163333D02*
X194966723Y-103115714D01*
X194966723Y-103115714D02*
X195061961Y-103068095D01*
X195061961Y-103068095D02*
X195157200Y-102972857D01*
X195157200Y-102972857D02*
X195204819Y-102830000D01*
X195204819Y-102830000D02*
X195204819Y-102591905D01*
X195204819Y-104115714D02*
X195204819Y-103544286D01*
X195204819Y-103830000D02*
X194204819Y-103830000D01*
X194204819Y-103830000D02*
X194347676Y-103734762D01*
X194347676Y-103734762D02*
X194442914Y-103639524D01*
X194442914Y-103639524D02*
X194490533Y-103544286D01*
X167237857Y-53914819D02*
X167571190Y-53438628D01*
X167809285Y-53914819D02*
X167809285Y-52914819D01*
X167809285Y-52914819D02*
X167428333Y-52914819D01*
X167428333Y-52914819D02*
X167333095Y-52962438D01*
X167333095Y-52962438D02*
X167285476Y-53010057D01*
X167285476Y-53010057D02*
X167237857Y-53105295D01*
X167237857Y-53105295D02*
X167237857Y-53248152D01*
X167237857Y-53248152D02*
X167285476Y-53343390D01*
X167285476Y-53343390D02*
X167333095Y-53391009D01*
X167333095Y-53391009D02*
X167428333Y-53438628D01*
X167428333Y-53438628D02*
X167809285Y-53438628D01*
X166856904Y-53010057D02*
X166809285Y-52962438D01*
X166809285Y-52962438D02*
X166714047Y-52914819D01*
X166714047Y-52914819D02*
X166475952Y-52914819D01*
X166475952Y-52914819D02*
X166380714Y-52962438D01*
X166380714Y-52962438D02*
X166333095Y-53010057D01*
X166333095Y-53010057D02*
X166285476Y-53105295D01*
X166285476Y-53105295D02*
X166285476Y-53200533D01*
X166285476Y-53200533D02*
X166333095Y-53343390D01*
X166333095Y-53343390D02*
X166904523Y-53914819D01*
X166904523Y-53914819D02*
X166285476Y-53914819D01*
X165714047Y-53343390D02*
X165809285Y-53295771D01*
X165809285Y-53295771D02*
X165856904Y-53248152D01*
X165856904Y-53248152D02*
X165904523Y-53152914D01*
X165904523Y-53152914D02*
X165904523Y-53105295D01*
X165904523Y-53105295D02*
X165856904Y-53010057D01*
X165856904Y-53010057D02*
X165809285Y-52962438D01*
X165809285Y-52962438D02*
X165714047Y-52914819D01*
X165714047Y-52914819D02*
X165523571Y-52914819D01*
X165523571Y-52914819D02*
X165428333Y-52962438D01*
X165428333Y-52962438D02*
X165380714Y-53010057D01*
X165380714Y-53010057D02*
X165333095Y-53105295D01*
X165333095Y-53105295D02*
X165333095Y-53152914D01*
X165333095Y-53152914D02*
X165380714Y-53248152D01*
X165380714Y-53248152D02*
X165428333Y-53295771D01*
X165428333Y-53295771D02*
X165523571Y-53343390D01*
X165523571Y-53343390D02*
X165714047Y-53343390D01*
X165714047Y-53343390D02*
X165809285Y-53391009D01*
X165809285Y-53391009D02*
X165856904Y-53438628D01*
X165856904Y-53438628D02*
X165904523Y-53533866D01*
X165904523Y-53533866D02*
X165904523Y-53724342D01*
X165904523Y-53724342D02*
X165856904Y-53819580D01*
X165856904Y-53819580D02*
X165809285Y-53867200D01*
X165809285Y-53867200D02*
X165714047Y-53914819D01*
X165714047Y-53914819D02*
X165523571Y-53914819D01*
X165523571Y-53914819D02*
X165428333Y-53867200D01*
X165428333Y-53867200D02*
X165380714Y-53819580D01*
X165380714Y-53819580D02*
X165333095Y-53724342D01*
X165333095Y-53724342D02*
X165333095Y-53533866D01*
X165333095Y-53533866D02*
X165380714Y-53438628D01*
X165380714Y-53438628D02*
X165428333Y-53391009D01*
X165428333Y-53391009D02*
X165523571Y-53343390D01*
X205047857Y-63679819D02*
X205381190Y-63203628D01*
X205619285Y-63679819D02*
X205619285Y-62679819D01*
X205619285Y-62679819D02*
X205238333Y-62679819D01*
X205238333Y-62679819D02*
X205143095Y-62727438D01*
X205143095Y-62727438D02*
X205095476Y-62775057D01*
X205095476Y-62775057D02*
X205047857Y-62870295D01*
X205047857Y-62870295D02*
X205047857Y-63013152D01*
X205047857Y-63013152D02*
X205095476Y-63108390D01*
X205095476Y-63108390D02*
X205143095Y-63156009D01*
X205143095Y-63156009D02*
X205238333Y-63203628D01*
X205238333Y-63203628D02*
X205619285Y-63203628D01*
X204714523Y-62679819D02*
X204095476Y-62679819D01*
X204095476Y-62679819D02*
X204428809Y-63060771D01*
X204428809Y-63060771D02*
X204285952Y-63060771D01*
X204285952Y-63060771D02*
X204190714Y-63108390D01*
X204190714Y-63108390D02*
X204143095Y-63156009D01*
X204143095Y-63156009D02*
X204095476Y-63251247D01*
X204095476Y-63251247D02*
X204095476Y-63489342D01*
X204095476Y-63489342D02*
X204143095Y-63584580D01*
X204143095Y-63584580D02*
X204190714Y-63632200D01*
X204190714Y-63632200D02*
X204285952Y-63679819D01*
X204285952Y-63679819D02*
X204571666Y-63679819D01*
X204571666Y-63679819D02*
X204666904Y-63632200D01*
X204666904Y-63632200D02*
X204714523Y-63584580D01*
X203238333Y-62679819D02*
X203428809Y-62679819D01*
X203428809Y-62679819D02*
X203524047Y-62727438D01*
X203524047Y-62727438D02*
X203571666Y-62775057D01*
X203571666Y-62775057D02*
X203666904Y-62917914D01*
X203666904Y-62917914D02*
X203714523Y-63108390D01*
X203714523Y-63108390D02*
X203714523Y-63489342D01*
X203714523Y-63489342D02*
X203666904Y-63584580D01*
X203666904Y-63584580D02*
X203619285Y-63632200D01*
X203619285Y-63632200D02*
X203524047Y-63679819D01*
X203524047Y-63679819D02*
X203333571Y-63679819D01*
X203333571Y-63679819D02*
X203238333Y-63632200D01*
X203238333Y-63632200D02*
X203190714Y-63584580D01*
X203190714Y-63584580D02*
X203143095Y-63489342D01*
X203143095Y-63489342D02*
X203143095Y-63251247D01*
X203143095Y-63251247D02*
X203190714Y-63156009D01*
X203190714Y-63156009D02*
X203238333Y-63108390D01*
X203238333Y-63108390D02*
X203333571Y-63060771D01*
X203333571Y-63060771D02*
X203524047Y-63060771D01*
X203524047Y-63060771D02*
X203619285Y-63108390D01*
X203619285Y-63108390D02*
X203666904Y-63156009D01*
X203666904Y-63156009D02*
X203714523Y-63251247D01*
X183947857Y-59584819D02*
X184281190Y-59108628D01*
X184519285Y-59584819D02*
X184519285Y-58584819D01*
X184519285Y-58584819D02*
X184138333Y-58584819D01*
X184138333Y-58584819D02*
X184043095Y-58632438D01*
X184043095Y-58632438D02*
X183995476Y-58680057D01*
X183995476Y-58680057D02*
X183947857Y-58775295D01*
X183947857Y-58775295D02*
X183947857Y-58918152D01*
X183947857Y-58918152D02*
X183995476Y-59013390D01*
X183995476Y-59013390D02*
X184043095Y-59061009D01*
X184043095Y-59061009D02*
X184138333Y-59108628D01*
X184138333Y-59108628D02*
X184519285Y-59108628D01*
X183566904Y-58680057D02*
X183519285Y-58632438D01*
X183519285Y-58632438D02*
X183424047Y-58584819D01*
X183424047Y-58584819D02*
X183185952Y-58584819D01*
X183185952Y-58584819D02*
X183090714Y-58632438D01*
X183090714Y-58632438D02*
X183043095Y-58680057D01*
X183043095Y-58680057D02*
X182995476Y-58775295D01*
X182995476Y-58775295D02*
X182995476Y-58870533D01*
X182995476Y-58870533D02*
X183043095Y-59013390D01*
X183043095Y-59013390D02*
X183614523Y-59584819D01*
X183614523Y-59584819D02*
X182995476Y-59584819D01*
X182376428Y-58584819D02*
X182281190Y-58584819D01*
X182281190Y-58584819D02*
X182185952Y-58632438D01*
X182185952Y-58632438D02*
X182138333Y-58680057D01*
X182138333Y-58680057D02*
X182090714Y-58775295D01*
X182090714Y-58775295D02*
X182043095Y-58965771D01*
X182043095Y-58965771D02*
X182043095Y-59203866D01*
X182043095Y-59203866D02*
X182090714Y-59394342D01*
X182090714Y-59394342D02*
X182138333Y-59489580D01*
X182138333Y-59489580D02*
X182185952Y-59537200D01*
X182185952Y-59537200D02*
X182281190Y-59584819D01*
X182281190Y-59584819D02*
X182376428Y-59584819D01*
X182376428Y-59584819D02*
X182471666Y-59537200D01*
X182471666Y-59537200D02*
X182519285Y-59489580D01*
X182519285Y-59489580D02*
X182566904Y-59394342D01*
X182566904Y-59394342D02*
X182614523Y-59203866D01*
X182614523Y-59203866D02*
X182614523Y-58965771D01*
X182614523Y-58965771D02*
X182566904Y-58775295D01*
X182566904Y-58775295D02*
X182519285Y-58680057D01*
X182519285Y-58680057D02*
X182471666Y-58632438D01*
X182471666Y-58632438D02*
X182376428Y-58584819D01*
X174540730Y-54064124D02*
X173540730Y-54064124D01*
X173540730Y-54064124D02*
X173540730Y-54302219D01*
X173540730Y-54302219D02*
X173588349Y-54445076D01*
X173588349Y-54445076D02*
X173683587Y-54540314D01*
X173683587Y-54540314D02*
X173778825Y-54587933D01*
X173778825Y-54587933D02*
X173969301Y-54635552D01*
X173969301Y-54635552D02*
X174112158Y-54635552D01*
X174112158Y-54635552D02*
X174302634Y-54587933D01*
X174302634Y-54587933D02*
X174397872Y-54540314D01*
X174397872Y-54540314D02*
X174493111Y-54445076D01*
X174493111Y-54445076D02*
X174540730Y-54302219D01*
X174540730Y-54302219D02*
X174540730Y-54064124D01*
X174540730Y-55587933D02*
X174540730Y-55016505D01*
X174540730Y-55302219D02*
X173540730Y-55302219D01*
X173540730Y-55302219D02*
X173683587Y-55206981D01*
X173683587Y-55206981D02*
X173778825Y-55111743D01*
X173778825Y-55111743D02*
X173826444Y-55016505D01*
X173969301Y-56159362D02*
X173921682Y-56064124D01*
X173921682Y-56064124D02*
X173874063Y-56016505D01*
X173874063Y-56016505D02*
X173778825Y-55968886D01*
X173778825Y-55968886D02*
X173731206Y-55968886D01*
X173731206Y-55968886D02*
X173635968Y-56016505D01*
X173635968Y-56016505D02*
X173588349Y-56064124D01*
X173588349Y-56064124D02*
X173540730Y-56159362D01*
X173540730Y-56159362D02*
X173540730Y-56349838D01*
X173540730Y-56349838D02*
X173588349Y-56445076D01*
X173588349Y-56445076D02*
X173635968Y-56492695D01*
X173635968Y-56492695D02*
X173731206Y-56540314D01*
X173731206Y-56540314D02*
X173778825Y-56540314D01*
X173778825Y-56540314D02*
X173874063Y-56492695D01*
X173874063Y-56492695D02*
X173921682Y-56445076D01*
X173921682Y-56445076D02*
X173969301Y-56349838D01*
X173969301Y-56349838D02*
X173969301Y-56159362D01*
X173969301Y-56159362D02*
X174016920Y-56064124D01*
X174016920Y-56064124D02*
X174064539Y-56016505D01*
X174064539Y-56016505D02*
X174159777Y-55968886D01*
X174159777Y-55968886D02*
X174350253Y-55968886D01*
X174350253Y-55968886D02*
X174445491Y-56016505D01*
X174445491Y-56016505D02*
X174493111Y-56064124D01*
X174493111Y-56064124D02*
X174540730Y-56159362D01*
X174540730Y-56159362D02*
X174540730Y-56349838D01*
X174540730Y-56349838D02*
X174493111Y-56445076D01*
X174493111Y-56445076D02*
X174445491Y-56492695D01*
X174445491Y-56492695D02*
X174350253Y-56540314D01*
X174350253Y-56540314D02*
X174159777Y-56540314D01*
X174159777Y-56540314D02*
X174064539Y-56492695D01*
X174064539Y-56492695D02*
X174016920Y-56445076D01*
X174016920Y-56445076D02*
X173969301Y-56349838D01*
X205027857Y-61194819D02*
X205361190Y-60718628D01*
X205599285Y-61194819D02*
X205599285Y-60194819D01*
X205599285Y-60194819D02*
X205218333Y-60194819D01*
X205218333Y-60194819D02*
X205123095Y-60242438D01*
X205123095Y-60242438D02*
X205075476Y-60290057D01*
X205075476Y-60290057D02*
X205027857Y-60385295D01*
X205027857Y-60385295D02*
X205027857Y-60528152D01*
X205027857Y-60528152D02*
X205075476Y-60623390D01*
X205075476Y-60623390D02*
X205123095Y-60671009D01*
X205123095Y-60671009D02*
X205218333Y-60718628D01*
X205218333Y-60718628D02*
X205599285Y-60718628D01*
X204694523Y-60194819D02*
X204075476Y-60194819D01*
X204075476Y-60194819D02*
X204408809Y-60575771D01*
X204408809Y-60575771D02*
X204265952Y-60575771D01*
X204265952Y-60575771D02*
X204170714Y-60623390D01*
X204170714Y-60623390D02*
X204123095Y-60671009D01*
X204123095Y-60671009D02*
X204075476Y-60766247D01*
X204075476Y-60766247D02*
X204075476Y-61004342D01*
X204075476Y-61004342D02*
X204123095Y-61099580D01*
X204123095Y-61099580D02*
X204170714Y-61147200D01*
X204170714Y-61147200D02*
X204265952Y-61194819D01*
X204265952Y-61194819D02*
X204551666Y-61194819D01*
X204551666Y-61194819D02*
X204646904Y-61147200D01*
X204646904Y-61147200D02*
X204694523Y-61099580D01*
X203742142Y-60194819D02*
X203075476Y-60194819D01*
X203075476Y-60194819D02*
X203504047Y-61194819D01*
X196052858Y-61979580D02*
X196100477Y-62027200D01*
X196100477Y-62027200D02*
X196243334Y-62074819D01*
X196243334Y-62074819D02*
X196338572Y-62074819D01*
X196338572Y-62074819D02*
X196481429Y-62027200D01*
X196481429Y-62027200D02*
X196576667Y-61931961D01*
X196576667Y-61931961D02*
X196624286Y-61836723D01*
X196624286Y-61836723D02*
X196671905Y-61646247D01*
X196671905Y-61646247D02*
X196671905Y-61503390D01*
X196671905Y-61503390D02*
X196624286Y-61312914D01*
X196624286Y-61312914D02*
X196576667Y-61217676D01*
X196576667Y-61217676D02*
X196481429Y-61122438D01*
X196481429Y-61122438D02*
X196338572Y-61074819D01*
X196338572Y-61074819D02*
X196243334Y-61074819D01*
X196243334Y-61074819D02*
X196100477Y-61122438D01*
X196100477Y-61122438D02*
X196052858Y-61170057D01*
X195100477Y-62074819D02*
X195671905Y-62074819D01*
X195386191Y-62074819D02*
X195386191Y-61074819D01*
X195386191Y-61074819D02*
X195481429Y-61217676D01*
X195481429Y-61217676D02*
X195576667Y-61312914D01*
X195576667Y-61312914D02*
X195671905Y-61360533D01*
X194624286Y-62074819D02*
X194433810Y-62074819D01*
X194433810Y-62074819D02*
X194338572Y-62027200D01*
X194338572Y-62027200D02*
X194290953Y-61979580D01*
X194290953Y-61979580D02*
X194195715Y-61836723D01*
X194195715Y-61836723D02*
X194148096Y-61646247D01*
X194148096Y-61646247D02*
X194148096Y-61265295D01*
X194148096Y-61265295D02*
X194195715Y-61170057D01*
X194195715Y-61170057D02*
X194243334Y-61122438D01*
X194243334Y-61122438D02*
X194338572Y-61074819D01*
X194338572Y-61074819D02*
X194529048Y-61074819D01*
X194529048Y-61074819D02*
X194624286Y-61122438D01*
X194624286Y-61122438D02*
X194671905Y-61170057D01*
X194671905Y-61170057D02*
X194719524Y-61265295D01*
X194719524Y-61265295D02*
X194719524Y-61503390D01*
X194719524Y-61503390D02*
X194671905Y-61598628D01*
X194671905Y-61598628D02*
X194624286Y-61646247D01*
X194624286Y-61646247D02*
X194529048Y-61693866D01*
X194529048Y-61693866D02*
X194338572Y-61693866D01*
X194338572Y-61693866D02*
X194243334Y-61646247D01*
X194243334Y-61646247D02*
X194195715Y-61598628D01*
X194195715Y-61598628D02*
X194148096Y-61503390D01*
X153737857Y-87249580D02*
X153785476Y-87297200D01*
X153785476Y-87297200D02*
X153928333Y-87344819D01*
X153928333Y-87344819D02*
X154023571Y-87344819D01*
X154023571Y-87344819D02*
X154166428Y-87297200D01*
X154166428Y-87297200D02*
X154261666Y-87201961D01*
X154261666Y-87201961D02*
X154309285Y-87106723D01*
X154309285Y-87106723D02*
X154356904Y-86916247D01*
X154356904Y-86916247D02*
X154356904Y-86773390D01*
X154356904Y-86773390D02*
X154309285Y-86582914D01*
X154309285Y-86582914D02*
X154261666Y-86487676D01*
X154261666Y-86487676D02*
X154166428Y-86392438D01*
X154166428Y-86392438D02*
X154023571Y-86344819D01*
X154023571Y-86344819D02*
X153928333Y-86344819D01*
X153928333Y-86344819D02*
X153785476Y-86392438D01*
X153785476Y-86392438D02*
X153737857Y-86440057D01*
X152785476Y-87344819D02*
X153356904Y-87344819D01*
X153071190Y-87344819D02*
X153071190Y-86344819D01*
X153071190Y-86344819D02*
X153166428Y-86487676D01*
X153166428Y-86487676D02*
X153261666Y-86582914D01*
X153261666Y-86582914D02*
X153356904Y-86630533D01*
X152452142Y-86344819D02*
X151833095Y-86344819D01*
X151833095Y-86344819D02*
X152166428Y-86725771D01*
X152166428Y-86725771D02*
X152023571Y-86725771D01*
X152023571Y-86725771D02*
X151928333Y-86773390D01*
X151928333Y-86773390D02*
X151880714Y-86821009D01*
X151880714Y-86821009D02*
X151833095Y-86916247D01*
X151833095Y-86916247D02*
X151833095Y-87154342D01*
X151833095Y-87154342D02*
X151880714Y-87249580D01*
X151880714Y-87249580D02*
X151928333Y-87297200D01*
X151928333Y-87297200D02*
X152023571Y-87344819D01*
X152023571Y-87344819D02*
X152309285Y-87344819D01*
X152309285Y-87344819D02*
X152404523Y-87297200D01*
X152404523Y-87297200D02*
X152452142Y-87249580D01*
X158824819Y-60117142D02*
X158348628Y-59783809D01*
X158824819Y-59545714D02*
X157824819Y-59545714D01*
X157824819Y-59545714D02*
X157824819Y-59926666D01*
X157824819Y-59926666D02*
X157872438Y-60021904D01*
X157872438Y-60021904D02*
X157920057Y-60069523D01*
X157920057Y-60069523D02*
X158015295Y-60117142D01*
X158015295Y-60117142D02*
X158158152Y-60117142D01*
X158158152Y-60117142D02*
X158253390Y-60069523D01*
X158253390Y-60069523D02*
X158301009Y-60021904D01*
X158301009Y-60021904D02*
X158348628Y-59926666D01*
X158348628Y-59926666D02*
X158348628Y-59545714D01*
X157920057Y-60498095D02*
X157872438Y-60545714D01*
X157872438Y-60545714D02*
X157824819Y-60640952D01*
X157824819Y-60640952D02*
X157824819Y-60879047D01*
X157824819Y-60879047D02*
X157872438Y-60974285D01*
X157872438Y-60974285D02*
X157920057Y-61021904D01*
X157920057Y-61021904D02*
X158015295Y-61069523D01*
X158015295Y-61069523D02*
X158110533Y-61069523D01*
X158110533Y-61069523D02*
X158253390Y-61021904D01*
X158253390Y-61021904D02*
X158824819Y-60450476D01*
X158824819Y-60450476D02*
X158824819Y-61069523D01*
X157824819Y-61926666D02*
X157824819Y-61736190D01*
X157824819Y-61736190D02*
X157872438Y-61640952D01*
X157872438Y-61640952D02*
X157920057Y-61593333D01*
X157920057Y-61593333D02*
X158062914Y-61498095D01*
X158062914Y-61498095D02*
X158253390Y-61450476D01*
X158253390Y-61450476D02*
X158634342Y-61450476D01*
X158634342Y-61450476D02*
X158729580Y-61498095D01*
X158729580Y-61498095D02*
X158777200Y-61545714D01*
X158777200Y-61545714D02*
X158824819Y-61640952D01*
X158824819Y-61640952D02*
X158824819Y-61831428D01*
X158824819Y-61831428D02*
X158777200Y-61926666D01*
X158777200Y-61926666D02*
X158729580Y-61974285D01*
X158729580Y-61974285D02*
X158634342Y-62021904D01*
X158634342Y-62021904D02*
X158396247Y-62021904D01*
X158396247Y-62021904D02*
X158301009Y-61974285D01*
X158301009Y-61974285D02*
X158253390Y-61926666D01*
X158253390Y-61926666D02*
X158205771Y-61831428D01*
X158205771Y-61831428D02*
X158205771Y-61640952D01*
X158205771Y-61640952D02*
X158253390Y-61545714D01*
X158253390Y-61545714D02*
X158301009Y-61498095D01*
X158301009Y-61498095D02*
X158396247Y-61450476D01*
X204447857Y-72709580D02*
X204495476Y-72757200D01*
X204495476Y-72757200D02*
X204638333Y-72804819D01*
X204638333Y-72804819D02*
X204733571Y-72804819D01*
X204733571Y-72804819D02*
X204876428Y-72757200D01*
X204876428Y-72757200D02*
X204971666Y-72661961D01*
X204971666Y-72661961D02*
X205019285Y-72566723D01*
X205019285Y-72566723D02*
X205066904Y-72376247D01*
X205066904Y-72376247D02*
X205066904Y-72233390D01*
X205066904Y-72233390D02*
X205019285Y-72042914D01*
X205019285Y-72042914D02*
X204971666Y-71947676D01*
X204971666Y-71947676D02*
X204876428Y-71852438D01*
X204876428Y-71852438D02*
X204733571Y-71804819D01*
X204733571Y-71804819D02*
X204638333Y-71804819D01*
X204638333Y-71804819D02*
X204495476Y-71852438D01*
X204495476Y-71852438D02*
X204447857Y-71900057D01*
X203495476Y-72804819D02*
X204066904Y-72804819D01*
X203781190Y-72804819D02*
X203781190Y-71804819D01*
X203781190Y-71804819D02*
X203876428Y-71947676D01*
X203876428Y-71947676D02*
X203971666Y-72042914D01*
X203971666Y-72042914D02*
X204066904Y-72090533D01*
X203162142Y-71804819D02*
X202495476Y-71804819D01*
X202495476Y-71804819D02*
X202924047Y-72804819D01*
X158977857Y-48469580D02*
X159025476Y-48517200D01*
X159025476Y-48517200D02*
X159168333Y-48564819D01*
X159168333Y-48564819D02*
X159263571Y-48564819D01*
X159263571Y-48564819D02*
X159406428Y-48517200D01*
X159406428Y-48517200D02*
X159501666Y-48421961D01*
X159501666Y-48421961D02*
X159549285Y-48326723D01*
X159549285Y-48326723D02*
X159596904Y-48136247D01*
X159596904Y-48136247D02*
X159596904Y-47993390D01*
X159596904Y-47993390D02*
X159549285Y-47802914D01*
X159549285Y-47802914D02*
X159501666Y-47707676D01*
X159501666Y-47707676D02*
X159406428Y-47612438D01*
X159406428Y-47612438D02*
X159263571Y-47564819D01*
X159263571Y-47564819D02*
X159168333Y-47564819D01*
X159168333Y-47564819D02*
X159025476Y-47612438D01*
X159025476Y-47612438D02*
X158977857Y-47660057D01*
X158596904Y-47660057D02*
X158549285Y-47612438D01*
X158549285Y-47612438D02*
X158454047Y-47564819D01*
X158454047Y-47564819D02*
X158215952Y-47564819D01*
X158215952Y-47564819D02*
X158120714Y-47612438D01*
X158120714Y-47612438D02*
X158073095Y-47660057D01*
X158073095Y-47660057D02*
X158025476Y-47755295D01*
X158025476Y-47755295D02*
X158025476Y-47850533D01*
X158025476Y-47850533D02*
X158073095Y-47993390D01*
X158073095Y-47993390D02*
X158644523Y-48564819D01*
X158644523Y-48564819D02*
X158025476Y-48564819D01*
X157073095Y-48564819D02*
X157644523Y-48564819D01*
X157358809Y-48564819D02*
X157358809Y-47564819D01*
X157358809Y-47564819D02*
X157454047Y-47707676D01*
X157454047Y-47707676D02*
X157549285Y-47802914D01*
X157549285Y-47802914D02*
X157644523Y-47850533D01*
X208102857Y-64764819D02*
X208436190Y-64288628D01*
X208674285Y-64764819D02*
X208674285Y-63764819D01*
X208674285Y-63764819D02*
X208293333Y-63764819D01*
X208293333Y-63764819D02*
X208198095Y-63812438D01*
X208198095Y-63812438D02*
X208150476Y-63860057D01*
X208150476Y-63860057D02*
X208102857Y-63955295D01*
X208102857Y-63955295D02*
X208102857Y-64098152D01*
X208102857Y-64098152D02*
X208150476Y-64193390D01*
X208150476Y-64193390D02*
X208198095Y-64241009D01*
X208198095Y-64241009D02*
X208293333Y-64288628D01*
X208293333Y-64288628D02*
X208674285Y-64288628D01*
X207769523Y-63764819D02*
X207150476Y-63764819D01*
X207150476Y-63764819D02*
X207483809Y-64145771D01*
X207483809Y-64145771D02*
X207340952Y-64145771D01*
X207340952Y-64145771D02*
X207245714Y-64193390D01*
X207245714Y-64193390D02*
X207198095Y-64241009D01*
X207198095Y-64241009D02*
X207150476Y-64336247D01*
X207150476Y-64336247D02*
X207150476Y-64574342D01*
X207150476Y-64574342D02*
X207198095Y-64669580D01*
X207198095Y-64669580D02*
X207245714Y-64717200D01*
X207245714Y-64717200D02*
X207340952Y-64764819D01*
X207340952Y-64764819D02*
X207626666Y-64764819D01*
X207626666Y-64764819D02*
X207721904Y-64717200D01*
X207721904Y-64717200D02*
X207769523Y-64669580D01*
X206579047Y-64193390D02*
X206674285Y-64145771D01*
X206674285Y-64145771D02*
X206721904Y-64098152D01*
X206721904Y-64098152D02*
X206769523Y-64002914D01*
X206769523Y-64002914D02*
X206769523Y-63955295D01*
X206769523Y-63955295D02*
X206721904Y-63860057D01*
X206721904Y-63860057D02*
X206674285Y-63812438D01*
X206674285Y-63812438D02*
X206579047Y-63764819D01*
X206579047Y-63764819D02*
X206388571Y-63764819D01*
X206388571Y-63764819D02*
X206293333Y-63812438D01*
X206293333Y-63812438D02*
X206245714Y-63860057D01*
X206245714Y-63860057D02*
X206198095Y-63955295D01*
X206198095Y-63955295D02*
X206198095Y-64002914D01*
X206198095Y-64002914D02*
X206245714Y-64098152D01*
X206245714Y-64098152D02*
X206293333Y-64145771D01*
X206293333Y-64145771D02*
X206388571Y-64193390D01*
X206388571Y-64193390D02*
X206579047Y-64193390D01*
X206579047Y-64193390D02*
X206674285Y-64241009D01*
X206674285Y-64241009D02*
X206721904Y-64288628D01*
X206721904Y-64288628D02*
X206769523Y-64383866D01*
X206769523Y-64383866D02*
X206769523Y-64574342D01*
X206769523Y-64574342D02*
X206721904Y-64669580D01*
X206721904Y-64669580D02*
X206674285Y-64717200D01*
X206674285Y-64717200D02*
X206579047Y-64764819D01*
X206579047Y-64764819D02*
X206388571Y-64764819D01*
X206388571Y-64764819D02*
X206293333Y-64717200D01*
X206293333Y-64717200D02*
X206245714Y-64669580D01*
X206245714Y-64669580D02*
X206198095Y-64574342D01*
X206198095Y-64574342D02*
X206198095Y-64383866D01*
X206198095Y-64383866D02*
X206245714Y-64288628D01*
X206245714Y-64288628D02*
X206293333Y-64241009D01*
X206293333Y-64241009D02*
X206388571Y-64193390D01*
X187887858Y-57854819D02*
X188221191Y-57378628D01*
X188459286Y-57854819D02*
X188459286Y-56854819D01*
X188459286Y-56854819D02*
X188078334Y-56854819D01*
X188078334Y-56854819D02*
X187983096Y-56902438D01*
X187983096Y-56902438D02*
X187935477Y-56950057D01*
X187935477Y-56950057D02*
X187887858Y-57045295D01*
X187887858Y-57045295D02*
X187887858Y-57188152D01*
X187887858Y-57188152D02*
X187935477Y-57283390D01*
X187935477Y-57283390D02*
X187983096Y-57331009D01*
X187983096Y-57331009D02*
X188078334Y-57378628D01*
X188078334Y-57378628D02*
X188459286Y-57378628D01*
X186935477Y-57854819D02*
X187506905Y-57854819D01*
X187221191Y-57854819D02*
X187221191Y-56854819D01*
X187221191Y-56854819D02*
X187316429Y-56997676D01*
X187316429Y-56997676D02*
X187411667Y-57092914D01*
X187411667Y-57092914D02*
X187506905Y-57140533D01*
X186459286Y-57854819D02*
X186268810Y-57854819D01*
X186268810Y-57854819D02*
X186173572Y-57807200D01*
X186173572Y-57807200D02*
X186125953Y-57759580D01*
X186125953Y-57759580D02*
X186030715Y-57616723D01*
X186030715Y-57616723D02*
X185983096Y-57426247D01*
X185983096Y-57426247D02*
X185983096Y-57045295D01*
X185983096Y-57045295D02*
X186030715Y-56950057D01*
X186030715Y-56950057D02*
X186078334Y-56902438D01*
X186078334Y-56902438D02*
X186173572Y-56854819D01*
X186173572Y-56854819D02*
X186364048Y-56854819D01*
X186364048Y-56854819D02*
X186459286Y-56902438D01*
X186459286Y-56902438D02*
X186506905Y-56950057D01*
X186506905Y-56950057D02*
X186554524Y-57045295D01*
X186554524Y-57045295D02*
X186554524Y-57283390D01*
X186554524Y-57283390D02*
X186506905Y-57378628D01*
X186506905Y-57378628D02*
X186459286Y-57426247D01*
X186459286Y-57426247D02*
X186364048Y-57473866D01*
X186364048Y-57473866D02*
X186173572Y-57473866D01*
X186173572Y-57473866D02*
X186078334Y-57426247D01*
X186078334Y-57426247D02*
X186030715Y-57378628D01*
X186030715Y-57378628D02*
X185983096Y-57283390D01*
X140596224Y-79404566D02*
X140562552Y-79505581D01*
X140562552Y-79505581D02*
X140562552Y-79640268D01*
X140562552Y-79640268D02*
X140562552Y-79842299D01*
X140562552Y-79842299D02*
X140528880Y-79943314D01*
X140528880Y-79943314D02*
X140461537Y-80010657D01*
X140326850Y-79808627D02*
X140293178Y-79909642D01*
X140293178Y-79909642D02*
X140293178Y-80044329D01*
X140293178Y-80044329D02*
X140394193Y-80212688D01*
X140394193Y-80212688D02*
X140629896Y-80448390D01*
X140629896Y-80448390D02*
X140798254Y-80549405D01*
X140798254Y-80549405D02*
X140932941Y-80549405D01*
X140932941Y-80549405D02*
X141033957Y-80515734D01*
X141033957Y-80515734D02*
X141168644Y-80381047D01*
X141168644Y-80381047D02*
X141202315Y-80280031D01*
X141202315Y-80280031D02*
X141202315Y-80145344D01*
X141202315Y-80145344D02*
X141101300Y-79976986D01*
X141101300Y-79976986D02*
X140865598Y-79741283D01*
X140865598Y-79741283D02*
X140697239Y-79640268D01*
X140697239Y-79640268D02*
X140562552Y-79640268D01*
X140562552Y-79640268D02*
X140461537Y-79673940D01*
X140461537Y-79673940D02*
X140326850Y-79808627D01*
X141303331Y-78832146D02*
X140899270Y-79236207D01*
X141101300Y-79034177D02*
X141808407Y-79741283D01*
X141808407Y-79741283D02*
X141640048Y-79707612D01*
X141640048Y-79707612D02*
X141505361Y-79707612D01*
X141505361Y-79707612D02*
X141404346Y-79741283D01*
X169224819Y-49237142D02*
X168748628Y-48903809D01*
X169224819Y-48665714D02*
X168224819Y-48665714D01*
X168224819Y-48665714D02*
X168224819Y-49046666D01*
X168224819Y-49046666D02*
X168272438Y-49141904D01*
X168272438Y-49141904D02*
X168320057Y-49189523D01*
X168320057Y-49189523D02*
X168415295Y-49237142D01*
X168415295Y-49237142D02*
X168558152Y-49237142D01*
X168558152Y-49237142D02*
X168653390Y-49189523D01*
X168653390Y-49189523D02*
X168701009Y-49141904D01*
X168701009Y-49141904D02*
X168748628Y-49046666D01*
X168748628Y-49046666D02*
X168748628Y-48665714D01*
X168320057Y-49618095D02*
X168272438Y-49665714D01*
X168272438Y-49665714D02*
X168224819Y-49760952D01*
X168224819Y-49760952D02*
X168224819Y-49999047D01*
X168224819Y-49999047D02*
X168272438Y-50094285D01*
X168272438Y-50094285D02*
X168320057Y-50141904D01*
X168320057Y-50141904D02*
X168415295Y-50189523D01*
X168415295Y-50189523D02*
X168510533Y-50189523D01*
X168510533Y-50189523D02*
X168653390Y-50141904D01*
X168653390Y-50141904D02*
X169224819Y-49570476D01*
X169224819Y-49570476D02*
X169224819Y-50189523D01*
X168320057Y-50570476D02*
X168272438Y-50618095D01*
X168272438Y-50618095D02*
X168224819Y-50713333D01*
X168224819Y-50713333D02*
X168224819Y-50951428D01*
X168224819Y-50951428D02*
X168272438Y-51046666D01*
X168272438Y-51046666D02*
X168320057Y-51094285D01*
X168320057Y-51094285D02*
X168415295Y-51141904D01*
X168415295Y-51141904D02*
X168510533Y-51141904D01*
X168510533Y-51141904D02*
X168653390Y-51094285D01*
X168653390Y-51094285D02*
X169224819Y-50522857D01*
X169224819Y-50522857D02*
X169224819Y-51141904D01*
X172244580Y-54922142D02*
X172292200Y-54874523D01*
X172292200Y-54874523D02*
X172339819Y-54731666D01*
X172339819Y-54731666D02*
X172339819Y-54636428D01*
X172339819Y-54636428D02*
X172292200Y-54493571D01*
X172292200Y-54493571D02*
X172196961Y-54398333D01*
X172196961Y-54398333D02*
X172101723Y-54350714D01*
X172101723Y-54350714D02*
X171911247Y-54303095D01*
X171911247Y-54303095D02*
X171768390Y-54303095D01*
X171768390Y-54303095D02*
X171577914Y-54350714D01*
X171577914Y-54350714D02*
X171482676Y-54398333D01*
X171482676Y-54398333D02*
X171387438Y-54493571D01*
X171387438Y-54493571D02*
X171339819Y-54636428D01*
X171339819Y-54636428D02*
X171339819Y-54731666D01*
X171339819Y-54731666D02*
X171387438Y-54874523D01*
X171387438Y-54874523D02*
X171435057Y-54922142D01*
X171339819Y-55255476D02*
X171339819Y-55874523D01*
X171339819Y-55874523D02*
X171720771Y-55541190D01*
X171720771Y-55541190D02*
X171720771Y-55684047D01*
X171720771Y-55684047D02*
X171768390Y-55779285D01*
X171768390Y-55779285D02*
X171816009Y-55826904D01*
X171816009Y-55826904D02*
X171911247Y-55874523D01*
X171911247Y-55874523D02*
X172149342Y-55874523D01*
X172149342Y-55874523D02*
X172244580Y-55826904D01*
X172244580Y-55826904D02*
X172292200Y-55779285D01*
X172292200Y-55779285D02*
X172339819Y-55684047D01*
X172339819Y-55684047D02*
X172339819Y-55398333D01*
X172339819Y-55398333D02*
X172292200Y-55303095D01*
X172292200Y-55303095D02*
X172244580Y-55255476D01*
X171435057Y-56255476D02*
X171387438Y-56303095D01*
X171387438Y-56303095D02*
X171339819Y-56398333D01*
X171339819Y-56398333D02*
X171339819Y-56636428D01*
X171339819Y-56636428D02*
X171387438Y-56731666D01*
X171387438Y-56731666D02*
X171435057Y-56779285D01*
X171435057Y-56779285D02*
X171530295Y-56826904D01*
X171530295Y-56826904D02*
X171625533Y-56826904D01*
X171625533Y-56826904D02*
X171768390Y-56779285D01*
X171768390Y-56779285D02*
X172339819Y-56207857D01*
X172339819Y-56207857D02*
X172339819Y-56826904D01*
X145164761Y-68014009D02*
X145021904Y-68061628D01*
X145021904Y-68061628D02*
X144974285Y-68109247D01*
X144974285Y-68109247D02*
X144926666Y-68204485D01*
X144926666Y-68204485D02*
X144926666Y-68347342D01*
X144926666Y-68347342D02*
X144974285Y-68442580D01*
X144974285Y-68442580D02*
X145021904Y-68490200D01*
X145021904Y-68490200D02*
X145117142Y-68537819D01*
X145117142Y-68537819D02*
X145498094Y-68537819D01*
X145498094Y-68537819D02*
X145498094Y-67537819D01*
X145498094Y-67537819D02*
X145164761Y-67537819D01*
X145164761Y-67537819D02*
X145069523Y-67585438D01*
X145069523Y-67585438D02*
X145021904Y-67633057D01*
X145021904Y-67633057D02*
X144974285Y-67728295D01*
X144974285Y-67728295D02*
X144974285Y-67823533D01*
X144974285Y-67823533D02*
X145021904Y-67918771D01*
X145021904Y-67918771D02*
X145069523Y-67966390D01*
X145069523Y-67966390D02*
X145164761Y-68014009D01*
X145164761Y-68014009D02*
X145498094Y-68014009D01*
X143974285Y-68537819D02*
X144545713Y-68537819D01*
X144259999Y-68537819D02*
X144259999Y-67537819D01*
X144259999Y-67537819D02*
X144355237Y-67680676D01*
X144355237Y-67680676D02*
X144450475Y-67775914D01*
X144450475Y-67775914D02*
X144545713Y-67823533D01*
X196122619Y-99979853D02*
X196170238Y-100027473D01*
X196170238Y-100027473D02*
X196313095Y-100075092D01*
X196313095Y-100075092D02*
X196408333Y-100075092D01*
X196408333Y-100075092D02*
X196551190Y-100027473D01*
X196551190Y-100027473D02*
X196646428Y-99932234D01*
X196646428Y-99932234D02*
X196694047Y-99836996D01*
X196694047Y-99836996D02*
X196741666Y-99646520D01*
X196741666Y-99646520D02*
X196741666Y-99503663D01*
X196741666Y-99503663D02*
X196694047Y-99313187D01*
X196694047Y-99313187D02*
X196646428Y-99217949D01*
X196646428Y-99217949D02*
X196551190Y-99122711D01*
X196551190Y-99122711D02*
X196408333Y-99075092D01*
X196408333Y-99075092D02*
X196313095Y-99075092D01*
X196313095Y-99075092D02*
X196170238Y-99122711D01*
X196170238Y-99122711D02*
X196122619Y-99170330D01*
X195265476Y-99075092D02*
X195455952Y-99075092D01*
X195455952Y-99075092D02*
X195551190Y-99122711D01*
X195551190Y-99122711D02*
X195598809Y-99170330D01*
X195598809Y-99170330D02*
X195694047Y-99313187D01*
X195694047Y-99313187D02*
X195741666Y-99503663D01*
X195741666Y-99503663D02*
X195741666Y-99884615D01*
X195741666Y-99884615D02*
X195694047Y-99979853D01*
X195694047Y-99979853D02*
X195646428Y-100027473D01*
X195646428Y-100027473D02*
X195551190Y-100075092D01*
X195551190Y-100075092D02*
X195360714Y-100075092D01*
X195360714Y-100075092D02*
X195265476Y-100027473D01*
X195265476Y-100027473D02*
X195217857Y-99979853D01*
X195217857Y-99979853D02*
X195170238Y-99884615D01*
X195170238Y-99884615D02*
X195170238Y-99646520D01*
X195170238Y-99646520D02*
X195217857Y-99551282D01*
X195217857Y-99551282D02*
X195265476Y-99503663D01*
X195265476Y-99503663D02*
X195360714Y-99456044D01*
X195360714Y-99456044D02*
X195551190Y-99456044D01*
X195551190Y-99456044D02*
X195646428Y-99503663D01*
X195646428Y-99503663D02*
X195694047Y-99551282D01*
X195694047Y-99551282D02*
X195741666Y-99646520D01*
X172799580Y-106673333D02*
X172847200Y-106625714D01*
X172847200Y-106625714D02*
X172894819Y-106482857D01*
X172894819Y-106482857D02*
X172894819Y-106387619D01*
X172894819Y-106387619D02*
X172847200Y-106244762D01*
X172847200Y-106244762D02*
X172751961Y-106149524D01*
X172751961Y-106149524D02*
X172656723Y-106101905D01*
X172656723Y-106101905D02*
X172466247Y-106054286D01*
X172466247Y-106054286D02*
X172323390Y-106054286D01*
X172323390Y-106054286D02*
X172132914Y-106101905D01*
X172132914Y-106101905D02*
X172037676Y-106149524D01*
X172037676Y-106149524D02*
X171942438Y-106244762D01*
X171942438Y-106244762D02*
X171894819Y-106387619D01*
X171894819Y-106387619D02*
X171894819Y-106482857D01*
X171894819Y-106482857D02*
X171942438Y-106625714D01*
X171942438Y-106625714D02*
X171990057Y-106673333D01*
X172894819Y-107625714D02*
X172894819Y-107054286D01*
X172894819Y-107340000D02*
X171894819Y-107340000D01*
X171894819Y-107340000D02*
X172037676Y-107244762D01*
X172037676Y-107244762D02*
X172132914Y-107149524D01*
X172132914Y-107149524D02*
X172180533Y-107054286D01*
X186004849Y-99101572D02*
X186052468Y-99149192D01*
X186052468Y-99149192D02*
X186195325Y-99196811D01*
X186195325Y-99196811D02*
X186290563Y-99196811D01*
X186290563Y-99196811D02*
X186433420Y-99149192D01*
X186433420Y-99149192D02*
X186528658Y-99053953D01*
X186528658Y-99053953D02*
X186576277Y-98958715D01*
X186576277Y-98958715D02*
X186623896Y-98768239D01*
X186623896Y-98768239D02*
X186623896Y-98625382D01*
X186623896Y-98625382D02*
X186576277Y-98434906D01*
X186576277Y-98434906D02*
X186528658Y-98339668D01*
X186528658Y-98339668D02*
X186433420Y-98244430D01*
X186433420Y-98244430D02*
X186290563Y-98196811D01*
X186290563Y-98196811D02*
X186195325Y-98196811D01*
X186195325Y-98196811D02*
X186052468Y-98244430D01*
X186052468Y-98244430D02*
X186004849Y-98292049D01*
X185052468Y-99196811D02*
X185623896Y-99196811D01*
X185338182Y-99196811D02*
X185338182Y-98196811D01*
X185338182Y-98196811D02*
X185433420Y-98339668D01*
X185433420Y-98339668D02*
X185528658Y-98434906D01*
X185528658Y-98434906D02*
X185623896Y-98482525D01*
X184147706Y-98196811D02*
X184623896Y-98196811D01*
X184623896Y-98196811D02*
X184671515Y-98673001D01*
X184671515Y-98673001D02*
X184623896Y-98625382D01*
X184623896Y-98625382D02*
X184528658Y-98577763D01*
X184528658Y-98577763D02*
X184290563Y-98577763D01*
X184290563Y-98577763D02*
X184195325Y-98625382D01*
X184195325Y-98625382D02*
X184147706Y-98673001D01*
X184147706Y-98673001D02*
X184100087Y-98768239D01*
X184100087Y-98768239D02*
X184100087Y-99006334D01*
X184100087Y-99006334D02*
X184147706Y-99101572D01*
X184147706Y-99101572D02*
X184195325Y-99149192D01*
X184195325Y-99149192D02*
X184290563Y-99196811D01*
X184290563Y-99196811D02*
X184528658Y-99196811D01*
X184528658Y-99196811D02*
X184623896Y-99149192D01*
X184623896Y-99149192D02*
X184671515Y-99101572D01*
X191464820Y-58937142D02*
X190988629Y-58603809D01*
X191464820Y-58365714D02*
X190464820Y-58365714D01*
X190464820Y-58365714D02*
X190464820Y-58746666D01*
X190464820Y-58746666D02*
X190512439Y-58841904D01*
X190512439Y-58841904D02*
X190560058Y-58889523D01*
X190560058Y-58889523D02*
X190655296Y-58937142D01*
X190655296Y-58937142D02*
X190798153Y-58937142D01*
X190798153Y-58937142D02*
X190893391Y-58889523D01*
X190893391Y-58889523D02*
X190941010Y-58841904D01*
X190941010Y-58841904D02*
X190988629Y-58746666D01*
X190988629Y-58746666D02*
X190988629Y-58365714D01*
X190560058Y-59318095D02*
X190512439Y-59365714D01*
X190512439Y-59365714D02*
X190464820Y-59460952D01*
X190464820Y-59460952D02*
X190464820Y-59699047D01*
X190464820Y-59699047D02*
X190512439Y-59794285D01*
X190512439Y-59794285D02*
X190560058Y-59841904D01*
X190560058Y-59841904D02*
X190655296Y-59889523D01*
X190655296Y-59889523D02*
X190750534Y-59889523D01*
X190750534Y-59889523D02*
X190893391Y-59841904D01*
X190893391Y-59841904D02*
X191464820Y-59270476D01*
X191464820Y-59270476D02*
X191464820Y-59889523D01*
X191464820Y-60841904D02*
X191464820Y-60270476D01*
X191464820Y-60556190D02*
X190464820Y-60556190D01*
X190464820Y-60556190D02*
X190607677Y-60460952D01*
X190607677Y-60460952D02*
X190702915Y-60365714D01*
X190702915Y-60365714D02*
X190750534Y-60270476D01*
X165262857Y-47204819D02*
X165596190Y-46728628D01*
X165834285Y-47204819D02*
X165834285Y-46204819D01*
X165834285Y-46204819D02*
X165453333Y-46204819D01*
X165453333Y-46204819D02*
X165358095Y-46252438D01*
X165358095Y-46252438D02*
X165310476Y-46300057D01*
X165310476Y-46300057D02*
X165262857Y-46395295D01*
X165262857Y-46395295D02*
X165262857Y-46538152D01*
X165262857Y-46538152D02*
X165310476Y-46633390D01*
X165310476Y-46633390D02*
X165358095Y-46681009D01*
X165358095Y-46681009D02*
X165453333Y-46728628D01*
X165453333Y-46728628D02*
X165834285Y-46728628D01*
X164881904Y-46300057D02*
X164834285Y-46252438D01*
X164834285Y-46252438D02*
X164739047Y-46204819D01*
X164739047Y-46204819D02*
X164500952Y-46204819D01*
X164500952Y-46204819D02*
X164405714Y-46252438D01*
X164405714Y-46252438D02*
X164358095Y-46300057D01*
X164358095Y-46300057D02*
X164310476Y-46395295D01*
X164310476Y-46395295D02*
X164310476Y-46490533D01*
X164310476Y-46490533D02*
X164358095Y-46633390D01*
X164358095Y-46633390D02*
X164929523Y-47204819D01*
X164929523Y-47204819D02*
X164310476Y-47204819D01*
X163977142Y-46204819D02*
X163358095Y-46204819D01*
X163358095Y-46204819D02*
X163691428Y-46585771D01*
X163691428Y-46585771D02*
X163548571Y-46585771D01*
X163548571Y-46585771D02*
X163453333Y-46633390D01*
X163453333Y-46633390D02*
X163405714Y-46681009D01*
X163405714Y-46681009D02*
X163358095Y-46776247D01*
X163358095Y-46776247D02*
X163358095Y-47014342D01*
X163358095Y-47014342D02*
X163405714Y-47109580D01*
X163405714Y-47109580D02*
X163453333Y-47157200D01*
X163453333Y-47157200D02*
X163548571Y-47204819D01*
X163548571Y-47204819D02*
X163834285Y-47204819D01*
X163834285Y-47204819D02*
X163929523Y-47157200D01*
X163929523Y-47157200D02*
X163977142Y-47109580D01*
X196318096Y-60634820D02*
X196318096Y-59634820D01*
X196318096Y-59634820D02*
X196080001Y-59634820D01*
X196080001Y-59634820D02*
X195937144Y-59682439D01*
X195937144Y-59682439D02*
X195841906Y-59777677D01*
X195841906Y-59777677D02*
X195794287Y-59872915D01*
X195794287Y-59872915D02*
X195746668Y-60063391D01*
X195746668Y-60063391D02*
X195746668Y-60206248D01*
X195746668Y-60206248D02*
X195794287Y-60396724D01*
X195794287Y-60396724D02*
X195841906Y-60491962D01*
X195841906Y-60491962D02*
X195937144Y-60587201D01*
X195937144Y-60587201D02*
X196080001Y-60634820D01*
X196080001Y-60634820D02*
X196318096Y-60634820D01*
X195413334Y-59634820D02*
X194746668Y-59634820D01*
X194746668Y-59634820D02*
X195175239Y-60634820D01*
X153502857Y-92989580D02*
X153550476Y-93037200D01*
X153550476Y-93037200D02*
X153693333Y-93084819D01*
X153693333Y-93084819D02*
X153788571Y-93084819D01*
X153788571Y-93084819D02*
X153931428Y-93037200D01*
X153931428Y-93037200D02*
X154026666Y-92941961D01*
X154026666Y-92941961D02*
X154074285Y-92846723D01*
X154074285Y-92846723D02*
X154121904Y-92656247D01*
X154121904Y-92656247D02*
X154121904Y-92513390D01*
X154121904Y-92513390D02*
X154074285Y-92322914D01*
X154074285Y-92322914D02*
X154026666Y-92227676D01*
X154026666Y-92227676D02*
X153931428Y-92132438D01*
X153931428Y-92132438D02*
X153788571Y-92084819D01*
X153788571Y-92084819D02*
X153693333Y-92084819D01*
X153693333Y-92084819D02*
X153550476Y-92132438D01*
X153550476Y-92132438D02*
X153502857Y-92180057D01*
X152550476Y-93084819D02*
X153121904Y-93084819D01*
X152836190Y-93084819D02*
X152836190Y-92084819D01*
X152836190Y-92084819D02*
X152931428Y-92227676D01*
X152931428Y-92227676D02*
X153026666Y-92322914D01*
X153026666Y-92322914D02*
X153121904Y-92370533D01*
X151598095Y-93084819D02*
X152169523Y-93084819D01*
X151883809Y-93084819D02*
X151883809Y-92084819D01*
X151883809Y-92084819D02*
X151979047Y-92227676D01*
X151979047Y-92227676D02*
X152074285Y-92322914D01*
X152074285Y-92322914D02*
X152169523Y-92370533D01*
X175680594Y-50849820D02*
X175680594Y-49849820D01*
X175680594Y-49849820D02*
X175442499Y-49849820D01*
X175442499Y-49849820D02*
X175299642Y-49897439D01*
X175299642Y-49897439D02*
X175204404Y-49992677D01*
X175204404Y-49992677D02*
X175156785Y-50087915D01*
X175156785Y-50087915D02*
X175109166Y-50278391D01*
X175109166Y-50278391D02*
X175109166Y-50421248D01*
X175109166Y-50421248D02*
X175156785Y-50611724D01*
X175156785Y-50611724D02*
X175204404Y-50706962D01*
X175204404Y-50706962D02*
X175299642Y-50802201D01*
X175299642Y-50802201D02*
X175442499Y-50849820D01*
X175442499Y-50849820D02*
X175680594Y-50849820D01*
X174632975Y-50849820D02*
X174442499Y-50849820D01*
X174442499Y-50849820D02*
X174347261Y-50802201D01*
X174347261Y-50802201D02*
X174299642Y-50754581D01*
X174299642Y-50754581D02*
X174204404Y-50611724D01*
X174204404Y-50611724D02*
X174156785Y-50421248D01*
X174156785Y-50421248D02*
X174156785Y-50040296D01*
X174156785Y-50040296D02*
X174204404Y-49945058D01*
X174204404Y-49945058D02*
X174252023Y-49897439D01*
X174252023Y-49897439D02*
X174347261Y-49849820D01*
X174347261Y-49849820D02*
X174537737Y-49849820D01*
X174537737Y-49849820D02*
X174632975Y-49897439D01*
X174632975Y-49897439D02*
X174680594Y-49945058D01*
X174680594Y-49945058D02*
X174728213Y-50040296D01*
X174728213Y-50040296D02*
X174728213Y-50278391D01*
X174728213Y-50278391D02*
X174680594Y-50373629D01*
X174680594Y-50373629D02*
X174632975Y-50421248D01*
X174632975Y-50421248D02*
X174537737Y-50468867D01*
X174537737Y-50468867D02*
X174347261Y-50468867D01*
X174347261Y-50468867D02*
X174252023Y-50421248D01*
X174252023Y-50421248D02*
X174204404Y-50373629D01*
X174204404Y-50373629D02*
X174156785Y-50278391D01*
X208097857Y-66434580D02*
X208145476Y-66482200D01*
X208145476Y-66482200D02*
X208288333Y-66529819D01*
X208288333Y-66529819D02*
X208383571Y-66529819D01*
X208383571Y-66529819D02*
X208526428Y-66482200D01*
X208526428Y-66482200D02*
X208621666Y-66386961D01*
X208621666Y-66386961D02*
X208669285Y-66291723D01*
X208669285Y-66291723D02*
X208716904Y-66101247D01*
X208716904Y-66101247D02*
X208716904Y-65958390D01*
X208716904Y-65958390D02*
X208669285Y-65767914D01*
X208669285Y-65767914D02*
X208621666Y-65672676D01*
X208621666Y-65672676D02*
X208526428Y-65577438D01*
X208526428Y-65577438D02*
X208383571Y-65529819D01*
X208383571Y-65529819D02*
X208288333Y-65529819D01*
X208288333Y-65529819D02*
X208145476Y-65577438D01*
X208145476Y-65577438D02*
X208097857Y-65625057D01*
X207764523Y-65529819D02*
X207145476Y-65529819D01*
X207145476Y-65529819D02*
X207478809Y-65910771D01*
X207478809Y-65910771D02*
X207335952Y-65910771D01*
X207335952Y-65910771D02*
X207240714Y-65958390D01*
X207240714Y-65958390D02*
X207193095Y-66006009D01*
X207193095Y-66006009D02*
X207145476Y-66101247D01*
X207145476Y-66101247D02*
X207145476Y-66339342D01*
X207145476Y-66339342D02*
X207193095Y-66434580D01*
X207193095Y-66434580D02*
X207240714Y-66482200D01*
X207240714Y-66482200D02*
X207335952Y-66529819D01*
X207335952Y-66529819D02*
X207621666Y-66529819D01*
X207621666Y-66529819D02*
X207716904Y-66482200D01*
X207716904Y-66482200D02*
X207764523Y-66434580D01*
X206288333Y-65863152D02*
X206288333Y-66529819D01*
X206526428Y-65482200D02*
X206764523Y-66196485D01*
X206764523Y-66196485D02*
X206145476Y-66196485D01*
X195190731Y-58695315D02*
X194190731Y-58695315D01*
X194190731Y-58695315D02*
X194190731Y-58933410D01*
X194190731Y-58933410D02*
X194238350Y-59076267D01*
X194238350Y-59076267D02*
X194333588Y-59171505D01*
X194333588Y-59171505D02*
X194428826Y-59219124D01*
X194428826Y-59219124D02*
X194619302Y-59266743D01*
X194619302Y-59266743D02*
X194762159Y-59266743D01*
X194762159Y-59266743D02*
X194952635Y-59219124D01*
X194952635Y-59219124D02*
X195047873Y-59171505D01*
X195047873Y-59171505D02*
X195143112Y-59076267D01*
X195143112Y-59076267D02*
X195190731Y-58933410D01*
X195190731Y-58933410D02*
X195190731Y-58695315D01*
X194619302Y-59838172D02*
X194571683Y-59742934D01*
X194571683Y-59742934D02*
X194524064Y-59695315D01*
X194524064Y-59695315D02*
X194428826Y-59647696D01*
X194428826Y-59647696D02*
X194381207Y-59647696D01*
X194381207Y-59647696D02*
X194285969Y-59695315D01*
X194285969Y-59695315D02*
X194238350Y-59742934D01*
X194238350Y-59742934D02*
X194190731Y-59838172D01*
X194190731Y-59838172D02*
X194190731Y-60028648D01*
X194190731Y-60028648D02*
X194238350Y-60123886D01*
X194238350Y-60123886D02*
X194285969Y-60171505D01*
X194285969Y-60171505D02*
X194381207Y-60219124D01*
X194381207Y-60219124D02*
X194428826Y-60219124D01*
X194428826Y-60219124D02*
X194524064Y-60171505D01*
X194524064Y-60171505D02*
X194571683Y-60123886D01*
X194571683Y-60123886D02*
X194619302Y-60028648D01*
X194619302Y-60028648D02*
X194619302Y-59838172D01*
X194619302Y-59838172D02*
X194666921Y-59742934D01*
X194666921Y-59742934D02*
X194714540Y-59695315D01*
X194714540Y-59695315D02*
X194809778Y-59647696D01*
X194809778Y-59647696D02*
X195000254Y-59647696D01*
X195000254Y-59647696D02*
X195095492Y-59695315D01*
X195095492Y-59695315D02*
X195143112Y-59742934D01*
X195143112Y-59742934D02*
X195190731Y-59838172D01*
X195190731Y-59838172D02*
X195190731Y-60028648D01*
X195190731Y-60028648D02*
X195143112Y-60123886D01*
X195143112Y-60123886D02*
X195095492Y-60171505D01*
X195095492Y-60171505D02*
X195000254Y-60219124D01*
X195000254Y-60219124D02*
X194809778Y-60219124D01*
X194809778Y-60219124D02*
X194714540Y-60171505D01*
X194714540Y-60171505D02*
X194666921Y-60123886D01*
X194666921Y-60123886D02*
X194619302Y-60028648D01*
X201468094Y-67764819D02*
X201468094Y-66764819D01*
X201468094Y-66764819D02*
X201229999Y-66764819D01*
X201229999Y-66764819D02*
X201087142Y-66812438D01*
X201087142Y-66812438D02*
X200991904Y-66907676D01*
X200991904Y-66907676D02*
X200944285Y-67002914D01*
X200944285Y-67002914D02*
X200896666Y-67193390D01*
X200896666Y-67193390D02*
X200896666Y-67336247D01*
X200896666Y-67336247D02*
X200944285Y-67526723D01*
X200944285Y-67526723D02*
X200991904Y-67621961D01*
X200991904Y-67621961D02*
X201087142Y-67717200D01*
X201087142Y-67717200D02*
X201229999Y-67764819D01*
X201229999Y-67764819D02*
X201468094Y-67764819D01*
X199991904Y-66764819D02*
X200468094Y-66764819D01*
X200468094Y-66764819D02*
X200515713Y-67241009D01*
X200515713Y-67241009D02*
X200468094Y-67193390D01*
X200468094Y-67193390D02*
X200372856Y-67145771D01*
X200372856Y-67145771D02*
X200134761Y-67145771D01*
X200134761Y-67145771D02*
X200039523Y-67193390D01*
X200039523Y-67193390D02*
X199991904Y-67241009D01*
X199991904Y-67241009D02*
X199944285Y-67336247D01*
X199944285Y-67336247D02*
X199944285Y-67574342D01*
X199944285Y-67574342D02*
X199991904Y-67669580D01*
X199991904Y-67669580D02*
X200039523Y-67717200D01*
X200039523Y-67717200D02*
X200134761Y-67764819D01*
X200134761Y-67764819D02*
X200372856Y-67764819D01*
X200372856Y-67764819D02*
X200468094Y-67717200D01*
X200468094Y-67717200D02*
X200515713Y-67669580D01*
X192894581Y-58957142D02*
X192942201Y-58909523D01*
X192942201Y-58909523D02*
X192989820Y-58766666D01*
X192989820Y-58766666D02*
X192989820Y-58671428D01*
X192989820Y-58671428D02*
X192942201Y-58528571D01*
X192942201Y-58528571D02*
X192846962Y-58433333D01*
X192846962Y-58433333D02*
X192751724Y-58385714D01*
X192751724Y-58385714D02*
X192561248Y-58338095D01*
X192561248Y-58338095D02*
X192418391Y-58338095D01*
X192418391Y-58338095D02*
X192227915Y-58385714D01*
X192227915Y-58385714D02*
X192132677Y-58433333D01*
X192132677Y-58433333D02*
X192037439Y-58528571D01*
X192037439Y-58528571D02*
X191989820Y-58671428D01*
X191989820Y-58671428D02*
X191989820Y-58766666D01*
X191989820Y-58766666D02*
X192037439Y-58909523D01*
X192037439Y-58909523D02*
X192085058Y-58957142D01*
X192085058Y-59338095D02*
X192037439Y-59385714D01*
X192037439Y-59385714D02*
X191989820Y-59480952D01*
X191989820Y-59480952D02*
X191989820Y-59719047D01*
X191989820Y-59719047D02*
X192037439Y-59814285D01*
X192037439Y-59814285D02*
X192085058Y-59861904D01*
X192085058Y-59861904D02*
X192180296Y-59909523D01*
X192180296Y-59909523D02*
X192275534Y-59909523D01*
X192275534Y-59909523D02*
X192418391Y-59861904D01*
X192418391Y-59861904D02*
X192989820Y-59290476D01*
X192989820Y-59290476D02*
X192989820Y-59909523D01*
X191989820Y-60528571D02*
X191989820Y-60623809D01*
X191989820Y-60623809D02*
X192037439Y-60719047D01*
X192037439Y-60719047D02*
X192085058Y-60766666D01*
X192085058Y-60766666D02*
X192180296Y-60814285D01*
X192180296Y-60814285D02*
X192370772Y-60861904D01*
X192370772Y-60861904D02*
X192608867Y-60861904D01*
X192608867Y-60861904D02*
X192799343Y-60814285D01*
X192799343Y-60814285D02*
X192894581Y-60766666D01*
X192894581Y-60766666D02*
X192942201Y-60719047D01*
X192942201Y-60719047D02*
X192989820Y-60623809D01*
X192989820Y-60623809D02*
X192989820Y-60528571D01*
X192989820Y-60528571D02*
X192942201Y-60433333D01*
X192942201Y-60433333D02*
X192894581Y-60385714D01*
X192894581Y-60385714D02*
X192799343Y-60338095D01*
X192799343Y-60338095D02*
X192608867Y-60290476D01*
X192608867Y-60290476D02*
X192370772Y-60290476D01*
X192370772Y-60290476D02*
X192180296Y-60338095D01*
X192180296Y-60338095D02*
X192085058Y-60385714D01*
X192085058Y-60385714D02*
X192037439Y-60433333D01*
X192037439Y-60433333D02*
X191989820Y-60528571D01*
X209582857Y-72864819D02*
X209916190Y-72388628D01*
X210154285Y-72864819D02*
X210154285Y-71864819D01*
X210154285Y-71864819D02*
X209773333Y-71864819D01*
X209773333Y-71864819D02*
X209678095Y-71912438D01*
X209678095Y-71912438D02*
X209630476Y-71960057D01*
X209630476Y-71960057D02*
X209582857Y-72055295D01*
X209582857Y-72055295D02*
X209582857Y-72198152D01*
X209582857Y-72198152D02*
X209630476Y-72293390D01*
X209630476Y-72293390D02*
X209678095Y-72341009D01*
X209678095Y-72341009D02*
X209773333Y-72388628D01*
X209773333Y-72388628D02*
X210154285Y-72388628D01*
X208630476Y-72864819D02*
X209201904Y-72864819D01*
X208916190Y-72864819D02*
X208916190Y-71864819D01*
X208916190Y-71864819D02*
X209011428Y-72007676D01*
X209011428Y-72007676D02*
X209106666Y-72102914D01*
X209106666Y-72102914D02*
X209201904Y-72150533D01*
X207678095Y-72864819D02*
X208249523Y-72864819D01*
X207963809Y-72864819D02*
X207963809Y-71864819D01*
X207963809Y-71864819D02*
X208059047Y-72007676D01*
X208059047Y-72007676D02*
X208154285Y-72102914D01*
X208154285Y-72102914D02*
X208249523Y-72150533D01*
X162197857Y-47204819D02*
X162531190Y-46728628D01*
X162769285Y-47204819D02*
X162769285Y-46204819D01*
X162769285Y-46204819D02*
X162388333Y-46204819D01*
X162388333Y-46204819D02*
X162293095Y-46252438D01*
X162293095Y-46252438D02*
X162245476Y-46300057D01*
X162245476Y-46300057D02*
X162197857Y-46395295D01*
X162197857Y-46395295D02*
X162197857Y-46538152D01*
X162197857Y-46538152D02*
X162245476Y-46633390D01*
X162245476Y-46633390D02*
X162293095Y-46681009D01*
X162293095Y-46681009D02*
X162388333Y-46728628D01*
X162388333Y-46728628D02*
X162769285Y-46728628D01*
X161816904Y-46300057D02*
X161769285Y-46252438D01*
X161769285Y-46252438D02*
X161674047Y-46204819D01*
X161674047Y-46204819D02*
X161435952Y-46204819D01*
X161435952Y-46204819D02*
X161340714Y-46252438D01*
X161340714Y-46252438D02*
X161293095Y-46300057D01*
X161293095Y-46300057D02*
X161245476Y-46395295D01*
X161245476Y-46395295D02*
X161245476Y-46490533D01*
X161245476Y-46490533D02*
X161293095Y-46633390D01*
X161293095Y-46633390D02*
X161864523Y-47204819D01*
X161864523Y-47204819D02*
X161245476Y-47204819D01*
X160388333Y-46538152D02*
X160388333Y-47204819D01*
X160626428Y-46157200D02*
X160864523Y-46871485D01*
X160864523Y-46871485D02*
X160245476Y-46871485D01*
X210304819Y-66072142D02*
X209828628Y-65738809D01*
X210304819Y-65500714D02*
X209304819Y-65500714D01*
X209304819Y-65500714D02*
X209304819Y-65881666D01*
X209304819Y-65881666D02*
X209352438Y-65976904D01*
X209352438Y-65976904D02*
X209400057Y-66024523D01*
X209400057Y-66024523D02*
X209495295Y-66072142D01*
X209495295Y-66072142D02*
X209638152Y-66072142D01*
X209638152Y-66072142D02*
X209733390Y-66024523D01*
X209733390Y-66024523D02*
X209781009Y-65976904D01*
X209781009Y-65976904D02*
X209828628Y-65881666D01*
X209828628Y-65881666D02*
X209828628Y-65500714D01*
X210304819Y-67024523D02*
X210304819Y-66453095D01*
X210304819Y-66738809D02*
X209304819Y-66738809D01*
X209304819Y-66738809D02*
X209447676Y-66643571D01*
X209447676Y-66643571D02*
X209542914Y-66548333D01*
X209542914Y-66548333D02*
X209590533Y-66453095D01*
X209304819Y-67357857D02*
X209304819Y-68024523D01*
X209304819Y-68024523D02*
X210304819Y-67595952D01*
X178529820Y-57077142D02*
X178053629Y-56743809D01*
X178529820Y-56505714D02*
X177529820Y-56505714D01*
X177529820Y-56505714D02*
X177529820Y-56886666D01*
X177529820Y-56886666D02*
X177577439Y-56981904D01*
X177577439Y-56981904D02*
X177625058Y-57029523D01*
X177625058Y-57029523D02*
X177720296Y-57077142D01*
X177720296Y-57077142D02*
X177863153Y-57077142D01*
X177863153Y-57077142D02*
X177958391Y-57029523D01*
X177958391Y-57029523D02*
X178006010Y-56981904D01*
X178006010Y-56981904D02*
X178053629Y-56886666D01*
X178053629Y-56886666D02*
X178053629Y-56505714D01*
X178529820Y-58029523D02*
X178529820Y-57458095D01*
X178529820Y-57743809D02*
X177529820Y-57743809D01*
X177529820Y-57743809D02*
X177672677Y-57648571D01*
X177672677Y-57648571D02*
X177767915Y-57553333D01*
X177767915Y-57553333D02*
X177815534Y-57458095D01*
X177625058Y-58410476D02*
X177577439Y-58458095D01*
X177577439Y-58458095D02*
X177529820Y-58553333D01*
X177529820Y-58553333D02*
X177529820Y-58791428D01*
X177529820Y-58791428D02*
X177577439Y-58886666D01*
X177577439Y-58886666D02*
X177625058Y-58934285D01*
X177625058Y-58934285D02*
X177720296Y-58981904D01*
X177720296Y-58981904D02*
X177815534Y-58981904D01*
X177815534Y-58981904D02*
X177958391Y-58934285D01*
X177958391Y-58934285D02*
X178529820Y-58362857D01*
X178529820Y-58362857D02*
X178529820Y-58981904D01*
X191331578Y-54517843D02*
X190531121Y-54517843D01*
X191255344Y-55356417D02*
X191293461Y-55318300D01*
X191293461Y-55318300D02*
X191331578Y-55203949D01*
X191331578Y-55203949D02*
X191331578Y-55127715D01*
X191331578Y-55127715D02*
X191293461Y-55013364D01*
X191293461Y-55013364D02*
X191217227Y-54937130D01*
X191217227Y-54937130D02*
X191140993Y-54899013D01*
X191140993Y-54899013D02*
X190988525Y-54860896D01*
X190988525Y-54860896D02*
X190874174Y-54860896D01*
X190874174Y-54860896D02*
X190721706Y-54899013D01*
X190721706Y-54899013D02*
X190645472Y-54937130D01*
X190645472Y-54937130D02*
X190569238Y-55013364D01*
X190569238Y-55013364D02*
X190531121Y-55127715D01*
X190531121Y-55127715D02*
X190531121Y-55203949D01*
X190531121Y-55203949D02*
X190569238Y-55318300D01*
X190569238Y-55318300D02*
X190607355Y-55356417D01*
X190531121Y-55623236D02*
X190531121Y-56156874D01*
X190531121Y-56156874D02*
X191331578Y-55813821D01*
X161044819Y-48537142D02*
X160568628Y-48203809D01*
X161044819Y-47965714D02*
X160044819Y-47965714D01*
X160044819Y-47965714D02*
X160044819Y-48346666D01*
X160044819Y-48346666D02*
X160092438Y-48441904D01*
X160092438Y-48441904D02*
X160140057Y-48489523D01*
X160140057Y-48489523D02*
X160235295Y-48537142D01*
X160235295Y-48537142D02*
X160378152Y-48537142D01*
X160378152Y-48537142D02*
X160473390Y-48489523D01*
X160473390Y-48489523D02*
X160521009Y-48441904D01*
X160521009Y-48441904D02*
X160568628Y-48346666D01*
X160568628Y-48346666D02*
X160568628Y-47965714D01*
X160140057Y-48918095D02*
X160092438Y-48965714D01*
X160092438Y-48965714D02*
X160044819Y-49060952D01*
X160044819Y-49060952D02*
X160044819Y-49299047D01*
X160044819Y-49299047D02*
X160092438Y-49394285D01*
X160092438Y-49394285D02*
X160140057Y-49441904D01*
X160140057Y-49441904D02*
X160235295Y-49489523D01*
X160235295Y-49489523D02*
X160330533Y-49489523D01*
X160330533Y-49489523D02*
X160473390Y-49441904D01*
X160473390Y-49441904D02*
X161044819Y-48870476D01*
X161044819Y-48870476D02*
X161044819Y-49489523D01*
X160044819Y-50394285D02*
X160044819Y-49918095D01*
X160044819Y-49918095D02*
X160521009Y-49870476D01*
X160521009Y-49870476D02*
X160473390Y-49918095D01*
X160473390Y-49918095D02*
X160425771Y-50013333D01*
X160425771Y-50013333D02*
X160425771Y-50251428D01*
X160425771Y-50251428D02*
X160473390Y-50346666D01*
X160473390Y-50346666D02*
X160521009Y-50394285D01*
X160521009Y-50394285D02*
X160616247Y-50441904D01*
X160616247Y-50441904D02*
X160854342Y-50441904D01*
X160854342Y-50441904D02*
X160949580Y-50394285D01*
X160949580Y-50394285D02*
X160997200Y-50346666D01*
X160997200Y-50346666D02*
X161044819Y-50251428D01*
X161044819Y-50251428D02*
X161044819Y-50013333D01*
X161044819Y-50013333D02*
X160997200Y-49918095D01*
X160997200Y-49918095D02*
X160949580Y-49870476D01*
X157219580Y-63367142D02*
X157267200Y-63319523D01*
X157267200Y-63319523D02*
X157314819Y-63176666D01*
X157314819Y-63176666D02*
X157314819Y-63081428D01*
X157314819Y-63081428D02*
X157267200Y-62938571D01*
X157267200Y-62938571D02*
X157171961Y-62843333D01*
X157171961Y-62843333D02*
X157076723Y-62795714D01*
X157076723Y-62795714D02*
X156886247Y-62748095D01*
X156886247Y-62748095D02*
X156743390Y-62748095D01*
X156743390Y-62748095D02*
X156552914Y-62795714D01*
X156552914Y-62795714D02*
X156457676Y-62843333D01*
X156457676Y-62843333D02*
X156362438Y-62938571D01*
X156362438Y-62938571D02*
X156314819Y-63081428D01*
X156314819Y-63081428D02*
X156314819Y-63176666D01*
X156314819Y-63176666D02*
X156362438Y-63319523D01*
X156362438Y-63319523D02*
X156410057Y-63367142D01*
X157314819Y-64319523D02*
X157314819Y-63748095D01*
X157314819Y-64033809D02*
X156314819Y-64033809D01*
X156314819Y-64033809D02*
X156457676Y-63938571D01*
X156457676Y-63938571D02*
X156552914Y-63843333D01*
X156552914Y-63843333D02*
X156600533Y-63748095D01*
X156410057Y-64700476D02*
X156362438Y-64748095D01*
X156362438Y-64748095D02*
X156314819Y-64843333D01*
X156314819Y-64843333D02*
X156314819Y-65081428D01*
X156314819Y-65081428D02*
X156362438Y-65176666D01*
X156362438Y-65176666D02*
X156410057Y-65224285D01*
X156410057Y-65224285D02*
X156505295Y-65271904D01*
X156505295Y-65271904D02*
X156600533Y-65271904D01*
X156600533Y-65271904D02*
X156743390Y-65224285D01*
X156743390Y-65224285D02*
X157314819Y-64652857D01*
X157314819Y-64652857D02*
X157314819Y-65271904D01*
X163097857Y-55664819D02*
X163431190Y-55188628D01*
X163669285Y-55664819D02*
X163669285Y-54664819D01*
X163669285Y-54664819D02*
X163288333Y-54664819D01*
X163288333Y-54664819D02*
X163193095Y-54712438D01*
X163193095Y-54712438D02*
X163145476Y-54760057D01*
X163145476Y-54760057D02*
X163097857Y-54855295D01*
X163097857Y-54855295D02*
X163097857Y-54998152D01*
X163097857Y-54998152D02*
X163145476Y-55093390D01*
X163145476Y-55093390D02*
X163193095Y-55141009D01*
X163193095Y-55141009D02*
X163288333Y-55188628D01*
X163288333Y-55188628D02*
X163669285Y-55188628D01*
X162764523Y-54664819D02*
X162145476Y-54664819D01*
X162145476Y-54664819D02*
X162478809Y-55045771D01*
X162478809Y-55045771D02*
X162335952Y-55045771D01*
X162335952Y-55045771D02*
X162240714Y-55093390D01*
X162240714Y-55093390D02*
X162193095Y-55141009D01*
X162193095Y-55141009D02*
X162145476Y-55236247D01*
X162145476Y-55236247D02*
X162145476Y-55474342D01*
X162145476Y-55474342D02*
X162193095Y-55569580D01*
X162193095Y-55569580D02*
X162240714Y-55617200D01*
X162240714Y-55617200D02*
X162335952Y-55664819D01*
X162335952Y-55664819D02*
X162621666Y-55664819D01*
X162621666Y-55664819D02*
X162716904Y-55617200D01*
X162716904Y-55617200D02*
X162764523Y-55569580D01*
X161526428Y-54664819D02*
X161431190Y-54664819D01*
X161431190Y-54664819D02*
X161335952Y-54712438D01*
X161335952Y-54712438D02*
X161288333Y-54760057D01*
X161288333Y-54760057D02*
X161240714Y-54855295D01*
X161240714Y-54855295D02*
X161193095Y-55045771D01*
X161193095Y-55045771D02*
X161193095Y-55283866D01*
X161193095Y-55283866D02*
X161240714Y-55474342D01*
X161240714Y-55474342D02*
X161288333Y-55569580D01*
X161288333Y-55569580D02*
X161335952Y-55617200D01*
X161335952Y-55617200D02*
X161431190Y-55664819D01*
X161431190Y-55664819D02*
X161526428Y-55664819D01*
X161526428Y-55664819D02*
X161621666Y-55617200D01*
X161621666Y-55617200D02*
X161669285Y-55569580D01*
X161669285Y-55569580D02*
X161716904Y-55474342D01*
X161716904Y-55474342D02*
X161764523Y-55283866D01*
X161764523Y-55283866D02*
X161764523Y-55045771D01*
X161764523Y-55045771D02*
X161716904Y-54855295D01*
X161716904Y-54855295D02*
X161669285Y-54760057D01*
X161669285Y-54760057D02*
X161621666Y-54712438D01*
X161621666Y-54712438D02*
X161526428Y-54664819D01*
X176404818Y-104438095D02*
X177214341Y-104438095D01*
X177214341Y-104438095D02*
X177309579Y-104485714D01*
X177309579Y-104485714D02*
X177357199Y-104533333D01*
X177357199Y-104533333D02*
X177404818Y-104628571D01*
X177404818Y-104628571D02*
X177404818Y-104819047D01*
X177404818Y-104819047D02*
X177357199Y-104914285D01*
X177357199Y-104914285D02*
X177309579Y-104961904D01*
X177309579Y-104961904D02*
X177214341Y-105009523D01*
X177214341Y-105009523D02*
X176404818Y-105009523D01*
X176738151Y-105914285D02*
X177404818Y-105914285D01*
X176357199Y-105676190D02*
X177071484Y-105438095D01*
X177071484Y-105438095D02*
X177071484Y-106057142D01*
D11*
%TO.C,R7*%
X183397742Y-98537500D02*
X183872258Y-98537500D01*
X183397742Y-99582500D02*
X183872258Y-99582500D01*
D12*
%TO.C,IC4*%
X212810000Y-66980000D02*
X213810000Y-66980000D01*
X213810000Y-69180000D02*
X212810000Y-69180000D01*
D10*
X213185000Y-68730000D02*
G75*
G02*
X213035000Y-68730000I-75000J0D01*
G01*
X213035000Y-68730000D02*
G75*
G02*
X213185000Y-68730000I75000J0D01*
G01*
D11*
%TO.C,C25*%
X174955581Y-49865000D02*
X174674419Y-49865000D01*
X174955581Y-50885000D02*
X174674419Y-50885000D01*
%TO.C,R18*%
X207592258Y-68487500D02*
X207117742Y-68487500D01*
X207592258Y-69532500D02*
X207117742Y-69532500D01*
%TO.C,C33*%
X212395581Y-63955000D02*
X212114419Y-63955000D01*
X212395581Y-64975000D02*
X212114419Y-64975000D01*
%TO.C,C26*%
X170020000Y-49784419D02*
X170020000Y-50065581D01*
X171040000Y-49784419D02*
X171040000Y-50065581D01*
%TO.C,D11*%
X173322500Y-53324320D02*
X173322500Y-55024320D01*
X175982500Y-53324320D02*
X173322500Y-53324320D01*
X175982500Y-55024320D02*
X173322500Y-55024320D01*
D12*
%TO.C,IC9*%
X168020000Y-51595000D02*
X169020000Y-51595000D01*
X169020000Y-53795000D02*
X168020000Y-53795000D01*
D10*
X168395000Y-53345000D02*
G75*
G02*
X168245000Y-53345000I-75000J0D01*
G01*
X168245000Y-53345000D02*
G75*
G02*
X168395000Y-53345000I75000J0D01*
G01*
D11*
%TO.C,C4*%
X176295581Y-105560000D02*
X176014419Y-105560000D01*
X176295581Y-106580000D02*
X176014419Y-106580000D01*
%TO.C,C31*%
X174955581Y-55585000D02*
X174674419Y-55585000D01*
X174955581Y-56605000D02*
X174674419Y-56605000D01*
%TO.C,C18*%
X206025000Y-71840581D02*
X206025000Y-71559419D01*
X207045000Y-71840581D02*
X207045000Y-71559419D01*
D12*
%TO.C,IC8*%
X167810000Y-46180000D02*
X168810000Y-46180000D01*
X168810000Y-48380000D02*
X167810000Y-48380000D01*
D10*
X168185000Y-47930000D02*
G75*
G02*
X168035000Y-47930000I-75000J0D01*
G01*
X168035000Y-47930000D02*
G75*
G02*
X168185000Y-47930000I75000J0D01*
G01*
D12*
%TO.C,IC10*%
X210010000Y-61375000D02*
X211010000Y-61375000D01*
X211010000Y-63575000D02*
X210010000Y-63575000D01*
D10*
X210385000Y-63125000D02*
G75*
G02*
X210235000Y-63125000I-75000J0D01*
G01*
X210235000Y-63125000D02*
G75*
G02*
X210385000Y-63125000I75000J0D01*
G01*
D11*
%TO.C,D6*%
X203030000Y-68320000D02*
X205690000Y-68320000D01*
X203030000Y-70020000D02*
X205690000Y-70020000D01*
X205690000Y-70020000D02*
X205690000Y-68320000D01*
%TO.C,R13*%
X137583138Y-75730341D02*
X137247605Y-76065874D01*
X138322065Y-76469268D02*
X137986532Y-76804801D01*
%TO.C,D10*%
X171414090Y-48589090D02*
X171414090Y-51249090D01*
X171414090Y-51249090D02*
X173114090Y-51249090D01*
X173114090Y-48589090D02*
X173114090Y-51249090D01*
%TO.C,C22*%
X157095000Y-49014419D02*
X157095000Y-49295581D01*
X158115000Y-49014419D02*
X158115000Y-49295581D01*
%TO.C,C16*%
X180479419Y-99520000D02*
X180760581Y-99520000D01*
X180479419Y-100540000D02*
X180760581Y-100540000D01*
%TO.C,R10*%
X160432742Y-64257500D02*
X160907258Y-64257500D01*
X160432742Y-65302500D02*
X160907258Y-65302500D01*
%TO.C,D24*%
X203150000Y-62025000D02*
X205810000Y-62025000D01*
X203150000Y-63725000D02*
X205810000Y-63725000D01*
X205810000Y-63725000D02*
X205810000Y-62025000D01*
%TO.C,D19*%
X199737500Y-62085000D02*
X202397500Y-62085000D01*
X199737500Y-63785000D02*
X202397500Y-63785000D01*
X202397500Y-63785000D02*
X202397500Y-62085000D01*
%TO.C,C23*%
X157690000Y-60930581D02*
X157690000Y-60649419D01*
X158710000Y-60930581D02*
X158710000Y-60649419D01*
%TO.C,R31*%
X168362500Y-55347742D02*
X168362500Y-55822258D01*
X169407500Y-55347742D02*
X169407500Y-55822258D01*
%TO.C,C14*%
X177335001Y-57830581D02*
X177335001Y-57549419D01*
X178355001Y-57830581D02*
X178355001Y-57549419D01*
%TO.C,R27*%
X168367500Y-49652742D02*
X168367500Y-50127258D01*
X169412500Y-49652742D02*
X169412500Y-50127258D01*
%TO.C,R14*%
X138202258Y-71957500D02*
X137727742Y-71957500D01*
X138202258Y-73002500D02*
X137727742Y-73002500D01*
D13*
%TO.C,U3*%
X173302170Y-102217600D02*
X173302170Y-102432985D01*
X173302170Y-104847015D02*
X173302170Y-105062400D01*
X173302170Y-105062400D02*
X174021557Y-105062400D01*
X174021557Y-102217600D02*
X173302170Y-102217600D01*
X175935583Y-105062400D02*
X176654970Y-105062400D01*
X176654970Y-102217600D02*
X175935583Y-102217600D01*
X176654970Y-102432985D02*
X176654970Y-102217600D01*
X176654970Y-105062400D02*
X176654970Y-104847015D01*
D14*
G36*
X173276770Y-103580501D02*
G01*
X173022770Y-103580501D01*
X173022770Y-103199500D01*
X173276770Y-103199500D01*
X173276770Y-103580501D01*
G37*
D11*
%TO.C,D1*%
X190600000Y-101330000D02*
X190600000Y-106730000D01*
X190600000Y-106730000D02*
X193900000Y-106730000D01*
X193900000Y-101330000D02*
X193900000Y-106730000D01*
%TO.C,R28*%
X166357742Y-54367500D02*
X166832258Y-54367500D01*
X166357742Y-55412500D02*
X166832258Y-55412500D01*
%TO.C,R36*%
X204167742Y-64132500D02*
X204642258Y-64132500D01*
X204167742Y-65177500D02*
X204642258Y-65177500D01*
%TO.C,R20*%
X183542258Y-57177500D02*
X183067742Y-57177500D01*
X183542258Y-58222500D02*
X183067742Y-58222500D01*
%TO.C,D18*%
X171385910Y-54228410D02*
X171385910Y-56888410D01*
X171385910Y-56888410D02*
X173085910Y-56888410D01*
X173085910Y-54228410D02*
X173085910Y-56888410D01*
%TO.C,R37*%
X204622258Y-58787500D02*
X204147742Y-58787500D01*
X204622258Y-59832500D02*
X204147742Y-59832500D01*
%TO.C,C19*%
X195550582Y-59680000D02*
X195269420Y-59680000D01*
X195550582Y-60700000D02*
X195269420Y-60700000D01*
%TO.C,C13*%
X152954419Y-87810000D02*
X153235581Y-87810000D01*
X152954419Y-88830000D02*
X153235581Y-88830000D01*
%TO.C,R26*%
X159277500Y-60997258D02*
X159277500Y-60522742D01*
X160322500Y-60997258D02*
X160322500Y-60522742D01*
%TO.C,C17*%
X203945581Y-70410000D02*
X203664419Y-70410000D01*
X203945581Y-71430000D02*
X203664419Y-71430000D01*
%TO.C,C21*%
X158475581Y-46170000D02*
X158194419Y-46170000D01*
X158475581Y-47190000D02*
X158194419Y-47190000D01*
%TO.C,R38*%
X207697258Y-62357500D02*
X207222742Y-62357500D01*
X207697258Y-63402500D02*
X207222742Y-63402500D01*
%TO.C,R19*%
X187007743Y-58307500D02*
X187482259Y-58307500D01*
X187007743Y-59352500D02*
X187482259Y-59352500D01*
D15*
%TO.C,Q1*%
X138996109Y-76843580D02*
X138672819Y-77166869D01*
X139435363Y-77282835D02*
X138996109Y-76843580D01*
X140899923Y-78747394D02*
X140460668Y-78308140D01*
X140899923Y-78747394D02*
X140576634Y-79070684D01*
D11*
%TO.C,R22*%
X166817500Y-49642742D02*
X166817500Y-50117258D01*
X167862500Y-49642742D02*
X167862500Y-50117258D01*
%TO.C,C32*%
X169945000Y-55424419D02*
X169945000Y-55705581D01*
X170965000Y-55424419D02*
X170965000Y-55705581D01*
D16*
%TO.C,B1*%
X148189000Y-73410000D02*
X149255800Y-73410000D01*
X148697000Y-72902000D02*
X148697000Y-73918000D01*
X149260000Y-73410000D02*
G75*
G02*
X140260000Y-73410000I-4500000J0D01*
G01*
X140260000Y-73410000D02*
G75*
G02*
X149260000Y-73410000I4500000J0D01*
G01*
D11*
%TO.C,C6*%
X195815372Y-100540273D02*
X196096534Y-100540273D01*
X195815372Y-101560273D02*
X196096534Y-101560273D01*
%TO.C,C1*%
X173360000Y-106980581D02*
X173360000Y-106699419D01*
X174380000Y-106980581D02*
X174380000Y-106699419D01*
%TO.C,C15*%
X185502573Y-96801992D02*
X185221411Y-96801992D01*
X185502573Y-97821992D02*
X185221411Y-97821992D01*
%TO.C,R21*%
X189057501Y-59342742D02*
X189057501Y-59817258D01*
X190102501Y-59342742D02*
X190102501Y-59817258D01*
%TO.C,R23*%
X164382742Y-47657500D02*
X164857258Y-47657500D01*
X164382742Y-48702500D02*
X164857258Y-48702500D01*
%TO.C,D7*%
X193970002Y-57480000D02*
X193970002Y-59180000D01*
X196630002Y-57480000D02*
X193970002Y-57480000D01*
X196630002Y-59180000D02*
X193970002Y-59180000D01*
%TO.C,C11*%
X152719420Y-93550000D02*
X153000580Y-93550000D01*
X152719420Y-94570000D02*
X153000580Y-94570000D01*
%TO.C,D9*%
X173332500Y-47695000D02*
X173332500Y-49395000D01*
X175992500Y-47695000D02*
X173332500Y-47695000D01*
X175992500Y-49395000D02*
X173332500Y-49395000D01*
%TO.C,C34*%
X207595581Y-64135000D02*
X207314419Y-64135000D01*
X207595581Y-65155000D02*
X207314419Y-65155000D01*
%TO.C,D8*%
X192035911Y-58383410D02*
X192035911Y-61043410D01*
X192035911Y-61043410D02*
X193735911Y-61043410D01*
X193735911Y-58383410D02*
X193735911Y-61043410D01*
%TO.C,D5*%
X199680000Y-68310000D02*
X202340000Y-68310000D01*
X199680000Y-70010000D02*
X202340000Y-70010000D01*
X202340000Y-70010000D02*
X202340000Y-68310000D01*
%TO.C,C20*%
X190595001Y-59459419D02*
X190595001Y-59740581D01*
X191615001Y-59459419D02*
X191615001Y-59740581D01*
%TO.C,R11*%
X209177258Y-70457500D02*
X208702742Y-70457500D01*
X209177258Y-71502500D02*
X208702742Y-71502500D01*
%TO.C,R24*%
X161317742Y-47657500D02*
X161792258Y-47657500D01*
X161317742Y-48702500D02*
X161792258Y-48702500D01*
%TO.C,R17*%
X210757500Y-66952258D02*
X210757500Y-66477742D01*
X211802500Y-66952258D02*
X211802500Y-66477742D01*
%TO.C,R12*%
X178982501Y-57957258D02*
X178982501Y-57482742D01*
X180027501Y-57957258D02*
X180027501Y-57482742D01*
D12*
%TO.C,IC7*%
X188610001Y-55540000D02*
X189610001Y-55540000D01*
X189610001Y-57740000D02*
X188610001Y-57740000D01*
D10*
X188985001Y-57290000D02*
G75*
G02*
X188835001Y-57290000I-75000J0D01*
G01*
X188835001Y-57290000D02*
G75*
G02*
X188985001Y-57290000I75000J0D01*
G01*
D11*
%TO.C,R25*%
X158637500Y-48942742D02*
X158637500Y-49417258D01*
X159682500Y-48942742D02*
X159682500Y-49417258D01*
%TO.C,C12*%
X157780000Y-64150581D02*
X157780000Y-63869419D01*
X158800000Y-64150581D02*
X158800000Y-63869419D01*
%TO.C,R30*%
X162692258Y-53257500D02*
X162217742Y-53257500D01*
X162692258Y-54302500D02*
X162217742Y-54302500D01*
%TO.C,U4*%
X178040000Y-107110000D02*
X178040000Y-101100000D01*
X179299999Y-107110000D02*
X178040000Y-107110000D01*
X183600001Y-107110000D02*
X184860000Y-107110000D01*
X184860000Y-107110000D02*
X184860001Y-103350000D01*
%TD*%
M02*
