%TF.GenerationSoftware,KiCad,Pcbnew,8.0.0*%
%TF.CreationDate,2026-04-18T16:36:17+08:00*%
%TF.ProjectId,STC_mainboard,5354435f-6d61-4696-9e62-6f6172642e6b,rev?*%
%TF.SameCoordinates,Original*%
%TF.FileFunction,Soldermask,Bot*%
%TF.FilePolarity,Negative*%
%FSLAX46Y46*%
G04 Gerber Fmt 4.6, Leading zero omitted, Abs format (unit mm)*
G04 Created by KiCad (PCBNEW 8.0.0) date 2026-04-18 16:36:17*
%MOMM*%
%LPD*%
G01*
G04 APERTURE LIST*
G04 Aperture macros list*
%AMRoundRect*
0 Rectangle with rounded corners*
0 $1 Rounding radius*
0 $2 $3 $4 $5 $6 $7 $8 $9 X,Y pos of 4 corners*
0 Add a 4 corners polygon primitive as box body*
4,1,4,$2,$3,$4,$5,$6,$7,$8,$9,$2,$3,0*
0 Add four circle primitives for the rounded corners*
1,1,$1+$1,$2,$3*
1,1,$1+$1,$4,$5*
1,1,$1+$1,$6,$7*
1,1,$1+$1,$8,$9*
0 Add four rect primitives between the rounded corners*
20,1,$1+$1,$2,$3,$4,$5,0*
20,1,$1+$1,$4,$5,$6,$7,0*
20,1,$1+$1,$6,$7,$8,$9,0*
20,1,$1+$1,$8,$9,$2,$3,0*%
%AMRotRect*
0 Rectangle, with rotation*
0 The origin of the aperture is its center*
0 $1 length*
0 $2 width*
0 $3 Rotation angle, in degrees counterclockwise*
0 Add horizontal line*
21,1,$1,$2,0,0,$3*%
G04 Aperture macros list end*
%ADD10RoundRect,0.200000X0.200000X0.275000X-0.200000X0.275000X-0.200000X-0.275000X0.200000X-0.275000X0*%
%ADD11RoundRect,0.250000X0.600000X0.750000X-0.600000X0.750000X-0.600000X-0.750000X0.600000X-0.750000X0*%
%ADD12O,1.700000X2.000000*%
%ADD13C,8.300000*%
%ADD14R,1.700000X1.700000*%
%ADD15O,1.700000X1.700000*%
%ADD16RoundRect,0.317500X0.317500X0.952500X-0.317500X0.952500X-0.317500X-0.952500X0.317500X-0.952500X0*%
%ADD17C,1.440000*%
%ADD18C,2.200000*%
%ADD19RoundRect,0.250000X-0.600000X-0.725000X0.600000X-0.725000X0.600000X0.725000X-0.600000X0.725000X0*%
%ADD20O,1.700000X1.950000*%
%ADD21R,2.000000X1.905000*%
%ADD22O,2.000000X1.905000*%
%ADD23RoundRect,0.250000X0.600000X0.725000X-0.600000X0.725000X-0.600000X-0.725000X0.600000X-0.725000X0*%
%ADD24RoundRect,0.250000X0.725000X-0.600000X0.725000X0.600000X-0.725000X0.600000X-0.725000X-0.600000X0*%
%ADD25O,1.950000X1.700000*%
%ADD26C,1.500000*%
%ADD27RoundRect,0.102000X0.400000X-0.175000X0.400000X0.175000X-0.400000X0.175000X-0.400000X-0.175000X0*%
%ADD28RoundRect,0.225000X-0.225000X-0.250000X0.225000X-0.250000X0.225000X0.250000X-0.225000X0.250000X0*%
%ADD29RoundRect,0.200000X-0.200000X-0.275000X0.200000X-0.275000X0.200000X0.275000X-0.200000X0.275000X0*%
%ADD30RoundRect,0.225000X0.250000X-0.225000X0.250000X0.225000X-0.250000X0.225000X-0.250000X-0.225000X0*%
%ADD31RoundRect,0.125000X-0.125000X-0.125000X0.125000X-0.125000X0.125000X0.125000X-0.125000X0.125000X0*%
%ADD32RoundRect,0.225000X-0.250000X0.225000X-0.250000X-0.225000X0.250000X-0.225000X0.250000X0.225000X0*%
%ADD33RoundRect,0.125000X0.125000X0.125000X-0.125000X0.125000X-0.125000X-0.125000X0.125000X-0.125000X0*%
%ADD34RoundRect,0.200000X0.053033X-0.335876X0.335876X-0.053033X-0.053033X0.335876X-0.335876X0.053033X0*%
%ADD35RoundRect,0.125000X0.125000X-0.125000X0.125000X0.125000X-0.125000X0.125000X-0.125000X-0.125000X0*%
%ADD36RoundRect,0.225000X0.225000X0.250000X-0.225000X0.250000X-0.225000X-0.250000X0.225000X-0.250000X0*%
%ADD37RoundRect,0.200000X0.275000X-0.200000X0.275000X0.200000X-0.275000X0.200000X-0.275000X-0.200000X0*%
%ADD38R,0.576580X0.351536*%
%ADD39R,0.351536X0.576580*%
%ADD40R,1.800000X2.500000*%
%ADD41RoundRect,0.200000X-0.275000X0.200000X-0.275000X-0.200000X0.275000X-0.200000X0.275000X0.200000X0*%
%ADD42RotRect,0.650000X1.050000X315.000000*%
%ADD43R,1.500000X2.000000*%
%ADD44R,3.800000X2.000000*%
G04 APERTURE END LIST*
D10*
%TO.C,R7*%
X184460000Y-99060000D03*
X182810000Y-99060000D03*
%TD*%
D11*
%TO.C,J4*%
X214280000Y-102135000D03*
D12*
X211780000Y-102135000D03*
%TD*%
D13*
%TO.C,H5*%
X174940468Y-37152043D03*
%TD*%
D14*
%TO.C,J1*%
X171600001Y-106580000D03*
D15*
X169060001Y-106580000D03*
X166520002Y-106580000D03*
X163980001Y-106580000D03*
X161440001Y-106580000D03*
X158900001Y-106580000D03*
X156360001Y-106580000D03*
X153820000Y-106580000D03*
%TD*%
D16*
%TO.C,J11*%
X140060000Y-47670000D03*
%TD*%
D14*
%TO.C,J5*%
X143630000Y-87210000D03*
D15*
X146170000Y-87210000D03*
X143630000Y-89750000D03*
X146170000Y-89750000D03*
X143630000Y-92289999D03*
X146170000Y-92290000D03*
X143630000Y-94830000D03*
X146170000Y-94830000D03*
%TD*%
D17*
%TO.C,RV4*%
X160770000Y-52105000D03*
X163310000Y-52105000D03*
X165849999Y-52105000D03*
%TD*%
D18*
%TO.C,H4*%
X225140500Y-98302000D03*
%TD*%
D16*
%TO.C,J15*%
X197210000Y-77510000D03*
%TD*%
D18*
%TO.C,H2*%
X124740470Y-98302043D03*
%TD*%
D16*
%TO.C,J7*%
X137550000Y-47660000D03*
%TD*%
D17*
%TO.C,RV1*%
X202800000Y-67370000D03*
X205340000Y-67370000D03*
X207879999Y-67370000D03*
%TD*%
%TO.C,RV3*%
X160790001Y-46560000D03*
X163330001Y-46560000D03*
X165870000Y-46560000D03*
%TD*%
%TO.C,RV2*%
X181580001Y-55990000D03*
X184120001Y-55990000D03*
X186660000Y-55990000D03*
%TD*%
D19*
%TO.C,J12*%
X179530000Y-46225000D03*
D20*
X182030000Y-46225000D03*
X184530000Y-46225000D03*
X187030000Y-46225000D03*
%TD*%
D21*
%TO.C,U11*%
X194240000Y-88120000D03*
D22*
X194240000Y-85580000D03*
X194240000Y-83040001D03*
%TD*%
D23*
%TO.C,J14*%
X209550000Y-77890000D03*
D20*
X207050000Y-77890000D03*
X204550000Y-77890000D03*
X202050000Y-77890000D03*
%TD*%
D16*
%TO.C,J16*%
X194660000Y-77590000D03*
%TD*%
D18*
%TO.C,H1*%
X124740470Y-58302043D03*
%TD*%
D24*
%TO.C,J10*%
X133800000Y-95790000D03*
D25*
X133800000Y-93290000D03*
X133800000Y-90790000D03*
X133800000Y-88290000D03*
%TD*%
D17*
%TO.C,RV5*%
X202710000Y-60985000D03*
X205250000Y-60985000D03*
X207789999Y-60985000D03*
%TD*%
D26*
%TO.C,U1*%
X132560000Y-44910000D03*
X135100000Y-44910000D03*
X132560000Y-47450001D03*
X135100000Y-47450000D03*
X132560000Y-49990000D03*
X135100000Y-49990000D03*
X132560000Y-52530000D03*
X135100000Y-52530000D03*
X132560000Y-55070000D03*
X135100000Y-55070000D03*
X132560000Y-57609999D03*
X135100000Y-57610000D03*
X132560000Y-60150000D03*
X135100000Y-60150000D03*
X132560000Y-62690000D03*
X135100000Y-62690000D03*
X132560000Y-65230000D03*
X135100000Y-65230000D03*
X132560000Y-67770000D03*
X135100000Y-67770000D03*
X132560000Y-70310001D03*
X135100000Y-70310000D03*
X132560000Y-72850000D03*
X135100000Y-72850000D03*
X132560000Y-75390000D03*
X135100000Y-75390000D03*
X132560000Y-77930000D03*
X135100000Y-77930000D03*
X132560000Y-80469999D03*
X135100000Y-80470000D03*
X132560000Y-83010000D03*
X135100000Y-83010000D03*
X152880000Y-83010000D03*
X155420000Y-83010000D03*
X152880000Y-80470000D03*
X155420000Y-80469999D03*
X152880000Y-77930000D03*
X155420000Y-77930000D03*
X152880000Y-75390000D03*
X155420000Y-75390000D03*
X152880000Y-72850000D03*
X155420000Y-72850000D03*
X152880000Y-70310000D03*
X155420000Y-70310001D03*
X152880000Y-67770000D03*
X155420000Y-67770000D03*
X152880000Y-65230000D03*
X155420000Y-65230000D03*
X152880000Y-62690000D03*
X155420000Y-62690000D03*
X152880000Y-60150000D03*
X155420000Y-60150000D03*
X152880000Y-57610000D03*
X155420000Y-57609999D03*
X152880000Y-55070000D03*
X155420000Y-55070000D03*
X152880000Y-52530000D03*
X155420000Y-52530000D03*
X152880000Y-49990000D03*
X155420000Y-49990000D03*
X152880000Y-47450000D03*
X155420000Y-47450001D03*
%TD*%
D18*
%TO.C,H3*%
X225140470Y-58302043D03*
%TD*%
D27*
%TO.C,IC4*%
X212460000Y-68730000D03*
X212460000Y-68080000D03*
X212460000Y-67430000D03*
X214160000Y-67430000D03*
X214160000Y-68730000D03*
%TD*%
D28*
%TO.C,C25*%
X174040000Y-50375000D03*
X175590000Y-50375000D03*
%TD*%
D29*
%TO.C,R18*%
X206530000Y-69010000D03*
X208180000Y-69010000D03*
%TD*%
D28*
%TO.C,C33*%
X211480000Y-64465000D03*
X213030000Y-64465000D03*
%TD*%
D30*
%TO.C,C26*%
X170530000Y-50700000D03*
X170530000Y-49150000D03*
%TD*%
D31*
%TO.C,D11*%
X173832501Y-54174320D03*
X176032499Y-54174320D03*
%TD*%
D27*
%TO.C,IC9*%
X167670000Y-53345000D03*
X167670000Y-52695000D03*
X167670000Y-52045000D03*
X169370000Y-52045000D03*
X169370000Y-53345000D03*
%TD*%
D28*
%TO.C,C4*%
X175380000Y-106070000D03*
X176930000Y-106070000D03*
%TD*%
%TO.C,C31*%
X174040000Y-56095000D03*
X175590000Y-56095000D03*
%TD*%
D32*
%TO.C,C18*%
X206535000Y-70925000D03*
X206535000Y-72475000D03*
%TD*%
D27*
%TO.C,IC8*%
X167460000Y-47930000D03*
X167460000Y-47280000D03*
X167460000Y-46630000D03*
X169160000Y-46630000D03*
X169160000Y-47930000D03*
%TD*%
%TO.C,IC10*%
X209660000Y-63125000D03*
X209660000Y-62475000D03*
X209660000Y-61825000D03*
X211360000Y-61825000D03*
X211360000Y-63125000D03*
%TD*%
D33*
%TO.C,D6*%
X205180000Y-69170000D03*
X202980000Y-69170000D03*
%TD*%
D34*
%TO.C,R13*%
X137201472Y-76850934D03*
X138368198Y-75684208D03*
%TD*%
D35*
%TO.C,D10*%
X172264090Y-50739089D03*
X172264090Y-48539091D03*
%TD*%
D30*
%TO.C,C22*%
X157605000Y-49930000D03*
X157605000Y-48380000D03*
%TD*%
D36*
%TO.C,C16*%
X181395000Y-100030000D03*
X179845000Y-100030000D03*
%TD*%
D10*
%TO.C,R10*%
X161495000Y-64780000D03*
X159845000Y-64780000D03*
%TD*%
D33*
%TO.C,D24*%
X205300000Y-62875000D03*
X203100000Y-62875000D03*
%TD*%
%TO.C,D19*%
X201887500Y-62935000D03*
X199687500Y-62935000D03*
%TD*%
D32*
%TO.C,C23*%
X158200000Y-60015000D03*
X158200000Y-61565000D03*
%TD*%
D37*
%TO.C,R31*%
X168885000Y-56410000D03*
X168885000Y-54760000D03*
%TD*%
D32*
%TO.C,C14*%
X177845001Y-56915000D03*
X177845001Y-58465000D03*
%TD*%
D37*
%TO.C,R27*%
X168890000Y-50715000D03*
X168890000Y-49065000D03*
%TD*%
D29*
%TO.C,R14*%
X137140000Y-72480000D03*
X138790000Y-72480000D03*
%TD*%
D38*
%TO.C,U3*%
X176188870Y-102889999D03*
X176188870Y-103390000D03*
X176188870Y-103890000D03*
X176188870Y-104390001D03*
D39*
X175478569Y-104596300D03*
X174978570Y-104596300D03*
X174478571Y-104596300D03*
D38*
X173768270Y-104390001D03*
X173768270Y-103890000D03*
X173768270Y-103390000D03*
X173768270Y-102889999D03*
D39*
X174478571Y-102683700D03*
X174978570Y-102683700D03*
X175478569Y-102683700D03*
%TD*%
D40*
%TO.C,D1*%
X192250000Y-105330001D03*
X192250000Y-101329999D03*
%TD*%
D10*
%TO.C,R28*%
X167420000Y-54890000D03*
X165770000Y-54890000D03*
%TD*%
%TO.C,R36*%
X205230000Y-64655000D03*
X203580000Y-64655000D03*
%TD*%
D29*
%TO.C,R20*%
X182480000Y-57700000D03*
X184130000Y-57700000D03*
%TD*%
D35*
%TO.C,D18*%
X172235910Y-56378409D03*
X172235910Y-54178411D03*
%TD*%
D29*
%TO.C,R37*%
X203560000Y-59310000D03*
X205210000Y-59310000D03*
%TD*%
D28*
%TO.C,C19*%
X194635001Y-60190000D03*
X196185001Y-60190000D03*
%TD*%
D36*
%TO.C,C13*%
X153870000Y-88320000D03*
X152320000Y-88320000D03*
%TD*%
D41*
%TO.C,R26*%
X159800000Y-59935000D03*
X159800000Y-61585000D03*
%TD*%
D28*
%TO.C,C17*%
X203030000Y-70920000D03*
X204580000Y-70920000D03*
%TD*%
%TO.C,C21*%
X157560000Y-46680000D03*
X159110000Y-46680000D03*
%TD*%
D29*
%TO.C,R38*%
X206635000Y-62880000D03*
X208285000Y-62880000D03*
%TD*%
D10*
%TO.C,R19*%
X188070001Y-58830000D03*
X186420001Y-58830000D03*
%TD*%
D42*
%TO.C,Q1*%
X139393503Y-79693503D03*
X138050000Y-78350000D03*
X140348097Y-77395406D03*
%TD*%
D37*
%TO.C,R22*%
X167340000Y-50705000D03*
X167340000Y-49055000D03*
%TD*%
D30*
%TO.C,C32*%
X170455000Y-56340000D03*
X170455000Y-54790000D03*
%TD*%
D26*
%TO.C,B1*%
X147260000Y-73410000D03*
X142260000Y-73410000D03*
%TD*%
D36*
%TO.C,C6*%
X196730953Y-101050273D03*
X195180953Y-101050273D03*
%TD*%
D32*
%TO.C,C1*%
X173870000Y-106065000D03*
X173870000Y-107615000D03*
%TD*%
D28*
%TO.C,C15*%
X184586992Y-97311992D03*
X186136992Y-97311992D03*
%TD*%
D37*
%TO.C,R21*%
X189580001Y-60405000D03*
X189580001Y-58755000D03*
%TD*%
D10*
%TO.C,R23*%
X165445000Y-48180000D03*
X163795000Y-48180000D03*
%TD*%
D31*
%TO.C,D7*%
X194480003Y-58330000D03*
X196680001Y-58330000D03*
%TD*%
D36*
%TO.C,C11*%
X153635000Y-94060000D03*
X152085000Y-94060000D03*
%TD*%
D31*
%TO.C,D9*%
X173842501Y-48545000D03*
X176042499Y-48545000D03*
%TD*%
D28*
%TO.C,C34*%
X206680000Y-64645000D03*
X208230000Y-64645000D03*
%TD*%
D35*
%TO.C,D8*%
X192885911Y-60533409D03*
X192885911Y-58333411D03*
%TD*%
D33*
%TO.C,D5*%
X201830000Y-69160000D03*
X199630000Y-69160000D03*
%TD*%
D30*
%TO.C,C20*%
X191105001Y-60375000D03*
X191105001Y-58825000D03*
%TD*%
D29*
%TO.C,R11*%
X208115000Y-70980000D03*
X209765000Y-70980000D03*
%TD*%
D10*
%TO.C,R24*%
X162380000Y-48180000D03*
X160730000Y-48180000D03*
%TD*%
D41*
%TO.C,R17*%
X211280000Y-65890000D03*
X211280000Y-67540000D03*
%TD*%
%TO.C,R12*%
X179505001Y-56895000D03*
X179505001Y-58545000D03*
%TD*%
D27*
%TO.C,IC7*%
X188260001Y-57290000D03*
X188260001Y-56640000D03*
X188260001Y-55990000D03*
X189960001Y-55990000D03*
X189960001Y-57290000D03*
%TD*%
D37*
%TO.C,R25*%
X159160000Y-50005000D03*
X159160000Y-48355000D03*
%TD*%
D32*
%TO.C,C12*%
X158290000Y-63235000D03*
X158290000Y-64785000D03*
%TD*%
D29*
%TO.C,R30*%
X161630000Y-53780000D03*
X163280000Y-53780000D03*
%TD*%
D43*
%TO.C,U4*%
X179150000Y-102050000D03*
X181450000Y-102050001D03*
X183750000Y-102050000D03*
D44*
X181450000Y-108349999D03*
%TD*%
G36*
X166068894Y-26021728D02*
G01*
X166114649Y-26074532D01*
X166125834Y-26128305D01*
X166060769Y-29693783D01*
X166039865Y-29760453D01*
X165986235Y-29805236D01*
X165934184Y-29815494D01*
X163890448Y-29772532D01*
X163823837Y-29751442D01*
X163779202Y-29697689D01*
X163769058Y-29649528D01*
X163741539Y-26127012D01*
X163760699Y-26059821D01*
X163813144Y-26013654D01*
X163865535Y-26002043D01*
X166001855Y-26002043D01*
X166068894Y-26021728D01*
G37*
G36*
X186070719Y-26021728D02*
G01*
X186116474Y-26074532D01*
X186127659Y-26128305D01*
X186060769Y-29793783D01*
X186039865Y-29860453D01*
X185986235Y-29905236D01*
X185934184Y-29915494D01*
X183890448Y-29872532D01*
X183823837Y-29851442D01*
X183779202Y-29797689D01*
X183769058Y-29749528D01*
X183740964Y-26153409D01*
X183760124Y-26086218D01*
X183812569Y-26040051D01*
X183863404Y-26028450D01*
X185966444Y-26002053D01*
X185968000Y-26002043D01*
X186003680Y-26002043D01*
X186070719Y-26021728D01*
G37*
M02*
