M48
; DRILL file {KiCad 8.0.0} date 2026-04-18T16:36:20+0800
; FORMAT={-:-/ absolute / inch / decimal}
; #@! TF.CreationDate,2026-04-18T16:36:20+08:00
; #@! TF.GenerationSoftware,Kicad,Pcbnew,8.0.0
; #@! TF.FileFunction,Plated,1,2,PTH
FMAT,2
INCH
; #@! TA.AperFunction,Plated,PTH,ComponentDrill
T1C0.0118
; #@! TA.AperFunction,Plated,PTH,ViaDrill
T2C0.0120
; #@! TA.AperFunction,Plated,PTH,ComponentDrill
T3C0.0315
; #@! TA.AperFunction,Plated,PTH,ComponentDrill
T4C0.0354
; #@! TA.AperFunction,Plated,PTH,ComponentDrill
T5C0.0374
; #@! TA.AperFunction,Plated,PTH,ComponentDrill
T6C0.0394
; #@! TA.AperFunction,Plated,PTH,ComponentDrill
T7C0.0433
%
G90
G05
T1
X7.9403Y-3.9332
X7.9403Y-3.9765
X7.9403Y-4.0277
X7.9403Y-4.0749
X7.9876Y-3.9332
X7.9876Y-3.9765
X7.9876Y-4.0277
X7.9876Y-4.0749
T2
X5.1791Y-1.8209
X5.2362Y-3.8331
X5.2488Y-2.6236
X5.2669Y-1.8173
X5.298Y-2.7161
X5.3673Y-1.813
X5.3724Y-2.885
X5.4Y-2.6303
X5.4319Y-2.887
X5.5012Y-3.55
X5.5122Y-4.2362
X5.5244Y-3.4181
X5.5516Y-3.5508
X5.5669Y-3.4244
X5.6894Y-3.1398
X5.726Y-3.2339
X5.7386Y-2.6917
X5.7555Y-1.7992
X5.8634Y-3.3681
X5.8969Y-3.624
X5.9035Y-3.5382
X5.9122Y-1.9571
X5.9209Y-2.5681
X5.9488Y-3.7059
X5.9516Y-3.4736
X5.9555Y-2.8324
X6.0701Y-2.7736
X6.0701Y-2.8709
X6.0705Y-2.5827
X6.1327Y-3.539
X6.1799Y-2.3862
X6.1858Y-2.8567
X6.1992Y-3.5768
X6.2382Y-2.9417
X6.2667Y-3.0972
X6.2702Y-3.607
X6.2736Y-2.198
X6.2787Y-1.7937
X6.3012Y-3.7571
X6.326Y-3.8583
X6.3319Y-2.2035
X6.376Y-3.8445
X6.3768Y-4.0614
X6.3795Y-1.8323
X6.4252Y-3.7795
X6.4717Y-4.0512
X6.4815Y-3.9008
X6.5522Y-3.9254
X6.5945Y-2.3024
X6.6173Y-3.9953
X6.8295Y-2.798
X6.8469Y-4.2366
X6.8945Y-2.1409
X6.9099Y-4.0067
X6.9634Y-2.1244
X6.9657Y-4.176
X6.9744Y-4.0689
X6.9752Y-3.9921
X7.2622Y-3.9
X7.265Y-1.9094
X7.3075Y-3.9
X7.3425Y-3.9
X7.4846Y-3.7992
X7.4898Y-2.0413
X7.539Y-3.7882
X7.5476Y-2.1154
X7.5524Y-3.7421
X7.5748Y-4.1472
X7.7918Y-3.978
X7.9362Y-2.3429
X8.2567Y-2.6846
X8.3701Y-2.5913
T3
X6.3295Y-2.0514
X6.3303Y-1.8331
X6.4295Y-2.0514
X6.4303Y-1.8331
X6.5295Y-2.0514
X6.5303Y-1.8331
X7.1488Y-2.2043
X7.2488Y-2.2043
X7.3488Y-2.2043
X7.9807Y-2.401
X7.9843Y-2.6524
X8.0807Y-2.401
X8.0843Y-2.6524
X8.1807Y-2.401
X8.1843Y-2.6524
T4
X5.2189Y-1.7681
X5.2189Y-1.8681
X5.2189Y-1.9681
X5.2189Y-2.0681
X5.2189Y-2.1681
X5.2189Y-2.2681
X5.2189Y-2.3681
X5.2189Y-2.4681
X5.2189Y-2.5681
X5.2189Y-2.6681
X5.2189Y-2.7681
X5.2189Y-2.8681
X5.2189Y-2.9681
X5.2189Y-3.0681
X5.2189Y-3.1681
X5.2189Y-3.2681
X5.3189Y-1.7681
X5.3189Y-1.8681
X5.3189Y-1.9681
X5.3189Y-2.0681
X5.3189Y-2.1681
X5.3189Y-2.2681
X5.3189Y-2.3681
X5.3189Y-2.4681
X5.3189Y-2.5681
X5.3189Y-2.6681
X5.3189Y-2.7681
X5.3189Y-2.8681
X5.3189Y-2.9681
X5.3189Y-3.0681
X5.3189Y-3.1681
X5.3189Y-3.2681
X5.6008Y-2.8902
X5.7976Y-2.8902
X6.0189Y-1.8681
X6.0189Y-1.9681
X6.0189Y-2.0681
X6.0189Y-2.1681
X6.0189Y-2.2681
X6.0189Y-2.3681
X6.0189Y-2.4681
X6.0189Y-2.5681
X6.0189Y-2.6681
X6.0189Y-2.7681
X6.0189Y-2.8681
X6.0189Y-2.9681
X6.0189Y-3.0681
X6.0189Y-3.1681
X6.0189Y-3.2681
X6.1189Y-1.8681
X6.1189Y-1.9681
X6.1189Y-2.0681
X6.1189Y-2.1681
X6.1189Y-2.2681
X6.1189Y-2.3681
X6.1189Y-2.4681
X6.1189Y-2.5681
X6.1189Y-2.6681
X6.1189Y-2.7681
X6.1189Y-2.8681
X6.1189Y-2.9681
X6.1189Y-3.0681
X6.1189Y-3.1681
X6.1189Y-3.2681
T5
X5.2677Y-3.476
X5.2677Y-3.5744
X5.2677Y-3.6728
X5.2677Y-3.7713
X7.0681Y-1.8199
X7.1665Y-1.8199
X7.265Y-1.8199
X7.3634Y-1.8199
X7.9547Y-3.0665
X8.0531Y-3.0665
X8.1516Y-3.0665
X8.25Y-3.0665
T6
X5.4154Y-1.8764
X5.5142Y-1.8768
X5.6547Y-3.4335
X5.6547Y-3.5335
X5.6547Y-3.6335
X5.6547Y-3.7335
X5.7547Y-3.4335
X5.7547Y-3.5335
X5.7547Y-3.6335
X5.7547Y-3.7335
X6.0559Y-4.1961
X6.1559Y-4.1961
X6.2559Y-4.1961
X6.3559Y-4.1961
X6.4559Y-4.1961
X6.5559Y-4.1961
X6.6559Y-4.1961
X6.7559Y-4.1961
X7.6638Y-3.0547
X7.7642Y-3.0516
X8.3378Y-4.0211
X8.4362Y-4.0211
T7
X7.6472Y-3.2693
X7.6472Y-3.3693
X7.6472Y-3.4693
M30
