%TF.GenerationSoftware,KiCad,Pcbnew,8.0.0*%
%TF.CreationDate,2026-04-18T16:36:17+08:00*%
%TF.ProjectId,STC_mainboard,5354435f-6d61-4696-9e62-6f6172642e6b,rev?*%
%TF.SameCoordinates,Original*%
%TF.FileFunction,Paste,Top*%
%TF.FilePolarity,Positive*%
%FSLAX46Y46*%
G04 Gerber Fmt 4.6, Leading zero omitted, Abs format (unit mm)*
G04 Created by KiCad (PCBNEW 8.0.0) date 2026-04-18 16:36:17*
%MOMM*%
%LPD*%
G01*
G04 APERTURE LIST*
G04 Aperture macros list*
%AMRoundRect*
0 Rectangle with rounded corners*
0 $1 Rounding radius*
0 $2 $3 $4 $5 $6 $7 $8 $9 X,Y pos of 4 corners*
0 Add a 4 corners polygon primitive as box body*
4,1,4,$2,$3,$4,$5,$6,$7,$8,$9,$2,$3,0*
0 Add four circle primitives for the rounded corners*
1,1,$1+$1,$2,$3*
1,1,$1+$1,$4,$5*
1,1,$1+$1,$6,$7*
1,1,$1+$1,$8,$9*
0 Add four rect primitives between the rounded corners*
20,1,$1+$1,$2,$3,$4,$5,0*
20,1,$1+$1,$4,$5,$6,$7,0*
20,1,$1+$1,$6,$7,$8,$9,0*
20,1,$1+$1,$8,$9,$2,$3,0*%
G04 Aperture macros list end*
%ADD10RoundRect,0.317500X0.317500X0.952500X-0.317500X0.952500X-0.317500X-0.952500X0.317500X-0.952500X0*%
%ADD11RoundRect,0.225000X0.250000X-0.225000X0.250000X0.225000X-0.250000X0.225000X-0.250000X-0.225000X0*%
%ADD12RoundRect,0.250000X-0.550000X1.050000X-0.550000X-1.050000X0.550000X-1.050000X0.550000X1.050000X0*%
%ADD13RoundRect,0.200000X0.275000X-0.200000X0.275000X0.200000X-0.275000X0.200000X-0.275000X-0.200000X0*%
%ADD14RoundRect,0.237500X0.237500X-0.287500X0.237500X0.287500X-0.237500X0.287500X-0.237500X-0.287500X0*%
%ADD15RoundRect,0.125000X-0.125000X0.125000X-0.125000X-0.125000X0.125000X-0.125000X0.125000X0.125000X0*%
%ADD16RoundRect,0.230000X0.375000X-0.230000X0.375000X0.230000X-0.375000X0.230000X-0.375000X-0.230000X0*%
%ADD17RoundRect,0.150000X0.150000X-0.825000X0.150000X0.825000X-0.150000X0.825000X-0.150000X-0.825000X0*%
%ADD18R,1.000000X2.800000*%
%ADD19R,0.600000X1.700000*%
%ADD20RoundRect,0.200000X0.200000X0.275000X-0.200000X0.275000X-0.200000X-0.275000X0.200000X-0.275000X0*%
%ADD21RoundRect,0.200000X-0.275000X0.200000X-0.275000X-0.200000X0.275000X-0.200000X0.275000X0.200000X0*%
%ADD22R,2.160000X1.120000*%
%ADD23R,1.550000X0.600000*%
%ADD24R,2.600000X3.100000*%
%ADD25RoundRect,0.200000X-0.200000X-0.275000X0.200000X-0.275000X0.200000X0.275000X-0.200000X0.275000X0*%
%ADD26RoundRect,0.225000X-0.250000X0.225000X-0.250000X-0.225000X0.250000X-0.225000X0.250000X0.225000X0*%
%ADD27RoundRect,0.225000X-0.225000X-0.250000X0.225000X-0.250000X0.225000X0.250000X-0.225000X0.250000X0*%
%ADD28RoundRect,0.225000X0.335876X0.017678X0.017678X0.335876X-0.335876X-0.017678X-0.017678X-0.335876X0*%
%ADD29RoundRect,0.225000X0.225000X0.250000X-0.225000X0.250000X-0.225000X-0.250000X0.225000X-0.250000X0*%
%ADD30RoundRect,0.230000X-0.375000X0.230000X-0.375000X-0.230000X0.375000X-0.230000X0.375000X0.230000X0*%
%ADD31RoundRect,0.150000X-0.150000X0.825000X-0.150000X-0.825000X0.150000X-0.825000X0.150000X0.825000X0*%
%ADD32R,2.200000X1.500000*%
%ADD33RoundRect,0.125000X0.125000X0.125000X-0.125000X0.125000X-0.125000X-0.125000X0.125000X-0.125000X0*%
%ADD34RoundRect,0.237500X-0.287500X-0.237500X0.287500X-0.237500X0.287500X0.237500X-0.287500X0.237500X0*%
G04 APERTURE END LIST*
D10*
%TO.C,J21*%
X147230000Y-47700000D03*
%TD*%
D11*
%TO.C,C8*%
X194215000Y-94795000D03*
X194215000Y-93245000D03*
%TD*%
D12*
%TO.C,C9*%
X187790000Y-99090000D03*
X187790000Y-102690000D03*
%TD*%
D13*
%TO.C,R59*%
X143010000Y-54755000D03*
X143010000Y-53105000D03*
%TD*%
D10*
%TO.C,J11*%
X140060000Y-47670000D03*
%TD*%
D14*
%TO.C,D2*%
X168080000Y-103229998D03*
X168080000Y-101480000D03*
%TD*%
D15*
%TO.C,D21*%
X141350000Y-56630000D03*
X141350000Y-58829998D03*
%TD*%
D16*
%TO.C,U8*%
X138700000Y-52860000D03*
X140200000Y-52860000D03*
X138700000Y-51720000D03*
X140200000Y-51720000D03*
D17*
X137545000Y-54765000D03*
X138815000Y-54765000D03*
X140085000Y-54765000D03*
X141355000Y-54765000D03*
X141355000Y-49815000D03*
X140085000Y-49815000D03*
X138815000Y-49815000D03*
X137545000Y-49815000D03*
%TD*%
D18*
%TO.C,P1*%
X141605000Y-100890000D03*
X131655000Y-100890000D03*
D19*
X133505000Y-104040000D03*
X134755000Y-104040000D03*
X136005000Y-104040000D03*
X137255000Y-104040000D03*
X138505000Y-104040000D03*
X139755000Y-104040000D03*
%TD*%
D20*
%TO.C,R2*%
X151080000Y-70240000D03*
X149430000Y-70240000D03*
%TD*%
D21*
%TO.C,R53*%
X191645000Y-70525000D03*
X191645000Y-72175000D03*
%TD*%
D20*
%TO.C,R8*%
X142575000Y-108495002D03*
X140925000Y-108495002D03*
%TD*%
D11*
%TO.C,C51*%
X143065000Y-51235000D03*
X143065000Y-49685000D03*
%TD*%
D10*
%TO.C,J7*%
X137550000Y-47660000D03*
%TD*%
D22*
%TO.C,SW3*%
X156165000Y-88276500D03*
X149435000Y-88276500D03*
%TD*%
D23*
%TO.C,U2*%
X204984771Y-103607773D03*
X204984771Y-102337773D03*
X204984771Y-101067773D03*
X204984771Y-99797773D03*
X199584771Y-99797773D03*
X199584771Y-101067773D03*
X199584771Y-102337773D03*
X199584771Y-103607773D03*
D24*
X202284771Y-101702773D03*
%TD*%
D11*
%TO.C,C29*%
X190070000Y-72125000D03*
X190070000Y-70575000D03*
%TD*%
D25*
%TO.C,R1*%
X157160000Y-67790000D03*
X158810000Y-67790000D03*
%TD*%
D21*
%TO.C,R9*%
X213180000Y-94260001D03*
X213180000Y-95910001D03*
%TD*%
D25*
%TO.C,R5*%
X194185953Y-96395273D03*
X195835953Y-96395273D03*
%TD*%
D18*
%TO.C,P2*%
X154439999Y-100894999D03*
X144489999Y-100894999D03*
D19*
X146339999Y-104044999D03*
X147589999Y-104044999D03*
X148839999Y-104044999D03*
X150089999Y-104044999D03*
X151339999Y-104044999D03*
X152589999Y-104044999D03*
%TD*%
D10*
%TO.C,J20*%
X144700000Y-47710000D03*
%TD*%
D16*
%TO.C,U9*%
X145860962Y-52915962D03*
X147360962Y-52915962D03*
X145860962Y-51775962D03*
X147360962Y-51775962D03*
D17*
X144705962Y-54820962D03*
X145975962Y-54820962D03*
X147245962Y-54820962D03*
X148515962Y-54820962D03*
X148515962Y-49870962D03*
X147245962Y-49870962D03*
X145975962Y-49870962D03*
X144705962Y-49870962D03*
%TD*%
D13*
%TO.C,R15*%
X148880000Y-82580000D03*
X148880000Y-80930000D03*
%TD*%
D14*
%TO.C,D3*%
X144140000Y-108490000D03*
X144140000Y-106740002D03*
%TD*%
D22*
%TO.C,SW1*%
X156108958Y-94071043D03*
X149378958Y-94071043D03*
%TD*%
D25*
%TO.C,R4*%
X169590000Y-103320000D03*
X171240000Y-103320000D03*
%TD*%
D26*
%TO.C,C44*%
X191651992Y-73913008D03*
X191651992Y-75463008D03*
%TD*%
D11*
%TO.C,C52*%
X150135000Y-51255000D03*
X150135000Y-49705000D03*
%TD*%
D15*
%TO.C,D22*%
X148510000Y-56710000D03*
X148510000Y-58909998D03*
%TD*%
D27*
%TO.C,C3*%
X216555000Y-95230000D03*
X218105000Y-95230000D03*
%TD*%
D28*
%TO.C,C42*%
X142683008Y-46838008D03*
X141586992Y-45741992D03*
%TD*%
D27*
%TO.C,C2*%
X216555000Y-92720000D03*
X218105000Y-92720000D03*
%TD*%
D25*
%TO.C,R3*%
X204990000Y-98020000D03*
X206640000Y-98020000D03*
%TD*%
D29*
%TO.C,C5*%
X205140953Y-105330273D03*
X203590953Y-105330273D03*
%TD*%
D30*
%TO.C,U10*%
X196065000Y-72485000D03*
X194565000Y-72485000D03*
X196065000Y-73625000D03*
X194565000Y-73625000D03*
D31*
X197220000Y-70580000D03*
X195950000Y-70580000D03*
X194680000Y-70580000D03*
X193410000Y-70580000D03*
X193410000Y-75530000D03*
X194680000Y-75530000D03*
X195950000Y-75530000D03*
X197220000Y-75530000D03*
%TD*%
D13*
%TO.C,R60*%
X150115000Y-54825000D03*
X150115000Y-53175000D03*
%TD*%
D32*
%TO.C,L1*%
X194180953Y-105030273D03*
X194180953Y-98630273D03*
%TD*%
D33*
%TO.C,D17*%
X191637499Y-68530680D03*
X189437501Y-68530680D03*
%TD*%
D13*
%TO.C,R6*%
X195867590Y-94921910D03*
X195867590Y-93271910D03*
%TD*%
D34*
%TO.C,D4*%
X213175000Y-92715000D03*
X214924998Y-92715000D03*
%TD*%
G36*
X166068894Y-26021728D02*
G01*
X166114649Y-26074532D01*
X166125834Y-26128305D01*
X166060769Y-29693783D01*
X166039865Y-29760453D01*
X165986235Y-29805236D01*
X165934184Y-29815494D01*
X163890448Y-29772532D01*
X163823837Y-29751442D01*
X163779202Y-29697689D01*
X163769058Y-29649528D01*
X163741539Y-26127012D01*
X163760699Y-26059821D01*
X163813144Y-26013654D01*
X163865535Y-26002043D01*
X166001855Y-26002043D01*
X166068894Y-26021728D01*
G37*
G36*
X186070719Y-26021728D02*
G01*
X186116474Y-26074532D01*
X186127659Y-26128305D01*
X186060769Y-29793783D01*
X186039865Y-29860453D01*
X185986235Y-29905236D01*
X185934184Y-29915494D01*
X183890448Y-29872532D01*
X183823837Y-29851442D01*
X183779202Y-29797689D01*
X183769058Y-29749528D01*
X183740964Y-26153409D01*
X183760124Y-26086218D01*
X183812569Y-26040051D01*
X183863404Y-26028450D01*
X185966444Y-26002053D01*
X185968000Y-26002043D01*
X186003680Y-26002043D01*
X186070719Y-26021728D01*
G37*
M02*
