M48
; DRILL file {KiCad 9.0.7} date 2026-06-12T17:43:13+0800
; FORMAT={-:-/ absolute / metric / decimal}
; #@! TF.CreationDate,2026-06-12T17:43:13+08:00
; #@! TF.GenerationSoftware,Kicad,Pcbnew,9.0.7
; #@! TF.FileFunction,Plated,1,2,PTH
FMAT,2
METRIC
; #@! TA.AperFunction,Plated,PTH,ViaDrill
T1C0.305
; #@! TA.AperFunction,Plated,PTH,ComponentDrill
T2C0.800
; #@! TA.AperFunction,Plated,PTH,ComponentDrill
T3C0.900
; #@! TA.AperFunction,Plated,PTH,ComponentDrill
T4C0.950
; #@! TA.AperFunction,Plated,PTH,ComponentDrill
T5C1.000
%
G90
G05
T1
X8.52Y-32.76
X11.57Y11.64
X12.99Y23.21
X13.4Y24.39
X14.04Y25.95
X14.11Y28.06
X17.8Y26.17
X18.01Y27.68
X18.1Y28.96
X19.01Y2.07
X19.16Y26.17
X19.92Y3.01
X20.12Y-32.66
X20.69Y3.88
X20.85Y1.37
X21.37Y-6.22
X21.47Y-15.66
X21.73Y4.79
X21.88Y2.55
X22.47Y5.69
X22.89Y3.39
X23.29Y-22.05
X23.36Y6.6
X24.22Y5.15
X24.74Y-17.58
X24.82Y24.04
X24.91Y26.08
X25.69Y-13.48
X30.67Y36.85
X32.02Y0.72
X32.17Y29.86
X32.21Y26.02
X32.34Y32.01
X32.4Y-3.97
X32.71Y35.39
X33.67Y36.87
X33.85Y-0.56
X34.11Y26.19
X34.19Y29.46
X34.28Y31.93
X35.19Y0.68
X37.65Y9.77
X37.95Y-1.8
X40.85Y6.39
X41.79Y4.62
X45.15Y29.0
X46.29Y-2.21
X46.79Y25.36
X47.38Y29.15
X48.63Y-3.17
X49.56Y29.27
X49.96Y-1.17
X50.75Y-4.28
X53.45Y-4.15
X55.08Y-7.75
X55.29Y14.37
X55.35Y-2.03
X55.39Y-29.16
X55.41Y2.48
X55.61Y6.84
X55.71Y-23.85
X56.02Y-4.73
X56.5Y4.24
X56.65Y-14.02
X57.01Y1.14
X57.06Y-20.74
X57.06Y-29.75
X57.2Y-23.71
X57.24Y-1.44
X60.54Y27.78
X61.51Y27.81
X66.47Y10.9
X67.36Y34.98
X68.29Y34.39
T2
X45.17Y17.02
X45.17Y14.48
X45.17Y11.94
X50.96Y33.54
X53.5Y33.54
X56.04Y33.54
X59.945Y14.535
X62.485Y14.535
X65.025Y14.535
X74.505Y22.175
X74.95Y34.4
X77.045Y22.175
X77.49Y34.4
X79.585Y22.175
X80.03Y34.4
T3
X5.97Y35.61
X5.97Y33.07
X5.97Y22.91
X5.97Y12.75
X5.97Y10.21
X5.97Y0.05
X5.97Y-2.49
X8.51Y35.61
X8.51Y33.07
X8.51Y30.53
X8.51Y25.45
X8.51Y22.91
X8.51Y15.29
X8.51Y10.21
X8.51Y7.67
X8.51Y0.05
X8.51Y-2.49
X26.29Y25.45
X26.29Y22.91
X26.29Y20.37
X26.29Y17.83
X26.29Y7.67
X26.29Y-2.49
X28.83Y30.53
X28.83Y27.99
X28.83Y20.37
X28.83Y17.83
X28.83Y7.67
X28.83Y0.05
X28.83Y-2.49
T4
X2.375Y35.875
X2.375Y33.375
X2.375Y30.875
X2.375Y28.375
X2.46Y15.25
X2.46Y12.75
X2.46Y10.25
X2.46Y7.75
T5
X30.8Y39.53
X46.11Y0.69
X50.79Y39.5
X53.34Y9.88
X53.79Y-33.44
X56.29Y-33.44
X64.74Y21.68
X66.31Y18.5
X81.57Y26.88
X81.58Y30.18
M30
