%TF.GenerationSoftware,KiCad,Pcbnew,9.0.7*%
%TF.CreationDate,2026-06-12T17:43:19+08:00*%
%TF.ProjectId,STC_mainboard,5354435f-6d61-4696-9e62-6f6172642e6b,rev?*%
%TF.SameCoordinates,Original*%
%TF.FileFunction,Legend,Bot*%
%TF.FilePolarity,Positive*%
%FSLAX46Y46*%
G04 Gerber Fmt 4.6, Leading zero omitted, Abs format (unit mm)*
G04 Created by KiCad (PCBNEW 9.0.7) date 2026-06-12 17:43:19*
%MOMM*%
%LPD*%
G01*
G04 APERTURE LIST*
%ADD10C,0.150000*%
%ADD11C,0.120000*%
%ADD12C,0.152400*%
%ADD13C,0.000000*%
G04 APERTURE END LIST*
D10*
X10629820Y33086905D02*
X11439343Y33086905D01*
X11439343Y33086905D02*
X11534581Y33039286D01*
X11534581Y33039286D02*
X11582201Y32991667D01*
X11582201Y32991667D02*
X11629820Y32896429D01*
X11629820Y32896429D02*
X11629820Y32705953D01*
X11629820Y32705953D02*
X11582201Y32610715D01*
X11582201Y32610715D02*
X11534581Y32563096D01*
X11534581Y32563096D02*
X11439343Y32515477D01*
X11439343Y32515477D02*
X10629820Y32515477D01*
X11058391Y31896429D02*
X11010772Y31991667D01*
X11010772Y31991667D02*
X10963153Y32039286D01*
X10963153Y32039286D02*
X10867915Y32086905D01*
X10867915Y32086905D02*
X10820296Y32086905D01*
X10820296Y32086905D02*
X10725058Y32039286D01*
X10725058Y32039286D02*
X10677439Y31991667D01*
X10677439Y31991667D02*
X10629820Y31896429D01*
X10629820Y31896429D02*
X10629820Y31705953D01*
X10629820Y31705953D02*
X10677439Y31610715D01*
X10677439Y31610715D02*
X10725058Y31563096D01*
X10725058Y31563096D02*
X10820296Y31515477D01*
X10820296Y31515477D02*
X10867915Y31515477D01*
X10867915Y31515477D02*
X10963153Y31563096D01*
X10963153Y31563096D02*
X11010772Y31610715D01*
X11010772Y31610715D02*
X11058391Y31705953D01*
X11058391Y31705953D02*
X11058391Y31896429D01*
X11058391Y31896429D02*
X11106010Y31991667D01*
X11106010Y31991667D02*
X11153629Y32039286D01*
X11153629Y32039286D02*
X11248867Y32086905D01*
X11248867Y32086905D02*
X11439343Y32086905D01*
X11439343Y32086905D02*
X11534581Y32039286D01*
X11534581Y32039286D02*
X11582201Y31991667D01*
X11582201Y31991667D02*
X11629820Y31896429D01*
X11629820Y31896429D02*
X11629820Y31705953D01*
X11629820Y31705953D02*
X11582201Y31610715D01*
X11582201Y31610715D02*
X11534581Y31563096D01*
X11534581Y31563096D02*
X11439343Y31515477D01*
X11439343Y31515477D02*
X11248867Y31515477D01*
X11248867Y31515477D02*
X11153629Y31563096D01*
X11153629Y31563096D02*
X11106010Y31610715D01*
X11106010Y31610715D02*
X11058391Y31705953D01*
X6719819Y7314406D02*
X7529342Y7314406D01*
X7529342Y7314406D02*
X7624580Y7266787D01*
X7624580Y7266787D02*
X7672200Y7219168D01*
X7672200Y7219168D02*
X7719819Y7123930D01*
X7719819Y7123930D02*
X7719819Y6933454D01*
X7719819Y6933454D02*
X7672200Y6838216D01*
X7672200Y6838216D02*
X7624580Y6790597D01*
X7624580Y6790597D02*
X7529342Y6742978D01*
X7529342Y6742978D02*
X6719819Y6742978D01*
X7719819Y6219168D02*
X7719819Y6028692D01*
X7719819Y6028692D02*
X7672200Y5933454D01*
X7672200Y5933454D02*
X7624580Y5885835D01*
X7624580Y5885835D02*
X7481723Y5790597D01*
X7481723Y5790597D02*
X7291247Y5742978D01*
X7291247Y5742978D02*
X6910295Y5742978D01*
X6910295Y5742978D02*
X6815057Y5790597D01*
X6815057Y5790597D02*
X6767438Y5838216D01*
X6767438Y5838216D02*
X6719819Y5933454D01*
X6719819Y5933454D02*
X6719819Y6123930D01*
X6719819Y6123930D02*
X6767438Y6219168D01*
X6767438Y6219168D02*
X6815057Y6266787D01*
X6815057Y6266787D02*
X6910295Y6314406D01*
X6910295Y6314406D02*
X7148390Y6314406D01*
X7148390Y6314406D02*
X7243628Y6266787D01*
X7243628Y6266787D02*
X7291247Y6219168D01*
X7291247Y6219168D02*
X7338866Y6123930D01*
X7338866Y6123930D02*
X7338866Y5933454D01*
X7338866Y5933454D02*
X7291247Y5838216D01*
X7291247Y5838216D02*
X7243628Y5790597D01*
X7243628Y5790597D02*
X7148390Y5742978D01*
X16484819Y23178094D02*
X17294342Y23178094D01*
X17294342Y23178094D02*
X17389580Y23130475D01*
X17389580Y23130475D02*
X17437200Y23082856D01*
X17437200Y23082856D02*
X17484819Y22987618D01*
X17484819Y22987618D02*
X17484819Y22797142D01*
X17484819Y22797142D02*
X17437200Y22701904D01*
X17437200Y22701904D02*
X17389580Y22654285D01*
X17389580Y22654285D02*
X17294342Y22606666D01*
X17294342Y22606666D02*
X16484819Y22606666D01*
X17484819Y21606666D02*
X17484819Y22178094D01*
X17484819Y21892380D02*
X16484819Y21892380D01*
X16484819Y21892380D02*
X16627676Y21987618D01*
X16627676Y21987618D02*
X16722914Y22082856D01*
X16722914Y22082856D02*
X16770533Y22178094D01*
X16484819Y20987618D02*
X16484819Y20892380D01*
X16484819Y20892380D02*
X16532438Y20797142D01*
X16532438Y20797142D02*
X16580057Y20749523D01*
X16580057Y20749523D02*
X16675295Y20701904D01*
X16675295Y20701904D02*
X16865771Y20654285D01*
X16865771Y20654285D02*
X17103866Y20654285D01*
X17103866Y20654285D02*
X17294342Y20701904D01*
X17294342Y20701904D02*
X17389580Y20749523D01*
X17389580Y20749523D02*
X17437200Y20797142D01*
X17437200Y20797142D02*
X17484819Y20892380D01*
X17484819Y20892380D02*
X17484819Y20987618D01*
X17484819Y20987618D02*
X17437200Y21082856D01*
X17437200Y21082856D02*
X17389580Y21130475D01*
X17389580Y21130475D02*
X17294342Y21178094D01*
X17294342Y21178094D02*
X17103866Y21225713D01*
X17103866Y21225713D02*
X16865771Y21225713D01*
X16865771Y21225713D02*
X16675295Y21178094D01*
X16675295Y21178094D02*
X16580057Y21130475D01*
X16580057Y21130475D02*
X16532438Y21082856D01*
X16532438Y21082856D02*
X16484819Y20987618D01*
X29649580Y25587857D02*
X29697200Y25635476D01*
X29697200Y25635476D02*
X29744819Y25778333D01*
X29744819Y25778333D02*
X29744819Y25873571D01*
X29744819Y25873571D02*
X29697200Y26016428D01*
X29697200Y26016428D02*
X29601961Y26111666D01*
X29601961Y26111666D02*
X29506723Y26159285D01*
X29506723Y26159285D02*
X29316247Y26206904D01*
X29316247Y26206904D02*
X29173390Y26206904D01*
X29173390Y26206904D02*
X28982914Y26159285D01*
X28982914Y26159285D02*
X28887676Y26111666D01*
X28887676Y26111666D02*
X28792438Y26016428D01*
X28792438Y26016428D02*
X28744819Y25873571D01*
X28744819Y25873571D02*
X28744819Y25778333D01*
X28744819Y25778333D02*
X28792438Y25635476D01*
X28792438Y25635476D02*
X28840057Y25587857D01*
X29744819Y24635476D02*
X29744819Y25206904D01*
X29744819Y24921190D02*
X28744819Y24921190D01*
X28744819Y24921190D02*
X28887676Y25016428D01*
X28887676Y25016428D02*
X28982914Y25111666D01*
X28982914Y25111666D02*
X29030533Y25206904D01*
X28840057Y24254523D02*
X28792438Y24206904D01*
X28792438Y24206904D02*
X28744819Y24111666D01*
X28744819Y24111666D02*
X28744819Y23873571D01*
X28744819Y23873571D02*
X28792438Y23778333D01*
X28792438Y23778333D02*
X28840057Y23730714D01*
X28840057Y23730714D02*
X28935295Y23683095D01*
X28935295Y23683095D02*
X29030533Y23683095D01*
X29030533Y23683095D02*
X29173390Y23730714D01*
X29173390Y23730714D02*
X29744819Y24302142D01*
X29744819Y24302142D02*
X29744819Y23683095D01*
X50179819Y27636904D02*
X50989342Y27636904D01*
X50989342Y27636904D02*
X51084580Y27589285D01*
X51084580Y27589285D02*
X51132200Y27541666D01*
X51132200Y27541666D02*
X51179819Y27446428D01*
X51179819Y27446428D02*
X51179819Y27255952D01*
X51179819Y27255952D02*
X51132200Y27160714D01*
X51132200Y27160714D02*
X51084580Y27113095D01*
X51084580Y27113095D02*
X50989342Y27065476D01*
X50989342Y27065476D02*
X50179819Y27065476D01*
X50179819Y26684523D02*
X50179819Y26017857D01*
X50179819Y26017857D02*
X51179819Y26446428D01*
X49834819Y20041266D02*
X49358628Y20374599D01*
X49834819Y20612694D02*
X48834819Y20612694D01*
X48834819Y20612694D02*
X48834819Y20231742D01*
X48834819Y20231742D02*
X48882438Y20136504D01*
X48882438Y20136504D02*
X48930057Y20088885D01*
X48930057Y20088885D02*
X49025295Y20041266D01*
X49025295Y20041266D02*
X49168152Y20041266D01*
X49168152Y20041266D02*
X49263390Y20088885D01*
X49263390Y20088885D02*
X49311009Y20136504D01*
X49311009Y20136504D02*
X49358628Y20231742D01*
X49358628Y20231742D02*
X49358628Y20612694D01*
X48834819Y19707932D02*
X48834819Y19088885D01*
X48834819Y19088885D02*
X49215771Y19422218D01*
X49215771Y19422218D02*
X49215771Y19279361D01*
X49215771Y19279361D02*
X49263390Y19184123D01*
X49263390Y19184123D02*
X49311009Y19136504D01*
X49311009Y19136504D02*
X49406247Y19088885D01*
X49406247Y19088885D02*
X49644342Y19088885D01*
X49644342Y19088885D02*
X49739580Y19136504D01*
X49739580Y19136504D02*
X49787200Y19184123D01*
X49787200Y19184123D02*
X49834819Y19279361D01*
X49834819Y19279361D02*
X49834819Y19565075D01*
X49834819Y19565075D02*
X49787200Y19660313D01*
X49787200Y19660313D02*
X49739580Y19707932D01*
X49263390Y18517456D02*
X49215771Y18612694D01*
X49215771Y18612694D02*
X49168152Y18660313D01*
X49168152Y18660313D02*
X49072914Y18707932D01*
X49072914Y18707932D02*
X49025295Y18707932D01*
X49025295Y18707932D02*
X48930057Y18660313D01*
X48930057Y18660313D02*
X48882438Y18612694D01*
X48882438Y18612694D02*
X48834819Y18517456D01*
X48834819Y18517456D02*
X48834819Y18326980D01*
X48834819Y18326980D02*
X48882438Y18231742D01*
X48882438Y18231742D02*
X48930057Y18184123D01*
X48930057Y18184123D02*
X49025295Y18136504D01*
X49025295Y18136504D02*
X49072914Y18136504D01*
X49072914Y18136504D02*
X49168152Y18184123D01*
X49168152Y18184123D02*
X49215771Y18231742D01*
X49215771Y18231742D02*
X49263390Y18326980D01*
X49263390Y18326980D02*
X49263390Y18517456D01*
X49263390Y18517456D02*
X49311009Y18612694D01*
X49311009Y18612694D02*
X49358628Y18660313D01*
X49358628Y18660313D02*
X49453866Y18707932D01*
X49453866Y18707932D02*
X49644342Y18707932D01*
X49644342Y18707932D02*
X49739580Y18660313D01*
X49739580Y18660313D02*
X49787200Y18612694D01*
X49787200Y18612694D02*
X49834819Y18517456D01*
X49834819Y18517456D02*
X49834819Y18326980D01*
X49834819Y18326980D02*
X49787200Y18231742D01*
X49787200Y18231742D02*
X49739580Y18184123D01*
X49739580Y18184123D02*
X49644342Y18136504D01*
X49644342Y18136504D02*
X49453866Y18136504D01*
X49453866Y18136504D02*
X49358628Y18184123D01*
X49358628Y18184123D02*
X49311009Y18231742D01*
X49311009Y18231742D02*
X49263390Y18326980D01*
X35472857Y21725180D02*
X35806190Y22201371D01*
X36044285Y21725180D02*
X36044285Y22725180D01*
X36044285Y22725180D02*
X35663333Y22725180D01*
X35663333Y22725180D02*
X35568095Y22677561D01*
X35568095Y22677561D02*
X35520476Y22629942D01*
X35520476Y22629942D02*
X35472857Y22534704D01*
X35472857Y22534704D02*
X35472857Y22391847D01*
X35472857Y22391847D02*
X35520476Y22296609D01*
X35520476Y22296609D02*
X35568095Y22248990D01*
X35568095Y22248990D02*
X35663333Y22201371D01*
X35663333Y22201371D02*
X36044285Y22201371D01*
X34520476Y21725180D02*
X35091904Y21725180D01*
X34806190Y21725180D02*
X34806190Y22725180D01*
X34806190Y22725180D02*
X34901428Y22582323D01*
X34901428Y22582323D02*
X34996666Y22487085D01*
X34996666Y22487085D02*
X35091904Y22439466D01*
X34139523Y22629942D02*
X34091904Y22677561D01*
X34091904Y22677561D02*
X33996666Y22725180D01*
X33996666Y22725180D02*
X33758571Y22725180D01*
X33758571Y22725180D02*
X33663333Y22677561D01*
X33663333Y22677561D02*
X33615714Y22629942D01*
X33615714Y22629942D02*
X33568095Y22534704D01*
X33568095Y22534704D02*
X33568095Y22439466D01*
X33568095Y22439466D02*
X33615714Y22296609D01*
X33615714Y22296609D02*
X34187142Y21725180D01*
X34187142Y21725180D02*
X33568095Y21725180D01*
X63624580Y19022857D02*
X63672200Y19070476D01*
X63672200Y19070476D02*
X63719819Y19213333D01*
X63719819Y19213333D02*
X63719819Y19308571D01*
X63719819Y19308571D02*
X63672200Y19451428D01*
X63672200Y19451428D02*
X63576961Y19546666D01*
X63576961Y19546666D02*
X63481723Y19594285D01*
X63481723Y19594285D02*
X63291247Y19641904D01*
X63291247Y19641904D02*
X63148390Y19641904D01*
X63148390Y19641904D02*
X62957914Y19594285D01*
X62957914Y19594285D02*
X62862676Y19546666D01*
X62862676Y19546666D02*
X62767438Y19451428D01*
X62767438Y19451428D02*
X62719819Y19308571D01*
X62719819Y19308571D02*
X62719819Y19213333D01*
X62719819Y19213333D02*
X62767438Y19070476D01*
X62767438Y19070476D02*
X62815057Y19022857D01*
X63719819Y18070476D02*
X63719819Y18641904D01*
X63719819Y18356190D02*
X62719819Y18356190D01*
X62719819Y18356190D02*
X62862676Y18451428D01*
X62862676Y18451428D02*
X62957914Y18546666D01*
X62957914Y18546666D02*
X63005533Y18641904D01*
X63719819Y17594285D02*
X63719819Y17403809D01*
X63719819Y17403809D02*
X63672200Y17308571D01*
X63672200Y17308571D02*
X63624580Y17260952D01*
X63624580Y17260952D02*
X63481723Y17165714D01*
X63481723Y17165714D02*
X63291247Y17118095D01*
X63291247Y17118095D02*
X62910295Y17118095D01*
X62910295Y17118095D02*
X62815057Y17165714D01*
X62815057Y17165714D02*
X62767438Y17213333D01*
X62767438Y17213333D02*
X62719819Y17308571D01*
X62719819Y17308571D02*
X62719819Y17499047D01*
X62719819Y17499047D02*
X62767438Y17594285D01*
X62767438Y17594285D02*
X62815057Y17641904D01*
X62815057Y17641904D02*
X62910295Y17689523D01*
X62910295Y17689523D02*
X63148390Y17689523D01*
X63148390Y17689523D02*
X63243628Y17641904D01*
X63243628Y17641904D02*
X63291247Y17594285D01*
X63291247Y17594285D02*
X63338866Y17499047D01*
X63338866Y17499047D02*
X63338866Y17308571D01*
X63338866Y17308571D02*
X63291247Y17213333D01*
X63291247Y17213333D02*
X63243628Y17165714D01*
X63243628Y17165714D02*
X63148390Y17118095D01*
X29619580Y34857857D02*
X29667200Y34905476D01*
X29667200Y34905476D02*
X29714819Y35048333D01*
X29714819Y35048333D02*
X29714819Y35143571D01*
X29714819Y35143571D02*
X29667200Y35286428D01*
X29667200Y35286428D02*
X29571961Y35381666D01*
X29571961Y35381666D02*
X29476723Y35429285D01*
X29476723Y35429285D02*
X29286247Y35476904D01*
X29286247Y35476904D02*
X29143390Y35476904D01*
X29143390Y35476904D02*
X28952914Y35429285D01*
X28952914Y35429285D02*
X28857676Y35381666D01*
X28857676Y35381666D02*
X28762438Y35286428D01*
X28762438Y35286428D02*
X28714819Y35143571D01*
X28714819Y35143571D02*
X28714819Y35048333D01*
X28714819Y35048333D02*
X28762438Y34905476D01*
X28762438Y34905476D02*
X28810057Y34857857D01*
X28810057Y34476904D02*
X28762438Y34429285D01*
X28762438Y34429285D02*
X28714819Y34334047D01*
X28714819Y34334047D02*
X28714819Y34095952D01*
X28714819Y34095952D02*
X28762438Y34000714D01*
X28762438Y34000714D02*
X28810057Y33953095D01*
X28810057Y33953095D02*
X28905295Y33905476D01*
X28905295Y33905476D02*
X29000533Y33905476D01*
X29000533Y33905476D02*
X29143390Y33953095D01*
X29143390Y33953095D02*
X29714819Y34524523D01*
X29714819Y34524523D02*
X29714819Y33905476D01*
X29714819Y32953095D02*
X29714819Y33524523D01*
X29714819Y33238809D02*
X28714819Y33238809D01*
X28714819Y33238809D02*
X28857676Y33334047D01*
X28857676Y33334047D02*
X28952914Y33429285D01*
X28952914Y33429285D02*
X29000533Y33524523D01*
X15799143Y-439993D02*
X15799143Y-507337D01*
X15799143Y-507337D02*
X15866487Y-642024D01*
X15866487Y-642024D02*
X15933830Y-709367D01*
X15933830Y-709367D02*
X16068517Y-776711D01*
X16068517Y-776711D02*
X16203204Y-776711D01*
X16203204Y-776711D02*
X16304219Y-743039D01*
X16304219Y-743039D02*
X16472578Y-642024D01*
X16472578Y-642024D02*
X16573593Y-541009D01*
X16573593Y-541009D02*
X16674609Y-372650D01*
X16674609Y-372650D02*
X16708280Y-271635D01*
X16708280Y-271635D02*
X16708280Y-136948D01*
X16708280Y-136948D02*
X16640937Y-2261D01*
X16640937Y-2261D02*
X16573593Y65082D01*
X16573593Y65082D02*
X16438906Y132425D01*
X16438906Y132425D02*
X16371563Y132425D01*
X15799143Y839532D02*
X16135861Y502815D01*
X16135861Y502815D02*
X15832815Y132425D01*
X15832815Y132425D02*
X15832815Y199769D01*
X15832815Y199769D02*
X15799143Y300784D01*
X15799143Y300784D02*
X15630784Y469143D01*
X15630784Y469143D02*
X15529769Y502815D01*
X15529769Y502815D02*
X15462426Y502815D01*
X15462426Y502815D02*
X15361410Y469143D01*
X15361410Y469143D02*
X15193052Y300784D01*
X15193052Y300784D02*
X15159380Y199769D01*
X15159380Y199769D02*
X15159380Y132425D01*
X15159380Y132425D02*
X15193052Y31410D01*
X15193052Y31410D02*
X15361410Y-136948D01*
X15361410Y-136948D02*
X15462426Y-170619D01*
X15462426Y-170619D02*
X15529769Y-170619D01*
X14384929Y839532D02*
X14788990Y435471D01*
X14586960Y637502D02*
X15294067Y1344609D01*
X15294067Y1344609D02*
X15260395Y1176250D01*
X15260395Y1176250D02*
X15260395Y1041563D01*
X15260395Y1041563D02*
X15294067Y940548D01*
X40184819Y23431904D02*
X40994342Y23431904D01*
X40994342Y23431904D02*
X41089580Y23384285D01*
X41089580Y23384285D02*
X41137200Y23336666D01*
X41137200Y23336666D02*
X41184819Y23241428D01*
X41184819Y23241428D02*
X41184819Y23050952D01*
X41184819Y23050952D02*
X41137200Y22955714D01*
X41137200Y22955714D02*
X41089580Y22908095D01*
X41089580Y22908095D02*
X40994342Y22860476D01*
X40994342Y22860476D02*
X40184819Y22860476D01*
X40184819Y21955714D02*
X40184819Y22146190D01*
X40184819Y22146190D02*
X40232438Y22241428D01*
X40232438Y22241428D02*
X40280057Y22289047D01*
X40280057Y22289047D02*
X40422914Y22384285D01*
X40422914Y22384285D02*
X40613390Y22431904D01*
X40613390Y22431904D02*
X40994342Y22431904D01*
X40994342Y22431904D02*
X41089580Y22384285D01*
X41089580Y22384285D02*
X41137200Y22336666D01*
X41137200Y22336666D02*
X41184819Y22241428D01*
X41184819Y22241428D02*
X41184819Y22050952D01*
X41184819Y22050952D02*
X41137200Y21955714D01*
X41137200Y21955714D02*
X41089580Y21908095D01*
X41089580Y21908095D02*
X40994342Y21860476D01*
X40994342Y21860476D02*
X40756247Y21860476D01*
X40756247Y21860476D02*
X40661009Y21908095D01*
X40661009Y21908095D02*
X40613390Y21955714D01*
X40613390Y21955714D02*
X40565771Y22050952D01*
X40565771Y22050952D02*
X40565771Y22241428D01*
X40565771Y22241428D02*
X40613390Y22336666D01*
X40613390Y22336666D02*
X40661009Y22384285D01*
X40661009Y22384285D02*
X40756247Y22431904D01*
X59167857Y27415180D02*
X59501190Y27891371D01*
X59739285Y27415180D02*
X59739285Y28415180D01*
X59739285Y28415180D02*
X59358333Y28415180D01*
X59358333Y28415180D02*
X59263095Y28367561D01*
X59263095Y28367561D02*
X59215476Y28319942D01*
X59215476Y28319942D02*
X59167857Y28224704D01*
X59167857Y28224704D02*
X59167857Y28081847D01*
X59167857Y28081847D02*
X59215476Y27986609D01*
X59215476Y27986609D02*
X59263095Y27938990D01*
X59263095Y27938990D02*
X59358333Y27891371D01*
X59358333Y27891371D02*
X59739285Y27891371D01*
X58215476Y27415180D02*
X58786904Y27415180D01*
X58501190Y27415180D02*
X58501190Y28415180D01*
X58501190Y28415180D02*
X58596428Y28272323D01*
X58596428Y28272323D02*
X58691666Y28177085D01*
X58691666Y28177085D02*
X58786904Y28129466D01*
X57263095Y27415180D02*
X57834523Y27415180D01*
X57548809Y27415180D02*
X57548809Y28415180D01*
X57548809Y28415180D02*
X57644047Y28272323D01*
X57644047Y28272323D02*
X57739285Y28177085D01*
X57739285Y28177085D02*
X57834523Y28129466D01*
X75164284Y28695179D02*
X75164284Y29695179D01*
X75164284Y29695179D02*
X74926189Y29695179D01*
X74926189Y29695179D02*
X74783332Y29647560D01*
X74783332Y29647560D02*
X74688094Y29552322D01*
X74688094Y29552322D02*
X74640475Y29457084D01*
X74640475Y29457084D02*
X74592856Y29266608D01*
X74592856Y29266608D02*
X74592856Y29123751D01*
X74592856Y29123751D02*
X74640475Y28933275D01*
X74640475Y28933275D02*
X74688094Y28838037D01*
X74688094Y28838037D02*
X74783332Y28742799D01*
X74783332Y28742799D02*
X74926189Y28695179D01*
X74926189Y28695179D02*
X75164284Y28695179D01*
X73640475Y28695179D02*
X74211903Y28695179D01*
X73926189Y28695179D02*
X73926189Y29695179D01*
X73926189Y29695179D02*
X74021427Y29552322D01*
X74021427Y29552322D02*
X74116665Y29457084D01*
X74116665Y29457084D02*
X74211903Y29409465D01*
X73021427Y29695179D02*
X72926189Y29695179D01*
X72926189Y29695179D02*
X72830951Y29647560D01*
X72830951Y29647560D02*
X72783332Y29599941D01*
X72783332Y29599941D02*
X72735713Y29504703D01*
X72735713Y29504703D02*
X72688094Y29314227D01*
X72688094Y29314227D02*
X72688094Y29076132D01*
X72688094Y29076132D02*
X72735713Y28885656D01*
X72735713Y28885656D02*
X72783332Y28790418D01*
X72783332Y28790418D02*
X72830951Y28742799D01*
X72830951Y28742799D02*
X72926189Y28695179D01*
X72926189Y28695179D02*
X73021427Y28695179D01*
X73021427Y28695179D02*
X73116665Y28742799D01*
X73116665Y28742799D02*
X73164284Y28790418D01*
X73164284Y28790418D02*
X73211903Y28885656D01*
X73211903Y28885656D02*
X73259522Y29076132D01*
X73259522Y29076132D02*
X73259522Y29314227D01*
X73259522Y29314227D02*
X73211903Y29504703D01*
X73211903Y29504703D02*
X73164284Y29599941D01*
X73164284Y29599941D02*
X73116665Y29647560D01*
X73116665Y29647560D02*
X73021427Y29695179D01*
X70254819Y28082857D02*
X69778628Y28416190D01*
X70254819Y28654285D02*
X69254819Y28654285D01*
X69254819Y28654285D02*
X69254819Y28273333D01*
X69254819Y28273333D02*
X69302438Y28178095D01*
X69302438Y28178095D02*
X69350057Y28130476D01*
X69350057Y28130476D02*
X69445295Y28082857D01*
X69445295Y28082857D02*
X69588152Y28082857D01*
X69588152Y28082857D02*
X69683390Y28130476D01*
X69683390Y28130476D02*
X69731009Y28178095D01*
X69731009Y28178095D02*
X69778628Y28273333D01*
X69778628Y28273333D02*
X69778628Y28654285D01*
X69350057Y27701904D02*
X69302438Y27654285D01*
X69302438Y27654285D02*
X69254819Y27559047D01*
X69254819Y27559047D02*
X69254819Y27320952D01*
X69254819Y27320952D02*
X69302438Y27225714D01*
X69302438Y27225714D02*
X69350057Y27178095D01*
X69350057Y27178095D02*
X69445295Y27130476D01*
X69445295Y27130476D02*
X69540533Y27130476D01*
X69540533Y27130476D02*
X69683390Y27178095D01*
X69683390Y27178095D02*
X70254819Y27749523D01*
X70254819Y27749523D02*
X70254819Y27130476D01*
X69683390Y26559047D02*
X69635771Y26654285D01*
X69635771Y26654285D02*
X69588152Y26701904D01*
X69588152Y26701904D02*
X69492914Y26749523D01*
X69492914Y26749523D02*
X69445295Y26749523D01*
X69445295Y26749523D02*
X69350057Y26701904D01*
X69350057Y26701904D02*
X69302438Y26654285D01*
X69302438Y26654285D02*
X69254819Y26559047D01*
X69254819Y26559047D02*
X69254819Y26368571D01*
X69254819Y26368571D02*
X69302438Y26273333D01*
X69302438Y26273333D02*
X69350057Y26225714D01*
X69350057Y26225714D02*
X69445295Y26178095D01*
X69445295Y26178095D02*
X69492914Y26178095D01*
X69492914Y26178095D02*
X69588152Y26225714D01*
X69588152Y26225714D02*
X69635771Y26273333D01*
X69635771Y26273333D02*
X69683390Y26368571D01*
X69683390Y26368571D02*
X69683390Y26559047D01*
X69683390Y26559047D02*
X69731009Y26654285D01*
X69731009Y26654285D02*
X69778628Y26701904D01*
X69778628Y26701904D02*
X69873866Y26749523D01*
X69873866Y26749523D02*
X70064342Y26749523D01*
X70064342Y26749523D02*
X70159580Y26701904D01*
X70159580Y26701904D02*
X70207200Y26654285D01*
X70207200Y26654285D02*
X70254819Y26559047D01*
X70254819Y26559047D02*
X70254819Y26368571D01*
X70254819Y26368571D02*
X70207200Y26273333D01*
X70207200Y26273333D02*
X70159580Y26225714D01*
X70159580Y26225714D02*
X70064342Y26178095D01*
X70064342Y26178095D02*
X69873866Y26178095D01*
X69873866Y26178095D02*
X69778628Y26225714D01*
X69778628Y26225714D02*
X69731009Y26273333D01*
X69731009Y26273333D02*
X69683390Y26368571D01*
X53874140Y16097695D02*
X52874140Y16097695D01*
X52874140Y16097695D02*
X52874140Y15859600D01*
X52874140Y15859600D02*
X52921759Y15716743D01*
X52921759Y15716743D02*
X53016997Y15621505D01*
X53016997Y15621505D02*
X53112235Y15573886D01*
X53112235Y15573886D02*
X53302711Y15526267D01*
X53302711Y15526267D02*
X53445568Y15526267D01*
X53445568Y15526267D02*
X53636044Y15573886D01*
X53636044Y15573886D02*
X53731282Y15621505D01*
X53731282Y15621505D02*
X53826521Y15716743D01*
X53826521Y15716743D02*
X53874140Y15859600D01*
X53874140Y15859600D02*
X53874140Y16097695D01*
X53874140Y14573886D02*
X53874140Y15145314D01*
X53874140Y14859600D02*
X52874140Y14859600D01*
X52874140Y14859600D02*
X53016997Y14954838D01*
X53016997Y14954838D02*
X53112235Y15050076D01*
X53112235Y15050076D02*
X53159854Y15145314D01*
X53874140Y14097695D02*
X53874140Y13907219D01*
X53874140Y13907219D02*
X53826521Y13811981D01*
X53826521Y13811981D02*
X53778901Y13764362D01*
X53778901Y13764362D02*
X53636044Y13669124D01*
X53636044Y13669124D02*
X53445568Y13621505D01*
X53445568Y13621505D02*
X53064616Y13621505D01*
X53064616Y13621505D02*
X52969378Y13669124D01*
X52969378Y13669124D02*
X52921759Y13716743D01*
X52921759Y13716743D02*
X52874140Y13811981D01*
X52874140Y13811981D02*
X52874140Y14002457D01*
X52874140Y14002457D02*
X52921759Y14097695D01*
X52921759Y14097695D02*
X52969378Y14145314D01*
X52969378Y14145314D02*
X53064616Y14192933D01*
X53064616Y14192933D02*
X53302711Y14192933D01*
X53302711Y14192933D02*
X53397949Y14145314D01*
X53397949Y14145314D02*
X53445568Y14097695D01*
X53445568Y14097695D02*
X53493187Y14002457D01*
X53493187Y14002457D02*
X53493187Y13811981D01*
X53493187Y13811981D02*
X53445568Y13716743D01*
X53445568Y13716743D02*
X53397949Y13669124D01*
X53397949Y13669124D02*
X53302711Y13621505D01*
X20344820Y9824285D02*
X19344820Y9824285D01*
X19344820Y9824285D02*
X19344820Y9586190D01*
X19344820Y9586190D02*
X19392439Y9443333D01*
X19392439Y9443333D02*
X19487677Y9348095D01*
X19487677Y9348095D02*
X19582915Y9300476D01*
X19582915Y9300476D02*
X19773391Y9252857D01*
X19773391Y9252857D02*
X19916248Y9252857D01*
X19916248Y9252857D02*
X20106724Y9300476D01*
X20106724Y9300476D02*
X20201962Y9348095D01*
X20201962Y9348095D02*
X20297201Y9443333D01*
X20297201Y9443333D02*
X20344820Y9586190D01*
X20344820Y9586190D02*
X20344820Y9824285D01*
X19440058Y8871904D02*
X19392439Y8824285D01*
X19392439Y8824285D02*
X19344820Y8729047D01*
X19344820Y8729047D02*
X19344820Y8490952D01*
X19344820Y8490952D02*
X19392439Y8395714D01*
X19392439Y8395714D02*
X19440058Y8348095D01*
X19440058Y8348095D02*
X19535296Y8300476D01*
X19535296Y8300476D02*
X19630534Y8300476D01*
X19630534Y8300476D02*
X19773391Y8348095D01*
X19773391Y8348095D02*
X20344820Y8919523D01*
X20344820Y8919523D02*
X20344820Y8300476D01*
X19440058Y7919523D02*
X19392439Y7871904D01*
X19392439Y7871904D02*
X19344820Y7776666D01*
X19344820Y7776666D02*
X19344820Y7538571D01*
X19344820Y7538571D02*
X19392439Y7443333D01*
X19392439Y7443333D02*
X19440058Y7395714D01*
X19440058Y7395714D02*
X19535296Y7348095D01*
X19535296Y7348095D02*
X19630534Y7348095D01*
X19630534Y7348095D02*
X19773391Y7395714D01*
X19773391Y7395714D02*
X20344820Y7967142D01*
X20344820Y7967142D02*
X20344820Y7348095D01*
X50160195Y11455179D02*
X50160195Y12455179D01*
X50160195Y12455179D02*
X49922100Y12455179D01*
X49922100Y12455179D02*
X49779243Y12407560D01*
X49779243Y12407560D02*
X49684005Y12312322D01*
X49684005Y12312322D02*
X49636386Y12217084D01*
X49636386Y12217084D02*
X49588767Y12026608D01*
X49588767Y12026608D02*
X49588767Y11883751D01*
X49588767Y11883751D02*
X49636386Y11693275D01*
X49636386Y11693275D02*
X49684005Y11598037D01*
X49684005Y11598037D02*
X49779243Y11502799D01*
X49779243Y11502799D02*
X49922100Y11455179D01*
X49922100Y11455179D02*
X50160195Y11455179D01*
X49207814Y12359941D02*
X49160195Y12407560D01*
X49160195Y12407560D02*
X49064957Y12455179D01*
X49064957Y12455179D02*
X48826862Y12455179D01*
X48826862Y12455179D02*
X48731624Y12407560D01*
X48731624Y12407560D02*
X48684005Y12359941D01*
X48684005Y12359941D02*
X48636386Y12264703D01*
X48636386Y12264703D02*
X48636386Y12169465D01*
X48636386Y12169465D02*
X48684005Y12026608D01*
X48684005Y12026608D02*
X49255433Y11455179D01*
X49255433Y11455179D02*
X48636386Y11455179D01*
X47779243Y12121846D02*
X47779243Y11455179D01*
X48017338Y12502799D02*
X48255433Y11788513D01*
X48255433Y11788513D02*
X47636386Y11788513D01*
X17897857Y25890419D02*
X17945476Y25842800D01*
X17945476Y25842800D02*
X18088333Y25795180D01*
X18088333Y25795180D02*
X18183571Y25795180D01*
X18183571Y25795180D02*
X18326428Y25842800D01*
X18326428Y25842800D02*
X18421666Y25938038D01*
X18421666Y25938038D02*
X18469285Y26033276D01*
X18469285Y26033276D02*
X18516904Y26223752D01*
X18516904Y26223752D02*
X18516904Y26366609D01*
X18516904Y26366609D02*
X18469285Y26557085D01*
X18469285Y26557085D02*
X18421666Y26652323D01*
X18421666Y26652323D02*
X18326428Y26747561D01*
X18326428Y26747561D02*
X18183571Y26795180D01*
X18183571Y26795180D02*
X18088333Y26795180D01*
X18088333Y26795180D02*
X17945476Y26747561D01*
X17945476Y26747561D02*
X17897857Y26699942D01*
X17516904Y26699942D02*
X17469285Y26747561D01*
X17469285Y26747561D02*
X17374047Y26795180D01*
X17374047Y26795180D02*
X17135952Y26795180D01*
X17135952Y26795180D02*
X17040714Y26747561D01*
X17040714Y26747561D02*
X16993095Y26699942D01*
X16993095Y26699942D02*
X16945476Y26604704D01*
X16945476Y26604704D02*
X16945476Y26509466D01*
X16945476Y26509466D02*
X16993095Y26366609D01*
X16993095Y26366609D02*
X17564523Y25795180D01*
X17564523Y25795180D02*
X16945476Y25795180D01*
X16469285Y25795180D02*
X16278809Y25795180D01*
X16278809Y25795180D02*
X16183571Y25842800D01*
X16183571Y25842800D02*
X16135952Y25890419D01*
X16135952Y25890419D02*
X16040714Y26033276D01*
X16040714Y26033276D02*
X15993095Y26223752D01*
X15993095Y26223752D02*
X15993095Y26604704D01*
X15993095Y26604704D02*
X16040714Y26699942D01*
X16040714Y26699942D02*
X16088333Y26747561D01*
X16088333Y26747561D02*
X16183571Y26795180D01*
X16183571Y26795180D02*
X16374047Y26795180D01*
X16374047Y26795180D02*
X16469285Y26747561D01*
X16469285Y26747561D02*
X16516904Y26699942D01*
X16516904Y26699942D02*
X16564523Y26604704D01*
X16564523Y26604704D02*
X16564523Y26366609D01*
X16564523Y26366609D02*
X16516904Y26271371D01*
X16516904Y26271371D02*
X16469285Y26223752D01*
X16469285Y26223752D02*
X16374047Y26176133D01*
X16374047Y26176133D02*
X16183571Y26176133D01*
X16183571Y26176133D02*
X16088333Y26223752D01*
X16088333Y26223752D02*
X16040714Y26271371D01*
X16040714Y26271371D02*
X15993095Y26366609D01*
X23044819Y20927857D02*
X22568628Y21261190D01*
X23044819Y21499285D02*
X22044819Y21499285D01*
X22044819Y21499285D02*
X22044819Y21118333D01*
X22044819Y21118333D02*
X22092438Y21023095D01*
X22092438Y21023095D02*
X22140057Y20975476D01*
X22140057Y20975476D02*
X22235295Y20927857D01*
X22235295Y20927857D02*
X22378152Y20927857D01*
X22378152Y20927857D02*
X22473390Y20975476D01*
X22473390Y20975476D02*
X22521009Y21023095D01*
X22521009Y21023095D02*
X22568628Y21118333D01*
X22568628Y21118333D02*
X22568628Y21499285D01*
X22044819Y20023095D02*
X22044819Y20499285D01*
X22044819Y20499285D02*
X22521009Y20546904D01*
X22521009Y20546904D02*
X22473390Y20499285D01*
X22473390Y20499285D02*
X22425771Y20404047D01*
X22425771Y20404047D02*
X22425771Y20165952D01*
X22425771Y20165952D02*
X22473390Y20070714D01*
X22473390Y20070714D02*
X22521009Y20023095D01*
X22521009Y20023095D02*
X22616247Y19975476D01*
X22616247Y19975476D02*
X22854342Y19975476D01*
X22854342Y19975476D02*
X22949580Y20023095D01*
X22949580Y20023095D02*
X22997200Y20070714D01*
X22997200Y20070714D02*
X23044819Y20165952D01*
X23044819Y20165952D02*
X23044819Y20404047D01*
X23044819Y20404047D02*
X22997200Y20499285D01*
X22997200Y20499285D02*
X22949580Y20546904D01*
X22044819Y19642142D02*
X22044819Y19023095D01*
X22044819Y19023095D02*
X22425771Y19356428D01*
X22425771Y19356428D02*
X22425771Y19213571D01*
X22425771Y19213571D02*
X22473390Y19118333D01*
X22473390Y19118333D02*
X22521009Y19070714D01*
X22521009Y19070714D02*
X22616247Y19023095D01*
X22616247Y19023095D02*
X22854342Y19023095D01*
X22854342Y19023095D02*
X22949580Y19070714D01*
X22949580Y19070714D02*
X22997200Y19118333D01*
X22997200Y19118333D02*
X23044819Y19213571D01*
X23044819Y19213571D02*
X23044819Y19499285D01*
X23044819Y19499285D02*
X22997200Y19594523D01*
X22997200Y19594523D02*
X22949580Y19642142D01*
X33777857Y25215180D02*
X34111190Y25691371D01*
X34349285Y25215180D02*
X34349285Y26215180D01*
X34349285Y26215180D02*
X33968333Y26215180D01*
X33968333Y26215180D02*
X33873095Y26167561D01*
X33873095Y26167561D02*
X33825476Y26119942D01*
X33825476Y26119942D02*
X33777857Y26024704D01*
X33777857Y26024704D02*
X33777857Y25881847D01*
X33777857Y25881847D02*
X33825476Y25786609D01*
X33825476Y25786609D02*
X33873095Y25738990D01*
X33873095Y25738990D02*
X33968333Y25691371D01*
X33968333Y25691371D02*
X34349285Y25691371D01*
X32825476Y25215180D02*
X33396904Y25215180D01*
X33111190Y25215180D02*
X33111190Y26215180D01*
X33111190Y26215180D02*
X33206428Y26072323D01*
X33206428Y26072323D02*
X33301666Y25977085D01*
X33301666Y25977085D02*
X33396904Y25929466D01*
X32206428Y26215180D02*
X32111190Y26215180D01*
X32111190Y26215180D02*
X32015952Y26167561D01*
X32015952Y26167561D02*
X31968333Y26119942D01*
X31968333Y26119942D02*
X31920714Y26024704D01*
X31920714Y26024704D02*
X31873095Y25834228D01*
X31873095Y25834228D02*
X31873095Y25596133D01*
X31873095Y25596133D02*
X31920714Y25405657D01*
X31920714Y25405657D02*
X31968333Y25310419D01*
X31968333Y25310419D02*
X32015952Y25262800D01*
X32015952Y25262800D02*
X32111190Y25215180D01*
X32111190Y25215180D02*
X32206428Y25215180D01*
X32206428Y25215180D02*
X32301666Y25262800D01*
X32301666Y25262800D02*
X32349285Y25310419D01*
X32349285Y25310419D02*
X32396904Y25405657D01*
X32396904Y25405657D02*
X32444523Y25596133D01*
X32444523Y25596133D02*
X32444523Y25834228D01*
X32444523Y25834228D02*
X32396904Y26024704D01*
X32396904Y26024704D02*
X32349285Y26119942D01*
X32349285Y26119942D02*
X32301666Y26167561D01*
X32301666Y26167561D02*
X32206428Y26215180D01*
X60639819Y33536904D02*
X61449342Y33536904D01*
X61449342Y33536904D02*
X61544580Y33489285D01*
X61544580Y33489285D02*
X61592200Y33441666D01*
X61592200Y33441666D02*
X61639819Y33346428D01*
X61639819Y33346428D02*
X61639819Y33155952D01*
X61639819Y33155952D02*
X61592200Y33060714D01*
X61592200Y33060714D02*
X61544580Y33013095D01*
X61544580Y33013095D02*
X61449342Y32965476D01*
X61449342Y32965476D02*
X60639819Y32965476D01*
X60639819Y32013095D02*
X60639819Y32489285D01*
X60639819Y32489285D02*
X61116009Y32536904D01*
X61116009Y32536904D02*
X61068390Y32489285D01*
X61068390Y32489285D02*
X61020771Y32394047D01*
X61020771Y32394047D02*
X61020771Y32155952D01*
X61020771Y32155952D02*
X61068390Y32060714D01*
X61068390Y32060714D02*
X61116009Y32013095D01*
X61116009Y32013095D02*
X61211247Y31965476D01*
X61211247Y31965476D02*
X61449342Y31965476D01*
X61449342Y31965476D02*
X61544580Y32013095D01*
X61544580Y32013095D02*
X61592200Y32060714D01*
X61592200Y32060714D02*
X61639819Y32155952D01*
X61639819Y32155952D02*
X61639819Y32394047D01*
X61639819Y32394047D02*
X61592200Y32489285D01*
X61592200Y32489285D02*
X61544580Y32536904D01*
X76392857Y37045180D02*
X76726190Y37521371D01*
X76964285Y37045180D02*
X76964285Y38045180D01*
X76964285Y38045180D02*
X76583333Y38045180D01*
X76583333Y38045180D02*
X76488095Y37997561D01*
X76488095Y37997561D02*
X76440476Y37949942D01*
X76440476Y37949942D02*
X76392857Y37854704D01*
X76392857Y37854704D02*
X76392857Y37711847D01*
X76392857Y37711847D02*
X76440476Y37616609D01*
X76440476Y37616609D02*
X76488095Y37568990D01*
X76488095Y37568990D02*
X76583333Y37521371D01*
X76583333Y37521371D02*
X76964285Y37521371D01*
X76011904Y37949942D02*
X75964285Y37997561D01*
X75964285Y37997561D02*
X75869047Y38045180D01*
X75869047Y38045180D02*
X75630952Y38045180D01*
X75630952Y38045180D02*
X75535714Y37997561D01*
X75535714Y37997561D02*
X75488095Y37949942D01*
X75488095Y37949942D02*
X75440476Y37854704D01*
X75440476Y37854704D02*
X75440476Y37759466D01*
X75440476Y37759466D02*
X75488095Y37616609D01*
X75488095Y37616609D02*
X76059523Y37045180D01*
X76059523Y37045180D02*
X75440476Y37045180D01*
X75107142Y38045180D02*
X74488095Y38045180D01*
X74488095Y38045180D02*
X74821428Y37664228D01*
X74821428Y37664228D02*
X74678571Y37664228D01*
X74678571Y37664228D02*
X74583333Y37616609D01*
X74583333Y37616609D02*
X74535714Y37568990D01*
X74535714Y37568990D02*
X74488095Y37473752D01*
X74488095Y37473752D02*
X74488095Y37235657D01*
X74488095Y37235657D02*
X74535714Y37140419D01*
X74535714Y37140419D02*
X74583333Y37092800D01*
X74583333Y37092800D02*
X74678571Y37045180D01*
X74678571Y37045180D02*
X74964285Y37045180D01*
X74964285Y37045180D02*
X75059523Y37092800D01*
X75059523Y37092800D02*
X75107142Y37140419D01*
X78447857Y25030180D02*
X78781190Y25506371D01*
X79019285Y25030180D02*
X79019285Y26030180D01*
X79019285Y26030180D02*
X78638333Y26030180D01*
X78638333Y26030180D02*
X78543095Y25982561D01*
X78543095Y25982561D02*
X78495476Y25934942D01*
X78495476Y25934942D02*
X78447857Y25839704D01*
X78447857Y25839704D02*
X78447857Y25696847D01*
X78447857Y25696847D02*
X78495476Y25601609D01*
X78495476Y25601609D02*
X78543095Y25553990D01*
X78543095Y25553990D02*
X78638333Y25506371D01*
X78638333Y25506371D02*
X79019285Y25506371D01*
X78114523Y26030180D02*
X77495476Y26030180D01*
X77495476Y26030180D02*
X77828809Y25649228D01*
X77828809Y25649228D02*
X77685952Y25649228D01*
X77685952Y25649228D02*
X77590714Y25601609D01*
X77590714Y25601609D02*
X77543095Y25553990D01*
X77543095Y25553990D02*
X77495476Y25458752D01*
X77495476Y25458752D02*
X77495476Y25220657D01*
X77495476Y25220657D02*
X77543095Y25125419D01*
X77543095Y25125419D02*
X77590714Y25077800D01*
X77590714Y25077800D02*
X77685952Y25030180D01*
X77685952Y25030180D02*
X77971666Y25030180D01*
X77971666Y25030180D02*
X78066904Y25077800D01*
X78066904Y25077800D02*
X78114523Y25125419D01*
X76876428Y26030180D02*
X76781190Y26030180D01*
X76781190Y26030180D02*
X76685952Y25982561D01*
X76685952Y25982561D02*
X76638333Y25934942D01*
X76638333Y25934942D02*
X76590714Y25839704D01*
X76590714Y25839704D02*
X76543095Y25649228D01*
X76543095Y25649228D02*
X76543095Y25411133D01*
X76543095Y25411133D02*
X76590714Y25220657D01*
X76590714Y25220657D02*
X76638333Y25125419D01*
X76638333Y25125419D02*
X76685952Y25077800D01*
X76685952Y25077800D02*
X76781190Y25030180D01*
X76781190Y25030180D02*
X76876428Y25030180D01*
X76876428Y25030180D02*
X76971666Y25077800D01*
X76971666Y25077800D02*
X77019285Y25125419D01*
X77019285Y25125419D02*
X77066904Y25220657D01*
X77066904Y25220657D02*
X77114523Y25411133D01*
X77114523Y25411133D02*
X77114523Y25649228D01*
X77114523Y25649228D02*
X77066904Y25839704D01*
X77066904Y25839704D02*
X77019285Y25934942D01*
X77019285Y25934942D02*
X76971666Y25982561D01*
X76971666Y25982561D02*
X76876428Y26030180D01*
X31469580Y22167857D02*
X31517200Y22215476D01*
X31517200Y22215476D02*
X31564819Y22358333D01*
X31564819Y22358333D02*
X31564819Y22453571D01*
X31564819Y22453571D02*
X31517200Y22596428D01*
X31517200Y22596428D02*
X31421961Y22691666D01*
X31421961Y22691666D02*
X31326723Y22739285D01*
X31326723Y22739285D02*
X31136247Y22786904D01*
X31136247Y22786904D02*
X30993390Y22786904D01*
X30993390Y22786904D02*
X30802914Y22739285D01*
X30802914Y22739285D02*
X30707676Y22691666D01*
X30707676Y22691666D02*
X30612438Y22596428D01*
X30612438Y22596428D02*
X30564819Y22453571D01*
X30564819Y22453571D02*
X30564819Y22358333D01*
X30564819Y22358333D02*
X30612438Y22215476D01*
X30612438Y22215476D02*
X30660057Y22167857D01*
X31564819Y21215476D02*
X31564819Y21786904D01*
X31564819Y21501190D02*
X30564819Y21501190D01*
X30564819Y21501190D02*
X30707676Y21596428D01*
X30707676Y21596428D02*
X30802914Y21691666D01*
X30802914Y21691666D02*
X30850533Y21786904D01*
X30898152Y20358333D02*
X31564819Y20358333D01*
X30517200Y20596428D02*
X31231485Y20834523D01*
X31231485Y20834523D02*
X31231485Y20215476D01*
X60808093Y16875179D02*
X60808093Y17875179D01*
X60808093Y17875179D02*
X60569998Y17875179D01*
X60569998Y17875179D02*
X60427141Y17827560D01*
X60427141Y17827560D02*
X60331903Y17732322D01*
X60331903Y17732322D02*
X60284284Y17637084D01*
X60284284Y17637084D02*
X60236665Y17446608D01*
X60236665Y17446608D02*
X60236665Y17303751D01*
X60236665Y17303751D02*
X60284284Y17113275D01*
X60284284Y17113275D02*
X60331903Y17018037D01*
X60331903Y17018037D02*
X60427141Y16922799D01*
X60427141Y16922799D02*
X60569998Y16875179D01*
X60569998Y16875179D02*
X60808093Y16875179D01*
X59665236Y17446608D02*
X59760474Y17494227D01*
X59760474Y17494227D02*
X59808093Y17541846D01*
X59808093Y17541846D02*
X59855712Y17637084D01*
X59855712Y17637084D02*
X59855712Y17684703D01*
X59855712Y17684703D02*
X59808093Y17779941D01*
X59808093Y17779941D02*
X59760474Y17827560D01*
X59760474Y17827560D02*
X59665236Y17875179D01*
X59665236Y17875179D02*
X59474760Y17875179D01*
X59474760Y17875179D02*
X59379522Y17827560D01*
X59379522Y17827560D02*
X59331903Y17779941D01*
X59331903Y17779941D02*
X59284284Y17684703D01*
X59284284Y17684703D02*
X59284284Y17637084D01*
X59284284Y17637084D02*
X59331903Y17541846D01*
X59331903Y17541846D02*
X59379522Y17494227D01*
X59379522Y17494227D02*
X59474760Y17446608D01*
X59474760Y17446608D02*
X59665236Y17446608D01*
X59665236Y17446608D02*
X59760474Y17398989D01*
X59760474Y17398989D02*
X59808093Y17351370D01*
X59808093Y17351370D02*
X59855712Y17256132D01*
X59855712Y17256132D02*
X59855712Y17065656D01*
X59855712Y17065656D02*
X59808093Y16970418D01*
X59808093Y16970418D02*
X59760474Y16922799D01*
X59760474Y16922799D02*
X59665236Y16875179D01*
X59665236Y16875179D02*
X59474760Y16875179D01*
X59474760Y16875179D02*
X59379522Y16922799D01*
X59379522Y16922799D02*
X59331903Y16970418D01*
X59331903Y16970418D02*
X59284284Y17065656D01*
X59284284Y17065656D02*
X59284284Y17256132D01*
X59284284Y17256132D02*
X59331903Y17351370D01*
X59331903Y17351370D02*
X59379522Y17398989D01*
X59379522Y17398989D02*
X59474760Y17446608D01*
X61343093Y23170179D02*
X61343093Y24170179D01*
X61343093Y24170179D02*
X61104998Y24170179D01*
X61104998Y24170179D02*
X60962141Y24122560D01*
X60962141Y24122560D02*
X60866903Y24027322D01*
X60866903Y24027322D02*
X60819284Y23932084D01*
X60819284Y23932084D02*
X60771665Y23741608D01*
X60771665Y23741608D02*
X60771665Y23598751D01*
X60771665Y23598751D02*
X60819284Y23408275D01*
X60819284Y23408275D02*
X60866903Y23313037D01*
X60866903Y23313037D02*
X60962141Y23217799D01*
X60962141Y23217799D02*
X61104998Y23170179D01*
X61104998Y23170179D02*
X61343093Y23170179D01*
X59914522Y24170179D02*
X60104998Y24170179D01*
X60104998Y24170179D02*
X60200236Y24122560D01*
X60200236Y24122560D02*
X60247855Y24074941D01*
X60247855Y24074941D02*
X60343093Y23932084D01*
X60343093Y23932084D02*
X60390712Y23741608D01*
X60390712Y23741608D02*
X60390712Y23360656D01*
X60390712Y23360656D02*
X60343093Y23265418D01*
X60343093Y23265418D02*
X60295474Y23217799D01*
X60295474Y23217799D02*
X60200236Y23170179D01*
X60200236Y23170179D02*
X60009760Y23170179D01*
X60009760Y23170179D02*
X59914522Y23217799D01*
X59914522Y23217799D02*
X59866903Y23265418D01*
X59866903Y23265418D02*
X59819284Y23360656D01*
X59819284Y23360656D02*
X59819284Y23598751D01*
X59819284Y23598751D02*
X59866903Y23693989D01*
X59866903Y23693989D02*
X59914522Y23741608D01*
X59914522Y23741608D02*
X60009760Y23789227D01*
X60009760Y23789227D02*
X60200236Y23789227D01*
X60200236Y23789227D02*
X60295474Y23741608D01*
X60295474Y23741608D02*
X60343093Y23693989D01*
X60343093Y23693989D02*
X60390712Y23598751D01*
X56479580Y19057857D02*
X56527200Y19105476D01*
X56527200Y19105476D02*
X56574819Y19248333D01*
X56574819Y19248333D02*
X56574819Y19343571D01*
X56574819Y19343571D02*
X56527200Y19486428D01*
X56527200Y19486428D02*
X56431961Y19581666D01*
X56431961Y19581666D02*
X56336723Y19629285D01*
X56336723Y19629285D02*
X56146247Y19676904D01*
X56146247Y19676904D02*
X56003390Y19676904D01*
X56003390Y19676904D02*
X55812914Y19629285D01*
X55812914Y19629285D02*
X55717676Y19581666D01*
X55717676Y19581666D02*
X55622438Y19486428D01*
X55622438Y19486428D02*
X55574819Y19343571D01*
X55574819Y19343571D02*
X55574819Y19248333D01*
X55574819Y19248333D02*
X55622438Y19105476D01*
X55622438Y19105476D02*
X55670057Y19057857D01*
X55670057Y18676904D02*
X55622438Y18629285D01*
X55622438Y18629285D02*
X55574819Y18534047D01*
X55574819Y18534047D02*
X55574819Y18295952D01*
X55574819Y18295952D02*
X55622438Y18200714D01*
X55622438Y18200714D02*
X55670057Y18153095D01*
X55670057Y18153095D02*
X55765295Y18105476D01*
X55765295Y18105476D02*
X55860533Y18105476D01*
X55860533Y18105476D02*
X56003390Y18153095D01*
X56003390Y18153095D02*
X56574819Y18724523D01*
X56574819Y18724523D02*
X56574819Y18105476D01*
X55574819Y17486428D02*
X55574819Y17391190D01*
X55574819Y17391190D02*
X55622438Y17295952D01*
X55622438Y17295952D02*
X55670057Y17248333D01*
X55670057Y17248333D02*
X55765295Y17200714D01*
X55765295Y17200714D02*
X55955771Y17153095D01*
X55955771Y17153095D02*
X56193866Y17153095D01*
X56193866Y17153095D02*
X56384342Y17200714D01*
X56384342Y17200714D02*
X56479580Y17248333D01*
X56479580Y17248333D02*
X56527200Y17295952D01*
X56527200Y17295952D02*
X56574819Y17391190D01*
X56574819Y17391190D02*
X56574819Y17486428D01*
X56574819Y17486428D02*
X56527200Y17581666D01*
X56527200Y17581666D02*
X56479580Y17629285D01*
X56479580Y17629285D02*
X56384342Y17676904D01*
X56384342Y17676904D02*
X56193866Y17724523D01*
X56193866Y17724523D02*
X55955771Y17724523D01*
X55955771Y17724523D02*
X55765295Y17676904D01*
X55765295Y17676904D02*
X55670057Y17629285D01*
X55670057Y17629285D02*
X55622438Y17581666D01*
X55622438Y17581666D02*
X55574819Y17486428D01*
X16974819Y5577857D02*
X16498628Y5911190D01*
X16974819Y6149285D02*
X15974819Y6149285D01*
X15974819Y6149285D02*
X15974819Y5768333D01*
X15974819Y5768333D02*
X16022438Y5673095D01*
X16022438Y5673095D02*
X16070057Y5625476D01*
X16070057Y5625476D02*
X16165295Y5577857D01*
X16165295Y5577857D02*
X16308152Y5577857D01*
X16308152Y5577857D02*
X16403390Y5625476D01*
X16403390Y5625476D02*
X16451009Y5673095D01*
X16451009Y5673095D02*
X16498628Y5768333D01*
X16498628Y5768333D02*
X16498628Y6149285D01*
X15974819Y4720714D02*
X15974819Y4911190D01*
X15974819Y4911190D02*
X16022438Y5006428D01*
X16022438Y5006428D02*
X16070057Y5054047D01*
X16070057Y5054047D02*
X16212914Y5149285D01*
X16212914Y5149285D02*
X16403390Y5196904D01*
X16403390Y5196904D02*
X16784342Y5196904D01*
X16784342Y5196904D02*
X16879580Y5149285D01*
X16879580Y5149285D02*
X16927200Y5101666D01*
X16927200Y5101666D02*
X16974819Y5006428D01*
X16974819Y5006428D02*
X16974819Y4815952D01*
X16974819Y4815952D02*
X16927200Y4720714D01*
X16927200Y4720714D02*
X16879580Y4673095D01*
X16879580Y4673095D02*
X16784342Y4625476D01*
X16784342Y4625476D02*
X16546247Y4625476D01*
X16546247Y4625476D02*
X16451009Y4673095D01*
X16451009Y4673095D02*
X16403390Y4720714D01*
X16403390Y4720714D02*
X16355771Y4815952D01*
X16355771Y4815952D02*
X16355771Y5006428D01*
X16355771Y5006428D02*
X16403390Y5101666D01*
X16403390Y5101666D02*
X16451009Y5149285D01*
X16451009Y5149285D02*
X16546247Y5196904D01*
X15974819Y4006428D02*
X15974819Y3911190D01*
X15974819Y3911190D02*
X16022438Y3815952D01*
X16022438Y3815952D02*
X16070057Y3768333D01*
X16070057Y3768333D02*
X16165295Y3720714D01*
X16165295Y3720714D02*
X16355771Y3673095D01*
X16355771Y3673095D02*
X16593866Y3673095D01*
X16593866Y3673095D02*
X16784342Y3720714D01*
X16784342Y3720714D02*
X16879580Y3768333D01*
X16879580Y3768333D02*
X16927200Y3815952D01*
X16927200Y3815952D02*
X16974819Y3911190D01*
X16974819Y3911190D02*
X16974819Y4006428D01*
X16974819Y4006428D02*
X16927200Y4101666D01*
X16927200Y4101666D02*
X16879580Y4149285D01*
X16879580Y4149285D02*
X16784342Y4196904D01*
X16784342Y4196904D02*
X16593866Y4244523D01*
X16593866Y4244523D02*
X16355771Y4244523D01*
X16355771Y4244523D02*
X16165295Y4196904D01*
X16165295Y4196904D02*
X16070057Y4149285D01*
X16070057Y4149285D02*
X16022438Y4101666D01*
X16022438Y4101666D02*
X15974819Y4006428D01*
X35427857Y18165180D02*
X35761190Y18641371D01*
X35999285Y18165180D02*
X35999285Y19165180D01*
X35999285Y19165180D02*
X35618333Y19165180D01*
X35618333Y19165180D02*
X35523095Y19117561D01*
X35523095Y19117561D02*
X35475476Y19069942D01*
X35475476Y19069942D02*
X35427857Y18974704D01*
X35427857Y18974704D02*
X35427857Y18831847D01*
X35427857Y18831847D02*
X35475476Y18736609D01*
X35475476Y18736609D02*
X35523095Y18688990D01*
X35523095Y18688990D02*
X35618333Y18641371D01*
X35618333Y18641371D02*
X35999285Y18641371D01*
X35046904Y19069942D02*
X34999285Y19117561D01*
X34999285Y19117561D02*
X34904047Y19165180D01*
X34904047Y19165180D02*
X34665952Y19165180D01*
X34665952Y19165180D02*
X34570714Y19117561D01*
X34570714Y19117561D02*
X34523095Y19069942D01*
X34523095Y19069942D02*
X34475476Y18974704D01*
X34475476Y18974704D02*
X34475476Y18879466D01*
X34475476Y18879466D02*
X34523095Y18736609D01*
X34523095Y18736609D02*
X35094523Y18165180D01*
X35094523Y18165180D02*
X34475476Y18165180D01*
X33618333Y19165180D02*
X33808809Y19165180D01*
X33808809Y19165180D02*
X33904047Y19117561D01*
X33904047Y19117561D02*
X33951666Y19069942D01*
X33951666Y19069942D02*
X34046904Y18927085D01*
X34046904Y18927085D02*
X34094523Y18736609D01*
X34094523Y18736609D02*
X34094523Y18355657D01*
X34094523Y18355657D02*
X34046904Y18260419D01*
X34046904Y18260419D02*
X33999285Y18212800D01*
X33999285Y18212800D02*
X33904047Y18165180D01*
X33904047Y18165180D02*
X33713571Y18165180D01*
X33713571Y18165180D02*
X33618333Y18212800D01*
X33618333Y18212800D02*
X33570714Y18260419D01*
X33570714Y18260419D02*
X33523095Y18355657D01*
X33523095Y18355657D02*
X33523095Y18593752D01*
X33523095Y18593752D02*
X33570714Y18688990D01*
X33570714Y18688990D02*
X33618333Y18736609D01*
X33618333Y18736609D02*
X33713571Y18784228D01*
X33713571Y18784228D02*
X33904047Y18784228D01*
X33904047Y18784228D02*
X33999285Y18736609D01*
X33999285Y18736609D02*
X34046904Y18688990D01*
X34046904Y18688990D02*
X34094523Y18593752D01*
X23737857Y15430419D02*
X23785476Y15382800D01*
X23785476Y15382800D02*
X23928333Y15335180D01*
X23928333Y15335180D02*
X24023571Y15335180D01*
X24023571Y15335180D02*
X24166428Y15382800D01*
X24166428Y15382800D02*
X24261666Y15478038D01*
X24261666Y15478038D02*
X24309285Y15573276D01*
X24309285Y15573276D02*
X24356904Y15763752D01*
X24356904Y15763752D02*
X24356904Y15906609D01*
X24356904Y15906609D02*
X24309285Y16097085D01*
X24309285Y16097085D02*
X24261666Y16192323D01*
X24261666Y16192323D02*
X24166428Y16287561D01*
X24166428Y16287561D02*
X24023571Y16335180D01*
X24023571Y16335180D02*
X23928333Y16335180D01*
X23928333Y16335180D02*
X23785476Y16287561D01*
X23785476Y16287561D02*
X23737857Y16239942D01*
X22833095Y16335180D02*
X23309285Y16335180D01*
X23309285Y16335180D02*
X23356904Y15858990D01*
X23356904Y15858990D02*
X23309285Y15906609D01*
X23309285Y15906609D02*
X23214047Y15954228D01*
X23214047Y15954228D02*
X22975952Y15954228D01*
X22975952Y15954228D02*
X22880714Y15906609D01*
X22880714Y15906609D02*
X22833095Y15858990D01*
X22833095Y15858990D02*
X22785476Y15763752D01*
X22785476Y15763752D02*
X22785476Y15525657D01*
X22785476Y15525657D02*
X22833095Y15430419D01*
X22833095Y15430419D02*
X22880714Y15382800D01*
X22880714Y15382800D02*
X22975952Y15335180D01*
X22975952Y15335180D02*
X23214047Y15335180D01*
X23214047Y15335180D02*
X23309285Y15382800D01*
X23309285Y15382800D02*
X23356904Y15430419D01*
X22404523Y16239942D02*
X22356904Y16287561D01*
X22356904Y16287561D02*
X22261666Y16335180D01*
X22261666Y16335180D02*
X22023571Y16335180D01*
X22023571Y16335180D02*
X21928333Y16287561D01*
X21928333Y16287561D02*
X21880714Y16239942D01*
X21880714Y16239942D02*
X21833095Y16144704D01*
X21833095Y16144704D02*
X21833095Y16049466D01*
X21833095Y16049466D02*
X21880714Y15906609D01*
X21880714Y15906609D02*
X22452142Y15335180D01*
X22452142Y15335180D02*
X21833095Y15335180D01*
X26524140Y24996786D02*
X25524140Y24996786D01*
X25524140Y24996786D02*
X25524140Y24758691D01*
X25524140Y24758691D02*
X25571759Y24615834D01*
X25571759Y24615834D02*
X25666997Y24520596D01*
X25666997Y24520596D02*
X25762235Y24472977D01*
X25762235Y24472977D02*
X25952711Y24425358D01*
X25952711Y24425358D02*
X26095568Y24425358D01*
X26095568Y24425358D02*
X26286044Y24472977D01*
X26286044Y24472977D02*
X26381282Y24520596D01*
X26381282Y24520596D02*
X26476521Y24615834D01*
X26476521Y24615834D02*
X26524140Y24758691D01*
X26524140Y24758691D02*
X26524140Y24996786D01*
X26524140Y23472977D02*
X26524140Y24044405D01*
X26524140Y23758691D02*
X25524140Y23758691D01*
X25524140Y23758691D02*
X25666997Y23853929D01*
X25666997Y23853929D02*
X25762235Y23949167D01*
X25762235Y23949167D02*
X25809854Y24044405D01*
X25524140Y23139643D02*
X25524140Y22472977D01*
X25524140Y22472977D02*
X26524140Y22901548D01*
X78944820Y32548093D02*
X77944820Y32548093D01*
X77944820Y32548093D02*
X77944820Y32309998D01*
X77944820Y32309998D02*
X77992439Y32167141D01*
X77992439Y32167141D02*
X78087677Y32071903D01*
X78087677Y32071903D02*
X78182915Y32024284D01*
X78182915Y32024284D02*
X78373391Y31976665D01*
X78373391Y31976665D02*
X78516248Y31976665D01*
X78516248Y31976665D02*
X78706724Y32024284D01*
X78706724Y32024284D02*
X78801962Y32071903D01*
X78801962Y32071903D02*
X78897201Y32167141D01*
X78897201Y32167141D02*
X78944820Y32309998D01*
X78944820Y32309998D02*
X78944820Y32548093D01*
X78944820Y31500474D02*
X78944820Y31309998D01*
X78944820Y31309998D02*
X78897201Y31214760D01*
X78897201Y31214760D02*
X78849581Y31167141D01*
X78849581Y31167141D02*
X78706724Y31071903D01*
X78706724Y31071903D02*
X78516248Y31024284D01*
X78516248Y31024284D02*
X78135296Y31024284D01*
X78135296Y31024284D02*
X78040058Y31071903D01*
X78040058Y31071903D02*
X77992439Y31119522D01*
X77992439Y31119522D02*
X77944820Y31214760D01*
X77944820Y31214760D02*
X77944820Y31405236D01*
X77944820Y31405236D02*
X77992439Y31500474D01*
X77992439Y31500474D02*
X78040058Y31548093D01*
X78040058Y31548093D02*
X78135296Y31595712D01*
X78135296Y31595712D02*
X78373391Y31595712D01*
X78373391Y31595712D02*
X78468629Y31548093D01*
X78468629Y31548093D02*
X78516248Y31500474D01*
X78516248Y31500474D02*
X78563867Y31405236D01*
X78563867Y31405236D02*
X78563867Y31214760D01*
X78563867Y31214760D02*
X78516248Y31119522D01*
X78516248Y31119522D02*
X78468629Y31071903D01*
X78468629Y31071903D02*
X78373391Y31024284D01*
X72072857Y14465419D02*
X72120476Y14417800D01*
X72120476Y14417800D02*
X72263333Y14370180D01*
X72263333Y14370180D02*
X72358571Y14370180D01*
X72358571Y14370180D02*
X72501428Y14417800D01*
X72501428Y14417800D02*
X72596666Y14513038D01*
X72596666Y14513038D02*
X72644285Y14608276D01*
X72644285Y14608276D02*
X72691904Y14798752D01*
X72691904Y14798752D02*
X72691904Y14941609D01*
X72691904Y14941609D02*
X72644285Y15132085D01*
X72644285Y15132085D02*
X72596666Y15227323D01*
X72596666Y15227323D02*
X72501428Y15322561D01*
X72501428Y15322561D02*
X72358571Y15370180D01*
X72358571Y15370180D02*
X72263333Y15370180D01*
X72263333Y15370180D02*
X72120476Y15322561D01*
X72120476Y15322561D02*
X72072857Y15274942D01*
X71120476Y14370180D02*
X71691904Y14370180D01*
X71406190Y14370180D02*
X71406190Y15370180D01*
X71406190Y15370180D02*
X71501428Y15227323D01*
X71501428Y15227323D02*
X71596666Y15132085D01*
X71596666Y15132085D02*
X71691904Y15084466D01*
X70787142Y15370180D02*
X70120476Y15370180D01*
X70120476Y15370180D02*
X70549047Y14370180D01*
X49322857Y15248591D02*
X49656190Y15724782D01*
X49894285Y15248591D02*
X49894285Y16248591D01*
X49894285Y16248591D02*
X49513333Y16248591D01*
X49513333Y16248591D02*
X49418095Y16200972D01*
X49418095Y16200972D02*
X49370476Y16153353D01*
X49370476Y16153353D02*
X49322857Y16058115D01*
X49322857Y16058115D02*
X49322857Y15915258D01*
X49322857Y15915258D02*
X49370476Y15820020D01*
X49370476Y15820020D02*
X49418095Y15772401D01*
X49418095Y15772401D02*
X49513333Y15724782D01*
X49513333Y15724782D02*
X49894285Y15724782D01*
X48989523Y16248591D02*
X48370476Y16248591D01*
X48370476Y16248591D02*
X48703809Y15867639D01*
X48703809Y15867639D02*
X48560952Y15867639D01*
X48560952Y15867639D02*
X48465714Y15820020D01*
X48465714Y15820020D02*
X48418095Y15772401D01*
X48418095Y15772401D02*
X48370476Y15677163D01*
X48370476Y15677163D02*
X48370476Y15439068D01*
X48370476Y15439068D02*
X48418095Y15343830D01*
X48418095Y15343830D02*
X48465714Y15296211D01*
X48465714Y15296211D02*
X48560952Y15248591D01*
X48560952Y15248591D02*
X48846666Y15248591D01*
X48846666Y15248591D02*
X48941904Y15296211D01*
X48941904Y15296211D02*
X48989523Y15343830D01*
X47513333Y16248591D02*
X47703809Y16248591D01*
X47703809Y16248591D02*
X47799047Y16200972D01*
X47799047Y16200972D02*
X47846666Y16153353D01*
X47846666Y16153353D02*
X47941904Y16010496D01*
X47941904Y16010496D02*
X47989523Y15820020D01*
X47989523Y15820020D02*
X47989523Y15439068D01*
X47989523Y15439068D02*
X47941904Y15343830D01*
X47941904Y15343830D02*
X47894285Y15296211D01*
X47894285Y15296211D02*
X47799047Y15248591D01*
X47799047Y15248591D02*
X47608571Y15248591D01*
X47608571Y15248591D02*
X47513333Y15296211D01*
X47513333Y15296211D02*
X47465714Y15343830D01*
X47465714Y15343830D02*
X47418095Y15439068D01*
X47418095Y15439068D02*
X47418095Y15677163D01*
X47418095Y15677163D02*
X47465714Y15772401D01*
X47465714Y15772401D02*
X47513333Y15820020D01*
X47513333Y15820020D02*
X47608571Y15867639D01*
X47608571Y15867639D02*
X47799047Y15867639D01*
X47799047Y15867639D02*
X47894285Y15820020D01*
X47894285Y15820020D02*
X47941904Y15772401D01*
X47941904Y15772401D02*
X47989523Y15677163D01*
X63844140Y26570595D02*
X62844140Y26570595D01*
X62844140Y26570595D02*
X62844140Y26332500D01*
X62844140Y26332500D02*
X62891759Y26189643D01*
X62891759Y26189643D02*
X62986997Y26094405D01*
X62986997Y26094405D02*
X63082235Y26046786D01*
X63082235Y26046786D02*
X63272711Y25999167D01*
X63272711Y25999167D02*
X63415568Y25999167D01*
X63415568Y25999167D02*
X63606044Y26046786D01*
X63606044Y26046786D02*
X63701282Y26094405D01*
X63701282Y26094405D02*
X63796521Y26189643D01*
X63796521Y26189643D02*
X63844140Y26332500D01*
X63844140Y26332500D02*
X63844140Y26570595D01*
X62844140Y25094405D02*
X62844140Y25570595D01*
X62844140Y25570595D02*
X63320330Y25618214D01*
X63320330Y25618214D02*
X63272711Y25570595D01*
X63272711Y25570595D02*
X63225092Y25475357D01*
X63225092Y25475357D02*
X63225092Y25237262D01*
X63225092Y25237262D02*
X63272711Y25142024D01*
X63272711Y25142024D02*
X63320330Y25094405D01*
X63320330Y25094405D02*
X63415568Y25046786D01*
X63415568Y25046786D02*
X63653663Y25046786D01*
X63653663Y25046786D02*
X63748901Y25094405D01*
X63748901Y25094405D02*
X63796521Y25142024D01*
X63796521Y25142024D02*
X63844140Y25237262D01*
X63844140Y25237262D02*
X63844140Y25475357D01*
X63844140Y25475357D02*
X63796521Y25570595D01*
X63796521Y25570595D02*
X63748901Y25618214D01*
X59934819Y33397857D02*
X59458628Y33731190D01*
X59934819Y33969285D02*
X58934819Y33969285D01*
X58934819Y33969285D02*
X58934819Y33588333D01*
X58934819Y33588333D02*
X58982438Y33493095D01*
X58982438Y33493095D02*
X59030057Y33445476D01*
X59030057Y33445476D02*
X59125295Y33397857D01*
X59125295Y33397857D02*
X59268152Y33397857D01*
X59268152Y33397857D02*
X59363390Y33445476D01*
X59363390Y33445476D02*
X59411009Y33493095D01*
X59411009Y33493095D02*
X59458628Y33588333D01*
X59458628Y33588333D02*
X59458628Y33969285D01*
X59934819Y32445476D02*
X59934819Y33016904D01*
X59934819Y32731190D02*
X58934819Y32731190D01*
X58934819Y32731190D02*
X59077676Y32826428D01*
X59077676Y32826428D02*
X59172914Y32921666D01*
X59172914Y32921666D02*
X59220533Y33016904D01*
X58934819Y32112142D02*
X58934819Y31445476D01*
X58934819Y31445476D02*
X59934819Y31874047D01*
X68604580Y28082857D02*
X68652200Y28130476D01*
X68652200Y28130476D02*
X68699819Y28273333D01*
X68699819Y28273333D02*
X68699819Y28368571D01*
X68699819Y28368571D02*
X68652200Y28511428D01*
X68652200Y28511428D02*
X68556961Y28606666D01*
X68556961Y28606666D02*
X68461723Y28654285D01*
X68461723Y28654285D02*
X68271247Y28701904D01*
X68271247Y28701904D02*
X68128390Y28701904D01*
X68128390Y28701904D02*
X67937914Y28654285D01*
X67937914Y28654285D02*
X67842676Y28606666D01*
X67842676Y28606666D02*
X67747438Y28511428D01*
X67747438Y28511428D02*
X67699819Y28368571D01*
X67699819Y28368571D02*
X67699819Y28273333D01*
X67699819Y28273333D02*
X67747438Y28130476D01*
X67747438Y28130476D02*
X67795057Y28082857D01*
X67699819Y27749523D02*
X67699819Y27130476D01*
X67699819Y27130476D02*
X68080771Y27463809D01*
X68080771Y27463809D02*
X68080771Y27320952D01*
X68080771Y27320952D02*
X68128390Y27225714D01*
X68128390Y27225714D02*
X68176009Y27178095D01*
X68176009Y27178095D02*
X68271247Y27130476D01*
X68271247Y27130476D02*
X68509342Y27130476D01*
X68509342Y27130476D02*
X68604580Y27178095D01*
X68604580Y27178095D02*
X68652200Y27225714D01*
X68652200Y27225714D02*
X68699819Y27320952D01*
X68699819Y27320952D02*
X68699819Y27606666D01*
X68699819Y27606666D02*
X68652200Y27701904D01*
X68652200Y27701904D02*
X68604580Y27749523D01*
X67795057Y26749523D02*
X67747438Y26701904D01*
X67747438Y26701904D02*
X67699819Y26606666D01*
X67699819Y26606666D02*
X67699819Y26368571D01*
X67699819Y26368571D02*
X67747438Y26273333D01*
X67747438Y26273333D02*
X67795057Y26225714D01*
X67795057Y26225714D02*
X67890295Y26178095D01*
X67890295Y26178095D02*
X67985533Y26178095D01*
X67985533Y26178095D02*
X68128390Y26225714D01*
X68128390Y26225714D02*
X68699819Y26797142D01*
X68699819Y26797142D02*
X68699819Y26178095D01*
X61404818Y18825594D02*
X60404818Y18825594D01*
X60404818Y18825594D02*
X60404818Y18587499D01*
X60404818Y18587499D02*
X60452437Y18444642D01*
X60452437Y18444642D02*
X60547675Y18349404D01*
X60547675Y18349404D02*
X60642913Y18301785D01*
X60642913Y18301785D02*
X60833389Y18254166D01*
X60833389Y18254166D02*
X60976246Y18254166D01*
X60976246Y18254166D02*
X61166722Y18301785D01*
X61166722Y18301785D02*
X61261960Y18349404D01*
X61261960Y18349404D02*
X61357199Y18444642D01*
X61357199Y18444642D02*
X61404818Y18587499D01*
X61404818Y18587499D02*
X61404818Y18825594D01*
X60404818Y17920832D02*
X60404818Y17254166D01*
X60404818Y17254166D02*
X61404818Y17682737D01*
X52289580Y13697857D02*
X52337200Y13745476D01*
X52337200Y13745476D02*
X52384819Y13888333D01*
X52384819Y13888333D02*
X52384819Y13983571D01*
X52384819Y13983571D02*
X52337200Y14126428D01*
X52337200Y14126428D02*
X52241961Y14221666D01*
X52241961Y14221666D02*
X52146723Y14269285D01*
X52146723Y14269285D02*
X51956247Y14316904D01*
X51956247Y14316904D02*
X51813390Y14316904D01*
X51813390Y14316904D02*
X51622914Y14269285D01*
X51622914Y14269285D02*
X51527676Y14221666D01*
X51527676Y14221666D02*
X51432438Y14126428D01*
X51432438Y14126428D02*
X51384819Y13983571D01*
X51384819Y13983571D02*
X51384819Y13888333D01*
X51384819Y13888333D02*
X51432438Y13745476D01*
X51432438Y13745476D02*
X51480057Y13697857D01*
X51384819Y13364523D02*
X51384819Y12745476D01*
X51384819Y12745476D02*
X51765771Y13078809D01*
X51765771Y13078809D02*
X51765771Y12935952D01*
X51765771Y12935952D02*
X51813390Y12840714D01*
X51813390Y12840714D02*
X51861009Y12793095D01*
X51861009Y12793095D02*
X51956247Y12745476D01*
X51956247Y12745476D02*
X52194342Y12745476D01*
X52194342Y12745476D02*
X52289580Y12793095D01*
X52289580Y12793095D02*
X52337200Y12840714D01*
X52337200Y12840714D02*
X52384819Y12935952D01*
X52384819Y12935952D02*
X52384819Y13221666D01*
X52384819Y13221666D02*
X52337200Y13316904D01*
X52337200Y13316904D02*
X52289580Y13364523D01*
X51384819Y12412142D02*
X51384819Y11793095D01*
X51384819Y11793095D02*
X51765771Y12126428D01*
X51765771Y12126428D02*
X51765771Y11983571D01*
X51765771Y11983571D02*
X51813390Y11888333D01*
X51813390Y11888333D02*
X51861009Y11840714D01*
X51861009Y11840714D02*
X51956247Y11793095D01*
X51956247Y11793095D02*
X52194342Y11793095D01*
X52194342Y11793095D02*
X52289580Y11840714D01*
X52289580Y11840714D02*
X52337200Y11888333D01*
X52337200Y11888333D02*
X52384819Y11983571D01*
X52384819Y11983571D02*
X52384819Y12269285D01*
X52384819Y12269285D02*
X52337200Y12364523D01*
X52337200Y12364523D02*
X52289580Y12412142D01*
X69612857Y34095180D02*
X69946190Y34571371D01*
X70184285Y34095180D02*
X70184285Y35095180D01*
X70184285Y35095180D02*
X69803333Y35095180D01*
X69803333Y35095180D02*
X69708095Y35047561D01*
X69708095Y35047561D02*
X69660476Y34999942D01*
X69660476Y34999942D02*
X69612857Y34904704D01*
X69612857Y34904704D02*
X69612857Y34761847D01*
X69612857Y34761847D02*
X69660476Y34666609D01*
X69660476Y34666609D02*
X69708095Y34618990D01*
X69708095Y34618990D02*
X69803333Y34571371D01*
X69803333Y34571371D02*
X70184285Y34571371D01*
X69231904Y34999942D02*
X69184285Y35047561D01*
X69184285Y35047561D02*
X69089047Y35095180D01*
X69089047Y35095180D02*
X68850952Y35095180D01*
X68850952Y35095180D02*
X68755714Y35047561D01*
X68755714Y35047561D02*
X68708095Y34999942D01*
X68708095Y34999942D02*
X68660476Y34904704D01*
X68660476Y34904704D02*
X68660476Y34809466D01*
X68660476Y34809466D02*
X68708095Y34666609D01*
X68708095Y34666609D02*
X69279523Y34095180D01*
X69279523Y34095180D02*
X68660476Y34095180D01*
X68327142Y35095180D02*
X67660476Y35095180D01*
X67660476Y35095180D02*
X68089047Y34095180D01*
X64847857Y10870181D02*
X65181190Y11346372D01*
X65419285Y10870181D02*
X65419285Y11870181D01*
X65419285Y11870181D02*
X65038333Y11870181D01*
X65038333Y11870181D02*
X64943095Y11822562D01*
X64943095Y11822562D02*
X64895476Y11774943D01*
X64895476Y11774943D02*
X64847857Y11679705D01*
X64847857Y11679705D02*
X64847857Y11536848D01*
X64847857Y11536848D02*
X64895476Y11441610D01*
X64895476Y11441610D02*
X64943095Y11393991D01*
X64943095Y11393991D02*
X65038333Y11346372D01*
X65038333Y11346372D02*
X65419285Y11346372D01*
X64466904Y11774943D02*
X64419285Y11822562D01*
X64419285Y11822562D02*
X64324047Y11870181D01*
X64324047Y11870181D02*
X64085952Y11870181D01*
X64085952Y11870181D02*
X63990714Y11822562D01*
X63990714Y11822562D02*
X63943095Y11774943D01*
X63943095Y11774943D02*
X63895476Y11679705D01*
X63895476Y11679705D02*
X63895476Y11584467D01*
X63895476Y11584467D02*
X63943095Y11441610D01*
X63943095Y11441610D02*
X64514523Y10870181D01*
X64514523Y10870181D02*
X63895476Y10870181D01*
X63276428Y11870181D02*
X63181190Y11870181D01*
X63181190Y11870181D02*
X63085952Y11822562D01*
X63085952Y11822562D02*
X63038333Y11774943D01*
X63038333Y11774943D02*
X62990714Y11679705D01*
X62990714Y11679705D02*
X62943095Y11489229D01*
X62943095Y11489229D02*
X62943095Y11251134D01*
X62943095Y11251134D02*
X62990714Y11060658D01*
X62990714Y11060658D02*
X63038333Y10965420D01*
X63038333Y10965420D02*
X63085952Y10917801D01*
X63085952Y10917801D02*
X63181190Y10870181D01*
X63181190Y10870181D02*
X63276428Y10870181D01*
X63276428Y10870181D02*
X63371666Y10917801D01*
X63371666Y10917801D02*
X63419285Y10965420D01*
X63419285Y10965420D02*
X63466904Y11060658D01*
X63466904Y11060658D02*
X63514523Y11251134D01*
X63514523Y11251134D02*
X63514523Y11489229D01*
X63514523Y11489229D02*
X63466904Y11679705D01*
X63466904Y11679705D02*
X63419285Y11774943D01*
X63419285Y11774943D02*
X63371666Y11822562D01*
X63371666Y11822562D02*
X63276428Y11870181D01*
X17454819Y31532857D02*
X16978628Y31866190D01*
X17454819Y32104285D02*
X16454819Y32104285D01*
X16454819Y32104285D02*
X16454819Y31723333D01*
X16454819Y31723333D02*
X16502438Y31628095D01*
X16502438Y31628095D02*
X16550057Y31580476D01*
X16550057Y31580476D02*
X16645295Y31532857D01*
X16645295Y31532857D02*
X16788152Y31532857D01*
X16788152Y31532857D02*
X16883390Y31580476D01*
X16883390Y31580476D02*
X16931009Y31628095D01*
X16931009Y31628095D02*
X16978628Y31723333D01*
X16978628Y31723333D02*
X16978628Y32104285D01*
X16454819Y30628095D02*
X16454819Y31104285D01*
X16454819Y31104285D02*
X16931009Y31151904D01*
X16931009Y31151904D02*
X16883390Y31104285D01*
X16883390Y31104285D02*
X16835771Y31009047D01*
X16835771Y31009047D02*
X16835771Y30770952D01*
X16835771Y30770952D02*
X16883390Y30675714D01*
X16883390Y30675714D02*
X16931009Y30628095D01*
X16931009Y30628095D02*
X17026247Y30580476D01*
X17026247Y30580476D02*
X17264342Y30580476D01*
X17264342Y30580476D02*
X17359580Y30628095D01*
X17359580Y30628095D02*
X17407200Y30675714D01*
X17407200Y30675714D02*
X17454819Y30770952D01*
X17454819Y30770952D02*
X17454819Y31009047D01*
X17454819Y31009047D02*
X17407200Y31104285D01*
X17407200Y31104285D02*
X17359580Y31151904D01*
X17454819Y30104285D02*
X17454819Y29913809D01*
X17454819Y29913809D02*
X17407200Y29818571D01*
X17407200Y29818571D02*
X17359580Y29770952D01*
X17359580Y29770952D02*
X17216723Y29675714D01*
X17216723Y29675714D02*
X17026247Y29628095D01*
X17026247Y29628095D02*
X16645295Y29628095D01*
X16645295Y29628095D02*
X16550057Y29675714D01*
X16550057Y29675714D02*
X16502438Y29723333D01*
X16502438Y29723333D02*
X16454819Y29818571D01*
X16454819Y29818571D02*
X16454819Y30009047D01*
X16454819Y30009047D02*
X16502438Y30104285D01*
X16502438Y30104285D02*
X16550057Y30151904D01*
X16550057Y30151904D02*
X16645295Y30199523D01*
X16645295Y30199523D02*
X16883390Y30199523D01*
X16883390Y30199523D02*
X16978628Y30151904D01*
X16978628Y30151904D02*
X17026247Y30104285D01*
X17026247Y30104285D02*
X17073866Y30009047D01*
X17073866Y30009047D02*
X17073866Y29818571D01*
X17073866Y29818571D02*
X17026247Y29723333D01*
X17026247Y29723333D02*
X16978628Y29675714D01*
X16978628Y29675714D02*
X16883390Y29628095D01*
X59147857Y29035180D02*
X59481190Y29511371D01*
X59719285Y29035180D02*
X59719285Y30035180D01*
X59719285Y30035180D02*
X59338333Y30035180D01*
X59338333Y30035180D02*
X59243095Y29987561D01*
X59243095Y29987561D02*
X59195476Y29939942D01*
X59195476Y29939942D02*
X59147857Y29844704D01*
X59147857Y29844704D02*
X59147857Y29701847D01*
X59147857Y29701847D02*
X59195476Y29606609D01*
X59195476Y29606609D02*
X59243095Y29558990D01*
X59243095Y29558990D02*
X59338333Y29511371D01*
X59338333Y29511371D02*
X59719285Y29511371D01*
X58195476Y29035180D02*
X58766904Y29035180D01*
X58481190Y29035180D02*
X58481190Y30035180D01*
X58481190Y30035180D02*
X58576428Y29892323D01*
X58576428Y29892323D02*
X58671666Y29797085D01*
X58671666Y29797085D02*
X58766904Y29749466D01*
X57624047Y29606609D02*
X57719285Y29654228D01*
X57719285Y29654228D02*
X57766904Y29701847D01*
X57766904Y29701847D02*
X57814523Y29797085D01*
X57814523Y29797085D02*
X57814523Y29844704D01*
X57814523Y29844704D02*
X57766904Y29939942D01*
X57766904Y29939942D02*
X57719285Y29987561D01*
X57719285Y29987561D02*
X57624047Y30035180D01*
X57624047Y30035180D02*
X57433571Y30035180D01*
X57433571Y30035180D02*
X57338333Y29987561D01*
X57338333Y29987561D02*
X57290714Y29939942D01*
X57290714Y29939942D02*
X57243095Y29844704D01*
X57243095Y29844704D02*
X57243095Y29797085D01*
X57243095Y29797085D02*
X57290714Y29701847D01*
X57290714Y29701847D02*
X57338333Y29654228D01*
X57338333Y29654228D02*
X57433571Y29606609D01*
X57433571Y29606609D02*
X57624047Y29606609D01*
X57624047Y29606609D02*
X57719285Y29558990D01*
X57719285Y29558990D02*
X57766904Y29511371D01*
X57766904Y29511371D02*
X57814523Y29416133D01*
X57814523Y29416133D02*
X57814523Y29225657D01*
X57814523Y29225657D02*
X57766904Y29130419D01*
X57766904Y29130419D02*
X57719285Y29082800D01*
X57719285Y29082800D02*
X57624047Y29035180D01*
X57624047Y29035180D02*
X57433571Y29035180D01*
X57433571Y29035180D02*
X57338333Y29082800D01*
X57338333Y29082800D02*
X57290714Y29130419D01*
X57290714Y29130419D02*
X57243095Y29225657D01*
X57243095Y29225657D02*
X57243095Y29416133D01*
X57243095Y29416133D02*
X57290714Y29511371D01*
X57290714Y29511371D02*
X57338333Y29558990D01*
X57338333Y29558990D02*
X57433571Y29606609D01*
X49302857Y13788829D02*
X49350476Y13741210D01*
X49350476Y13741210D02*
X49493333Y13693590D01*
X49493333Y13693590D02*
X49588571Y13693590D01*
X49588571Y13693590D02*
X49731428Y13741210D01*
X49731428Y13741210D02*
X49826666Y13836448D01*
X49826666Y13836448D02*
X49874285Y13931686D01*
X49874285Y13931686D02*
X49921904Y14122162D01*
X49921904Y14122162D02*
X49921904Y14265019D01*
X49921904Y14265019D02*
X49874285Y14455495D01*
X49874285Y14455495D02*
X49826666Y14550733D01*
X49826666Y14550733D02*
X49731428Y14645971D01*
X49731428Y14645971D02*
X49588571Y14693590D01*
X49588571Y14693590D02*
X49493333Y14693590D01*
X49493333Y14693590D02*
X49350476Y14645971D01*
X49350476Y14645971D02*
X49302857Y14598352D01*
X48969523Y14693590D02*
X48350476Y14693590D01*
X48350476Y14693590D02*
X48683809Y14312638D01*
X48683809Y14312638D02*
X48540952Y14312638D01*
X48540952Y14312638D02*
X48445714Y14265019D01*
X48445714Y14265019D02*
X48398095Y14217400D01*
X48398095Y14217400D02*
X48350476Y14122162D01*
X48350476Y14122162D02*
X48350476Y13884067D01*
X48350476Y13884067D02*
X48398095Y13788829D01*
X48398095Y13788829D02*
X48445714Y13741210D01*
X48445714Y13741210D02*
X48540952Y13693590D01*
X48540952Y13693590D02*
X48826666Y13693590D01*
X48826666Y13693590D02*
X48921904Y13741210D01*
X48921904Y13741210D02*
X48969523Y13788829D01*
X47493333Y14360257D02*
X47493333Y13693590D01*
X47731428Y14741210D02*
X47969523Y14026924D01*
X47969523Y14026924D02*
X47350476Y14026924D01*
X57934819Y22127857D02*
X57458628Y22461190D01*
X57934819Y22699285D02*
X56934819Y22699285D01*
X56934819Y22699285D02*
X56934819Y22318333D01*
X56934819Y22318333D02*
X56982438Y22223095D01*
X56982438Y22223095D02*
X57030057Y22175476D01*
X57030057Y22175476D02*
X57125295Y22127857D01*
X57125295Y22127857D02*
X57268152Y22127857D01*
X57268152Y22127857D02*
X57363390Y22175476D01*
X57363390Y22175476D02*
X57411009Y22223095D01*
X57411009Y22223095D02*
X57458628Y22318333D01*
X57458628Y22318333D02*
X57458628Y22699285D01*
X57030057Y21746904D02*
X56982438Y21699285D01*
X56982438Y21699285D02*
X56934819Y21604047D01*
X56934819Y21604047D02*
X56934819Y21365952D01*
X56934819Y21365952D02*
X56982438Y21270714D01*
X56982438Y21270714D02*
X57030057Y21223095D01*
X57030057Y21223095D02*
X57125295Y21175476D01*
X57125295Y21175476D02*
X57220533Y21175476D01*
X57220533Y21175476D02*
X57363390Y21223095D01*
X57363390Y21223095D02*
X57934819Y21794523D01*
X57934819Y21794523D02*
X57934819Y21175476D01*
X57934819Y20223095D02*
X57934819Y20794523D01*
X57934819Y20508809D02*
X56934819Y20508809D01*
X56934819Y20508809D02*
X57077676Y20604047D01*
X57077676Y20604047D02*
X57172914Y20699285D01*
X57172914Y20699285D02*
X57220533Y20794523D01*
X33607857Y34545180D02*
X33941190Y35021371D01*
X34179285Y34545180D02*
X34179285Y35545180D01*
X34179285Y35545180D02*
X33798333Y35545180D01*
X33798333Y35545180D02*
X33703095Y35497561D01*
X33703095Y35497561D02*
X33655476Y35449942D01*
X33655476Y35449942D02*
X33607857Y35354704D01*
X33607857Y35354704D02*
X33607857Y35211847D01*
X33607857Y35211847D02*
X33655476Y35116609D01*
X33655476Y35116609D02*
X33703095Y35068990D01*
X33703095Y35068990D02*
X33798333Y35021371D01*
X33798333Y35021371D02*
X34179285Y35021371D01*
X33226904Y35449942D02*
X33179285Y35497561D01*
X33179285Y35497561D02*
X33084047Y35545180D01*
X33084047Y35545180D02*
X32845952Y35545180D01*
X32845952Y35545180D02*
X32750714Y35497561D01*
X32750714Y35497561D02*
X32703095Y35449942D01*
X32703095Y35449942D02*
X32655476Y35354704D01*
X32655476Y35354704D02*
X32655476Y35259466D01*
X32655476Y35259466D02*
X32703095Y35116609D01*
X32703095Y35116609D02*
X33274523Y34545180D01*
X33274523Y34545180D02*
X32655476Y34545180D01*
X31798333Y35211847D02*
X31798333Y34545180D01*
X32036428Y35592800D02*
X32274523Y34878514D01*
X32274523Y34878514D02*
X31655476Y34878514D01*
X79647857Y26430419D02*
X79695476Y26382800D01*
X79695476Y26382800D02*
X79838333Y26335180D01*
X79838333Y26335180D02*
X79933571Y26335180D01*
X79933571Y26335180D02*
X80076428Y26382800D01*
X80076428Y26382800D02*
X80171666Y26478038D01*
X80171666Y26478038D02*
X80219285Y26573276D01*
X80219285Y26573276D02*
X80266904Y26763752D01*
X80266904Y26763752D02*
X80266904Y26906609D01*
X80266904Y26906609D02*
X80219285Y27097085D01*
X80219285Y27097085D02*
X80171666Y27192323D01*
X80171666Y27192323D02*
X80076428Y27287561D01*
X80076428Y27287561D02*
X79933571Y27335180D01*
X79933571Y27335180D02*
X79838333Y27335180D01*
X79838333Y27335180D02*
X79695476Y27287561D01*
X79695476Y27287561D02*
X79647857Y27239942D01*
X79314523Y27335180D02*
X78695476Y27335180D01*
X78695476Y27335180D02*
X79028809Y26954228D01*
X79028809Y26954228D02*
X78885952Y26954228D01*
X78885952Y26954228D02*
X78790714Y26906609D01*
X78790714Y26906609D02*
X78743095Y26858990D01*
X78743095Y26858990D02*
X78695476Y26763752D01*
X78695476Y26763752D02*
X78695476Y26525657D01*
X78695476Y26525657D02*
X78743095Y26430419D01*
X78743095Y26430419D02*
X78790714Y26382800D01*
X78790714Y26382800D02*
X78885952Y26335180D01*
X78885952Y26335180D02*
X79171666Y26335180D01*
X79171666Y26335180D02*
X79266904Y26382800D01*
X79266904Y26382800D02*
X79314523Y26430419D01*
X77743095Y26335180D02*
X78314523Y26335180D01*
X78028809Y26335180D02*
X78028809Y27335180D01*
X78028809Y27335180D02*
X78124047Y27192323D01*
X78124047Y27192323D02*
X78219285Y27097085D01*
X78219285Y27097085D02*
X78314523Y27049466D01*
X68017857Y29175180D02*
X68351190Y29651371D01*
X68589285Y29175180D02*
X68589285Y30175180D01*
X68589285Y30175180D02*
X68208333Y30175180D01*
X68208333Y30175180D02*
X68113095Y30127561D01*
X68113095Y30127561D02*
X68065476Y30079942D01*
X68065476Y30079942D02*
X68017857Y29984704D01*
X68017857Y29984704D02*
X68017857Y29841847D01*
X68017857Y29841847D02*
X68065476Y29746609D01*
X68065476Y29746609D02*
X68113095Y29698990D01*
X68113095Y29698990D02*
X68208333Y29651371D01*
X68208333Y29651371D02*
X68589285Y29651371D01*
X67684523Y30175180D02*
X67065476Y30175180D01*
X67065476Y30175180D02*
X67398809Y29794228D01*
X67398809Y29794228D02*
X67255952Y29794228D01*
X67255952Y29794228D02*
X67160714Y29746609D01*
X67160714Y29746609D02*
X67113095Y29698990D01*
X67113095Y29698990D02*
X67065476Y29603752D01*
X67065476Y29603752D02*
X67065476Y29365657D01*
X67065476Y29365657D02*
X67113095Y29270419D01*
X67113095Y29270419D02*
X67160714Y29222800D01*
X67160714Y29222800D02*
X67255952Y29175180D01*
X67255952Y29175180D02*
X67541666Y29175180D01*
X67541666Y29175180D02*
X67636904Y29222800D01*
X67636904Y29222800D02*
X67684523Y29270419D01*
X66113095Y29175180D02*
X66684523Y29175180D01*
X66398809Y29175180D02*
X66398809Y30175180D01*
X66398809Y30175180D02*
X66494047Y30032323D01*
X66494047Y30032323D02*
X66589285Y29937085D01*
X66589285Y29937085D02*
X66684523Y29889466D01*
X41521905Y6998880D02*
X41521905Y6189357D01*
X41521905Y6189357D02*
X41474286Y6094119D01*
X41474286Y6094119D02*
X41426667Y6046500D01*
X41426667Y6046500D02*
X41331429Y5998880D01*
X41331429Y5998880D02*
X41140953Y5998880D01*
X41140953Y5998880D02*
X41045715Y6046500D01*
X41045715Y6046500D02*
X40998096Y6094119D01*
X40998096Y6094119D02*
X40950477Y6189357D01*
X40950477Y6189357D02*
X40950477Y6998880D01*
X40569524Y6998880D02*
X39950477Y6998880D01*
X39950477Y6998880D02*
X40283810Y6617928D01*
X40283810Y6617928D02*
X40140953Y6617928D01*
X40140953Y6617928D02*
X40045715Y6570309D01*
X40045715Y6570309D02*
X39998096Y6522690D01*
X39998096Y6522690D02*
X39950477Y6427452D01*
X39950477Y6427452D02*
X39950477Y6189357D01*
X39950477Y6189357D02*
X39998096Y6094119D01*
X39998096Y6094119D02*
X40045715Y6046500D01*
X40045715Y6046500D02*
X40140953Y5998880D01*
X40140953Y5998880D02*
X40426667Y5998880D01*
X40426667Y5998880D02*
X40521905Y6046500D01*
X40521905Y6046500D02*
X40569524Y6094119D01*
X42842800Y7998880D02*
X42842800Y7760785D01*
X43080895Y7856023D02*
X42842800Y7760785D01*
X42842800Y7760785D02*
X42604705Y7856023D01*
X42985657Y7570309D02*
X42842800Y7760785D01*
X42842800Y7760785D02*
X42699943Y7570309D01*
X42842800Y7998880D02*
X42842800Y7760785D01*
X43080895Y7856023D02*
X42842800Y7760785D01*
X42842800Y7760785D02*
X42604705Y7856023D01*
X42985657Y7570309D02*
X42842800Y7760785D01*
X42842800Y7760785D02*
X42699943Y7570309D01*
X33637857Y29005180D02*
X33971190Y29481371D01*
X34209285Y29005180D02*
X34209285Y30005180D01*
X34209285Y30005180D02*
X33828333Y30005180D01*
X33828333Y30005180D02*
X33733095Y29957561D01*
X33733095Y29957561D02*
X33685476Y29909942D01*
X33685476Y29909942D02*
X33637857Y29814704D01*
X33637857Y29814704D02*
X33637857Y29671847D01*
X33637857Y29671847D02*
X33685476Y29576609D01*
X33685476Y29576609D02*
X33733095Y29528990D01*
X33733095Y29528990D02*
X33828333Y29481371D01*
X33828333Y29481371D02*
X34209285Y29481371D01*
X33256904Y29909942D02*
X33209285Y29957561D01*
X33209285Y29957561D02*
X33114047Y30005180D01*
X33114047Y30005180D02*
X32875952Y30005180D01*
X32875952Y30005180D02*
X32780714Y29957561D01*
X32780714Y29957561D02*
X32733095Y29909942D01*
X32733095Y29909942D02*
X32685476Y29814704D01*
X32685476Y29814704D02*
X32685476Y29719466D01*
X32685476Y29719466D02*
X32733095Y29576609D01*
X32733095Y29576609D02*
X33304523Y29005180D01*
X33304523Y29005180D02*
X32685476Y29005180D01*
X31780714Y30005180D02*
X32256904Y30005180D01*
X32256904Y30005180D02*
X32304523Y29528990D01*
X32304523Y29528990D02*
X32256904Y29576609D01*
X32256904Y29576609D02*
X32161666Y29624228D01*
X32161666Y29624228D02*
X31923571Y29624228D01*
X31923571Y29624228D02*
X31828333Y29576609D01*
X31828333Y29576609D02*
X31780714Y29528990D01*
X31780714Y29528990D02*
X31733095Y29433752D01*
X31733095Y29433752D02*
X31733095Y29195657D01*
X31733095Y29195657D02*
X31780714Y29100419D01*
X31780714Y29100419D02*
X31828333Y29052800D01*
X31828333Y29052800D02*
X31923571Y29005180D01*
X31923571Y29005180D02*
X32161666Y29005180D01*
X32161666Y29005180D02*
X32256904Y29052800D01*
X32256904Y29052800D02*
X32304523Y29100419D01*
X55069819Y19057857D02*
X54593628Y19391190D01*
X55069819Y19629285D02*
X54069819Y19629285D01*
X54069819Y19629285D02*
X54069819Y19248333D01*
X54069819Y19248333D02*
X54117438Y19153095D01*
X54117438Y19153095D02*
X54165057Y19105476D01*
X54165057Y19105476D02*
X54260295Y19057857D01*
X54260295Y19057857D02*
X54403152Y19057857D01*
X54403152Y19057857D02*
X54498390Y19105476D01*
X54498390Y19105476D02*
X54546009Y19153095D01*
X54546009Y19153095D02*
X54593628Y19248333D01*
X54593628Y19248333D02*
X54593628Y19629285D01*
X55069819Y18105476D02*
X55069819Y18676904D01*
X55069819Y18391190D02*
X54069819Y18391190D01*
X54069819Y18391190D02*
X54212676Y18486428D01*
X54212676Y18486428D02*
X54307914Y18581666D01*
X54307914Y18581666D02*
X54355533Y18676904D01*
X55069819Y17629285D02*
X55069819Y17438809D01*
X55069819Y17438809D02*
X55022200Y17343571D01*
X55022200Y17343571D02*
X54974580Y17295952D01*
X54974580Y17295952D02*
X54831723Y17200714D01*
X54831723Y17200714D02*
X54641247Y17153095D01*
X54641247Y17153095D02*
X54260295Y17153095D01*
X54260295Y17153095D02*
X54165057Y17200714D01*
X54165057Y17200714D02*
X54117438Y17248333D01*
X54117438Y17248333D02*
X54069819Y17343571D01*
X54069819Y17343571D02*
X54069819Y17534047D01*
X54069819Y17534047D02*
X54117438Y17629285D01*
X54117438Y17629285D02*
X54165057Y17676904D01*
X54165057Y17676904D02*
X54260295Y17724523D01*
X54260295Y17724523D02*
X54498390Y17724523D01*
X54498390Y17724523D02*
X54593628Y17676904D01*
X54593628Y17676904D02*
X54641247Y17629285D01*
X54641247Y17629285D02*
X54688866Y17534047D01*
X54688866Y17534047D02*
X54688866Y17343571D01*
X54688866Y17343571D02*
X54641247Y17248333D01*
X54641247Y17248333D02*
X54593628Y17200714D01*
X54593628Y17200714D02*
X54498390Y17153095D01*
X72757857Y31310419D02*
X72805476Y31262800D01*
X72805476Y31262800D02*
X72948333Y31215180D01*
X72948333Y31215180D02*
X73043571Y31215180D01*
X73043571Y31215180D02*
X73186428Y31262800D01*
X73186428Y31262800D02*
X73281666Y31358038D01*
X73281666Y31358038D02*
X73329285Y31453276D01*
X73329285Y31453276D02*
X73376904Y31643752D01*
X73376904Y31643752D02*
X73376904Y31786609D01*
X73376904Y31786609D02*
X73329285Y31977085D01*
X73329285Y31977085D02*
X73281666Y32072323D01*
X73281666Y32072323D02*
X73186428Y32167561D01*
X73186428Y32167561D02*
X73043571Y32215180D01*
X73043571Y32215180D02*
X72948333Y32215180D01*
X72948333Y32215180D02*
X72805476Y32167561D01*
X72805476Y32167561D02*
X72757857Y32119942D01*
X72376904Y32119942D02*
X72329285Y32167561D01*
X72329285Y32167561D02*
X72234047Y32215180D01*
X72234047Y32215180D02*
X71995952Y32215180D01*
X71995952Y32215180D02*
X71900714Y32167561D01*
X71900714Y32167561D02*
X71853095Y32119942D01*
X71853095Y32119942D02*
X71805476Y32024704D01*
X71805476Y32024704D02*
X71805476Y31929466D01*
X71805476Y31929466D02*
X71853095Y31786609D01*
X71853095Y31786609D02*
X72424523Y31215180D01*
X72424523Y31215180D02*
X71805476Y31215180D01*
X70948333Y32215180D02*
X71138809Y32215180D01*
X71138809Y32215180D02*
X71234047Y32167561D01*
X71234047Y32167561D02*
X71281666Y32119942D01*
X71281666Y32119942D02*
X71376904Y31977085D01*
X71376904Y31977085D02*
X71424523Y31786609D01*
X71424523Y31786609D02*
X71424523Y31405657D01*
X71424523Y31405657D02*
X71376904Y31310419D01*
X71376904Y31310419D02*
X71329285Y31262800D01*
X71329285Y31262800D02*
X71234047Y31215180D01*
X71234047Y31215180D02*
X71043571Y31215180D01*
X71043571Y31215180D02*
X70948333Y31262800D01*
X70948333Y31262800D02*
X70900714Y31310419D01*
X70900714Y31310419D02*
X70853095Y31405657D01*
X70853095Y31405657D02*
X70853095Y31643752D01*
X70853095Y31643752D02*
X70900714Y31738990D01*
X70900714Y31738990D02*
X70948333Y31786609D01*
X70948333Y31786609D02*
X71043571Y31834228D01*
X71043571Y31834228D02*
X71234047Y31834228D01*
X71234047Y31834228D02*
X71329285Y31786609D01*
X71329285Y31786609D02*
X71376904Y31738990D01*
X71376904Y31738990D02*
X71424523Y31643752D01*
X74934284Y25925179D02*
X74934284Y26925179D01*
X74934284Y26925179D02*
X74696189Y26925179D01*
X74696189Y26925179D02*
X74553332Y26877560D01*
X74553332Y26877560D02*
X74458094Y26782322D01*
X74458094Y26782322D02*
X74410475Y26687084D01*
X74410475Y26687084D02*
X74362856Y26496608D01*
X74362856Y26496608D02*
X74362856Y26353751D01*
X74362856Y26353751D02*
X74410475Y26163275D01*
X74410475Y26163275D02*
X74458094Y26068037D01*
X74458094Y26068037D02*
X74553332Y25972799D01*
X74553332Y25972799D02*
X74696189Y25925179D01*
X74696189Y25925179D02*
X74934284Y25925179D01*
X73410475Y25925179D02*
X73981903Y25925179D01*
X73696189Y25925179D02*
X73696189Y26925179D01*
X73696189Y26925179D02*
X73791427Y26782322D01*
X73791427Y26782322D02*
X73886665Y26687084D01*
X73886665Y26687084D02*
X73981903Y26639465D01*
X72839046Y26496608D02*
X72934284Y26544227D01*
X72934284Y26544227D02*
X72981903Y26591846D01*
X72981903Y26591846D02*
X73029522Y26687084D01*
X73029522Y26687084D02*
X73029522Y26734703D01*
X73029522Y26734703D02*
X72981903Y26829941D01*
X72981903Y26829941D02*
X72934284Y26877560D01*
X72934284Y26877560D02*
X72839046Y26925179D01*
X72839046Y26925179D02*
X72648570Y26925179D01*
X72648570Y26925179D02*
X72553332Y26877560D01*
X72553332Y26877560D02*
X72505713Y26829941D01*
X72505713Y26829941D02*
X72458094Y26734703D01*
X72458094Y26734703D02*
X72458094Y26687084D01*
X72458094Y26687084D02*
X72505713Y26591846D01*
X72505713Y26591846D02*
X72553332Y26544227D01*
X72553332Y26544227D02*
X72648570Y26496608D01*
X72648570Y26496608D02*
X72839046Y26496608D01*
X72839046Y26496608D02*
X72934284Y26448989D01*
X72934284Y26448989D02*
X72981903Y26401370D01*
X72981903Y26401370D02*
X73029522Y26306132D01*
X73029522Y26306132D02*
X73029522Y26115656D01*
X73029522Y26115656D02*
X72981903Y26020418D01*
X72981903Y26020418D02*
X72934284Y25972799D01*
X72934284Y25972799D02*
X72839046Y25925179D01*
X72839046Y25925179D02*
X72648570Y25925179D01*
X72648570Y25925179D02*
X72553332Y25972799D01*
X72553332Y25972799D02*
X72505713Y26020418D01*
X72505713Y26020418D02*
X72458094Y26115656D01*
X72458094Y26115656D02*
X72458094Y26306132D01*
X72458094Y26306132D02*
X72505713Y26401370D01*
X72505713Y26401370D02*
X72553332Y26448989D01*
X72553332Y26448989D02*
X72648570Y26496608D01*
X79557857Y23945419D02*
X79605476Y23897800D01*
X79605476Y23897800D02*
X79748333Y23850180D01*
X79748333Y23850180D02*
X79843571Y23850180D01*
X79843571Y23850180D02*
X79986428Y23897800D01*
X79986428Y23897800D02*
X80081666Y23993038D01*
X80081666Y23993038D02*
X80129285Y24088276D01*
X80129285Y24088276D02*
X80176904Y24278752D01*
X80176904Y24278752D02*
X80176904Y24421609D01*
X80176904Y24421609D02*
X80129285Y24612085D01*
X80129285Y24612085D02*
X80081666Y24707323D01*
X80081666Y24707323D02*
X79986428Y24802561D01*
X79986428Y24802561D02*
X79843571Y24850180D01*
X79843571Y24850180D02*
X79748333Y24850180D01*
X79748333Y24850180D02*
X79605476Y24802561D01*
X79605476Y24802561D02*
X79557857Y24754942D01*
X79176904Y24754942D02*
X79129285Y24802561D01*
X79129285Y24802561D02*
X79034047Y24850180D01*
X79034047Y24850180D02*
X78795952Y24850180D01*
X78795952Y24850180D02*
X78700714Y24802561D01*
X78700714Y24802561D02*
X78653095Y24754942D01*
X78653095Y24754942D02*
X78605476Y24659704D01*
X78605476Y24659704D02*
X78605476Y24564466D01*
X78605476Y24564466D02*
X78653095Y24421609D01*
X78653095Y24421609D02*
X79224523Y23850180D01*
X79224523Y23850180D02*
X78605476Y23850180D01*
X77700714Y24850180D02*
X78176904Y24850180D01*
X78176904Y24850180D02*
X78224523Y24373990D01*
X78224523Y24373990D02*
X78176904Y24421609D01*
X78176904Y24421609D02*
X78081666Y24469228D01*
X78081666Y24469228D02*
X77843571Y24469228D01*
X77843571Y24469228D02*
X77748333Y24421609D01*
X77748333Y24421609D02*
X77700714Y24373990D01*
X77700714Y24373990D02*
X77653095Y24278752D01*
X77653095Y24278752D02*
X77653095Y24040657D01*
X77653095Y24040657D02*
X77700714Y23945419D01*
X77700714Y23945419D02*
X77748333Y23897800D01*
X77748333Y23897800D02*
X77843571Y23850180D01*
X77843571Y23850180D02*
X78081666Y23850180D01*
X78081666Y23850180D02*
X78176904Y23897800D01*
X78176904Y23897800D02*
X78224523Y23945419D01*
X59187857Y25965419D02*
X59235476Y25917800D01*
X59235476Y25917800D02*
X59378333Y25870180D01*
X59378333Y25870180D02*
X59473571Y25870180D01*
X59473571Y25870180D02*
X59616428Y25917800D01*
X59616428Y25917800D02*
X59711666Y26013038D01*
X59711666Y26013038D02*
X59759285Y26108276D01*
X59759285Y26108276D02*
X59806904Y26298752D01*
X59806904Y26298752D02*
X59806904Y26441609D01*
X59806904Y26441609D02*
X59759285Y26632085D01*
X59759285Y26632085D02*
X59711666Y26727323D01*
X59711666Y26727323D02*
X59616428Y26822561D01*
X59616428Y26822561D02*
X59473571Y26870180D01*
X59473571Y26870180D02*
X59378333Y26870180D01*
X59378333Y26870180D02*
X59235476Y26822561D01*
X59235476Y26822561D02*
X59187857Y26774942D01*
X58235476Y25870180D02*
X58806904Y25870180D01*
X58521190Y25870180D02*
X58521190Y26870180D01*
X58521190Y26870180D02*
X58616428Y26727323D01*
X58616428Y26727323D02*
X58711666Y26632085D01*
X58711666Y26632085D02*
X58806904Y26584466D01*
X57664047Y26441609D02*
X57759285Y26489228D01*
X57759285Y26489228D02*
X57806904Y26536847D01*
X57806904Y26536847D02*
X57854523Y26632085D01*
X57854523Y26632085D02*
X57854523Y26679704D01*
X57854523Y26679704D02*
X57806904Y26774942D01*
X57806904Y26774942D02*
X57759285Y26822561D01*
X57759285Y26822561D02*
X57664047Y26870180D01*
X57664047Y26870180D02*
X57473571Y26870180D01*
X57473571Y26870180D02*
X57378333Y26822561D01*
X57378333Y26822561D02*
X57330714Y26774942D01*
X57330714Y26774942D02*
X57283095Y26679704D01*
X57283095Y26679704D02*
X57283095Y26632085D01*
X57283095Y26632085D02*
X57330714Y26536847D01*
X57330714Y26536847D02*
X57378333Y26489228D01*
X57378333Y26489228D02*
X57473571Y26441609D01*
X57473571Y26441609D02*
X57664047Y26441609D01*
X57664047Y26441609D02*
X57759285Y26393990D01*
X57759285Y26393990D02*
X57806904Y26346371D01*
X57806904Y26346371D02*
X57854523Y26251133D01*
X57854523Y26251133D02*
X57854523Y26060657D01*
X57854523Y26060657D02*
X57806904Y25965419D01*
X57806904Y25965419D02*
X57759285Y25917800D01*
X57759285Y25917800D02*
X57664047Y25870180D01*
X57664047Y25870180D02*
X57473571Y25870180D01*
X57473571Y25870180D02*
X57378333Y25917800D01*
X57378333Y25917800D02*
X57330714Y25965419D01*
X57330714Y25965419D02*
X57283095Y26060657D01*
X57283095Y26060657D02*
X57283095Y26251133D01*
X57283095Y26251133D02*
X57330714Y26346371D01*
X57330714Y26346371D02*
X57378333Y26393990D01*
X57378333Y26393990D02*
X57473571Y26441609D01*
X42564819Y15917857D02*
X42088628Y16251190D01*
X42564819Y16489285D02*
X41564819Y16489285D01*
X41564819Y16489285D02*
X41564819Y16108333D01*
X41564819Y16108333D02*
X41612438Y16013095D01*
X41612438Y16013095D02*
X41660057Y15965476D01*
X41660057Y15965476D02*
X41755295Y15917857D01*
X41755295Y15917857D02*
X41898152Y15917857D01*
X41898152Y15917857D02*
X41993390Y15965476D01*
X41993390Y15965476D02*
X42041009Y16013095D01*
X42041009Y16013095D02*
X42088628Y16108333D01*
X42088628Y16108333D02*
X42088628Y16489285D01*
X41564819Y15584523D02*
X41564819Y14965476D01*
X41564819Y14965476D02*
X41945771Y15298809D01*
X41945771Y15298809D02*
X41945771Y15155952D01*
X41945771Y15155952D02*
X41993390Y15060714D01*
X41993390Y15060714D02*
X42041009Y15013095D01*
X42041009Y15013095D02*
X42136247Y14965476D01*
X42136247Y14965476D02*
X42374342Y14965476D01*
X42374342Y14965476D02*
X42469580Y15013095D01*
X42469580Y15013095D02*
X42517200Y15060714D01*
X42517200Y15060714D02*
X42564819Y15155952D01*
X42564819Y15155952D02*
X42564819Y15441666D01*
X42564819Y15441666D02*
X42517200Y15536904D01*
X42517200Y15536904D02*
X42469580Y15584523D01*
X41564819Y14632142D02*
X41564819Y13965476D01*
X41564819Y13965476D02*
X42564819Y14394047D01*
X20694820Y35594285D02*
X19694820Y35594285D01*
X19694820Y35594285D02*
X19694820Y35356190D01*
X19694820Y35356190D02*
X19742439Y35213333D01*
X19742439Y35213333D02*
X19837677Y35118095D01*
X19837677Y35118095D02*
X19932915Y35070476D01*
X19932915Y35070476D02*
X20123391Y35022857D01*
X20123391Y35022857D02*
X20266248Y35022857D01*
X20266248Y35022857D02*
X20456724Y35070476D01*
X20456724Y35070476D02*
X20551962Y35118095D01*
X20551962Y35118095D02*
X20647201Y35213333D01*
X20647201Y35213333D02*
X20694820Y35356190D01*
X20694820Y35356190D02*
X20694820Y35594285D01*
X19790058Y34641904D02*
X19742439Y34594285D01*
X19742439Y34594285D02*
X19694820Y34499047D01*
X19694820Y34499047D02*
X19694820Y34260952D01*
X19694820Y34260952D02*
X19742439Y34165714D01*
X19742439Y34165714D02*
X19790058Y34118095D01*
X19790058Y34118095D02*
X19885296Y34070476D01*
X19885296Y34070476D02*
X19980534Y34070476D01*
X19980534Y34070476D02*
X20123391Y34118095D01*
X20123391Y34118095D02*
X20694820Y34689523D01*
X20694820Y34689523D02*
X20694820Y34070476D01*
X20694820Y33118095D02*
X20694820Y33689523D01*
X20694820Y33403809D02*
X19694820Y33403809D01*
X19694820Y33403809D02*
X19837677Y33499047D01*
X19837677Y33499047D02*
X19932915Y33594285D01*
X19932915Y33594285D02*
X19980534Y33689523D01*
X23134580Y-6297142D02*
X23182200Y-6249523D01*
X23182200Y-6249523D02*
X23229819Y-6106666D01*
X23229819Y-6106666D02*
X23229819Y-6011428D01*
X23229819Y-6011428D02*
X23182200Y-5868571D01*
X23182200Y-5868571D02*
X23086961Y-5773333D01*
X23086961Y-5773333D02*
X22991723Y-5725714D01*
X22991723Y-5725714D02*
X22801247Y-5678095D01*
X22801247Y-5678095D02*
X22658390Y-5678095D01*
X22658390Y-5678095D02*
X22467914Y-5725714D01*
X22467914Y-5725714D02*
X22372676Y-5773333D01*
X22372676Y-5773333D02*
X22277438Y-5868571D01*
X22277438Y-5868571D02*
X22229819Y-6011428D01*
X22229819Y-6011428D02*
X22229819Y-6106666D01*
X22229819Y-6106666D02*
X22277438Y-6249523D01*
X22277438Y-6249523D02*
X22325057Y-6297142D01*
X23229819Y-7249523D02*
X23229819Y-6678095D01*
X23229819Y-6963809D02*
X22229819Y-6963809D01*
X22229819Y-6963809D02*
X22372676Y-6868571D01*
X22372676Y-6868571D02*
X22467914Y-6773333D01*
X22467914Y-6773333D02*
X22515533Y-6678095D01*
X23229819Y-8201904D02*
X23229819Y-7630476D01*
X23229819Y-7916190D02*
X22229819Y-7916190D01*
X22229819Y-7916190D02*
X22372676Y-7820952D01*
X22372676Y-7820952D02*
X22467914Y-7725714D01*
X22467914Y-7725714D02*
X22515533Y-7630476D01*
X29499580Y29457857D02*
X29547200Y29505476D01*
X29547200Y29505476D02*
X29594819Y29648333D01*
X29594819Y29648333D02*
X29594819Y29743571D01*
X29594819Y29743571D02*
X29547200Y29886428D01*
X29547200Y29886428D02*
X29451961Y29981666D01*
X29451961Y29981666D02*
X29356723Y30029285D01*
X29356723Y30029285D02*
X29166247Y30076904D01*
X29166247Y30076904D02*
X29023390Y30076904D01*
X29023390Y30076904D02*
X28832914Y30029285D01*
X28832914Y30029285D02*
X28737676Y29981666D01*
X28737676Y29981666D02*
X28642438Y29886428D01*
X28642438Y29886428D02*
X28594819Y29743571D01*
X28594819Y29743571D02*
X28594819Y29648333D01*
X28594819Y29648333D02*
X28642438Y29505476D01*
X28642438Y29505476D02*
X28690057Y29457857D01*
X28690057Y29076904D02*
X28642438Y29029285D01*
X28642438Y29029285D02*
X28594819Y28934047D01*
X28594819Y28934047D02*
X28594819Y28695952D01*
X28594819Y28695952D02*
X28642438Y28600714D01*
X28642438Y28600714D02*
X28690057Y28553095D01*
X28690057Y28553095D02*
X28785295Y28505476D01*
X28785295Y28505476D02*
X28880533Y28505476D01*
X28880533Y28505476D02*
X29023390Y28553095D01*
X29023390Y28553095D02*
X29594819Y29124523D01*
X29594819Y29124523D02*
X29594819Y28505476D01*
X28690057Y28124523D02*
X28642438Y28076904D01*
X28642438Y28076904D02*
X28594819Y27981666D01*
X28594819Y27981666D02*
X28594819Y27743571D01*
X28594819Y27743571D02*
X28642438Y27648333D01*
X28642438Y27648333D02*
X28690057Y27600714D01*
X28690057Y27600714D02*
X28785295Y27553095D01*
X28785295Y27553095D02*
X28880533Y27553095D01*
X28880533Y27553095D02*
X29023390Y27600714D01*
X29023390Y27600714D02*
X29594819Y28172142D01*
X29594819Y28172142D02*
X29594819Y27553095D01*
X71202857Y31975180D02*
X71536190Y32451371D01*
X71774285Y31975180D02*
X71774285Y32975180D01*
X71774285Y32975180D02*
X71393333Y32975180D01*
X71393333Y32975180D02*
X71298095Y32927561D01*
X71298095Y32927561D02*
X71250476Y32879942D01*
X71250476Y32879942D02*
X71202857Y32784704D01*
X71202857Y32784704D02*
X71202857Y32641847D01*
X71202857Y32641847D02*
X71250476Y32546609D01*
X71250476Y32546609D02*
X71298095Y32498990D01*
X71298095Y32498990D02*
X71393333Y32451371D01*
X71393333Y32451371D02*
X71774285Y32451371D01*
X70821904Y32879942D02*
X70774285Y32927561D01*
X70774285Y32927561D02*
X70679047Y32975180D01*
X70679047Y32975180D02*
X70440952Y32975180D01*
X70440952Y32975180D02*
X70345714Y32927561D01*
X70345714Y32927561D02*
X70298095Y32879942D01*
X70298095Y32879942D02*
X70250476Y32784704D01*
X70250476Y32784704D02*
X70250476Y32689466D01*
X70250476Y32689466D02*
X70298095Y32546609D01*
X70298095Y32546609D02*
X70869523Y31975180D01*
X70869523Y31975180D02*
X70250476Y31975180D01*
X69869523Y32879942D02*
X69821904Y32927561D01*
X69821904Y32927561D02*
X69726666Y32975180D01*
X69726666Y32975180D02*
X69488571Y32975180D01*
X69488571Y32975180D02*
X69393333Y32927561D01*
X69393333Y32927561D02*
X69345714Y32879942D01*
X69345714Y32879942D02*
X69298095Y32784704D01*
X69298095Y32784704D02*
X69298095Y32689466D01*
X69298095Y32689466D02*
X69345714Y32546609D01*
X69345714Y32546609D02*
X69917142Y31975180D01*
X69917142Y31975180D02*
X69298095Y31975180D01*
X31364580Y18582857D02*
X31412200Y18630476D01*
X31412200Y18630476D02*
X31459819Y18773333D01*
X31459819Y18773333D02*
X31459819Y18868571D01*
X31459819Y18868571D02*
X31412200Y19011428D01*
X31412200Y19011428D02*
X31316961Y19106666D01*
X31316961Y19106666D02*
X31221723Y19154285D01*
X31221723Y19154285D02*
X31031247Y19201904D01*
X31031247Y19201904D02*
X30888390Y19201904D01*
X30888390Y19201904D02*
X30697914Y19154285D01*
X30697914Y19154285D02*
X30602676Y19106666D01*
X30602676Y19106666D02*
X30507438Y19011428D01*
X30507438Y19011428D02*
X30459819Y18868571D01*
X30459819Y18868571D02*
X30459819Y18773333D01*
X30459819Y18773333D02*
X30507438Y18630476D01*
X30507438Y18630476D02*
X30555057Y18582857D01*
X30555057Y18201904D02*
X30507438Y18154285D01*
X30507438Y18154285D02*
X30459819Y18059047D01*
X30459819Y18059047D02*
X30459819Y17820952D01*
X30459819Y17820952D02*
X30507438Y17725714D01*
X30507438Y17725714D02*
X30555057Y17678095D01*
X30555057Y17678095D02*
X30650295Y17630476D01*
X30650295Y17630476D02*
X30745533Y17630476D01*
X30745533Y17630476D02*
X30888390Y17678095D01*
X30888390Y17678095D02*
X31459819Y18249523D01*
X31459819Y18249523D02*
X31459819Y17630476D01*
X30459819Y17297142D02*
X30459819Y16678095D01*
X30459819Y16678095D02*
X30840771Y17011428D01*
X30840771Y17011428D02*
X30840771Y16868571D01*
X30840771Y16868571D02*
X30888390Y16773333D01*
X30888390Y16773333D02*
X30936009Y16725714D01*
X30936009Y16725714D02*
X31031247Y16678095D01*
X31031247Y16678095D02*
X31269342Y16678095D01*
X31269342Y16678095D02*
X31364580Y16725714D01*
X31364580Y16725714D02*
X31412200Y16773333D01*
X31412200Y16773333D02*
X31459819Y16868571D01*
X31459819Y16868571D02*
X31459819Y17154285D01*
X31459819Y17154285D02*
X31412200Y17249523D01*
X31412200Y17249523D02*
X31364580Y17297142D01*
X23299580Y-15732142D02*
X23347200Y-15684523D01*
X23347200Y-15684523D02*
X23394819Y-15541666D01*
X23394819Y-15541666D02*
X23394819Y-15446428D01*
X23394819Y-15446428D02*
X23347200Y-15303571D01*
X23347200Y-15303571D02*
X23251961Y-15208333D01*
X23251961Y-15208333D02*
X23156723Y-15160714D01*
X23156723Y-15160714D02*
X22966247Y-15113095D01*
X22966247Y-15113095D02*
X22823390Y-15113095D01*
X22823390Y-15113095D02*
X22632914Y-15160714D01*
X22632914Y-15160714D02*
X22537676Y-15208333D01*
X22537676Y-15208333D02*
X22442438Y-15303571D01*
X22442438Y-15303571D02*
X22394819Y-15446428D01*
X22394819Y-15446428D02*
X22394819Y-15541666D01*
X22394819Y-15541666D02*
X22442438Y-15684523D01*
X22442438Y-15684523D02*
X22490057Y-15732142D01*
X23394819Y-16684523D02*
X23394819Y-16113095D01*
X23394819Y-16398809D02*
X22394819Y-16398809D01*
X22394819Y-16398809D02*
X22537676Y-16303571D01*
X22537676Y-16303571D02*
X22632914Y-16208333D01*
X22632914Y-16208333D02*
X22680533Y-16113095D01*
X22394819Y-17017857D02*
X22394819Y-17636904D01*
X22394819Y-17636904D02*
X22775771Y-17303571D01*
X22775771Y-17303571D02*
X22775771Y-17446428D01*
X22775771Y-17446428D02*
X22823390Y-17541666D01*
X22823390Y-17541666D02*
X22871009Y-17589285D01*
X22871009Y-17589285D02*
X22966247Y-17636904D01*
X22966247Y-17636904D02*
X23204342Y-17636904D01*
X23204342Y-17636904D02*
X23299580Y-17589285D01*
X23299580Y-17589285D02*
X23347200Y-17541666D01*
X23347200Y-17541666D02*
X23394819Y-17446428D01*
X23394819Y-17446428D02*
X23394819Y-17160714D01*
X23394819Y-17160714D02*
X23347200Y-17065476D01*
X23347200Y-17065476D02*
X23299580Y-17017857D01*
X39111666Y5160419D02*
X39159285Y5112800D01*
X39159285Y5112800D02*
X39302142Y5065180D01*
X39302142Y5065180D02*
X39397380Y5065180D01*
X39397380Y5065180D02*
X39540237Y5112800D01*
X39540237Y5112800D02*
X39635475Y5208038D01*
X39635475Y5208038D02*
X39683094Y5303276D01*
X39683094Y5303276D02*
X39730713Y5493752D01*
X39730713Y5493752D02*
X39730713Y5636609D01*
X39730713Y5636609D02*
X39683094Y5827085D01*
X39683094Y5827085D02*
X39635475Y5922323D01*
X39635475Y5922323D02*
X39540237Y6017561D01*
X39540237Y6017561D02*
X39397380Y6065180D01*
X39397380Y6065180D02*
X39302142Y6065180D01*
X39302142Y6065180D02*
X39159285Y6017561D01*
X39159285Y6017561D02*
X39111666Y5969942D01*
X38254523Y5731847D02*
X38254523Y5065180D01*
X38492618Y6112800D02*
X38730713Y5398514D01*
X38730713Y5398514D02*
X38111666Y5398514D01*
X74974818Y28334286D02*
X73974818Y28334286D01*
X73974818Y28334286D02*
X73974818Y28096191D01*
X73974818Y28096191D02*
X74022437Y27953334D01*
X74022437Y27953334D02*
X74117675Y27858096D01*
X74117675Y27858096D02*
X74212913Y27810477D01*
X74212913Y27810477D02*
X74403389Y27762858D01*
X74403389Y27762858D02*
X74546246Y27762858D01*
X74546246Y27762858D02*
X74736722Y27810477D01*
X74736722Y27810477D02*
X74831960Y27858096D01*
X74831960Y27858096D02*
X74927199Y27953334D01*
X74927199Y27953334D02*
X74974818Y28096191D01*
X74974818Y28096191D02*
X74974818Y28334286D01*
X74974818Y26810477D02*
X74974818Y27381905D01*
X74974818Y27096191D02*
X73974818Y27096191D01*
X73974818Y27096191D02*
X74117675Y27191429D01*
X74117675Y27191429D02*
X74212913Y27286667D01*
X74212913Y27286667D02*
X74260532Y27381905D01*
X74974818Y25858096D02*
X74974818Y26429524D01*
X74974818Y26143810D02*
X73974818Y26143810D01*
X73974818Y26143810D02*
X74117675Y26239048D01*
X74117675Y26239048D02*
X74212913Y26334286D01*
X74212913Y26334286D02*
X74260532Y26429524D01*
D11*
%TO.C,U8*%
X12110001Y35025001D02*
X11780001Y34785001D01*
X11780001Y35265000D01*
X12110001Y35025001D01*
G36*
X12110001Y35025001D02*
G01*
X11780001Y34785001D01*
X11780001Y35265000D01*
X12110001Y35025001D01*
G37*
X17135001Y30375001D02*
X17135000Y32325001D01*
X17135001Y34275001D02*
X17135000Y32325001D01*
X12015001Y30375001D02*
X12015002Y32325001D01*
X12015001Y34275001D02*
X12015002Y32325001D01*
%TO.C,U9*%
X11590000Y9455000D02*
X11260000Y9215000D01*
X11260000Y9694999D01*
X11590000Y9455000D01*
G36*
X11590000Y9455000D02*
G01*
X11260000Y9215000D01*
X11260000Y9694999D01*
X11590000Y9455000D01*
G37*
X16615000Y4805000D02*
X16614999Y6755000D01*
X16615000Y8705000D02*
X16614999Y6755000D01*
X11495000Y4805000D02*
X11495001Y6755000D01*
X11495000Y8705000D02*
X11495001Y6755000D01*
%TO.C,U10*%
X17965000Y24640000D02*
X17635000Y24400000D01*
X17635000Y24879999D01*
X17965000Y24640000D01*
G36*
X17965000Y24640000D02*
G01*
X17635000Y24400000D01*
X17635000Y24879999D01*
X17965000Y24640000D01*
G37*
X22990000Y19990000D02*
X22989999Y21940000D01*
X22990000Y23890000D02*
X22989999Y21940000D01*
X17870000Y19990000D02*
X17870001Y21940000D01*
X17870000Y23890000D02*
X17870001Y21940000D01*
%TO.C,C12*%
X30210000Y24804419D02*
X30210000Y25085581D01*
X31230000Y24804419D02*
X31230000Y25085581D01*
%TO.C,U7*%
X51565000Y28825000D02*
X51565001Y26875000D01*
X51565000Y24925000D02*
X51565001Y26875000D01*
X56685000Y28825000D02*
X56684999Y26875000D01*
X56685000Y24925000D02*
X56684999Y26875000D01*
X51660000Y29575000D02*
X51330000Y29335000D01*
X51330000Y29814999D01*
X51660000Y29575000D01*
G36*
X51660000Y29575000D02*
G01*
X51330000Y29335000D01*
X51330000Y29814999D01*
X51660000Y29575000D01*
G37*
%TO.C,R38*%
X47427500Y19635667D02*
X47427500Y19161151D01*
X48472500Y19635667D02*
X48472500Y19161151D01*
%TO.C,R12*%
X34592742Y21272500D02*
X35067258Y21272500D01*
X34592742Y20227500D02*
X35067258Y20227500D01*
%TO.C,C19*%
X64185000Y18239419D02*
X64185000Y18520581D01*
X65205000Y18239419D02*
X65205000Y18520581D01*
%TO.C,C21*%
X30180000Y34074419D02*
X30180000Y34355581D01*
X31200000Y34074419D02*
X31200000Y34355581D01*
%TO.C,C51*%
X16348781Y819970D02*
X16149970Y1018781D01*
X17070030Y1541219D02*
X16871219Y1740030D01*
%TO.C,U6*%
X41570000Y24620000D02*
X41570001Y22670000D01*
X41570000Y20720000D02*
X41570001Y22670000D01*
X46690000Y24620000D02*
X46689999Y22670000D01*
X46690000Y20720000D02*
X46689999Y22670000D01*
X41665000Y25370000D02*
X41335000Y25130000D01*
X41335000Y25609999D01*
X41665000Y25370000D01*
G36*
X41665000Y25370000D02*
G01*
X41335000Y25130000D01*
X41335000Y25609999D01*
X41665000Y25370000D01*
G37*
%TO.C,R11*%
X58287742Y26962500D02*
X58762258Y26962500D01*
X58287742Y25917500D02*
X58762258Y25917500D01*
%TO.C,D10*%
X72339999Y31850000D02*
X72339999Y30150000D01*
X74999999Y31850000D02*
X72339999Y31850000D01*
X74999999Y30150000D02*
X72339999Y30150000D01*
%TO.C,R28*%
X70707500Y27202742D02*
X70707500Y27677258D01*
X71752500Y27202742D02*
X71752500Y27677258D01*
%TO.C,D19*%
X50719320Y15933410D02*
X50719320Y13273410D01*
X50719320Y13273410D02*
X52419320Y13273410D01*
X52419320Y15933410D02*
X52419320Y13273410D01*
%TO.C,D22*%
X17190000Y9660000D02*
X17190000Y7000000D01*
X17190000Y7000000D02*
X18890000Y7000000D01*
X18890000Y9660000D02*
X18890000Y7000000D01*
%TO.C,D24*%
X47335910Y14610000D02*
X47335910Y12910000D01*
X49995910Y14610000D02*
X47335910Y14610000D01*
X49995910Y12910000D02*
X47335910Y12910000D01*
%TO.C,C29*%
X17395581Y28190000D02*
X17114419Y28190000D01*
X17395581Y27170000D02*
X17114419Y27170000D01*
%TO.C,R53*%
X23497500Y20047742D02*
X23497500Y20522258D01*
X24542500Y20047742D02*
X24542500Y20522258D01*
%TO.C,R10*%
X32897742Y24762500D02*
X33372258Y24762500D01*
X32897742Y23717500D02*
X33372258Y23717500D01*
%TO.C,U5*%
X62025000Y34725000D02*
X62025001Y32775000D01*
X62025000Y30825000D02*
X62025001Y32775000D01*
X67145000Y34725000D02*
X67144999Y32775000D01*
X67145000Y30825000D02*
X67144999Y32775000D01*
X62120000Y35475000D02*
X61790000Y35235000D01*
X61790000Y35714999D01*
X62120000Y35475000D01*
G36*
X62120000Y35475000D02*
G01*
X61790000Y35235000D01*
X61790000Y35714999D01*
X62120000Y35475000D01*
G37*
%TO.C,R23*%
X75512742Y36592500D02*
X75987258Y36592500D01*
X75512742Y35547500D02*
X75987258Y35547500D01*
%TO.C,R30*%
X77567742Y24577500D02*
X78042258Y24577500D01*
X77567742Y23532500D02*
X78042258Y23532500D01*
%TO.C,C14*%
X32030000Y21384419D02*
X32030000Y21665581D01*
X33050000Y21384419D02*
X33050000Y21665581D01*
%TO.C,D8*%
X58459999Y20030000D02*
X58459999Y18330000D01*
X61119999Y20030000D02*
X58459999Y20030000D01*
X61119999Y18330000D02*
X58459999Y18330000D01*
%TO.C,D6*%
X58839999Y23970000D02*
X58839999Y22270000D01*
X61499999Y23970000D02*
X58839999Y23970000D01*
X61499999Y22270000D02*
X58839999Y22270000D01*
%TO.C,C20*%
X57040000Y18274419D02*
X57040000Y18555581D01*
X58060000Y18274419D02*
X58060000Y18555581D01*
%TO.C,R60*%
X17427500Y4697742D02*
X17427500Y5172258D01*
X18472500Y4697742D02*
X18472500Y5172258D01*
%TO.C,R26*%
X34547742Y17712500D02*
X35022258Y17712500D01*
X34547742Y16667500D02*
X35022258Y16667500D01*
%TO.C,C52*%
X23235581Y17730000D02*
X22954419Y17730000D01*
X23235581Y16710000D02*
X22954419Y16710000D01*
%TO.C,D17*%
X23369320Y24832501D02*
X23369320Y22172501D01*
X23369320Y22172501D02*
X25069320Y22172501D01*
X25069320Y24832501D02*
X25069320Y22172501D01*
%TO.C,D9*%
X75790000Y32859999D02*
X75790000Y30199999D01*
X75790000Y30199999D02*
X77490000Y30199999D01*
X77490000Y32859999D02*
X77490000Y30199999D01*
%TO.C,C17*%
X62510581Y21745000D02*
X62229419Y21745000D01*
X62510581Y20725000D02*
X62229419Y20725000D01*
%TO.C,R36*%
X48917258Y17655911D02*
X48442742Y17655911D01*
X48917258Y16610911D02*
X48442742Y16610911D01*
%TO.C,D5*%
X60689320Y26882501D02*
X60689320Y24222501D01*
X60689320Y24222501D02*
X62389320Y24222501D01*
X62389320Y26882501D02*
X62389320Y24222501D01*
%TO.C,R17*%
X57527500Y32992258D02*
X57527500Y32517742D01*
X58572500Y32992258D02*
X58572500Y32517742D01*
%TO.C,C32*%
X69165000Y27299419D02*
X69165000Y27580581D01*
X70185000Y27299419D02*
X70185000Y27580581D01*
%TO.C,D7*%
X61950000Y17037500D02*
X61950000Y19697500D01*
X63650000Y19697500D02*
X61950000Y19697500D01*
X63650000Y17037500D02*
X63650000Y19697500D01*
%TO.C,C33*%
X52850000Y12914419D02*
X52850000Y13195581D01*
X53870000Y12914419D02*
X53870000Y13195581D01*
%TO.C,R27*%
X68732742Y33642500D02*
X69207258Y33642500D01*
X68732742Y32597500D02*
X69207258Y32597500D01*
%TO.C,R20*%
X64442258Y13277501D02*
X63967742Y13277501D01*
X64442258Y12232501D02*
X63967742Y12232501D01*
%TO.C,R59*%
X17907500Y30652742D02*
X17907500Y31127258D01*
X18952500Y30652742D02*
X18952500Y31127258D01*
%TO.C,R18*%
X58267742Y28582500D02*
X58742258Y28582500D01*
X58267742Y27537500D02*
X58742258Y27537500D01*
%TO.C,C34*%
X48800581Y16088410D02*
X48519419Y16088410D01*
X48800581Y15068410D02*
X48519419Y15068410D01*
%TO.C,R21*%
X55527500Y21722258D02*
X55527500Y21247742D01*
X56572500Y21722258D02*
X56572500Y21247742D01*
%TO.C,R24*%
X32752742Y34012500D02*
X33227258Y34012500D01*
X32752742Y32967500D02*
X33227258Y32967500D01*
%TO.C,C31*%
X79145581Y28730000D02*
X78864419Y28730000D01*
X79145581Y27710000D02*
X78864419Y27710000D01*
%TO.C,R31*%
X67137742Y28722500D02*
X67612258Y28722500D01*
X67137742Y27677500D02*
X67612258Y27677500D01*
D12*
%TO.C,U3*%
X39083601Y7876100D02*
X39083601Y7660715D01*
X39083601Y5246685D02*
X39083601Y5031300D01*
X39083601Y5031300D02*
X39802988Y5031300D01*
X39802988Y7876100D02*
X39083601Y7876100D01*
X41717014Y5031300D02*
X42436401Y5031300D01*
X42436401Y7876100D02*
X41717014Y7876100D01*
X42436401Y7660715D02*
X42436401Y7876100D01*
X42436401Y5031300D02*
X42436401Y5246685D01*
D13*
G36*
X39058201Y6513199D02*
G01*
X38804201Y6513199D01*
X38804201Y6894200D01*
X39058201Y6894200D01*
X39058201Y6513199D01*
G37*
D11*
%TO.C,R25*%
X32757742Y28552500D02*
X33232258Y28552500D01*
X32757742Y27507500D02*
X33232258Y27507500D01*
%TO.C,R19*%
X55522500Y18177742D02*
X55522500Y18652258D01*
X56567500Y18177742D02*
X56567500Y18652258D01*
%TO.C,C26*%
X72255581Y33610000D02*
X71974419Y33610000D01*
X72255581Y32590000D02*
X71974419Y32590000D01*
%TO.C,D18*%
X72109999Y29080000D02*
X72109999Y27380000D01*
X74769999Y29080000D02*
X72109999Y29080000D01*
X74769999Y27380000D02*
X72109999Y27380000D01*
%TO.C,C25*%
X79305581Y31230000D02*
X79024419Y31230000D01*
X79305581Y30210000D02*
X79024419Y30210000D01*
%TO.C,C18*%
X58404419Y25405000D02*
X58685581Y25405000D01*
X58404419Y24385000D02*
X58685581Y24385000D01*
%TO.C,R37*%
X43017500Y15037742D02*
X43017500Y15512258D01*
X44062500Y15037742D02*
X44062500Y15512258D01*
%TO.C,D21*%
X17540000Y35430000D02*
X17540000Y32770000D01*
X17540000Y32770000D02*
X19240000Y32770000D01*
X19240000Y35430000D02*
X19240000Y32770000D01*
%TO.C,C11*%
X20835000Y-6799419D02*
X20835000Y-7080581D01*
X21855000Y-6799419D02*
X21855000Y-7080581D01*
%TO.C,C22*%
X30060000Y28674419D02*
X30060000Y28955581D01*
X31080000Y28674419D02*
X31080000Y28955581D01*
%TO.C,R22*%
X70322742Y31522500D02*
X70797258Y31522500D01*
X70322742Y30477500D02*
X70797258Y30477500D01*
%TO.C,C23*%
X31925000Y17799419D02*
X31925000Y18080581D01*
X32945000Y17799419D02*
X32945000Y18080581D01*
%TO.C,C13*%
X21000000Y-16234419D02*
X21000000Y-16515581D01*
X22020000Y-16234419D02*
X22020000Y-16515581D01*
%TO.C,C4*%
X38804420Y4600000D02*
X39085580Y4600000D01*
X38804420Y3580000D02*
X39085580Y3580000D01*
%TO.C,D11*%
X75520000Y26070001D02*
X75520000Y28730001D01*
X77220000Y28730001D02*
X75520000Y28730001D01*
X77220000Y26070001D02*
X77220000Y28730001D01*
%TD*%
M02*
