%TF.GenerationSoftware,KiCad,Pcbnew,9.0.7*%
%TF.CreationDate,2026-06-12T17:43:19+08:00*%
%TF.ProjectId,STC_mainboard,5354435f-6d61-4696-9e62-6f6172642e6b,rev?*%
%TF.SameCoordinates,Original*%
%TF.FileFunction,Soldermask,Top*%
%TF.FilePolarity,Negative*%
%FSLAX46Y46*%
G04 Gerber Fmt 4.6, Leading zero omitted, Abs format (unit mm)*
G04 Created by KiCad (PCBNEW 9.0.7) date 2026-06-12 17:43:19*
%MOMM*%
%LPD*%
G01*
G04 APERTURE LIST*
G04 Aperture macros list*
%AMRoundRect*
0 Rectangle with rounded corners*
0 $1 Rounding radius*
0 $2 $3 $4 $5 $6 $7 $8 $9 X,Y pos of 4 corners*
0 Add a 4 corners polygon primitive as box body*
4,1,4,$2,$3,$4,$5,$6,$7,$8,$9,$2,$3,0*
0 Add four circle primitives for the rounded corners*
1,1,$1+$1,$2,$3*
1,1,$1+$1,$4,$5*
1,1,$1+$1,$6,$7*
1,1,$1+$1,$8,$9*
0 Add four rect primitives between the rounded corners*
20,1,$1+$1,$2,$3,$4,$5,0*
20,1,$1+$1,$4,$5,$6,$7,0*
20,1,$1+$1,$6,$7,$8,$9,0*
20,1,$1+$1,$8,$9,$2,$3,0*%
G04 Aperture macros list end*
%ADD10RoundRect,0.225000X-0.225000X-0.250000X0.225000X-0.250000X0.225000X0.250000X-0.225000X0.250000X0*%
%ADD11RoundRect,0.225000X0.250000X-0.225000X0.250000X0.225000X-0.250000X0.225000X-0.250000X-0.225000X0*%
%ADD12R,2.500000X1.800000*%
%ADD13R,1.500000X2.200000*%
%ADD14RoundRect,0.200000X-0.200000X-0.275000X0.200000X-0.275000X0.200000X0.275000X-0.200000X0.275000X0*%
%ADD15RoundRect,0.200000X-0.275000X0.200000X-0.275000X-0.200000X0.275000X-0.200000X0.275000X0.200000X0*%
%ADD16RoundRect,0.150000X0.825000X0.150000X-0.825000X0.150000X-0.825000X-0.150000X0.825000X-0.150000X0*%
%ADD17R,0.600000X1.700000*%
%ADD18R,1.000000X2.800000*%
%ADD19RoundRect,0.225000X0.017678X-0.335876X0.335876X-0.017678X-0.017678X0.335876X-0.335876X0.017678X0*%
%ADD20C,1.440000*%
%ADD21RoundRect,0.317500X0.952500X-0.317500X0.952500X0.317500X-0.952500X0.317500X-0.952500X-0.317500X0*%
%ADD22RoundRect,0.317500X0.317500X0.952500X-0.317500X0.952500X-0.317500X-0.952500X0.317500X-0.952500X0*%
%ADD23R,2.000000X1.500000*%
%ADD24R,2.000000X3.800000*%
%ADD25RoundRect,0.225000X-0.250000X0.225000X-0.250000X-0.225000X0.250000X-0.225000X0.250000X0.225000X0*%
%ADD26C,1.500000*%
%ADD27R,1.120000X2.160000*%
%ADD28RoundRect,0.250000X0.600000X0.750000X-0.600000X0.750000X-0.600000X-0.750000X0.600000X-0.750000X0*%
%ADD29O,1.700000X2.000000*%
%ADD30RoundRect,0.250000X0.725000X-0.600000X0.725000X0.600000X-0.725000X0.600000X-0.725000X-0.600000X0*%
%ADD31O,1.950000X1.700000*%
G04 APERTURE END LIST*
D10*
%TO.C,C8*%
X13350000Y-26500000D03*
X14900000Y-26500000D03*
%TD*%
D11*
%TO.C,C9*%
X8900000Y-16775000D03*
X8900000Y-15225000D03*
%TD*%
D12*
%TO.C,D2*%
X11400000Y-7000000D03*
X15400000Y-7000000D03*
%TD*%
D13*
%TO.C,L1*%
X17500000Y-13000000D03*
X11100000Y-13000000D03*
%TD*%
D11*
%TO.C,C7*%
X9400000Y-23550000D03*
X9400000Y-22000000D03*
%TD*%
D14*
%TO.C,R1*%
X10900000Y-19000000D03*
X12550000Y-19000000D03*
%TD*%
D15*
%TO.C,R2*%
X8900000Y-18500000D03*
X8900000Y-20150000D03*
%TD*%
D14*
%TO.C,R4*%
X14750000Y-18500000D03*
X16400000Y-18500000D03*
%TD*%
D16*
%TO.C,U11*%
X16975000Y-24405000D03*
X16975000Y-23135000D03*
X16975000Y-21865000D03*
X16975000Y-20595000D03*
X12025000Y-20595000D03*
X12025000Y-21865000D03*
X12025000Y-23135000D03*
X12025000Y-24405000D03*
%TD*%
D17*
%TO.C,P1*%
X4750000Y-30130000D03*
X6000000Y-30130000D03*
X7250000Y-30130000D03*
X8500000Y-30130000D03*
D18*
X10350000Y-33280000D03*
X400000Y-33280000D03*
%TD*%
D19*
%TO.C,C6*%
X20461992Y-27323008D03*
X21558008Y-26226992D03*
%TD*%
%TO.C,C5*%
X18903984Y-26096016D03*
X20000000Y-25000000D03*
%TD*%
D20*
%TO.C,RV1*%
X50960001Y33540000D03*
X53500001Y33540000D03*
X56040000Y33540000D03*
%TD*%
D21*
%TO.C,J9*%
X30800000Y39530000D03*
%TD*%
D20*
%TO.C,RV2*%
X59945000Y14535001D03*
X62485000Y14535001D03*
X65024999Y14535001D03*
%TD*%
D22*
%TO.C,J5*%
X81580000Y30180000D03*
%TD*%
D23*
%TO.C,U4*%
X52410000Y-1610000D03*
X52409999Y690000D03*
X52410000Y2990000D03*
D24*
X46110001Y690000D03*
%TD*%
D25*
%TO.C,C15*%
X33975000Y-35475000D03*
X33975000Y-37025000D03*
%TD*%
D26*
%TO.C,U1*%
X5970000Y35610000D03*
X8510000Y35610000D03*
X5970000Y33070000D03*
X8510000Y33070000D03*
X8510000Y30530000D03*
X8510000Y25450000D03*
X5970000Y22910000D03*
X8510000Y22910000D03*
X8510000Y15290000D03*
X5970000Y12750000D03*
X5970000Y10210000D03*
X8510000Y10210000D03*
X8510000Y7670000D03*
X5970000Y50000D03*
X8510000Y50000D03*
X5970000Y-2490000D03*
X8510000Y-2490000D03*
X26290000Y-2490000D03*
X28830000Y-2490000D03*
X28830000Y50000D03*
X26290000Y7670000D03*
X28830000Y7670000D03*
X26290000Y17830000D03*
X28830000Y17830000D03*
X26290000Y20370000D03*
X28830000Y20370000D03*
X26290000Y22910000D03*
X26290000Y25450000D03*
X28830000Y27990000D03*
X28830000Y30530000D03*
%TD*%
D27*
%TO.C,SW3*%
X21398957Y-22323957D03*
X21398957Y-15593957D03*
%TD*%
D22*
%TO.C,J6*%
X81570000Y26880000D03*
%TD*%
%TO.C,J8*%
X66310000Y18500000D03*
%TD*%
D20*
%TO.C,RV5*%
X45170002Y11939999D03*
X45170002Y14479999D03*
X45170002Y17019998D03*
%TD*%
D28*
%TO.C,J4*%
X56290000Y-33440000D03*
D29*
X53790000Y-33440000D03*
%TD*%
D25*
%TO.C,C16*%
X43930000Y800000D03*
X43930000Y-750000D03*
%TD*%
D22*
%TO.C,J3*%
X64740000Y21680000D03*
%TD*%
D30*
%TO.C,J1*%
X2375001Y28375001D03*
D31*
X2375001Y30875001D03*
X2375001Y33375001D03*
X2375001Y35875001D03*
%TD*%
D30*
%TO.C,J10*%
X2460000Y7750000D03*
D31*
X2460000Y10250000D03*
X2460000Y12750000D03*
X2460000Y15250000D03*
%TD*%
D21*
%TO.C,J12*%
X50790000Y39500000D03*
%TD*%
D20*
%TO.C,RV3*%
X80030000Y34400000D03*
X77490000Y34400000D03*
X74950001Y34400000D03*
%TD*%
D25*
%TO.C,C1*%
X54570000Y630000D03*
X54570000Y-920000D03*
%TD*%
D20*
%TO.C,RV4*%
X79585000Y22175000D03*
X77045000Y22175000D03*
X74505000Y22175000D03*
%TD*%
D22*
%TO.C,J2*%
X53340000Y9880000D03*
%TD*%
D17*
%TO.C,P2*%
X16400000Y-30150000D03*
X17650000Y-30150000D03*
X18900000Y-30150000D03*
X20150000Y-30150000D03*
D18*
X22000000Y-33300000D03*
X12050000Y-33300000D03*
%TD*%
D27*
%TO.C,SW1*%
X21360000Y-12820000D03*
X21360000Y-6090000D03*
%TD*%
M02*
