%TF.GenerationSoftware,KiCad,Pcbnew,8.0.0*%
%TF.CreationDate,2026-03-13T15:43:39+08:00*%
%TF.ProjectId,ken_EMstick,6b656e5f-454d-4737-9469-636b2e6b6963,rev?*%
%TF.SameCoordinates,Original*%
%TF.FileFunction,Copper,L1,Top*%
%TF.FilePolarity,Positive*%
%FSLAX46Y46*%
G04 Gerber Fmt 4.6, Leading zero omitted, Abs format (unit mm)*
G04 Created by KiCad (PCBNEW 8.0.0) date 2026-03-13 15:43:39*
%MOMM*%
%LPD*%
G01*
G04 APERTURE LIST*
G04 Aperture macros list*
%AMRoundRect*
0 Rectangle with rounded corners*
0 $1 Rounding radius*
0 $2 $3 $4 $5 $6 $7 $8 $9 X,Y pos of 4 corners*
0 Add a 4 corners polygon primitive as box body*
4,1,4,$2,$3,$4,$5,$6,$7,$8,$9,$2,$3,0*
0 Add four circle primitives for the rounded corners*
1,1,$1+$1,$2,$3*
1,1,$1+$1,$4,$5*
1,1,$1+$1,$6,$7*
1,1,$1+$1,$8,$9*
0 Add four rect primitives between the rounded corners*
20,1,$1+$1,$2,$3,$4,$5,0*
20,1,$1+$1,$4,$5,$6,$7,0*
20,1,$1+$1,$6,$7,$8,$9,0*
20,1,$1+$1,$8,$9,$2,$3,0*%
%AMHorizOval*
0 Thick line with rounded ends*
0 $1 width*
0 $2 $3 position (X,Y) of the first rounded end (center of the circle)*
0 $4 $5 position (X,Y) of the second rounded end (center of the circle)*
0 Add line between two ends*
20,1,$1,$2,$3,$4,$5,0*
0 Add two circle primitives to create the rounded ends*
1,1,$1,$2,$3*
1,1,$1,$4,$5*%
G04 Aperture macros list end*
%TA.AperFunction,ComponentPad*%
%ADD10C,1.600000*%
%TD*%
%TA.AperFunction,ComponentPad*%
%ADD11HorizOval,1.600000X0.000000X0.000000X0.000000X0.000000X0*%
%TD*%
%TA.AperFunction,ComponentPad*%
%ADD12HorizOval,1.600000X0.000000X0.000000X0.000000X0.000000X0*%
%TD*%
%TA.AperFunction,SMDPad,CuDef*%
%ADD13RoundRect,0.225000X-0.225000X-0.250000X0.225000X-0.250000X0.225000X0.250000X-0.225000X0.250000X0*%
%TD*%
%TA.AperFunction,SMDPad,CuDef*%
%ADD14RoundRect,0.225000X0.250000X-0.225000X0.250000X0.225000X-0.250000X0.225000X-0.250000X-0.225000X0*%
%TD*%
%TA.AperFunction,ComponentPad*%
%ADD15HorizOval,1.600000X0.000000X0.000000X0.000000X0.000000X0*%
%TD*%
%TA.AperFunction,ComponentPad*%
%ADD16HorizOval,1.600000X0.000000X0.000000X0.000000X0.000000X0*%
%TD*%
%TA.AperFunction,SMDPad,CuDef*%
%ADD17RoundRect,0.225000X0.335876X0.017678X0.017678X0.335876X-0.335876X-0.017678X-0.017678X-0.335876X0*%
%TD*%
%TA.AperFunction,ComponentPad*%
%ADD18O,1.600000X1.600000*%
%TD*%
%TA.AperFunction,SMDPad,CuDef*%
%ADD19RoundRect,0.225000X-0.335876X-0.017678X-0.017678X-0.335876X0.335876X0.017678X0.017678X0.335876X0*%
%TD*%
%TA.AperFunction,ComponentPad*%
%ADD20RoundRect,0.250000X0.600000X0.725000X-0.600000X0.725000X-0.600000X-0.725000X0.600000X-0.725000X0*%
%TD*%
%TA.AperFunction,ComponentPad*%
%ADD21O,1.700000X1.950000*%
%TD*%
%TA.AperFunction,Conductor*%
%ADD22C,0.508000*%
%TD*%
G04 APERTURE END LIST*
D10*
%TO.P,L1,1*%
%TO.N,/L1*%
X77433157Y-88070576D03*
D11*
%TO.P,L1,2*%
%TO.N,GND*%
X73841055Y-84478474D03*
%TD*%
D10*
%TO.P,L2,1*%
%TO.N,/L2*%
X113746869Y-84521607D03*
D12*
%TO.P,L2,2*%
%TO.N,GND*%
X110154767Y-88113709D03*
%TD*%
D13*
%TO.P,C1,1*%
%TO.N,/L1*%
X77466992Y-91608008D03*
%TO.P,C1,2*%
%TO.N,GND*%
X79016992Y-91608008D03*
%TD*%
D14*
%TO.P,C2,1*%
%TO.N,/L2*%
X117310000Y-84430000D03*
%TO.P,C2,2*%
%TO.N,GND*%
X117310000Y-82880000D03*
%TD*%
D13*
%TO.P,C3,1*%
%TO.N,/L3*%
X139330000Y-85960000D03*
%TO.P,C3,2*%
%TO.N,GND*%
X140880000Y-85960000D03*
%TD*%
D10*
%TO.P,L4,1*%
%TO.N,/L4*%
X148841056Y-84478473D03*
D15*
%TO.P,L4,2*%
%TO.N,GND*%
X152433158Y-88070575D03*
%TD*%
D10*
%TO.P,L5,1*%
%TO.N,/L5*%
X185154764Y-88113708D03*
D16*
%TO.P,L5,2*%
%TO.N,GND*%
X188746866Y-84521606D03*
%TD*%
D17*
%TO.P,C4,1*%
%TO.N,/L4*%
X148766016Y-88176016D03*
%TO.P,C4,2*%
%TO.N,GND*%
X147670000Y-87080000D03*
%TD*%
D10*
%TO.P,L3,1*%
%TO.N,/L3*%
X139315527Y-83209737D03*
D18*
%TO.P,L3,2*%
%TO.N,GND*%
X139315527Y-78129737D03*
%TD*%
D19*
%TO.P,C5,1*%
%TO.N,/L5*%
X183220000Y-90130000D03*
%TO.P,C5,2*%
%TO.N,GND*%
X184316016Y-91226016D03*
%TD*%
D20*
%TO.P,J4,1,Pin_1*%
%TO.N,GND*%
X144270000Y-109000000D03*
D21*
%TO.P,J4,2,Pin_2*%
%TO.N,/L5*%
X141770000Y-109000000D03*
%TO.P,J4,3,Pin_3*%
%TO.N,/L4*%
X139270000Y-109000000D03*
%TO.P,J4,4,Pin_4*%
%TO.N,GND*%
X136770000Y-109000000D03*
%TD*%
D20*
%TO.P,J3,1,Pin_1*%
%TO.N,GND*%
X129420000Y-108860000D03*
D21*
%TO.P,J3,2,Pin_2*%
%TO.N,/L3*%
X126920000Y-108860000D03*
%TO.P,J3,3,Pin_3*%
%TO.N,/L2*%
X124420000Y-108860000D03*
%TO.P,J3,4,Pin_4*%
%TO.N,/L1*%
X121920000Y-108860000D03*
%TD*%
D22*
%TO.N,/L1*%
X77433157Y-88070576D02*
X77433157Y-98070575D01*
X81502582Y-102140000D02*
X114860000Y-102140000D01*
X77433157Y-98070575D02*
X81502582Y-102140000D01*
X114860000Y-102140000D02*
X121850000Y-109130000D01*
%TO.N,/L2*%
X124370000Y-90960000D02*
X124370000Y-109110000D01*
X117931607Y-84521607D02*
X124370000Y-90960000D01*
X124370000Y-109110000D02*
X124350000Y-109130000D01*
X113746869Y-84521607D02*
X117931607Y-84521607D01*
%TO.N,/L3*%
X139315527Y-83209737D02*
X139315527Y-90334473D01*
X139315527Y-90334473D02*
X126850000Y-102800000D01*
X126850000Y-102800000D02*
X126850000Y-109130000D01*
%TO.N,/L4*%
X148841056Y-89478473D02*
X139220000Y-99099529D01*
X148841056Y-84478473D02*
X148841056Y-89478473D01*
X139220000Y-109250000D02*
X139200000Y-109270000D01*
X139220000Y-99099529D02*
X139220000Y-109250000D01*
%TO.N,/L5*%
X182694472Y-90574000D02*
X152026000Y-90574000D01*
X152026000Y-90574000D02*
X141700000Y-100900000D01*
X185154764Y-88113708D02*
X182694472Y-90574000D01*
X141700000Y-100900000D02*
X141700000Y-109270000D01*
%TD*%
%TA.AperFunction,Conductor*%
%TO.N,GND*%
G36*
X186042702Y-72480617D02*
G01*
X186426771Y-72497386D01*
X186437506Y-72498326D01*
X186815971Y-72548152D01*
X186826597Y-72550025D01*
X187199284Y-72632648D01*
X187209710Y-72635442D01*
X187573765Y-72750227D01*
X187583911Y-72753920D01*
X187936578Y-72900000D01*
X187946369Y-72904566D01*
X188284942Y-73080816D01*
X188294310Y-73086224D01*
X188616244Y-73291318D01*
X188625105Y-73297523D01*
X188927930Y-73529889D01*
X188936217Y-73536843D01*
X189217635Y-73794715D01*
X189225284Y-73802364D01*
X189483156Y-74083782D01*
X189490110Y-74092069D01*
X189722476Y-74394894D01*
X189728681Y-74403755D01*
X189933775Y-74725689D01*
X189939183Y-74735057D01*
X190115430Y-75073623D01*
X190120002Y-75083427D01*
X190266075Y-75436078D01*
X190269775Y-75446244D01*
X190384554Y-75810278D01*
X190387354Y-75820727D01*
X190469971Y-76193389D01*
X190471849Y-76204042D01*
X190521671Y-76582473D01*
X190522614Y-76593249D01*
X190539382Y-76977297D01*
X190539500Y-76982706D01*
X190539500Y-107407293D01*
X190539382Y-107412702D01*
X190522614Y-107796750D01*
X190521671Y-107807526D01*
X190471849Y-108185957D01*
X190469971Y-108196610D01*
X190387354Y-108569272D01*
X190384554Y-108579721D01*
X190269775Y-108943755D01*
X190266075Y-108953921D01*
X190120002Y-109306572D01*
X190115430Y-109316376D01*
X189939183Y-109654942D01*
X189933775Y-109664310D01*
X189728681Y-109986244D01*
X189722476Y-109995105D01*
X189490110Y-110297930D01*
X189483156Y-110306217D01*
X189225284Y-110587635D01*
X189217635Y-110595284D01*
X188936217Y-110853156D01*
X188927930Y-110860110D01*
X188625105Y-111092476D01*
X188616244Y-111098681D01*
X188294310Y-111303775D01*
X188284942Y-111309183D01*
X187946376Y-111485430D01*
X187936572Y-111490002D01*
X187583921Y-111636075D01*
X187573755Y-111639775D01*
X187209721Y-111754554D01*
X187199272Y-111757354D01*
X186826610Y-111839971D01*
X186815957Y-111841849D01*
X186437526Y-111891671D01*
X186426750Y-111892614D01*
X186042703Y-111909382D01*
X186037294Y-111909500D01*
X76242706Y-111909500D01*
X76237297Y-111909382D01*
X75853249Y-111892614D01*
X75842473Y-111891671D01*
X75464042Y-111841849D01*
X75453389Y-111839971D01*
X75080727Y-111757354D01*
X75070278Y-111754554D01*
X74706244Y-111639775D01*
X74696078Y-111636075D01*
X74343427Y-111490002D01*
X74333623Y-111485430D01*
X73995057Y-111309183D01*
X73985689Y-111303775D01*
X73663755Y-111098681D01*
X73654894Y-111092476D01*
X73352069Y-110860110D01*
X73343782Y-110853156D01*
X73062364Y-110595284D01*
X73054715Y-110587635D01*
X72796843Y-110306217D01*
X72789889Y-110297930D01*
X72557523Y-109995105D01*
X72551318Y-109986244D01*
X72346224Y-109664310D01*
X72340816Y-109654942D01*
X72164569Y-109316376D01*
X72159997Y-109306572D01*
X72128813Y-109231287D01*
X72013920Y-108953911D01*
X72010224Y-108943755D01*
X72009522Y-108941528D01*
X71895442Y-108579710D01*
X71892648Y-108569284D01*
X71810025Y-108196597D01*
X71808152Y-108185971D01*
X71758326Y-107807506D01*
X71757386Y-107796771D01*
X71740618Y-107412702D01*
X71740500Y-107407293D01*
X71740500Y-106941288D01*
X109465028Y-106941288D01*
X109496689Y-107181785D01*
X109559475Y-107416104D01*
X109652301Y-107640205D01*
X109652305Y-107640214D01*
X109660294Y-107654051D01*
X109773592Y-107850289D01*
X109773594Y-107850292D01*
X109773595Y-107850293D01*
X109921261Y-108042736D01*
X109921267Y-108042743D01*
X110092784Y-108214260D01*
X110092790Y-108214265D01*
X110285239Y-108361936D01*
X110495316Y-108483224D01*
X110719428Y-108576054D01*
X110953739Y-108638838D01*
X111134114Y-108662584D01*
X111194239Y-108670500D01*
X111194240Y-108670500D01*
X111436817Y-108670500D01*
X111484916Y-108664167D01*
X111677317Y-108638838D01*
X111911628Y-108576054D01*
X112135740Y-108483224D01*
X112345817Y-108361936D01*
X112538266Y-108214265D01*
X112709793Y-108042738D01*
X112857464Y-107850289D01*
X112978752Y-107640212D01*
X113071582Y-107416100D01*
X113134366Y-107181789D01*
X113166028Y-106941288D01*
X113166028Y-106698712D01*
X113134366Y-106458211D01*
X113071582Y-106223900D01*
X112978752Y-105999788D01*
X112857464Y-105789711D01*
X112709793Y-105597262D01*
X112709788Y-105597256D01*
X112538271Y-105425739D01*
X112538264Y-105425733D01*
X112345821Y-105278067D01*
X112345820Y-105278066D01*
X112345817Y-105278064D01*
X112135740Y-105156776D01*
X112135733Y-105156773D01*
X111911632Y-105063947D01*
X111677313Y-105001161D01*
X111436817Y-104969500D01*
X111436816Y-104969500D01*
X111194240Y-104969500D01*
X111194239Y-104969500D01*
X110953742Y-105001161D01*
X110719423Y-105063947D01*
X110495322Y-105156773D01*
X110495313Y-105156777D01*
X110285234Y-105278067D01*
X110092791Y-105425733D01*
X110092784Y-105425739D01*
X109921267Y-105597256D01*
X109921261Y-105597263D01*
X109773595Y-105789706D01*
X109652305Y-105999785D01*
X109652301Y-105999794D01*
X109559475Y-106223895D01*
X109496689Y-106458214D01*
X109465028Y-106698711D01*
X109465028Y-106941288D01*
X71740500Y-106941288D01*
X71740500Y-88070577D01*
X76127689Y-88070577D01*
X76147521Y-88297262D01*
X76147523Y-88297273D01*
X76206415Y-88517064D01*
X76206418Y-88517073D01*
X76302588Y-88723308D01*
X76302589Y-88723310D01*
X76433111Y-88909717D01*
X76594013Y-89070619D01*
X76594016Y-89070621D01*
X76594018Y-89070623D01*
X76625780Y-89092862D01*
X76669404Y-89147436D01*
X76678657Y-89194437D01*
X76678657Y-90854180D01*
X76660195Y-90919277D01*
X76579993Y-91049302D01*
X76579988Y-91049313D01*
X76526643Y-91210298D01*
X76516492Y-91309655D01*
X76516492Y-91906345D01*
X76516493Y-91906363D01*
X76526642Y-92005715D01*
X76526643Y-92005718D01*
X76579988Y-92166702D01*
X76579991Y-92166709D01*
X76613014Y-92220246D01*
X76660195Y-92296739D01*
X76678657Y-92361835D01*
X76678657Y-97991127D01*
X76678656Y-97991153D01*
X76678656Y-97996263D01*
X76678656Y-98144887D01*
X76678656Y-98144889D01*
X76678655Y-98144889D01*
X76707650Y-98290648D01*
X76707653Y-98290658D01*
X76764523Y-98427956D01*
X76764529Y-98427967D01*
X76847099Y-98551543D01*
X81021613Y-102726057D01*
X81021616Y-102726059D01*
X81145193Y-102808630D01*
X81225625Y-102841945D01*
X81225626Y-102841946D01*
X81249185Y-102851704D01*
X81282502Y-102865505D01*
X81282511Y-102865506D01*
X81282512Y-102865507D01*
X81306685Y-102870315D01*
X81306692Y-102870316D01*
X81428268Y-102894501D01*
X81428270Y-102894501D01*
X81583008Y-102894501D01*
X81583028Y-102894500D01*
X114496113Y-102894500D01*
X114563152Y-102914185D01*
X114583794Y-102930819D01*
X120533181Y-108880205D01*
X120566666Y-108941528D01*
X120569500Y-108967886D01*
X120569500Y-109091287D01*
X120602754Y-109301243D01*
X120638476Y-109411185D01*
X120668444Y-109503414D01*
X120764951Y-109692820D01*
X120889890Y-109864786D01*
X121040213Y-110015109D01*
X121212179Y-110140048D01*
X121212181Y-110140049D01*
X121212184Y-110140051D01*
X121401588Y-110236557D01*
X121603757Y-110302246D01*
X121813713Y-110335500D01*
X121813714Y-110335500D01*
X122026286Y-110335500D01*
X122026287Y-110335500D01*
X122236243Y-110302246D01*
X122438412Y-110236557D01*
X122627816Y-110140051D01*
X122649789Y-110124086D01*
X122799786Y-110015109D01*
X122799788Y-110015106D01*
X122799792Y-110015104D01*
X122950104Y-109864792D01*
X123069683Y-109700204D01*
X123125011Y-109657540D01*
X123194624Y-109651561D01*
X123256420Y-109684166D01*
X123270313Y-109700199D01*
X123336691Y-109791561D01*
X123389896Y-109864792D01*
X123540213Y-110015109D01*
X123712179Y-110140048D01*
X123712181Y-110140049D01*
X123712184Y-110140051D01*
X123901588Y-110236557D01*
X124103757Y-110302246D01*
X124313713Y-110335500D01*
X124313714Y-110335500D01*
X124526286Y-110335500D01*
X124526287Y-110335500D01*
X124736243Y-110302246D01*
X124938412Y-110236557D01*
X125127816Y-110140051D01*
X125149789Y-110124086D01*
X125299786Y-110015109D01*
X125299788Y-110015106D01*
X125299792Y-110015104D01*
X125450104Y-109864792D01*
X125569683Y-109700204D01*
X125625011Y-109657540D01*
X125694624Y-109651561D01*
X125756420Y-109684166D01*
X125770313Y-109700199D01*
X125836691Y-109791561D01*
X125889896Y-109864792D01*
X126040213Y-110015109D01*
X126212179Y-110140048D01*
X126212181Y-110140049D01*
X126212184Y-110140051D01*
X126401588Y-110236557D01*
X126603757Y-110302246D01*
X126813713Y-110335500D01*
X126813714Y-110335500D01*
X127026286Y-110335500D01*
X127026287Y-110335500D01*
X127236243Y-110302246D01*
X127438412Y-110236557D01*
X127627816Y-110140051D01*
X127649789Y-110124086D01*
X127799786Y-110015109D01*
X127799788Y-110015106D01*
X127799792Y-110015104D01*
X127950104Y-109864792D01*
X127950106Y-109864788D01*
X127950109Y-109864786D01*
X128075048Y-109692820D01*
X128075047Y-109692820D01*
X128075051Y-109692816D01*
X128171557Y-109503412D01*
X128237246Y-109301243D01*
X128248326Y-109231286D01*
X137919500Y-109231286D01*
X137952753Y-109441239D01*
X138018444Y-109643414D01*
X138114951Y-109832820D01*
X138239890Y-110004786D01*
X138390213Y-110155109D01*
X138562179Y-110280048D01*
X138562181Y-110280049D01*
X138562184Y-110280051D01*
X138751588Y-110376557D01*
X138953757Y-110442246D01*
X139163713Y-110475500D01*
X139163714Y-110475500D01*
X139376286Y-110475500D01*
X139376287Y-110475500D01*
X139586243Y-110442246D01*
X139788412Y-110376557D01*
X139977816Y-110280051D01*
X140049416Y-110228031D01*
X140149786Y-110155109D01*
X140149788Y-110155106D01*
X140149792Y-110155104D01*
X140300104Y-110004792D01*
X140419683Y-109840204D01*
X140475011Y-109797540D01*
X140544624Y-109791561D01*
X140606420Y-109824166D01*
X140620313Y-109840199D01*
X140726420Y-109986244D01*
X140739896Y-110004792D01*
X140890213Y-110155109D01*
X141062179Y-110280048D01*
X141062181Y-110280049D01*
X141062184Y-110280051D01*
X141251588Y-110376557D01*
X141453757Y-110442246D01*
X141663713Y-110475500D01*
X141663714Y-110475500D01*
X141876286Y-110475500D01*
X141876287Y-110475500D01*
X142086243Y-110442246D01*
X142288412Y-110376557D01*
X142477816Y-110280051D01*
X142549416Y-110228031D01*
X142649786Y-110155109D01*
X142649788Y-110155106D01*
X142649792Y-110155104D01*
X142800104Y-110004792D01*
X142800106Y-110004788D01*
X142800109Y-110004786D01*
X142925048Y-109832820D01*
X142925047Y-109832820D01*
X142925051Y-109832816D01*
X143021557Y-109643412D01*
X143087246Y-109441243D01*
X143120500Y-109231287D01*
X143120500Y-108768713D01*
X143087246Y-108558757D01*
X143021557Y-108356588D01*
X142925051Y-108167184D01*
X142925049Y-108167181D01*
X142925048Y-108167179D01*
X142800109Y-107995213D01*
X142649792Y-107844896D01*
X142625614Y-107827330D01*
X142505613Y-107740144D01*
X142462949Y-107684817D01*
X142454500Y-107639828D01*
X142454500Y-106941288D01*
X149465028Y-106941288D01*
X149496689Y-107181785D01*
X149559475Y-107416104D01*
X149652301Y-107640205D01*
X149652305Y-107640214D01*
X149660294Y-107654051D01*
X149773592Y-107850289D01*
X149773594Y-107850292D01*
X149773595Y-107850293D01*
X149921261Y-108042736D01*
X149921267Y-108042743D01*
X150092784Y-108214260D01*
X150092790Y-108214265D01*
X150285239Y-108361936D01*
X150495316Y-108483224D01*
X150719428Y-108576054D01*
X150953739Y-108638838D01*
X151134114Y-108662584D01*
X151194239Y-108670500D01*
X151194240Y-108670500D01*
X151436817Y-108670500D01*
X151484916Y-108664167D01*
X151677317Y-108638838D01*
X151911628Y-108576054D01*
X152135740Y-108483224D01*
X152345817Y-108361936D01*
X152538266Y-108214265D01*
X152709793Y-108042738D01*
X152857464Y-107850289D01*
X152978752Y-107640212D01*
X153071582Y-107416100D01*
X153134366Y-107181789D01*
X153166028Y-106941288D01*
X153166028Y-106698712D01*
X153134366Y-106458211D01*
X153071582Y-106223900D01*
X152978752Y-105999788D01*
X152857464Y-105789711D01*
X152709793Y-105597262D01*
X152709788Y-105597256D01*
X152538271Y-105425739D01*
X152538264Y-105425733D01*
X152345821Y-105278067D01*
X152345820Y-105278066D01*
X152345817Y-105278064D01*
X152135740Y-105156776D01*
X152135733Y-105156773D01*
X151911632Y-105063947D01*
X151677313Y-105001161D01*
X151436817Y-104969500D01*
X151436816Y-104969500D01*
X151194240Y-104969500D01*
X151194239Y-104969500D01*
X150953742Y-105001161D01*
X150719423Y-105063947D01*
X150495322Y-105156773D01*
X150495313Y-105156777D01*
X150285234Y-105278067D01*
X150092791Y-105425733D01*
X150092784Y-105425739D01*
X149921267Y-105597256D01*
X149921261Y-105597263D01*
X149773595Y-105789706D01*
X149652305Y-105999785D01*
X149652301Y-105999794D01*
X149559475Y-106223895D01*
X149496689Y-106458214D01*
X149465028Y-106698711D01*
X149465028Y-106941288D01*
X142454500Y-106941288D01*
X142454500Y-101263886D01*
X142474185Y-101196847D01*
X142490819Y-101176205D01*
X146725736Y-96941288D01*
X149465028Y-96941288D01*
X149496689Y-97181785D01*
X149559475Y-97416104D01*
X149652301Y-97640205D01*
X149652304Y-97640212D01*
X149773592Y-97850289D01*
X149773594Y-97850292D01*
X149773595Y-97850293D01*
X149921261Y-98042736D01*
X149921267Y-98042743D01*
X150092784Y-98214260D01*
X150092791Y-98214266D01*
X150205849Y-98301018D01*
X150285239Y-98361936D01*
X150495316Y-98483224D01*
X150719428Y-98576054D01*
X150953739Y-98638838D01*
X151134114Y-98662584D01*
X151194239Y-98670500D01*
X151194240Y-98670500D01*
X151436817Y-98670500D01*
X151484916Y-98664167D01*
X151677317Y-98638838D01*
X151911628Y-98576054D01*
X152135740Y-98483224D01*
X152345817Y-98361936D01*
X152538266Y-98214265D01*
X152709793Y-98042738D01*
X152857464Y-97850289D01*
X152978752Y-97640212D01*
X153071582Y-97416100D01*
X153134366Y-97181789D01*
X153166028Y-96941288D01*
X153166028Y-96698712D01*
X153134366Y-96458211D01*
X153071582Y-96223900D01*
X152978752Y-95999788D01*
X152857464Y-95789711D01*
X152709793Y-95597262D01*
X152709788Y-95597256D01*
X152538271Y-95425739D01*
X152538264Y-95425733D01*
X152345821Y-95278067D01*
X152345820Y-95278066D01*
X152345817Y-95278064D01*
X152135740Y-95156776D01*
X152135733Y-95156773D01*
X151911632Y-95063947D01*
X151677313Y-95001161D01*
X151436817Y-94969500D01*
X151436816Y-94969500D01*
X151194240Y-94969500D01*
X151194239Y-94969500D01*
X150953742Y-95001161D01*
X150719423Y-95063947D01*
X150495322Y-95156773D01*
X150495313Y-95156777D01*
X150285234Y-95278067D01*
X150092791Y-95425733D01*
X150092784Y-95425739D01*
X149921267Y-95597256D01*
X149921261Y-95597263D01*
X149773595Y-95789706D01*
X149652305Y-95999785D01*
X149652301Y-95999794D01*
X149559475Y-96223895D01*
X149496689Y-96458214D01*
X149465028Y-96698711D01*
X149465028Y-96941288D01*
X146725736Y-96941288D01*
X152302205Y-91364819D01*
X152363528Y-91331334D01*
X152389886Y-91328500D01*
X182614026Y-91328500D01*
X182614046Y-91328501D01*
X182620160Y-91328501D01*
X182768786Y-91328501D01*
X182890366Y-91304315D01*
X182890366Y-91304316D01*
X182890372Y-91304313D01*
X182914552Y-91299505D01*
X182950414Y-91284649D01*
X182971416Y-91275951D01*
X182971419Y-91275949D01*
X182971427Y-91275946D01*
X183051861Y-91242630D01*
X183097294Y-91212272D01*
X183163972Y-91191396D01*
X183166184Y-91191376D01*
X183287119Y-91191376D01*
X183287121Y-91191376D01*
X183452147Y-91152264D01*
X183603705Y-91076149D01*
X183681143Y-91013067D01*
X184103065Y-90591143D01*
X184166149Y-90513705D01*
X184242264Y-90362147D01*
X184281376Y-90197121D01*
X184281376Y-90105482D01*
X184301061Y-90038443D01*
X184317695Y-90017801D01*
X184589204Y-89746292D01*
X184894618Y-89440877D01*
X184955939Y-89407394D01*
X184993101Y-89405032D01*
X185132950Y-89417267D01*
X185154763Y-89419176D01*
X185154764Y-89419176D01*
X185154766Y-89419176D01*
X185211437Y-89414217D01*
X185381456Y-89399343D01*
X185601260Y-89340447D01*
X185807498Y-89244276D01*
X185993903Y-89113755D01*
X186154811Y-88952847D01*
X186285332Y-88766442D01*
X186381503Y-88560204D01*
X186440399Y-88340400D01*
X186460232Y-88113708D01*
X186440399Y-87887016D01*
X186384800Y-87679517D01*
X186381505Y-87667219D01*
X186381502Y-87667210D01*
X186361389Y-87624078D01*
X186285332Y-87460974D01*
X186154811Y-87274569D01*
X186154809Y-87274566D01*
X185993905Y-87113662D01*
X185807498Y-86983140D01*
X185807496Y-86983139D01*
X185601261Y-86886969D01*
X185601252Y-86886966D01*
X185381461Y-86828074D01*
X185381457Y-86828073D01*
X185381456Y-86828073D01*
X185381455Y-86828072D01*
X185381450Y-86828072D01*
X185154766Y-86808240D01*
X185154762Y-86808240D01*
X184928077Y-86828072D01*
X184928066Y-86828074D01*
X184708275Y-86886966D01*
X184708266Y-86886969D01*
X184502031Y-86983139D01*
X184502029Y-86983140D01*
X184315622Y-87113662D01*
X184154718Y-87274566D01*
X184024196Y-87460973D01*
X184024195Y-87460975D01*
X183928025Y-87667210D01*
X183928022Y-87667219D01*
X183869130Y-87887010D01*
X183869128Y-87887021D01*
X183849296Y-88113706D01*
X183849296Y-88113710D01*
X183863438Y-88275366D01*
X183849671Y-88343866D01*
X183827591Y-88373854D01*
X183151459Y-89049986D01*
X183092376Y-89082962D01*
X182987851Y-89107736D01*
X182836299Y-89183848D01*
X182836298Y-89183849D01*
X182836296Y-89183850D01*
X182836295Y-89183851D01*
X182823300Y-89194437D01*
X182758856Y-89246933D01*
X182758850Y-89246939D01*
X182336942Y-89668849D01*
X182336931Y-89668861D01*
X182273853Y-89746292D01*
X182273848Y-89746299D01*
X182271413Y-89751149D01*
X182223736Y-89802224D01*
X182160602Y-89819500D01*
X151951683Y-89819500D01*
X151805927Y-89848493D01*
X151805919Y-89848495D01*
X151668608Y-89905371D01*
X151545035Y-89987939D01*
X151545034Y-89987940D01*
X151515174Y-90017801D01*
X151439941Y-90093034D01*
X151439939Y-90093036D01*
X141113943Y-100419030D01*
X141113942Y-100419031D01*
X141031372Y-100542607D01*
X141031366Y-100542618D01*
X140974496Y-100679916D01*
X140974493Y-100679926D01*
X140945499Y-100825685D01*
X140945499Y-100980425D01*
X140945500Y-100980446D01*
X140945500Y-107741543D01*
X140925815Y-107808582D01*
X140894387Y-107841860D01*
X140890208Y-107844895D01*
X140739894Y-107995209D01*
X140739890Y-107995214D01*
X140620318Y-108159793D01*
X140564989Y-108202459D01*
X140495375Y-108208438D01*
X140433580Y-108175833D01*
X140419682Y-108159793D01*
X140300109Y-107995214D01*
X140300105Y-107995209D01*
X140149786Y-107844890D01*
X140025615Y-107754676D01*
X139982949Y-107699347D01*
X139974500Y-107654358D01*
X139974500Y-99463414D01*
X139994185Y-99396375D01*
X140010814Y-99375738D01*
X149322019Y-90064533D01*
X149322022Y-90064532D01*
X149427115Y-89959439D01*
X149509685Y-89835863D01*
X149509686Y-89835862D01*
X149509689Y-89835858D01*
X149566559Y-89698556D01*
X149566561Y-89698552D01*
X149595557Y-89552785D01*
X149595557Y-89404161D01*
X149595557Y-89399051D01*
X149595556Y-89399025D01*
X149595556Y-88742046D01*
X149615241Y-88675007D01*
X149631875Y-88654365D01*
X149649081Y-88637159D01*
X149712165Y-88559721D01*
X149788280Y-88408163D01*
X149827392Y-88243137D01*
X149827392Y-88073539D01*
X149788280Y-87908513D01*
X149712165Y-87756956D01*
X149649083Y-87679517D01*
X149649082Y-87679516D01*
X149649078Y-87679511D01*
X149631875Y-87662308D01*
X149598390Y-87600985D01*
X149595556Y-87574627D01*
X149595556Y-85602334D01*
X149615241Y-85535295D01*
X149648431Y-85500760D01*
X149680195Y-85478520D01*
X149841103Y-85317612D01*
X149971624Y-85131207D01*
X150067795Y-84924969D01*
X150126691Y-84705165D01*
X150146524Y-84478473D01*
X150126691Y-84251781D01*
X150067795Y-84031977D01*
X149971624Y-83825739D01*
X149841103Y-83639334D01*
X149841101Y-83639331D01*
X149680197Y-83478427D01*
X149493790Y-83347905D01*
X149493788Y-83347904D01*
X149287553Y-83251734D01*
X149287544Y-83251731D01*
X149067753Y-83192839D01*
X149067749Y-83192838D01*
X149067748Y-83192838D01*
X149067747Y-83192837D01*
X149067742Y-83192837D01*
X148841058Y-83173005D01*
X148841054Y-83173005D01*
X148614369Y-83192837D01*
X148614358Y-83192839D01*
X148394567Y-83251731D01*
X148394558Y-83251734D01*
X148188323Y-83347904D01*
X148188321Y-83347905D01*
X148001914Y-83478427D01*
X147841010Y-83639331D01*
X147710488Y-83825738D01*
X147710487Y-83825740D01*
X147614317Y-84031975D01*
X147614314Y-84031984D01*
X147555422Y-84251775D01*
X147555420Y-84251786D01*
X147535588Y-84478471D01*
X147535588Y-84478474D01*
X147555420Y-84705159D01*
X147555422Y-84705170D01*
X147614314Y-84924961D01*
X147614317Y-84924970D01*
X147710487Y-85131205D01*
X147710488Y-85131207D01*
X147841010Y-85317614D01*
X148001912Y-85478516D01*
X148001915Y-85478518D01*
X148001917Y-85478520D01*
X148033679Y-85500759D01*
X148077303Y-85555333D01*
X148086556Y-85602334D01*
X148086556Y-87459905D01*
X148066871Y-87526944D01*
X148050237Y-87547586D01*
X147882958Y-87714865D01*
X147882947Y-87714877D01*
X147819869Y-87792308D01*
X147819863Y-87792316D01*
X147743753Y-87943865D01*
X147743752Y-87943868D01*
X147743752Y-87943869D01*
X147704640Y-88108895D01*
X147704640Y-88278493D01*
X147735373Y-88408166D01*
X147743753Y-88443522D01*
X147802354Y-88560205D01*
X147819867Y-88595076D01*
X147854144Y-88637154D01*
X147882949Y-88672515D01*
X147882955Y-88672521D01*
X148050237Y-88839802D01*
X148083722Y-88901125D01*
X148086556Y-88927483D01*
X148086556Y-89114585D01*
X148066871Y-89181624D01*
X148050237Y-89202266D01*
X138633943Y-98618559D01*
X138633942Y-98618560D01*
X138551372Y-98742136D01*
X138551366Y-98742147D01*
X138494496Y-98879445D01*
X138494493Y-98879455D01*
X138465499Y-99025214D01*
X138465499Y-99179954D01*
X138465500Y-99179975D01*
X138465500Y-107727012D01*
X138445815Y-107794051D01*
X138414387Y-107827328D01*
X138403099Y-107835529D01*
X138390206Y-107844897D01*
X138239890Y-107995213D01*
X138114951Y-108167179D01*
X138018444Y-108356585D01*
X137952753Y-108558760D01*
X137919500Y-108768713D01*
X137919500Y-109231286D01*
X128248326Y-109231286D01*
X128270500Y-109091287D01*
X128270500Y-108628713D01*
X128237246Y-108418757D01*
X128171557Y-108216588D01*
X128075051Y-108027184D01*
X128075049Y-108027181D01*
X128075048Y-108027179D01*
X127950109Y-107855213D01*
X127799792Y-107704896D01*
X127772155Y-107684817D01*
X127655613Y-107600144D01*
X127612949Y-107544817D01*
X127604500Y-107499828D01*
X127604500Y-103163885D01*
X127624185Y-103096846D01*
X127640814Y-103076209D01*
X139796490Y-90920533D01*
X139796493Y-90920532D01*
X139901586Y-90815439D01*
X139984156Y-90691863D01*
X140041032Y-90554553D01*
X140070027Y-90408785D01*
X140070027Y-86772347D01*
X140089712Y-86705308D01*
X140106346Y-86684666D01*
X140127968Y-86663044D01*
X140217003Y-86518697D01*
X140270349Y-86357708D01*
X140280500Y-86258345D01*
X140280499Y-85661656D01*
X140279530Y-85652174D01*
X140270349Y-85562292D01*
X140270348Y-85562289D01*
X140256882Y-85521652D01*
X140217003Y-85401303D01*
X140216999Y-85401297D01*
X140216998Y-85401294D01*
X140127970Y-85256959D01*
X140127967Y-85256955D01*
X140106346Y-85235334D01*
X140072861Y-85174011D01*
X140070027Y-85147653D01*
X140070027Y-84333598D01*
X140089712Y-84266559D01*
X140122902Y-84232024D01*
X140154666Y-84209784D01*
X140315574Y-84048876D01*
X140446095Y-83862471D01*
X140542266Y-83656233D01*
X140601162Y-83436429D01*
X140620995Y-83209737D01*
X140619516Y-83192837D01*
X140601162Y-82983050D01*
X140601162Y-82983045D01*
X140542266Y-82763241D01*
X140446095Y-82557003D01*
X140315574Y-82370598D01*
X140315572Y-82370595D01*
X140154668Y-82209691D01*
X139968261Y-82079169D01*
X139968259Y-82079168D01*
X139762024Y-81982998D01*
X139762015Y-81982995D01*
X139542224Y-81924103D01*
X139542220Y-81924102D01*
X139542219Y-81924102D01*
X139542218Y-81924101D01*
X139542213Y-81924101D01*
X139315529Y-81904269D01*
X139315525Y-81904269D01*
X139088840Y-81924101D01*
X139088829Y-81924103D01*
X138869038Y-81982995D01*
X138869029Y-81982998D01*
X138662794Y-82079168D01*
X138662792Y-82079169D01*
X138476385Y-82209691D01*
X138315481Y-82370595D01*
X138184959Y-82557002D01*
X138184958Y-82557004D01*
X138088788Y-82763239D01*
X138088785Y-82763248D01*
X138029893Y-82983039D01*
X138029891Y-82983050D01*
X138010059Y-83209735D01*
X138010059Y-83209738D01*
X138029891Y-83436423D01*
X138029893Y-83436434D01*
X138088785Y-83656225D01*
X138088788Y-83656234D01*
X138184958Y-83862469D01*
X138184959Y-83862471D01*
X138315481Y-84048878D01*
X138476383Y-84209780D01*
X138476386Y-84209782D01*
X138476388Y-84209784D01*
X138508150Y-84232023D01*
X138551774Y-84286597D01*
X138561027Y-84333598D01*
X138561027Y-85177185D01*
X138541342Y-85244224D01*
X138534296Y-85254092D01*
X138532031Y-85256956D01*
X138443001Y-85401294D01*
X138442996Y-85401305D01*
X138389651Y-85562290D01*
X138379500Y-85661647D01*
X138379500Y-86258337D01*
X138379501Y-86258355D01*
X138389650Y-86357707D01*
X138389651Y-86357710D01*
X138442996Y-86518694D01*
X138443001Y-86518705D01*
X138532026Y-86663036D01*
X138534292Y-86665901D01*
X138535234Y-86668236D01*
X138535823Y-86669191D01*
X138535659Y-86669291D01*
X138560433Y-86730696D01*
X138561027Y-86742814D01*
X138561027Y-89970585D01*
X138541342Y-90037624D01*
X138524708Y-90058266D01*
X126263943Y-102319030D01*
X126263942Y-102319031D01*
X126181372Y-102442607D01*
X126181366Y-102442618D01*
X126124496Y-102579916D01*
X126124493Y-102579926D01*
X126095499Y-102725685D01*
X126095499Y-102880425D01*
X126095500Y-102880446D01*
X126095500Y-107601543D01*
X126075815Y-107668582D01*
X126044387Y-107701860D01*
X126040208Y-107704895D01*
X125889894Y-107855209D01*
X125889890Y-107855214D01*
X125770318Y-108019793D01*
X125714989Y-108062459D01*
X125645375Y-108068438D01*
X125583580Y-108035833D01*
X125569682Y-108019793D01*
X125450109Y-107855214D01*
X125450105Y-107855209D01*
X125299786Y-107704890D01*
X125175615Y-107614676D01*
X125132949Y-107559347D01*
X125124500Y-107514358D01*
X125124500Y-91040446D01*
X125124501Y-91040425D01*
X125124501Y-90885685D01*
X125095506Y-90739926D01*
X125095505Y-90739925D01*
X125095505Y-90739921D01*
X125038630Y-90602611D01*
X124969859Y-90499688D01*
X124969859Y-90499687D01*
X124956060Y-90479036D01*
X124956059Y-90479034D01*
X124850966Y-90373941D01*
X124850965Y-90373940D01*
X124846635Y-90369610D01*
X124846624Y-90369600D01*
X118412576Y-83935550D01*
X118412575Y-83935549D01*
X118288999Y-83852979D01*
X118288998Y-83852978D01*
X118288996Y-83852977D01*
X118288994Y-83852976D01*
X118288992Y-83852975D01*
X118200157Y-83816179D01*
X118145754Y-83772338D01*
X118142072Y-83766715D01*
X118132970Y-83751959D01*
X118132967Y-83751955D01*
X118013044Y-83632032D01*
X118013040Y-83632029D01*
X117868705Y-83543001D01*
X117868699Y-83542998D01*
X117868697Y-83542997D01*
X117804004Y-83521560D01*
X117707709Y-83489651D01*
X117608346Y-83479500D01*
X117011662Y-83479500D01*
X117011644Y-83479501D01*
X116912292Y-83489650D01*
X116912289Y-83489651D01*
X116751305Y-83542996D01*
X116751294Y-83543001D01*
X116606959Y-83632029D01*
X116606955Y-83632032D01*
X116508200Y-83730788D01*
X116446877Y-83764273D01*
X116420519Y-83767107D01*
X114870731Y-83767107D01*
X114803692Y-83747422D01*
X114769156Y-83714230D01*
X114746914Y-83682465D01*
X114586010Y-83521561D01*
X114399603Y-83391039D01*
X114399601Y-83391038D01*
X114193366Y-83294868D01*
X114193357Y-83294865D01*
X113973566Y-83235973D01*
X113973562Y-83235972D01*
X113973561Y-83235972D01*
X113973560Y-83235971D01*
X113973555Y-83235971D01*
X113746871Y-83216139D01*
X113746867Y-83216139D01*
X113520182Y-83235971D01*
X113520171Y-83235973D01*
X113300380Y-83294865D01*
X113300371Y-83294868D01*
X113094136Y-83391038D01*
X113094134Y-83391039D01*
X112907727Y-83521561D01*
X112746823Y-83682465D01*
X112616301Y-83868872D01*
X112616300Y-83868874D01*
X112520130Y-84075109D01*
X112520127Y-84075118D01*
X112461235Y-84294909D01*
X112461233Y-84294920D01*
X112441401Y-84521605D01*
X112441401Y-84521608D01*
X112461233Y-84748293D01*
X112461235Y-84748304D01*
X112520127Y-84968095D01*
X112520130Y-84968104D01*
X112616300Y-85174339D01*
X112616301Y-85174341D01*
X112746823Y-85360748D01*
X112907727Y-85521652D01*
X112930766Y-85537784D01*
X113094135Y-85652175D01*
X113300373Y-85748346D01*
X113520177Y-85807242D01*
X113682099Y-85821408D01*
X113746867Y-85827075D01*
X113746869Y-85827075D01*
X113746871Y-85827075D01*
X113803542Y-85822116D01*
X113973561Y-85807242D01*
X114193365Y-85748346D01*
X114399603Y-85652175D01*
X114586008Y-85521654D01*
X114746916Y-85360746D01*
X114769156Y-85328984D01*
X114823732Y-85285359D01*
X114870731Y-85276107D01*
X116649835Y-85276107D01*
X116714931Y-85294568D01*
X116751303Y-85317003D01*
X116912292Y-85370349D01*
X117011655Y-85380500D01*
X117608344Y-85380499D01*
X117654186Y-85375816D01*
X117722878Y-85388585D01*
X117754468Y-85411493D01*
X123579181Y-91236205D01*
X123612666Y-91297528D01*
X123615500Y-91323886D01*
X123615500Y-107587012D01*
X123595815Y-107654051D01*
X123564387Y-107687328D01*
X123553099Y-107695529D01*
X123540206Y-107704897D01*
X123389894Y-107855209D01*
X123389890Y-107855214D01*
X123270318Y-108019793D01*
X123214989Y-108062459D01*
X123145375Y-108068438D01*
X123083580Y-108035833D01*
X123069682Y-108019793D01*
X122950109Y-107855214D01*
X122950105Y-107855209D01*
X122799786Y-107704890D01*
X122627820Y-107579951D01*
X122438414Y-107483444D01*
X122438413Y-107483443D01*
X122438412Y-107483443D01*
X122236243Y-107417754D01*
X122236241Y-107417753D01*
X122236240Y-107417753D01*
X122074957Y-107392208D01*
X122026287Y-107384500D01*
X121813713Y-107384500D01*
X121774202Y-107390757D01*
X121603759Y-107417753D01*
X121401591Y-107483441D01*
X121401587Y-107483442D01*
X121394992Y-107486803D01*
X121326322Y-107499696D01*
X121261583Y-107473417D01*
X121251021Y-107463997D01*
X115340969Y-101553943D01*
X115340968Y-101553942D01*
X115299773Y-101526417D01*
X115217389Y-101471370D01*
X115217386Y-101471368D01*
X115217385Y-101471368D01*
X115136955Y-101438053D01*
X115080080Y-101414495D01*
X115055894Y-101409684D01*
X114934314Y-101385499D01*
X114934312Y-101385499D01*
X114785688Y-101385499D01*
X114779574Y-101385499D01*
X114779554Y-101385500D01*
X81866469Y-101385500D01*
X81799430Y-101365815D01*
X81778788Y-101349181D01*
X78223976Y-97794369D01*
X78190491Y-97733046D01*
X78187657Y-97706688D01*
X78187657Y-96941288D01*
X109465028Y-96941288D01*
X109496689Y-97181785D01*
X109559475Y-97416104D01*
X109652301Y-97640205D01*
X109652304Y-97640212D01*
X109773592Y-97850289D01*
X109773594Y-97850292D01*
X109773595Y-97850293D01*
X109921261Y-98042736D01*
X109921267Y-98042743D01*
X110092784Y-98214260D01*
X110092791Y-98214266D01*
X110205849Y-98301018D01*
X110285239Y-98361936D01*
X110495316Y-98483224D01*
X110719428Y-98576054D01*
X110953739Y-98638838D01*
X111134114Y-98662584D01*
X111194239Y-98670500D01*
X111194240Y-98670500D01*
X111436817Y-98670500D01*
X111484916Y-98664167D01*
X111677317Y-98638838D01*
X111911628Y-98576054D01*
X112135740Y-98483224D01*
X112345817Y-98361936D01*
X112538266Y-98214265D01*
X112709793Y-98042738D01*
X112857464Y-97850289D01*
X112978752Y-97640212D01*
X113071582Y-97416100D01*
X113134366Y-97181789D01*
X113166028Y-96941288D01*
X113166028Y-96698712D01*
X113134366Y-96458211D01*
X113071582Y-96223900D01*
X112978752Y-95999788D01*
X112857464Y-95789711D01*
X112709793Y-95597262D01*
X112709788Y-95597256D01*
X112538271Y-95425739D01*
X112538264Y-95425733D01*
X112345821Y-95278067D01*
X112345820Y-95278066D01*
X112345817Y-95278064D01*
X112135740Y-95156776D01*
X112135733Y-95156773D01*
X111911632Y-95063947D01*
X111677313Y-95001161D01*
X111436817Y-94969500D01*
X111436816Y-94969500D01*
X111194240Y-94969500D01*
X111194239Y-94969500D01*
X110953742Y-95001161D01*
X110719423Y-95063947D01*
X110495322Y-95156773D01*
X110495313Y-95156777D01*
X110285234Y-95278067D01*
X110092791Y-95425733D01*
X110092784Y-95425739D01*
X109921267Y-95597256D01*
X109921261Y-95597263D01*
X109773595Y-95789706D01*
X109652305Y-95999785D01*
X109652301Y-95999794D01*
X109559475Y-96223895D01*
X109496689Y-96458214D01*
X109465028Y-96698711D01*
X109465028Y-96941288D01*
X78187657Y-96941288D01*
X78187657Y-92439717D01*
X78207342Y-92372678D01*
X78223976Y-92352036D01*
X78264960Y-92311052D01*
X78353995Y-92166705D01*
X78407341Y-92005716D01*
X78417492Y-91906353D01*
X78417491Y-91309664D01*
X78416944Y-91304312D01*
X78407341Y-91210300D01*
X78407340Y-91210297D01*
X78388109Y-91152262D01*
X78353995Y-91049311D01*
X78353991Y-91049305D01*
X78353990Y-91049302D01*
X78264962Y-90904967D01*
X78264959Y-90904963D01*
X78223976Y-90863980D01*
X78190491Y-90802657D01*
X78187657Y-90776299D01*
X78187657Y-89194437D01*
X78207342Y-89127398D01*
X78240532Y-89092863D01*
X78272296Y-89070623D01*
X78433204Y-88909715D01*
X78563725Y-88723310D01*
X78659896Y-88517072D01*
X78718792Y-88297268D01*
X78738625Y-88070576D01*
X78718792Y-87843884D01*
X78659896Y-87624080D01*
X78563725Y-87417842D01*
X78433204Y-87231437D01*
X78433202Y-87231434D01*
X78272298Y-87070530D01*
X78085891Y-86940008D01*
X78085889Y-86940007D01*
X77879654Y-86843837D01*
X77879645Y-86843834D01*
X77659854Y-86784942D01*
X77659850Y-86784941D01*
X77659849Y-86784941D01*
X77659848Y-86784940D01*
X77659843Y-86784940D01*
X77433159Y-86765108D01*
X77433155Y-86765108D01*
X77206470Y-86784940D01*
X77206459Y-86784942D01*
X76986668Y-86843834D01*
X76986659Y-86843837D01*
X76780424Y-86940007D01*
X76780422Y-86940008D01*
X76594015Y-87070530D01*
X76433111Y-87231434D01*
X76302589Y-87417841D01*
X76302588Y-87417843D01*
X76206418Y-87624078D01*
X76206415Y-87624087D01*
X76147523Y-87843878D01*
X76147521Y-87843889D01*
X76127689Y-88070574D01*
X76127689Y-88070577D01*
X71740500Y-88070577D01*
X71740500Y-76982706D01*
X71740618Y-76977297D01*
X71743377Y-76914108D01*
X71757386Y-76593226D01*
X71758326Y-76582495D01*
X71808152Y-76204025D01*
X71810025Y-76193405D01*
X71892649Y-75820709D01*
X71895440Y-75810295D01*
X72010230Y-75446227D01*
X72013917Y-75436095D01*
X72160003Y-75083412D01*
X72164561Y-75073638D01*
X72340822Y-74735045D01*
X72346217Y-74725700D01*
X72551325Y-74403744D01*
X72557515Y-74394905D01*
X72789896Y-74092060D01*
X72796834Y-74083791D01*
X73054726Y-73802352D01*
X73062352Y-73794726D01*
X73343791Y-73536834D01*
X73352060Y-73529896D01*
X73654905Y-73297515D01*
X73663744Y-73291325D01*
X73985700Y-73086217D01*
X73995045Y-73080822D01*
X74333638Y-72904561D01*
X74343412Y-72900003D01*
X74696095Y-72753917D01*
X74706227Y-72750230D01*
X75070295Y-72635440D01*
X75080709Y-72632649D01*
X75453405Y-72550025D01*
X75464025Y-72548152D01*
X75842495Y-72498326D01*
X75853226Y-72497386D01*
X76237297Y-72480617D01*
X76242706Y-72480500D01*
X76305892Y-72480500D01*
X185974108Y-72480500D01*
X186037294Y-72480500D01*
X186042702Y-72480617D01*
G37*
%TD.AperFunction*%
%TD*%
M02*
