%TF.GenerationSoftware,KiCad,Pcbnew,8.0.0*%
%TF.CreationDate,2026-03-13T15:43:39+08:00*%
%TF.ProjectId,ken_EMstick,6b656e5f-454d-4737-9469-636b2e6b6963,rev?*%
%TF.SameCoordinates,Original*%
%TF.FileFunction,Legend,Top*%
%TF.FilePolarity,Positive*%
%FSLAX46Y46*%
G04 Gerber Fmt 4.6, Leading zero omitted, Abs format (unit mm)*
G04 Created by KiCad (PCBNEW 8.0.0) date 2026-03-13 15:43:39*
%MOMM*%
%LPD*%
G01*
G04 APERTURE LIST*
%ADD10C,0.100000*%
%ADD11C,0.200000*%
%ADD12C,0.150000*%
%ADD13C,0.120000*%
G04 APERTURE END LIST*
D10*
X156315528Y-80639237D02*
X181315528Y-80639237D01*
X189027587Y-81412458D02*
X173603469Y-79866015D01*
X131315528Y-80639237D02*
X131315528Y-96820000D01*
X151315528Y-96820000D02*
X151315528Y-106820000D01*
X81315528Y-80639237D02*
X106315528Y-80639237D01*
D11*
X114027589Y-81412458D02*
X107088751Y-88351296D01*
X98603470Y-79866016D01*
X105542309Y-72927177D01*
X114027589Y-81412458D01*
D10*
X164027588Y-79866016D02*
X148603468Y-81412458D01*
X182088749Y-88351296D02*
X180542307Y-72927177D01*
X73603468Y-81412458D02*
X89027587Y-79866016D01*
X125315528Y-85545737D02*
X137315527Y-75732737D01*
D11*
X89027587Y-79866016D02*
X80542306Y-88351296D01*
X73603468Y-81412458D01*
X82088748Y-72927177D01*
X89027587Y-79866016D01*
D10*
X114027589Y-81412458D02*
X98603467Y-79866016D01*
D11*
X164027588Y-79866016D02*
X155542307Y-88351297D01*
X148603468Y-81412458D01*
X157088749Y-72927177D01*
X164027588Y-79866016D01*
D10*
X125315528Y-75732737D02*
X137315527Y-85545737D01*
D11*
X125315527Y-75732737D02*
X137315527Y-75732737D01*
X137315527Y-85545737D01*
X125315527Y-85545737D01*
X125315527Y-75732737D01*
D10*
X131315528Y-96820000D02*
X111315528Y-96820000D01*
D11*
X189027588Y-81412457D02*
X182088749Y-88351296D01*
X173603469Y-79866015D01*
X180542307Y-72927177D01*
X189027588Y-81412457D01*
D10*
X157088749Y-72927177D02*
X155542307Y-88351297D01*
X111315528Y-96820000D02*
X111315528Y-106820000D01*
X80542306Y-88351296D02*
X82088748Y-72927177D01*
X151315528Y-96820000D02*
X131315528Y-96820000D01*
X131315528Y-80639237D02*
X156315528Y-80639237D01*
X107088750Y-88351297D02*
X105542306Y-72927177D01*
X106315528Y-80639237D02*
X131315528Y-80639237D01*
X129060038Y-103362306D02*
X129012419Y-103457544D01*
X129012419Y-103457544D02*
X129012419Y-103600401D01*
X129012419Y-103600401D02*
X129060038Y-103743258D01*
X129060038Y-103743258D02*
X129155276Y-103838496D01*
X129155276Y-103838496D02*
X129250514Y-103886115D01*
X129250514Y-103886115D02*
X129440990Y-103933734D01*
X129440990Y-103933734D02*
X129583847Y-103933734D01*
X129583847Y-103933734D02*
X129774323Y-103886115D01*
X129774323Y-103886115D02*
X129869561Y-103838496D01*
X129869561Y-103838496D02*
X129964800Y-103743258D01*
X129964800Y-103743258D02*
X130012419Y-103600401D01*
X130012419Y-103600401D02*
X130012419Y-103505163D01*
X130012419Y-103505163D02*
X129964800Y-103362306D01*
X129964800Y-103362306D02*
X129917180Y-103314687D01*
X129917180Y-103314687D02*
X129583847Y-103314687D01*
X129583847Y-103314687D02*
X129583847Y-103505163D01*
X127332419Y-103790878D02*
X127332419Y-104267068D01*
X127332419Y-104267068D02*
X126332419Y-104267068D01*
X126332419Y-103552782D02*
X126332419Y-102933735D01*
X126332419Y-102933735D02*
X126713371Y-103267068D01*
X126713371Y-103267068D02*
X126713371Y-103124211D01*
X126713371Y-103124211D02*
X126760990Y-103028973D01*
X126760990Y-103028973D02*
X126808609Y-102981354D01*
X126808609Y-102981354D02*
X126903847Y-102933735D01*
X126903847Y-102933735D02*
X127141942Y-102933735D01*
X127141942Y-102933735D02*
X127237180Y-102981354D01*
X127237180Y-102981354D02*
X127284800Y-103028973D01*
X127284800Y-103028973D02*
X127332419Y-103124211D01*
X127332419Y-103124211D02*
X127332419Y-103409925D01*
X127332419Y-103409925D02*
X127284800Y-103505163D01*
X127284800Y-103505163D02*
X127237180Y-103552782D01*
X139302419Y-103590878D02*
X139302419Y-104067068D01*
X139302419Y-104067068D02*
X138302419Y-104067068D01*
X138635752Y-102828973D02*
X139302419Y-102828973D01*
X138254800Y-103067068D02*
X138969085Y-103305163D01*
X138969085Y-103305163D02*
X138969085Y-102686116D01*
X142162419Y-103590878D02*
X142162419Y-104067068D01*
X142162419Y-104067068D02*
X141162419Y-104067068D01*
X141162419Y-102781354D02*
X141162419Y-103257544D01*
X141162419Y-103257544D02*
X141638609Y-103305163D01*
X141638609Y-103305163D02*
X141590990Y-103257544D01*
X141590990Y-103257544D02*
X141543371Y-103162306D01*
X141543371Y-103162306D02*
X141543371Y-102924211D01*
X141543371Y-102924211D02*
X141590990Y-102828973D01*
X141590990Y-102828973D02*
X141638609Y-102781354D01*
X141638609Y-102781354D02*
X141733847Y-102733735D01*
X141733847Y-102733735D02*
X141971942Y-102733735D01*
X141971942Y-102733735D02*
X142067180Y-102781354D01*
X142067180Y-102781354D02*
X142114800Y-102828973D01*
X142114800Y-102828973D02*
X142162419Y-102924211D01*
X142162419Y-102924211D02*
X142162419Y-103162306D01*
X142162419Y-103162306D02*
X142114800Y-103257544D01*
X142114800Y-103257544D02*
X142067180Y-103305163D01*
X124622419Y-103790878D02*
X124622419Y-104267068D01*
X124622419Y-104267068D02*
X123622419Y-104267068D01*
X123717657Y-103505163D02*
X123670038Y-103457544D01*
X123670038Y-103457544D02*
X123622419Y-103362306D01*
X123622419Y-103362306D02*
X123622419Y-103124211D01*
X123622419Y-103124211D02*
X123670038Y-103028973D01*
X123670038Y-103028973D02*
X123717657Y-102981354D01*
X123717657Y-102981354D02*
X123812895Y-102933735D01*
X123812895Y-102933735D02*
X123908133Y-102933735D01*
X123908133Y-102933735D02*
X124050990Y-102981354D01*
X124050990Y-102981354D02*
X124622419Y-103552782D01*
X124622419Y-103552782D02*
X124622419Y-102933735D01*
X143690038Y-103162306D02*
X143642419Y-103257544D01*
X143642419Y-103257544D02*
X143642419Y-103400401D01*
X143642419Y-103400401D02*
X143690038Y-103543258D01*
X143690038Y-103543258D02*
X143785276Y-103638496D01*
X143785276Y-103638496D02*
X143880514Y-103686115D01*
X143880514Y-103686115D02*
X144070990Y-103733734D01*
X144070990Y-103733734D02*
X144213847Y-103733734D01*
X144213847Y-103733734D02*
X144404323Y-103686115D01*
X144404323Y-103686115D02*
X144499561Y-103638496D01*
X144499561Y-103638496D02*
X144594800Y-103543258D01*
X144594800Y-103543258D02*
X144642419Y-103400401D01*
X144642419Y-103400401D02*
X144642419Y-103305163D01*
X144642419Y-103305163D02*
X144594800Y-103162306D01*
X144594800Y-103162306D02*
X144547180Y-103114687D01*
X144547180Y-103114687D02*
X144213847Y-103114687D01*
X144213847Y-103114687D02*
X144213847Y-103305163D01*
X122192419Y-103790878D02*
X122192419Y-104267068D01*
X122192419Y-104267068D02*
X121192419Y-104267068D01*
X122192419Y-102933735D02*
X122192419Y-103505163D01*
X122192419Y-103219449D02*
X121192419Y-103219449D01*
X121192419Y-103219449D02*
X121335276Y-103314687D01*
X121335276Y-103314687D02*
X121430514Y-103409925D01*
X121430514Y-103409925D02*
X121478133Y-103505163D01*
X73313884Y-100298665D02*
X73647217Y-100298665D01*
X73790074Y-100822475D02*
X73313884Y-100822475D01*
X73313884Y-100822475D02*
X73313884Y-99822475D01*
X73313884Y-99822475D02*
X73790074Y-99822475D01*
X74218646Y-100822475D02*
X74218646Y-99822475D01*
X74218646Y-99822475D02*
X74551979Y-100536760D01*
X74551979Y-100536760D02*
X74885312Y-99822475D01*
X74885312Y-99822475D02*
X74885312Y-100822475D01*
X76075789Y-100774856D02*
X76171027Y-100822475D01*
X76171027Y-100822475D02*
X76361503Y-100822475D01*
X76361503Y-100822475D02*
X76456741Y-100774856D01*
X76456741Y-100774856D02*
X76504360Y-100679617D01*
X76504360Y-100679617D02*
X76504360Y-100631998D01*
X76504360Y-100631998D02*
X76456741Y-100536760D01*
X76456741Y-100536760D02*
X76361503Y-100489141D01*
X76361503Y-100489141D02*
X76218646Y-100489141D01*
X76218646Y-100489141D02*
X76123408Y-100441522D01*
X76123408Y-100441522D02*
X76075789Y-100346284D01*
X76075789Y-100346284D02*
X76075789Y-100298665D01*
X76075789Y-100298665D02*
X76123408Y-100203427D01*
X76123408Y-100203427D02*
X76218646Y-100155808D01*
X76218646Y-100155808D02*
X76361503Y-100155808D01*
X76361503Y-100155808D02*
X76456741Y-100203427D01*
X77313884Y-100774856D02*
X77218646Y-100822475D01*
X77218646Y-100822475D02*
X77028170Y-100822475D01*
X77028170Y-100822475D02*
X76932932Y-100774856D01*
X76932932Y-100774856D02*
X76885313Y-100679617D01*
X76885313Y-100679617D02*
X76885313Y-100298665D01*
X76885313Y-100298665D02*
X76932932Y-100203427D01*
X76932932Y-100203427D02*
X77028170Y-100155808D01*
X77028170Y-100155808D02*
X77218646Y-100155808D01*
X77218646Y-100155808D02*
X77313884Y-100203427D01*
X77313884Y-100203427D02*
X77361503Y-100298665D01*
X77361503Y-100298665D02*
X77361503Y-100393903D01*
X77361503Y-100393903D02*
X76885313Y-100489141D01*
X77790075Y-100155808D02*
X77790075Y-100822475D01*
X77790075Y-100251046D02*
X77837694Y-100203427D01*
X77837694Y-100203427D02*
X77932932Y-100155808D01*
X77932932Y-100155808D02*
X78075789Y-100155808D01*
X78075789Y-100155808D02*
X78171027Y-100203427D01*
X78171027Y-100203427D02*
X78218646Y-100298665D01*
X78218646Y-100298665D02*
X78218646Y-100822475D01*
X78647218Y-100774856D02*
X78742456Y-100822475D01*
X78742456Y-100822475D02*
X78932932Y-100822475D01*
X78932932Y-100822475D02*
X79028170Y-100774856D01*
X79028170Y-100774856D02*
X79075789Y-100679617D01*
X79075789Y-100679617D02*
X79075789Y-100631998D01*
X79075789Y-100631998D02*
X79028170Y-100536760D01*
X79028170Y-100536760D02*
X78932932Y-100489141D01*
X78932932Y-100489141D02*
X78790075Y-100489141D01*
X78790075Y-100489141D02*
X78694837Y-100441522D01*
X78694837Y-100441522D02*
X78647218Y-100346284D01*
X78647218Y-100346284D02*
X78647218Y-100298665D01*
X78647218Y-100298665D02*
X78694837Y-100203427D01*
X78694837Y-100203427D02*
X78790075Y-100155808D01*
X78790075Y-100155808D02*
X78932932Y-100155808D01*
X78932932Y-100155808D02*
X79028170Y-100203427D01*
X79647218Y-100822475D02*
X79551980Y-100774856D01*
X79551980Y-100774856D02*
X79504361Y-100727236D01*
X79504361Y-100727236D02*
X79456742Y-100631998D01*
X79456742Y-100631998D02*
X79456742Y-100346284D01*
X79456742Y-100346284D02*
X79504361Y-100251046D01*
X79504361Y-100251046D02*
X79551980Y-100203427D01*
X79551980Y-100203427D02*
X79647218Y-100155808D01*
X79647218Y-100155808D02*
X79790075Y-100155808D01*
X79790075Y-100155808D02*
X79885313Y-100203427D01*
X79885313Y-100203427D02*
X79932932Y-100251046D01*
X79932932Y-100251046D02*
X79980551Y-100346284D01*
X79980551Y-100346284D02*
X79980551Y-100631998D01*
X79980551Y-100631998D02*
X79932932Y-100727236D01*
X79932932Y-100727236D02*
X79885313Y-100774856D01*
X79885313Y-100774856D02*
X79790075Y-100822475D01*
X79790075Y-100822475D02*
X79647218Y-100822475D01*
X80409123Y-100822475D02*
X80409123Y-100155808D01*
X80409123Y-100346284D02*
X80456742Y-100251046D01*
X80456742Y-100251046D02*
X80504361Y-100203427D01*
X80504361Y-100203427D02*
X80599599Y-100155808D01*
X80599599Y-100155808D02*
X80694837Y-100155808D01*
X81790076Y-100822475D02*
X81790076Y-99822475D01*
X81790076Y-100203427D02*
X81885314Y-100155808D01*
X81885314Y-100155808D02*
X82075790Y-100155808D01*
X82075790Y-100155808D02*
X82171028Y-100203427D01*
X82171028Y-100203427D02*
X82218647Y-100251046D01*
X82218647Y-100251046D02*
X82266266Y-100346284D01*
X82266266Y-100346284D02*
X82266266Y-100631998D01*
X82266266Y-100631998D02*
X82218647Y-100727236D01*
X82218647Y-100727236D02*
X82171028Y-100774856D01*
X82171028Y-100774856D02*
X82075790Y-100822475D01*
X82075790Y-100822475D02*
X81885314Y-100822475D01*
X81885314Y-100822475D02*
X81790076Y-100774856D01*
X82837695Y-100822475D02*
X82742457Y-100774856D01*
X82742457Y-100774856D02*
X82694838Y-100727236D01*
X82694838Y-100727236D02*
X82647219Y-100631998D01*
X82647219Y-100631998D02*
X82647219Y-100346284D01*
X82647219Y-100346284D02*
X82694838Y-100251046D01*
X82694838Y-100251046D02*
X82742457Y-100203427D01*
X82742457Y-100203427D02*
X82837695Y-100155808D01*
X82837695Y-100155808D02*
X82980552Y-100155808D01*
X82980552Y-100155808D02*
X83075790Y-100203427D01*
X83075790Y-100203427D02*
X83123409Y-100251046D01*
X83123409Y-100251046D02*
X83171028Y-100346284D01*
X83171028Y-100346284D02*
X83171028Y-100631998D01*
X83171028Y-100631998D02*
X83123409Y-100727236D01*
X83123409Y-100727236D02*
X83075790Y-100774856D01*
X83075790Y-100774856D02*
X82980552Y-100822475D01*
X82980552Y-100822475D02*
X82837695Y-100822475D01*
X84028171Y-100822475D02*
X84028171Y-100298665D01*
X84028171Y-100298665D02*
X83980552Y-100203427D01*
X83980552Y-100203427D02*
X83885314Y-100155808D01*
X83885314Y-100155808D02*
X83694838Y-100155808D01*
X83694838Y-100155808D02*
X83599600Y-100203427D01*
X84028171Y-100774856D02*
X83932933Y-100822475D01*
X83932933Y-100822475D02*
X83694838Y-100822475D01*
X83694838Y-100822475D02*
X83599600Y-100774856D01*
X83599600Y-100774856D02*
X83551981Y-100679617D01*
X83551981Y-100679617D02*
X83551981Y-100584379D01*
X83551981Y-100584379D02*
X83599600Y-100489141D01*
X83599600Y-100489141D02*
X83694838Y-100441522D01*
X83694838Y-100441522D02*
X83932933Y-100441522D01*
X83932933Y-100441522D02*
X84028171Y-100393903D01*
X84504362Y-100822475D02*
X84504362Y-100155808D01*
X84504362Y-100346284D02*
X84551981Y-100251046D01*
X84551981Y-100251046D02*
X84599600Y-100203427D01*
X84599600Y-100203427D02*
X84694838Y-100155808D01*
X84694838Y-100155808D02*
X84790076Y-100155808D01*
X85551981Y-100822475D02*
X85551981Y-99822475D01*
X85551981Y-100774856D02*
X85456743Y-100822475D01*
X85456743Y-100822475D02*
X85266267Y-100822475D01*
X85266267Y-100822475D02*
X85171029Y-100774856D01*
X85171029Y-100774856D02*
X85123410Y-100727236D01*
X85123410Y-100727236D02*
X85075791Y-100631998D01*
X85075791Y-100631998D02*
X85075791Y-100346284D01*
X85075791Y-100346284D02*
X85123410Y-100251046D01*
X85123410Y-100251046D02*
X85171029Y-100203427D01*
X85171029Y-100203427D02*
X85266267Y-100155808D01*
X85266267Y-100155808D02*
X85456743Y-100155808D01*
X85456743Y-100155808D02*
X85551981Y-100203427D01*
X73742455Y-102432419D02*
X73742455Y-101432419D01*
X73742455Y-102384800D02*
X73647217Y-102432419D01*
X73647217Y-102432419D02*
X73456741Y-102432419D01*
X73456741Y-102432419D02*
X73361503Y-102384800D01*
X73361503Y-102384800D02*
X73313884Y-102337180D01*
X73313884Y-102337180D02*
X73266265Y-102241942D01*
X73266265Y-102241942D02*
X73266265Y-101956228D01*
X73266265Y-101956228D02*
X73313884Y-101860990D01*
X73313884Y-101860990D02*
X73361503Y-101813371D01*
X73361503Y-101813371D02*
X73456741Y-101765752D01*
X73456741Y-101765752D02*
X73647217Y-101765752D01*
X73647217Y-101765752D02*
X73742455Y-101813371D01*
X74647217Y-102432419D02*
X74647217Y-101908609D01*
X74647217Y-101908609D02*
X74599598Y-101813371D01*
X74599598Y-101813371D02*
X74504360Y-101765752D01*
X74504360Y-101765752D02*
X74313884Y-101765752D01*
X74313884Y-101765752D02*
X74218646Y-101813371D01*
X74647217Y-102384800D02*
X74551979Y-102432419D01*
X74551979Y-102432419D02*
X74313884Y-102432419D01*
X74313884Y-102432419D02*
X74218646Y-102384800D01*
X74218646Y-102384800D02*
X74171027Y-102289561D01*
X74171027Y-102289561D02*
X74171027Y-102194323D01*
X74171027Y-102194323D02*
X74218646Y-102099085D01*
X74218646Y-102099085D02*
X74313884Y-102051466D01*
X74313884Y-102051466D02*
X74551979Y-102051466D01*
X74551979Y-102051466D02*
X74647217Y-102003847D01*
X74980551Y-101765752D02*
X75361503Y-101765752D01*
X75123408Y-101432419D02*
X75123408Y-102289561D01*
X75123408Y-102289561D02*
X75171027Y-102384800D01*
X75171027Y-102384800D02*
X75266265Y-102432419D01*
X75266265Y-102432419D02*
X75361503Y-102432419D01*
X76075789Y-102384800D02*
X75980551Y-102432419D01*
X75980551Y-102432419D02*
X75790075Y-102432419D01*
X75790075Y-102432419D02*
X75694837Y-102384800D01*
X75694837Y-102384800D02*
X75647218Y-102289561D01*
X75647218Y-102289561D02*
X75647218Y-101908609D01*
X75647218Y-101908609D02*
X75694837Y-101813371D01*
X75694837Y-101813371D02*
X75790075Y-101765752D01*
X75790075Y-101765752D02*
X75980551Y-101765752D01*
X75980551Y-101765752D02*
X76075789Y-101813371D01*
X76075789Y-101813371D02*
X76123408Y-101908609D01*
X76123408Y-101908609D02*
X76123408Y-102003847D01*
X76123408Y-102003847D02*
X75647218Y-102099085D01*
X76551980Y-102337180D02*
X76599599Y-102384800D01*
X76599599Y-102384800D02*
X76551980Y-102432419D01*
X76551980Y-102432419D02*
X76504361Y-102384800D01*
X76504361Y-102384800D02*
X76551980Y-102337180D01*
X76551980Y-102337180D02*
X76551980Y-102432419D01*
X76551980Y-101813371D02*
X76599599Y-101860990D01*
X76599599Y-101860990D02*
X76551980Y-101908609D01*
X76551980Y-101908609D02*
X76504361Y-101860990D01*
X76504361Y-101860990D02*
X76551980Y-101813371D01*
X76551980Y-101813371D02*
X76551980Y-101908609D01*
X77980551Y-101432419D02*
X78075789Y-101432419D01*
X78075789Y-101432419D02*
X78171027Y-101480038D01*
X78171027Y-101480038D02*
X78218646Y-101527657D01*
X78218646Y-101527657D02*
X78266265Y-101622895D01*
X78266265Y-101622895D02*
X78313884Y-101813371D01*
X78313884Y-101813371D02*
X78313884Y-102051466D01*
X78313884Y-102051466D02*
X78266265Y-102241942D01*
X78266265Y-102241942D02*
X78218646Y-102337180D01*
X78218646Y-102337180D02*
X78171027Y-102384800D01*
X78171027Y-102384800D02*
X78075789Y-102432419D01*
X78075789Y-102432419D02*
X77980551Y-102432419D01*
X77980551Y-102432419D02*
X77885313Y-102384800D01*
X77885313Y-102384800D02*
X77837694Y-102337180D01*
X77837694Y-102337180D02*
X77790075Y-102241942D01*
X77790075Y-102241942D02*
X77742456Y-102051466D01*
X77742456Y-102051466D02*
X77742456Y-101813371D01*
X77742456Y-101813371D02*
X77790075Y-101622895D01*
X77790075Y-101622895D02*
X77837694Y-101527657D01*
X77837694Y-101527657D02*
X77885313Y-101480038D01*
X77885313Y-101480038D02*
X77980551Y-101432419D01*
X79171027Y-101432419D02*
X78980551Y-101432419D01*
X78980551Y-101432419D02*
X78885313Y-101480038D01*
X78885313Y-101480038D02*
X78837694Y-101527657D01*
X78837694Y-101527657D02*
X78742456Y-101670514D01*
X78742456Y-101670514D02*
X78694837Y-101860990D01*
X78694837Y-101860990D02*
X78694837Y-102241942D01*
X78694837Y-102241942D02*
X78742456Y-102337180D01*
X78742456Y-102337180D02*
X78790075Y-102384800D01*
X78790075Y-102384800D02*
X78885313Y-102432419D01*
X78885313Y-102432419D02*
X79075789Y-102432419D01*
X79075789Y-102432419D02*
X79171027Y-102384800D01*
X79171027Y-102384800D02*
X79218646Y-102337180D01*
X79218646Y-102337180D02*
X79266265Y-102241942D01*
X79266265Y-102241942D02*
X79266265Y-102003847D01*
X79266265Y-102003847D02*
X79218646Y-101908609D01*
X79218646Y-101908609D02*
X79171027Y-101860990D01*
X79171027Y-101860990D02*
X79075789Y-101813371D01*
X79075789Y-101813371D02*
X78885313Y-101813371D01*
X78885313Y-101813371D02*
X78790075Y-101860990D01*
X78790075Y-101860990D02*
X78742456Y-101908609D01*
X78742456Y-101908609D02*
X78694837Y-102003847D01*
X80409122Y-101384800D02*
X79551980Y-102670514D01*
X80932932Y-101432419D02*
X81028170Y-101432419D01*
X81028170Y-101432419D02*
X81123408Y-101480038D01*
X81123408Y-101480038D02*
X81171027Y-101527657D01*
X81171027Y-101527657D02*
X81218646Y-101622895D01*
X81218646Y-101622895D02*
X81266265Y-101813371D01*
X81266265Y-101813371D02*
X81266265Y-102051466D01*
X81266265Y-102051466D02*
X81218646Y-102241942D01*
X81218646Y-102241942D02*
X81171027Y-102337180D01*
X81171027Y-102337180D02*
X81123408Y-102384800D01*
X81123408Y-102384800D02*
X81028170Y-102432419D01*
X81028170Y-102432419D02*
X80932932Y-102432419D01*
X80932932Y-102432419D02*
X80837694Y-102384800D01*
X80837694Y-102384800D02*
X80790075Y-102337180D01*
X80790075Y-102337180D02*
X80742456Y-102241942D01*
X80742456Y-102241942D02*
X80694837Y-102051466D01*
X80694837Y-102051466D02*
X80694837Y-101813371D01*
X80694837Y-101813371D02*
X80742456Y-101622895D01*
X80742456Y-101622895D02*
X80790075Y-101527657D01*
X80790075Y-101527657D02*
X80837694Y-101480038D01*
X80837694Y-101480038D02*
X80932932Y-101432419D01*
X81599599Y-101432419D02*
X82218646Y-101432419D01*
X82218646Y-101432419D02*
X81885313Y-101813371D01*
X81885313Y-101813371D02*
X82028170Y-101813371D01*
X82028170Y-101813371D02*
X82123408Y-101860990D01*
X82123408Y-101860990D02*
X82171027Y-101908609D01*
X82171027Y-101908609D02*
X82218646Y-102003847D01*
X82218646Y-102003847D02*
X82218646Y-102241942D01*
X82218646Y-102241942D02*
X82171027Y-102337180D01*
X82171027Y-102337180D02*
X82123408Y-102384800D01*
X82123408Y-102384800D02*
X82028170Y-102432419D01*
X82028170Y-102432419D02*
X81742456Y-102432419D01*
X81742456Y-102432419D02*
X81647218Y-102384800D01*
X81647218Y-102384800D02*
X81599599Y-102337180D01*
X83361503Y-101384800D02*
X82504361Y-102670514D01*
X83647218Y-101527657D02*
X83694837Y-101480038D01*
X83694837Y-101480038D02*
X83790075Y-101432419D01*
X83790075Y-101432419D02*
X84028170Y-101432419D01*
X84028170Y-101432419D02*
X84123408Y-101480038D01*
X84123408Y-101480038D02*
X84171027Y-101527657D01*
X84171027Y-101527657D02*
X84218646Y-101622895D01*
X84218646Y-101622895D02*
X84218646Y-101718133D01*
X84218646Y-101718133D02*
X84171027Y-101860990D01*
X84171027Y-101860990D02*
X83599599Y-102432419D01*
X83599599Y-102432419D02*
X84218646Y-102432419D01*
X84837694Y-101432419D02*
X84932932Y-101432419D01*
X84932932Y-101432419D02*
X85028170Y-101480038D01*
X85028170Y-101480038D02*
X85075789Y-101527657D01*
X85075789Y-101527657D02*
X85123408Y-101622895D01*
X85123408Y-101622895D02*
X85171027Y-101813371D01*
X85171027Y-101813371D02*
X85171027Y-102051466D01*
X85171027Y-102051466D02*
X85123408Y-102241942D01*
X85123408Y-102241942D02*
X85075789Y-102337180D01*
X85075789Y-102337180D02*
X85028170Y-102384800D01*
X85028170Y-102384800D02*
X84932932Y-102432419D01*
X84932932Y-102432419D02*
X84837694Y-102432419D01*
X84837694Y-102432419D02*
X84742456Y-102384800D01*
X84742456Y-102384800D02*
X84694837Y-102337180D01*
X84694837Y-102337180D02*
X84647218Y-102241942D01*
X84647218Y-102241942D02*
X84599599Y-102051466D01*
X84599599Y-102051466D02*
X84599599Y-101813371D01*
X84599599Y-101813371D02*
X84647218Y-101622895D01*
X84647218Y-101622895D02*
X84694837Y-101527657D01*
X84694837Y-101527657D02*
X84742456Y-101480038D01*
X84742456Y-101480038D02*
X84837694Y-101432419D01*
X85551980Y-101527657D02*
X85599599Y-101480038D01*
X85599599Y-101480038D02*
X85694837Y-101432419D01*
X85694837Y-101432419D02*
X85932932Y-101432419D01*
X85932932Y-101432419D02*
X86028170Y-101480038D01*
X86028170Y-101480038D02*
X86075789Y-101527657D01*
X86075789Y-101527657D02*
X86123408Y-101622895D01*
X86123408Y-101622895D02*
X86123408Y-101718133D01*
X86123408Y-101718133D02*
X86075789Y-101860990D01*
X86075789Y-101860990D02*
X85504361Y-102432419D01*
X85504361Y-102432419D02*
X86123408Y-102432419D01*
X86980551Y-101432419D02*
X86790075Y-101432419D01*
X86790075Y-101432419D02*
X86694837Y-101480038D01*
X86694837Y-101480038D02*
X86647218Y-101527657D01*
X86647218Y-101527657D02*
X86551980Y-101670514D01*
X86551980Y-101670514D02*
X86504361Y-101860990D01*
X86504361Y-101860990D02*
X86504361Y-102241942D01*
X86504361Y-102241942D02*
X86551980Y-102337180D01*
X86551980Y-102337180D02*
X86599599Y-102384800D01*
X86599599Y-102384800D02*
X86694837Y-102432419D01*
X86694837Y-102432419D02*
X86885313Y-102432419D01*
X86885313Y-102432419D02*
X86980551Y-102384800D01*
X86980551Y-102384800D02*
X87028170Y-102337180D01*
X87028170Y-102337180D02*
X87075789Y-102241942D01*
X87075789Y-102241942D02*
X87075789Y-102003847D01*
X87075789Y-102003847D02*
X87028170Y-101908609D01*
X87028170Y-101908609D02*
X86980551Y-101860990D01*
X86980551Y-101860990D02*
X86885313Y-101813371D01*
X86885313Y-101813371D02*
X86694837Y-101813371D01*
X86694837Y-101813371D02*
X86599599Y-101860990D01*
X86599599Y-101860990D02*
X86551980Y-101908609D01*
X86551980Y-101908609D02*
X86504361Y-102003847D01*
X135710038Y-103162306D02*
X135662419Y-103257544D01*
X135662419Y-103257544D02*
X135662419Y-103400401D01*
X135662419Y-103400401D02*
X135710038Y-103543258D01*
X135710038Y-103543258D02*
X135805276Y-103638496D01*
X135805276Y-103638496D02*
X135900514Y-103686115D01*
X135900514Y-103686115D02*
X136090990Y-103733734D01*
X136090990Y-103733734D02*
X136233847Y-103733734D01*
X136233847Y-103733734D02*
X136424323Y-103686115D01*
X136424323Y-103686115D02*
X136519561Y-103638496D01*
X136519561Y-103638496D02*
X136614800Y-103543258D01*
X136614800Y-103543258D02*
X136662419Y-103400401D01*
X136662419Y-103400401D02*
X136662419Y-103305163D01*
X136662419Y-103305163D02*
X136614800Y-103162306D01*
X136614800Y-103162306D02*
X136567180Y-103114687D01*
X136567180Y-103114687D02*
X136233847Y-103114687D01*
X136233847Y-103114687D02*
X136233847Y-103305163D01*
D12*
X73238963Y-88436965D02*
X72902245Y-88100248D01*
X72902245Y-88100248D02*
X73609352Y-87393141D01*
X73845055Y-89043057D02*
X73440994Y-88638996D01*
X73643024Y-88841026D02*
X74350131Y-88133920D01*
X74350131Y-88133920D02*
X74181772Y-88167591D01*
X74181772Y-88167591D02*
X74047085Y-88167591D01*
X74047085Y-88167591D02*
X73946070Y-88133920D01*
X113611919Y-88563772D02*
X113275202Y-88900490D01*
X113275202Y-88900490D02*
X112568095Y-88193383D01*
X113174187Y-87721978D02*
X113174187Y-87654635D01*
X113174187Y-87654635D02*
X113207858Y-87553619D01*
X113207858Y-87553619D02*
X113376217Y-87385261D01*
X113376217Y-87385261D02*
X113477232Y-87351589D01*
X113477232Y-87351589D02*
X113544576Y-87351589D01*
X113544576Y-87351589D02*
X113645591Y-87385261D01*
X113645591Y-87385261D02*
X113712935Y-87452604D01*
X113712935Y-87452604D02*
X113780278Y-87587291D01*
X113780278Y-87587291D02*
X113780278Y-88395413D01*
X113780278Y-88395413D02*
X114218011Y-87957680D01*
X78075325Y-90537588D02*
X78027706Y-90585208D01*
X78027706Y-90585208D02*
X77884849Y-90632827D01*
X77884849Y-90632827D02*
X77789611Y-90632827D01*
X77789611Y-90632827D02*
X77646754Y-90585208D01*
X77646754Y-90585208D02*
X77551516Y-90489969D01*
X77551516Y-90489969D02*
X77503897Y-90394731D01*
X77503897Y-90394731D02*
X77456278Y-90204255D01*
X77456278Y-90204255D02*
X77456278Y-90061398D01*
X77456278Y-90061398D02*
X77503897Y-89870922D01*
X77503897Y-89870922D02*
X77551516Y-89775684D01*
X77551516Y-89775684D02*
X77646754Y-89680446D01*
X77646754Y-89680446D02*
X77789611Y-89632827D01*
X77789611Y-89632827D02*
X77884849Y-89632827D01*
X77884849Y-89632827D02*
X78027706Y-89680446D01*
X78027706Y-89680446D02*
X78075325Y-89728065D01*
X79027706Y-90632827D02*
X78456278Y-90632827D01*
X78741992Y-90632827D02*
X78741992Y-89632827D01*
X78741992Y-89632827D02*
X78646754Y-89775684D01*
X78646754Y-89775684D02*
X78551516Y-89870922D01*
X78551516Y-89870922D02*
X78456278Y-89918541D01*
X117804580Y-81161666D02*
X117852200Y-81209285D01*
X117852200Y-81209285D02*
X117899819Y-81352142D01*
X117899819Y-81352142D02*
X117899819Y-81447380D01*
X117899819Y-81447380D02*
X117852200Y-81590237D01*
X117852200Y-81590237D02*
X117756961Y-81685475D01*
X117756961Y-81685475D02*
X117661723Y-81733094D01*
X117661723Y-81733094D02*
X117471247Y-81780713D01*
X117471247Y-81780713D02*
X117328390Y-81780713D01*
X117328390Y-81780713D02*
X117137914Y-81733094D01*
X117137914Y-81733094D02*
X117042676Y-81685475D01*
X117042676Y-81685475D02*
X116947438Y-81590237D01*
X116947438Y-81590237D02*
X116899819Y-81447380D01*
X116899819Y-81447380D02*
X116899819Y-81352142D01*
X116899819Y-81352142D02*
X116947438Y-81209285D01*
X116947438Y-81209285D02*
X116995057Y-81161666D01*
X116995057Y-80780713D02*
X116947438Y-80733094D01*
X116947438Y-80733094D02*
X116899819Y-80637856D01*
X116899819Y-80637856D02*
X116899819Y-80399761D01*
X116899819Y-80399761D02*
X116947438Y-80304523D01*
X116947438Y-80304523D02*
X116995057Y-80256904D01*
X116995057Y-80256904D02*
X117090295Y-80209285D01*
X117090295Y-80209285D02*
X117185533Y-80209285D01*
X117185533Y-80209285D02*
X117328390Y-80256904D01*
X117328390Y-80256904D02*
X117899819Y-80828332D01*
X117899819Y-80828332D02*
X117899819Y-80209285D01*
X142883333Y-86379580D02*
X142835714Y-86427200D01*
X142835714Y-86427200D02*
X142692857Y-86474819D01*
X142692857Y-86474819D02*
X142597619Y-86474819D01*
X142597619Y-86474819D02*
X142454762Y-86427200D01*
X142454762Y-86427200D02*
X142359524Y-86331961D01*
X142359524Y-86331961D02*
X142311905Y-86236723D01*
X142311905Y-86236723D02*
X142264286Y-86046247D01*
X142264286Y-86046247D02*
X142264286Y-85903390D01*
X142264286Y-85903390D02*
X142311905Y-85712914D01*
X142311905Y-85712914D02*
X142359524Y-85617676D01*
X142359524Y-85617676D02*
X142454762Y-85522438D01*
X142454762Y-85522438D02*
X142597619Y-85474819D01*
X142597619Y-85474819D02*
X142692857Y-85474819D01*
X142692857Y-85474819D02*
X142835714Y-85522438D01*
X142835714Y-85522438D02*
X142883333Y-85570057D01*
X143216667Y-85474819D02*
X143835714Y-85474819D01*
X143835714Y-85474819D02*
X143502381Y-85855771D01*
X143502381Y-85855771D02*
X143645238Y-85855771D01*
X143645238Y-85855771D02*
X143740476Y-85903390D01*
X143740476Y-85903390D02*
X143788095Y-85951009D01*
X143788095Y-85951009D02*
X143835714Y-86046247D01*
X143835714Y-86046247D02*
X143835714Y-86284342D01*
X143835714Y-86284342D02*
X143788095Y-86379580D01*
X143788095Y-86379580D02*
X143740476Y-86427200D01*
X143740476Y-86427200D02*
X143645238Y-86474819D01*
X143645238Y-86474819D02*
X143359524Y-86474819D01*
X143359524Y-86474819D02*
X143264286Y-86427200D01*
X143264286Y-86427200D02*
X143216667Y-86379580D01*
X152156336Y-84519592D02*
X151819618Y-84182875D01*
X151819618Y-84182875D02*
X152526725Y-83475768D01*
X153166489Y-84586936D02*
X152695084Y-85058340D01*
X153267504Y-84149203D02*
X152594069Y-84485921D01*
X152594069Y-84485921D02*
X153031802Y-84923653D01*
X185195883Y-84798427D02*
X184859166Y-85135145D01*
X184859166Y-85135145D02*
X184152059Y-84428038D01*
X185061196Y-83518900D02*
X184724479Y-83855618D01*
X184724479Y-83855618D02*
X185027525Y-84226007D01*
X185027525Y-84226007D02*
X185027525Y-84158664D01*
X185027525Y-84158664D02*
X185061196Y-84057648D01*
X185061196Y-84057648D02*
X185229555Y-83889290D01*
X185229555Y-83889290D02*
X185330570Y-83855618D01*
X185330570Y-83855618D02*
X185397914Y-83855618D01*
X185397914Y-83855618D02*
X185498929Y-83889290D01*
X185498929Y-83889290D02*
X185667288Y-84057648D01*
X185667288Y-84057648D02*
X185700960Y-84158664D01*
X185700960Y-84158664D02*
X185700960Y-84226007D01*
X185700960Y-84226007D02*
X185667288Y-84327022D01*
X185667288Y-84327022D02*
X185498929Y-84495381D01*
X185498929Y-84495381D02*
X185397914Y-84529053D01*
X185397914Y-84529053D02*
X185330570Y-84529053D01*
X146834732Y-88775582D02*
X146767388Y-88775582D01*
X146767388Y-88775582D02*
X146632701Y-88708238D01*
X146632701Y-88708238D02*
X146565358Y-88640895D01*
X146565358Y-88640895D02*
X146498014Y-88506208D01*
X146498014Y-88506208D02*
X146498014Y-88371521D01*
X146498014Y-88371521D02*
X146531686Y-88270506D01*
X146531686Y-88270506D02*
X146632701Y-88102147D01*
X146632701Y-88102147D02*
X146733716Y-88001132D01*
X146733716Y-88001132D02*
X146902075Y-87900116D01*
X146902075Y-87900116D02*
X147003090Y-87866445D01*
X147003090Y-87866445D02*
X147137777Y-87866445D01*
X147137777Y-87866445D02*
X147272464Y-87933788D01*
X147272464Y-87933788D02*
X147339808Y-88001132D01*
X147339808Y-88001132D02*
X147407151Y-88135819D01*
X147407151Y-88135819D02*
X147407151Y-88203162D01*
X147844884Y-88977612D02*
X147373480Y-89449017D01*
X147945899Y-88539880D02*
X147272464Y-88876597D01*
X147272464Y-88876597D02*
X147710197Y-89314330D01*
X137000346Y-80836403D02*
X137000346Y-81312593D01*
X137000346Y-81312593D02*
X136000346Y-81312593D01*
X136000346Y-80598307D02*
X136000346Y-79979260D01*
X136000346Y-79979260D02*
X136381298Y-80312593D01*
X136381298Y-80312593D02*
X136381298Y-80169736D01*
X136381298Y-80169736D02*
X136428917Y-80074498D01*
X136428917Y-80074498D02*
X136476536Y-80026879D01*
X136476536Y-80026879D02*
X136571774Y-79979260D01*
X136571774Y-79979260D02*
X136809869Y-79979260D01*
X136809869Y-79979260D02*
X136905107Y-80026879D01*
X136905107Y-80026879D02*
X136952727Y-80074498D01*
X136952727Y-80074498D02*
X137000346Y-80169736D01*
X137000346Y-80169736D02*
X137000346Y-80455450D01*
X137000346Y-80455450D02*
X136952727Y-80550688D01*
X136952727Y-80550688D02*
X136905107Y-80598307D01*
X182295895Y-91829419D02*
X182228551Y-91829419D01*
X182228551Y-91829419D02*
X182093864Y-91762075D01*
X182093864Y-91762075D02*
X182026521Y-91694732D01*
X182026521Y-91694732D02*
X181959177Y-91560045D01*
X181959177Y-91560045D02*
X181959177Y-91425358D01*
X181959177Y-91425358D02*
X181992849Y-91324343D01*
X181992849Y-91324343D02*
X182093864Y-91155984D01*
X182093864Y-91155984D02*
X182194879Y-91054969D01*
X182194879Y-91054969D02*
X182363238Y-90953953D01*
X182363238Y-90953953D02*
X182464253Y-90920282D01*
X182464253Y-90920282D02*
X182598940Y-90920282D01*
X182598940Y-90920282D02*
X182733627Y-90987625D01*
X182733627Y-90987625D02*
X182800971Y-91054969D01*
X182800971Y-91054969D02*
X182868314Y-91189656D01*
X182868314Y-91189656D02*
X182868314Y-91256999D01*
X183575421Y-91829419D02*
X183238704Y-91492701D01*
X183238704Y-91492701D02*
X182868314Y-91795747D01*
X182868314Y-91795747D02*
X182935658Y-91795747D01*
X182935658Y-91795747D02*
X183036673Y-91829419D01*
X183036673Y-91829419D02*
X183205032Y-91997778D01*
X183205032Y-91997778D02*
X183238704Y-92098793D01*
X183238704Y-92098793D02*
X183238704Y-92166136D01*
X183238704Y-92166136D02*
X183205032Y-92267152D01*
X183205032Y-92267152D02*
X183036673Y-92435510D01*
X183036673Y-92435510D02*
X182935658Y-92469182D01*
X182935658Y-92469182D02*
X182868314Y-92469182D01*
X182868314Y-92469182D02*
X182767299Y-92435510D01*
X182767299Y-92435510D02*
X182598940Y-92267152D01*
X182598940Y-92267152D02*
X182565269Y-92166136D01*
X182565269Y-92166136D02*
X182565269Y-92098793D01*
D13*
%TO.C,L1*%
X76181578Y-86818997D02*
X74618872Y-85256291D01*
X79203157Y-88070576D02*
G75*
G02*
X75663157Y-88070576I-1770000J0D01*
G01*
X75663157Y-88070576D02*
G75*
G02*
X79203157Y-88070576I1770000J0D01*
G01*
%TO.C,L2*%
X112495290Y-85773186D02*
X110932584Y-87335892D01*
X115516869Y-84521607D02*
G75*
G02*
X111976869Y-84521607I-1770000J0D01*
G01*
X111976869Y-84521607D02*
G75*
G02*
X115516869Y-84521607I1770000J0D01*
G01*
%TO.C,C1*%
X78101411Y-91098008D02*
X78382573Y-91098008D01*
X78101411Y-92118008D02*
X78382573Y-92118008D01*
%TO.C,C2*%
X116800000Y-83795581D02*
X116800000Y-83514419D01*
X117820000Y-83795581D02*
X117820000Y-83514419D01*
%TO.C,C3*%
X139964419Y-85450000D02*
X140245581Y-85450000D01*
X139964419Y-86470000D02*
X140245581Y-86470000D01*
%TO.C,L4*%
X150092635Y-85730052D02*
X151655341Y-87292758D01*
X150611056Y-84478473D02*
G75*
G02*
X147071056Y-84478473I-1770000J0D01*
G01*
X147071056Y-84478473D02*
G75*
G02*
X150611056Y-84478473I1770000J0D01*
G01*
%TO.C,L5*%
X186406343Y-86862129D02*
X187969049Y-85299423D01*
X186924764Y-88113708D02*
G75*
G02*
X183384764Y-88113708I-1770000J0D01*
G01*
X183384764Y-88113708D02*
G75*
G02*
X186924764Y-88113708I1770000J0D01*
G01*
%TO.C,C4*%
X147956789Y-88088038D02*
X147757978Y-87889227D01*
X148678038Y-87366789D02*
X148479227Y-87167978D01*
%TO.C,L3*%
X139315527Y-81439737D02*
X139315527Y-79229737D01*
X141085527Y-83209737D02*
G75*
G02*
X137545527Y-83209737I-1770000J0D01*
G01*
X137545527Y-83209737D02*
G75*
G02*
X141085527Y-83209737I1770000J0D01*
G01*
%TO.C,C5*%
X183307978Y-90939227D02*
X183506789Y-91138038D01*
X184029227Y-90217978D02*
X184228038Y-90416789D01*
%TD*%
M02*
